<svg width="523" height="271" viewBox="0 0 523 271" fill="none" xmlns="http://www.w3.org/2000/svg">
    <path d="M307.951 82.9993C307.84 113.556 310.793 144.026 308.006 174.591C305.009 207.462 310.533 237.434 331.462 259.872C339.042 267.998 342.412 280.296 345.502 292.068C348.579 303.789 344.659 310.628 335.695 310.279C330.911 310.092 326.114 308.173 321.31 307.198C303.703 303.623 286.761 305.632 270.35 314.275C262.104 318.617 253.474 322.037 244.766 324.448C231.746 328.051 220.103 334.437 209.583 345.678C197.333 358.768 192.673 357.34 181.507 340.377C177.224 333.87 173.695 326.44 169.563 319.729C152.8 292.504 131.16 286.852 110.003 304.193C104.757 308.493 99.8902 313.628 94.6465 317.932C81.76 328.508 67.9231 332.018 52.977 324.428C40.3691 318.026 28.0109 314.183 14.4944 317.65C3.05145 320.587 -0.793754 313.76 0.973173 297.718C3.04501 278.905 11.8574 264.932 20.7054 252.734C39.7574 226.469 50.6268 195.655 53.5152 158.247C54.27 148.473 55.0225 133.215 63.5619 133.535C72.9463 133.887 71.5014 149.131 72.9482 158.932C80.1398 207.657 101.26 226.363 135.06 213.393C147.663 208.557 160.317 204.957 173.675 205.56C179.198 205.809 184.923 205.736 190.19 204.009C229.587 191.087 266.196 132.072 269.956 74.6428C271.48 51.3534 275.414 29.8266 286.045 11.8235C289.344 6.23687 292.402 -1.82455 299.012 0.465918C306.601 3.09544 304.538 12.7865 304.964 19.8001C306.242 40.8514 306.994 61.9309 307.951 82.9993Z" fill="#E8E4DE"/>
    <path d="M307.451 82.9991C307.412 93.6695 307.746 104.309 308.078 114.936C308.701 134.809 309.322 154.637 307.508 174.535C304.504 207.479 310.031 237.621 331.1 260.209C338.575 268.222 341.92 280.383 345.018 292.185C346.542 297.988 346.303 302.479 344.674 305.453C343.066 308.386 340.043 309.949 335.704 309.779C333.368 309.688 331.016 309.173 328.626 308.551C327.936 308.371 327.24 308.181 326.541 307.991C324.838 307.526 323.115 307.057 321.4 306.709C303.684 303.112 286.625 305.134 270.109 313.832C261.893 318.158 253.296 321.565 244.622 323.966C231.523 327.592 219.8 334.022 209.214 345.332C206.159 348.597 203.606 350.924 201.329 352.331C199.06 353.732 197.109 354.194 195.229 353.808C193.332 353.418 191.409 352.145 189.241 349.863C187.076 347.583 184.712 344.345 181.924 340.109C179.794 336.874 177.85 333.406 175.916 329.896C175.691 329.488 175.467 329.08 175.242 328.672C173.535 325.568 171.821 322.451 169.988 319.474C161.569 305.801 151.875 297.46 141.547 294.765C131.2 292.065 120.342 295.065 109.68 303.804C107.044 305.966 104.504 308.335 101.978 310.693L101.965 310.704C99.4396 313.062 96.9272 315.406 94.3237 317.543C87.9236 322.796 81.3173 326.269 74.4848 327.5C67.6611 328.731 60.5768 327.732 53.196 323.984C40.5465 317.561 28.0511 313.654 14.36 317.166C11.5433 317.889 9.24721 317.996 7.41542 317.546C5.6014 317.099 4.21319 316.099 3.19825 314.536C2.17339 312.956 1.51541 310.779 1.22907 307.973C0.943091 305.17 1.03104 301.773 1.47057 297.783C3.5279 279.102 12.2766 265.215 21.1128 253.033C40.2238 226.687 51.1196 195.784 54.0141 158.297C54.0475 157.864 54.0809 157.422 54.1148 156.971C54.4666 152.305 54.8853 146.751 56.1026 142.246C56.7699 139.776 57.665 137.671 58.883 136.212C60.0857 134.77 61.5961 133.961 63.554 134.035C65.737 134.117 67.2647 135.052 68.3839 136.565C69.523 138.105 70.2493 140.261 70.7406 142.776C71.2306 145.283 71.4773 148.092 71.692 150.906C71.7207 151.282 71.7488 151.658 71.7769 152.034C71.9581 154.457 72.1372 156.854 72.4532 158.995C76.0542 183.392 83.1561 200.401 93.7 209.67C104.292 218.981 118.239 220.387 135.249 213.86C147.831 209.032 160.409 205.461 173.663 206.059C179.197 206.309 184.998 206.241 190.355 204.484C210.206 197.973 229.286 179.883 243.864 156.285C258.449 132.676 268.57 103.489 270.455 74.6862C271.978 51.4237 275.904 29.9889 286.478 12.0842C286.967 11.2567 287.457 10.3622 287.95 9.46268C288.289 8.84518 288.629 8.22537 288.97 7.62324C289.821 6.12366 290.702 4.69369 291.676 3.5135C292.651 2.33223 293.695 1.43009 294.861 0.951262C296.011 0.478619 297.315 0.403087 298.858 0.937539C300.646 1.55709 301.845 2.58161 302.663 3.87065C303.488 5.17187 303.94 6.76831 304.178 8.54457C304.416 10.3204 304.436 12.2404 304.421 14.1753C304.418 14.5244 304.414 14.8744 304.411 15.224C304.393 16.7988 304.376 18.3664 304.464 19.8194C305.383 34.9564 306.03 50.1057 306.677 65.2603C306.929 71.1726 307.182 77.0856 307.451 82.9991Z" stroke="black" stroke-opacity="0.41"/>
    <path d="M507.869 105.999C504.556 106.015 501.166 105.872 499.808 103.372C498.419 100.817 498.722 98.2361 501.493 96.0825C504.061 94.0874 507.181 93.4297 510.941 94.5306C514.736 95.6414 518.34 97.0095 521.237 98.9915C524.077 100.935 523.421 103.169 519.734 104.22C515.983 105.288 512.014 105.994 507.869 105.999Z" fill="#E8E4DE"/>
    <path d="M507.869 105.499L507.867 105.499C506.206 105.507 504.588 105.473 503.223 105.143C501.868 104.815 500.834 104.213 500.247 103.134L499.812 103.37L500.247 103.134C499.593 101.931 499.361 100.766 499.581 99.6754C499.8 98.5863 500.484 97.4996 501.8 96.4773C504.233 94.587 507.185 93.9517 510.8 95.0104L510.8 95.0104C514.578 96.1163 518.123 97.4667 520.954 99.4041C522.323 100.34 522.629 101.192 522.453 101.802C522.259 102.471 521.406 103.224 519.597 103.739C515.879 104.798 511.957 105.494 507.869 105.499Z" stroke="black" stroke-opacity="0.41"/>
</svg> 