<svg width="343" height="146" viewBox="0 0 343 146" fill="none" xmlns="http://www.w3.org/2000/svg">
    <path d="M311.804 -69.1995C311.141 -50.782 313.543 -32.4451 310.206 -13.9979C306.616 5.84138 311.597 23.8538 332.112 37.1815C339.542 42.0081 342.689 49.3885 345.565 56.4542C348.429 63.4896 344.387 67.6484 335.433 67.5215C330.655 67.4538 325.894 66.3425 321.11 65.7996C303.575 63.8099 286.604 65.1791 270.044 70.5417C261.723 73.2362 253.035 75.378 244.287 76.9124C231.208 79.2061 219.454 83.164 208.736 90.037C196.254 98.041 191.622 97.2243 180.767 87.1054C176.603 83.2232 173.211 78.7782 169.201 74.7722C152.937 58.5206 131.408 55.3168 109.947 65.9665C104.626 68.6068 99.6681 71.7476 94.3489 74.3905C81.2769 80.8851 67.3826 83.1303 52.5798 78.6959C40.0929 74.9554 27.8093 72.7546 14.236 74.9711C2.74489 76.8478 -0.975434 72.7692 1.08034 63.0841C3.49091 51.7265 12.5518 43.2226 21.6162 35.788C41.1343 19.7798 52.5553 1.10643 56.1179 -21.466C57.0487 -27.3643 58.0763 -36.5673 66.6064 -36.4539C75.9804 -36.3297 74.261 -27.1287 75.5302 -21.2351C81.8392 8.06394 102.613 19.1401 136.633 11.0068C149.317 7.97418 162.031 5.6861 175.372 5.92435C180.888 6.02309 186.612 5.9254 191.908 4.83497C231.522 -3.32183 269.181 -39.2328 273.976 -73.8803C275.92 -87.9311 280.24 -100.942 291.193 -111.892C294.591 -115.29 297.793 -120.177 304.359 -118.859C311.897 -117.345 309.66 -111.485 309.959 -107.262C310.856 -94.586 311.227 -81.8884 311.804 -69.1995Z" fill="#E8E4DE"/>
    <path d="M1.56995 63.1979L1.08034 63.0841L1.56995 63.1979C3.94115 52.0257 12.8673 43.6172 21.9388 36.1769C41.5352 20.1044 53.0284 1.3296 56.6122 -21.3778C56.6533 -21.6382 56.6945 -21.9041 56.7364 -22.1745C57.1736 -24.9968 57.686 -28.3047 58.9652 -30.9919C59.6614 -32.4543 60.5727 -33.7037 61.7974 -34.5812C63.0159 -35.4544 64.5748 -35.9814 66.6106 -35.9543C68.8701 -35.9244 70.3981 -35.3499 71.463 -34.4702C72.5328 -33.5865 73.1942 -32.3464 73.6279 -30.8765C74.0629 -29.402 74.2567 -27.7395 74.4206 -26.0447C74.4423 -25.8198 74.4636 -25.5942 74.4848 -25.3683C74.6218 -23.9116 74.7596 -22.4475 75.0411 -21.1403C78.2173 -6.39019 85.0568 3.85768 95.4631 9.36335C105.851 14.8592 119.69 15.5737 136.759 11.4928C149.428 8.46393 162.095 6.18674 175.374 6.42389C180.896 6.52274 186.666 6.42653 192.019 5.3244C211.93 1.22462 231.328 -9.84311 246.349 -24.2244C261.367 -38.6021 272.055 -56.3357 274.471 -73.8014C276.407 -87.7916 280.7 -100.687 291.55 -111.535C292.055 -112.039 292.566 -112.588 293.078 -113.137C293.427 -113.512 293.777 -113.888 294.125 -114.249C294.998 -115.157 295.899 -116.022 296.887 -116.737C298.846 -118.156 301.15 -118.995 304.271 -118.369C306.09 -118.003 307.264 -117.387 308.028 -116.647C308.788 -115.91 309.186 -115.009 309.382 -113.992C309.58 -112.964 309.568 -111.84 309.518 -110.675C309.509 -110.468 309.499 -110.261 309.489 -110.052C309.443 -109.102 309.396 -108.133 309.46 -107.237C310.104 -98.1279 310.477 -89.0107 310.85 -79.8849C310.996 -76.3272 311.141 -72.7683 311.303 -69.208C311.073 -62.7887 311.214 -56.3704 311.355 -49.9706C311.416 -47.1815 311.477 -44.3959 311.508 -41.6153C311.608 -32.4326 311.374 -23.274 309.713 -14.0971C307.907 -4.11387 308.25 5.4472 311.654 14.2055C315.059 22.969 321.511 30.8847 331.846 37.5985C339.124 42.3264 342.221 49.557 345.102 56.6336C346.49 60.0429 346.157 62.614 344.561 64.3293C342.928 66.0828 339.853 67.0847 335.429 67.022C333.074 66.9886 330.716 66.6979 328.337 66.3446C327.645 66.2419 326.95 66.1337 326.254 66.0252C324.562 65.7618 322.858 65.4963 321.156 65.3032C303.556 63.3061 286.513 64.6799 269.88 70.0661C261.581 72.7534 252.916 74.8897 244.19 76.4203C231.064 78.7222 219.245 82.6986 208.459 89.6149C202.22 93.6159 198.073 95.3176 194.188 94.8709C190.297 94.4236 186.537 91.8076 181.105 86.7437C179.042 84.8204 177.166 82.7544 175.297 80.6576C175.08 80.4142 174.863 80.1703 174.646 79.9262C172.996 78.0723 171.334 76.2045 169.551 74.4229C153.12 58.0044 131.353 54.7812 109.716 65.5181C107.043 66.8448 104.462 68.2963 101.894 69.741L101.881 69.7485C99.3143 71.1926 96.7601 72.6296 94.1182 73.9422C81.1354 80.3925 67.3717 82.6085 52.714 78.2176C40.1911 74.4663 27.8236 72.2442 14.1448 74.478C8.41483 75.4138 4.83669 74.8193 2.91804 73.0042C1.01829 71.2069 0.547739 68.0136 1.56995 63.1979Z" stroke="black" stroke-opacity="0.41"/>
    <path d="M282.869 145.999C279.556 146.015 276.166 145.872 274.808 143.372C273.419 140.817 273.722 138.236 276.493 136.082C279.061 134.087 282.181 133.43 285.941 134.531C289.736 135.641 293.34 137.01 296.237 138.991C299.077 140.935 298.421 143.169 294.734 144.22C290.983 145.288 287.014 145.994 282.869 145.999Z" fill="#E8E4DE"/>
    <path d="M282.869 145.499L282.867 145.499C281.206 145.507 279.588 145.473 278.223 145.143C276.868 144.815 275.834 144.213 275.247 143.134L274.812 143.37L275.247 143.134C274.593 141.931 274.361 140.766 274.581 139.675C274.8 138.586 275.484 137.5 276.8 136.477C279.233 134.587 282.185 133.952 285.8 135.01L285.8 135.01C289.578 136.116 293.123 137.467 295.954 139.404C297.323 140.34 297.629 141.192 297.453 141.802C297.259 142.471 296.406 143.224 294.597 143.739C290.879 144.798 286.957 145.494 282.869 145.499Z" stroke="black" stroke-opacity="0.41"/>
</svg>