<svg width="568" height="280" viewBox="0 0 568 280" fill="none" xmlns="http://www.w3.org/2000/svg">
    <path d="M717.509 84.5319C715.483 115.568 720.48 146.424 712.324 177.548C703.552 211.021 714.467 241.294 761.106 263.452C777.996 271.477 785.002 283.865 791.397 295.727C797.765 307.538 788.389 314.601 767.877 314.516C756.93 314.47 746.053 312.666 735.107 311.82C694.984 308.719 656.061 311.268 617.97 320.539C598.83 325.197 578.865 328.93 558.778 331.64C528.748 335.691 501.707 342.527 476.96 354.258C448.141 367.921 437.549 366.611 412.958 349.72C403.524 343.239 395.873 335.8 386.797 329.109C349.98 301.964 300.74 296.875 251.273 315.122C239.009 319.646 227.562 325.008 215.302 329.537C185.171 340.665 153.274 344.646 119.479 337.387C90.9718 331.265 62.8875 327.733 31.7264 331.661C5.3456 334.987 -3.06607 328.169 1.91149 311.824C7.74813 292.657 28.7436 278.201 49.7177 265.547C94.8804 238.3 121.564 206.679 130.35 168.603C132.645 158.653 135.254 143.135 154.795 143.204C176.27 143.279 172.076 158.804 174.822 168.714C188.469 217.981 235.761 236.343 313.934 222.155C343.081 216.864 372.275 212.828 402.836 213.038C415.472 213.126 428.59 212.879 440.754 210.967C531.744 196.659 619.023 135.624 630.965 77.1877C635.807 53.4899 646.065 31.5096 671.462 12.9065C679.342 7.13366 686.813 -1.14521 701.822 0.982131C719.051 3.42443 713.763 13.3284 714.332 20.4384C716.038 41.779 716.538 63.1642 717.509 84.5319Z" fill="#E8E4DE"/>
    <path d="M31.6531 331.165L31.7264 331.661L31.6531 331.165C25.0784 331.994 19.6462 332.188 15.2758 331.766C10.9012 331.343 7.62913 330.308 5.33999 328.712C3.06872 327.128 1.73201 324.97 1.25334 322.212C0.77115 319.434 1.15765 316.027 2.3905 311.979L1.91209 311.824L2.3905 311.979C5.27175 302.517 11.9066 294.183 20.474 286.62C29.0396 279.059 39.5003 272.301 49.9833 265.976C95.2138 238.688 122.012 206.974 130.837 168.725C130.939 168.285 131.041 167.835 131.145 167.377C132.222 162.625 133.495 157.011 136.525 152.428C139.815 147.452 145.198 143.669 154.804 143.703C160.118 143.722 163.781 144.697 166.345 146.253C168.898 147.803 170.408 149.959 171.366 152.441C172.329 154.939 172.729 157.753 173.057 160.604C173.101 160.983 173.144 161.364 173.186 161.744C173.46 164.197 173.734 166.65 174.34 168.837C181.206 193.623 196.553 210.66 220.009 219.696C243.434 228.719 274.905 229.748 314.034 222.646C343.169 217.358 372.328 213.328 402.844 213.538C415.484 213.626 428.636 213.38 440.843 211.46C486.415 204.294 531.052 185.429 565.796 161.036C600.525 136.655 625.448 106.694 631.455 77.2978C636.279 53.6922 646.484 31.8289 671.763 13.3117C672.944 12.4463 674.111 11.5311 675.289 10.6066C682.048 5.30264 689.193 -0.304787 701.762 1.47678C706.026 2.08124 708.836 3.14004 710.68 4.45686C712.507 5.76178 713.414 7.34111 713.839 9.06905C714.269 10.8195 714.208 12.7302 714.061 14.6944C714.035 15.0439 714.006 15.3959 713.977 15.7488C713.846 17.3495 713.713 18.9698 713.833 20.4673C715.06 35.8063 715.662 51.1634 716.265 66.5323C716.501 72.5253 716.736 78.52 717.008 84.5162C716.304 95.3308 716.45 106.136 716.595 116.915C716.659 121.614 716.722 126.307 716.715 130.995C716.692 146.465 715.902 161.911 711.84 177.412C707.432 194.233 707.959 210.302 715.492 224.963C723.022 239.618 737.515 252.793 760.899 263.902C777.628 271.85 784.568 284.104 790.958 295.956C792.517 298.847 793.083 301.395 792.797 303.582C792.512 305.758 791.375 307.637 789.402 309.187C785.425 312.313 778.097 314.059 767.868 314.016C760.814 313.987 753.815 313.227 746.777 312.463C742.913 312.044 739.038 311.623 735.135 311.322C694.965 308.217 655.989 310.769 617.841 320.054C598.719 324.708 578.771 328.437 558.7 331.145C528.636 335.2 501.544 342.046 476.738 353.806C462.338 360.633 452.586 363.669 443.402 362.948C434.221 362.229 425.522 357.75 413.236 349.31C408.54 346.084 404.284 342.617 400.058 339.112C399.567 338.704 399.076 338.296 398.585 337.888C394.856 334.788 391.112 331.675 387.089 328.709C350.108 301.444 300.683 296.359 251.091 314.653C244.947 316.919 239.01 319.395 233.085 321.866L233.045 321.883C227.13 324.35 221.225 326.813 215.119 329.068C185.062 340.169 153.261 344.134 119.574 336.899C91.0379 330.77 62.8918 327.227 31.6531 331.165Z" stroke="black" stroke-opacity="0.41"/>
    <path d="M507.869 114.999C504.556 115.015 501.166 114.872 499.808 112.372C498.419 109.817 498.722 107.236 501.493 105.082C504.061 103.087 507.181 102.43 510.941 103.531C514.736 104.641 518.34 106.01 521.237 107.991C524.077 109.935 523.421 112.169 519.734 113.22C515.983 114.288 512.014 114.994 507.869 114.999Z" fill="#E8E4DE"/>
    <path d="M507.869 114.499L507.867 114.499C506.206 114.507 504.588 114.473 503.223 114.143C501.868 113.815 500.834 113.213 500.247 112.134L499.812 112.37L500.247 112.134C499.593 110.931 499.361 109.766 499.581 108.675C499.8 107.586 500.484 106.5 501.8 105.477C504.233 103.587 507.185 102.952 510.8 104.01L510.8 104.01C514.578 105.116 518.123 106.467 520.954 108.404C522.323 109.34 522.629 110.192 522.453 110.802C522.259 111.471 521.406 112.224 519.597 112.739C515.879 113.798 511.957 114.494 507.869 114.499Z" stroke="black" stroke-opacity="0.41"/>
</svg> 