<svg width="568" height="291" viewBox="0 0 568 291" fill="none" xmlns="http://www.w3.org/2000/svg">
<path d="M-482.252 493.26C-416.118 430.329 -352.115 365.196 -284.265 304.328C-211.296 238.867 -150.001 172.763 -114.772 110.227C-102.014 87.5796 -77.5642 59.5991 -54.0753 32.922C-30.6869 6.35907 -13.4119 -4.69991 -8.47935 2.98591C-5.84709 7.08803 -6.94984 14.7717 -6.01006 20.5151C-2.56462 41.5679 12.5306 50.5885 41.6313 45.5155C56.2536 42.9664 69.1238 42.6188 79.8625 44.4136C95.916 47.0977 117.112 42.9744 148.09 27.9665C184.166 10.4891 184.037 17.054 154.449 60.7113C143.098 77.4604 129.273 95.525 117.387 112.575C69.1641 181.746 70.6789 210.215 121.598 190.891C134.223 186.099 148.415 179.29 161.047 174.489C192.091 162.691 208.461 166.202 201.538 193.467C195.698 216.466 195.231 233.994 211.307 237.344C224.917 240.18 212.597 257.247 176.793 288.958C134.805 326.145 99.0027 348.114 67.0151 366.396C-1.86144 405.759 -75.3803 460.862 -158.089 535.764C-179.701 555.336 -213.166 586.217 -217.893 578.921C-223.088 570.904 -189.213 540.589 -168.941 519.253C-68.1614 413.179 -41.1233 358.193 -90.6157 358.679C-109.069 358.861 -124.883 356.453 -132.057 344.831C-135.023 340.026 -138.814 335.728 -145.892 335.199C-198.832 331.237 -349.658 424.5 -476.206 540.015C-527.525 586.86 -576.563 628.199 -622.233 657.066C-636.405 666.024 -655.775 680.273 -655.018 670.414C-654.149 659.095 -631.887 640.712 -616.994 625.917C-572.292 581.51 -527.195 537.453 -482.252 493.26Z" fill="#E8E4DE"/>
<path d="M-481.913 493.627C-458.883 471.713 -436.116 449.536 -413.358 427.368L-482.252 493.26L-481.916 493.63C-481.915 493.629 -481.914 493.628 -481.913 493.627Z" stroke="black" stroke-opacity="0.41"/>
<path d="M645.261 131.697C640.235 134.573 633.826 135.802 628.125 137.991C612.22 144.1 598.616 152.521 583.541 159.461C579.578 161.285 575.74 163.244 571.735 165.02C570.071 165.758 568.17 166.806 566.109 165.475C564.248 164.273 564.962 162.784 565.514 161.401C565.909 160.413 566.517 159.448 567.202 158.537C570.156 154.604 571.749 150.507 571.397 145.989C571.056 141.596 573.763 138.189 578.373 135.059C584.413 130.959 591.281 127.776 598.342 124.753C604.713 122.025 610.517 118.888 615.374 114.925C617.549 113.151 619.945 111.605 623.346 111.216C637.115 109.642 649.091 104.973 660.433 99.8218C676.847 92.3663 694.122 85.9352 710.519 78.4892C715.717 76.1285 721.292 74.1248 725.483 70.7663C726.613 69.8613 728.303 69.2186 729.894 68.6876C739.271 65.5593 748.245 62.0458 755.563 56.7442C756.763 55.8745 758.486 55.3244 760.055 54.7427C762.884 53.6939 764.056 55.0737 764.191 56.595C764.419 59.1717 763.184 61.5201 760.107 63.1482C758.217 64.1479 756.231 65.0813 754.163 65.8892C748.364 68.1551 743.709 71.1432 740.146 75.1411C735.22 80.6682 727.992 84.883 720.442 88.3447C709.449 93.3851 700.068 99.6567 690.376 105.676C682.181 110.767 672.561 114.532 664.767 119.956C658.711 124.169 653.207 128.867 645.261 131.697Z" fill="#E8E4DE"/>
<path d="M644.964 131.314L644.918 131.33L565.514 161.401L566.061 161.567C566.061 161.567 566.061 161.567 566.061 161.567C566.443 160.613 567.032 159.674 567.707 158.776C570.695 154.798 572.324 150.63 571.965 146.019L571.397 145.989L571.965 146.019C571.636 141.789 574.23 138.479 578.786 135.386L578.373 135.059L578.786 135.386C584.786 131.312 591.617 128.145 598.672 125.124C605.071 122.384 610.918 119.226 615.817 115.229C617.977 113.467 620.279 112.001 623.503 111.632C637.376 110.046 649.421 105.345 660.774 100.188C668.971 96.465 677.384 92.997 685.806 89.5259L685.83 89.516C694.241 86.0494 702.659 82.5796 710.859 78.8556C711.933 78.3679 713.03 77.8931 714.132 77.4159C718.309 75.6075 722.561 73.7666 725.923 71.0725C726.982 70.2241 728.591 69.6056 730.181 69.0751C739.571 65.9423 748.607 62.4084 755.987 57.0629L755.563 56.7442L755.987 57.0629C756.953 56.3628 758.278 55.8815 759.648 55.3843C759.884 55.2984 760.122 55.212 760.36 55.1239C761.696 54.6285 762.423 54.7819 762.807 55.0157C763.255 55.2884 763.56 55.8477 763.624 56.5682C763.841 59.0164 762.675 61.2419 759.738 62.7953C757.863 63.7877 755.894 64.7123 753.849 65.5115C747.987 67.8022 743.269 70.8282 739.659 74.8792C734.787 80.3461 727.624 84.5292 720.1 87.9791C710.899 92.1978 702.82 97.2778 694.779 102.334C693.18 103.339 691.583 104.344 689.979 105.34C686.374 107.579 682.492 109.561 678.59 111.553C678.08 111.813 677.569 112.074 677.059 112.335C672.654 114.591 668.275 116.901 664.35 119.632C663.151 120.466 661.978 121.316 660.808 122.163C656.022 125.628 651.278 129.064 644.964 131.314Z" stroke="black" stroke-opacity="0.41"/>
<path d="M507.869 125.999C504.556 126.015 501.166 125.872 499.808 123.372C498.419 120.817 498.722 118.236 501.493 116.082C504.061 114.087 507.181 113.43 510.941 114.531C514.736 115.641 518.34 117.01 521.237 118.991C524.077 120.935 523.421 123.169 519.734 124.22C515.983 125.288 512.014 125.994 507.869 125.999Z" fill="#E8E4DE"/>
<path d="M507.869 125.499L507.867 125.499C506.206 125.507 504.588 125.473 503.223 125.143C501.868 124.815 500.834 124.213 500.247 123.134L499.812 123.37L500.247 123.134C499.593 121.931 499.361 120.766 499.581 119.675C499.8 118.586 500.484 117.5 501.8 116.477C504.233 114.587 507.185 113.952 510.8 115.01L510.8 115.01C514.578 116.116 518.123 117.467 520.954 119.404C522.323 120.34 522.629 121.192 522.453 121.802C522.259 122.471 521.406 123.224 519.597 123.739C515.879 124.798 511.957 125.494 507.869 125.499Z" stroke="black" stroke-opacity="0.41"/>
</svg>



