<svg width="523" height="311" viewBox="0 0 523 311" fill="none" xmlns="http://www.w3.org/2000/svg">
    <path d="M377.883 124.879C334.392 148.26 292.394 174.317 247.693 195.308C199.619 217.883 159.48 245.858 136.948 281.834C128.788 294.862 112.812 307.329 97.4601 319.14C82.1735 330.9 70.6951 332.646 67.1803 324.354C65.3046 319.929 65.8845 314.161 65.1211 309.112C62.3225 290.605 51.8834 276.983 32.2507 268.935C22.3858 264.891 13.6614 259.795 6.33627 253.852C-4.61426 244.967 -18.9048 239.453 -39.5936 238.674C-63.687 237.767 -63.7434 232.499 -44.6252 209.47C-37.2904 200.636 -28.3064 191.768 -20.6151 182.913C10.5876 146.989 8.93646 123.276 -25.1874 117.664C-33.6478 116.272 -43.1276 115.862 -51.5931 114.475C-72.3966 111.067 -83.5804 101.379 -79.4802 82.1689C-76.0216 65.9644 -76.0888 51.9493 -87.0688 42.5155C-96.3649 34.5291 -88.38 25.8414 -64.7823 15.0963C-37.1094 2.49519 -13.2998 -0.353773 8.00236 -1.80697C53.8707 -4.93576 102.544 -18.8843 157.019 -45.0429C171.253 -51.8783 193.282 -62.9289 196.649 -55.0389C200.349 -46.3687 178.03 -35.9485 164.743 -27.1224C98.6905 16.7551 81.5501 50.0329 115.118 70.3212C127.635 77.8858 138.416 86.4463 143.538 98.8656C145.655 104.001 148.322 109.069 153.135 112.456C189.14 137.791 289.428 125.213 372.757 84.449C406.55 67.918 438.915 54.8975 469.269 50.5803C478.688 49.2403 491.517 45.7828 491.22 53.4596C490.878 62.2727 476.177 67.8726 466.396 73.6429C437.04 90.9627 407.408 107.833 377.883 124.879Z" fill="#E8E4DE"/>
    <path d="M-86.747 42.1282L-87.0688 42.5155L-86.747 42.1282C-89.0181 40.1771 -90.1599 38.246 -90.3335 36.3212C-90.5068 34.4006 -89.7271 32.3621 -87.8857 30.1656C-84.183 25.7492 -76.3848 20.9298 -64.5845 15.5566C-36.9902 2.99132 -13.2484 0.148115 8.02986 -1.30345C53.9747 -4.43746 102.709 -18.4082 157.226 -44.5868C157.856 -44.8894 158.501 -45.2 159.158 -45.5167C165.942 -48.7837 174.067 -52.6971 181.062 -55.0846C184.902 -56.3955 188.357 -57.2299 191.038 -57.2622C193.73 -57.2947 195.472 -56.5267 196.194 -54.8333C197.014 -52.9122 196.434 -50.8371 194.703 -48.5672C192.972 -46.2969 190.166 -43.9417 186.787 -41.5526C183.415 -39.1685 179.509 -36.7761 175.605 -34.4221C175.082 -34.1066 174.559 -33.7917 174.037 -33.4776C170.671 -31.4526 167.362 -29.4612 164.476 -27.5442C131.444 -5.60134 110.545 13.7487 102.134 30.2164C97.9199 38.4674 96.817 46.0424 98.9499 52.8649C101.08 59.6797 106.409 65.6473 114.862 70.756C127.36 78.3097 138.023 86.8015 143.081 99.0656C145.207 104.221 147.918 109.401 152.851 112.872C161.946 119.273 175.057 123.251 190.864 125.002C206.679 126.754 225.234 126.28 245.256 123.74C285.298 118.66 331.255 105.309 372.968 84.9035C406.749 68.3781 439.057 55.3861 469.332 51.0801C470.75 50.8782 472.232 50.6314 473.728 50.3823C477.258 49.7942 480.864 49.1936 483.89 49.1433C486.043 49.1075 487.805 49.3561 488.997 50.0253C489.583 50.3541 490.023 50.7803 490.313 51.3221C490.603 51.8653 490.759 52.5574 490.725 53.4454C490.645 55.4985 489.73 57.3942 488.2 59.1916C486.666 60.9926 484.536 62.6682 482.084 64.2682C479.633 65.8666 476.885 67.3741 474.127 68.848C473.626 69.1156 473.125 69.3822 472.625 69.648C470.378 70.8424 468.161 72.0212 466.152 73.2069C445.039 85.663 423.785 97.8861 402.528 110.111C394.233 114.881 385.937 119.652 377.649 124.437C362.491 132.586 347.525 141.053 332.569 149.515C304.575 165.354 276.615 181.173 247.49 194.85C199.384 217.44 159.141 245.467 136.531 281.566C128.43 294.5 112.541 306.909 97.1645 318.738C89.5473 324.598 82.9337 327.918 77.8312 328.769C75.2854 329.193 73.1469 328.998 71.45 328.23C69.7628 327.467 68.47 326.119 67.6354 324.15C66.7323 322.019 66.4119 319.543 66.2276 316.925C66.1747 316.174 66.1331 315.408 66.0911 314.637C65.9886 312.754 65.8844 310.839 65.6107 309.029C62.7839 290.335 52.2208 276.576 32.44 268.467C22.614 264.439 13.9317 259.365 6.64748 253.456C-4.39946 244.493 -18.7965 238.951 -39.5697 238.17C-45.5893 237.943 -50.0533 237.444 -53.0806 236.485C-56.1094 235.524 -57.5479 234.157 -57.8239 232.287C-58.1127 230.331 -57.1777 227.627 -54.8739 223.886C-52.5875 220.172 -49.0263 215.549 -44.2485 209.794C-40.5915 205.389 -36.5209 200.973 -32.3964 196.545C-31.9169 196.03 -31.4368 195.515 -30.9564 195C-27.3078 191.087 -23.6505 187.165 -20.2458 183.245C-12.4277 174.244 -6.65208 165.99 -2.92687 158.577C0.796504 151.168 2.48801 144.565 2.09026 138.88C1.69108 133.174 -0.81039 128.433 -5.38044 124.776C-9.93534 121.132 -16.5266 118.576 -25.1031 117.165C-29.351 116.467 -33.8516 116.015 -38.3343 115.565L-38.3586 115.563C-42.8393 115.114 -47.3016 114.666 -51.5091 113.977C-61.8692 112.28 -69.739 109.031 -74.5143 103.898C-79.2615 98.7959 -81.0203 91.7536 -78.9962 82.2708C-75.5326 66.0428 -75.5392 51.7577 -86.747 42.1282Z" stroke="black" stroke-opacity="0.41"/>
    <path d="M507.869 145.999C504.556 146.015 501.166 145.872 499.808 143.372C498.419 140.817 498.722 138.236 501.493 136.082C504.061 134.087 507.181 133.43 510.941 134.531C514.736 135.641 518.34 137.01 521.237 138.991C524.077 140.935 523.421 143.169 519.734 144.22C515.983 145.288 512.014 145.994 507.869 145.999Z" fill="#E8E4DE"/>
    <path d="M507.869 145.499L507.867 145.499C506.206 145.507 504.588 145.473 503.223 145.143C501.868 144.815 500.834 144.213 500.247 143.134L499.812 143.37L500.247 143.134C499.593 141.931 499.361 140.766 499.581 139.675C499.8 138.586 500.484 137.5 501.8 136.477C504.233 134.587 507.185 133.952 510.8 135.01L510.8 135.01C514.578 136.116 518.123 137.467 520.954 139.404C522.323 140.34 522.629 141.192 522.453 141.802C522.259 142.471 521.406 143.224 519.597 143.739C515.879 144.798 511.957 145.494 507.869 145.499Z" stroke="black" stroke-opacity="0.41"/>
</svg>