<svg width="430" height="311" viewBox="0 0 430 311" fill="none" xmlns="http://www.w3.org/2000/svg">
    <path d="M190.372 282.155C162.676 282.236 135.1 285.38 107.36 282.787C77.5259 279.997 50.4375 285.708 30.3905 306.775C23.1305 314.404 12.031 317.851 1.40487 321.015C-9.17577 324.165 -15.4289 320.288 -15.236 311.324C-15.1329 306.54 -13.4607 301.731 -12.6432 296.923C-9.64692 279.296 -11.7021 262.37 -19.7625 246.017C-23.8126 237.799 -27.0315 229.193 -29.337 220.501C-32.7832 207.507 -38.7323 195.906 -49.0655 185.46C-61.0991 173.294 -59.8698 168.625 -44.6504 157.355C-38.8115 153.032 -32.1261 149.457 -26.101 145.284C-1.65787 128.353 3.16489 106.681 -12.8451 85.6372C-16.8145 80.4198 -21.5365 75.5859 -25.5097 70.3702C-35.2733 57.5528 -38.6464 43.7407 -31.9745 28.7497C-26.3465 16.104 -23.0341 3.72392 -26.3642 -9.76809C-29.1837 -21.1903 -23.0493 -25.0778 -8.48539 -23.4122C8.59376 -21.4591 21.38 -12.7364 32.558 -3.96688C56.6267 14.9161 84.7053 25.5895 118.649 28.2419C127.519 28.935 141.358 29.5913 141.186 38.1311C140.997 47.5159 127.16 46.1672 118.297 47.6754C74.2357 55.1723 57.5744 76.4061 69.7975 110.118C74.355 122.688 77.7929 135.317 77.4316 148.676C77.2818 154.199 77.4274 159.923 79.0659 165.178C91.323 204.486 145.317 240.717 197.42 244.114C218.549 245.492 238.114 249.289 254.578 259.805C259.687 263.069 267.036 266.075 265.051 272.698C262.773 280.302 253.961 278.3 247.61 278.77C228.548 280.18 209.454 281.065 190.372 282.155Z" fill="#E8E4DE"/>
    <path d="M-25.8792 -9.89816L-26.3642 -9.76809L-25.8792 -9.89817C-27.2718 -15.5399 -26.4017 -19.0906 -23.6552 -21.0958C-22.2501 -22.1216 -20.3003 -22.7895 -17.771 -23.0923C-15.2442 -23.3947 -12.1718 -23.3288 -8.55266 -22.9149C8.38394 -20.9781 21.08 -12.3294 32.2448 -3.57026C56.3949 15.3766 84.5669 26.0815 118.599 28.7409C118.992 28.7715 119.393 28.8021 119.801 28.8332C124.037 29.1557 129.068 29.5387 133.16 30.725C135.401 31.3747 137.312 32.2528 138.646 33.4559C139.963 34.6441 140.726 36.1543 140.686 38.1319C140.642 40.3336 139.807 41.8677 138.462 42.9873C137.092 44.1272 135.161 44.863 132.896 45.3685C130.636 45.8729 128.099 46.1367 125.552 46.3691C125.211 46.4002 124.871 46.4307 124.53 46.4611C122.337 46.6574 120.164 46.852 118.224 47.182C96.1486 50.9381 80.8126 58.1524 72.5494 68.7636C64.2597 79.4089 63.181 93.3452 69.3276 110.298C73.8779 122.848 77.2911 135.408 76.9322 148.673C76.7822 154.206 76.9247 159.999 78.5889 165.337C84.7621 185.134 101.42 204.099 123.018 218.531C144.623 232.968 171.228 242.909 197.376 244.614C218.474 245.989 237.941 249.778 254.303 260.229C255.06 260.713 255.879 261.199 256.702 261.687C257.266 262.021 257.832 262.357 258.381 262.694C259.751 263.534 261.057 264.405 262.138 265.369C263.219 266.333 264.052 267.371 264.504 268.538C264.952 269.695 265.039 271.01 264.573 272.564C264.034 274.364 263.12 275.565 261.974 276.383C260.818 277.209 259.39 277.667 257.792 277.915C256.193 278.163 254.46 278.195 252.706 278.192C252.39 278.192 252.074 278.19 251.757 278.188C250.33 278.181 248.904 278.173 247.584 278.271C233.879 279.285 220.159 280.027 206.433 280.769C201.078 281.059 195.723 281.348 190.368 281.654C180.721 281.683 171.084 282.083 161.46 282.482C157.262 282.657 153.068 282.831 148.876 282.974C135.059 283.446 121.255 283.582 107.417 282.288C77.497 279.49 50.2276 285.211 30.0326 306.434C22.8837 313.946 11.9269 317.363 1.27224 320.535C-3.95404 322.091 -8.00039 321.876 -10.6945 320.28C-13.361 318.7 -14.8305 315.686 -14.7366 311.324C-14.6862 308.983 -14.2515 306.624 -13.72 304.231C-13.5663 303.538 -13.4039 302.841 -13.2407 302.14C-12.8438 300.435 -12.4425 298.712 -12.1509 296.996C-9.13791 279.272 -11.2049 262.239 -19.3137 245.787C-23.3496 237.599 -26.557 229.023 -28.854 220.363C-32.3194 207.297 -38.307 195.617 -48.707 185.103C-51.7076 182.07 -53.8514 179.533 -55.1586 177.263C-56.461 175.003 -56.9126 173.044 -56.5857 171.146C-56.2568 169.237 -55.1262 167.305 -53.0921 165.128C-51.058 162.951 -48.1587 160.569 -44.3593 157.756C-41.4586 155.608 -38.3438 153.643 -35.1894 151.687C-34.8231 151.46 -34.4561 151.233 -34.0889 151.006C-31.3002 149.28 -28.497 147.546 -25.8231 145.693C-13.5356 137.182 -6.11263 127.433 -3.8157 117.101C-1.51629 106.759 -4.37644 95.9344 -12.4455 85.3283C-14.4409 82.7055 -16.6239 80.1812 -18.7955 77.6706L-18.8064 77.6579C-20.9779 75.1475 -23.1376 72.6505 -25.1102 70.0611C-34.7963 57.3454 -38.0967 43.7247 -31.519 28.9452C-25.8723 16.2573 -22.5101 3.75183 -25.8792 -9.89816Z" stroke="black" stroke-opacity="0.41"/>
    <path d="M414.869 156.999C411.556 157.015 408.166 156.872 406.808 154.372C405.419 151.817 405.722 149.236 408.493 147.082C411.061 145.087 414.181 144.43 417.941 145.531C421.736 146.641 425.34 148.01 428.237 149.991C431.077 151.935 430.421 154.169 426.734 155.22C422.983 156.288 419.014 156.994 414.869 156.999Z" fill="#E8E4DE"/>
    <path d="M414.869 156.499L414.867 156.499C413.206 156.507 411.588 156.473 410.223 156.143C408.868 155.815 407.834 155.213 407.247 154.134L406.812 154.37L407.247 154.134C406.593 152.931 406.361 151.766 406.581 150.675C406.8 149.586 407.484 148.5 408.8 147.477C411.233 145.587 414.185 144.952 417.8 146.01L417.8 146.01C421.578 147.116 425.123 148.467 427.954 150.404C429.323 151.34 429.629 152.192 429.453 152.802C429.259 153.471 428.406 154.224 426.597 154.739C422.879 155.798 418.957 156.494 414.869 156.499Z" stroke="black" stroke-opacity="0.41"/>
</svg>