<svg width="568" height="311" viewBox="0 0 568 311" fill="none" xmlns="http://www.w3.org/2000/svg">
        <path d="M161.537 13.329C231.194 21.3392 301.171 26.3015 370.395 36.9563C444.842 48.4158 514.116 50.71 568.806 35.8421C588.612 30.4575 617.222 30.3092 644.584 30.3011C671.829 30.2931 686.764 35.9333 684.456 44.6952C683.224 49.3714 678.041 53.6133 675.008 58.1049C663.89 74.5692 665.616 91.8203 682.558 110.262C691.071 119.529 697.415 128.935 701.445 138.159C707.468 151.948 720.068 165.098 743.926 178.394C771.71 193.876 767.67 198.11 727.11 204.751C711.549 207.298 694.012 208.862 678.014 211.207C613.111 220.723 596.578 240.633 632.555 266.011C641.475 272.303 652.365 278.438 661.295 284.729C683.239 300.19 688.912 314.763 669.088 327.561C652.365 338.357 641.519 349.568 647.149 363.813C651.916 375.873 635.701 377.905 599.42 372.012C556.872 365.102 526.496 352.786 500.173 340.894C443.493 315.288 375.061 296.586 290.251 284.061C268.09 280.788 233.425 276.1 235.595 267.75C237.979 258.573 272.495 263.941 295.087 265.047C407.401 270.543 453.613 254.521 429.733 217.787C420.829 204.091 414.753 190.663 418.378 177.627C419.877 172.237 420.675 166.565 417.624 160.916C394.797 118.667 266.398 67.2532 136.081 48.6915C83.2332 41.1643 34.8104 31.7137 -4.4492 16.5591C-16.6321 11.8566 -34.4988 6.75253 -28.1623 0.816584C-20.8879 -5.99796 0.862136 -1.45471 16.9263 -0.0616818C65.143 4.11924 113.336 8.82693 161.537 13.329Z" fill="#E8E4DE"/>
        <path d="M161.475 13.8252C185.737 16.6153 210.03 19.0348 234.311 21.4534L161.537 13.329L161.469 13.8246C161.471 13.8247 161.473 13.825 161.475 13.8252Z" stroke="black" stroke-opacity="0.41"/>
        <path d="M507.869 145.999C504.556 146.015 501.166 145.872 499.808 143.372C498.419 140.817 498.722 138.236 501.493 136.082C504.061 134.087 507.181 133.43 510.941 134.531C514.736 135.641 518.34 137.01 521.237 138.991C524.077 140.935 523.421 143.169 519.734 144.22C515.983 145.288 512.014 145.994 507.869 145.999Z" fill="#E8E4DE"/>
        <path d="M507.869 145.499L507.867 145.499C506.206 145.507 504.588 145.473 503.223 145.143C501.868 144.815 500.834 144.213 500.247 143.134L499.812 143.37L500.247 143.134C499.593 141.931 499.361 140.766 499.581 139.675C499.8 138.586 500.484 137.5 501.8 136.477C504.233 134.587 507.185 133.952 510.8 135.01L510.8 135.01C514.578 136.116 518.123 137.467 520.954 139.404C522.323 140.34 522.629 141.192 522.453 141.802C522.259 142.471 521.406 143.224 519.597 143.739C515.879 144.798 511.957 145.494 507.869 145.499Z" stroke="black" stroke-opacity="0.41"/>
    </svg>