<svg width="546" height="214" viewBox="0 0 546 214" fill="none" xmlns="http://www.w3.org/2000/svg">
    <path d="M490.182 49.4747C488.426 67.5707 491.94 85.5344 485.585 103.706C478.75 123.249 486.707 140.849 521.524 153.58C534.133 158.19 539.294 165.382 544.001 172.27C548.688 179.129 541.6 183.282 526.215 183.313C518.003 183.33 509.857 182.321 501.653 181.872C471.579 180.223 442.362 181.862 413.718 187.415C399.325 190.206 384.32 192.46 369.231 194.119C346.674 196.598 326.338 200.689 307.685 207.624C285.962 215.7 278.027 214.979 259.709 205.231C252.682 201.492 246.999 197.186 240.242 193.322C212.83 177.647 175.932 174.875 138.687 185.706C129.452 188.391 120.825 191.561 111.594 194.248C88.907 200.853 64.9493 203.299 39.6539 199.202C18.316 195.746 -2.72408 193.799 -26.129 196.211C-45.9436 198.253 -52.2016 194.313 -48.3433 184.767C-43.8192 173.573 -27.9597 165.066 -12.1299 157.608C21.9556 141.55 42.2128 123.016 49.0929 100.789C50.8906 94.9814 52.9654 85.927 67.6236 85.89C83.7322 85.8491 80.4682 94.9137 82.4523 100.679C92.3144 129.338 127.65 139.853 186.399 131.276C208.303 128.077 230.233 125.61 253.157 125.612C262.635 125.613 272.476 125.417 281.616 124.255C349.98 115.557 415.915 79.6405 425.318 45.536C429.131 31.7055 436.993 18.8547 456.185 7.9123C462.141 4.51671 467.808 -0.337818 479.05 0.842799C491.956 2.19821 487.914 7.99124 488.286 12.1328C489.404 24.5636 489.617 37.0252 490.182 49.4747Z" fill="#E8E4DE"/>
    <path d="M-26.1911 195.714L-26.129 196.211L-26.1911 195.714C-31.1287 196.223 -35.2041 196.357 -38.4778 196.129C-41.7583 195.899 -44.1951 195.308 -45.8828 194.397C-47.5499 193.496 -48.4786 192.289 -48.7969 190.777C-49.1214 189.236 -48.8263 187.307 -47.8787 184.963L-48.3433 184.767L-47.8787 184.963C-45.6707 179.5 -40.6708 174.641 -34.1871 170.2C-27.7124 165.766 -19.8205 161.788 -11.9084 158.061C22.2224 141.981 42.6308 123.368 49.5712 100.946C49.6508 100.689 49.7307 100.427 49.8118 100.161C50.6572 97.3838 51.6409 94.1531 53.9182 91.5058C56.3852 88.6379 60.4225 86.4078 67.6358 86.3897C71.6229 86.3795 74.3563 86.9341 76.2527 87.8241C78.1318 88.7061 79.2116 89.9276 79.8851 91.3168C80.5689 92.7271 80.843 94.3267 81.0677 95.9863C81.0973 96.2049 81.126 96.425 81.1549 96.6459C81.3413 98.0721 81.5319 99.5314 81.9794 100.832C86.9759 115.352 98.4284 125.245 115.961 130.42C133.472 135.589 157.075 136.063 186.481 131.77C208.377 128.573 230.279 126.109 253.167 126.111C262.649 126.112 272.517 125.917 281.69 124.75C315.932 120.394 349.566 109.222 375.825 94.8622C388.955 87.6824 400.253 79.6994 408.864 71.3628C417.47 63.0303 423.418 54.319 425.8 45.6783C429.58 31.9681 437.363 19.2242 456.44 8.34752C457.334 7.83828 458.216 7.30013 459.106 6.75668C464.212 3.64144 469.603 0.35193 479.009 1.33968C482.205 1.67532 484.295 2.28119 485.65 3.03197C486.985 3.77118 487.607 4.64886 487.89 5.57855C488.182 6.53915 488.128 7.60362 488.004 8.7474C487.982 8.94477 487.958 9.14558 487.934 9.34857C487.823 10.2827 487.707 11.263 487.788 12.1666C488.591 21.0942 488.926 30.0314 489.261 38.9838C489.392 42.4705 489.522 45.9594 489.681 49.451C489.071 55.7645 489.098 62.0773 489.125 68.3592C489.137 71.0941 489.149 73.8231 489.108 76.5437C488.973 85.5493 488.264 94.5206 485.112 103.532C481.657 113.41 481.924 122.866 487.517 131.463C493.092 140.033 503.907 147.667 521.361 154.048C533.816 158.602 538.901 165.684 543.59 172.545C544.718 174.196 545.084 175.607 544.87 176.785C544.657 177.959 543.848 179.02 542.367 179.924C539.38 181.749 533.88 182.798 526.203 182.814C520.912 182.824 515.669 182.409 510.396 181.992C507.501 181.763 504.596 181.533 501.67 181.373C471.559 179.722 442.301 181.363 413.612 186.925C399.233 189.713 384.242 191.965 369.166 193.622C346.583 196.104 326.204 200.202 307.501 207.155C296.651 211.189 289.318 212.996 282.437 212.613C275.563 212.23 269.081 209.658 259.937 204.792C256.444 202.933 253.282 200.932 250.139 198.905C249.774 198.67 249.409 198.434 249.044 198.198C246.27 196.406 243.482 194.605 240.483 192.89C212.924 177.13 175.879 174.368 138.537 185.226C133.911 186.571 129.438 188.037 124.974 189.501L124.945 189.51C120.488 190.972 116.041 192.43 111.444 193.769C88.8168 200.356 64.9345 202.792 39.7235 198.709C18.3623 195.249 -2.72591 193.295 -26.1911 195.714Z" stroke="black" stroke-opacity="0.41"/>
    <path d="M507.869 90.999C504.556 91.0152 501.166 90.872 499.808 88.3724C498.419 85.8168 498.722 83.2361 501.493 81.0825C504.061 79.0874 507.181 78.4297 510.941 79.5306C514.736 80.6414 518.34 82.0095 521.237 83.9915C524.077 85.9351 523.421 88.1695 519.734 89.2197C515.983 90.2885 512.014 90.9939 507.869 90.999Z" fill="#E8E4DE"/>
    <path d="M507.869 90.499L507.867 90.499C506.206 90.5071 504.588 90.4732 503.223 90.1431C501.868 89.8155 500.834 89.2135 500.247 88.1336L499.812 88.3701L500.247 88.1336C499.593 86.9307 499.361 85.7663 499.581 84.6754C499.8 83.5863 500.484 82.4996 501.8 81.4773C504.233 79.587 507.185 78.9517 510.8 80.0104L510.8 80.0104C514.578 81.1163 518.123 82.4667 520.954 84.4041C522.323 85.3403 522.629 86.1924 522.453 86.8017C522.259 87.4708 521.406 88.2236 519.597 88.7388C515.879 89.7981 511.957 90.4939 507.869 90.499Z" stroke="black" stroke-opacity="0.41"/>
</svg>