<svg width="350" height="63" viewBox="0 0 350 63" fill="none" xmlns="http://www.w3.org/2000/svg">
    <g clip-path="url(#clip0_115_988)">
    <path d="M337.666 43.6706L327.702 29.0193H313L331.89 57H350V1H337.666V43.6706Z" fill="black"/>
    <path d="M109.511 0V38.0547C109.511 46.0285 107.145 50.5576 99.5 50.5576V45.5778C92.7635 45.5778 89.4887 41.4756 89.4887 33.0367V1.07663H77V33.0367C77 48.0202 83.7884 57.9632 99.5 57.9632V63C113.378 63 122 53.4416 122 38.0547V17.7943L109.511 0Z" fill="black"/>
    <path d="M180 1H168V57H180V1Z" fill="black"/>
    <path d="M243 1H231V57H243V1Z" fill="black"/>
    <path d="M208.46 13.3292L212.595 19.3481L212.917 19.8162H213.489H225.96H228L226.854 18.1486L215.393 1.46806L215.071 1H214.498H186.04H184.959V2.06776V24.0262V25.094H186.04H190.266L196.778 34.5734L197.099 35.0415H197.672H214.562V44.6708H203.541L199.405 38.6519L199.083 38.1839H198.511H186.04H184L185.146 39.8514L196.607 56.532L196.929 57H197.502H225.96H227.041V55.9322V33.9738V32.906H225.96H221.361L214.867 23.4277L214.545 22.9585H213.972H197.438V13.3292H208.46Z" fill="black"/>
    <path d="M287.428 10.7363L290.886 6.0858L290.089 5.47955C285.383 1.89478 279.758 0 273.825 0C259.034 0 247 12.0089 247 26.7698C247 36.9522 251.825 44.0525 258.885 49.0297L255.413 53.6112L256.338 54.1675C260.505 56.6748 265.29 58 270.175 58C284.966 58 297 45.9911 297 31.2302C297 23.2497 293.525 15.8403 287.428 10.7363ZM270.175 45.5578C267.816 45.5578 265.15 44.8317 262.957 43.569L266.346 39.0044C262.484 36.7052 259.468 31.8393 259.468 26.7698C259.468 18.8695 265.909 12.4422 273.825 12.4422C277.264 12.4422 280.727 13.7485 283.539 15.9484L279.96 20.7431C282.882 23.4496 284.532 27.1995 284.532 31.2302C284.532 39.1305 278.091 45.5578 270.175 45.5578Z" fill="black"/>
    <path d="M152.743 1H151.675V2.06776V43.6706L141.734 29.0192H146.889H148.9L148.495 28.4208L130.262 1.46936L129.945 1H129.378H117.014H115L116.131 2.66727L134.008 29.0103H128.854H126.834L127.231 29.6015L145.586 56.5337L145.904 57H146.468H162.933H164V55.9322V2.06776V1H162.933H152.743Z" fill="black"/>
    <path d="M11.2574 1H12.3248V2.06776V43.6706L22.2656 29.0192H17.1114H15.1002L15.5051 28.4208L33.7379 1.46936L34.0553 1H34.6219H46.9859H49L47.8691 2.66727L29.9916 29.0103H35.146H37.1655L36.769 29.6015L18.4138 56.5337L18.096 57H17.5319H1.06738H0V55.9322L2.4329e-09 2.06776L2.51679e-09 1H1.06738H11.2574Z" fill="black"/>
    <path d="M53.7783 1L53.4584 1.4663L34.5817 29.0103H41.041L23.1351 55.3338L22 57H36.9967L37.3165 56.5317L48.5969 40.0153H59.5896V57H72V1H53.7783ZM59.5896 34.2008L56.172 29.027H49.505L59.5896 14.3294V34.2008Z" fill="black"/>
    <path d="M313.309 14.3294L323.328 29.0576H338L319.073 1H301V57H313.309V14.3294Z" fill="black"/>
    </g>
    <defs>
    <clipPath id="clip0_115_988">
    <rect width="350" height="63" fill="white"/>
    </clipPath>
    </defs>
</svg>  