<svg preserveAspectRatio="none" width="650" height="196" viewBox="0 0 650 196" fill="none" xmlns="http://www.w3.org/2000/svg">
    <g clip-path="url(#clip0_115_979)">
    <rect width="650" height="196" fill="#E8E3DD"/>
    <path d="M400.928 66.6586C409.757 67.0665 416.06 67.7819 422.156 67.5222C428.56 67.2494 435.205 70.063 441.318 77.5235C466.52 108.28 490.7 110.339 514.836 113.517C533.729 116.004 551.609 113.353 569.51 111.043C587.62 108.706 607.175 116.149 626.205 120.224C631.557 121.37 637.045 123.26 642.225 123.268C667.79 123.305 694.15 127.716 719.659 127.33C729.593 127.18 739.094 125.572 748.543 123.758C761.778 121.217 773.931 130.008 785.276 150.504C794.914 167.914 805.6 182.428 816.772 196.309C833.064 216.55 834.755 224.076 828.843 247.282C826.81 255.261 825.63 263.704 825.2 273.115C824.585 286.595 820.885 295.21 811.501 293.086C797.374 289.889 786.154 296.607 774.702 303.199C760.887 311.152 746.06 316.14 729.558 314.571C710.808 312.789 694.129 320.401 674.907 316.86C663.679 314.792 656.752 326.421 650.457 336.943C638.205 357.423 620.567 354.423 601.541 341.601C588.205 332.613 575.489 325.801 563.122 326.16C549.79 326.547 536.63 318.219 523.333 304.016C515.09 295.21 506.978 287.903 498.257 287.406C489.427 286.903 481.381 287.629 476.42 298.386C470.432 311.373 464.247 306.415 456.823 286.903C455.597 283.681 454.507 280.346 453.486 277.016C447.507 257.521 438.462 245.786 426.969 239.858C416.866 234.647 407 227.025 397.27 216.718C374.093 192.167 354.734 138.86 355.085 100.228C355.238 83.427 360.668 75.002 369.189 71.1427C379.838 66.32 391.662 66.4291 400.928 66.6586Z" fill="#E8E4DE"/>
    <path d="M369.484 71.5977C380.035 66.8193 391.76 66.921 401.025 67.1504C403.887 67.2827 406.492 67.4482 408.916 67.6022C413.928 67.9206 418.165 68.1897 422.291 68.0139C428.504 67.7492 434.957 70.4594 440.949 77.7714C453.621 93.2371 466.064 101.515 478.387 106.314C489.746 110.739 500.987 112.199 512.13 113.646C513.048 113.765 513.966 113.884 514.883 114.005C532.686 116.348 549.588 114.147 566.378 111.96C567.481 111.817 568.583 111.673 569.686 111.531C578.66 110.373 588.007 111.636 597.513 113.708C602.159 114.721 606.834 115.926 611.521 117.133L611.844 117.216C616.635 118.45 621.436 119.682 626.207 120.704C627.534 120.988 628.872 121.319 630.22 121.657C630.393 121.701 630.567 121.745 630.74 121.788C631.914 122.084 633.096 122.381 634.274 122.651C636.977 123.271 639.691 123.756 642.339 123.76C654.508 123.778 666.86 124.788 679.238 125.801C679.837 125.85 680.437 125.899 681.036 125.948C694.009 127.007 706.999 128.015 719.782 127.822C729.76 127.672 739.295 126.056 748.745 124.242C755.228 122.998 761.411 124.525 767.378 128.862C773.373 133.219 779.189 140.444 784.84 150.653C794.502 168.108 805.214 182.655 816.399 196.552C824.537 206.663 828.952 213.509 830.64 220.685C832.331 227.872 831.304 235.464 828.348 247.067C826.307 255.076 825.124 263.547 824.693 272.983C824.386 279.702 823.311 285.144 821.186 288.636C820.126 290.377 818.815 291.617 817.226 292.299C815.642 292.979 813.755 293.117 811.504 292.607C804.317 290.981 797.888 291.882 791.836 294.004C786.062 296.028 780.601 299.174 775.141 302.32C774.886 302.467 774.631 302.614 774.375 302.761C760.595 310.693 745.858 315.637 729.492 314.082C720.861 313.261 712.67 314.417 704.537 315.564C703.768 315.672 702.998 315.781 702.229 315.888C693.311 317.126 684.407 318.13 674.888 316.377C669.048 315.301 664.385 317.802 660.429 321.8C656.496 325.775 653.186 331.309 650.061 336.532L650.003 336.629C643.919 346.799 636.546 351.066 628.412 351.268C620.26 351.472 611.225 347.595 601.762 341.217C588.414 332.222 575.55 325.304 562.993 325.668C549.907 326.048 536.921 317.885 523.673 303.734C519.545 299.324 515.418 295.255 511.212 292.224C507 289.189 502.676 287.172 498.171 286.915C493.74 286.663 489.437 286.713 485.612 288.211C481.774 289.714 478.461 292.657 475.948 298.106C474.458 301.337 472.981 303.391 471.524 304.392C470.801 304.888 470.103 305.112 469.43 305.112C468.764 305.113 468.082 304.895 467.366 304.438C465.902 303.505 464.313 301.584 462.607 298.598C460.913 295.632 459.147 291.697 457.296 286.832C456.076 283.626 454.991 280.305 453.971 276.98C447.967 257.404 438.838 245.478 427.121 239.434C417.099 234.264 407.293 226.695 397.607 216.434C386.108 204.252 375.51 184.879 367.831 163.691C360.155 142.513 355.418 119.59 355.593 100.344L355.085 100.228L355.593 100.344C355.745 83.6464 361.133 75.38 369.484 71.5977Z" stroke="black" stroke-opacity="0.41"/>
    <path d="M176.959 166.317C171.421 173.053 164.358 175.928 158.077 181.055C140.551 195.36 125.563 215.087 108.954 231.339C104.588 235.611 100.359 240.2 95.9462 244.36C94.1125 246.088 92.0187 248.543 89.7462 245.422C87.694 242.604 88.4799 239.114 89.0876 235.873C89.5221 233.557 90.1911 231.298 90.9451 229.161C94.1977 219.946 95.9509 210.344 95.5602 199.756C95.1802 189.46 98.1612 181.478 103.24 174.145C109.894 164.54 117.461 157.086 125.241 150.005C132.261 143.617 138.656 136.268 144.006 126.986C146.402 122.829 149.042 119.208 152.79 118.299C167.964 114.619 181.16 103.686 193.657 91.6214C211.743 74.1603 230.777 59.1007 248.843 41.6618C254.571 36.1329 260.714 31.4411 265.331 23.573C266.575 21.4527 268.437 19.9478 270.191 18.7044C280.523 11.3798 290.411 3.15184 298.473 -9.26789C299.795 -11.3052 301.693 -12.5932 303.422 -13.9554C306.54 -16.4114 307.832 -13.1767 307.982 -9.61104C308.236 -3.57201 306.876 1.93119 303.485 5.74451C301.404 8.08612 299.215 10.2722 296.937 12.1643C290.547 17.4703 285.418 24.4702 281.494 33.8372C276.07 46.7875 268.106 56.6601 259.787 64.7678C247.675 76.5726 237.34 91.2642 226.663 105.365C217.635 117.29 207.034 126.108 198.448 138.812C191.777 148.682 185.714 159.689 176.959 166.317Z" fill="#E8E4DE"/>
    <path d="M176.804 165.82L176.755 165.857L176.714 165.907C173.996 169.213 170.894 171.584 167.661 173.779C166.781 174.376 165.89 174.962 164.994 175.55C162.615 177.112 160.205 178.694 157.908 180.569C149.115 187.747 140.965 196.279 132.947 205.034C131.186 206.958 129.431 208.892 127.677 210.825C121.442 217.696 115.221 224.553 108.751 230.884C106.871 232.723 105.034 234.603 103.202 236.478C100.739 238.998 98.2854 241.508 95.75 243.898C95.6009 244.039 95.4532 244.181 95.3065 244.322C94.5105 245.086 93.7449 245.822 92.9436 246.162C92.4866 246.355 92.03 246.412 91.5637 246.256C91.0947 246.099 90.5905 245.72 90.0559 244.986L89.7463 245.422L90.0559 244.986C88.2474 242.502 88.8142 239.501 89.4104 236.343C89.4355 236.21 89.4607 236.076 89.4857 235.943C89.9101 233.68 90.5654 231.464 91.3104 229.353C94.5937 220.051 96.3668 210.345 95.9719 199.646C95.5995 189.555 98.5087 181.743 103.517 174.513L103.292 174.214L103.517 174.513C110.13 164.966 117.658 157.548 125.431 150.473C132.481 144.057 138.921 136.661 144.313 127.305C146.695 123.174 149.234 119.73 152.804 118.865C168.079 115.16 181.348 104.157 193.858 92.0787C202.89 83.3584 212.161 75.2364 221.44 67.1077L221.466 67.0846C230.733 58.9662 240.009 50.8406 249.044 42.1191C250.228 40.976 251.438 39.8631 252.652 38.7452C257.254 34.5102 261.935 30.2024 265.635 23.8971C266.806 21.9013 268.583 20.4513 270.334 19.2093C280.681 11.8745 290.635 3.60016 298.761 -8.91706C299.828 -10.562 301.292 -11.6915 302.801 -12.8556C303.061 -13.0566 303.323 -13.2587 303.585 -13.4646C304.313 -14.0381 304.898 -14.2511 305.364 -14.2398C305.824 -14.2286 306.202 -13.9975 306.512 -13.5958C307.149 -12.771 307.498 -11.2258 307.57 -9.49754C307.819 -3.5918 306.49 1.67998 303.255 5.31785C301.188 7.6429 299.019 9.80908 296.764 11.6814C290.305 17.0456 285.113 24.1303 281.145 33.6027C275.772 46.4311 267.873 56.2338 259.585 64.3122C249.448 74.1916 240.55 86.0896 231.691 97.9344C229.93 100.289 228.17 102.642 226.403 104.976C222.43 110.223 218.152 114.865 213.853 119.529C213.291 120.14 212.728 120.75 212.166 121.363C207.313 126.647 202.489 132.056 198.167 138.451C196.847 140.404 195.555 142.393 194.266 144.378C188.994 152.497 183.765 160.55 176.804 165.82Z" stroke="black" stroke-opacity="0.41"/>
    </g>
    <defs>
    <clipPath id="clip0_115_979">
    <rect width="650" height="196" fill="white"/>
    </clipPath>
    </defs>
</svg>