<svg preserveAspectRatio="none" width="525" height="210" viewBox="0 0 525 210" fill="none" xmlns="http://www.w3.org/2000/svg">
    <g clip-path="url(#clip0_115_974)">
    <rect width="528" height="210" fill="#E8E3DD"/>
    <path d="M254.723 -80.7537C264.793 -80.3166 271.982 -79.5502 278.934 -79.8284C286.239 -80.1207 293.818 -77.1061 300.79 -69.1127C329.535 -36.1589 357.113 -33.9528 384.641 -30.5481C406.19 -27.8836 426.583 -30.7244 447 -33.1992C467.655 -35.7027 489.959 -27.7288 511.663 -23.362C517.768 -22.134 524.027 -20.1091 529.935 -20.1011C559.094 -20.0607 589.159 -15.3353 618.254 -15.7485C629.583 -15.9092 640.42 -17.6321 651.197 -19.5755C666.292 -22.2981 680.154 -12.8791 693.094 9.08045C704.086 27.7346 716.274 43.2848 729.016 58.1571C747.598 79.8444 749.527 87.9081 742.784 112.771C740.465 121.32 739.119 130.366 738.629 140.449C737.927 154.893 733.707 164.123 723.004 161.847C706.891 158.421 694.094 165.62 681.033 172.683C665.276 181.203 648.365 186.548 629.543 184.867C608.158 182.958 589.135 191.113 567.211 187.32C554.405 185.103 546.504 197.563 539.325 208.837C525.351 230.78 505.233 227.566 483.534 213.827C468.322 204.197 453.819 196.899 439.714 197.284C424.508 197.698 409.499 188.776 394.333 173.558C384.931 164.122 375.679 156.294 365.732 155.762C355.661 155.223 346.484 156.001 340.826 167.526C333.996 181.44 326.942 176.128 318.474 155.222C317.076 151.77 315.833 148.197 314.668 144.629C307.849 123.742 297.532 111.169 284.424 104.817C272.902 99.2337 261.648 91.0677 250.551 80.0243C224.117 53.7199 202.036 -3.39502 202.437 -44.7861C202.611 -62.7875 208.805 -71.8143 218.524 -75.9493C230.668 -81.1165 244.154 -80.9996 254.723 -80.7537Z" fill="#E8E4DE"/>
    <path d="M218.814 -75.4917C230.865 -80.619 244.257 -80.5089 254.826 -80.263C258.095 -80.121 261.069 -79.9435 263.835 -79.7785C269.548 -79.4375 274.372 -79.1497 279.073 -79.3378C286.201 -79.6231 293.591 -76.6973 300.434 -68.8526C314.883 -52.288 329.062 -43.4297 343.097 -38.2944C356.039 -33.559 368.847 -31.9965 381.559 -30.4457C382.605 -30.318 383.651 -30.1904 384.697 -30.0612C404.989 -27.552 424.254 -29.9089 443.407 -32.2519C444.664 -32.4057 445.92 -32.5594 447.177 -32.7117C457.428 -33.9541 468.103 -32.5985 478.95 -30.3772C484.251 -29.2914 489.586 -28.0006 494.93 -26.7073L495.299 -26.6181C500.764 -25.2959 506.238 -23.9761 511.677 -22.8819C513.402 -22.5347 515.11 -22.1309 516.83 -21.7242C518.168 -21.4079 519.513 -21.0899 520.879 -20.7955C523.959 -20.1317 527.045 -19.6143 530.054 -19.6102C543.937 -19.5909 558.029 -18.5079 572.146 -17.4229C572.83 -17.3703 573.514 -17.3177 574.199 -17.2653C588.995 -16.1307 603.807 -15.0506 618.38 -15.2576C629.752 -15.4189 640.62 -17.148 651.399 -19.0918C658.821 -20.4304 665.904 -18.786 672.731 -14.1246C679.582 -9.44637 686.219 -1.69743 692.664 9.24009C703.684 27.9403 715.899 43.5241 728.656 58.4126C737.939 69.2479 742.977 76.5862 744.903 84.277C746.832 91.9797 745.661 100.115 742.289 112.548C739.962 121.128 738.612 130.203 738.121 140.313C737.771 147.511 736.545 153.346 734.117 157.093C731.708 160.812 728.13 162.46 722.996 161.368C707.058 157.979 694.345 164.861 681.633 171.742C681.326 171.908 681.019 172.074 680.711 172.24C664.99 180.742 648.164 186.047 629.47 184.378C619.639 183.501 610.308 184.737 601.03 185.966C600.152 186.082 599.275 186.199 598.398 186.313C588.227 187.639 578.057 188.718 567.183 186.837C560.567 185.692 555.27 188.35 550.76 192.632C546.277 196.888 542.503 202.814 538.939 208.411L538.874 208.514C531.933 219.413 523.509 224.004 514.196 224.222C504.864 224.44 494.535 220.272 483.736 213.435C468.511 203.796 453.866 196.404 439.581 196.793C424.607 197.201 409.767 188.425 394.658 173.264C385.273 163.846 375.847 155.818 365.64 155.272C360.59 155.001 355.698 155.056 351.352 156.655C346.993 158.259 343.22 161.403 340.356 167.237C338.657 170.698 336.969 172.906 335.297 173.985C334.466 174.522 333.656 174.768 332.866 174.769C332.081 174.77 331.283 174.528 330.453 174.031C328.764 173.019 326.947 170.95 325.003 167.754C323.069 164.575 321.055 160.357 318.944 155.144C317.552 151.709 316.315 148.151 315.152 144.589C308.302 123.609 297.892 110.848 284.559 104.388C273.115 98.8422 261.925 90.7254 250.873 79.7282C237.751 66.6698 225.663 45.9082 216.904 23.2076C208.149 0.516441 202.746 -24.0446 202.946 -44.6668L202.437 -44.7861L202.946 -44.6668C203.119 -62.554 209.262 -71.428 218.814 -75.4917Z" stroke="black" stroke-opacity="0.41"/>
    <path d="M161.32 10.8059C155.004 18.0229 146.948 21.1042 139.784 26.597C119.795 41.9236 102.701 63.0597 83.757 80.4724C78.7768 85.0501 73.9539 89.9665 68.9207 94.4236C66.8292 96.2757 64.4411 98.9057 61.8492 95.5619C59.5086 92.5424 60.405 88.8026 61.098 85.331C61.5936 82.8488 62.3566 80.4284 63.2166 78.1393C66.9264 68.2661 68.926 57.9785 68.4803 46.6336C68.0469 35.6022 71.447 27.0503 77.2402 19.1939C84.8289 8.9021 93.4597 0.916294 102.333 -6.67032C110.34 -13.5152 117.633 -21.3889 123.736 -31.3342C126.469 -35.7878 129.479 -39.6676 133.754 -40.6417C151.061 -44.5842 166.112 -56.2982 180.365 -69.2247C200.993 -87.933 222.703 -104.068 243.308 -122.753C249.841 -128.677 256.847 -133.704 262.113 -142.134C263.532 -144.405 265.656 -146.018 267.656 -147.35C279.44 -155.198 290.718 -164.014 299.913 -177.32C301.422 -179.503 303.586 -180.883 305.558 -182.343C309.114 -184.974 310.588 -181.508 310.759 -177.688C311.048 -171.218 309.498 -165.321 305.631 -161.236C303.256 -158.727 300.76 -156.385 298.161 -154.357C290.874 -148.672 285.024 -141.172 280.548 -131.136C274.361 -117.261 265.278 -106.683 255.79 -97.9965C241.976 -85.3484 230.188 -69.6074 218.011 -54.4989C207.713 -41.7229 195.623 -32.2752 185.829 -18.6631C178.221 -8.08814 171.306 3.70442 161.32 10.8059Z" fill="#E8E4DE"/>
    <path d="M161.154 10.3164L161.106 10.3508L161.064 10.3989C157.958 13.9482 154.413 16.4926 150.724 18.8455C149.719 19.4863 148.701 20.114 147.679 20.7446C144.966 22.418 142.222 24.1109 139.605 26.1177C129.58 33.8044 120.287 42.943 111.143 52.3229C109.134 54.3837 107.133 56.4556 105.133 58.5264C98.022 65.8889 90.9244 73.2374 83.543 80.0222C81.4019 81.9902 79.3071 84.0037 77.2174 86.0123C74.4068 88.7137 71.6056 91.4061 68.7138 93.9669C68.5449 94.1165 68.3772 94.2678 68.2104 94.4185C67.3028 95.2377 66.4199 96.0347 65.496 96.4028C64.9666 96.6137 64.4375 96.6747 63.8981 96.5056C63.3564 96.3357 62.7774 95.9252 62.1656 95.136L61.8492 95.5619L62.1656 95.136C60.093 92.4622 60.7435 89.2257 61.4236 85.8421C61.4524 85.6988 61.4813 85.5553 61.51 85.4116C61.995 82.9826 62.7438 80.6035 63.5946 78.339C67.3358 68.3822 69.3565 57.9924 68.9065 46.5373C68.4811 35.7092 71.8055 27.322 77.5279 19.5615C85.0754 9.32568 93.667 1.37279 102.533 -6.20771C110.57 -13.0786 117.909 -20.9971 124.054 -31.0123C126.772 -35.4419 129.683 -39.1534 133.777 -40.0863C151.186 -44.0524 166.31 -55.8333 180.577 -68.7722C190.88 -78.1166 201.455 -86.8198 212.038 -95.529L212.067 -95.5532C222.637 -104.252 233.216 -112.957 243.52 -122.3C244.873 -123.527 246.254 -124.721 247.64 -125.92C252.888 -130.457 258.216 -135.063 262.429 -141.807C263.774 -143.961 265.812 -145.522 267.81 -146.852C279.608 -154.71 290.953 -163.569 300.213 -176.969C301.438 -178.743 303.119 -179.961 304.84 -181.208C305.136 -181.423 305.434 -181.639 305.731 -181.859C306.569 -182.478 307.246 -182.711 307.788 -182.699C308.325 -182.687 308.762 -182.434 309.119 -182C309.851 -181.109 310.25 -179.444 310.333 -177.588C310.616 -171.253 309.1 -165.579 305.39 -161.659C303.03 -159.166 300.553 -156.843 297.979 -154.834C290.621 -149.094 284.708 -141.514 280.187 -131.377C274.052 -117.618 265.035 -107.107 255.577 -98.4474C244.021 -87.8666 233.876 -75.1244 223.772 -62.4336C221.763 -59.9104 219.755 -57.3892 217.739 -54.8875C213.206 -49.2629 208.323 -44.2858 203.421 -39.2887C202.779 -38.6349 202.137 -37.9807 201.496 -37.3246C195.961 -31.6635 190.463 -25.8714 185.537 -19.0248C184.034 -16.935 182.562 -14.8059 181.093 -12.6803C175.079 -3.98024 169.105 4.66218 161.154 10.3164Z" stroke="black" stroke-opacity="0.41"/>
    </g>
    <defs>
    <clipPath id="clip0_115_974">
    <rect width="528" height="210" fill="white"/>
    </clipPath>
    </defs>
</svg>
