<svg preserveAspectRatio="none" width="624" height="205" viewBox="0 0 624 205" fill="none" xmlns="http://www.w3.org/2000/svg">
    <g clip-path="url(#clip0_115_969)">
    <rect width="624" height="205" fill="#E8E3DD"/>
    <path d="M191.461 203.804C186.137 209.045 179.376 211.328 173.351 215.337C156.54 226.523 142.122 241.861 126.175 254.539C121.983 257.871 117.92 261.446 113.684 264.693C111.924 266.042 109.911 267.953 107.758 265.57C105.813 263.419 106.582 260.723 107.18 258.221C107.607 256.432 108.258 254.686 108.989 253.033C112.144 245.903 113.869 238.491 113.553 230.338C113.245 222.411 116.134 216.234 121.023 210.537C127.428 203.074 134.694 197.261 142.161 191.732C148.898 186.744 155.044 181.023 160.203 173.822C162.513 170.597 165.053 167.782 168.637 167.046C183.146 164.067 195.806 155.52 207.804 146.107C225.167 132.485 243.424 120.703 260.769 107.097C266.268 102.784 272.159 99.1112 276.61 93.0064C277.809 91.3613 279.595 90.1843 281.276 89.2098C291.181 83.4692 300.668 77.037 308.433 67.3932C309.706 65.8113 311.525 64.801 313.184 63.7352C316.174 61.8137 317.391 64.2931 317.515 67.0383C317.725 71.6877 316.398 75.9398 313.139 78.9095C311.139 80.7331 309.037 82.4379 306.852 83.917C300.722 88.0652 295.787 93.506 291.99 100.759C286.741 110.786 279.084 118.467 271.097 124.792C259.468 134 249.52 145.416 239.249 156.38C230.564 165.651 220.395 172.544 212.128 182.413C205.705 190.079 199.857 198.615 191.461 203.804Z" fill="#E8E4DE"/>
    <path d="M191.269 203.333L191.221 203.362L191.179 203.403C188.569 205.973 185.595 207.828 182.496 209.55C181.653 210.018 180.799 210.477 179.941 210.939C177.66 212.165 175.35 213.408 173.146 214.874C164.71 220.487 156.881 227.138 149.178 233.958C147.485 235.457 145.799 236.964 144.114 238.47C138.124 243.822 132.147 249.163 125.935 254.101C124.13 255.536 122.365 257.002 120.606 258.463C118.241 260.427 115.885 262.384 113.451 264.249C113.308 264.359 113.166 264.47 113.025 264.58C112.26 265.177 111.528 265.749 110.765 266.017C110.33 266.17 109.903 266.214 109.474 266.103C109.043 265.991 108.58 265.714 108.086 265.168L107.758 265.57L108.086 265.168C107.211 264.201 106.953 263.133 106.975 262.002C106.995 260.935 107.262 259.828 107.54 258.671C107.567 258.558 107.594 258.445 107.622 258.332C108.037 256.593 108.672 254.884 109.394 253.253C112.582 246.049 114.333 238.539 114.012 230.276C113.711 222.55 116.514 216.523 121.336 210.904C127.7 203.49 134.927 197.704 142.387 192.181C149.154 187.171 155.345 181.411 160.546 174.149C162.842 170.946 165.282 168.274 168.686 167.575C183.299 164.575 196.031 155.97 208.041 146.547C216.712 139.744 225.608 133.399 234.512 127.049L234.538 127.031C243.43 120.689 252.331 114.342 261.006 107.537C262.142 106.646 263.302 105.778 264.468 104.905C268.885 101.599 273.382 98.2337 276.951 93.3382C278.076 91.794 279.778 90.6615 281.457 89.6881C291.376 83.9392 300.928 77.4695 308.757 67.7469L308.433 67.3932L308.757 67.7469C309.783 66.4726 311.184 65.5903 312.631 64.6791C312.881 64.5217 313.132 64.3634 313.383 64.2021C314.081 63.7537 314.636 63.5879 315.069 63.592C315.494 63.5961 315.831 63.7633 316.105 64.0487C316.675 64.6424 316.996 65.7839 317.056 67.1037C317.26 71.6114 315.977 75.6653 312.873 78.4944C310.887 80.3046 308.805 81.9934 306.643 83.4566C300.444 87.6512 295.446 93.1605 291.602 100.502C286.407 110.427 278.816 118.051 270.857 124.353C261.124 132.061 252.562 141.312 244.039 150.52C242.345 152.351 240.653 154.18 238.953 155.994C235.132 160.073 231.022 163.689 226.893 167.323C226.352 167.799 225.812 168.274 225.271 168.752C220.609 172.868 215.973 177.082 211.81 182.05C210.539 183.568 209.295 185.113 208.053 186.655C202.975 192.959 197.941 199.208 191.269 203.333Z" stroke="black" stroke-opacity="0.41"/>
    <path d="M600.957 225.928C589.759 219.055 582.007 213.816 573.965 209.494C565.515 204.952 558.527 197.819 554.896 187.446C539.928 144.682 509.8 125.121 480.371 104.717C457.334 88.7464 432.658 77.5456 408.15 66.0625C383.357 54.4454 362.31 34.1073 340.008 16.7923C333.736 11.9225 327.715 6.37027 321.011 2.51874C287.928 -16.4904 256.326 -39.5092 223.072 -58.1453C210.123 -65.4027 196.896 -71.1987 183.618 -76.7948C165.02 -84.6333 154.332 -100.531 151.414 -124.982C148.935 -145.754 143.434 -165.037 136.94 -184.187C127.471 -212.112 129.603 -219.254 150.589 -233.013C157.805 -237.744 164.183 -243.47 170.145 -250.512C178.685 -260.598 188.425 -264.588 199.357 -255.96C215.814 -242.972 234.202 -239.897 252.818 -236.551C275.276 -232.514 297.341 -225.407 317.81 -211.929C341.066 -196.615 367.036 -190.186 389.893 -173.147C403.245 -163.193 418.895 -167.146 433.09 -170.701C460.72 -177.623 481.837 -162.182 499.109 -138.029C511.216 -121.099 523.77 -106.332 539.99 -97.4311C557.476 -87.8358 569.734 -71.5535 578.793 -50.5742C584.41 -37.567 590.717 -25.8309 601.725 -18.9676C612.87 -12.0191 623.707 -6.61334 636.309 -11.3434C651.523 -17.054 656.684 -8.58517 655.09 12.1864C654.827 15.6168 654.322 19.033 653.732 22.3958C650.277 42.0813 655.249 57.9737 666.726 71.142C676.814 82.7177 685.213 96.0032 691.892 111.288C707.801 147.694 702.25 203.756 679.604 233.708C669.756 246.734 657.884 249.292 644.633 245.984C628.074 241.85 612.825 232.987 600.957 225.928Z" fill="#E8E4DE"/>
    <path d="M679.244 233.323L679.557 233.657L679.244 233.323C669.502 246.208 657.789 248.732 644.672 245.458C628.186 241.343 612.994 232.516 601.125 225.456C597.475 223.216 594.187 221.146 591.132 219.224C584.838 215.262 579.536 211.925 574.111 209.009C565.752 204.517 558.885 197.489 555.318 187.298C540.846 145.952 512.262 126.185 483.946 106.603C482.819 105.823 481.691 105.043 480.565 104.263C458.905 89.2458 435.8 78.4408 412.79 67.6806C411.284 66.9759 409.777 66.2715 408.272 65.5661C389.88 56.9485 373.576 43.5316 357.225 30.0767C351.593 25.4425 345.956 20.8038 340.226 16.3552C338.479 14.999 336.743 13.5815 335 12.1583C330.533 8.5122 326.02 4.82829 321.169 2.04115C305.406 -7.01597 289.978 -16.9849 274.535 -26.9641C273.785 -27.4484 273.036 -27.9327 272.286 -28.417C256.095 -38.8766 239.868 -49.2987 223.225 -58.6255C210.25 -65.8972 197.002 -71.7019 183.723 -77.2988C174.501 -81.1853 167.271 -87.0555 161.983 -94.9559C156.693 -102.86 153.318 -112.839 151.868 -124.989C149.381 -145.826 143.864 -165.159 137.364 -184.329C132.625 -198.304 130.865 -206.889 132.782 -213.687C134.701 -220.494 140.344 -225.647 150.85 -232.535C158.099 -237.288 164.505 -243.04 170.491 -250.109C174.733 -255.12 179.239 -258.572 184.001 -259.726C188.742 -260.875 193.777 -259.755 199.136 -255.525C215.33 -242.744 233.373 -239.506 251.535 -236.247C251.959 -236.171 252.382 -236.095 252.806 -236.019C275.229 -231.988 297.23 -224.898 317.625 -211.468C328.286 -204.448 339.514 -199.29 350.712 -194.146C351.769 -193.66 352.826 -193.174 353.882 -192.688C366.14 -187.036 378.303 -181.187 389.684 -172.704C396.475 -167.641 403.832 -166.131 411.244 -166.32C418.606 -166.509 426.064 -168.377 433.117 -170.144L433.24 -170.174C446.964 -173.612 459.045 -171.493 469.834 -165.536C480.632 -159.574 490.169 -149.748 498.773 -137.716C510.894 -120.766 523.511 -105.909 539.841 -96.9487C557.19 -87.4286 569.369 -71.2709 578.389 -50.3822C584.013 -37.3583 590.385 -25.462 601.552 -18.4994C612.716 -11.5387 623.712 -6.02975 636.497 -10.8288C644.092 -13.6795 648.909 -12.8811 651.675 -9.18486C653.079 -7.30781 654.025 -4.60563 654.515 -1.03798C655.003 2.52554 655.03 6.90099 654.633 12.0713L655.082 12.1844L654.633 12.0714C654.372 15.475 653.871 18.8708 653.282 22.2246C651.541 32.1399 651.919 41.1306 654.194 49.3185C656.47 57.5072 660.636 64.8578 666.427 71.5023C676.473 83.0287 684.836 96.258 691.489 111.482C699.386 129.554 701.973 152.552 699.75 174.789C697.528 197.023 690.504 218.431 679.244 233.323Z" stroke="black" stroke-opacity="0.41"/>
    </g>
    <defs>
    <clipPath id="clip0_115_969">
    <rect width="624" height="205" fill="white"/>
    </clipPath>
    </defs>
</svg> 