<svg preserveAspectRatio="none" width="517" height="307" viewBox="0 0 517 307" fill="none" xmlns="http://www.w3.org/2000/svg">
    <g clip-path="url(#clip0_115_964)">
    <rect width="517" height="307" fill="#E8E3DD"/>
    <path d="M411.761 11.413C405.33 19.0359 397.127 22.2905 389.832 28.0922C369.479 44.2809 352.073 66.6058 332.784 84.9979C327.713 89.8331 322.802 95.026 317.677 99.7338C315.548 101.69 313.116 104.468 310.477 100.936C308.094 97.7468 309.006 93.7966 309.712 90.1297C310.217 87.5079 310.994 84.9514 311.869 82.5336C315.647 72.105 317.683 61.2388 317.229 49.2558C316.788 37.6039 320.25 28.5711 326.148 20.2727C333.875 9.40209 342.664 0.96712 351.699 -7.0462C359.851 -14.276 367.278 -22.5927 373.492 -33.0973C376.274 -37.8014 379.34 -41.8994 383.693 -42.9283C401.315 -47.0926 416.64 -59.4654 431.153 -73.119C452.157 -92.8796 474.263 -109.922 495.244 -129.658C501.895 -135.915 509.03 -141.224 514.392 -150.129C515.836 -152.528 517.999 -154.231 520.036 -155.639C532.034 -163.928 543.518 -173.239 552.881 -187.295C554.417 -189.6 556.621 -191.058 558.629 -192.599C562.249 -195.379 563.75 -191.718 563.924 -187.683C564.219 -180.849 562.64 -174.621 558.702 -170.305C556.284 -167.655 553.742 -165.181 551.097 -163.04C543.676 -157.035 537.72 -149.113 533.163 -138.513C526.863 -123.857 517.614 -112.684 507.953 -103.509C493.887 -90.1496 481.885 -73.5232 469.485 -57.5649C459 -44.0704 446.689 -34.0912 436.717 -19.7135C428.97 -8.54377 421.929 3.91206 411.761 11.413Z" fill="#E8E4DE"/>
    <path d="M411.601 10.9194L411.553 10.955L411.511 11.0046C408.347 14.755 404.737 17.4431 400.98 19.9285C399.957 20.6055 398.92 21.2687 397.88 21.9347C395.117 23.7022 392.324 25.4899 389.659 27.6092C379.452 35.7277 369.99 45.3799 360.68 55.2872C358.635 57.4638 356.597 59.6522 354.561 61.8394C347.32 69.6161 340.093 77.3782 332.576 84.5449C330.397 86.6232 328.264 88.7498 326.136 90.8713C323.274 93.725 320.421 96.5693 317.477 99.2741C317.305 99.4319 317.134 99.5916 316.964 99.7507C316.04 100.616 315.14 101.459 314.197 101.849C313.657 102.072 313.115 102.137 312.563 101.958C312.007 101.777 311.415 101.341 310.789 100.504L310.477 100.936L310.789 100.504C308.67 97.6673 309.335 94.2313 310.027 90.6629C310.057 90.5101 310.086 90.357 310.116 90.2038C310.61 87.6359 311.373 85.1214 312.24 82.7288C316.048 72.2147 318.105 61.245 317.647 49.1517C317.213 37.7038 320.602 28.839 326.43 20.6404C334.116 9.8275 342.865 1.42657 351.893 -6.58043C360.076 -13.8372 367.547 -22.2 373.803 -32.7768C376.571 -37.4562 379.537 -41.3803 383.71 -42.3668C401.434 -46.5553 416.832 -58.9971 431.358 -72.6636C441.85 -82.5338 452.617 -91.7267 463.393 -100.926L463.423 -100.951C474.186 -110.139 484.957 -119.334 495.449 -129.202C496.827 -130.499 498.234 -131.76 499.646 -133.027C504.989 -137.819 510.412 -142.682 514.701 -149.804C516.072 -152.081 518.149 -153.731 520.183 -155.137C532.197 -163.436 543.747 -172.793 553.173 -186.943C554.423 -188.819 556.136 -190.107 557.888 -191.424C558.19 -191.651 558.493 -191.879 558.795 -192.111C559.649 -192.767 560.341 -193.014 560.896 -193.001C561.446 -192.988 561.896 -192.719 562.263 -192.255C563.015 -191.306 563.422 -189.538 563.506 -187.575C563.795 -180.875 562.249 -174.875 558.468 -170.731C556.064 -168.097 553.542 -165.642 550.92 -163.52C543.429 -157.459 537.41 -149.454 532.809 -138.75C526.56 -124.214 517.377 -113.11 507.746 -103.963C495.98 -92.7875 485.651 -79.3295 475.363 -65.925C473.317 -63.2598 471.273 -60.5968 469.22 -57.9542C464.603 -52.0127 459.631 -46.7552 454.64 -41.477C453.987 -40.7864 453.333 -40.0955 452.68 -39.4026C447.044 -33.423 441.447 -27.3058 436.432 -20.075C434.901 -17.8682 433.403 -15.6197 431.907 -13.3747C425.783 -4.18513 419.699 4.94583 411.601 10.9194Z" stroke="black" stroke-opacity="0.41"/>
    <path d="M44.8674 85.0807C55.1204 85.5424 62.4411 86.3519 69.5198 86.0581C76.9578 85.7493 84.6746 88.9334 91.7742 97.3764C121.043 132.184 149.123 134.514 177.154 138.11C199.095 140.924 219.86 137.924 240.649 135.31C261.681 132.666 284.391 141.088 306.491 145.7C312.707 146.997 319.08 149.136 325.096 149.145C354.786 149.187 385.4 154.179 415.024 153.742C426.561 153.572 437.595 151.753 448.568 149.7C463.939 146.824 478.053 156.773 491.229 179.968C502.421 199.671 514.831 216.096 527.806 231.805C546.726 254.712 548.691 263.229 541.825 289.491C539.464 298.52 538.093 308.075 537.594 318.726C536.88 333.981 532.582 343.73 521.684 341.326C505.278 337.708 492.248 345.312 478.949 352.772C462.904 361.771 445.685 367.416 426.52 365.642C404.745 363.625 385.375 372.239 363.052 368.232C350.012 365.891 341.967 379.051 334.657 390.959C320.428 414.137 299.944 410.741 277.849 396.231C262.36 386.059 247.592 378.35 233.23 378.756C217.747 379.194 202.464 369.77 187.022 353.696C177.448 343.73 168.028 335.462 157.899 334.899C147.645 334.33 138.3 335.151 132.54 347.325C125.585 362.022 118.402 356.411 109.78 334.329C108.356 330.683 107.091 326.909 105.905 323.14C98.9609 301.078 88.4566 287.798 75.1094 281.089C63.3769 275.192 51.9184 266.566 40.6186 254.902C13.7029 227.118 -8.78029 166.79 -8.3721 123.071C-8.19495 104.057 -1.88846 94.5229 8.00761 90.1553C20.3739 84.6975 34.1057 84.8209 44.8674 85.0807Z" fill="#E8E4DE"/>
    <path d="M8.30028 90.6114C20.5706 85.196 34.2059 85.3124 44.9666 85.5721C48.2951 85.722 51.323 85.9095 54.1389 86.0838C59.9566 86.4439 64.869 86.748 69.6567 86.5493C76.9093 86.2482 84.4356 89.3352 91.41 97.6294C106.118 115.121 120.553 124.476 134.844 129.901C148.023 134.903 161.065 136.553 174.009 138.191C175.075 138.326 176.14 138.461 177.204 138.597C197.867 141.248 217.485 138.758 236.987 136.284C238.266 136.121 239.546 135.959 240.825 135.798C251.262 134.486 262.131 135.917 273.174 138.264C278.572 139.41 284.004 140.774 289.446 142.14L289.822 142.234C295.386 143.631 300.96 145.025 306.498 146.18C308.255 146.547 309.994 146.974 311.745 147.403C313.107 147.737 314.476 148.073 315.868 148.384C319.005 149.085 322.148 149.632 325.212 149.636C339.348 149.657 353.697 150.801 368.071 151.947C368.768 152.002 369.464 152.058 370.161 152.113C385.227 153.312 400.309 154.452 415.148 154.234C426.728 154.063 437.795 152.237 448.771 150.184C456.325 148.77 463.536 150.506 470.488 155.431C477.468 160.375 484.23 168.564 490.795 180.121C502.013 199.87 514.45 216.328 527.438 232.053C536.89 243.497 542.027 251.256 543.991 259.392C545.958 267.539 544.763 276.141 541.33 289.272C538.961 298.332 537.586 307.915 537.086 318.592C536.73 326.198 535.481 332.366 533.006 336.328C531.772 338.304 530.242 339.717 528.381 340.495C526.525 341.272 524.314 341.428 521.683 340.848C505.451 337.268 492.505 344.537 479.564 351.804C479.251 351.98 478.937 352.156 478.624 352.332C462.615 361.312 445.483 366.915 426.451 365.152C416.44 364.225 406.937 365.531 397.49 366.829C396.597 366.952 395.704 367.075 394.811 367.196C384.454 368.596 374.1 369.736 363.029 367.749C356.289 366.539 350.895 369.349 346.305 373.869C341.742 378.363 337.9 384.621 334.27 390.534L334.204 390.642C327.133 402.159 318.554 407.006 309.074 407.236C299.575 407.467 289.059 403.066 278.062 395.843C262.561 385.664 247.648 377.854 233.1 378.265C217.857 378.696 202.746 369.429 187.356 353.409C182.562 348.419 177.775 343.82 172.9 340.396C168.017 336.968 163.016 334.697 157.811 334.408C152.669 334.123 147.686 334.18 143.26 335.87C138.821 337.564 134.982 340.883 132.068 347.041C130.338 350.699 128.618 353.033 126.913 354.175C126.066 354.742 125.241 355.002 124.439 355.002C123.643 355.003 122.831 354.749 121.984 354.223C120.261 353.152 118.407 350.961 116.425 347.581C114.454 344.22 112.402 339.762 110.252 334.255C108.834 330.626 107.574 326.866 106.389 323.103C99.4181 300.954 88.8261 287.484 75.2546 280.663C63.6016 274.805 52.205 266.231 40.9501 254.613C27.5832 240.814 15.2717 218.879 6.3516 194.897C-2.56478 170.925 -8.06732 144.977 -7.86389 123.188L-8.27287 123.094L-7.86389 123.188C-7.68775 104.283 -1.42665 94.9044 8.30028 90.6114Z" stroke="black" stroke-opacity="0.41"/>
    </g>
    <defs>
    <clipPath id="clip0_115_964">
    <rect width="517" height="307" fill="white"/>
    </clipPath>
    </defs>
</svg>