<svg preserveAspectRatio="none"  width="108" height="1013" viewBox="0 0 108 1013" fill="none" xmlns="http://www.w3.org/2000/svg">
    <path d="M86.3394 1C86.3394 1 55.3789 69.607 51.413 116.626C49.8074 135.662 49.6067 146.527 51.413 165.545C56.2971 216.965 91.7879 238.201 97.1616 289.571C99.4301 311.258 100.079 323.8 97.1616 345.408C88.0738 412.724 12.8989 424.798 4.18869 492.164C1.54125 512.64 1.01162 524.637 4.18869 545.036C13.6609 605.856 87.8948 611.175 97.1616 672.027C100.183 691.865 99.6588 703.505 97.1616 723.417C89.9963 780.55 33.5855 796.082 27.8009 853.373C26.2695 868.54 25.9316 877.28 27.8009 892.409C34.6389 947.753 107 1011 107 1011" stroke="#E8E4DE" stroke-width="3"/>
    </svg>