<svg preserveAspectRatio="none" width="567" height="342" viewBox="0 0 567 342" fill="none" xmlns="http://www.w3.org/2000/svg">
    <g clip-path="url(#clip0_115_984)">
    <rect width="567" height="342" fill="#E8E3DD"/>
    <path d="M49.1866 45.2075C44.3491 49.3933 38.1875 51.1921 32.7046 54.383C17.4057 63.2865 4.30999 75.5422 -10.1934 85.6494C-14.0062 88.3065 -17.6994 91.1591 -21.5526 93.7466C-23.1537 94.8218 -24.9826 96.3474 -26.9586 94.42C-28.7429 92.6797 -28.0523 90.5158 -27.5175 88.5074C-27.1351 87.0714 -26.5484 85.6706 -25.8878 84.3454C-23.038 78.6298 -21.4946 72.6784 -21.8184 66.1211C-22.1333 59.745 -19.5222 54.794 -15.0833 50.2397C-9.26839 44.2737 -2.66054 39.6385 4.13229 35.2334C10.2612 31.2591 15.847 26.6916 20.5255 20.9291C22.6205 18.3486 24.9272 16.0992 28.1958 15.5268C41.4278 13.21 52.9481 6.40556 63.8599 -1.09808C79.6522 -11.9579 96.2676 -21.3327 112.043 -32.1788C117.044 -35.6175 122.406 -38.5387 126.443 -43.4235C127.531 -44.7398 129.156 -45.6765 130.687 -46.451C139.704 -51.0134 148.337 -56.1341 155.384 -63.8465C156.54 -65.1117 158.196 -65.9142 159.705 -66.7622C162.426 -68.2911 163.548 -66.2908 163.673 -64.0827C163.884 -60.343 162.691 -56.9311 159.729 -54.5608C157.911 -53.1053 155.999 -51.7458 154.011 -50.5683C148.433 -47.266 143.951 -42.9177 140.516 -37.1063C135.767 -29.0718 128.81 -22.9371 121.546 -17.8948C110.969 -10.5532 101.937 -1.42788 92.6084 7.33258C84.7198 14.7405 75.4657 20.2285 67.9612 28.1187C62.1311 34.2484 56.8286 41.0805 49.1866 45.2075Z" fill="#E8E4DE"/>
    <path d="M48.97 44.7539L48.922 44.7799L48.8803 44.816C46.5129 46.8644 43.811 48.3378 40.9903 49.7049C40.2243 50.0761 39.4474 50.4404 38.6663 50.8067C36.589 51.7807 34.4822 52.7686 32.4743 53.9371C24.7947 58.4065 17.6742 63.7135 10.6717 69.1563C9.13241 70.3527 7.59934 71.5553 6.06732 72.757C0.622182 77.0283 -4.80961 81.2891 -10.4579 85.2253C-12.102 86.3711 -13.7069 87.5404 -15.3068 88.706C-17.456 90.2719 -19.5962 91.8311 -21.8099 93.3177C-21.9414 93.406 -22.0712 93.4948 -22.1997 93.5827C-22.8952 94.0585 -23.5541 94.5092 -24.242 94.7183C-24.6324 94.837 -25.0111 94.8686 -25.3894 94.7799C-25.7674 94.6913 -26.1787 94.4746 -26.6218 94.0424L-26.9586 94.42L-26.6219 94.0423C-27.401 93.2824 -27.634 92.4506 -27.6195 91.5623C-27.6057 90.7163 -27.3699 89.8377 -27.12 88.9064C-27.0959 88.8165 -27.0716 88.7261 -27.0474 88.6353C-26.6774 87.2457 -26.1068 85.8801 -25.456 84.5747C-22.5726 78.7916 -21.0017 72.7486 -21.3308 66.0841C-21.6362 59.9017 -19.1183 55.0879 -14.7453 50.6014L-15.0833 50.2397L-14.7453 50.6014C-8.97173 44.6777 -2.4029 40.0673 4.38298 35.6668C10.5418 31.6731 16.1726 27.0718 20.8946 21.2557C22.9745 18.694 25.1814 16.5715 28.2665 16.0312C41.605 13.6958 53.1976 6.83995 64.1219 -0.672271C72.0074 -6.09489 80.0999 -11.1478 88.2012 -16.2057L88.2248 -16.2204C96.3152 -21.2715 104.414 -26.3279 112.305 -31.753C113.336 -32.4621 114.39 -33.1532 115.45 -33.8478C119.469 -36.4829 123.567 -39.1697 126.809 -43.0934C127.823 -44.32 129.363 -45.2178 130.892 -45.9913C139.924 -50.5609 148.622 -55.7146 155.733 -63.4969L155.384 -63.8466L155.733 -63.497C156.658 -64.5095 157.925 -65.207 159.243 -65.9321C159.47 -66.0575 159.7 -66.1838 159.929 -66.3126L159.779 -66.6131L159.929 -66.3126C160.56 -66.667 161.056 -66.7931 161.439 -66.7876C161.811 -66.7823 162.101 -66.6523 162.336 -66.4364C162.83 -65.982 163.126 -65.0953 163.185 -64.0418C163.389 -60.4428 162.245 -57.2115 159.438 -54.9648C157.634 -53.5211 155.742 -52.1757 153.777 -51.0123C148.13 -47.6693 143.585 -43.2605 140.102 -37.3689L140.516 -37.1063L140.102 -37.3689C135.407 -29.4261 128.517 -23.3418 121.282 -18.3194C112.426 -12.1722 104.647 -4.77673 96.9059 2.58167C95.3674 4.04425 93.8303 5.50537 92.2867 6.95493C88.8182 10.2121 85.0841 13.0963 81.3297 15.9961C80.8385 16.3755 80.347 16.7551 79.8557 17.1359C75.6174 20.4206 71.4005 23.7856 67.6189 27.7615C66.4632 28.9767 65.3329 30.2132 64.2053 31.4468C59.5977 36.4876 55.0359 41.4782 48.97 44.7539Z" stroke="black" stroke-opacity="0.41"/>
    <path d="M169.031 244.606C175.187 234.188 179.795 227.02 183.773 219.482C187.954 211.56 193.844 205.322 201.707 202.698C234.121 191.882 251.453 163.951 269.317 136.789C283.3 115.527 294.023 92.2042 304.932 69.0748C315.967 45.6758 332.882 26.7813 347.754 6.36939C351.937 0.628415 356.584 -4.80109 360.08 -11.0621C377.332 -41.9611 397.313 -71.0255 414.315 -102.127C420.936 -114.238 426.535 -126.759 431.994 -139.348C439.642 -156.982 452.243 -166.061 470.17 -166.678C485.399 -167.202 499.881 -170.847 514.374 -175.484C535.508 -182.247 540.423 -179.481 548.076 -157.49C550.707 -149.929 554.146 -143.103 558.577 -136.565C564.923 -127.201 566.749 -117.217 559.358 -107.224C548.232 -92.1816 544.038 -74.3139 539.625 -56.2473C534.3 -34.4517 526.807 -13.3279 514.896 5.63037C501.363 27.1705 493.938 52.2114 479.205 73.1978C470.598 85.4569 471.761 101.271 472.795 115.614C474.808 143.529 461.413 162.946 442.157 177.759C428.659 188.144 416.671 199.169 408.515 214.357C399.721 230.731 386.674 241.323 370.587 248.324C360.614 252.664 351.481 257.804 345.353 268.035C339.149 278.394 334.089 288.591 336.14 301.469C338.616 317.017 331.961 321.327 317.17 317.831C314.727 317.253 312.321 316.439 309.962 315.545C296.154 310.311 284.171 313.748 273.451 323.859C264.027 332.746 253.554 339.807 241.825 344.985C213.889 357.32 174.103 346.65 154.965 321.522C146.641 310.594 146.076 298.638 149.885 285.863C154.644 269.9 162.669 255.667 169.031 244.606Z" fill="#E8E4DE"/>
    <path d="M155.344 321.209L155.344 321.209C147.153 310.454 146.576 298.69 150.352 286.025C155.091 270.127 163.087 255.942 169.45 244.879C171.457 241.482 173.302 238.427 175.015 235.589C178.546 229.743 181.519 224.82 184.202 219.736C188.345 211.887 194.153 205.759 201.865 203.186C233.21 192.726 250.521 166.345 267.668 140.213C268.352 139.17 269.037 138.127 269.722 137.085C282.867 117.096 293.135 95.2912 303.362 73.5729C304.031 72.1511 304.701 70.7296 305.371 69.309C313.56 51.9461 324.983 37.0867 336.435 22.1902C340.379 17.0607 344.326 11.9268 348.145 6.68487C349.311 5.08417 350.52 3.50016 351.733 1.91022C354.839 -2.16038 357.975 -6.26979 360.503 -10.7971C368.724 -25.5203 377.565 -39.8278 386.415 -54.1489C386.844 -54.8441 387.274 -55.5393 387.703 -56.2346C396.98 -71.2498 406.233 -86.3019 414.741 -101.866C421.374 -113.999 426.98 -126.538 432.44 -139.128C436.235 -147.88 441.247 -154.48 447.509 -158.97C453.771 -163.46 461.311 -165.861 470.197 -166.167C485.488 -166.693 500.018 -170.353 514.526 -174.995C519.803 -176.684 524.034 -177.766 527.536 -178.109C531.032 -178.452 533.763 -178.053 536.065 -176.816C538.367 -175.579 540.298 -173.47 542.136 -170.274C543.978 -167.073 545.706 -162.816 547.617 -157.325C550.264 -149.719 553.724 -142.851 558.18 -136.276C561.32 -131.643 563.314 -126.897 563.631 -122.107C563.948 -117.329 562.602 -112.454 558.969 -107.543C548.026 -92.7478 543.754 -75.2441 539.451 -57.6121L539.151 -56.3841C533.835 -34.6209 526.359 -13.5539 514.486 5.34312C508.284 15.2144 503.362 25.8171 498.451 36.3962C497.988 37.3945 497.525 38.3926 497.06 39.3898C491.67 50.9665 486.147 62.4363 478.809 72.8894C470.118 85.2684 471.267 101.201 472.294 115.452L472.308 115.641C474.304 143.322 461.04 162.592 441.862 177.345C428.347 187.743 416.294 198.819 408.087 214.1C399.356 230.359 386.399 240.885 370.391 247.851C360.395 252.201 351.147 257.391 344.937 267.757C338.728 278.124 333.575 288.463 335.658 301.542C336.89 309.276 335.808 313.979 332.827 316.384C329.81 318.818 324.651 319.078 317.268 317.332L317.17 317.831L317.268 317.332C314.853 316.762 312.469 315.955 310.12 315.065C303.135 312.417 296.591 311.957 290.428 313.45C284.27 314.942 278.524 318.378 273.119 323.476C263.733 332.328 253.305 339.358 241.627 344.514C227.775 350.63 210.956 351.052 195.208 346.807C179.46 342.563 164.832 333.666 155.344 321.209Z" stroke="black" stroke-opacity="0.41"/>
    <path d="M489.34 213.925C486.032 213.949 482.649 213.731 481.293 209.92C479.906 206.023 480.209 202.089 482.975 198.805C485.538 195.763 488.653 194.76 492.406 196.439C496.194 198.132 499.792 200.219 502.684 203.24C505.52 206.204 504.864 209.61 501.184 211.212C497.439 212.841 493.477 213.917 489.34 213.925Z" fill="#E8E4DE"/>
    <path d="M489.339 213.425L489.336 213.425C487.679 213.437 486.091 213.384 484.758 212.892C483.461 212.413 482.39 211.512 481.764 209.752L481.381 209.888L481.764 209.752C480.424 205.987 480.728 202.248 483.358 199.127C484.594 197.66 485.931 196.722 487.374 196.335C488.811 195.949 490.41 196.094 492.202 196.895L492.202 196.895C495.962 198.576 499.494 200.63 502.323 203.586C503.664 204.988 504.117 206.425 503.886 207.644C503.656 208.86 502.718 209.999 500.985 210.753L501.157 211.148L500.985 210.753C497.283 212.364 493.39 213.417 489.339 213.425Z" stroke="black" stroke-opacity="0.41"/>
    </g>
    <defs>
    <clipPath id="clip0_115_984">
    <rect width="567" height="342" fill="white"/>
    </clipPath>
    </defs>
</svg>