<svg preserveAspectRatio="none" width="545" height="201" viewBox="0 0 545 201" fill="none" xmlns="http://www.w3.org/2000/svg">
    <g clip-path="url(#clip0_115_1001)">
    <rect width="545" height="201" fill="#E8E3DD"/>
    <path d="M281.177 457.102C279.879 446.68 279.241 439.149 277.976 432.068C276.646 424.628 277.38 416.255 281.379 407.524C297.868 371.529 294.956 342.787 292.815 313.86C291.139 291.217 286.137 270.844 281.365 250.374C276.537 229.666 278.125 205.202 277.508 182.063C277.335 175.555 277.644 168.732 276.725 162.665C272.186 132.727 270.489 100.936 265.672 71.1538C263.796 59.5558 261.002 48.7717 258.078 38.0927C253.981 23.134 257.81 7.05104 269.77 -10.5554C279.93 -25.5118 287.926 -41.0843 295.403 -57.0929C306.307 -80.4366 311.14 -84.005 328.031 -81.9794C333.839 -81.2828 339.81 -81.6824 346.309 -83.1652C355.618 -85.2892 362.157 -82.775 362.383 -71.3403C362.723 -54.1272 369.311 -42.4093 375.854 -30.3935C383.747 -15.8976 389.798 0.40822 391.674 20.0592C393.806 42.3865 401.978 60.3063 402.993 83.5569C403.587 97.139 412.759 102.795 421.063 107.944C437.225 117.967 438.327 139.249 432.975 164.228C429.222 181.739 426.845 198.062 429.297 212.465C431.942 227.992 428.609 245.155 421.29 263.719C416.753 275.228 413.216 286.266 414.434 296.581C415.667 307.024 417.599 316.291 425.825 319.829C435.756 324.1 433.477 332.386 421.488 345.195C419.508 347.31 417.427 349.289 415.337 351.188C403.101 362.301 396.709 375.366 394.715 390.072C392.963 402.999 389.524 416.158 384.227 429.724C371.612 462.037 338.693 495.949 312.269 503.688C300.777 507.055 294.058 502.475 289.903 493.313C284.711 481.865 282.674 467.999 281.177 457.102Z" fill="#E8E4DE"/>
    <path d="M421.308 344.8L421.488 345.195L421.308 344.8C419.347 346.895 417.282 348.859 415.199 350.751C409.025 356.359 404.301 362.482 400.867 369.085C397.433 375.689 395.308 382.737 394.3 390.173C392.557 403.032 389.137 416.122 383.866 429.621C377.616 445.63 366.312 462.087 353.257 475.516C340.204 488.942 325.448 499.292 312.329 503.134L312.269 503.688L312.329 503.134C300.994 506.454 294.387 501.952 290.285 492.906C285.121 481.521 283.091 467.721 281.593 456.823C281.171 453.43 280.818 450.337 280.49 447.464C279.813 441.539 279.243 436.545 278.389 431.764C277.077 424.424 277.807 416.217 281.719 407.678C297.68 372.835 295.57 344.736 293.484 316.943C293.4 315.833 293.317 314.723 293.235 313.613C291.658 292.314 287.146 273.022 282.655 253.819C282.36 252.561 282.066 251.303 281.773 250.045C278.195 234.696 278.155 217.301 278.115 199.84C278.102 193.823 278.088 187.797 277.93 181.845C277.881 180.039 277.871 178.196 277.861 176.343C277.834 171.588 277.807 166.774 277.14 162.375C274.978 148.114 273.461 133.43 271.942 118.727C271.869 118.014 271.795 117.301 271.721 116.587C270.128 101.176 268.498 85.7673 266.086 70.8585C264.206 59.2321 261.406 48.4272 258.481 37.7463C256.454 30.3445 256.394 22.6962 258.301 14.7436C260.209 6.78696 264.098 -1.52862 270.032 -10.2632C280.232 -25.2789 288.253 -40.9034 295.739 -56.9322C301.198 -68.6182 305.05 -75.1461 309.565 -78.5757C314.088 -82.011 319.392 -82.4282 327.851 -81.4136C333.692 -80.7131 339.697 -81.1152 346.228 -82.6055C350.845 -83.6589 354.725 -83.5493 357.473 -81.8064C360.207 -80.0727 361.851 -76.7053 361.961 -71.1273C362.297 -54.1632 368.65 -42.5046 375.033 -30.7903C375.184 -30.5148 375.334 -30.2393 375.484 -29.9637C383.362 -15.4955 389.388 0.755038 391.255 20.3186C392.233 30.5614 394.477 39.8781 396.713 49.163C396.924 50.0399 397.135 50.9166 397.345 51.7937C399.782 61.9718 402.067 72.2209 402.572 83.7852C402.875 90.7215 405.369 95.6093 408.807 99.4006C412.22 103.165 416.588 105.873 420.712 108.43L420.786 108.476C428.801 113.446 433.066 121.194 434.673 130.776C436.282 140.368 435.235 151.834 432.571 164.267C428.813 181.803 426.411 198.241 428.884 212.765C431.502 228.14 428.209 245.15 420.931 263.612C416.386 275.14 412.776 286.353 414.016 296.853C415.252 307.319 417.203 316.775 425.579 320.377C430.533 322.508 432.218 325.554 431.469 329.363C431.088 331.305 430.06 333.555 428.351 336.147C426.644 338.734 424.288 341.615 421.308 344.8Z" stroke="black" stroke-opacity="0.41"/>
    <path d="M61.0766 163.549C56.4467 170.26 50.5248 173.09 45.2662 178.183C30.5935 192.392 18.0664 212.055 4.16842 228.223C0.514701 232.473 -3.02236 237.041 -6.71539 241.178C-8.24996 242.898 -10.0008 245.343 -11.9175 242.197C-13.6484 239.357 -12.9985 235.864 -12.4976 232.621C-12.1393 230.302 -11.5841 228.042 -10.9572 225.906C-8.25258 216.693 -6.80794 207.081 -7.16601 196.464C-7.51421 186.14 -5.03413 178.162 -0.790707 170.849C4.76798 161.27 11.0998 153.855 17.6115 146.814C23.4867 140.463 28.8346 133.144 33.3001 123.879C35.2999 119.73 37.5057 116.12 40.6499 115.236C53.3783 111.66 64.4264 100.799 74.8834 88.7979C90.0176 71.4291 105.955 56.4747 121.073 39.1279C125.866 33.6283 131.01 28.9709 134.864 21.118C135.902 19.0019 137.461 17.5072 138.93 16.2738C147.583 9.00831 155.861 0.834023 162.594 -11.5557C163.699 -13.5882 165.288 -14.8652 166.736 -16.2178C169.347 -18.6566 170.441 -15.4045 170.577 -11.8291C170.807 -5.77361 169.681 -0.267256 166.845 3.53006C165.104 5.86184 163.273 8.03694 161.365 9.91665C156.016 15.188 151.73 22.1666 148.462 31.5271C143.945 44.4682 137.287 54.3055 130.326 62.3709C120.191 74.1142 111.556 88.7644 102.632 102.82C95.0866 114.706 86.212 123.467 79.0394 136.138C73.4672 145.982 68.4081 156.97 61.0766 163.549Z" fill="#E8E4DE"/>
    <path d="M60.948 163.035L60.9009 163.078L60.8601 163.137C58.5954 166.42 56.0046 168.768 53.2973 170.943C52.5623 171.534 51.8167 172.113 51.067 172.696C49.073 174.245 47.0503 175.816 45.1242 177.682C37.7582 184.815 30.9368 193.311 24.2304 202.028C22.7562 203.945 21.288 205.871 19.8209 207.796C14.6064 214.637 9.405 221.461 3.99276 227.757C2.43361 229.571 0.895448 231.443 -0.637721 233.308C-0.90612 233.635 -1.17437 233.961 -1.44255 234.287C-3.24475 236.477 -5.04582 238.646 -6.88403 240.705C-7.01009 240.846 -7.13451 240.988 -7.25772 241.129C-7.92398 241.89 -8.55468 242.61 -9.2164 242.939C-9.5916 243.126 -9.9691 243.18 -10.3585 243.021C-10.7513 242.861 -11.1766 242.477 -11.629 241.735L-11.9175 242.197L-11.629 241.735C-13.1593 239.224 -12.6907 236.212 -12.2008 233.063C-12.1797 232.927 -12.1586 232.791 -12.1376 232.655C-11.7882 230.394 -11.245 228.18 -10.6264 226.072C-7.89371 216.763 -6.43299 207.043 -6.79476 196.317C-7.13607 186.198 -4.7163 178.404 -0.54372 171.213C4.97524 161.702 11.2689 154.327 17.7735 147.295C23.6787 140.911 29.0701 133.537 33.5764 124.187C35.5624 120.067 37.6705 116.664 40.6426 115.828C53.468 112.225 64.5853 101.283 75.0566 89.2661C82.6132 80.5937 90.3719 72.5224 98.1392 64.4427L98.1619 64.4191C105.919 56.3505 113.684 48.2731 121.246 39.5962C122.234 38.4622 123.245 37.3577 124.26 36.2474C128.113 32.0352 132.042 27.7395 135.137 21.4322C136.105 19.4599 137.58 18.0289 139.047 16.7973C147.714 9.51992 156.058 1.29173 162.852 -11.211L162.676 -11.4468L162.852 -11.2111C163.362 -12.1489 163.993 -12.93 164.691 -13.6529C165.186 -14.1662 165.697 -14.6324 166.214 -15.1049C166.432 -15.3044 166.652 -15.5049 166.872 -15.7107C167.473 -16.2724 167.955 -16.4768 168.338 -16.4624C168.72 -16.448 169.037 -16.2164 169.302 -15.8074C169.842 -14.9698 170.14 -13.4106 170.206 -11.678C170.431 -5.74612 169.327 -0.495877 166.643 3.09757C164.917 5.41006 163.104 7.56197 161.22 9.41866C155.802 14.7582 151.456 21.8355 148.147 31.314L148.462 31.5271L148.147 31.314C143.677 44.1177 137.082 53.8742 130.151 61.9047C121.665 71.7383 114.223 83.6063 106.819 95.4139C105.348 97.7607 103.877 100.105 102.401 102.431C99.0835 107.656 95.5075 112.275 91.9118 116.919C91.4414 117.526 90.9707 118.134 90.5001 118.744C86.4409 124.005 82.4026 129.396 78.7883 135.781C77.6835 137.733 76.6086 139.711 75.5362 141.684C73.8769 144.738 72.2238 147.78 70.4763 150.695C67.616 155.465 64.5566 159.797 60.948 163.035Z" stroke="black" stroke-opacity="0.41"/>
    </g>
    <defs>
    <clipPath id="clip0_115_1001">
    <rect width="545" height="201" fill="white"/>
    </clipPath>
    </defs>
</svg>