<svg width="573" height="104" viewBox="0 0 573 104" xmlns="http://www.w3.org/2000/svg">
    <g clip-path="url(#clip0_4070_2481)">
    <path d="M552.665 72.8637L536.238 48.532H512L543.143 95H573V2H552.665V72.8637Z" fill="white"/>
    <path d="M177.74 0V62.8205C177.74 75.9835 173.902 83.4602 161.5 83.4602V75.2395C150.572 75.2395 145.259 68.4677 145.259 54.5368V1.77729H125V54.5368C125 79.2715 136.012 95.6853 161.5 95.6853V104C184.014 104 198 88.221 198 62.8205V29.3746L177.74 0Z" fill="white"/>
    <path d="M296 2H276V95H296V2Z" fill="white"/>
    <path d="M398 2H378V95H398V2Z" fill="white"/>
    <path d="M341.025 22.4753L347.792 32.471L348.318 33.2483H349.255H369.662H373L371.125 30.479L352.37 2.77731L351.843 2H350.907H304.338H302.57V3.77325V40.24V42.0132H304.338H311.253L321.909 57.7559L322.435 58.5333H323.372H351.011V74.5247H332.975L326.208 64.529L325.682 63.7518H324.745H304.338H301L302.875 66.521L321.63 94.2228L322.157 95H323.094H369.662H371.43V93.2268V56.76V54.9868H369.662H362.136L351.509 39.246L350.983 38.4667H350.045H322.989V22.4753H341.025Z" fill="white"/>
    <path d="M470.494 17.5854L476.095 9.96813L474.805 8.97513C467.18 3.10353 458.069 0 448.457 0C424.495 0 405 19.6697 405 43.8471C405 60.5251 412.817 72.1549 424.254 80.3072L418.63 87.8114L420.128 88.7226C426.879 92.8294 434.63 95 442.543 95C466.505 95 486 75.3303 486 51.1529C486 38.0814 480.371 25.9453 470.494 17.5854ZM442.543 74.6205C438.722 74.6205 434.403 73.4313 430.85 71.363L436.341 63.8865C430.085 60.1206 425.198 52.1507 425.198 43.8471C425.198 30.907 435.632 20.3795 448.457 20.3795C454.027 20.3795 459.638 22.519 464.193 26.1224L458.396 33.9758C463.129 38.4088 465.802 44.5508 465.802 51.1529C465.802 64.093 455.368 74.6205 442.543 74.6205Z" fill="white"/>
    <path d="M250.391 2H248.626V3.77325V72.8637L232.194 48.5319H240.714H244.038L243.369 47.538L213.229 2.77948L212.704 2H211.768H191.329H188L189.869 4.76886L219.422 48.5171H210.902H207.563L208.219 49.4989L238.561 94.2256L239.086 95H240.019H267.236H269V93.2268V3.77325V2H267.236H250.391Z" fill="white"/>
    <path d="M18.6091 2H20.3736V3.77325V72.8637L36.8065 48.5319H28.2862H24.9616L25.6309 47.538L55.7708 2.77948L56.2955 2H57.232H77.6706H81L79.1306 4.76886L49.5779 48.5171H58.0984H61.4369L60.7814 49.4989L30.4391 94.2256L29.9138 95H28.9813H1.76444H0V93.2268L4.02173e-09 3.77325L4.16041e-09 2H1.76444H18.6091Z" fill="white"/>
    <path d="M88.1164 2L87.5917 2.77439L56.634 48.5171H67.2272L37.8615 92.2329L36 95H60.5946L61.119 94.2224L79.6189 66.7933H97.6469V95H118V2H88.1164ZM97.6469 57.137L92.0421 48.5448H81.1082L97.6469 24.1364V57.137Z" fill="white"/>
    <path d="M512.293 24.1363L528.811 48.5957H553L521.796 2H492V95H512.293V24.1363Z" fill="white"/>
    </g>
    <defs>
    <clipPath id="clip0_4070_2481">
    <rect width="573" height="104" fill="white"/>
    </clipPath>
    </defs>
</svg>