<svg width="752" height="743" viewBox="0 0 752 743" xmlns="http://www.w3.org/2000/svg">
    <path d="M428.839 743L375.661 559.111L321.818 742.807L322.709 551.416L219.187 712.534L274.074 529.146L129.26 654.631L233.697 494.104L59.322 573.791L204.848 449.129L15.0395 476.563L189.865 397.865L0 370.823L189.962 344.465L15.4217 265.138L205.13 293.256L60.0554 168.07L234.141 248.385L130.285 87.4822L274.645 213.488L220.421 29.9041L323.36 191.393L323.161 0L376.339 183.889L430.182 0.192662L429.291 191.583L532.813 30.4664L477.926 213.854L622.74 88.3687L518.303 248.896L692.678 169.209L547.152 293.871L736.961 266.437L562.135 345.135L752 372.177L562.038 398.535L736.578 477.862L546.87 449.744L691.945 574.93L517.859 494.615L621.715 655.518L477.355 529.512L531.579 713.096L428.64 551.607L428.839 743Z" fill="#E2B63F" fill-opacity="0.7"/>
</svg>