<svg width="890" height="160" viewBox="0 0 890 160" xmlns="http://www.w3.org/2000/svg">
    <g clip-path="url(#clip0_115_2856)">
        <path d="M858.331 111.963L832.747 74.5492H795L843.502 146H890V3H858.331V111.963Z" fill="white"/>
        <path d="M277.362 0V96.6469C277.362 116.898 271.367 128.4 252 128.4V115.753C234.934 115.753 226.638 105.335 226.638 83.9028V2.73429H195V83.9028C195 121.956 212.197 147.208 252 147.208V160C287.159 160 309 135.725 309 96.6469V45.1918L277.362 0Z" fill="white"/>
        <path d="M460 3H428V146H460V3Z" fill="white"/>
        <path d="M620 3H588V146H620V3Z" fill="white"/>
        <path d="M529.705 34.4836L540.138 49.8532L540.949 51.0484H542.393H573.854H579L576.11 46.7903L547.195 4.19522L546.384 3H544.939H473.146H470.42V5.72661V61.7991V64.5257H473.146H483.806L500.235 88.7321L501.046 89.9275H502.49H545.1V114.516H517.295L506.862 99.1468L506.051 97.9517H504.607H473.146H468L470.891 102.21L499.805 144.805L500.616 146H502.061H573.854H576.58V143.273V87.2009V84.4743H573.854H562.251L545.868 60.2707L545.057 59.0725H543.611H501.9V34.4836H529.705Z" fill="white"/>
        <path d="M729.879 27.2111L738.592 15.4244L736.586 13.8878C724.724 4.8023 710.551 0 695.6 0C658.325 0 628 30.4363 628 67.8476C628 93.6547 640.16 111.65 657.95 124.265L649.202 135.877L651.532 137.287C662.034 143.641 674.091 147 686.4 147C723.675 147 754 116.564 754 79.1524C754 58.9259 745.244 40.1469 729.879 27.2111ZM686.4 115.465C680.456 115.465 673.738 113.625 668.211 110.425L676.753 98.856C667.021 93.0287 659.419 80.6963 659.419 67.8476C659.419 47.8245 675.65 31.5346 695.6 31.5346C704.265 31.5346 712.992 34.8452 720.078 40.421L711.06 52.5731C718.422 59.4325 722.581 68.9366 722.581 79.1524C722.581 99.1755 706.35 115.465 686.4 115.465Z" fill="white"/>
        <path d="M387.282 3H384.559V5.72661V111.963L359.2 74.5491H372.348H377.479L376.446 73.0209L329.934 4.19855L329.124 3H327.679H296.138H291L293.885 7.25749L339.491 74.5263H326.342H321.19L322.202 76.0359L369.026 144.809L369.837 146H371.276H413.277H416V143.273V5.72661V3H413.277H387.282Z" fill="white"/>
        <path d="M28.7178 3H31.4407V5.72661V111.963L56.8001 74.5491H43.6516H38.521L39.5539 73.0209L86.066 4.19855L86.8758 3H88.3211H119.862H125L122.115 7.25749L76.5091 74.5263H89.6581H94.8101L93.7984 76.0359L46.9739 144.809L46.1632 146H44.7242H2.7229H0V143.273L6.20637e-09 5.72661L6.42039e-09 3H2.7229H28.7178Z" fill="white"/>
        <path d="M137.717 3L136.904 4.19073L88.9575 74.5263H105.364L59.8831 141.745L57 146H95.0916L95.9039 144.804L124.556 102.628H152.478V146H184V3H137.717ZM152.478 87.7806L143.797 74.5689H126.863L152.478 37.0376V87.7806Z" fill="white"/>
        <path d="M795.605 37.0375L821.329 74.6471H859L810.404 3H764V146H795.605V37.0375Z" fill="white"/>
    </g>
    <defs>
    <clipPath id="clip0_115_2856">
    <rect width="890" height="160" fill="white"/>
    </clipPath>
    </defs>
</svg>