<svg width="626" height="619" viewBox="0 0 626 619" fill="none" xmlns="http://www.w3.org/2000/svg">
    <path d="M356.986 619L312.718 465.801L267.897 618.839L268.638 459.39L182.461 593.618L228.152 440.836L107.602 545.379L194.54 411.642L49.3824 478.031L170.525 374.173L12.5196 397.029L158.053 331.465L0 308.936L158.133 286.977L12.8378 220.889L170.76 244.314L49.9929 140.02L194.91 206.932L108.455 72.8822L228.627 177.859L183.489 24.9133L269.18 159.451L269.014 0L313.282 153.199L358.103 0.160508L357.362 159.61L443.539 25.3819L397.848 178.164L518.398 73.6208L431.46 207.358L576.618 140.969L455.475 244.827L613.48 221.971L467.947 287.535L626 310.064L467.867 332.023L613.162 398.111L455.24 374.686L576.007 478.98L431.09 412.068L517.545 546.118L397.373 441.141L442.511 594.087L356.82 459.549L356.986 619Z" fill="#E2B63F" fill-opacity="0.7"/>
</svg>