<svg width="718" height="842" viewBox="0 0 718 842" fill="none" xmlns="http://www.w3.org/2000/svg">
    <path d="M409.45 842L358.676 633.609L307.268 841.782L308.118 624.889L209.277 807.474L261.683 599.651L123.416 741.857L223.131 559.94L56.6399 650.245L195.587 508.972L14.3596 540.062L181.281 450.878L0 420.233L181.373 390.363L14.7245 300.466L195.856 332.33L57.3401 190.464L223.555 281.481L124.394 99.1386L262.227 241.934L210.455 33.8886L308.74 216.895L308.55 0L359.324 208.391L410.732 0.218333L409.882 217.111L508.723 34.5259L456.317 242.349L594.584 100.143L494.869 282.06L661.36 191.755L522.414 333.028L703.641 301.938L536.719 391.122L718 421.767L536.627 451.637L703.276 541.534L522.144 509.67L660.66 651.536L494.445 560.519L593.606 742.861L455.773 600.066L507.545 808.111L409.26 625.105L409.45 842Z" fill="#E2B63F" fill-opacity="0.7"/>
</svg> 