<svg width="86" height="67" viewBox="0 0 86 67" xmlns="http://www.w3.org/2000/svg">
    <path d="M76.3685 56.0685L86 49.5918H74.6816L72.0638 39.5275L67.6785 49.5918H64.7736L72.2142 33.4631C72.9527 31.8945 73.8592 30.2527 74.9371 28.5374C76.0185 26.8222 77.1455 25.2048 78.3249 23.6852C79.5044 22.1656 80.7048 20.8556 81.9332 19.7517C82.8782 18.9028 83.7811 18.2915 84.6386 17.9212C84.7296 17.8827 84.6911 17.743 84.5931 17.757L59.7864 20.9289C59.6849 20.9429 59.6884 21.0896 59.7899 21.1001C61.1233 21.2259 62.5443 21.4634 64.0457 21.8058C65.8621 22.2215 67.444 22.9201 68.7949 23.8983C70.1459 24.8799 71.0523 26.2493 71.5178 28.0134C71.9833 29.7776 71.6543 32.0762 70.5273 34.9163C70.5238 34.9198 70.5238 34.9233 70.5203 34.9303L63.7237 49.5918L61.7988 53.7384L60.8819 55.7121C60.8504 55.7785 60.7559 55.7785 60.7244 55.7121L58.7365 51.4049L57.9 49.5918L48.2825 28.768C48.2615 28.7191 48.265 28.6632 48.2965 28.6178C49.77 26.6196 51.0964 24.6563 52.2758 22.7245C53.9942 19.9159 55.3662 17.2644 56.3986 14.7737C57.4275 12.2829 58.082 10.2149 58.355 8.5695C58.5825 7.10579 58.572 5.84818 58.32 4.79669C58.068 3.74519 57.6095 2.87535 56.9446 2.19065C56.2796 1.50596 55.4327 0.992439 54.4037 0.646598C53.3958 0.311237 52.2443 0.0946503 50.9494 0.00033011C50.8969 -0.00316323 50.8444 0.0212897 50.8164 0.0632098L42.9068 11.5144C42.9033 11.5179 42.9033 11.5179 42.8998 11.5214L41.9829 12.6777C41.9234 12.751 41.9479 12.8593 42.0319 12.9012C42.0529 12.9117 42.0739 12.9152 42.0984 12.9152C42.1439 12.9152 42.1894 12.8943 42.2174 12.8523C42.8368 11.993 43.4878 11.3747 44.1703 11.0009C44.8807 10.6131 45.5772 10.4175 46.2667 10.4175C47.0436 10.4175 47.7891 10.6236 48.4995 11.0358C49.21 11.448 49.8295 11.9615 50.3544 12.5764C50.8794 13.1947 51.3029 13.8899 51.6249 14.6689C51.9468 15.4444 52.1078 16.2234 52.1078 16.9989C52.1078 19.1927 51.6144 21.2643 50.6309 23.2031C49.8925 24.6598 48.9615 26.0257 47.8381 27.3008C47.7681 27.3811 47.6386 27.3602 47.5931 27.2659L44.1878 19.8914C44.1738 19.8635 44.1493 19.846 44.1213 19.8425L36.3062 18.8818C36.2117 18.8714 36.1522 18.7736 36.1872 18.6862C36.9992 16.4295 37.4086 14.0855 37.4086 11.6506C37.4086 9.91443 37.1321 8.44024 36.5827 7.22805C36.0332 6.01586 35.2982 5.04472 34.3813 4.31461C33.4643 3.5845 32.3759 3.057 31.116 2.73911C29.856 2.41772 28.5366 2.25703 27.1612 2.25703C25.7403 2.25703 24.2878 2.39676 22.8004 2.66924C21.3095 2.94522 19.8571 3.3225 18.4362 3.80109C17.0152 4.27967 15.6643 4.8421 14.3834 5.48138C13.1024 6.12416 11.979 6.7844 11.0166 7.47259C9.41365 8.6184 7.94723 9.79566 6.6208 11.0078C5.29437 12.22 4.16044 13.5021 3.21899 14.8505C2.28104 16.199 1.53558 17.6627 0.986107 19.2452C0.436636 20.8241 0.114654 22.5743 0.0236587 24.4956C-0.0673364 26.3262 0.104155 27.9156 0.538131 29.2641C0.972108 30.6125 1.56708 31.7129 2.32303 32.5583C3.07899 33.4037 3.97145 34.0325 5.00389 34.4482C6.03283 34.8604 7.10028 35.0665 8.19922 35.0665C10.5826 35.0665 12.7315 34.2875 14.6564 32.7295C15.7098 31.905 16.8437 30.8745 18.0582 29.6378C20.3366 27.3183 22.4224 24.852 24.5083 22.3612C25.0893 21.666 25.7438 20.9289 26.6362 20.7648C27.0247 20.6949 27.4552 20.7543 27.7667 20.9953C28.2111 21.3412 28.3266 21.963 28.3266 22.5254C28.3231 23.521 28.0676 24.4922 27.7807 25.4458C26.7377 28.9357 25.3133 32.2579 23.4164 35.3704C22.3979 37.0437 21.32 38.7135 20.1896 40.3869C20.1651 40.4218 20.1266 40.4462 20.0846 40.4497L16.4448 40.9109C16.3993 40.9178 16.3573 40.9423 16.3363 40.9842L9.02167 53.6685C8.65419 54.3078 8.60869 54.8807 8.88518 55.3838C9.15816 55.8833 9.54664 56.0685 10.0436 55.9357C10.0471 55.9357 10.0541 55.9322 10.0576 55.9322C10.3271 55.8414 10.4741 55.6702 10.4951 55.4222C10.5161 55.1707 10.4951 54.8842 10.4286 54.5628C10.3586 54.2414 10.2886 53.934 10.2221 53.6371C10.1591 53.3646 10.1801 53.1236 10.2921 52.9105C10.3131 52.8721 10.3481 52.8441 10.3901 52.8336L17.7467 50.9996C21.684 50.039 25.3728 48.5543 28.8096 46.5456C32.2464 44.5369 35.4207 42.2383 38.3291 39.6567C39.638 38.497 40.8874 37.2987 42.0774 36.0621C42.1509 35.9887 42.2734 36.0097 42.3189 36.1005L56.6016 66.9502C56.6331 67.0166 56.7276 67.0166 56.7591 66.9502L62.5828 54.3288L64.8541 56.0615L60.0909 66.9991L70.2474 60.1696L79.2069 66.9991L76.3685 56.0685ZM27.1122 17.736C27.0527 17.729 26.9932 17.757 26.9617 17.8129L26.9547 17.8269C26.2687 19.06 25.4078 20.3316 24.3788 21.6311C23.3499 22.9341 22.2265 24.1358 21.012 25.2327C19.7976 26.3296 18.5377 27.2344 17.2322 27.9401C15.9268 28.6492 14.6564 29.0265 13.4209 29.0719C11.3595 29.1627 9.62014 28.8658 8.19922 28.1811C6.77829 27.4964 5.67935 26.5812 4.9024 25.4388C4.12544 24.2965 3.64246 23.004 3.46047 21.5647C3.27498 20.1255 3.39048 18.6618 3.80345 17.1771C4.21643 15.6924 4.91289 14.2532 5.89984 12.8593C6.88329 11.4655 8.13272 10.2917 9.64464 9.33105C12.6195 7.4132 15.5523 6.45253 18.4362 6.45253C19.8571 6.45253 21.1835 6.70405 22.4224 7.20709C23.6579 7.71013 24.7463 8.45422 25.6843 9.43585C26.6222 10.4175 27.3572 11.6401 27.8822 13.1039C28.3651 14.4488 28.6276 16.0068 28.6661 17.7779C28.6696 17.8688 28.5891 17.9386 28.4981 17.9282L27.1122 17.736ZM40.779 33.0788C38.7001 34.3608 36.5337 35.4822 34.2798 36.4359C31.9629 37.4175 29.6706 38.228 27.4062 38.8672C25.2923 39.4646 23.3254 39.9222 21.509 40.2401C21.376 40.2646 21.2815 40.1074 21.369 40.0026C23.0804 37.9101 24.8513 35.7931 26.6852 33.6587C28.6101 31.4194 30.3635 29.1348 31.9454 26.8047C32.9814 25.2747 33.9018 23.7096 34.7033 22.1027C34.7453 22.0154 34.8643 21.9944 34.9343 22.0608C34.9483 22.0713 34.9588 22.0852 34.9728 22.0957C36.0997 23.1507 37.0097 24.4852 37.6956 26.1026L40.8384 32.8936C40.8664 32.96 40.8419 33.0404 40.779 33.0788Z" fill="#AB1115"/>
</svg>