<svg width="1720" height="312" viewBox="0 0 1720 312" fill="none" xmlns="http://www.w3.org/2000/svg">
    <g clip-path="url(#clip0_172_785)">
    <path d="M1659 217.591L1609.71 144.596H1537L1630.43 284H1720V5H1659V217.591Z" fill="#171616"/>
    <path d="M534.944 0V188.462C534.944 227.951 523.375 250.38 486 250.38V225.719C453.066 225.719 437.056 205.403 437.056 163.61V5.33186H376V163.61C376 237.814 409.188 287.056 486 287.056V312C553.85 312 596 264.663 596 188.462V88.1239L534.944 0Z" fill="#171616"/>
    <path d="M888 5H827V284H888V5Z" fill="#171616"/>
    <path d="M1197 5H1136V284H1197V5Z" fill="#171616"/>
    <path d="M1024.52 66.4261L1044.73 96.4129L1046.3 98.7448H1049.1H1110.03H1120L1114.4 90.437L1058.4 7.33193L1056.82 5H1054.03H914.968H909.687V10.3197V119.72V125.04H914.968H935.616L967.436 172.268L969.008 174.6H971.806H1054.34V222.574H1000.48L980.274 192.587L978.703 190.255H975.905H914.968H905L910.599 198.563L966.604 281.668L968.176 284H970.974H1110.03H1115.31V278.68V169.28V163.96H1110.03H1087.56L1055.83 116.738L1054.26 114.4H1051.45H970.662V66.4261H1024.52Z" fill="#171616"/>
    <path d="M1411.29 53.9413L1428.16 31.0093L1424.28 28.0199C1401.31 10.3432 1373.86 1 1344.91 1C1272.72 1 1214 60.2163 1214 133.003C1214 183.212 1237.55 218.224 1272 242.767L1255.06 265.358L1259.57 268.102C1279.91 280.465 1303.26 287 1327.09 287C1399.28 287 1458 227.784 1458 154.997C1458 115.645 1441.04 79.109 1411.29 53.9413ZM1327.09 225.647C1315.58 225.647 1302.57 222.067 1291.87 215.84L1308.41 193.332C1289.56 181.995 1274.84 158.001 1274.84 133.003C1274.84 94.0462 1306.27 62.3531 1344.91 62.3531C1361.69 62.3531 1378.59 68.7942 1392.31 79.6422L1374.85 103.285C1389.1 116.631 1397.16 135.121 1397.16 154.997C1397.16 193.954 1365.73 225.647 1327.09 225.647Z" fill="#171616"/>
    <path d="M749.402 5H744.131V10.3197V217.591L695.035 144.596H720.491H730.423L728.424 141.614L638.376 7.33843L636.808 5H634.01H572.947H563L568.585 13.3066L656.878 144.551H631.422H621.448L623.406 147.497L714.059 281.677L715.628 284H718.414H799.728H805V278.68V10.3197V5H799.728H749.402Z" fill="#171616"/>
    <path d="M55.5977 5H60.8692V10.3197V217.591L109.965 144.596H84.5094H74.5767L76.5764 141.614L166.624 7.33843L168.192 5H170.99H232.053H242L236.415 13.3066L148.122 144.551H173.578H183.552L181.594 147.497L90.9415 281.677L89.372 284H86.586H5.27154H0V278.68L1.20155e-08 10.3197L1.24299e-08 5H5.27154H55.5977Z" fill="#171616"/>
    <path d="M266.349 5L264.775 7.32317L171.902 144.551H203.682L115.585 275.699L110 284H183.784L185.357 281.667L240.857 199.38H294.941V284H356V5H266.349ZM294.941 170.411L278.126 144.634H245.324L294.941 71.4091V170.411Z" fill="#171616"/>
    <path d="M1537.88 71.4088L1587.43 144.787H1660L1566.39 5H1477V284H1537.88V71.4088Z" fill="#171616"/>
    </g>
    <defs>
    <clipPath id="clip0_172_785">
    <rect width="1720" height="312" fill="white"/>
    </clipPath>
    </defs>
</svg>