<svg width="266" height="716" viewBox="0 0 266 716" fill="none" xmlns="http://www.w3.org/2000/svg">
    <path d="M411.731 716L360.674 538.794L308.98 715.814L309.835 531.378L210.443 686.641L263.14 509.917L124.103 630.842L224.374 476.148L56.9554 552.94L196.676 432.808L14.4396 459.245L182.291 383.407L0 357.348L182.384 331.948L14.8065 255.503L196.947 282.599L57.6596 161.962L224.8 239.359L125.087 84.3032L263.688 205.73L211.628 28.8174L310.46 184.438L310.269 0L361.326 177.206L413.02 0.185661L412.165 184.621L511.557 29.3593L458.86 206.083L597.897 85.1575L497.626 239.852L665.045 163.06L525.324 283.192L707.56 256.755L539.709 332.593L722 358.652L539.616 384.052L707.193 460.497L525.053 433.401L664.34 554.038L497.2 476.641L596.913 631.697L458.312 510.27L510.372 687.183L411.54 531.562L411.731 716Z" fill="#E2B63F" fill-opacity="0.7"/>
</svg> 