<svg width="564" height="308" viewBox="0 0 564 308" fill="none" xmlns="http://www.w3.org/2000/svg">
    <path d="M321.629 308L281.746 168.413L241.364 307.854L242.032 162.572L164.39 284.873L205.556 145.667L96.9448 240.921L175.273 119.067L44.4915 179.556L153.636 84.9268L11.2797 105.752L142.399 46.0132L0 25.4862L142.471 5.47824L11.5663 -54.7378L153.848 -33.3942L45.0415 -128.421L175.606 -67.4548L97.7137 -189.594L205.984 -93.9443L165.316 -233.3L242.52 -110.717L242.371 -256L282.254 -116.413L322.636 -255.854L321.968 -110.572L399.61 -232.873L358.444 -93.6665L467.055 -188.921L388.727 -67.0665L519.509 -127.556L410.364 -32.9268L552.72 -53.7518L421.601 5.98682L564 26.5138L421.529 46.5218L552.434 106.738L410.152 85.3942L518.958 180.421L388.394 119.455L466.286 241.594L358.016 145.944L398.684 285.3L321.48 162.717L321.629 308Z" fill="#E2B63F" fill-opacity="0.7"/>
</svg>