<svg preserveAspectRatio="none" width="1072" height="557" viewBox="0 0 1072 557" fill="none" xmlns="http://www.w3.org/2000/svg">
    <g clip-path="url(#clip0_240_6113)">
    <rect width="1072" height="557" fill="#E8E3DD"/>
    <path d="M246.583 55.1639C238.405 72.1265 232.758 90.0069 222.387 106.13C211.233 123.47 207.824 141.884 219.022 160.963C223.077 167.872 222.582 175.775 221.997 183.297C221.414 190.787 216.394 193.356 209.147 190.336C205.279 188.724 201.859 186.145 198.184 184.088C184.714 176.55 170.311 172.327 154.586 171.962C146.685 171.778 138.715 170.961 130.946 169.557C119.332 167.457 108.109 167.34 96.521 170.277C83.0262 173.697 79.5882 171.434 74.9357 158.479C73.1509 153.509 72.2283 148.263 70.6211 143.228C64.1013 122.8 47.8786 112.835 25.9662 115.813C20.5334 116.551 15.1891 117.873 9.75661 118.615C-3.59353 120.436 -15.8518 118.027 -26.0807 109.094C-34.7093 101.559 -43.8108 95.5255 -55.7955 93.1941C-65.9418 91.2205 -67.2833 86.2109 -61.5909 77.8442C-54.9156 68.0326 -44.0022 63.0376 -33.5293 59.0412C-10.9786 50.4362 6.07623 36.7214 18.3415 16.8235C21.5464 11.624 26.2007 3.37381 33.1077 6.24384C40.6983 9.39751 35.4808 17.4217 34.0715 23.3297C27.0643 52.7004 39.4063 69.7627 70.5139 73.2019C82.1125 74.4842 93.4262 76.4703 104.203 81.0159C108.66 82.8956 113.366 84.6593 118.136 85.3586C153.813 90.5885 199.407 69.3 217.685 38.5394C225.097 26.0649 234.015 15.3301 247.484 8.66681C251.664 6.59899 256.301 3.0785 261.107 6.43616C266.625 10.2908 262.371 15.0313 260.863 19.0669C256.338 31.1798 251.375 43.1426 246.583 55.1639Z" fill="#E8E4DE"/>
    <path d="M-55.6873 92.7082L-55.7883 93.1619L-55.6873 92.7082C-60.7301 91.7273 -63.3549 90.0293 -64.1551 87.7467C-64.9632 85.4412 -64.0094 82.2822 -61.173 78.1132L-61.5909 77.8442L-61.1729 78.1132C-54.5962 68.4463 -43.8254 63.4978 -33.355 59.5023C-10.7035 50.8588 6.44419 37.0724 18.7718 17.0732C18.9134 16.8436 19.0573 16.6089 19.2036 16.3701C20.73 13.8803 22.5243 10.9534 24.6872 8.85626C25.8665 7.71277 27.1273 6.84554 28.4798 6.427C29.8193 6.01247 31.2822 6.02717 32.9027 6.70052C34.7056 7.4496 35.6958 8.46219 36.1934 9.6145C36.6978 10.7823 36.7249 12.1591 36.4668 13.6828C36.2086 15.2065 35.6749 16.826 35.1057 18.4598C35.03 18.6769 34.9537 18.8945 34.8773 19.1121C34.3848 20.5156 33.8917 21.9208 33.5802 23.2265C30.0583 37.9883 31.3748 49.7603 37.587 58.2838C43.7975 66.8049 54.8191 71.9663 70.4469 73.694C82.0276 74.9743 93.2847 76.9538 103.996 81.4715C108.459 83.354 113.214 85.1394 118.051 85.8485C136.011 88.4812 156.432 84.4378 174.645 75.8914C192.858 67.3452 208.916 54.2709 218.119 38.782C225.506 26.3495 234.36 15.7089 247.704 9.10811C248.324 8.8012 248.969 8.45459 249.615 8.10786C250.055 7.87132 250.496 7.63474 250.928 7.41069C252.018 6.84671 253.108 6.33405 254.206 5.9882C256.378 5.30393 258.565 5.27394 260.809 6.84165C262.124 7.76029 262.816 8.70181 263.129 9.63271C263.444 10.5663 263.396 11.5448 263.131 12.5713C262.863 13.6038 262.383 14.6554 261.859 15.7262C261.766 15.9166 261.671 16.1081 261.576 16.3002C261.145 17.1711 260.707 18.054 260.39 18.9051C257.137 27.6111 253.659 36.2367 250.179 44.8693C248.822 48.2353 247.464 51.6023 246.12 54.9756C243.27 60.8868 240.725 66.9161 238.185 72.9304C237.078 75.5522 235.973 78.1711 234.844 80.7761C231.117 89.3745 227.125 97.8456 221.962 105.872C216.355 114.59 212.676 123.604 211.82 132.86C210.963 142.122 212.936 151.595 218.583 161.216C222.552 167.977 222.08 175.728 221.493 183.27C221.209 186.921 219.857 189.237 217.835 190.324C215.798 191.42 212.909 191.361 209.352 189.879C207.455 189.089 205.66 188.057 203.867 186.957C203.348 186.639 202.828 186.313 202.305 185.986C201.034 185.192 199.751 184.39 198.441 183.657C184.906 176.082 170.422 171.834 154.609 171.467C146.735 171.284 138.791 170.469 131.048 169.07C119.378 166.96 108.079 166.839 96.4045 169.797C89.6498 171.509 85.6058 171.737 82.6702 170.087C79.7206 168.43 77.7449 164.801 75.4121 158.305C74.5281 155.844 73.8561 153.31 73.2015 150.748C73.1255 150.45 73.0497 150.152 72.9739 149.854C72.398 147.591 71.8178 145.31 71.1031 143.071C67.8144 132.767 62.0655 125.065 54.34 120.322C46.6148 115.578 36.9584 113.82 25.9073 115.322C23.1748 115.693 20.4668 116.211 17.7748 116.726L17.7618 116.729C15.0696 117.244 12.3933 117.756 9.69749 118.124C-3.54075 119.93 -15.6426 117.54 -25.7408 108.721C-34.4 101.159 -43.5795 95.0635 -55.6873 92.7082Z" stroke="black" stroke-opacity="0.41"/>
    <path d="M29.2416 541.913C16.5652 532.129 16.9478 513.176 9.84781 499.233C-9.9633 460.327 -48.604 435.539 -75.1827 401.718C-82.1701 392.827 -90.2428 384.727 -96.847 375.563C-99.5913 371.754 -104.117 367.951 -92.2781 357.271C-81.5874 347.628 -72.4493 346.146 -63.8161 344.388C-57.6436 343.131 -51.9273 342.676 -46.6706 342.627C-23.9981 342.42 1.64319 337.06 32.7854 323.841C63.0673 310.987 82.5034 311.322 97.473 318.989C117.083 329.033 129.334 344.386 140.244 360.83C150.087 375.668 163.481 387.454 183.762 393.766C192.843 396.592 200.074 400.792 198.085 411.547C190.029 455.09 205.415 484.203 224.941 509.834C253.2 546.927 273.336 589.723 301.556 626.781C310.503 638.529 316.513 652.532 333.604 658.139C338.209 659.65 340.27 663.8 341.709 667.906C350.178 692.098 361.81 713.871 387.832 725.157C392.1 727.008 393.49 731.517 395.302 735.411C398.57 742.432 387.61 750.158 377.1 754.667C359.3 762.304 345.041 764.26 338.181 757.917C333.967 754.023 330.336 749.616 327.667 744.596C320.181 730.514 306.237 722.313 283.952 720.583C253.142 718.19 234.374 704.331 221.155 687.355C201.908 662.64 172.11 646.78 144.444 629.176C121.048 614.292 108.586 590.946 82.3863 578.334C62.032 568.537 37.6381 561.936 29.2416 541.913Z" fill="#E8E4DE"/>
    <path d="M29.7068 541.725L29.6558 541.603L29.5509 541.522C23.3427 536.731 20.3061 529.676 17.9352 521.99C17.291 519.901 16.6954 517.762 16.0968 515.612C14.5065 509.9 12.8955 504.113 10.2976 499.011C0.353803 479.483 -14.3081 463.513 -29.7738 448.219C-33.1732 444.857 -36.6104 441.529 -40.0452 438.203C-52.2542 426.381 -64.4338 414.587 -74.7852 401.415C-77.7667 397.621 -80.9456 393.971 -84.1146 390.332C-84.6693 389.695 -85.2237 389.058 -85.7767 388.421C-89.493 384.14 -93.1492 379.839 -96.437 375.276C-96.6613 374.965 -96.8897 374.663 -97.1165 374.363C-97.6132 373.707 -98.1017 373.061 -98.5209 372.351C-99.1174 371.341 -99.5304 370.262 -99.5279 368.997C-99.523 366.456 -97.8382 362.961 -91.9375 357.638C-81.8419 348.531 -73.1712 346.783 -64.9039 345.115C-64.5058 345.035 -64.1086 344.955 -63.7123 344.874C-57.5771 343.624 -51.8938 343.172 -46.6637 343.124C-23.9108 342.915 1.79665 337.536 32.9861 324.297C63.1977 311.473 82.4617 311.86 97.2424 319.43L97.473 318.989L97.2424 319.43C116.735 329.413 128.928 344.678 139.823 361.101C149.72 376.02 163.204 387.887 183.612 394.239C188.139 395.648 192.112 397.375 194.714 400.028C197.28 402.645 198.559 406.215 197.589 411.456C189.499 455.189 204.969 484.442 224.539 510.131C238.65 528.653 250.735 548.602 262.831 568.574L262.867 568.632C274.946 588.577 287.039 608.542 301.154 627.078C303.026 629.536 304.769 632.093 306.521 634.664C306.852 635.15 307.184 635.638 307.517 636.125C309.607 639.178 311.743 642.223 314.139 645.078C318.937 650.797 324.786 655.769 333.446 658.61C337.804 660.039 339.798 663.971 341.233 668.066C349.715 692.296 361.41 714.24 387.631 725.612L387.832 725.157L387.631 725.612C389.634 726.48 390.979 727.977 392.055 729.769C392.822 731.047 393.432 732.435 394.049 733.839C394.309 734.431 394.57 735.026 394.845 735.616C396.331 738.81 394.641 742.27 391.022 745.618C387.435 748.937 382.125 751.969 376.897 754.212C368.022 758.02 360.061 760.397 353.486 761.04C346.902 761.685 341.8 760.585 338.524 757.556C334.344 753.691 330.751 749.328 328.112 744.367C320.523 730.09 306.392 721.828 283.989 720.088C253.344 717.708 234.7 703.936 221.554 687.054C205.44 666.363 181.955 651.853 158.582 637.411C153.936 634.541 149.294 631.673 144.715 628.76C134.422 622.211 126.257 614.018 118.052 605.784C116.978 604.707 115.904 603.629 114.824 602.554C105.504 593.276 95.7878 584.234 82.6056 577.888C78.6159 575.968 74.4695 574.169 70.3292 572.373C69.1774 571.873 68.0261 571.374 66.8787 570.872C61.6002 568.564 56.3991 566.202 51.5752 563.526C41.9263 558.172 33.8423 551.587 29.7068 541.725Z" stroke="black" stroke-opacity="0.41"/>
    <path d="M515.766 -231.418C542.657 -220.844 561.33 -212.669 580.568 -206.168C600.782 -199.337 617.906 -187.678 627.607 -169.759C667.596 -95.8847 740.074 -65.5357 811.027 -33.5842C866.566 -8.57479 925.349 7.70518 983.771 24.5127C1042.87 41.5163 1094.31 74.5905 1148.3 102.101C1163.49 109.838 1178.17 118.826 1194.24 124.688C1273.53 153.618 1349.85 189.901 1429.49 218.142C1460.5 229.14 1491.99 237.497 1523.56 245.49C1567.79 256.687 1594.58 283.392 1604.32 326.466C1612.6 363.056 1627.72 396.553 1645.14 429.665C1670.55 477.951 1666.45 490.973 1619.26 518.557C1603.04 528.041 1588.88 539.173 1575.86 552.583C1557.19 571.791 1535.01 580.331 1508.52 566.596C1468.66 545.92 1425.49 543.168 1381.76 539.967C1329.01 536.105 1276.8 526.723 1227.53 505.769C1171.56 481.961 1110.34 474.362 1055.09 447.425C1022.82 431.689 986.868 441.035 954.258 449.461C890.788 465.861 839.779 441.511 796.67 401.091C766.451 372.758 735.454 348.34 696.63 334.902C654.776 320.415 624.286 293.258 600.673 257.27C586.033 234.957 569.939 215.009 543.492 204.425C516.716 193.71 490.843 185.694 462.083 195.973C427.361 208.384 414.329 194.079 415.536 156.885C415.735 150.743 416.498 144.59 417.467 138.519C423.136 102.983 409.649 75.442 381.35 53.7094C356.475 34.6052 335.327 12.2088 317.94 -13.9981C276.525 -76.4214 282.689 -176.991 331.786 -233.631C353.137 -258.264 380.459 -264.57 411.698 -260.644C450.736 -255.738 487.294 -242.222 515.766 -231.418Z" fill="#E8E4DE"/>
    <path d="M515.585 -230.951C524.372 -227.496 532.286 -224.295 539.631 -221.324C554.744 -215.212 567.452 -210.072 580.407 -205.694C600.544 -198.89 617.545 -187.296 627.167 -169.521C665.724 -98.2922 734.419 -67.4428 802.712 -36.7735C805.416 -35.559 808.12 -34.3448 810.821 -33.1284C862.989 -9.63723 918.013 6.15622 972.874 21.9027C976.461 22.9323 980.048 23.9617 983.632 24.993C1027.57 37.6326 1067.24 59.1541 1106.94 80.6878C1120.59 88.0926 1134.24 95.4989 1148.07 102.546C1152.34 104.718 1156.57 106.995 1160.81 109.275C1171.63 115.092 1182.5 120.937 1194.06 125.157C1231.86 138.948 1268.98 154.41 1306.12 169.88C1307.93 170.631 1309.73 171.383 1311.54 172.135C1350.48 188.351 1389.49 204.487 1429.32 218.613C1460.36 229.619 1491.86 237.981 1523.44 245.975C1545.49 251.555 1563.15 260.993 1576.52 274.377C1589.89 287.761 1598.98 305.116 1603.83 326.576C1612.12 363.229 1627.27 396.771 1644.7 429.898C1651.05 441.963 1655.54 451.794 1657.97 460.186C1660.41 468.572 1660.78 475.485 1658.94 481.733C1657.11 487.982 1653.03 493.629 1646.45 499.446C1639.87 505.267 1630.8 511.233 1619.01 518.125C1602.75 527.633 1588.56 538.793 1575.5 552.235C1566.21 561.798 1556.07 568.669 1545 571.458C1533.94 574.244 1521.9 572.97 1508.75 566.152C1469.67 545.883 1427.43 542.799 1384.72 539.681C1383.74 539.61 1382.77 539.539 1381.8 539.468C1329.08 535.608 1276.92 526.235 1227.73 505.309C1202.12 494.417 1175.42 486.914 1148.72 479.414C1146.21 478.707 1143.69 477.999 1141.18 477.29C1111.97 469.047 1082.89 460.423 1055.31 446.976C1022.95 431.197 986.938 440.501 954.452 448.895L954.134 448.977C890.887 465.319 840.047 441.077 797.012 400.727C766.777 372.378 735.719 347.903 696.794 334.43C655.064 319.986 624.656 292.91 601.091 256.996C586.438 234.663 570.273 214.604 543.678 203.961C516.893 193.242 490.864 185.156 461.915 195.503C444.591 201.695 432.9 201.137 425.67 194.658C418.404 188.147 415.433 175.486 416.036 156.901L415.555 156.886L416.036 156.901C416.234 150.788 416.994 144.658 417.961 138.598C420.809 120.745 418.847 104.877 412.604 90.736C406.363 76.5987 395.855 64.2177 381.655 53.313C356.822 34.2412 335.712 11.885 318.357 -14.2745C297.721 -45.378 288.925 -86.0128 291.42 -125.952C293.916 -165.892 307.701 -205.083 332.164 -233.303C353.376 -257.776 380.51 -264.06 411.636 -260.148C450.606 -255.25 487.112 -241.757 515.585 -230.951Z" stroke="black" stroke-opacity="0.41"/>
    <path d="M415.828 227.231C412.562 227.252 409.221 227.062 407.882 223.747C406.513 220.357 406.812 216.934 409.543 214.077C412.074 211.43 415.15 210.558 418.856 212.018C422.596 213.492 426.148 215.307 429.004 217.936C431.803 220.514 431.157 223.478 427.523 224.871C423.825 226.288 419.913 227.224 415.828 227.231Z" fill="#E8E4DE"/>
    <path d="M415.827 226.731L415.825 226.731C414.188 226.742 412.612 226.696 411.287 226.265C409.994 225.844 408.951 225.059 408.346 223.559L407.883 223.746L408.346 223.559C407.038 220.321 407.331 217.114 409.905 214.422C411.119 213.153 412.439 212.334 413.874 211.994C415.307 211.655 416.897 211.784 418.672 212.483L418.672 212.483C422.388 213.947 425.875 215.735 428.665 218.303C429.988 219.522 430.403 220.739 430.187 221.742C429.97 222.753 429.072 223.741 427.344 224.404L427.523 224.871L427.344 224.404C423.686 225.806 419.836 226.724 415.827 226.731Z" stroke="black" stroke-opacity="0.41"/>
    </g>
    <defs>
    <clipPath id="clip0_240_6113">
    <rect width="1072" height="557" fill="white"/>
    </clipPath>
    </defs>
</svg>