<svg preserveAspectRatio="none" width="939" height="638" viewBox="0 0 939 638" fill="none" xmlns="http://www.w3.org/2000/svg">
    <g clip-path="url(#clip0_232_6013)">
    <rect width="939" height="638" fill="#E8E3DD"/>
    <path d="M135.601 572.983C103.845 536.057 68.3598 505.019 39.9321 463.03C9.35984 417.872 -28.8109 392.288 -78.3251 404.846C-96.2569 409.395 -113.295 400.981 -129.434 392.671C-145.504 384.397 -147.755 368.776 -136.214 352.27C-130.055 343.461 -122.071 336.707 -115.065 328.809C-89.3813 299.857 -70.3555 265.451 -58.9159 224.078C-53.1679 203.288 -45.9783 182.884 -37.637 163.543C-25.1663 134.629 -17.3152 104.969 -15.9324 71.5985C-14.3219 32.7368 -7.02158 25.652 24.6038 24.9514C36.7367 24.6829 48.8911 26.9483 61.0474 27.2095C110.363 28.27 143.242 -5.80184 151.52 -66.5899C153.572 -81.6612 154.28 -97.0229 156.326 -112.096C161.353 -149.137 174.94 -179.483 201.496 -198.586C223.897 -214.701 243.317 -233.418 256.549 -263.108C267.751 -288.244 279.671 -287.301 294.212 -264.688C311.265 -238.171 314.862 -204.74 316.563 -173.375C320.224 -105.839 338.835 -48.2879 374.278 2.11565C383.54 15.2863 398.527 35.0414 387.546 50.781C375.479 68.0786 361.369 47.0329 349.335 37.9878C289.512 -6.98088 243.656 10.423 215.053 89.8329C204.388 119.441 192.369 147.662 175.086 172.16C167.94 182.289 160.879 193.188 156.115 205.209C120.484 295.129 136.439 435.172 191.694 511.279C214.102 542.142 231.667 575.437 237.202 617.145C238.92 630.088 243.522 645.548 232.89 655.278C220.685 666.448 213.142 650.907 205.29 643.284C181.725 620.401 158.785 596.492 135.601 572.983Z" fill="#E8E4DE"/>
    <path d="M135.883 572.575C124.823 559.715 113.307 547.564 101.803 535.426C96.7859 530.132 91.7711 524.841 86.7979 519.494C70.4092 501.877 54.4535 483.644 40.2642 462.686C24.9449 440.058 7.70268 422.305 -11.9356 411.789C-31.5794 401.27 -53.5937 398.005 -78.4329 404.305C-96.2143 408.816 -113.127 400.481 -129.282 392.163C-137.237 388.067 -141.658 382.215 -142.745 375.474C-143.835 368.709 -141.605 360.84 -135.875 352.644C-132.818 348.271 -129.302 344.401 -125.665 340.629C-124.604 339.528 -123.531 338.435 -122.456 337.339C-119.856 334.689 -117.244 332.027 -114.76 329.226C-89.0289 300.221 -69.9615 265.743 -58.4971 224.279C-52.7566 203.517 -45.5762 183.139 -37.2453 163.822C-24.7518 134.855 -16.8776 105.119 -15.4908 71.6532C-14.6853 52.2154 -12.4549 40.9416 -6.61549 34.3825C-0.766503 27.8126 8.80393 25.8537 24.6328 25.5031C30.6768 25.3693 36.7305 25.8667 42.805 26.4321C43.5109 26.4978 44.2171 26.5644 44.9236 26.6311C50.2911 27.1375 55.6758 27.6455 61.061 27.7612C85.8041 28.2933 106.457 20.011 121.965 3.93428C137.473 -12.1421 147.803 -35.9772 151.956 -66.4724C152.984 -74.0253 153.676 -81.6485 154.365 -89.2546L154.369 -89.303C155.057 -96.8978 155.743 -104.475 156.762 -111.979C161.773 -148.901 175.304 -179.095 201.731 -198.105C224.162 -214.241 243.654 -233.016 256.938 -262.823C262.527 -275.363 268.203 -281.176 274.154 -281.252C280.122 -281.329 286.612 -275.646 293.872 -264.356C310.825 -237.993 314.421 -204.728 316.122 -173.364C319.789 -105.711 338.437 -48.0373 373.952 2.46823C374.362 3.05105 374.782 3.64599 375.211 4.25219C379.641 10.5207 384.922 17.9932 388.112 25.7189C389.858 29.947 390.961 34.212 390.966 38.3635C390.971 42.5009 389.888 46.5647 387.207 50.4075C384.247 54.6501 381.198 56.4963 378.121 56.8014C375.03 57.1079 371.848 55.8658 368.617 53.7756C365.384 51.6851 362.143 48.7739 358.939 45.7981C358.51 45.4001 358.082 45.0008 357.654 44.6023C354.899 42.0326 352.176 39.4928 349.55 37.5187C319.576 14.9873 293.019 8.02137 270.338 16.7403C247.662 25.4578 228.976 49.8102 214.648 89.587C203.99 119.178 191.991 147.343 174.748 171.785C167.598 181.919 160.506 192.86 155.717 204.946C137.855 250.023 132.933 307.629 139.385 363.477C145.836 419.324 163.668 473.479 191.373 511.638C213.75 542.46 231.251 575.654 236.766 617.21C237.02 619.124 237.34 621.112 237.663 623.117C237.885 624.499 238.109 625.889 238.314 627.27C238.819 630.681 239.218 634.093 239.235 637.394C239.271 643.968 237.8 650.085 232.618 654.828C229.621 657.571 226.946 658.642 224.512 658.637C222.076 658.632 219.828 657.549 217.68 655.865C215.526 654.178 213.495 651.905 211.494 649.552C211.132 649.127 210.772 648.699 210.411 648.271C208.789 646.346 207.176 644.432 205.551 642.854C188.606 626.4 171.986 609.417 155.361 592.428C148.876 585.801 142.39 579.173 135.883 572.575Z" stroke="black" stroke-opacity="0.41"/>
    <path d="M424.596 840.549C429.962 809.11 434.578 787.118 437.281 764.83C440.12 741.41 448.798 720.445 465.799 706.399C535.886 648.496 552.325 563.404 570.812 479.672C585.281 414.13 589.712 346.714 594.786 279.591C599.92 211.686 623.907 149.084 641.389 84.7561C646.305 66.6636 652.669 48.8816 655.388 30.1849C668.81 -62.0866 690.74 -152.523 703.348 -245.046C708.258 -281.077 710.244 -317.114 711.822 -353.183C714.031 -403.708 736.649 -438.131 780.507 -457.042C817.764 -473.106 850.207 -496.073 881.733 -521.477C927.704 -558.521 942.517 -556.531 982.379 -510.21C996.085 -494.284 1011.09 -480.936 1028.29 -469.258C1052.92 -452.53 1066.93 -429.899 1058.1 -398.3C1044.8 -350.731 1051.38 -302.988 1057.6 -254.545C1065.1 -196.103 1066.59 -137.198 1055.07 -79.2972C1041.98 -13.5113 1047.35 54.9024 1030.76 120.5C1021.07 158.818 1038.97 196.344 1055.16 230.396C1086.67 296.674 1071.9 357.135 1038.23 412.035C1014.63 450.52 995.387 489.105 989.592 534.146C983.345 582.702 961.059 621.259 927.827 653.985C907.223 674.275 889.464 695.704 883.989 726.66C878.447 758.001 875.589 787.837 892.907 817.322C913.815 852.921 901.409 869.918 861.418 875.728C854.814 876.689 848.074 877.034 841.377 877.138C802.173 877.75 775.73 897.782 758.756 932.902C743.835 963.772 724.575 991.197 700.417 1015.24C642.874 1072.51 534.102 1085.05 462.785 1042.2C431.769 1023.57 419.012 994.9 416.319 959.978C412.954 916.34 419.331 873.762 424.596 840.549Z" fill="#E8E4DE"/>
    <path d="M463.028 1041.77L462.788 1042.2L463.028 1041.77C432.197 1023.25 419.498 994.762 416.814 959.956C413.455 916.385 419.821 873.863 425.086 840.648C426.84 830.373 428.514 821.103 430.068 812.499C433.266 794.797 435.954 779.916 437.774 764.907C440.604 741.569 449.244 720.737 466.12 706.794C533.684 650.975 551.488 569.942 569.192 489.361C569.893 486.172 570.593 482.983 571.297 479.797C584.887 418.238 589.627 355.03 594.352 292.005C594.661 287.884 594.97 283.764 595.282 279.646C599.098 229.162 613.341 181.632 627.591 134.081C632.49 117.732 637.391 101.38 641.868 84.9045C643.249 79.822 644.748 74.7547 646.249 69.6783C650.077 56.7344 653.922 43.7324 655.88 30.2742C662.278 -13.711 670.61 -57.2804 678.946 -100.871C679.351 -102.989 679.756 -105.107 680.161 -107.225C688.897 -152.932 697.534 -198.684 703.84 -244.961C708.754 -281.016 710.741 -317.074 712.318 -353.145C713.42 -378.336 719.607 -399.481 730.962 -416.679C742.316 -433.875 758.857 -447.153 780.715 -456.578C818.03 -472.667 850.511 -495.664 882.05 -521.079C893.537 -530.336 903.051 -537.131 911.481 -541.407C919.907 -545.68 927.217 -547.42 934.307 -546.605C941.398 -545.791 948.335 -542.415 956.003 -536.329C963.675 -530.24 972.048 -521.462 982.009 -509.887C995.745 -493.925 1010.79 -480.547 1028.02 -468.843C1040.29 -460.512 1049.87 -450.738 1055.29 -439.153C1060.71 -427.579 1062.01 -414.149 1057.62 -398.452C1044.59 -351.828 1050.6 -305.046 1056.69 -257.726L1057.1 -254.496C1064.6 -196.087 1066.09 -137.241 1054.58 -79.4121C1048.59 -49.318 1046.46 -18.6764 1044.34 11.9573C1044.14 14.845 1043.93 17.7326 1043.73 20.6197C1041.36 54.1468 1038.56 87.609 1030.28 120.36C1020.57 158.764 1038.43 196.349 1054.56 230.278L1054.71 230.602C1086.12 296.669 1071.43 356.944 1037.81 411.76C1014.2 450.263 994.908 488.919 989.099 534.065C982.869 582.492 960.645 620.953 927.475 653.619C906.853 673.926 889.003 695.443 883.5 726.555C877.956 757.906 875.061 787.908 892.482 817.569C902.916 835.334 904.912 848.253 899.57 857.43C894.204 866.647 881.315 872.327 861.332 875.23L861.418 875.728L861.332 875.23C854.757 876.186 848.04 876.531 841.353 876.635C821.665 876.942 805.158 882.128 791.44 891.662C777.725 901.194 766.822 915.053 758.308 932.669C743.41 963.492 724.182 990.872 700.063 1014.87C671.382 1043.42 629.91 1060.83 586.695 1065.76C543.479 1070.69 498.572 1063.13 463.028 1041.77Z" stroke="black" stroke-opacity="0.41"/>
    <path d="M364.239 264.325C361.379 264.35 358.452 264.129 357.279 260.272C356.08 256.329 356.342 252.347 358.735 249.024C360.951 245.945 363.645 244.931 366.891 246.629C370.168 248.343 373.28 250.454 375.78 253.512C378.233 256.512 377.666 259.959 374.483 261.58C371.244 263.229 367.818 264.317 364.239 264.325Z" fill="#E8E4DE"/>
    <path d="M364.238 263.825L364.235 263.825C362.802 263.838 361.453 263.783 360.325 263.296C359.236 262.825 358.305 261.928 357.758 260.127L357.279 260.272L357.758 260.127C356.592 256.294 356.86 252.483 359.14 249.316C360.212 247.828 361.359 246.895 362.577 246.512C363.781 246.134 365.128 246.271 366.66 247.072L366.66 247.072C369.903 248.769 372.951 250.842 375.393 253.829C376.549 255.243 376.957 256.714 376.752 257.983C376.547 259.245 375.725 260.387 374.256 261.134L374.456 261.527L374.256 261.134C371.063 262.76 367.715 263.818 364.238 263.825Z" stroke="black" stroke-opacity="0.41"/>
    </g>
    <defs>
    <clipPath id="clip0_232_6013">
    <rect width="939" height="638" fill="white"/>
    </clipPath>
    </defs>
</svg>