<svg preserveAspectRatio="none" width="974" height="516" viewBox="0 0 974 516" fill="none" xmlns="http://www.w3.org/2000/svg">
    <g clip-path="url(#clip0_240_6135)">
    <rect width="974" height="516" fill="#E8E3DD"/>
    <path d="M58.0971 48.2711C98.7138 43.3897 138.91 36.1322 179.805 33.3372C223.785 30.3317 263.062 21.1494 290.788 1.17336C300.829 -6.06115 316.835 -10.6896 332.169 -15.014C347.437 -19.32 356.918 -17.3734 357.348 -10.3235C357.578 -6.56098 355.509 -2.50636 354.692 1.39958C351.701 15.7172 356.064 28.6079 369.189 40.0058C375.784 45.733 381.19 51.9094 385.264 58.3115C391.354 67.8827 401.003 75.9281 416.992 82.3074C435.611 89.7366 434.179 93.6044 412.754 105.073C404.534 109.472 395.013 113.433 386.508 117.748C352.004 135.252 346.657 153.053 371.815 166.74C378.053 170.133 385.364 173.095 391.607 176.486C406.948 184.82 412.996 195.044 404.404 207.939C397.156 218.815 393.283 229.082 399.242 239.063C404.287 247.513 395.599 251.622 374.105 252.852C348.899 254.294 329.45 249.691 312.356 244.771C275.55 234.178 233.516 230.707 183.517 234.536C170.453 235.536 150.102 237.429 149.675 230.715C149.204 223.337 169.606 221.986 182.486 219.264C246.516 205.732 269.263 186.214 248.65 161.953C240.964 152.907 234.916 143.62 234.382 133.101C234.162 128.752 233.492 124.298 230.67 120.469C209.562 91.8345 127.48 72.8679 50.7892 79.2715C19.6884 81.8685 -9.31093 82.2996 -34.297 76.9321C-42.0507 75.2667 -53.0688 74.1918 -50.6856 68.6624C-47.9497 62.3146 -34.8654 62.3486 -25.5878 60.8763C2.25886 56.4568 30.1957 52.4431 58.0971 48.2711Z" fill="#E8E4DE"/>
    <path d="M374.067 252.354L374.105 252.852L374.067 252.354C348.944 253.792 329.558 249.205 312.488 244.292C275.609 233.678 233.512 230.207 183.47 234.039C182.892 234.083 182.3 234.129 181.696 234.176C175.467 234.659 168.009 235.239 161.866 235.02C158.492 234.9 155.561 234.54 153.463 233.815C151.346 233.083 150.262 232.054 150.175 230.693C150.075 229.125 151.065 227.798 153.053 226.626C155.036 225.458 157.885 224.526 161.2 223.728C164.507 222.932 168.234 222.28 171.951 221.655C172.45 221.572 172.948 221.488 173.445 221.405C176.648 220.87 179.8 220.343 182.598 219.751C214.619 212.984 236.425 204.703 247.642 195.01C253.263 190.153 256.271 184.901 256.513 179.27C256.755 173.646 254.231 167.756 249.03 161.635C241.358 152.605 235.408 143.428 234.883 133.085C234.661 128.713 233.987 124.133 231.073 120.179C225.725 112.924 216.552 106.325 204.655 100.603C192.75 94.8778 178.077 90.0117 161.678 86.2454C128.88 78.7129 89.1349 75.5687 50.7382 78.7747C19.6494 81.3707 -9.28913 81.7961 -34.1996 76.4449C-35.3716 76.1932 -36.6042 75.957 -37.8469 75.7189C-40.7747 75.1579 -43.7586 74.5861 -46.1377 73.775C-47.833 73.1969 -49.1235 72.5263 -49.8507 71.7232C-50.2055 71.3314 -50.4177 70.9175 -50.4882 70.4687C-50.5591 70.0181 -50.4936 69.491 -50.2241 68.8657C-49.5991 67.4156 -48.371 66.2982 -46.676 65.4176C-44.9786 64.5358 -42.848 63.9101 -40.481 63.4296C-38.1168 62.9496 -35.5441 62.6194 -32.9707 62.3164C-32.5035 62.2614 -32.0359 62.2073 -31.5697 62.1533C-29.4759 61.9108 -27.4076 61.6713 -25.5 61.3686C-5.47342 58.1902 14.5986 55.2219 34.6735 52.2532C42.5072 51.0947 50.3414 49.9362 58.1735 48.7651C72.332 47.0634 86.4277 45.0751 100.514 43.0881C126.876 39.3694 153.205 35.6555 179.848 33.8346C223.862 30.8268 263.25 21.6351 291.087 1.57885C301.043 -5.59414 316.952 -10.2018 332.314 -14.5343C339.918 -16.6788 346.017 -17.2458 350.236 -16.4377C352.342 -16.0346 353.944 -15.2959 355.04 -14.2752C356.126 -13.2639 356.747 -11.9452 356.848 -10.3022C356.957 -8.51374 356.52 -6.63028 355.932 -4.66592C355.764 -4.10581 355.583 -3.53672 355.4 -2.96274C354.953 -1.5544 354.495 -0.11666 354.201 1.28976C352.689 8.52729 353.033 15.4249 355.426 21.9606C357.819 28.4941 362.249 34.635 368.863 40.3787C375.425 46.0775 380.798 52.2171 384.842 58.5725C391.001 68.2533 400.747 76.3596 416.812 82.7696C421.464 84.6257 424.811 86.2403 426.903 87.7843C428.999 89.3317 429.691 90.6929 429.399 92.0638C429.245 92.7853 428.81 93.5758 428.039 94.4577C427.268 95.3379 426.184 96.2845 424.771 97.3189C421.945 99.3885 417.864 101.767 412.51 104.633C408.414 106.825 403.99 108.91 399.519 110.99C398.999 111.232 398.478 111.473 397.958 111.715C394.004 113.551 390.04 115.392 386.274 117.303C377.625 121.69 370.784 126.106 365.783 130.486C360.786 134.862 357.596 139.229 356.308 143.525C355.012 147.844 355.65 152.05 358.225 156.036C360.786 160.003 365.251 163.733 371.581 167.176C374.715 168.881 378.117 170.477 381.502 172.064L381.519 172.072C384.904 173.659 388.272 175.239 391.372 176.923C399.008 181.071 404.237 185.642 406.523 190.7C408.79 195.714 408.212 201.313 403.984 207.658C396.727 218.549 392.688 229.054 398.812 239.311C400.036 241.36 400.373 243.057 399.982 244.469C399.591 245.882 398.435 247.139 396.384 248.224C392.261 250.406 384.816 251.739 374.067 252.354Z" stroke="black" stroke-opacity="0.41"/>
    <path d="M142.443 628.54C132.408 639.284 114.399 637.819 100.727 643.335C62.5778 658.727 36.7809 691.775 3.08213 713.514C-5.77708 719.229 -13.9456 725.96 -23.0431 731.316C-26.8233 733.542 -30.7015 737.36 -40.1828 726.151C-48.7446 716.03 -49.6302 707.78 -50.8084 699.964C-51.6505 694.376 -51.7554 689.242 -51.5002 684.544C-50.3982 664.279 -54.028 641.057 -64.8186 612.455C-75.3112 584.644 -73.8784 567.302 -65.7262 554.384C-55.0474 537.462 -39.7388 527.428 -23.4689 518.657C-8.78879 510.743 3.19112 499.477 10.3586 481.735C13.5683 473.79 17.9779 467.58 28.0964 469.994C69.0593 479.769 97.6382 467.75 123.141 451.827C160.05 428.781 201.918 413.329 238.791 390.317C250.48 383.021 264.147 378.481 270.461 363.547C272.162 359.523 276.229 357.927 280.217 356.886C303.718 350.754 325.099 341.653 337.327 319.077C339.333 315.374 343.702 314.399 347.511 313.011C354.377 310.509 361.099 320.756 364.787 330.412C371.031 346.764 372.076 359.617 365.648 365.37C361.701 368.903 357.301 371.885 352.372 373.972C338.546 379.825 329.945 391.795 327.021 411.599C322.979 438.979 308.718 454.923 291.811 465.725C267.194 481.454 250.397 507.132 232.065 530.803C216.563 550.819 193.638 560.568 180.139 583.225C169.651 600.826 161.973 622.226 142.443 628.54Z" fill="#E8E4DE"/>
    <path d="M142.272 628.075L142.147 628.116L142.06 628.209C137.151 633.465 130.272 635.759 122.825 637.421C120.802 637.872 118.734 638.277 116.655 638.684C111.128 639.767 105.527 640.864 100.522 642.883C81.37 650.61 65.3339 662.763 49.8965 675.673C46.5029 678.511 43.1393 681.384 39.778 684.255C27.8316 694.461 15.9152 704.64 2.79222 713.106C-0.988438 715.545 -4.64411 718.168 -8.2878 720.783C-8.92563 721.241 -9.5631 721.699 -10.2008 722.155C-14.4866 725.221 -18.7876 728.232 -23.3156 730.898C-23.6256 731.08 -23.9264 731.267 -24.2246 731.451C-24.877 731.856 -25.5174 732.253 -26.2157 732.585C-27.2089 733.057 -28.2541 733.36 -29.4504 733.283C-31.8494 733.129 -35.0666 731.43 -39.7891 725.847C-47.8648 716.301 -49.03 708.463 -50.1425 700.981C-50.196 700.621 -50.2495 700.261 -50.3035 699.903C-51.14 694.352 -51.2445 689.251 -50.9908 684.578C-49.8844 664.235 -53.5304 640.946 -64.3393 612.296C-74.8041 584.558 -73.3308 567.387 -65.2886 554.644C-54.6775 537.829 -39.4609 527.844 -23.2129 519.085C-8.44827 511.126 3.61917 499.78 10.8347 481.919C12.4342 477.96 14.3023 474.519 16.97 472.356C19.6012 470.224 23.0619 469.295 27.982 470.469C69.1371 480.29 97.8622 468.2 123.425 452.239C141.853 440.732 161.524 431.119 181.218 421.496L181.276 421.468C200.942 411.859 220.631 402.24 239.074 390.729C241.52 389.202 244.052 387.797 246.598 386.385C247.08 386.117 247.562 385.85 248.045 385.581C251.07 383.895 254.09 382.167 256.944 380.196C262.663 376.247 267.732 371.313 270.934 363.739C272.538 359.944 276.382 358.397 280.36 357.359C303.898 351.216 325.454 342.067 337.781 319.309L337.327 319.077L337.781 319.309C338.719 317.578 340.214 316.468 341.979 315.614C343.237 315.005 344.59 314.544 345.961 314.076C346.539 313.879 347.12 313.68 347.699 313.47C350.803 312.338 353.98 314.038 356.951 317.462C359.898 320.856 362.475 325.773 364.308 330.573C367.421 338.724 369.224 345.971 369.46 351.875C369.695 357.787 368.358 362.269 365.296 365.009C361.382 368.513 357.027 371.462 352.159 373.524C338.132 379.461 329.457 391.603 326.516 411.522C322.498 438.743 308.333 454.575 291.522 465.316C270.91 478.487 255.757 498.61 240.678 518.633C237.681 522.613 234.687 526.589 231.653 530.506C224.835 539.31 216.575 546.117 208.271 552.959C207.185 553.854 206.098 554.75 205.013 555.651C195.652 563.426 186.489 571.572 179.695 582.976C177.639 586.426 175.689 590.025 173.743 593.617C173.202 594.616 172.661 595.615 172.118 596.609C169.619 601.188 167.075 605.693 164.253 609.842C158.608 618.142 151.884 624.968 142.272 628.075Z" stroke="black" stroke-opacity="0.41"/>
    <path d="M461.459 613.212C470.54 588.801 477.645 571.806 483.121 554.399C488.875 536.109 499.385 520.301 516.198 510.742C585.513 471.337 611.765 405.445 639.616 340.82C661.415 290.234 674.707 237.238 688.52 184.534C702.494 131.215 732.196 83.8359 756.457 34.4897C763.28 20.6108 771.324 7.11127 776.312 -7.4488C800.931 -79.3055 832.726 -148.924 856.67 -221.055C865.995 -249.144 872.766 -277.509 879.185 -305.936C888.176 -345.756 912.744 -370.94 953.698 -381.875C988.488 -391.165 1020.04 -406.367 1051.13 -423.584C1096.46 -448.69 1109.12 -445.747 1137.47 -405.378C1147.21 -391.498 1158.46 -379.54 1171.85 -368.703C1191.02 -353.181 1200.1 -333.962 1187.97 -309.744C1169.71 -273.288 1168.78 -234.861 1167.44 -195.912C1165.83 -148.925 1158.9 -102.125 1140.74 -57.3204C1120.11 -6.41424 1115.25 48.2766 1091.59 98.7106C1077.77 128.171 1088.16 159.549 1097.54 188.017C1115.8 243.425 1094.46 289.959 1057.37 330.344C1031.38 358.654 1009.17 387.445 997.818 422.591C985.575 460.479 960.72 488.967 927.117 511.828C906.283 526.001 887.775 541.338 878.667 565.355C869.446 589.672 862.779 613.043 873.786 637.998C887.075 668.126 873.863 680.446 838.118 681.361C832.215 681.513 826.279 681.165 820.414 680.63C786.083 677.5 760.185 690.93 740.449 717.185C723.101 740.264 702.445 760.213 677.982 777.03C619.714 817.088 522.946 816.992 466.636 776.478C442.146 758.859 435.01 734.968 437.538 707.056C440.698 672.177 452.218 639.037 461.459 613.212Z" fill="#E8E4DE"/>
    <path d="M466.953 776.08L466.636 776.478L466.953 776.08C442.628 758.579 435.528 734.864 438.045 707.075C441.199 672.266 452.697 639.18 461.938 613.354C464.905 605.38 467.662 598.192 470.222 591.52C475.49 577.791 479.919 566.245 483.608 554.52C489.335 536.314 499.778 520.635 516.441 511.162C583.292 473.157 610.182 410.574 636.906 348.378C637.965 345.914 639.024 343.451 640.084 340.989C660.562 293.469 673.538 243.827 686.474 194.338C687.32 191.102 688.165 187.866 689.013 184.632C699.398 145.006 718.474 108.685 737.565 72.3337C744.131 59.8317 750.698 47.3263 756.915 34.6817C758.829 30.7882 760.845 26.9153 762.865 23.0342C768.019 13.1306 773.201 3.17345 776.795 -7.31578C788.53 -41.5669 801.896 -75.3105 815.27 -109.073C815.92 -110.713 816.57 -112.353 817.219 -113.994C831.238 -149.396 845.178 -184.846 857.155 -220.926C866.488 -249.04 873.263 -277.425 879.682 -305.854C884.161 -325.691 892.512 -341.851 904.817 -354.41C917.122 -366.968 933.41 -375.955 953.811 -381.403C988.664 -390.709 1020.26 -405.936 1051.36 -423.162C1062.69 -429.434 1071.94 -433.937 1079.9 -436.544C1087.85 -439.149 1094.47 -439.852 1100.53 -438.555C1106.6 -437.258 1112.19 -433.949 1118.03 -428.426C1123.87 -422.898 1129.96 -415.177 1137.04 -405.09C1146.81 -391.173 1158.09 -379.185 1171.51 -368.321C1181.06 -360.593 1188.05 -351.977 1191.16 -342.319C1194.27 -332.675 1193.53 -321.945 1187.51 -309.94C1169.6 -274.186 1168.32 -236.55 1167.02 -198.511L1166.93 -195.905C1165.32 -148.951 1158.4 -102.212 1140.27 -57.4792C1130.83 -34.1845 1124.69 -10.1002 1118.55 13.9691C1117.97 16.2387 1117.39 18.5081 1116.81 20.7767C1110.06 47.1177 1102.93 73.3575 1091.13 98.5269C1077.25 128.093 1087.62 159.547 1096.96 187.894L1097.06 188.186C1115.24 243.373 1094.01 289.725 1057 330.029C1030.99 358.356 1008.72 387.214 997.332 422.466C985.132 460.223 960.364 488.622 926.837 511.432C905.984 525.618 887.358 541.033 878.19 565.207C868.964 589.536 862.228 613.07 873.316 638.208C879.947 653.242 879.859 663.605 873.958 670.328C870.993 673.705 866.512 676.23 860.515 677.967C854.518 679.704 847.041 680.642 838.129 680.871L838.118 681.361L838.129 680.871C832.255 681.022 826.341 680.675 820.487 680.141C803.239 678.569 788.083 681.155 774.752 687.449C761.424 693.743 749.95 703.728 740.042 716.91C722.728 739.944 702.114 759.852 677.7 776.635C648.677 796.588 610.032 806.559 571.601 806.478C533.17 806.397 495.009 796.265 466.953 776.08Z" stroke="black" stroke-opacity="0.41"/>
    <path d="M377.816 213.384C374.849 213.404 371.813 213.226 370.596 210.112C369.353 206.929 369.624 203.714 372.106 201.032C374.405 198.546 377.2 197.727 380.567 199.098C383.965 200.482 387.193 202.186 389.787 204.655C392.331 207.076 391.743 209.859 388.442 211.168C385.082 212.499 381.528 213.378 377.816 213.384Z" fill="#E8E4DE"/>
    <path d="M377.815 212.884L377.813 212.884C376.325 212.894 374.902 212.851 373.709 212.449C372.549 212.059 371.61 211.332 371.062 209.93L370.596 210.112L371.062 209.93C369.875 206.893 370.143 203.889 372.473 201.371C373.573 200.182 374.764 199.42 376.055 199.104C377.342 198.79 378.774 198.908 380.378 199.561L380.378 199.561C383.751 200.935 386.913 202.61 389.442 205.017C390.637 206.154 391.012 207.29 390.817 208.227C390.621 209.168 389.815 210.086 388.257 210.703L388.442 211.168L388.257 210.703C384.939 212.018 381.448 212.878 377.815 212.884ZM380.567 199.098L380.567 199.098L380.567 199.098Z" stroke="black" stroke-opacity="0.41"/>
    </g>
    <defs>
    <clipPath id="clip0_240_6135">
    <rect width="974" height="516" fill="white"/>
    </clipPath>
    </defs>
</svg>