<svg preserveAspectRatio="none" width="959" height="570" viewBox="0 0 959 570" fill="none" xmlns="http://www.w3.org/2000/svg">
    <g clip-path="url(#clip0_232_5989)">
    <rect width="959" height="570" fill="#E8E3DD"/>
    <path d="M244.211 357.514C210.956 326.625 176.194 297.818 144.327 265.18C110.056 230.077 74.4948 203.447 39.1012 194.446C26.2833 191.186 11.1157 180.978 -3.33156 171.119C-17.717 161.301 -23.126 151.851 -18.0632 146.367C-15.3611 143.441 -10.7642 142.252 -7.19216 140.107C5.90105 132.248 12.5593 119.19 11.7079 99.7885C11.28 90.0396 12.0587 80.9717 13.9788 72.8701C16.8498 60.7586 15.9687 46.7368 9.20813 28.5512C1.33515 7.37311 5.32545 5.77824 29.6499 15.615C38.9819 19.3891 48.9252 24.5848 58.3996 28.6622C96.8359 45.2037 114.3 36.8127 106.443 5.54788C104.496 -2.20365 101.439 -10.5522 99.4853 -18.3068C94.6856 -37.3634 98.0851 -49.9131 114.165 -51.991C127.73 -53.7439 138.375 -57.9146 141.653 -70.2129C144.428 -80.6249 153.88 -76.2436 170.446 -58.9146C189.874 -38.5932 200.505 -18.7634 209.183 -0.700366C227.867 38.1934 255.784 76.347 295.058 115.953C305.321 126.303 321.562 142.18 316.753 147.417C311.468 153.173 295.603 136.858 284.162 127.916C227.286 83.4597 195.862 78.3471 192.349 113.436C191.039 126.519 188.355 138.389 180.722 146.479C177.565 149.823 174.655 153.625 173.787 158.797C167.299 197.481 212.519 280.836 273.165 341.201C297.76 365.681 319.175 389.952 333.249 415.031C337.617 422.813 344.809 432.934 338.859 434.929C332.029 437.218 322.541 426.101 314.673 419.305C291.055 398.907 267.68 378.138 244.211 357.514Z" fill="#E8E4DE"/>
    <path d="M142.113 -70.0593L141.653 -70.2129L142.113 -70.0593C142.787 -72.5869 143.836 -74.108 145.203 -74.8047C146.574 -75.504 148.386 -75.4352 150.717 -74.4798C155.393 -72.5624 161.834 -67.2082 170.118 -58.5425L170.446 -58.9146L170.118 -58.5424C189.49 -38.2789 200.093 -18.507 208.759 -0.465874C227.476 38.4951 255.433 76.696 294.737 116.332C295.191 116.79 295.657 117.259 296.131 117.737C301.029 122.666 306.896 128.57 311.2 133.94C313.563 136.89 315.425 139.642 316.401 141.957C317.388 144.298 317.392 145.978 316.411 147.046C315.282 148.275 313.536 148.402 311.181 147.561C308.84 146.726 306.05 144.982 303.03 142.749C300.016 140.522 296.807 137.834 293.628 135.137C293.201 134.775 292.776 134.413 292.351 134.052C289.613 131.725 286.921 129.437 284.437 127.495C255.994 105.264 233.835 92.8005 218.305 90.3314C210.525 89.0945 204.341 90.3554 199.876 94.2344C195.414 98.1106 192.759 104.522 191.873 113.37C190.566 126.434 187.893 138.145 180.385 146.103C177.211 149.465 174.211 153.36 173.317 158.694C171.674 168.488 173.31 181.049 177.595 195.282C181.884 209.527 188.84 225.495 197.89 242.128C215.99 275.394 242.488 311.365 272.846 341.583C297.432 366.055 318.805 390.284 332.842 415.297C333.501 416.47 334.216 417.684 334.937 418.909C336.639 421.801 338.377 424.752 339.49 427.362C340.283 429.223 340.714 430.814 340.63 432.024C340.589 432.614 340.426 433.098 340.134 433.486C339.84 433.875 339.388 434.204 338.711 434.431C337.141 434.957 335.384 434.725 333.47 433.924C331.555 433.121 329.523 431.765 327.433 430.105C325.345 428.448 323.221 426.504 321.118 424.543C320.737 424.186 320.355 423.829 319.975 423.473C318.268 421.874 316.583 420.296 314.966 418.9C297.98 404.229 281.121 389.368 264.26 374.505C257.68 368.705 251.101 362.905 244.513 357.116C232.923 346.35 221.158 335.845 209.4 325.346C187.394 305.696 165.414 286.069 144.652 264.803C110.359 229.679 74.7205 202.972 39.2018 193.939C26.48 190.704 11.388 180.555 -3.08286 170.679C-10.2513 165.787 -15.1289 161.021 -17.5891 156.843C-18.8174 154.757 -19.4234 152.851 -19.4419 151.171C-19.4602 149.507 -18.9037 148.019 -17.7226 146.74C-16.4364 145.347 -14.6802 144.349 -12.7536 143.421C-12.2037 143.156 -11.6376 142.896 -11.0669 142.634C-9.66765 141.991 -8.24042 141.336 -6.95521 140.565C-0.33914 136.593 4.66959 131.296 7.91223 124.524C11.1536 117.754 12.6145 109.545 12.1857 99.7733C11.7598 90.0691 12.5355 81.0539 14.4422 73.0089C17.3446 60.7648 16.4404 46.6265 9.65115 28.3637C7.68384 23.0717 6.47889 19.056 6.13456 16.1549C5.78903 13.2435 6.32668 11.6621 7.59035 10.9105C8.2567 10.5142 9.18145 10.3078 10.4205 10.3219C11.6567 10.336 13.1713 10.5689 14.9897 11.016C18.6274 11.9106 23.4116 13.6444 29.4906 16.1027C34.1431 17.9843 38.9511 20.2216 43.7881 22.5021C44.3501 22.7671 44.9126 23.0326 45.4752 23.2983C49.7506 25.3171 54.0365 27.3409 58.2309 29.146C67.8616 33.2907 76.1989 35.8827 83.1691 36.9414C90.1333 37.9991 95.7745 37.5326 99.9813 35.5094C104.212 33.4746 106.953 29.8827 108.12 24.8108C109.281 19.765 108.88 13.279 106.905 5.41923C105.926 1.52561 104.67 -2.51461 103.419 -6.53698L103.413 -6.5585C102.162 -10.5798 100.917 -14.583 99.9465 -18.4358C97.5559 -27.9271 97.2394 -35.6871 99.4361 -41.3045C101.613 -46.8705 106.307 -50.45 114.231 -51.4739C127.806 -53.2281 138.746 -57.4291 142.113 -70.0593Z" stroke="black" stroke-opacity="0.41"/>
    <path d="M140.249 887.67C130.369 899.45 112.637 897.844 99.1753 903.892C61.6138 920.768 36.2142 957.002 3.03439 980.836C-5.68839 987.102 -13.7311 994.482 -22.6885 1000.36C-26.4105 1002.8 -30.229 1006.98 -39.5643 994.692C-47.9942 983.596 -48.8662 974.55 -50.0262 965.98C-50.8553 959.853 -50.9586 954.225 -50.7074 949.074C-49.6223 926.855 -53.1962 901.394 -63.8206 870.035C-74.1516 839.542 -72.7409 820.528 -64.7143 806.365C-54.1999 787.812 -39.1271 776.81 -23.1077 767.193C-8.6537 758.517 3.14171 746.164 10.1988 726.712C13.3591 718.001 17.7008 711.192 27.6634 713.839C67.9955 724.556 96.1343 711.379 121.244 693.92C157.585 668.652 198.809 651.711 235.113 626.48C246.623 618.481 260.078 613.504 266.295 597.13C267.97 592.717 271.975 590.968 275.902 589.826C299.04 583.102 320.092 573.124 332.132 548.372C334.107 544.312 338.408 543.244 342.158 541.722C348.919 538.977 355.538 550.213 359.169 560.799C365.317 578.728 366.346 592.82 360.017 599.128C356.131 603.001 351.798 606.271 346.945 608.56C333.332 614.976 324.863 628.101 321.985 649.814C318.005 679.834 303.963 697.315 287.316 709.159C263.079 726.404 246.541 754.557 228.491 780.51C213.227 802.456 190.656 813.145 177.364 837.986C167.038 857.285 159.478 880.747 140.249 887.67Z" fill="#E8E4DE"/>
    <path d="M140.099 887.186L139.974 887.231L139.886 887.336C135.055 893.096 128.285 895.61 120.953 897.432C118.962 897.927 116.926 898.371 114.879 898.818C109.437 900.004 103.921 901.207 98.9917 903.422C80.1328 911.895 64.3423 925.221 49.1425 939.375C45.801 942.487 42.489 945.637 39.1795 948.785C27.417 959.975 15.685 971.135 2.76494 980.416C-0.958102 983.09 -4.55805 985.967 -8.14588 988.835C-8.7736 989.337 -9.40095 989.838 -10.0285 990.338C-14.2483 993.699 -18.4826 997 -22.9403 999.923C-23.2462 1000.12 -23.5426 1000.33 -23.8365 1000.53C-24.4784 1000.97 -25.1078 1001.41 -25.7947 1001.77C-26.7706 1002.29 -27.7987 1002.62 -28.9778 1002.54C-31.3492 1002.37 -34.5264 1000.49 -39.1803 994.368C-47.1405 983.89 -48.2893 975.285 -49.3846 967.08C-49.4374 966.685 -49.49 966.291 -49.5433 965.897C-50.3673 959.808 -50.4702 954.213 -50.2203 949.089C-49.1312 926.789 -52.72 901.261 -63.3607 869.854C-73.6682 839.431 -72.2163 820.595 -64.2965 806.62L-64.595 806.438L-64.2965 806.62C-53.8496 788.185 -38.8693 777.24 -22.8726 767.636C-8.33213 758.908 3.55022 746.466 10.6541 726.885C12.2296 722.542 14.069 718.77 16.6936 716.401C19.2791 714.068 22.6838 713.047 27.5341 714.335C68.0507 725.102 96.3348 711.847 121.507 694.345C139.652 681.729 159.019 671.19 178.409 660.64L178.466 660.609C197.83 650.074 217.216 639.526 235.376 626.905C237.784 625.232 240.277 623.692 242.783 622.143C243.258 621.85 243.733 621.556 244.208 621.261C247.186 619.413 250.16 617.518 252.972 615.356C258.604 611.025 263.595 605.614 266.748 597.31C268.327 593.151 272.106 591.458 276.022 590.319C299.2 583.584 320.427 573.552 332.566 548.597L332.132 548.372L332.566 548.597C333.488 546.699 334.959 545.484 336.695 544.549C337.933 543.882 339.264 543.377 340.613 542.864C341.182 542.648 341.755 542.43 342.326 542.199C345.382 540.958 348.522 542.825 351.457 546.591C354.364 550.32 356.904 555.717 358.709 560.982C361.775 569.922 363.552 577.873 363.784 584.352C364.017 590.843 362.697 595.759 359.685 598.76C355.832 602.601 351.545 605.834 346.753 608.094C332.936 614.606 324.396 627.924 321.502 649.755C317.544 679.607 303.596 696.964 287.049 708.737C266.752 723.179 251.83 745.244 236.984 767.197C234.033 771.561 231.085 775.92 228.099 780.214C221.386 789.866 213.254 797.328 205.078 804.83C204.009 805.812 202.938 806.794 201.87 807.782C192.653 816.307 183.631 825.239 176.94 837.743C174.916 841.526 172.997 845.471 171.081 849.409C170.548 850.505 170.015 851.6 169.48 852.691C167.02 857.711 164.515 862.65 161.736 867.199C156.178 876.299 149.559 883.78 140.099 887.186Z" stroke="black" stroke-opacity="0.41"/>
    <path d="M473.827 372.302C476.707 361.395 479.017 353.782 480.681 346.03C482.43 337.884 486.098 330.705 492.391 326.101C518.335 307.118 526.787 277.635 535.895 248.665C543.025 225.988 546.775 202.472 550.736 179.069C554.743 155.394 565.038 133.922 573.16 111.725C575.444 105.482 578.214 99.3749 579.765 92.8803C587.42 60.8283 597.931 29.5748 605.315 -2.58034C608.191 -15.1021 610.064 -27.6802 611.799 -40.2767C614.228 -57.9216 623.121 -69.556 638.783 -75.3705C652.087 -80.3099 663.969 -87.7539 675.617 -96.068C692.603 -108.191 697.615 -107.223 709.748 -90.2776C713.919 -84.4512 718.623 -79.5038 724.131 -75.1005C732.021 -68.7934 736.075 -60.6147 732.002 -49.7158C725.869 -33.309 726.544 -16.4764 727.073 0.594423C727.711 21.1888 726.272 41.835 720.406 61.8908C713.741 84.678 713.32 108.724 705.461 131.381C700.87 144.616 705.767 158.08 710.189 170.296C718.797 194.074 711.734 214.966 698.375 233.566C689.011 246.604 681.136 259.757 677.658 275.416C673.91 292.298 664.994 305.385 652.518 316.231C644.783 322.955 637.986 330.13 635.085 340.865C632.147 351.734 630.18 362.125 635.141 372.764C641.131 385.608 636.315 391.33 622.414 392.63C620.118 392.845 617.796 392.843 615.496 392.756C602.036 392.251 592.308 398.778 585.327 410.76C579.19 421.292 571.68 430.538 562.602 438.51C540.98 457.5 503.276 459.893 480.245 443.589C470.229 436.499 466.804 426.228 467.037 413.954C467.327 398.618 470.923 383.831 473.827 372.302Z" fill="#E8E4DE"/>
    <path d="M622.365 392.132L622.41 392.591L622.365 392.132C620.099 392.344 617.801 392.342 615.512 392.256C608.692 392 602.797 393.526 597.719 396.648C592.646 399.767 588.416 404.462 584.895 410.505C578.784 420.993 571.308 430.197 562.272 438.133C551.558 447.543 536.836 452.856 521.918 453.785C507 454.713 491.935 451.253 480.531 443.18L480.531 443.18C470.693 436.216 467.305 426.133 467.536 413.967C467.825 398.695 471.406 383.96 474.31 372.43C475.249 368.874 476.128 365.664 476.945 362.683C478.629 356.54 480.047 351.367 481.169 346.138C482.902 338.068 486.523 331.016 492.687 326.506C517.783 308.144 526.597 280.012 535.324 252.156C535.673 251.043 536.022 249.93 536.371 248.818C543.075 227.497 546.795 205.439 550.5 183.47C550.742 182.031 550.985 180.593 551.228 179.156C554.201 161.59 560.639 145.258 567.094 128.884C569.317 123.245 571.542 117.601 573.629 111.9C574.265 110.16 574.943 108.422 575.624 106.677C577.368 102.209 579.129 97.697 580.251 92.9994C583.898 77.7271 588.195 62.6351 592.496 47.5283C592.704 46.7951 592.913 46.0618 593.122 45.3285C597.629 29.4902 602.106 13.6264 605.802 -2.46546C608.683 -15.0105 610.559 -27.6073 612.294 -40.2056C613.499 -48.9604 616.303 -56.1939 620.725 -61.9531C625.145 -67.7106 631.203 -72.0215 638.958 -74.9008C652.323 -79.8626 664.246 -87.3359 675.908 -95.6594C680.149 -98.686 683.613 -100.874 686.614 -102.202C689.609 -103.528 692.104 -103.98 694.42 -103.58C696.737 -103.18 698.946 -101.916 701.346 -99.6706C703.749 -97.4218 706.314 -94.2177 709.343 -89.9869C713.541 -84.1228 718.277 -79.1417 723.821 -74.7095C727.719 -71.5935 730.633 -68.0439 732.082 -63.9641C733.528 -59.8943 733.535 -55.2474 731.534 -49.8938C725.502 -33.7538 726.018 -17.2125 726.537 -0.554215L726.574 0.607303C727.211 21.1695 725.773 41.7589 719.927 61.7475C716.872 72.1914 715.125 82.8971 713.383 93.5776C713.219 94.5856 713.054 95.5934 712.889 96.6007C710.968 108.293 708.903 119.931 704.99 131.214C700.351 144.585 705.267 158.163 709.661 170.302L709.72 170.465C718.251 194.032 711.272 214.751 697.97 233.271C688.593 246.327 680.67 259.546 677.171 275.305C673.45 292.065 664.6 305.063 652.19 315.852C644.436 322.593 637.544 329.849 634.603 340.732C631.664 351.608 629.645 362.158 634.689 372.974C637.666 379.357 637.86 383.773 635.825 386.741C633.768 389.741 629.298 391.483 622.365 392.132Z" stroke="black" stroke-opacity="0.41"/>
    <path d="M371.997 233.956C369.076 233.978 366.087 233.782 364.889 230.369C363.665 226.878 363.931 223.354 366.375 220.412C368.639 217.688 371.39 216.789 374.706 218.293C378.052 219.81 381.23 221.679 383.784 224.385C386.289 227.04 385.71 230.091 382.459 231.526C379.151 232.985 375.652 233.949 371.997 233.956Z" fill="#E8E4DE"/>
    <path d="M371.996 233.456L371.994 233.456C370.529 233.467 369.138 233.419 367.972 232.982C366.844 232.56 365.909 231.765 365.361 230.203L364.889 230.369L365.361 230.203C364.182 226.842 364.451 223.511 366.76 220.732C367.847 219.424 369.019 218.592 370.278 218.25C371.53 217.908 372.927 218.035 374.499 218.748L374.499 218.748C377.816 220.252 380.929 222.088 383.42 224.729C384.597 225.975 384.989 227.247 384.789 228.321C384.589 229.392 383.775 230.399 382.257 231.068L382.459 231.526L382.257 231.068C378.993 232.509 375.563 233.449 371.996 233.456Z" stroke="black" stroke-opacity="0.41"/>
    </g>
    <defs>
    <clipPath id="clip0_232_5989">
    <rect width="959" height="570" fill="white"/>
    </clipPath>
    </defs>
</svg>