<svg preserveAspectRatio="none" width="842" height="622" viewBox="0 0 842 622" fill="none" xmlns="http://www.w3.org/2000/svg">
    <g clip-path="url(#clip0_240_6124)">
    <rect width="842" height="622" fill="#E8E3DD"/>
    <path d="M480.514 139.524C469.732 128.925 457.683 120.016 448.03 107.965C437.649 95.0032 424.688 87.66 407.875 91.2646C401.787 92.5702 396.001 90.1552 390.521 87.7701C385.065 85.3952 384.3 80.9115 388.219 76.174C390.31 73.6457 393.021 71.7072 395.4 69.4402C404.121 61.1303 410.581 51.2553 414.466 39.3801C416.418 33.4131 418.859 27.5567 421.691 22.0054C425.926 13.7063 428.591 5.19334 429.061 -4.38467C429.608 -15.5388 432.087 -17.5723 442.825 -17.7734C446.945 -17.8504 451.072 -17.2002 455.2 -17.1253C471.945 -16.8209 483.109 -26.6002 485.92 -44.0477C486.617 -48.3735 486.857 -52.7826 487.552 -57.1089C489.259 -67.7406 493.872 -76.4505 502.889 -81.9335C510.496 -86.5586 517.09 -91.931 521.583 -100.453C525.386 -107.667 529.434 -107.397 534.371 -100.906C540.161 -93.2951 541.383 -83.6998 541.96 -74.6974C543.204 -55.3131 549.523 -38.7946 561.558 -24.3277C564.703 -20.5475 569.792 -14.8773 566.063 -10.3597C561.966 -5.39493 557.175 -11.4355 553.089 -14.0316C532.775 -26.9386 517.205 -21.9433 507.493 0.848989C503.871 9.34724 499.79 17.4471 493.922 24.4787C491.495 27.386 489.098 30.514 487.48 33.9644C475.382 59.7735 480.799 99.9689 499.561 121.813C507.17 130.672 513.134 140.228 515.013 152.199C515.597 155.914 517.159 160.351 513.549 163.144C509.405 166.35 506.844 161.889 504.178 159.701C496.176 153.134 488.387 146.271 480.514 139.524Z" fill="#E8E4DE"/>
    <path d="M533.996 -100.586L534.332 -100.872L533.996 -100.586C539.681 -93.1129 540.9 -83.6674 541.477 -74.6692C542.727 -55.1751 549.087 -38.5464 561.197 -23.9895C561.336 -23.8228 561.478 -23.653 561.622 -23.4804C563.131 -21.6747 564.896 -19.5634 565.959 -17.3878C566.538 -16.2029 566.888 -15.0365 566.89 -13.9225C566.892 -12.8233 566.554 -11.7408 565.697 -10.7022C564.74 -9.54229 563.781 -9.06637 562.837 -8.98725C561.875 -8.90662 560.86 -9.23197 559.789 -9.81763C558.718 -10.403 557.637 -11.2225 556.548 -12.0773C556.404 -12.1906 556.259 -12.3047 556.114 -12.4189C555.18 -13.1554 554.24 -13.8963 553.333 -14.4727C543.113 -20.9665 533.995 -23.0147 526.168 -20.4712C518.341 -17.9277 511.937 -10.8357 507.051 0.631353C503.437 9.11254 499.379 17.1586 493.557 24.1341C491.126 27.047 488.693 30.2164 487.046 33.7299C480.943 46.7484 479.27 63.3599 481.468 79.4429C483.666 95.5262 489.743 111.141 499.205 122.157C506.783 130.98 512.678 140.446 514.536 152.277C514.622 152.829 514.734 153.414 514.844 153.997C514.92 154.393 514.995 154.788 515.062 155.171C515.233 156.144 515.364 157.099 515.369 158.014C515.381 159.819 514.91 161.45 513.261 162.726C512.288 163.479 511.447 163.753 510.706 163.751C509.96 163.75 509.258 163.471 508.561 163.009C507.86 162.545 507.191 161.914 506.512 161.239C506.392 161.12 506.272 160.999 506.151 160.877C505.599 160.324 505.037 159.76 504.471 159.295C498.72 154.575 493.082 149.705 487.438 144.83C485.238 142.93 483.037 141.029 480.828 139.135C477.07 135.442 473.152 131.947 469.246 128.464C467.544 126.945 465.844 125.429 464.16 123.899C458.6 118.846 453.198 113.628 448.397 107.634C437.935 94.5714 424.806 87.108 407.773 90.7598C401.849 92.03 396.199 89.6873 390.7 87.2939C388.054 86.1424 386.667 84.5354 386.329 82.7622C385.989 80.9756 386.673 78.8276 388.585 76.517C389.605 75.2839 390.781 74.1878 392.013 73.1081C392.369 72.7964 392.73 72.4849 393.094 72.1718C393.979 71.4087 394.876 70.6358 395.726 69.8257C404.502 61.4633 411.011 51.5175 414.924 39.555C416.867 33.6144 419.298 27.7831 422.118 22.2555C426.379 13.9044 429.071 5.31797 429.545 -4.35102C429.819 -9.93751 430.579 -13.0268 432.447 -14.8003C433.38 -15.6862 434.626 -16.2793 436.327 -16.6612C438.032 -17.0441 440.164 -17.2084 442.84 -17.2585C444.876 -17.2966 446.918 -17.155 448.98 -16.9928C449.219 -16.9739 449.459 -16.9548 449.699 -16.9357C451.52 -16.7904 453.359 -16.6438 455.198 -16.6103C463.663 -16.4565 470.757 -18.852 476.096 -23.5304C481.436 -28.2089 484.976 -35.1334 486.397 -43.9542C486.748 -46.1336 486.984 -48.3316 487.218 -50.5131L487.219 -50.5219C487.453 -52.7052 487.685 -54.8719 488.029 -57.0157C489.718 -67.5327 494.267 -76.0938 503.134 -81.4856C510.775 -86.1319 517.453 -91.5607 522.006 -100.196C523.892 -103.774 525.735 -105.284 527.563 -105.304C529.422 -105.324 531.537 -103.818 533.996 -100.586Z" stroke="black" stroke-opacity="0.41"/>
    <path d="M72.7151 361.248C69.0141 345.896 97.471 345.393 107.862 336.369C136.854 311.191 118.157 264.647 129.993 231.791C133.104 223.153 133.5 213.282 137.562 205.08C139.25 201.671 138.385 196.174 171.025 209.517C200.498 221.566 215.734 232.204 230.656 242.236C241.325 249.409 250.16 256.088 257.741 262.248C290.435 288.816 334.958 318.607 398.911 354.451C461.098 389.305 488.37 412.107 498.464 430.041C511.688 453.534 506.58 468.667 497.949 482.283C490.159 494.567 491.938 510.861 511.614 534.953C520.425 545.741 524.57 554.428 505.889 552.637C430.261 545.38 409.367 564.879 399.517 589.056C385.263 624.048 351.006 649.802 336.748 684.745C332.228 695.824 320.194 703.573 336.35 723.89C340.704 729.365 337.537 731.99 333.545 733.882C310.02 745.026 294.572 759.756 315.125 790.828C318.498 795.925 313.843 797.78 310.697 800.1C305.026 804.283 277.992 791.823 256.338 779.729C219.665 759.246 196.414 742.628 195.954 734.267C195.671 729.132 196.973 724.654 200.552 721.272C210.596 711.79 202.752 695.031 173.466 668.819C132.976 632.58 126.575 609.882 132.69 593.533C141.59 569.728 122.38 534 108.78 500.683C97.2785 472.509 113.855 456.727 94.9993 425.379C80.3503 401.026 55.2236 372.097 72.7151 361.248Z" fill="#E8E4DE"/>
    <path d="M72.978 361.679L73.2825 361.49L73.1968 361.135C72.3167 357.484 73.3366 354.748 75.5376 352.512C77.7714 350.242 81.224 348.488 85.1911 346.905C87.168 346.116 89.2568 345.375 91.3668 344.635L91.9997 344.414C93.8989 343.748 95.8075 343.079 97.6464 342.377C101.723 340.819 105.52 339.071 108.187 336.754C122.855 324.016 125.427 305.885 125.857 286.978C125.951 282.828 125.942 278.631 125.933 274.442C125.932 273.856 125.931 273.271 125.93 272.686C125.922 267.912 125.933 263.156 126.115 258.479C126.478 249.121 127.526 240.112 130.459 231.97C131.796 228.259 132.636 224.323 133.467 220.426C133.613 219.745 133.758 219.065 133.906 218.387C134.901 213.817 136.005 209.352 138.006 205.311C138.139 205.041 138.268 204.736 138.389 204.446C138.461 204.274 138.531 204.108 138.598 203.959C138.792 203.525 139.001 203.132 139.29 202.791C139.845 202.137 140.769 201.583 142.709 201.52C144.67 201.457 147.616 201.897 152.135 203.2C156.646 204.501 162.694 206.652 170.845 209.984C198.913 221.458 214.039 231.646 228.321 241.265C229.011 241.73 229.699 242.193 230.386 242.655C241.041 249.819 249.865 256.488 257.435 262.639C290.159 289.232 334.708 319.038 398.677 354.891C429.759 372.312 452.1 386.712 467.925 398.99C483.754 411.27 493.035 421.405 498.034 430.286C504.607 441.964 506.6 451.518 505.907 459.816C505.214 468.121 501.827 475.228 497.53 482.006C493.564 488.261 492.038 495.543 493.998 504.295C495.953 513.025 501.371 523.194 511.234 535.271C513.431 537.961 515.322 540.502 516.637 542.77C517.963 545.056 518.655 546.985 518.566 548.474C518.522 549.202 518.292 549.822 517.854 550.343C517.411 550.869 516.73 551.324 515.737 551.67C513.738 552.365 510.58 552.581 505.929 552.135C468.082 548.503 443.853 551.557 427.834 558.596C411.782 565.649 404.019 576.682 399.059 588.858C391.963 606.275 379.884 621.407 367.747 636.598L367.695 636.664C355.593 651.811 343.44 667.022 336.289 684.547C335.353 686.84 334.092 688.986 332.81 691.169C332.566 691.584 332.322 692 332.079 692.418C330.565 695.023 329.112 697.715 328.316 700.716C326.708 706.782 327.823 713.963 335.966 724.203C338.088 726.871 338.256 728.682 337.63 730.006C336.965 731.41 335.328 732.478 333.33 733.425C321.56 739 311.671 745.53 307.358 754.658C303.017 763.845 304.389 775.495 314.715 791.104L315.125 790.828L314.715 791.104C315.522 792.325 315.812 793.296 315.802 794.087C315.793 794.871 315.489 795.547 314.972 796.181C314.448 796.822 313.723 797.399 312.905 797.974C312.583 798.199 312.237 798.431 311.886 798.666C311.38 799.005 310.864 799.35 310.402 799.691L310.697 800.1L310.402 799.691C309.808 800.129 308.882 800.383 307.601 800.418C306.329 800.453 304.765 800.269 302.95 799.889C299.321 799.129 294.764 797.598 289.688 795.551C279.541 791.457 267.389 785.33 256.572 779.288C238.243 769.051 223.284 759.788 212.855 752.047C207.64 748.175 203.572 744.696 200.786 741.675C197.976 738.63 196.554 736.141 196.45 734.246L196.03 734.263L196.45 734.246C196.172 729.22 197.445 724.901 200.893 721.643C203.487 719.195 204.942 716.254 205.171 712.803C205.398 709.366 204.407 705.469 202.199 701.094C197.787 692.353 188.444 681.558 173.791 668.443C153.568 650.343 141.901 635.662 136.046 623.501C130.2 611.36 130.152 601.745 133.154 593.718C137.67 581.639 135.037 566.605 129.642 550.519C126.034 539.762 121.163 528.459 116.304 517.182C113.894 511.59 111.486 506.004 109.238 500.495C104.197 488.148 104.595 478.222 104.997 468.195C105.05 466.882 105.103 465.567 105.143 464.244C105.495 452.804 104.92 440.911 95.4217 425.121C92.5512 420.349 89.2783 415.4 86.0089 410.457C85.0991 409.081 84.1896 407.706 83.2891 406.335C79.1468 400.029 75.1934 393.811 72.2444 388.023C69.2904 382.225 67.3753 376.915 67.2537 372.414C67.1931 370.173 67.5779 368.145 68.4909 366.357C69.4032 364.57 70.8571 362.995 72.978 361.679Z" stroke="black" stroke-opacity="0.41"/>
    <path d="M779.535 747.591C773.981 736.538 770.511 728.471 766.044 721.065C761.351 713.283 760.098 703.923 764.635 693.286C783.338 649.435 769.227 618.773 756.452 587.699C746.452 563.376 731.143 542.437 716.218 521.33C701.12 499.977 696.454 472.778 688.216 447.625C685.898 440.551 684.357 433.001 680.827 426.612C663.409 395.081 650.555 360.754 632.681 329.469C625.721 317.286 617.353 306.242 608.781 295.348C596.774 280.089 598.738 261.454 614.924 238.95C628.672 219.833 638.322 200.628 646.901 181.086C659.41 152.59 667.044 147.377 698.181 145.02C708.887 144.21 719.553 142.156 730.836 138.773C746.999 133.929 759.586 134.91 763.516 147.361C769.431 166.104 784.941 177.142 800.46 188.519C819.183 202.244 835.135 218.448 844.576 239.443C855.302 263.297 875.582 280.693 884.577 305.86C889.831 320.562 908.142 324.267 924.73 327.653C957.014 334.244 965.559 357.234 963.58 386.017C962.193 406.193 962.925 424.699 971.791 439.795C981.349 456.069 980.613 475.752 973.108 498.047C968.455 511.869 965.464 524.905 970.84 535.863C976.284 546.956 982.628 556.573 998.577 558.217C1017.83 560.201 1016.27 569.886 998.553 587.148C995.628 589.999 992.478 592.727 989.287 595.371C970.605 610.844 963.08 626.872 964.007 643.503C964.822 658.123 962.66 673.453 957.27 689.731C944.43 728.505 895.403 774.526 850.049 790.15C830.325 796.945 816.777 793.753 806.45 784.852C793.545 773.731 785.596 759.11 779.535 747.591Z" fill="#E8E4DE"/>
    <path d="M806.761 784.441C793.932 773.385 786.019 758.842 779.958 747.323C778.151 743.727 776.562 740.441 775.085 737.386C772.037 731.084 769.468 725.769 766.451 720.768C761.839 713.121 760.608 703.947 765.07 693.484C783.159 651.074 770.696 620.898 758.359 591.024C757.869 589.839 757.38 588.655 756.893 587.47C747.483 564.584 733.388 544.691 719.361 524.896C718.442 523.598 717.523 522.301 716.606 521.003C709.098 510.386 704.176 498.303 700.099 485.711C698.107 479.557 696.318 473.289 694.528 467.011L694.404 466.577C692.572 460.157 690.733 453.732 688.67 447.432C688.015 445.433 687.43 443.423 686.842 441.402C686.385 439.833 685.927 438.257 685.432 436.676C684.312 433.092 683.032 429.57 681.243 426.331C672.947 411.313 665.686 395.657 658.415 379.98C658.062 379.22 657.71 378.459 657.357 377.699C649.732 361.267 642.042 344.845 633.093 329.182C626.114 316.965 617.727 305.897 609.154 295.002C603.223 287.465 600.761 279.127 601.757 269.902C602.756 260.656 607.237 250.464 615.298 239.255C629.079 220.095 638.747 200.85 647.333 181.29C653.585 167.048 658.57 158.75 665.804 153.682C673.047 148.607 682.62 146.716 698.192 145.537C708.934 144.724 719.632 142.664 730.945 139.273C738.999 136.859 746.099 135.917 751.65 137.09C757.166 138.256 761.153 141.507 763.06 147.548C768.895 166.037 783.972 177.081 799.101 188.164C799.46 188.427 799.819 188.689 800.178 188.952C818.867 202.652 834.749 218.798 844.142 239.687C849.065 250.636 855.99 260.228 862.888 269.782C863.54 270.684 864.191 271.586 864.841 272.489C872.377 282.967 879.657 293.558 884.128 306.066C886.819 313.598 892.844 318.271 900.206 321.482C907.521 324.673 916.234 326.451 924.474 328.134L924.619 328.163C940.666 331.439 950.75 338.774 956.593 348.804C962.445 358.848 964.086 371.668 963.101 386.003C961.713 406.198 962.431 424.848 971.381 440.087C980.831 456.177 980.135 475.675 972.657 497.89C968.007 511.703 964.93 524.948 970.413 536.122C973.141 541.68 976.119 546.924 980.444 550.982C984.78 555.05 990.445 557.902 998.509 558.733C1003.3 559.227 1006.73 560.195 1008.93 561.597C1011.1 562.981 1012.04 564.763 1011.95 566.955C1011.86 569.206 1010.68 571.988 1008.36 575.326C1006.05 578.652 1002.66 582.466 998.24 586.77C995.329 589.607 992.192 592.326 989.005 594.965C970.236 610.511 962.587 626.698 963.527 643.558C964.337 658.1 962.189 673.359 956.818 689.577C950.439 708.841 935.043 729.965 915.547 748.237C896.057 766.504 872.522 781.872 849.923 789.656L850.025 790.054L849.923 789.656C830.326 796.408 816.948 793.221 806.761 784.441Z" stroke="black" stroke-opacity="0.41"/>
    <path d="M310.872 190.696C308.431 190.714 305.933 190.555 304.932 187.772C303.909 184.927 304.132 182.055 306.174 179.657C308.066 177.436 310.365 176.704 313.136 177.929C315.932 179.166 318.588 180.689 320.722 182.895C322.816 185.059 322.332 187.546 319.615 188.716C316.851 189.905 313.926 190.691 310.872 190.696Z" fill="#E8E4DE"/>
    <path d="M310.871 190.196L310.869 190.196C309.644 190.205 308.494 190.166 307.534 189.815C306.61 189.477 305.85 188.847 305.403 187.603L304.934 187.772L305.403 187.603C304.427 184.891 304.652 182.216 306.555 179.981C307.455 178.925 308.42 178.259 309.454 177.984C310.482 177.711 311.632 177.811 312.934 178.387L312.934 178.387C315.702 179.611 318.292 181.102 320.363 183.243C321.333 184.246 321.641 185.251 321.482 186.084C321.322 186.915 320.671 187.717 319.418 188.256L319.608 188.699L319.418 188.256C316.696 189.427 313.84 190.191 310.871 190.196Z" stroke="black" stroke-opacity="0.41"/>
    </g>
    <defs>
    <clipPath id="clip0_240_6124">
    <rect width="842" height="622" fill="white"/>
    </clipPath>
    </defs>
</svg>