 <svg preserveAspectRatio="none" width="1029" height="572" viewBox="0 0 1029 572" fill="none" xmlns="http://www.w3.org/2000/svg">
    <g clip-path="url(#clip0_232_6048)">
    <rect width="1029" height="572" fill="#E8E3DD"/>
    <path d="M870.767 844.606C827.631 807.483 782.882 772.452 741.249 733.585C696.475 691.783 650.976 659.025 607.405 645.395C591.625 640.459 572.331 627.733 553.94 615.465C535.628 603.248 528.178 592.412 533.747 587.022C536.72 584.145 542.148 583.359 546.246 581.425C561.268 574.338 568.02 560.912 565.092 539.787C563.621 529.172 563.672 519.428 565.194 510.855C567.471 498.04 565.035 482.744 555.099 462.291C543.529 438.472 548.185 437.18 578.487 450.505C590.112 455.617 602.614 462.337 614.441 467.794C662.42 489.931 682.662 482.745 670.124 447.994C667.015 439.378 662.51 429.994 659.394 421.374C651.739 400.191 654.61 386.959 673.801 386.466C689.99 386.05 702.42 382.694 705.17 369.721C707.497 358.738 719.326 364.521 741.004 385.119C766.427 409.273 781.192 431.932 793.428 452.462C819.774 496.668 857.183 541.082 908.432 588.313C921.824 600.655 942.968 619.644 937.68 624.795C931.87 630.456 911.137 611.035 896.462 600.089C823.507 545.674 785.105 536.694 784.305 574.346C784.007 588.385 781.932 600.959 773.518 608.893C770.038 612.173 766.901 615.976 766.361 621.487C762.325 662.712 825.03 758.018 904.091 830.091C936.153 859.319 964.36 887.972 983.792 916.698C989.823 925.612 999.488 937.37 992.508 938.881C984.494 940.615 971.962 927.527 961.805 919.298C931.321 894.602 901.094 869.531 870.767 844.606Z" fill="#E8E4DE"/>
    <path d="M937.338 624.428L937.68 624.795L871.081 844.217C856.053 831.284 840.837 818.611 825.628 805.944C797.157 782.232 768.713 758.542 741.582 733.213C696.791 691.395 651.225 658.575 607.548 644.912C591.85 640.001 572.622 627.325 554.21 615.042C545.073 608.947 538.692 603.225 535.29 598.39C533.588 595.972 532.659 593.814 532.47 591.972C532.284 590.156 532.812 588.625 534.089 587.389C535.492 586.031 537.503 585.143 539.739 584.347C540.376 584.12 541.032 583.901 541.695 583.679C543.32 583.135 544.979 582.58 546.455 581.884C554.053 578.3 559.591 573.095 562.847 566.089C566.101 559.091 567.055 550.346 565.582 539.718C564.117 529.146 564.17 519.457 565.681 510.948C567.983 497.989 565.506 482.58 555.542 462.068C552.65 456.114 550.796 451.615 550.094 448.418C549.742 446.819 549.691 445.598 549.905 444.703C550.113 443.838 550.567 443.269 551.298 442.929C552.06 442.573 553.161 442.448 554.674 442.601C556.178 442.752 558.039 443.173 560.282 443.859C564.769 445.23 570.719 447.638 578.293 450.968C584.094 453.519 590.117 456.473 596.174 459.474C596.878 459.823 597.582 460.172 598.286 460.522C603.641 463.178 609.006 465.839 614.239 468.254C626.252 473.796 636.547 477.513 645.042 479.419C653.524 481.323 660.268 481.436 665.141 479.704C670.06 477.956 673.034 474.34 673.947 468.95C674.853 463.606 673.734 456.541 670.588 447.821C669.028 443.498 667.119 438.985 665.216 434.487L665.205 434.461C663.303 429.966 661.408 425.487 659.859 421.201C656.037 410.628 654.9 402.174 656.995 396.337C658.035 393.439 659.876 391.171 662.622 389.59C665.378 388.002 669.068 387.093 673.816 386.971C681.927 386.763 689.162 385.818 694.729 383.263C700.327 380.694 704.241 376.493 705.653 369.83C706.217 367.171 707.322 365.666 708.878 365.07C710.47 364.459 712.693 364.733 715.635 366.04C721.506 368.649 729.827 375.188 740.668 385.488C766.044 409.597 780.781 432.212 793.006 452.724C819.383 496.983 856.828 541.434 908.101 588.688C908.694 589.234 909.302 589.793 909.922 590.364C916.311 596.241 923.974 603.292 929.699 609.593C932.843 613.054 935.374 616.258 936.791 618.898C937.5 620.22 937.91 621.363 937.999 622.301C938.086 623.22 937.866 623.914 937.338 624.428Z" stroke="black" stroke-opacity="0.41"/>
    <path d="M293.273 683.552C306.665 691.925 308.72 711.28 317.303 724.591C341.25 761.732 381.429 782.126 411.209 813.236C419.038 821.415 427.805 828.651 435.302 837.157C438.417 840.691 443.238 843.997 433.263 856.364C424.255 867.531 415.691 870.189 407.647 873.065C401.895 875.122 396.478 876.303 391.449 877.013C369.759 880.075 345.884 888.758 317.744 906.138C290.381 923.037 271.722 925.139 256.404 919.21C236.337 911.445 222.641 897.345 210.09 881.965C198.766 868.088 184.43 857.766 164.198 853.885C155.139 852.147 147.676 848.779 148.207 837.572C150.359 792.205 131.902 764.482 109.924 740.828C78.1164 706.595 53.361 665.531 21.5961 631.33C11.5252 620.487 3.97879 606.978 -13.1074 603.415C-17.7116 602.455 -20.2166 598.486 -22.1187 594.484C-33.3223 570.906 -47.2462 550.188 -73.6127 541.962C-77.938 540.613 -79.845 536.195 -82.0785 532.456C-86.1054 525.715 -76.5948 516.467 -67.1043 510.553C-51.0309 500.537 -37.6233 496.751 -30.2412 502.35C-25.7079 505.788 -21.6668 509.82 -18.4682 514.599C-9.49903 528.003 4.90541 534.603 26.472 533.565C56.2886 532.129 76.0361 543.888 90.8668 559.519C112.461 582.276 143.028 594.687 171.778 609.141C196.089 621.363 211.008 643.578 237.715 653.131C258.463 660.553 282.672 664.211 293.273 683.552Z" fill="#E8E4DE"/>
    <path d="M292.849 683.807L292.912 683.923L293.022 683.991C299.582 688.093 303.393 694.899 306.646 702.431C307.53 704.478 308.374 706.582 309.222 708.697C311.476 714.316 313.758 720.007 316.898 724.877C328.917 743.518 345 757.943 361.768 771.579C365.454 774.576 369.171 777.534 372.886 780.49C386.091 790.998 399.265 801.481 410.863 813.598C414.203 817.088 417.714 820.407 421.215 823.715C421.828 824.294 422.44 824.873 423.051 825.453C427.158 829.347 431.21 833.269 434.942 837.504C435.197 837.792 435.454 838.071 435.709 838.347C436.269 838.954 436.82 839.551 437.312 840.222C438.013 841.176 438.547 842.225 438.707 843.514C439.026 846.102 437.86 849.872 432.89 856.034L433.263 856.364L432.89 856.034C424.385 866.578 416.306 869.448 408.6 872.186C408.229 872.318 407.859 872.449 407.49 872.581C401.774 874.625 396.388 875.8 391.385 876.507C369.617 879.579 345.68 888.291 317.496 905.697C290.199 922.556 271.7 924.585 256.574 918.731C236.627 911.011 222.997 896.993 210.461 881.633C199.076 867.68 184.646 857.287 164.287 853.383C159.771 852.516 155.744 851.257 152.912 848.88C150.117 846.535 148.436 843.057 148.695 837.597C150.856 792.031 132.301 764.178 110.275 740.472C94.3918 723.377 80.2666 704.574 66.1285 685.751L66.0875 685.696C51.9684 666.898 37.8348 648.08 21.9468 630.973C19.839 628.704 17.8429 626.318 15.8365 623.92C15.4566 623.466 15.0764 623.011 14.6951 622.557C12.3034 619.709 9.86872 616.876 7.20952 614.269C1.88343 609.047 -4.35359 604.719 -13.011 602.913C-17.3695 602.004 -19.7838 598.247 -21.6811 594.256C-32.902 570.641 -46.9064 549.76 -73.4723 541.472L-73.6127 541.962L-73.4724 541.472C-75.5038 540.839 -76.9841 539.483 -78.2445 537.791C-79.1425 536.585 -79.9041 535.248 -80.6746 533.895C-80.9992 533.325 -81.3254 532.752 -81.664 532.185C-83.497 529.116 -82.3188 525.381 -79.2833 521.519C-76.2725 517.688 -71.5748 513.933 -66.8549 510.992C-58.8403 505.998 -51.5199 502.576 -45.3057 501.094C-39.0835 499.61 -34.0552 500.089 -30.5284 502.764C-26.03 506.175 -22.0303 510.169 -18.8686 514.892C-9.77722 528.479 4.81192 535.119 26.4936 534.076C56.1495 532.647 75.7687 544.333 90.5197 559.879C108.597 578.93 132.944 590.759 157.178 602.531C161.995 604.871 166.807 607.209 171.565 609.602C182.262 614.979 191.131 622.299 200.042 629.655C201.208 630.617 202.375 631.58 203.546 632.539C213.659 640.819 224.12 648.808 237.556 653.615C241.623 655.069 245.824 656.381 250.02 657.69C251.187 658.054 252.353 658.418 253.517 658.785C258.867 660.473 264.151 662.225 269.114 664.345C279.04 668.586 287.627 674.279 292.849 683.807Z" stroke="black" stroke-opacity="0.41"/>
    <path d="M1150.97 107.855C1123.83 115.111 1104.48 119.467 1085.71 125.529C1066 131.898 1045.69 132.487 1027.24 123.559C951.162 86.7526 876.882 104.794 802.788 120.621C744.791 133.01 689.667 154.465 634.495 175.273C578.68 196.324 518.878 199.686 460.533 209.113C444.124 211.765 427.332 213.094 411.398 217.802C332.761 241.035 251.884 256.494 173.4 280.499C142.837 289.847 113.536 301.634 84.3869 313.773C43.5561 330.778 6.58525 324.771 -27.3503 295.276C-56.1781 270.222 -88.3666 251.754 -122.081 234.959C-171.244 210.468 -176.094 197.382 -156.818 146.887C-150.19 129.525 -146.163 112.039 -144.4 93.3548C-141.875 66.5922 -130.089 46.4747 -101.322 42.0481C-58.0186 35.384 -23.1904 12.0961 12.3438 -11.1561C55.2127 -39.2077 101.054 -62.42 151.743 -74.4161C209.335 -88.0458 260.995 -118.045 319.955 -128.687C354.397 -134.903 376.25 -163.821 396.107 -190.011C434.755 -240.988 488.87 -251.237 546.791 -243.659C587.393 -238.347 626.187 -236.7 664.245 -248.672C705.272 -261.578 745.361 -257.388 785.594 -241.903C810.538 -232.302 835.147 -225.496 861.95 -232.48C889.086 -239.552 913.872 -248.299 929.634 -273.729C948.664 -304.43 967.456 -300.432 989.377 -269.275C992.998 -264.13 996.192 -258.642 999.177 -253.1C1016.65 -220.659 1043.93 -206.096 1079 -205.051C1109.83 -204.132 1139.82 -198.312 1169.27 -187.149C1239.41 -160.558 1296.45 -74.5946 1293.56 0.813816C1292.3 33.6095 1275.2 54.9356 1248.81 70.2053C1215.83 89.2865 1179.46 99.8538 1150.97 107.855Z" fill="#E8E4DE"/>
    <path d="M1248.55 69.7756C1215.63 88.8214 1179.32 99.3748 1150.82 107.377C1141.96 109.747 1133.92 111.81 1126.45 113.724C1111.1 117.662 1098.18 120.974 1085.55 125.057C1065.92 131.399 1045.75 131.968 1027.45 123.114C954.093 87.6226 882.4 103.018 811.135 118.321C808.313 118.927 805.492 119.533 802.671 120.135C748.192 131.774 696.249 151.403 644.464 170.973C641.077 172.253 637.692 173.532 634.306 174.809C592.821 190.456 549.15 196.314 505.449 202.176C490.421 204.192 475.389 206.208 460.441 208.623C455.836 209.367 451.189 210.008 446.534 210.65C434.657 212.289 422.719 213.936 411.244 217.326C373.759 228.401 335.765 237.709 297.75 247.022C295.903 247.474 294.057 247.927 292.21 248.379C252.351 258.148 212.498 268.017 173.241 280.025C142.653 289.38 113.333 301.175 84.182 313.315C63.8361 321.789 44.4818 324.517 26.0045 321.472C7.5274 318.428 -10.1131 309.603 -27.0223 294.907C-55.8985 269.81 -88.1319 251.319 -121.862 234.517C-134.146 228.398 -143.63 223.006 -150.655 217.578C-157.675 212.154 -162.215 206.714 -164.645 200.505C-167.075 194.294 -167.418 187.256 -165.939 178.6C-164.46 169.938 -161.163 159.688 -156.346 147.071C-149.702 129.668 -145.666 112.139 -143.899 93.412C-142.641 80.0837 -139.082 68.4623 -132.298 59.631C-125.524 50.812 -115.503 44.7346 -101.234 42.5387C-58.7726 36.0043 -24.4476 13.5325 10.2541 -9.18605L12.6288 -10.7405C55.4691 -38.7734 101.257 -61.9547 151.871 -73.9332C178.222 -80.1695 203.331 -89.8277 228.428 -99.481C230.794 -100.391 233.16 -101.301 235.527 -102.209C263.012 -112.743 290.628 -122.887 320.057 -128.199C354.606 -134.434 376.537 -163.361 396.314 -189.445L396.513 -189.708C435.017 -240.496 488.922 -250.731 546.736 -243.167C587.36 -237.852 626.243 -236.194 664.408 -248.199C705.304 -261.063 745.271 -256.894 785.42 -241.441C810.386 -231.831 835.124 -224.974 862.089 -232C889.238 -239.075 914.196 -247.86 930.065 -273.463C939.563 -288.786 948.871 -295.228 958.378 -294.205C963.152 -293.692 968.057 -291.293 973.151 -287.056C978.245 -282.819 983.499 -276.767 988.965 -268.998C992.57 -263.876 995.753 -258.408 998.734 -252.875C1007.51 -236.582 1018.76 -224.757 1032.24 -216.876C1045.72 -208.997 1061.39 -205.079 1079 -204.555C1109.77 -203.637 1139.71 -197.829 1169.1 -186.686C1204.04 -173.438 1235.76 -145.382 1258.38 -111.21C1281 -77.0377 1294.5 -36.7964 1293.06 0.78371L1293.56 0.813814L1293.06 0.783726C1291.8 33.3746 1274.83 54.5678 1248.55 69.7756Z" stroke="black" stroke-opacity="0.41"/>
    <path d="M399.151 234.777C396.016 234.799 392.809 234.603 391.524 231.177C390.21 227.675 390.497 224.138 393.119 221.186C395.548 218.452 398.5 217.55 402.057 219.059C405.647 220.582 409.058 222.457 411.798 225.173C414.486 227.837 413.865 230.899 410.377 232.338C406.827 233.803 403.072 234.77 399.151 234.777Z" fill="#E8E4DE"/>
    <path d="M399.15 234.277L399.148 234.277C397.576 234.288 396.072 234.241 394.809 233.798C393.582 233.368 392.578 232.563 391.992 231.002L391.525 231.177L391.992 231.002C390.731 227.638 391.016 224.306 393.493 221.518C394.659 220.205 395.922 219.364 397.288 219.016C398.65 218.669 400.165 218.8 401.862 219.519L401.862 219.52C405.425 221.03 408.77 222.876 411.446 225.528C412.713 226.784 413.125 228.054 412.913 229.117C412.701 230.181 411.831 231.198 410.186 231.876L410.377 232.338L410.186 231.876C406.679 233.324 402.989 234.27 399.15 234.277Z" stroke="black" stroke-opacity="0.41"/>
    </g>
    <defs>
    <clipPath id="clip0_232_6048">
    <rect width="1029" height="572" fill="white"/>
    </clipPath>
    </defs>
</svg>