<svg preserveAspectRatio="none" width="927" height="574" viewBox="0 0 927 574" fill="none" xmlns="http://www.w3.org/2000/svg">
    <g clip-path="url(#clip0_232_6037)">
    <rect width="927" height="574" fill="#E8E3DD"/>
    <path d="M62.9725 201.598C50.5002 188.501 36.563 177.493 25.3978 162.601C13.3902 146.585 -1.60168 137.511 -21.0488 141.965C-28.0917 143.579 -34.7834 140.594 -41.1221 137.647C-47.4338 134.713 -48.3178 129.172 -43.7852 123.318C-41.3661 120.194 -38.2305 117.798 -35.4785 114.997C-25.3912 104.729 -17.9186 92.5264 -13.4257 77.8524C-11.1681 70.4791 -8.3443 63.2424 -5.06818 56.3827C-0.170198 46.1277 2.91337 35.6084 3.45648 23.773C4.08901 9.98995 6.95628 7.4772 19.3774 7.2287C24.1427 7.1335 28.9165 7.93694 33.691 8.0296C53.0603 8.40572 65.9738 -3.67846 69.2248 -25.2381C70.0308 -30.5833 70.3088 -36.0317 71.1122 -41.3776C73.0869 -54.515 78.4234 -65.2777 88.8535 -72.0529C97.6517 -77.7682 105.279 -84.4067 110.476 -94.9367C114.876 -103.852 119.557 -103.517 125.268 -95.4972C131.966 -86.0923 133.379 -74.2356 134.047 -63.1114C135.485 -39.1585 142.794 -18.7469 156.715 -0.870369C160.353 3.80084 166.239 10.8073 161.926 16.3897C157.187 22.5246 151.645 15.0604 146.919 11.8523C123.422 -4.09662 105.412 2.07598 94.178 30.2401C89.9893 40.7413 85.2686 50.7502 78.4808 59.439C75.674 63.0315 72.9006 66.8967 71.0297 71.1603C57.0353 103.052 63.3015 152.721 85.0034 179.714C93.8043 190.66 100.703 202.468 102.877 217.261C103.552 221.851 105.36 227.335 101.184 230.785C96.3898 234.747 93.4273 229.235 90.3437 226.531C81.0879 218.416 72.0782 209.936 62.9725 201.598Z" fill="#E8E4DE"/>
    <path d="M110.886 -94.6688L110.476 -94.9367L110.886 -94.6688C113.072 -99.0973 115.228 -101.012 117.398 -101.038C119.593 -101.063 122.061 -99.1675 124.907 -95.1715L125.268 -95.4972L124.907 -95.1715C131.501 -85.9114 132.912 -74.2106 133.58 -63.0898C135.024 -39.024 142.373 -18.4973 156.368 -0.526057C156.528 -0.319823 156.693 -0.109743 156.86 0.103903C158.604 2.33332 160.653 4.95148 161.888 7.65145C162.561 9.12332 162.973 10.5814 162.975 11.9811C162.977 13.3663 162.578 14.7306 161.57 16.0347C160.448 17.4869 159.317 18.0914 158.197 18.1917C157.06 18.2935 155.869 17.8825 154.623 17.155C153.378 16.4277 152.122 15.4106 150.863 14.3546C150.696 14.2143 150.528 14.0732 150.36 13.932C149.28 13.0216 148.197 12.1094 147.151 11.3998C135.34 3.3824 124.82 0.866182 115.802 3.9968C106.785 7.12681 99.396 15.8579 93.7504 30.0113C89.5687 40.4951 84.8701 50.4498 78.1264 59.082C75.3152 62.6801 72.5082 66.5871 70.6093 70.9144C63.5615 86.9756 61.6269 107.478 64.1672 127.336C66.7074 147.194 73.7304 166.469 84.6611 180.064C93.4313 190.973 100.263 202.687 102.416 217.334C102.516 218.015 102.644 218.734 102.772 219.452C102.859 219.941 102.946 220.431 103.024 220.908C103.222 222.112 103.375 223.299 103.381 224.44C103.395 226.695 102.842 228.751 100.901 230.355C99.7622 231.296 98.7705 231.644 97.8893 231.642C97.005 231.641 96.1765 231.287 95.3627 230.711C94.544 230.131 93.7648 229.346 92.9796 228.512C92.8402 228.364 92.7003 228.214 92.56 228.064C91.9225 227.38 91.2753 226.687 90.624 226.116C83.9717 220.283 77.4487 214.264 70.9202 208.239C68.3749 205.89 65.8287 203.541 63.2737 201.201C58.9269 196.638 54.3973 192.322 49.8793 188.017C47.91 186.141 45.9429 184.266 43.9942 182.375C37.561 176.13 31.3086 169.677 25.7513 162.265C13.6633 146.141 -1.49379 136.943 -21.1535 141.446C-28.0372 143.023 -34.5976 140.113 -40.9544 137.158C-44.0285 135.728 -45.6621 133.723 -46.0615 131.486C-46.4639 129.232 -45.6511 126.543 -43.4295 123.673C-42.2443 122.143 -40.8781 120.784 -39.4525 119.449C-39.0397 119.062 -38.6207 118.676 -38.1999 118.289C-37.1762 117.347 -36.1418 116.395 -35.1603 115.396C-25.021 105.074 -17.5029 92.8004 -12.9829 78.0379C-10.7335 70.6914 -7.91967 63.4801 -4.65498 56.6444C0.268048 46.337 3.37663 35.743 3.924 23.8147C4.24066 16.9148 5.11882 13.0507 7.31383 10.8243C9.52031 8.58625 13.1687 7.88319 19.3984 7.75856C21.7574 7.71142 24.1231 7.88667 26.5087 8.08718C26.7858 8.11047 27.0632 8.13411 27.3409 8.15777C29.4479 8.3373 31.5716 8.51824 33.6956 8.55946C43.4697 8.74925 51.6525 5.79436 57.8063 0.0337492C63.9601 -5.7268 68.0459 -14.2566 69.6863 -25.1352C70.0919 -27.8247 70.3642 -30.5376 70.6347 -33.2338L70.6359 -33.2463C70.9064 -35.9431 71.1752 -38.6229 71.5738 -41.275C73.531 -54.2958 78.8063 -64.9084 89.0947 -71.5915C97.926 -77.3282 105.632 -84.0238 110.886 -94.6688Z" stroke="black" stroke-opacity="0.41"/>
    <path d="M190.468 923.036C184.532 941.074 157.468 922.503 142.164 924.68C99.4618 930.754 88.4924 990.453 57.2113 1015.81C48.9878 1022.48 42.5616 1032.21 33.7117 1037.8C30.0343 1040.13 27.4752 1046.27 4.97191 1010.87C-15.3488 978.898 -23.1482 957.903 -31.0247 937.731C-36.6558 923.309 -40.8666 910.618 -44.2157 899.293C-58.6584 850.449 -82.2464 790.409 -120.39 711.207C-157.479 634.192 -169.134 592.801 -167.625 567.86C-165.647 535.187 -151.563 523.277 -135.097 515.268C-120.239 508.043 -111.917 490.34 -115.639 452.734C-117.306 435.894 -115.875 424.312 -99.4103 438.653C-32.7556 496.716 -1.15179 490.967 22.9386 473.072C57.8034 447.172 105.809 444.045 140.647 418.197C151.691 410.001 167.759 410.218 165.03 378.797C164.295 370.33 168.883 369.794 173.796 370.553C202.75 375.035 226.309 370.467 226.043 325.201C225.999 317.774 231.513 319.015 235.894 318.773C243.792 318.337 261.566 349.09 274.507 375.864C296.423 421.21 308.091 453.638 303.395 462.42C300.512 467.813 296.541 471.478 291.101 472.504C275.842 475.378 272.938 497.62 284.395 543.817C300.236 607.687 292.332 634.979 276.555 647.446C253.586 665.599 249.733 714.684 242.084 757.564C235.617 793.825 210.351 798.701 208.852 843.11C207.688 877.61 213.568 923.771 190.468 923.036Z" fill="#E8E4DE"/>
    <path d="M190.5 922.516L190.141 922.505L190.018 922.877C189.301 925.054 188.276 926.651 187.016 927.803C185.753 928.957 184.23 929.687 182.486 930.088C178.98 930.893 174.646 930.353 169.942 929.296C167.598 928.77 165.178 928.119 162.74 927.454L162.006 927.254C159.813 926.655 157.611 926.054 155.453 925.533C150.666 924.379 146.035 923.607 142.119 924.164C120.541 927.234 107.013 943.861 95.0139 962.73C92.3804 966.871 89.8157 971.128 87.2551 975.378C86.8968 975.973 86.5386 976.567 86.1803 977.161C83.2596 982.004 80.3314 986.818 77.2908 991.436C71.2077 1000.68 64.6927 1009.11 56.9341 1015.4C53.4051 1018.26 50.2036 1021.68 47.0314 1025.07C46.4767 1025.67 45.9229 1026.26 45.3684 1026.85C41.6291 1030.81 37.8487 1034.6 33.4826 1037.36C33.1922 1037.54 32.8876 1037.76 32.5969 1037.97C32.4237 1038.1 32.2555 1038.22 32.0981 1038.33C31.6482 1038.64 31.205 1038.9 30.7165 1039.05C29.7741 1039.35 28.543 1039.29 26.6622 1038.04C24.7666 1036.78 22.2586 1034.35 18.8068 1029.99C15.3595 1025.65 10.9905 1019.41 5.36931 1010.56C-13.9889 980.107 -21.9647 959.633 -29.4936 940.307C-29.8573 939.373 -30.2199 938.443 -30.5827 937.513C-36.208 923.106 -40.414 910.429 -43.7592 899.117C-58.2126 850.237 -81.8129 790.17 -119.964 710.952C-138.503 672.455 -150.678 642.878 -158.029 619.819C-165.381 596.754 -167.896 580.246 -167.147 567.875C-166.163 551.618 -162.172 540.584 -156.422 532.627C-150.668 524.665 -143.115 519.73 -134.915 515.741C-127.361 512.068 -121.472 505.724 -117.953 495.561C-114.442 485.421 -113.298 471.502 -115.163 452.66C-115.579 448.459 -115.799 444.609 -115.644 441.421C-115.487 438.209 -114.954 435.77 -113.944 434.302C-113.45 433.585 -112.845 433.103 -112.101 432.865C-111.349 432.624 -110.416 432.621 -109.26 432.94C-106.935 433.58 -103.821 435.49 -99.7182 439.064C-66.3677 468.115 -41.7303 481.254 -22.3721 484.859C-2.97737 488.471 11.0735 482.505 23.1989 473.498C40.5606 460.601 61.206 453.365 81.9341 446.11L82.02 446.079C102.692 438.844 123.441 431.581 140.907 418.623C143.196 416.924 145.702 415.593 148.248 414.241C148.731 413.984 149.215 413.727 149.7 413.466C152.72 411.841 155.732 410.091 158.315 407.589C163.53 402.537 166.88 394.541 165.507 378.73C165.146 374.579 166.105 372.596 167.532 371.658C169.036 370.669 171.25 370.688 173.712 371.069C188.194 373.31 201.477 373.321 211.114 366.975C220.808 360.591 226.655 347.896 226.522 325.178C226.511 323.386 226.837 322.189 227.341 321.377C227.84 320.574 228.553 320.087 229.435 319.789C230.329 319.487 231.372 319.389 232.495 319.355C232.94 319.342 233.409 319.339 233.883 319.336C234.565 319.332 235.257 319.328 235.9 319.293L235.894 318.773L235.9 319.293C236.748 319.246 237.793 319.619 239.027 320.448C240.253 321.272 241.618 322.514 243.094 324.119C246.046 327.329 249.395 331.942 252.913 337.423C259.947 348.38 267.616 362.742 274.081 376.119C285.035 398.785 293.421 418.206 298.48 433.05C301.011 440.473 302.703 446.734 303.472 451.672C303.856 454.142 304.008 456.266 303.922 458.031C303.837 459.801 303.516 461.175 302.983 462.171C300.154 467.462 296.297 470.999 291.036 471.992C287.109 472.731 283.949 474.727 281.627 478.059C279.314 481.375 277.86 485.973 277.253 491.876C276.042 503.671 278.2 520.858 283.932 543.97C291.846 575.877 293.813 598.592 291.857 614.859C289.904 631.104 284.042 640.898 276.283 647.029C264.645 656.227 257.905 673.206 253.112 693.119C249.906 706.434 247.554 721.147 245.207 735.829C244.043 743.113 242.88 750.389 241.614 757.483C238.776 773.394 232.305 783.198 225.777 793.088C224.922 794.384 224.066 795.681 223.217 796.993C215.873 808.345 209.128 820.767 208.374 843.11C208.145 849.868 208.187 857.074 208.229 864.276C208.241 866.28 208.252 868.284 208.258 870.277C208.284 879.445 208.188 888.4 207.41 896.249C206.63 904.111 205.172 910.791 202.518 915.447C201.195 917.767 199.583 919.572 197.619 920.777C195.656 921.981 193.312 922.605 190.5 922.516Z" stroke="black" stroke-opacity="0.41"/>
    <path d="M611.393 913.223C606.767 896.372 603.912 884.33 600.146 872.71C596.19 860.499 595.354 847.753 599.729 835.901C617.765 787.043 606.09 740.868 595.62 694.746C587.424 658.645 574.384 624.606 561.692 590.518C548.852 556.034 545.509 518.542 538.912 482.138C537.056 471.899 535.908 461.383 532.949 451.502C518.346 402.734 507.903 352.339 492.885 303.69C487.037 284.746 479.898 266.663 472.571 248.686C462.307 223.504 464.627 200.097 479.767 177.933C492.628 159.105 501.83 138.351 510.085 116.685C522.123 85.0925 529.1 81.6736 556.985 92.3594C566.574 96.0336 576.163 98.0697 586.345 98.6488C600.929 99.4783 612.143 106.317 615.276 124.272C619.992 151.3 633.512 172.531 647.03 194.207C663.339 220.356 677.097 248.512 684.894 280.031C693.752 315.842 711.341 347.462 718.613 384.219C722.86 405.69 739.105 418.607 753.819 430.346C782.458 453.193 789.394 486.915 786.754 523.534C784.904 549.204 784.996 573.633 792.459 597.214C800.503 622.636 799.249 647.951 791.87 673.676C787.294 689.626 784.227 705.286 788.698 721.934C793.224 738.79 798.6 754.12 812.797 763.307C829.937 774.399 828.246 786.323 811.898 800.983C809.199 803.404 806.303 805.567 803.372 807.6C786.215 819.504 779.007 837.057 779.331 859.131C779.616 878.534 777.221 897.55 771.912 916.373C759.268 961.208 714.078 999.497 673.092 999.813C655.266 999.95 643.262 989.807 634.306 973.651C623.116 953.463 616.458 930.905 611.393 913.223Z" fill="#E8E4DE"/>
    <path d="M811.609 800.599L811.875 800.952L811.609 800.599C808.933 802.999 806.058 805.147 803.136 807.174C785.79 819.209 778.522 836.969 778.849 859.185C779.133 878.538 776.744 897.498 771.451 916.265C765.165 938.554 750.781 959.239 732.853 974.393C714.924 989.548 693.49 999.139 673.132 999.296L673.095 999.764L673.132 999.296C655.519 999.432 643.634 989.428 634.727 973.359C623.567 953.224 616.922 930.718 611.856 913.034C610.346 907.533 609.024 902.54 607.796 897.904C605.268 888.36 603.141 880.332 600.604 872.502C596.67 860.362 595.859 847.748 600.176 836.053C617.589 788.882 607.404 744.211 597.293 699.87C596.892 698.107 596.49 696.344 596.09 694.582C588.389 660.66 576.416 628.56 564.483 596.568C563.702 594.475 562.922 592.383 562.143 590.29C552.605 564.674 548.321 537.414 544.03 510.118C542.554 500.726 541.078 491.331 539.386 481.996C538.866 479.129 538.401 476.231 537.935 473.326C536.744 465.903 535.544 458.431 533.41 451.304C526.45 428.061 520.435 404.447 514.416 380.817C514.124 379.67 513.832 378.522 513.539 377.374C507.226 352.6 500.858 327.827 493.345 303.489C487.49 284.522 480.343 266.423 473.016 248.444C467.909 235.914 465.943 223.853 467.122 212.187C468.301 200.524 472.626 189.224 480.147 178.213C493.047 159.328 502.268 138.524 510.53 116.842C513.536 108.951 516.214 102.855 518.968 98.3061C521.719 93.762 524.523 90.8015 527.769 89.13C531.014 87.4586 534.77 87.0412 539.479 87.7218C544.194 88.4032 549.822 90.1787 556.787 92.8479C566.416 96.5379 576.049 98.5833 586.276 99.1649C593.509 99.5763 599.864 101.476 604.792 105.461C609.714 109.441 613.252 115.531 614.801 124.41C619.43 150.942 632.508 171.901 645.712 193.062L646.621 194.52C662.914 220.644 676.646 248.752 684.426 280.204C688.482 296.599 694.363 312.116 700.238 327.615C700.792 329.077 701.346 330.538 701.898 332.001C708.312 348.977 714.513 366.037 718.14 384.369C722.412 405.961 738.701 418.956 753.346 430.64L753.509 430.77C781.986 453.489 788.906 487.019 786.273 523.541C784.421 549.233 784.508 573.744 792 597.419C800.008 622.725 798.764 647.928 791.409 673.566C786.826 689.543 783.724 705.325 788.233 722.118C792.761 738.979 798.172 754.471 812.521 763.756C821.055 769.279 824.733 774.906 824.424 780.825C824.113 786.778 819.765 793.285 811.609 800.599Z" stroke="black" stroke-opacity="0.41"/>
    <path d="M359.585 235.64C356.761 235.663 353.872 235.466 352.714 232.027C351.53 228.512 351.788 224.962 354.151 221.999C356.339 219.255 358.998 218.35 362.203 219.865C365.437 221.393 368.51 223.275 370.978 226.001C373.4 228.674 372.84 231.748 369.698 233.193C366.5 234.663 363.117 235.633 359.585 235.64Z" fill="#E8E4DE"/>
    <path d="M359.584 235.14L359.581 235.14C358.165 235.151 356.827 235.103 355.706 234.666C354.625 234.243 353.72 233.447 353.188 231.868L352.802 231.998L353.188 231.868C352.046 228.476 352.308 225.112 354.541 222.311C355.593 220.992 356.723 220.159 357.932 219.816C359.133 219.475 360.474 219.601 361.989 220.317L361.989 220.317C365.194 221.83 368.201 223.678 370.608 226.337C371.744 227.591 372.128 228.877 371.932 229.969C371.737 231.057 370.947 232.068 369.489 232.738L369.698 233.193L369.489 232.738C366.336 234.188 363.025 235.133 359.584 235.14Z" stroke="black" stroke-opacity="0.41"/>
    </g>
    <defs>
    <clipPath id="clip0_232_6037">
    <rect width="927" height="574" fill="white"/>
    </clipPath>
    </defs>
</svg>