<svg preserveAspectRatio="none" width="1147" height="592" viewBox="0 0 1147 592" fill="none" xmlns="http://www.w3.org/2000/svg">
    <g clip-path="url(#clip0_232_6000)">
    <rect width="1147" height="592" fill="#E8E3DD"/>
    <path d="M226.012 159.019C210.58 145.388 193.335 133.93 179.52 118.429C164.662 101.759 146.113 92.314 122.05 96.9501C113.336 98.6293 105.056 95.5231 97.213 92.4555C89.4035 89.401 88.3096 83.6343 93.9179 77.5411C96.9112 74.2892 100.791 71.7959 104.196 68.8802C116.677 58.1923 125.923 45.4913 131.483 30.2178C134.276 22.5433 137.77 15.0109 141.823 7.87096C147.884 -2.80302 151.699 -13.7522 152.371 -26.0711C153.154 -40.4172 156.702 -43.0326 172.071 -43.2913C177.967 -43.3904 183.874 -42.5541 189.781 -42.4577C213.747 -42.0662 229.725 -54.6441 233.748 -77.0845C234.745 -82.6482 235.089 -88.3191 236.083 -93.8834C238.527 -107.558 245.13 -118.76 258.035 -125.812C268.921 -131.761 278.359 -138.671 284.789 -149.631C290.233 -158.91 296.025 -158.562 303.092 -150.214C311.379 -140.425 313.127 -128.084 313.954 -116.505C315.733 -91.5737 324.778 -70.3282 342.002 -51.7213C346.503 -46.8592 353.786 -39.5665 348.45 -33.7561C342.585 -27.3705 335.728 -35.1397 329.88 -38.4788C300.808 -55.0793 278.524 -48.6545 264.623 -19.3397C259.44 -8.40956 253.599 2.00828 245.201 11.0521C241.728 14.7913 238.296 18.8145 235.981 23.2523C218.666 56.4471 226.419 108.145 253.271 136.241C264.161 147.634 272.697 159.925 275.387 175.322C276.222 180.1 278.458 185.807 273.292 189.399C267.36 193.523 263.694 187.786 259.879 184.971C248.427 176.524 237.279 167.698 226.012 159.019Z" fill="#E8E4DE"/>
    <path d="M285.233 -149.393L284.812 -149.619L285.233 -149.393C287.937 -154.002 290.615 -156.016 293.333 -156.043C296.09 -156.07 299.171 -154.066 302.695 -149.903L303.092 -150.214L302.695 -149.903C310.874 -140.242 312.619 -128.041 313.445 -116.467C315.232 -91.4315 324.319 -70.0835 341.619 -51.3942C341.818 -51.1794 342.022 -50.9606 342.229 -50.7378C344.386 -48.4189 346.929 -45.6853 348.462 -42.8647C349.299 -41.3251 349.814 -39.7957 349.816 -38.3254C349.819 -36.8701 349.32 -35.441 348.068 -34.078C346.676 -32.562 345.266 -31.9245 343.861 -31.8186C342.436 -31.7113 340.944 -32.1456 339.395 -32.907C337.846 -33.6678 336.287 -34.7306 334.729 -35.8297C334.521 -35.9759 334.314 -36.1229 334.107 -36.2699C332.769 -37.2178 331.433 -38.1642 330.144 -38.9002C315.545 -47.2366 302.553 -49.8475 291.418 -46.5958C280.279 -43.3432 271.143 -34.2666 264.159 -19.5392C258.984 -8.62566 253.169 1.73941 244.821 10.7282C241.343 14.4729 237.873 18.5367 235.525 23.0363C226.81 39.7451 224.417 61.0751 227.558 81.7337C230.7 102.393 239.385 122.439 252.894 136.573C263.752 147.934 272.217 160.142 274.884 175.407C275.008 176.116 275.166 176.861 275.324 177.607C275.432 178.117 275.54 178.627 275.637 179.126C275.882 180.381 276.071 181.62 276.08 182.813C276.097 185.174 275.408 187.326 272.995 189.003C271.581 189.986 270.343 190.355 269.235 190.353C268.122 190.351 267.081 189.976 266.063 189.37C265.041 188.762 264.071 187.939 263.099 187.07C262.926 186.915 262.752 186.759 262.578 186.601C261.789 185.891 260.993 185.173 260.192 184.582C251.96 178.51 243.888 172.244 235.809 165.973C232.659 163.528 229.508 161.082 226.347 158.646C220.969 153.897 215.367 149.407 209.777 144.926C207.34 142.973 204.905 141.021 202.492 139.051C194.531 132.55 186.79 125.83 179.909 118.109C164.97 101.347 146.248 91.7894 121.954 96.4701C113.413 98.1159 105.273 95.0777 97.4092 92.0019C93.588 90.5073 91.5355 88.4004 91.0337 86.0359C90.5302 83.6636 91.5484 80.8516 94.2989 77.8634C95.7674 76.268 97.4597 74.8519 99.2241 73.4619C99.7352 73.0592 100.254 72.6575 100.775 72.2543C102.041 71.2738 103.32 70.2835 104.534 69.2443C117.075 58.5048 126.374 45.7344 131.964 30.3755C134.748 22.7268 138.23 15.2189 142.271 8.10225C148.36 -2.62289 152.204 -13.6434 152.881 -26.0499C153.273 -33.2339 154.36 -37.2712 157.088 -39.5993C158.451 -40.7627 160.266 -41.5348 162.719 -42.0298C165.177 -42.5257 168.241 -42.7372 172.075 -42.8017C174.998 -42.8508 177.928 -42.6682 180.88 -42.4595C181.222 -42.4352 181.565 -42.4107 181.909 -42.386C184.516 -42.1992 187.142 -42.011 189.768 -41.9681C201.847 -41.7708 211.959 -44.8424 219.565 -50.8317C227.171 -56.8215 232.223 -65.6916 234.251 -77.0057C234.752 -79.8035 235.089 -82.6259 235.424 -85.4324L235.425 -85.4462C235.76 -88.2526 236.093 -91.0431 236.586 -93.8049C239.01 -107.368 245.542 -118.424 258.284 -125.387C269.208 -131.356 278.737 -138.321 285.233 -149.393Z" stroke="black" stroke-opacity="0.41"/>
    <path d="M875.462 1031.22C860.723 1004.86 851.082 985.859 839.781 967.889C827.906 949.008 822.024 928.11 826.74 906.823C846.184 819.066 807.776 746.477 771.77 673.544C743.585 616.456 706.506 564.543 670.101 512.424C633.272 459.698 614.218 398.549 589.094 340.381C582.028 324.022 576.268 306.945 567.138 291.577C522.081 215.733 484.711 135.682 438.874 60.1839C421.025 30.7833 400.908 3.28205 380.456 -23.9762C351.807 -62.1582 348.626 -101.923 371.202 -144.24C390.38 -180.188 401.685 -218.02 410.816 -257.028C424.131 -313.909 436.79 -322.109 495.468 -314.385C515.644 -311.729 535.278 -311.798 555.6 -314.503C584.709 -318.379 609.15 -311.047 621.302 -282.314C639.596 -239.061 673.372 -208.623 707.292 -177.445C748.214 -139.83 784.76 -97.9621 810.634 -48.3511C840.033 8.01665 885.301 54.2673 911.877 112.778C927.4 146.957 963.804 162.585 996.79 176.807C1060.99 204.486 1085.9 258.071 1092.83 319.925C1097.69 363.283 1105.98 403.879 1128.56 440.409C1152.9 479.79 1158.83 522.344 1152.77 567.788C1149.02 595.963 1148.16 623.112 1162.52 649.19C1177.06 675.592 1192.78 699.152 1223.9 709.315C1261.46 721.586 1262.08 742.027 1234.62 772.299C1230.09 777.298 1225.08 781.939 1219.96 786.377C1189.99 812.356 1181.57 844.146 1189.53 880.741C1196.54 912.909 1198.11 945.397 1193.86 978.615C1183.74 1057.74 1107.11 1137.7 1026.18 1152.99C990.985 1159.65 963.884 1147.1 940.817 1123.46C911.993 1093.92 891.345 1058.8 875.462 1031.22Z" fill="#E8E4DE"/>
    <path d="M941.176 1123.11C912.401 1093.62 891.781 1058.55 875.897 1030.97C871.081 1022.36 866.807 1014.53 862.84 1007.26C854.678 992.301 847.815 979.725 840.204 967.624C828.377 948.818 822.549 928.054 827.229 906.931C845.975 822.322 811.055 751.782 776.337 681.65C774.963 678.874 773.589 676.099 772.219 673.323C745.745 619.7 711.43 570.643 677.219 521.732C674.982 518.534 672.745 515.336 670.511 512.138C643.135 472.945 625.601 429.111 608.057 385.252C602.024 370.17 595.99 355.084 589.554 340.184C587.57 335.591 585.685 330.931 583.797 326.262C578.981 314.355 574.142 302.389 567.568 291.323C546.09 255.169 526.36 218.059 506.618 180.929C505.659 179.125 504.7 177.321 503.741 175.517C483.037 136.587 462.229 97.6879 439.302 59.9251C421.439 30.502 401.309 2.98413 380.856 -24.2756C366.578 -43.3058 358.664 -62.704 357.118 -82.5957C355.573 -102.488 360.391 -122.914 371.644 -144.005C390.851 -180.008 402.168 -217.889 411.303 -256.913C414.63 -271.126 417.909 -282.264 421.863 -290.864C425.815 -299.458 430.429 -305.488 436.411 -309.519C442.394 -313.55 449.797 -315.613 459.389 -316.181C468.986 -316.75 480.74 -315.819 495.403 -313.889C515.623 -311.227 535.302 -311.297 555.667 -314.008C570.169 -315.939 583.455 -315.07 594.609 -310.179C605.749 -305.295 614.81 -296.38 620.841 -282.12C638.776 -239.716 671.549 -209.606 704.688 -179.159L706.953 -177.077C747.85 -139.486 784.352 -97.6629 810.191 -48.1205C823.641 -22.3313 840.408 1.34115 857.168 25.0038C858.748 27.2346 860.328 29.4653 861.905 31.6977C880.219 57.6209 898.155 83.7766 911.421 112.984C926.988 147.258 963.41 162.96 996.267 177.126L996.592 177.266C1060.57 204.849 1085.41 258.234 1092.34 319.98C1097.2 363.361 1105.5 404.046 1128.14 440.671C1152.41 479.934 1158.32 522.366 1152.28 567.721C1148.52 595.919 1147.64 623.206 1162.08 649.431C1176.63 675.845 1192.43 699.562 1223.74 709.79C1242.49 715.916 1251.77 724.004 1253.15 734.124C1253.84 739.204 1252.55 744.876 1249.37 751.187C1246.18 757.497 1241.1 764.413 1234.25 771.963C1229.74 776.942 1224.75 781.568 1219.63 785.999C1204.59 799.042 1194.93 813.561 1190.04 829.43C1185.16 845.298 1185.05 862.484 1189.05 880.847C1196.04 912.96 1197.61 945.391 1193.37 978.551C1188.32 1017.98 1166.7 1057.66 1136.21 1089.4C1105.73 1121.13 1066.43 1144.88 1026.09 1152.5C991.094 1159.12 964.154 1146.66 941.176 1123.11Z" stroke="black" stroke-opacity="0.41"/>
    <path d="M444.923 245.268C441.429 245.291 437.854 245.086 436.421 241.507C434.957 237.848 435.276 234.153 438.199 231.07C440.907 228.213 444.197 227.271 448.162 228.848C452.164 230.438 455.966 232.397 459.02 235.235C462.016 238.017 461.324 241.216 457.436 242.72C453.479 244.25 449.294 245.26 444.923 245.268Z" fill="#E8E4DE"/>
    <path d="M444.922 244.768L444.92 244.768C443.168 244.779 441.478 244.73 440.055 244.263C438.664 243.806 437.539 242.953 436.885 241.321L436.503 241.474L436.885 241.321C435.481 237.812 435.795 234.332 438.562 231.414C439.865 230.039 441.283 229.151 442.825 228.783C444.365 228.415 446.074 228.555 447.978 229.312L447.978 229.312C451.955 230.893 455.691 232.824 458.68 235.601C460.101 236.921 460.556 238.249 460.321 239.353C460.084 240.463 459.11 241.537 457.256 242.254C453.34 243.768 449.216 244.761 444.922 244.768Z" stroke="black" stroke-opacity="0.41"/>
    </g>
    <defs>
    <clipPath id="clip0_232_6000">
    <rect width="1147" height="592" fill="white"/>
    </clipPath>
    </defs>
</svg>  