<svg preserveAspectRatio="none" width="880" height="355" viewBox="0 0 880 355" fill="none" xmlns="http://www.w3.org/2000/svg">
    <g clip-path="url(#clip0_468_76)">
    <rect width="880" height="355" fill="#E8E3DD"/>
    <path d="M118.788 318.323C89.8148 293.425 59.256 270.526 31.7317 243.937C2.13052 215.34 -29.3539 194.466 -62.0641 189.415C-73.9102 187.587 -87.4292 179.717 -100.295 172.098C-113.107 164.512 -117.472 156.486 -112.261 151.124C-109.48 148.263 -105.047 146.8 -101.506 144.568C-88.5268 136.383 -81.2152 124.08 -80.4959 106.722C-80.1344 97.9999 -78.6873 89.7862 -76.2384 82.3427C-72.5768 71.2149 -72.3079 58.6928 -77.2631 42.9343C-83.0337 24.5826 -79.141 22.8074 -56.9474 29.5581C-48.4329 32.1482 -39.4529 35.9631 -30.8277 38.8134C4.16324 50.3771 21.3103 41.3399 16.3475 13.9245C15.117 7.12736 12.8862 -0.110959 11.6509 -6.91041C8.61534 -23.6197 12.8103 -35.1866 28.1557 -38.4331C41.1002 -41.1717 51.4777 -45.8322 55.5388 -57.1628C58.9765 -66.7554 67.5559 -63.63 81.8367 -49.4824C98.5839 -32.8918 107.064 -15.9881 113.839 -0.504203C128.426 32.8363 151.789 64.7195 185.76 96.9335C194.637 105.351 208.725 118.223 203.773 123.34C198.331 128.965 184.634 115.669 174.534 108.616C124.324 73.555 95.0564 71.6578 88.9849 103.484C86.7212 115.351 83.2549 126.246 75.4127 134.169C72.1698 137.445 69.1237 141.11 67.8986 145.831C58.7357 181.143 94.8854 252.152 147.406 301.183C168.705 321.066 187.018 341.035 198.337 362.359C201.85 368.976 207.846 377.452 202.072 379.754C195.444 382.397 187.358 373.224 180.463 367.793C159.765 351.493 139.327 334.839 118.788 318.323Z" fill="#E8E4DE"/>
    <path d="M56.0095 -56.9941L55.5388 -57.1628L56.0095 -56.9941C56.8466 -59.3301 57.9676 -60.8076 59.3317 -61.5615C60.6868 -62.3103 62.3773 -62.397 64.4736 -61.7475C68.7048 -60.4367 74.3436 -56.2019 81.4848 -49.1272L81.8367 -49.4824L81.4848 -49.1272C98.1661 -32.6019 106.616 -15.7652 113.381 -0.303782C128.001 33.1113 151.409 65.0477 185.416 97.2963C185.809 97.6688 186.212 98.0497 186.622 98.438C190.861 102.448 195.93 107.243 199.565 111.691C201.562 114.134 203.093 116.434 203.827 118.413C204.56 120.391 204.457 121.915 203.413 122.993C202.228 124.219 200.568 124.462 198.453 123.92C196.328 123.375 193.846 122.057 191.173 120.313C188.508 118.574 185.693 116.438 182.903 114.287C182.529 113.999 182.156 113.711 181.784 113.423C179.382 111.567 177.017 109.74 174.82 108.206C149.707 90.67 129.739 81.3561 115.238 80.4684C107.967 80.0232 102.031 81.6948 97.5274 85.549C93.0307 89.397 90.0246 95.3658 88.4937 103.391C86.2342 115.235 82.7902 126.005 75.0574 133.817C71.8009 137.107 68.6745 140.85 67.4147 145.705C65.0957 154.642 65.6527 165.791 68.5837 178.222C71.5162 190.659 76.8338 204.416 84.0757 218.59C98.5592 246.937 120.762 276.993 147.065 301.548C168.353 321.422 186.616 341.345 197.896 362.594C198.429 363.597 199.01 364.63 199.596 365.671C200.974 368.119 202.376 370.609 203.219 372.851C203.819 374.444 204.099 375.826 203.925 376.917C203.759 377.955 203.176 378.776 201.887 379.29C198.84 380.505 195.368 379.034 191.658 376.394C189.823 375.088 187.974 373.528 186.143 371.946C185.811 371.659 185.479 371.372 185.149 371.084C183.662 369.794 182.192 368.518 180.772 367.4C165.888 355.678 151.139 343.774 136.387 331.868C130.63 327.221 124.873 322.575 119.108 317.938C109.005 309.257 98.72 300.826 88.4432 292.402C69.2121 276.639 50.0089 260.898 32.0791 243.577C2.44958 214.953 -29.1267 193.995 -61.9878 188.921C-73.7185 187.11 -87.1477 179.302 -100.041 171.668C-106.416 167.893 -110.622 164.045 -112.601 160.532C-113.587 158.781 -114.007 157.136 -113.893 155.634C-113.779 154.139 -113.133 152.739 -111.903 151.473C-110.57 150.102 -108.826 149.051 -106.935 148.053C-106.394 147.767 -105.838 147.484 -105.278 147.2C-103.908 146.503 -102.511 145.793 -101.239 144.991C-88.1143 136.714 -80.7221 124.257 -79.9963 106.743C-79.6366 98.0624 -78.1966 89.8947 -75.7634 82.499C-72.0647 71.2582 -71.8041 58.628 -76.7861 42.7843C-78.2273 38.2011 -79.0475 34.7039 -79.1446 32.134C-79.2415 29.5674 -78.6166 28.0641 -77.3266 27.2567C-75.9772 26.4121 -73.7514 26.22 -70.3685 26.7142C-67.0125 27.2046 -62.6384 28.3497 -57.0929 30.0365C-52.852 31.3265 -48.4914 32.9228 -44.1036 34.5567C-43.5935 34.7466 -43.0831 34.9371 -42.5725 35.1276C-38.6949 36.5743 -34.8052 38.0256 -30.9846 39.2882C-13.4695 45.0765 -0.258264 45.7713 7.97581 41.4284C12.1161 39.2446 14.9718 35.7998 16.4666 31.1587C17.9567 26.5322 18.0889 20.7375 16.8395 13.8354C16.2209 10.4187 15.3516 6.89429 14.4864 3.38813L14.482 3.37022C13.6168 -0.136007 12.7562 -3.62385 12.1428 -6.99979C10.6334 -15.3083 10.9394 -22.2545 13.4611 -27.5038C15.9686 -32.7233 20.7065 -36.346 28.2592 -37.9439C41.2344 -40.6891 51.8542 -45.4007 56.0095 -56.9941Z" stroke="black" stroke-opacity="0.41"/>
    <path d="M530.778 339.408C538.997 343.018 545.318 349.791 552.81 354.839C573.715 368.924 597.049 378.129 618.823 390.457C624.547 393.698 630.419 396.665 636.089 400C638.445 401.386 641.486 402.786 640.574 406.499C639.75 409.852 636.738 410.301 634.016 410.853C632.069 411.248 630.024 411.359 628.017 411.33C619.361 411.203 611.321 412.892 603.846 417.342C596.577 421.668 588.981 421.376 580.602 418.502C569.626 414.737 559.67 409.139 549.858 403.163C541.005 397.771 531.827 393.439 521.867 391.002C517.406 389.911 513.19 388.345 510.284 384.518C498.523 369.022 482.664 358.476 466.4 349.14C442.862 335.627 420.505 320.148 396.994 306.649C389.541 302.369 382.448 297.309 373.956 295.153C371.667 294.572 369.457 293.07 367.502 291.589C355.985 282.865 344.076 274.977 330.208 270.711C327.933 270.012 325.86 268.387 323.833 266.979C320.179 264.44 321.76 261.775 324.267 260.256C328.512 257.684 333.332 257.111 338.138 259.439C341.089 260.869 343.991 262.477 346.732 264.296C354.419 269.397 362.586 272.452 371.754 273.269C384.43 274.397 396.384 279.519 407.266 285.706C423.111 294.713 439.993 300.647 456.651 307.187C470.736 312.716 483.501 321.173 497.891 325.914C509.069 329.598 520.712 332.174 530.778 339.408Z" fill="#E8E4DE"/>
    <path d="M530.498 339.82L530.541 339.851L530.589 339.872C534.639 341.651 538.234 344.215 541.77 346.984C542.734 347.739 543.696 348.511 544.661 349.286C547.221 351.341 549.808 353.418 552.543 355.26C563.023 362.322 574.107 368.156 585.279 373.761C587.732 374.992 590.19 376.212 592.647 377.431C601.382 381.766 610.103 386.094 618.589 390.899C621.046 392.29 623.513 393.622 625.975 394.951C629.287 396.739 632.59 398.522 635.848 400.438C636.037 400.549 636.227 400.659 636.416 400.768C637.449 401.364 638.464 401.949 639.206 402.728C639.633 403.176 639.95 403.671 640.115 404.248C640.28 404.824 640.304 405.515 640.094 406.369L640.574 406.499L640.094 406.369C639.723 407.882 638.874 408.725 637.784 409.272C636.759 409.786 635.543 410.03 634.284 410.282C634.16 410.307 634.037 410.332 633.913 410.357C632.011 410.742 630.003 410.853 628.017 410.824C619.29 410.696 611.159 412.4 603.593 416.903C596.487 421.133 589.05 420.868 580.753 418.022C569.83 414.276 559.912 408.701 550.106 402.729C541.224 397.32 531.998 392.962 521.975 390.51C517.536 389.424 513.467 387.892 510.673 384.211C498.847 368.629 482.913 358.043 466.637 348.699C454.879 341.949 443.414 334.707 431.942 327.46L431.911 327.44C420.452 320.201 408.986 312.958 397.231 306.208C395.684 305.32 394.147 304.394 392.603 303.464C386.768 299.948 380.852 296.385 374.068 294.662C371.885 294.108 369.746 292.663 367.792 291.184C356.263 282.45 344.297 274.519 330.344 270.227L330.208 270.711L330.344 270.227C328.484 269.655 326.764 268.438 325.014 267.2C324.713 266.987 324.41 266.773 324.106 266.562C322.373 265.357 322.031 264.243 322.222 263.35C322.431 262.379 323.312 261.427 324.523 260.692C328.647 258.193 333.294 257.649 337.932 259.896C340.867 261.318 343.748 262.915 346.467 264.719C354.219 269.862 362.463 272.948 371.718 273.773C384.295 274.893 396.178 279.977 407.031 286.147C420.281 293.679 434.258 299.07 448.184 304.44C450.954 305.508 453.721 306.575 456.48 307.659C462.684 310.094 468.632 313.1 474.6 316.116C475.381 316.511 476.162 316.906 476.944 317.299C483.695 320.698 490.513 324.013 497.746 326.396C499.952 327.123 502.169 327.805 504.383 328.487C513.452 331.278 522.473 334.054 530.498 339.82Z" stroke="black" stroke-opacity="0.41"/>
    <path d="M719.067 382.805C712.398 379.514 707.916 376.708 702.955 375.019C697.743 373.244 694.374 368.069 694.482 358.065C694.927 316.821 677.282 306.794 660.408 295.578C647.2 286.799 631.404 283.878 615.817 280.582C600.048 277.247 589.581 262.921 577.311 252.387C573.86 249.425 570.792 245.618 566.726 243.937C546.662 235.639 528.852 222.378 508.553 214.553C500.649 211.506 492.124 210.168 483.505 209.068C471.432 207.528 467.67 194.141 472.248 168.417C476.137 146.565 477.296 127.492 477.655 108.943C478.179 81.8948 481.805 73.2481 501.728 50.1812C508.579 42.25 515.064 33.5443 521.598 23.5535C530.956 9.2431 539.535 1.16619 545.511 6.48352C554.507 14.4877 567.747 10.8803 581.085 7.48421C597.176 3.38726 612.111 2.80756 624.046 9.82594C637.607 17.8003 655.724 14.9951 668.497 25.0144C675.959 30.8676 689.058 20.5886 700.932 11.2968C724.042 -6.78905 735.927 2.13705 742.436 22.0832C746.998 36.0652 752.506 47.5033 762.46 51.1119C773.191 55.002 778.049 68.2155 779.147 87.7976C779.827 99.9387 781.391 110.422 787.917 113.774C794.524 117.168 801.325 118.985 812.304 109.01C825.56 96.9665 827.156 104.3 820.144 127.7C818.986 131.564 817.647 135.504 816.257 139.419C808.121 162.333 807.503 177.885 812.631 187.977C817.139 196.849 819.874 208.239 820.734 222.476C822.783 256.386 802.9 320.015 777.191 361.481C766.01 379.515 756.196 386.829 746.959 388.23C735.417 389.982 726.197 386.045 719.067 382.805Z" fill="#E8E4DE"/>
    <path d="M746.876 387.729C735.488 389.457 726.386 385.581 719.265 382.346C717.09 381.272 715.156 380.255 713.354 379.307C712.399 378.804 711.48 378.321 710.583 377.859C708.003 376.532 705.616 375.395 703.101 374.538C700.614 373.691 698.572 372.04 697.154 369.392C695.729 366.729 694.921 363.031 694.975 358.082C695.198 337.382 690.881 324.446 684.335 315.268C678.302 306.808 670.4 301.587 662.599 296.432C661.955 296.006 661.311 295.581 660.67 295.155C648.188 286.859 633.42 283.761 618.797 280.694C617.833 280.491 616.869 280.289 615.906 280.086C608.142 278.444 601.66 274.092 595.566 268.8C592.586 266.213 589.708 263.41 586.819 260.596L586.622 260.404C583.67 257.529 580.704 254.647 577.622 252.002C576.771 251.271 575.941 250.486 575.105 249.686C574.997 249.584 574.89 249.481 574.782 249.378C574.054 248.681 573.319 247.977 572.569 247.303C570.848 245.758 569.013 244.341 566.902 243.468C557.363 239.523 548.332 234.451 539.27 229.361C538.832 229.115 538.394 228.87 537.957 228.624C528.461 223.295 518.905 218.006 508.717 214.079C500.753 211.009 492.176 209.665 483.555 208.565C480.625 208.192 478.229 207.105 476.339 205.315C474.445 203.522 473.027 200.993 472.106 197.683C470.261 191.044 470.448 181.36 472.733 168.519C476.629 146.631 477.788 127.53 478.148 108.965C478.41 95.4565 479.446 86.6112 482.872 78.275C486.301 69.9297 492.141 62.0531 502.1 50.5223C508.967 42.5724 515.465 33.8488 522.009 23.8425C526.682 16.6969 531.13 11.1572 535.125 8.0653C537.122 6.51989 538.968 5.61561 540.642 5.39777C542.292 5.18303 543.807 5.62999 545.193 6.86336C549.827 10.9868 555.535 12.0945 561.706 11.765C567.588 11.4509 573.96 9.82596 580.317 8.2048C580.616 8.12854 580.915 8.05229 581.214 7.9762C597.269 3.88838 612.045 3.34695 623.809 10.2643C630.083 13.954 637.314 15.3626 644.453 16.7531C645.131 16.8852 645.809 17.0171 646.484 17.1508C654.31 18.6998 661.922 20.4878 668.204 25.4146C670.197 26.978 672.553 27.4471 675.109 27.1505C677.655 26.8552 680.423 25.7995 683.293 24.2869C688.995 21.2817 695.233 16.4002 701.127 11.7877L701.236 11.7024C712.757 2.68606 721.324 0.531304 727.752 2.90444C734.193 5.2827 738.724 12.2918 741.968 22.2346C744.254 29.2377 746.787 35.6423 750.014 40.7565C753.244 45.8755 757.189 49.7346 762.305 51.5893C767.505 53.4742 771.313 57.6221 773.966 63.767C776.624 69.9232 778.107 78.0522 778.654 87.8155C778.995 93.89 779.558 99.5961 780.866 104.214C782.174 108.825 784.254 112.454 787.704 114.227C791.034 115.937 794.489 117.292 798.527 116.91C802.564 116.529 807.102 114.421 812.636 109.393C815.945 106.386 818.467 104.647 820.27 104.041C821.167 103.739 821.819 103.74 822.285 103.931C822.733 104.115 823.102 104.513 823.363 105.231C823.627 105.96 823.762 106.979 823.747 108.31C823.731 109.636 823.567 111.239 823.255 113.118C822.631 116.877 821.423 121.699 819.672 127.541C818.518 131.393 817.182 135.325 815.793 139.236C807.649 162.174 806.963 177.907 812.195 188.204C816.66 196.992 819.384 208.306 820.242 222.496C821.26 239.357 816.824 263.672 808.902 288.98C800.984 314.277 789.602 340.511 776.773 361.202L777.19 361.481L776.773 361.202C765.617 379.196 755.903 386.359 746.876 387.729Z" stroke="black" stroke-opacity="0.41"/>
    <path d="M305.282 189.999C302.935 190.015 300.534 189.872 299.572 187.372C298.589 184.817 298.803 182.236 300.766 180.082C302.585 178.087 304.795 177.43 307.458 178.531C310.146 179.641 312.699 181.01 314.751 182.991C316.763 184.935 316.298 187.169 313.687 188.22C311.029 189.288 308.218 189.994 305.282 189.999Z" fill="#E8E4DE"/>
    <path d="M314.404 183.351C315.333 184.248 315.609 185.129 315.463 185.84C315.317 186.554 314.71 187.269 313.5 187.756L313.687 188.22L313.5 187.756C310.884 188.808 308.137 189.494 305.282 189.499L305.279 189.499C304.101 189.507 302.994 189.471 302.07 189.156C301.179 188.852 300.461 188.289 300.039 187.193L299.572 187.372L300.039 187.193C299.11 184.78 299.322 182.408 301.136 180.419C301.996 179.476 302.921 178.878 303.916 178.631C304.907 178.385 306.016 178.475 307.267 178.993L307.267 178.993C309.929 180.093 312.417 181.432 314.404 183.351ZM314.404 183.351L314.751 182.991L314.404 183.351Z" stroke="black" stroke-opacity="0.41"/>
    </g>
    <defs>
    <clipPath id="clip0_468_76">
    <rect width="880" height="355" fill="white"/>
    </clipPath>
    </defs>
</svg>
