<svg  preserveAspectRatio="none" width="880" height="112" viewBox="0 0 880 112" fill="none" xmlns="http://www.w3.org/2000/svg">
    <g clip-path="url(#clip0_115_947)">
    <rect width="880" height="112" fill="#E8E3DD"/>
    <path d="M684.28 42.4576C680.671 45.3162 676.084 46.5561 671.999 48.7403C660.598 54.8348 650.826 63.2014 640.014 70.1118C637.171 71.9285 634.417 73.8777 631.545 75.6472C630.351 76.3825 628.987 77.4245 627.523 76.1201C626.201 74.9423 626.72 73.4696 627.124 72.1031C627.412 71.126 627.852 70.1723 628.347 69.2698C630.482 65.377 631.646 61.3277 631.423 56.8719C631.206 52.5392 633.161 49.1668 636.475 46.0589C640.815 41.9876 645.741 38.8186 650.805 35.8055C655.373 33.087 659.539 29.9669 663.034 26.0372C664.599 24.2774 666.32 22.7421 668.753 22.3438C678.598 20.7319 687.184 16.0747 695.318 10.944C707.091 3.51849 719.472 -2.90001 731.232 -10.3162C734.961 -12.6674 738.956 -14.6679 741.971 -17.9993C742.784 -18.897 743.995 -19.5383 745.135 -20.069C751.853 -23.1952 758.286 -26.6999 763.548 -31.9617C764.411 -32.8248 765.645 -33.3749 766.769 -33.9555C768.797 -35.0023 769.625 -33.646 769.712 -32.1455C769.859 -29.6044 768.962 -27.282 766.754 -25.6627C765.397 -24.6683 763.972 -23.739 762.49 -22.933C758.333 -20.6729 754.989 -17.7049 752.419 -13.7454C748.865 -8.27123 743.675 -4.08214 738.26 -0.634598C730.375 4.38507 723.634 10.6126 716.672 16.5931C710.786 21.6502 703.89 25.4062 698.288 30.7901C693.936 34.9727 689.974 39.6312 684.28 42.4576Z" fill="#E8E4DE"/>
    <path d="M683.999 42.0407L684.046 42.0172C688.546 39.7834 691.935 36.396 695.374 32.9585C696.217 32.1155 697.064 31.2694 697.93 30.4366C700.76 27.7169 703.912 25.4135 707.072 23.1689C707.439 22.9086 707.805 22.6492 708.172 22.39C710.972 20.4081 713.752 18.4408 716.335 16.2211C717.486 15.2326 718.632 14.2358 719.78 13.2378C725.556 8.21468 731.369 3.15944 737.979 -1.04882C743.367 -4.47866 748.491 -8.62225 751.99 -14.0127L752.419 -13.7454L751.99 -14.0127C754.608 -18.0456 758.016 -21.0681 762.24 -23.3648C763.699 -24.158 765.105 -25.0746 766.446 -26.0584C768.504 -27.5672 769.346 -29.7232 769.207 -32.1233C769.166 -32.8247 768.954 -33.3702 768.641 -33.6333C768.389 -33.8443 767.922 -33.9897 767.01 -33.5187L766.769 -33.9555L767.01 -33.5187C766.837 -33.4294 766.665 -33.3423 766.495 -33.2561C765.512 -32.7588 764.588 -32.291 763.912 -31.615C758.588 -26.2903 752.09 -22.7559 745.358 -19.6231C744.219 -19.0932 743.092 -18.4872 742.353 -17.6704C739.918 -14.9798 736.843 -13.1304 733.845 -11.3272C733.057 -10.8533 732.275 -10.3827 731.511 -9.90079C725.626 -6.18997 719.588 -2.72942 713.559 0.725981L713.54 0.736677C707.502 4.19738 701.473 7.65319 695.597 11.3594C687.45 16.4976 678.793 21.2014 668.842 22.8306C666.591 23.1992 664.968 24.6202 663.418 26.363C659.88 30.3413 655.67 33.4918 651.072 36.2276C646.016 39.2367 641.128 42.3833 636.828 46.4164L636.475 46.0589L636.828 46.4164C633.578 49.4652 631.721 52.7097 631.929 56.8535C632.157 61.4149 630.963 65.5517 628.794 69.5063C628.309 70.3907 627.886 71.3114 627.61 72.2445L683.999 42.0407ZM683.999 42.0407L683.958 42.0731M683.999 42.0407L683.958 42.0731M683.958 42.0731C682.204 43.4624 680.202 44.4665 678.103 45.4026C677.536 45.6557 676.959 45.9047 676.378 46.1554C674.829 46.824 673.252 47.5044 671.751 48.3069C666.021 51.37 660.707 55.0008 655.484 58.7204C654.335 59.5385 653.191 60.3606 652.048 61.182C647.988 64.1001 643.941 67.0088 639.733 69.6981C638.502 70.4847 637.304 71.2847 636.112 72.0813C634.512 73.1498 632.921 74.2124 631.271 75.2291C631.171 75.2908 631.072 75.3524 630.976 75.4129C630.457 75.7384 629.983 76.0354 629.49 76.1742C629.214 76.2518 628.955 76.2707 628.703 76.2175C628.452 76.1646 628.172 76.0332 627.862 75.7575L627.862 75.7575M683.958 42.0731L627.862 75.7575M627.862 75.7575C627.327 75.281 627.17 74.7654 627.182 74.1985M627.862 75.7575L627.182 74.1985M627.182 74.1985C627.195 73.6439 627.367 73.0644 627.557 72.4259M627.182 74.1985L627.557 72.4259M627.557 72.4259C627.574 72.366 627.592 72.3055 627.61 72.2446L627.557 72.4259Z" stroke="black" stroke-opacity="0.41"/>
    <path d="M452.319 284.72C443.873 280.552 438.147 277.104 431.926 274.829C425.388 272.438 420.837 266.513 420.162 255.644C417.379 210.834 394.924 198.371 373.319 184.683C356.407 173.969 336.793 169.396 317.406 164.433C297.793 159.413 283.796 142.909 267.893 130.371C263.421 126.844 259.35 122.433 254.226 120.246C228.943 109.448 206.024 93.4535 180.491 83.1509C170.548 79.1385 159.983 76.9298 149.321 74.972C134.386 72.2301 128.69 57.34 132.23 29.7721C135.237 6.35383 135.118 -14.2835 134.061 -34.4218C132.52 -63.788 136.27 -72.8701 158.849 -96.1917C166.612 -104.211 173.865 -113.104 181.074 -123.39C191.399 -138.124 201.271 -146.149 209.031 -139.838C220.712 -130.339 236.663 -133.091 252.752 -135.605C272.161 -138.638 290.435 -137.948 305.643 -129.261C322.922 -119.39 344.92 -120.839 361.399 -108.815C371.025 -101.79 386.264 -111.81 400.08 -120.864C426.97 -138.488 442.271 -127.731 451.865 -105.466C458.591 -89.8581 466.271 -76.9333 478.774 -72.1293C492.251 -66.9505 499.278 -52.1525 502.205 -30.7618C504.02 -17.4993 506.785 -5.96094 515.061 -1.73905C523.44 2.53507 531.93 5.11266 544.593 -4.76398C559.882 -16.6882 562.432 -8.57234 555.719 16.2523C554.611 20.3519 553.286 24.5184 551.897 28.6521C543.766 52.8496 544.263 69.7062 551.369 81.1343C557.615 91.1805 561.89 103.808 564.095 119.365C569.345 156.42 550.092 223.852 521.9 266.67C509.64 285.292 498.192 292.378 486.974 293.085C472.956 293.969 461.328 288.873 452.319 284.72Z" fill="#E8E4DE"/>
    <path d="M452.519 284.261C449.784 282.912 447.326 281.632 445.038 280.442C440.303 277.978 436.298 275.894 432.082 274.352C428.908 273.191 426.228 271.179 424.254 268.141C422.276 265.097 420.988 260.993 420.654 255.623C419.257 233.125 412.915 218.695 404.171 208.169C396.11 198.465 386.027 192.108 376.037 185.811C375.214 185.292 374.391 184.773 373.571 184.253C357.626 174.152 339.298 169.487 321.102 164.856C319.905 164.552 318.71 164.248 317.515 163.942C307.807 161.457 299.47 156.126 291.555 149.824C287.686 146.743 283.926 143.437 280.156 140.123L279.896 139.895C276.043 136.507 272.176 133.116 268.188 129.971C267.08 129.097 265.995 128.167 264.904 127.224C264.764 127.103 264.624 126.981 264.483 126.86C263.534 126.037 262.578 125.209 261.606 124.413C259.375 122.585 257.033 120.9 254.407 119.779C242.375 114.64 230.877 108.321 219.351 101.987C218.793 101.68 218.235 101.374 217.677 101.067C205.598 94.4321 193.46 87.8437 180.663 82.6797C170.67 78.6472 160.061 76.4315 149.397 74.4733C142.108 73.135 137.093 68.8543 134.306 61.507C131.503 54.1157 130.953 43.603 132.719 29.8493C135.731 6.38948 135.611 -14.2815 134.553 -34.4378C133.784 -49.1058 134.343 -58.6226 137.866 -67.3709C141.394 -76.1294 147.914 -84.1711 159.202 -95.8304C166.985 -103.87 174.255 -112.784 181.476 -123.088C186.629 -130.442 191.635 -136.068 196.284 -139.075C198.604 -140.576 200.806 -141.406 202.873 -141.496C204.926 -141.586 206.881 -140.948 208.73 -139.444C214.687 -134.6 221.715 -132.897 229.238 -132.71C236.413 -132.532 244.087 -133.734 251.76 -134.936C252.119 -134.992 252.477 -135.048 252.836 -135.104C272.202 -138.13 290.345 -137.424 305.411 -128.819C313.371 -124.272 322.321 -122.109 331.198 -119.964C332.038 -119.761 332.878 -119.558 333.717 -119.353C343.44 -116.977 352.969 -114.351 361.119 -108.404C366.152 -104.731 372.586 -105.566 379.359 -108.339C386.109 -111.101 393.367 -115.858 400.227 -120.354L400.351 -120.435C413.736 -129.207 424.116 -130.838 432.292 -127.65C440.488 -124.455 446.637 -116.357 451.415 -105.269C458.14 -89.6646 465.891 -76.5423 478.61 -71.6552C491.807 -66.5842 498.794 -52.0592 501.717 -30.7023C502.625 -24.0648 503.776 -17.8135 505.752 -12.6829C507.729 -7.54908 510.556 -3.47664 514.85 -1.28617C519.058 0.860498 523.363 2.61906 528.237 2.56171C533.121 2.50425 538.507 0.625952 544.897 -4.35789C548.71 -7.33138 551.667 -9.00381 553.844 -9.50723C554.925 -9.75713 555.771 -9.70865 556.423 -9.43221C557.065 -9.16028 557.58 -8.64228 557.964 -7.82488C558.751 -6.14747 558.938 -3.30764 558.473 0.748468C558.011 4.77719 556.919 9.9111 555.244 16.1066C554.139 20.1923 552.818 24.348 551.431 28.4773C543.283 52.7234 543.725 69.7713 550.955 81.4003C557.153 91.3696 561.41 103.923 563.607 119.427C566.217 137.849 562.738 163.889 555.065 190.704C547.395 217.507 535.553 245.021 521.49 266.38L521.9 266.67L521.49 266.38C509.271 284.939 497.939 291.885 486.933 292.579C473.05 293.455 461.523 288.413 452.519 284.261Z" stroke="black" stroke-opacity="0.41"/>
    </g>
    <defs>
    <clipPath id="clip0_115_947">
    <rect width="880" height="112" fill="white"/>
    </clipPath>
    </defs>
</svg>