<svg preserveAspectRatio="none" width="880" height="112" viewBox="0 0 880 112" fill="none" xmlns="http://www.w3.org/2000/svg">
    <g clip-path="url(#clip0_115_722)">
    <rect width="880" height="112" fill="#E8E3DD"/>
    <path d="M147.573 260.611C132.991 247.163 116.696 235.862 103.644 220.57C89.6077 204.124 72.0784 194.81 49.3341 199.393C41.0971 201.053 33.2725 197.99 25.8606 194.965C18.4804 191.954 17.4485 186.263 22.7514 180.248C25.5815 177.038 29.2494 174.576 32.4686 171.698C44.2691 161.147 53.0124 148.61 58.272 133.535C60.9148 125.961 64.2197 118.526 68.0535 111.479C73.7851 100.944 77.395 90.1374 78.0344 77.9804C78.7791 63.8228 82.1331 61.2406 96.6593 60.9803C102.232 60.8806 107.815 61.7039 113.398 61.7971C136.05 62.1756 151.156 49.7579 154.966 27.6115C155.91 22.1207 156.237 16.5243 157.179 11.0329C159.493 -2.46213 165.737 -13.5193 177.937 -20.4827C188.229 -26.3568 197.151 -33.1787 203.232 -43.9969C208.381 -53.1556 213.856 -52.8141 220.532 -44.5786C228.361 -34.9209 230.009 -22.7428 230.786 -11.3168C232.459 13.286 241 34.249 257.274 52.6053C261.526 57.4019 268.408 64.5963 263.362 70.332C257.817 76.6355 251.339 68.9708 245.813 65.6776C218.34 49.305 197.276 55.6526 184.128 84.5862C179.225 95.3742 173.701 105.657 165.76 114.584C162.476 118.276 159.231 122.247 157.042 126.627C140.665 159.391 147.975 210.406 173.345 238.123C183.633 249.363 191.697 261.489 194.234 276.683C195.022 281.397 197.134 287.029 192.249 290.575C186.641 294.646 183.179 288.986 179.573 286.21C168.752 277.878 158.219 269.171 147.573 260.611Z" fill="#E8E4DE"/>
    <path d="M203.668 -43.7519L203.232 -43.9969L203.668 -43.7519C206.225 -48.3007 208.754 -50.2836 211.314 -50.3106C213.91 -50.338 216.815 -48.3696 220.143 -44.2637L220.532 -44.5786L220.143 -44.2637C227.865 -34.7383 229.511 -22.7039 230.287 -11.2829C231.968 13.4265 240.551 34.4952 256.9 52.937C257.087 53.1489 257.28 53.3647 257.475 53.5844C259.514 55.8725 261.914 58.5671 263.361 61.3473C264.151 62.8644 264.635 64.3703 264.637 65.8176C264.639 67.2501 264.169 68.6579 262.986 70.0018C261.671 71.4969 260.341 72.1242 259.018 72.2287C257.676 72.3347 256.271 71.9084 254.808 71.1586C253.347 70.4093 251.875 69.362 250.403 68.2779C250.207 68.1337 250.011 67.9887 249.815 67.8437C248.551 66.9089 247.288 65.9746 246.068 65.248C232.269 57.024 219.984 54.4495 209.453 57.6639C198.919 60.8789 190.278 69.8422 183.673 84.3793C178.778 95.1506 173.278 105.38 165.386 114.252C162.098 117.949 158.815 121.961 156.595 126.404C148.35 142.898 146.081 163.951 149.043 184.339C152.006 204.729 160.209 224.512 172.976 238.46C183.233 249.666 191.226 261.707 193.741 276.765C193.858 277.465 194.007 278.201 194.156 278.937C194.258 279.44 194.36 279.943 194.452 280.435C194.683 281.673 194.861 282.895 194.869 284.07C194.884 286.397 194.233 288.517 191.955 290.171C190.62 291.14 189.453 291.502 188.41 291.501C187.363 291.5 186.383 291.131 185.424 290.536C184.461 289.937 183.546 289.126 182.627 288.27C182.464 288.117 182.3 287.963 182.135 287.808C181.39 287.107 180.637 286.398 179.878 285.814C172.1 279.825 164.473 273.644 156.841 267.459C153.864 265.047 150.887 262.634 147.899 260.232C142.818 255.546 137.524 251.116 132.242 246.697C129.939 244.77 127.639 242.845 125.359 240.902C117.837 234.489 110.525 227.861 104.025 220.245C89.9066 203.704 72.2065 194.274 49.2353 198.902C41.1682 200.528 33.4817 197.535 26.0495 194.502C22.4428 193.031 20.5113 190.957 20.0398 188.634C19.5662 186.3 20.5263 183.528 23.1264 180.579C24.5143 179.005 26.1138 177.607 27.7817 176.235C28.2649 175.837 28.7553 175.441 29.2477 175.043C30.4449 174.075 31.6543 173.097 32.8019 172.071C44.6605 161.467 53.4544 148.861 58.7441 133.7C61.3778 126.152 64.6716 118.742 68.4927 111.718C74.2524 101.131 77.8897 90.2526 78.5337 78.0066C78.9066 70.9176 79.9352 66.9374 82.5114 64.6422C83.7986 63.4954 85.5119 62.7337 87.8289 62.2447C90.1501 61.7549 93.0451 61.5452 96.6683 61.4802C99.4296 61.4308 102.198 61.61 104.988 61.815C105.312 61.8388 105.636 61.863 105.961 61.8871C108.425 62.0707 110.907 62.2556 113.39 62.2971C124.81 62.4879 134.372 59.4523 141.565 53.5373C148.759 47.6221 153.537 38.8647 155.458 27.6963C155.933 24.9347 156.253 22.1489 156.57 19.3793L156.572 19.3662C156.889 16.5964 157.204 13.8427 157.672 11.1174C159.966 -2.26512 166.143 -13.1751 178.185 -20.0485C188.513 -25.9433 197.523 -32.821 203.668 -43.7519Z" stroke="black" stroke-opacity="0.41"/>
    <path d="M493.352 227.023C493.544 218.546 494.022 212.566 493.717 206.622C493.397 200.375 495.564 194.422 501.491 189.774C525.925 170.611 527.209 147.555 529.396 124.732C531.108 106.866 528.688 89.1066 526.543 71.3851C524.374 53.457 530.076 35.7936 533.068 18.0658C533.909 13.0798 535.349 8.08898 535.274 3.07576C534.905 -21.6656 538.052 -46.4323 537.342 -71.1911C537.065 -80.8326 535.619 -90.3036 534.007 -99.7587C531.748 -113.003 538.655 -123.272 555.022 -130.767C568.926 -137.133 580.474 -145.008 591.505 -153.461C607.589 -165.787 613.638 -166.144 632.463 -156.472C638.936 -153.147 645.77 -150.568 653.374 -148.55C664.265 -145.661 671.277 -140.613 669.709 -131.891C667.349 -118.76 672.949 -106.755 678.449 -94.5482C685.085 -79.8217 689.343 -64.6202 688.335 -48.9122C687.19 -31.0649 693.595 -13.6247 691.038 4.38008C689.544 14.8976 699.04 23.5817 707.632 31.4656C724.356 46.8104 722.211 63.3743 712.158 79.6097C705.111 90.9905 699.811 102.141 700.294 114.173C700.815 127.145 694.299 138.467 683.041 148.921C676.061 155.403 670.29 162.012 670.026 170.37C669.758 178.831 670.47 186.744 679.231 193.376C689.808 201.383 685.902 206.526 670.267 210.393C667.686 211.031 665.011 211.518 662.339 211.941C646.695 214.411 637.364 221.17 632.758 231.287C628.71 240.18 622.711 248.434 614.543 256.099C595.088 274.356 552.359 284.026 521.169 277.112C507.603 274.106 500.718 267.415 497.469 258.51C493.409 247.382 493.312 235.954 493.352 227.023Z" fill="#E8E4DE"/>
    <path d="M497.939 258.324C493.913 247.289 493.812 235.944 493.853 227.012C493.915 224.261 494.008 221.766 494.094 219.445C494.272 214.649 494.423 210.6 494.217 206.579C493.904 200.481 496.01 194.697 501.791 190.163C525.479 171.585 527.576 149.339 529.645 127.385C529.728 126.51 529.81 125.636 529.894 124.762C531.506 107.936 529.466 91.2081 527.438 74.5809C527.305 73.4895 527.172 72.3985 527.04 71.308C525.964 62.4131 526.838 53.5701 528.363 44.7183C529.108 40.3917 530.007 36.0697 530.908 31.7389L530.97 31.4399C531.892 27.0121 532.811 22.5749 533.561 18.132C533.799 16.7224 534.079 15.3382 534.362 13.944C534.582 12.859 534.803 11.7678 535.007 10.6539C535.465 8.14391 535.812 5.60552 535.774 3.05079C535.598 -8.72885 536.221 -20.5162 536.845 -32.3255C536.875 -32.8977 536.905 -33.47 536.935 -34.0423C537.587 -46.4198 538.198 -58.8204 537.842 -71.2229C537.564 -80.9017 536.112 -90.4019 534.5 -99.8594C533.39 -106.369 534.533 -112.112 537.941 -117.149C541.358 -122.2 547.083 -126.589 555.217 -130.313C569.17 -136.703 580.754 -144.603 591.8 -153.068C599.839 -159.229 605.264 -162.308 610.975 -162.717C616.697 -163.128 622.805 -160.865 632.222 -156.026C638.729 -152.683 645.595 -150.092 653.23 -148.067C658.645 -146.63 663.032 -144.672 665.866 -142.036C668.675 -139.425 669.969 -136.145 669.217 -131.962C666.881 -118.965 672.244 -107.075 677.603 -95.1923C677.733 -94.9048 677.862 -94.6173 677.992 -94.3298C684.61 -79.6418 688.837 -64.5234 687.836 -48.9267C687.31 -40.7202 688.369 -32.6022 689.423 -24.5326C689.522 -23.7694 689.622 -23.0067 689.72 -22.2443C690.859 -13.4011 691.811 -4.60074 690.543 4.32688C689.77 9.76612 691.848 14.6934 695.145 19.2141C698.419 23.7021 702.942 27.8523 707.206 31.7646L707.287 31.8393C715.574 39.4429 719.145 47.3055 719.436 55.2395C719.729 63.1896 716.732 71.287 711.735 79.3574C704.678 90.755 699.305 102.018 699.795 114.211C700.307 126.978 693.903 138.163 682.708 148.56C675.731 155.039 669.798 161.781 669.526 170.371C669.391 174.614 669.499 178.778 670.766 182.726C672.037 186.689 674.465 190.406 678.92 193.778C681.544 195.765 683.218 197.537 684.046 199.113C684.861 200.664 684.848 201.993 684.148 203.197C683.423 204.446 681.914 205.644 679.548 206.779C677.194 207.909 674.056 208.945 670.163 209.908C667.602 210.541 664.943 211.026 662.278 211.447C646.513 213.937 637.002 220.775 632.304 231.093C628.287 239.918 622.331 248.117 614.208 255.74C604.574 264.781 589.127 271.733 572.163 275.557C555.207 279.38 536.803 280.062 521.293 276.624L521.169 277.112L521.293 276.624C507.868 273.649 501.125 267.058 497.939 258.324Z" stroke="black" stroke-opacity="0.41"/>
    </g>
    <defs>
    <clipPath id="clip0_115_722">
    <rect width="880" height="112" fill="white"/>
    </clipPath>
    </defs>
</svg>