<svg preserveAspectRatio="none" width="880" height="112" viewBox="0 0 880 112" fill="none" xmlns="http://www.w3.org/2000/svg">
    <g clip-path="url(#clip0_115_729)">
    <rect width="880" height="112" fill="#E8E3DD"/>
    <path d="M114.135 139.74C97.9887 126.162 81.2555 113.328 65.6568 99.1294C48.881 83.8591 31.8812 71.8396 15.6896 66.7143C9.82579 64.8582 2.62286 60.1809 -4.24368 55.6726C-11.0808 51.1836 -13.8912 47.246 -11.8568 45.3339C-10.771 44.3135 -8.76612 44.058 -7.25903 43.3828C-1.73473 40.9079 0.69759 36.1098 -0.490049 28.4919C-1.08681 24.6641 -1.11603 21.1573 -0.594987 18.0798C0.184191 13.479 -0.79289 7.96152 -4.57065 0.55017C-8.97004 -8.08077 -7.25315 -8.52238 4.02645 -3.57387C8.35385 -1.67531 13.0136 0.806408 17.4172 2.82993C35.2823 11.0391 42.7375 8.55523 37.926 -4.01523C36.7331 -7.13184 35.0197 -10.5321 33.8242 -13.6501C30.8864 -21.3126 31.8836 -26.0605 38.9833 -26.1411C44.9723 -26.2092 49.5557 -27.3545 50.5093 -32.0096C51.3164 -35.9508 55.7224 -33.8096 63.8467 -26.2871C73.3742 -17.4655 78.9501 -9.23582 83.5794 -1.78519C93.5473 14.2577 107.611 30.4312 126.809 47.6885C131.826 52.1979 139.745 59.1387 137.813 60.9658C135.691 62.974 127.923 55.8797 122.438 51.8663C95.1706 31.9141 80.9149 28.4883 80.8047 42.0357C80.7637 47.0869 80.0579 51.6018 76.9832 54.4149C75.7116 55.5779 74.5693 56.9306 74.3967 58.9114C73.1065 73.7283 96.7823 108.346 126.396 134.684C138.406 145.365 148.985 155.82 156.318 166.256C158.594 169.495 162.229 173.776 159.653 174.284C156.696 174.868 151.994 170.094 148.194 167.081C136.791 158.039 125.481 148.863 114.135 139.74Z" fill="#E8E4DE"/>
    <path d="M38.989 -25.6411L38.9833 -26.1411L38.989 -25.6411C41.9993 -25.6753 44.7254 -25.9787 46.8342 -26.8968C48.9759 -27.8292 50.4853 -29.4008 50.9991 -31.9093L50.9991 -31.9093C51.1828 -32.8059 51.5372 -33.2127 51.9611 -33.3657C52.4285 -33.5345 53.1568 -33.4664 54.2315 -32.9901C56.3649 -32.0446 59.4433 -29.6828 63.507 -25.9202L63.8467 -26.2871L63.507 -25.9202C72.9879 -17.1417 78.5364 -8.95421 83.1547 -1.52132C93.1542 14.5724 107.252 30.7813 126.475 48.0604C126.697 48.2598 126.924 48.4639 127.156 48.6718C129.552 50.8213 132.412 53.3883 134.552 55.6747C135.729 56.9321 136.66 58.076 137.178 58.9994C137.439 59.4632 137.573 59.8337 137.604 60.1109C137.633 60.3696 137.57 60.5075 137.47 60.6026C137.325 60.7397 137.113 60.8237 136.78 60.8161C136.437 60.8084 136.001 60.7031 135.473 60.4914C134.416 60.0684 133.113 59.2722 131.673 58.2645C130.239 57.2609 128.697 56.0682 127.164 54.8697C126.958 54.7092 126.753 54.5486 126.548 54.3884C125.229 53.3552 123.927 52.3366 122.733 51.4628C109.099 41.4863 98.6465 35.5847 91.5528 33.9021C88.0076 33.0612 85.1844 33.2463 83.231 34.644C81.2646 36.0509 80.3329 38.5734 80.3047 42.0316C80.2638 47.0783 79.5491 51.3896 76.6457 54.046C75.3472 55.2336 74.0878 56.6957 73.8986 58.8681L74.3967 58.9114L73.8986 58.8681C73.565 62.6988 74.8437 67.7343 77.3545 73.4976C79.8717 79.2758 83.6535 85.8433 88.395 92.7599C97.8784 106.594 111.228 121.863 126.064 135.058C138.067 145.733 148.611 156.157 155.909 166.544C156.258 167.041 156.632 167.553 157.008 168.067C157.885 169.269 158.771 170.482 159.37 171.54C159.803 172.305 160.029 172.895 160.039 173.284C160.044 173.461 160.003 173.553 159.958 173.607C159.911 173.664 159.805 173.745 159.556 173.794C158.965 173.91 158.23 173.767 157.355 173.373C156.486 172.982 155.536 172.37 154.537 171.63C153.541 170.891 152.515 170.04 151.494 169.178C151.309 169.022 151.124 168.865 150.94 168.709C150.11 168.007 149.289 167.311 148.505 166.69C140.305 160.187 132.153 153.616 124 147.044C120.819 144.479 117.638 141.915 114.453 139.354C108.821 134.617 103.124 129.977 97.4326 125.341C86.7839 116.667 76.153 108.008 65.9934 98.7597C49.2007 83.4739 32.1362 71.3959 15.8405 66.2376C10.0571 64.407 2.9181 59.7766 -3.96925 55.2546C-7.36863 53.0227 -9.72243 50.9552 -10.9733 49.242C-11.5997 48.384 -11.9205 47.6539 -11.9905 47.0657C-12.0572 46.5051 -11.9002 46.0609 -11.5144 45.6983C-11.0578 45.2692 -10.3788 44.9776 -9.55742 44.7031C-9.33613 44.6292 -9.10222 44.5559 -8.86281 44.481C-8.25695 44.2913 -7.61583 44.0906 -7.05461 43.8391C-4.20213 42.5612 -2.11381 40.6651 -0.904588 38.0776C0.300456 35.4991 0.607665 32.2871 0.00398347 28.4149C-0.586247 24.629 -0.612319 21.1774 -0.102004 18.1632C0.701493 13.4189 -0.319432 7.78936 -4.12519 0.323104C-5.22504 -1.83464 -5.91701 -3.43346 -6.18324 -4.54748C-6.31681 -5.10645 -6.32919 -5.48931 -6.27099 -5.73878C-6.22027 -5.95617 -6.11907 -6.0718 -5.94933 -6.14693C-5.74545 -6.23719 -5.40462 -6.28253 -4.86601 -6.22245C-4.33626 -6.16336 -3.66671 -6.00856 -2.84197 -5.75323C-1.1928 -5.24266 1.0071 -4.3525 3.82557 -3.11599C5.97801 -2.17166 8.21578 -1.08108 10.4724 0.0297617C10.7346 0.158841 10.9971 0.288202 11.2597 0.417632C13.2539 1.40041 15.2561 2.38714 17.2085 3.28426C21.6921 5.34454 25.5416 6.74297 28.7225 7.4785C31.8906 8.21106 34.4556 8.30055 36.3336 7.67403C37.2817 7.35773 38.0611 6.85653 38.6449 6.16063C39.2283 5.46521 39.5947 4.601 39.7573 3.59139C40.0796 1.58973 39.6072 -1.02166 38.393 -4.19396C37.7908 -5.76718 37.0584 -7.40907 36.3327 -9.03585L36.3306 -9.04054C35.6032 -10.671 34.8825 -12.2864 34.291 -13.8291C32.828 -17.6452 32.4059 -20.5974 33.1106 -22.5707C33.4547 -23.5344 34.0722 -24.2783 35.0102 -24.795C35.9602 -25.3183 37.2643 -25.6215 38.989 -25.6411Z" stroke="black" stroke-opacity="0.41"/>
    <path d="M454.145 89.2262C458.36 91.0778 461.602 94.5512 465.445 97.1401C476.165 104.364 488.132 109.085 499.299 115.407C502.234 117.069 505.246 118.591 508.154 120.301C509.362 121.012 510.921 121.73 510.454 123.634C510.031 125.354 508.487 125.584 507.09 125.867C506.092 126.069 505.043 126.126 504.014 126.111C499.575 126.046 495.451 126.912 491.618 129.194C487.89 131.413 483.995 131.263 479.698 129.789C474.069 127.859 468.963 124.988 463.931 121.923C459.39 119.158 454.683 116.936 449.575 115.686C447.288 115.127 445.125 114.324 443.635 112.361C437.604 104.414 429.47 99.0056 421.13 94.2173C409.058 87.2875 397.592 79.349 385.535 72.426C381.712 70.2312 378.075 67.6364 373.72 66.5305C372.546 66.2325 371.413 65.4621 370.41 64.7027C364.504 60.2286 358.396 56.1834 351.284 53.9956C350.117 53.6368 349.054 52.8039 348.015 52.0816C346.141 50.7794 346.952 49.4127 348.237 48.6337C350.414 47.3146 352.886 47.0207 355.351 48.2149C356.864 48.9482 358.352 49.7727 359.758 50.7054C363.701 53.3214 367.889 54.8884 372.591 55.3072C379.091 55.8861 385.222 58.5127 390.803 61.6854C398.929 66.3047 407.587 69.3483 416.13 72.7018C423.353 75.5375 429.9 79.8747 437.279 82.3063C443.012 84.1954 448.983 85.5167 454.145 89.2262Z" fill="#E8E4DE"/>
    <path d="M453.908 89.6697L453.866 89.6389C449.786 86.7072 445.206 85.2974 440.559 83.8668C439.419 83.5159 438.276 83.1638 437.134 82.7877C433.406 81.5593 429.896 79.852 426.433 78.109C426.032 77.9068 425.631 77.7043 425.23 77.5019C422.169 75.9545 419.129 74.4185 415.959 73.1739C414.547 72.6195 413.129 72.073 411.71 71.5257C404.568 68.7714 397.38 65.9994 390.568 62.1268C385.016 58.9704 378.956 56.3812 372.555 55.8112L372.591 55.3072L372.555 55.8112C367.766 55.3847 363.5 53.7871 359.494 51.1288C358.11 50.2108 356.642 49.3971 355.145 48.6717C352.848 47.5589 350.549 47.8241 348.493 49.0701C347.892 49.4342 347.509 49.8768 347.424 50.2769C347.355 50.5978 347.445 51.0784 348.288 51.6643L348.015 52.0816L348.288 51.6643C348.448 51.7753 348.605 51.8867 348.761 51.9969C349.66 52.6325 350.506 53.2303 351.42 53.5113C358.617 55.7252 364.781 59.8141 370.7 64.2976C371.701 65.0557 372.764 65.7685 373.832 66.0396C377.349 66.9327 380.423 68.7845 383.419 70.59C384.206 71.0645 384.988 71.5358 385.772 71.9856C391.805 75.4497 397.689 79.1667 403.564 82.8781L403.582 82.8896C409.466 86.6068 415.341 90.3181 421.366 93.7769C429.719 98.5722 437.927 104.021 444.024 112.054C445.403 113.87 447.418 114.64 449.683 115.194C454.855 116.459 459.609 118.706 464.179 121.489C469.204 124.55 474.272 127.397 479.848 129.31L479.698 129.789L479.848 129.31C484.064 130.756 487.8 130.878 491.365 128.756C495.289 126.42 499.504 125.539 504.014 125.606C505.022 125.62 506.034 125.564 506.988 125.37L453.908 89.6697ZM453.908 89.6697L453.956 89.6907M453.908 89.6697L453.956 89.6907M453.956 89.6907C456.005 90.5906 457.829 91.8899 459.638 93.3069C460.128 93.6901 460.618 94.0834 461.111 94.4794C462.427 95.5355 463.766 96.6103 465.177 97.5615C470.566 101.192 476.261 104.19 481.992 107.065C483.253 107.698 484.515 108.324 485.776 108.95C490.254 111.172 494.719 113.388 499.065 115.849C500.336 116.568 501.603 117.252 502.865 117.934C504.558 118.847 506.242 119.756 507.912 120.739C508.014 120.798 508.114 120.856 508.213 120.913C508.743 121.22 509.228 121.499 509.581 121.87C509.779 122.078 509.916 122.298 509.988 122.546C510.058 122.792 510.073 123.101 509.974 123.504L509.974 123.504M453.956 89.6907L509.974 123.504M509.974 123.504C509.803 124.2 509.421 124.58 508.915 124.834M509.974 123.504L508.915 124.834M508.915 124.834C508.419 125.083 507.826 125.202 507.173 125.333M508.915 124.834L507.173 125.333M507.173 125.333C507.112 125.345 507.05 125.358 506.988 125.37L507.173 125.333Z" stroke="black" stroke-opacity="0.41"/>
    <path d="M614.596 353.298C606.993 349.546 601.882 346.347 596.226 344.421C590.283 342.397 586.442 336.497 586.565 325.09C587.073 278.065 566.955 266.633 547.715 253.845C532.655 243.835 514.646 240.504 496.874 236.746C478.894 232.944 466.961 216.609 452.97 204.6C449.035 201.222 445.537 196.882 440.902 194.965C418.025 185.503 397.718 170.383 374.574 161.462C365.562 157.988 355.842 156.462 346.015 155.208C332.25 153.452 327.96 138.188 333.18 108.858C337.615 83.9432 338.935 62.1971 339.345 41.0483C339.943 10.2084 344.076 0.349579 366.792 -25.9506C374.603 -34.9936 381.998 -44.9196 389.447 -56.3108C400.118 -72.6272 409.899 -81.8363 416.713 -75.7736C426.969 -66.6474 442.065 -70.7605 457.273 -74.6326C475.62 -79.3039 492.648 -79.9648 506.256 -71.9627C521.718 -62.8705 542.374 -66.069 556.938 -54.6452C565.446 -47.9715 580.381 -59.6913 593.919 -70.2857C620.269 -90.9067 633.82 -80.7293 641.241 -57.9872C646.443 -42.0454 652.723 -29.0039 664.072 -24.8896C676.307 -20.4541 681.847 -5.38835 683.098 16.9386C683.873 30.7816 685.657 42.7349 693.098 46.5567C700.631 50.4258 708.385 52.498 720.903 41.1243C736.017 27.3927 737.837 35.7545 729.842 62.4338C728.522 66.8396 726.995 71.3324 725.41 75.7956C716.134 101.922 715.429 119.653 721.276 131.161C726.415 141.276 729.534 154.263 730.515 170.495C732.85 209.159 710.181 281.706 680.868 328.985C668.119 349.547 656.93 357.886 646.398 359.484C633.238 361.481 622.726 356.993 614.596 353.298Z" fill="#E8E4DE"/>
    <path d="M680.45 328.706L680.868 328.985L680.45 328.706C667.726 349.228 656.637 357.417 646.316 358.983C633.31 360.956 622.915 356.529 614.795 352.839C612.314 351.615 610.106 350.453 608.051 349.372C606.962 348.799 605.915 348.248 604.894 347.723C601.952 346.21 599.235 344.915 596.372 343.94C593.52 342.969 591.177 341.074 589.552 338.038C587.919 334.988 586.997 330.757 587.058 325.107C587.313 301.517 582.393 286.784 574.941 276.335C568.07 266.701 559.071 260.755 550.175 254.877C549.441 254.392 548.708 253.907 547.977 253.421C533.757 243.97 516.932 240.441 500.256 236.943C499.157 236.712 498.059 236.482 496.963 236.25C488.093 234.374 480.692 229.404 473.74 223.367C470.34 220.415 467.058 217.218 463.765 214.01L463.539 213.79C460.174 210.512 456.793 207.228 453.282 204.214C452.309 203.379 451.362 202.483 450.408 201.571C450.286 201.454 450.163 201.337 450.04 201.219C449.21 200.425 448.373 199.623 447.518 198.856C445.558 197.096 443.473 195.486 441.077 194.495C430.197 189.996 419.898 184.211 409.565 178.408C409.066 178.128 408.567 177.848 408.067 177.567C397.241 171.491 386.349 165.463 374.739 160.988C365.666 157.491 355.894 155.96 346.065 154.705C342.712 154.278 339.966 153.033 337.798 150.981C335.627 148.925 334.004 146.029 332.952 142.245C330.844 134.659 331.059 123.605 333.666 108.96C338.106 84.0098 339.428 62.2348 339.838 41.0696C340.136 25.6658 341.319 15.5696 345.229 6.0523C349.144 -3.47405 355.809 -12.462 367.165 -25.6096C374.991 -34.6712 382.399 -44.6151 389.859 -56.0219C395.187 -64.1705 400.264 -70.4946 404.829 -74.0272C407.11 -75.7929 409.226 -76.8315 411.151 -77.082C413.052 -77.3294 414.799 -76.8135 416.394 -75.3938C421.659 -70.7093 428.146 -69.4475 435.173 -69.8227C441.872 -70.1805 449.131 -72.0317 456.382 -73.8806C456.722 -73.9674 457.062 -74.0541 457.402 -74.1406C475.713 -78.8028 492.582 -79.4254 506.019 -71.5243C513.161 -67.3239 521.395 -65.72 529.537 -64.134C530.309 -63.9835 531.081 -63.8332 531.851 -63.6808C540.774 -61.9148 549.468 -59.874 556.645 -54.2449C558.899 -52.4765 561.566 -51.9435 564.468 -52.2802C567.359 -52.6156 570.506 -53.8152 573.775 -55.538C580.271 -58.9616 587.38 -64.5244 594.102 -69.7853L594.223 -69.88C607.364 -80.164 617.158 -82.6397 624.521 -79.9212C631.898 -77.1975 637.073 -69.1766 640.774 -57.8358C643.379 -49.8528 646.265 -42.5574 649.939 -36.7342C653.617 -30.9061 658.104 -26.5197 663.918 -24.4121C669.869 -22.2545 674.223 -17.5073 677.254 -10.488C680.29 -3.4575 681.982 5.82073 682.606 16.9565C682.994 23.8819 683.635 30.3808 685.125 35.6372C686.613 40.8876 688.977 45.0018 692.885 47.009C696.677 48.9568 700.602 50.4944 705.187 50.0612C709.771 49.628 714.931 47.2341 721.235 41.5072C725.009 38.0784 727.893 36.0873 729.963 35.3911C730.993 35.0446 731.755 35.0416 732.308 35.2679C732.842 35.487 733.275 35.9605 733.577 36.7925C733.882 37.6353 734.037 38.8071 734.019 40.329C734.001 41.8451 733.813 43.6768 733.457 45.8219C732.745 50.1121 731.366 55.6137 729.37 62.2749C728.054 66.6692 726.53 71.1532 724.946 75.6126C715.661 101.763 714.889 119.676 720.84 131.387C725.937 141.419 729.045 154.329 730.022 170.515C731.185 189.753 726.123 217.486 717.09 246.345C708.06 275.193 695.08 305.109 680.45 328.706Z" stroke="black" stroke-opacity="0.41"/>
    </g>
    <defs>
    <clipPath id="clip0_115_729">
    <rect width="880" height="112" fill="white"/>
    </clipPath>
    </defs>
</svg>