<svg preserveAspectRatio="none" width="880" height="355" viewBox="0 0 880 355" fill="none" xmlns="http://www.w3.org/2000/svg">
    <g clip-path="url(#clip0_468_61)">
    <rect width="880" height="355" fill="#E8E3DD"/>
    <path d="M125.178 99.3648C123.481 113.031 126.169 126.548 120.644 140.315C114.701 155.12 121.092 168.321 149.895 177.597C160.326 180.956 164.527 186.333 168.353 191.484C172.163 196.614 166.212 199.813 153.409 199.981C146.577 200.071 139.812 199.387 132.992 199.124C107.99 198.163 83.6586 199.673 59.7525 204.131C47.7404 206.371 35.2262 208.212 22.6499 209.605C3.84826 211.687 -13.1257 214.964 -28.7366 220.37C-46.9165 226.666 -53.5097 226.196 -68.6238 219.015C-74.4221 216.261 -79.0942 213.066 -84.6659 210.215C-107.269 198.649 -137.934 196.904 -169.066 205.423C-176.784 207.535 -184.004 210.007 -191.72 212.121C-210.683 217.316 -230.649 219.386 -251.643 216.533C-269.352 214.126 -286.833 212.855 -306.339 214.894C-322.852 216.621 -328.007 213.707 -324.672 206.471C-320.762 197.985 -307.455 191.418 -294.186 185.644C-265.615 173.212 -248.518 159.041 -242.503 142.211C-240.931 137.814 -239.086 130.964 -226.889 130.799C-213.486 130.617 -216.32 137.485 -214.744 141.815C-206.913 163.34 -177.65 170.94 -128.655 163.919C-110.388 161.301 -92.1085 159.233 -73.0352 159.02C-65.1488 158.932 -56.9574 158.692 -49.3376 157.729C7.65839 150.526 62.9896 122.816 71.2589 97.0026C74.6123 86.5345 81.322 76.7673 97.4341 68.3333C102.434 65.7161 107.213 62.0011 116.551 62.7862C127.272 63.6874 123.833 68.095 124.089 71.2155C124.856 80.5816 124.87 89.9794 125.178 99.3648Z" fill="#E8E4DE"/>
    <path d="M-324.218 206.68L-324.218 206.68C-322.326 202.574 -318.126 198.875 -312.673 195.464C-307.233 192.062 -300.618 188.989 -293.986 186.103C-265.381 173.655 -248.119 159.411 -242.032 142.38C-241.962 142.185 -241.892 141.987 -241.821 141.785C-241.081 139.682 -240.229 137.262 -238.319 135.264C-236.25 133.1 -232.88 131.38 -226.882 131.299C-220.245 131.209 -217.856 132.866 -216.825 134.846C-216.287 135.878 -216.083 137.058 -215.917 138.307C-215.896 138.47 -215.875 138.635 -215.854 138.801C-215.718 139.873 -215.576 140.992 -215.214 141.986C-211.225 152.95 -201.785 160.316 -187.261 164.056C-172.75 167.793 -153.11 167.928 -128.584 164.414C-110.325 161.797 -92.0709 159.733 -73.0295 159.52C-65.1402 159.432 -56.9247 159.192 -49.2748 158.225C-20.7227 154.617 7.41413 145.873 29.4578 134.792C40.4797 129.251 49.9907 123.12 57.2716 116.744C64.5463 110.374 69.6289 103.73 71.7351 97.1552C75.0465 86.8179 81.6649 77.1522 97.6661 68.7763C98.4168 68.3833 99.1583 67.9688 99.9068 67.5503C104.194 65.1538 108.71 62.6288 116.51 63.2844C119.163 63.5075 120.887 63.9444 121.994 64.4927C123.082 65.0315 123.56 65.6677 123.768 66.3206C123.987 67.0059 123.934 67.7776 123.816 68.6406C123.796 68.7856 123.774 68.9345 123.751 69.086C123.646 69.7919 123.533 70.5552 123.591 71.2562C124.141 77.9777 124.303 84.7086 124.465 91.4562C124.528 94.0821 124.591 96.7106 124.677 99.342C124.087 104.115 124.027 108.887 123.968 113.625C123.942 115.685 123.916 117.74 123.847 119.785C123.617 126.572 122.91 133.325 120.18 140.128C117.162 147.648 117.256 154.837 121.832 161.318C126.38 167.76 135.303 173.423 149.742 178.073C160.026 181.385 164.148 186.662 167.952 191.782C168.858 193.003 169.117 194.018 168.937 194.846C168.757 195.676 168.106 196.463 166.866 197.157C164.371 198.554 159.791 199.398 153.403 199.481C149.001 199.539 144.647 199.275 140.267 199.01C137.86 198.864 135.446 198.718 133.011 198.625C107.976 197.662 83.6074 199.174 59.6607 203.64C47.6614 205.877 35.1594 207.717 22.5948 209.108C3.77009 211.193 -13.2431 214.475 -28.9003 219.897C-37.9789 223.041 -44.0983 224.471 -49.8104 224.247C-55.516 224.023 -60.8677 222.147 -68.4093 218.564C-71.2887 217.196 -73.8913 215.717 -76.4793 214.219C-76.78 214.045 -77.0805 213.87 -77.3813 213.696C-79.6656 212.37 -81.9638 211.036 -84.4382 209.77C-107.18 198.132 -137.979 196.398 -169.198 204.941C-173.066 205.999 -176.807 207.147 -180.541 208.293L-180.565 208.301C-184.292 209.445 -188.011 210.587 -191.853 211.639C-210.76 216.819 -230.658 218.88 -251.575 216.037C-269.306 213.628 -286.83 212.352 -306.391 214.397C-310.504 214.827 -313.895 214.966 -316.613 214.825C-319.338 214.683 -321.35 214.26 -322.731 213.593C-324.095 212.935 -324.816 212.057 -325.048 210.977C-325.287 209.867 -325.032 208.446 -324.218 206.68Z" stroke="black" stroke-opacity="0.41"/>
    <path d="M197.174 382.832C183.558 393.587 166.252 398.252 150.835 406.47C107.819 429.401 70.9493 460.881 30.1526 486.881C19.4274 493.716 9.03593 501.05 -1.80171 507.708C-6.30506 510.475 -11.4524 514.395 -16.9763 509.487C-21.9646 505.056 -20.0046 499.515 -18.4834 494.373C-17.3955 490.697 -15.7349 487.109 -13.8677 483.713C-5.81282 469.066 -1.42087 453.831 -2.2615 437.066C-3.07896 420.764 4.29834 408.075 16.8 396.382C33.1765 381.063 51.7642 369.14 70.8684 357.803C88.1056 347.575 103.825 335.835 117.011 321.05C122.916 314.429 129.411 308.652 138.587 307.153C175.737 301.089 208.129 283.566 238.822 264.262C283.243 236.323 329.958 212.173 374.331 184.27C388.399 175.423 403.474 167.896 414.851 155.362C417.916 151.984 422.487 149.571 426.789 147.575C452.136 135.812 476.408 122.626 496.26 102.828C499.517 99.5807 504.172 97.511 508.416 95.3265C516.066 91.3878 519.192 96.4911 519.52 102.136C520.075 111.698 516.69 120.435 508.356 126.528C503.239 130.27 497.863 133.766 492.27 136.799C476.586 145.303 463.967 156.47 454.269 171.367C440.861 191.964 421.278 207.725 400.845 220.697C371.096 239.583 345.66 263.015 319.395 285.516C297.185 304.544 271.164 318.676 250.027 338.933C233.606 354.67 218.658 372.197 197.174 382.832Z" fill="#E8E4DE"/>
    <path d="M196.939 382.392L196.892 382.415L196.851 382.448C190.094 387.785 182.41 391.62 174.464 395.154C172.289 396.121 170.091 397.067 167.888 398.015C162.062 400.523 156.196 403.048 150.587 406.037C129.05 417.519 109.057 431.137 89.3593 445.125C85.0358 448.196 80.7269 451.284 76.4192 454.371C61.0942 465.354 45.7828 476.327 29.8711 486.468C25.2863 489.39 20.779 492.391 16.277 495.389C10.2089 499.43 4.15024 503.465 -2.0762 507.29C-2.4293 507.507 -2.78329 507.729 -3.13847 507.951C-5.09004 509.174 -7.07781 510.42 -9.15236 511.002C-10.3619 511.341 -11.5774 511.445 -12.8071 511.187C-14.0353 510.929 -15.3128 510.302 -16.637 509.125L-16.9763 509.487L-16.637 509.125C-19.0046 507.022 -19.7181 504.676 -19.6641 502.213C-19.6142 499.938 -18.9115 497.584 -18.2065 495.222C-18.1362 494.986 -18.0659 494.751 -17.9961 494.515C-16.9212 490.883 -15.2773 487.327 -13.4201 483.949C-5.33122 469.241 -0.909299 453.918 -1.75521 437.048C-2.56321 420.935 4.71504 408.373 17.1537 396.739C33.4896 381.459 52.0389 369.558 71.1364 358.225C88.4027 347.979 104.166 336.209 117.396 321.375C123.285 314.771 129.682 309.108 138.677 307.64C175.932 301.557 208.397 283.988 239.101 264.676C261.301 250.714 284.076 237.697 306.856 224.678L306.913 224.645C329.67 211.639 352.432 198.631 374.61 184.685C377.548 182.837 380.537 181.044 383.532 179.247C394.82 172.473 406.194 165.649 415.232 155.691C418.225 152.394 422.711 150.016 427.012 148.02C452.373 136.251 476.71 123.035 496.626 103.175L496.26 102.828L496.626 103.175C499.345 100.463 503.062 98.5894 506.759 96.7262C507.394 96.4062 508.028 96.0865 508.657 95.7628C512.381 93.8457 514.828 94.205 516.386 95.5094C518.006 96.8659 518.852 99.3843 519.014 102.158C519.561 111.578 516.232 120.15 508.049 126.133C502.946 129.864 497.588 133.348 492.019 136.367C476.268 144.908 463.585 156.129 453.839 171.1C440.486 191.613 420.969 207.329 400.564 220.283C375.719 236.056 353.875 254.998 332.081 273.896C327.745 277.656 323.412 281.414 319.057 285.144C309.257 293.541 298.712 300.982 288.152 308.435C286.77 309.41 285.388 310.386 284.007 311.364C272.083 319.808 260.266 328.423 249.669 338.579C246.443 341.671 243.278 344.826 240.114 347.981C227.125 360.932 214.142 373.876 196.939 382.392Z" stroke="black" stroke-opacity="0.41"/>
    <path d="M682.227 -22.2142C695.703 -22.116 705.215 -21.6726 714.661 -22.0811C724.587 -22.5102 734.073 -20.2307 741.523 -13.8466C772.238 12.4728 808.902 13.5707 845.205 15.6542C873.621 17.2846 901.827 14.4237 929.975 11.8628C958.452 9.2721 986.589 15.2433 1014.8 18.2677C1022.73 19.1181 1030.68 20.6191 1038.65 20.4727C1077.98 19.7511 1117.38 22.8536 1156.73 21.7611C1172.05 21.3358 1187.09 19.6403 1202.11 17.7654C1223.13 15.1386 1239.53 22.5152 1251.61 40.2146C1261.88 55.2499 1274.52 67.7051 1288.07 79.5892C1307.83 96.919 1308.46 103.491 1293.28 124.085C1288.06 131.166 1284.03 138.63 1280.9 146.923C1276.42 158.803 1268.47 166.493 1254.59 164.901C1233.69 162.504 1214.67 168.748 1195.32 174.886C1171.98 182.291 1147.86 187.118 1122.88 186.226C1094.5 185.211 1066.84 192.401 1038.19 189.853C1021.46 188.365 1007.75 198.802 995.311 208.246C971.092 226.629 944.74 224.51 918.828 213.789C900.663 206.274 882.884 200.656 863.762 201.337C843.147 202.07 825.082 195.132 808.347 183.026C797.972 175.521 787.405 169.332 774.117 169.152C760.664 168.97 748.093 169.846 737.642 179.458C725.024 191.062 716.807 186.882 710.499 169.932C709.456 167.133 708.654 164.231 707.956 161.331C703.866 144.354 693.025 134.295 676.895 129.418C662.718 125.131 649.534 118.716 637.265 109.934C608.041 89.0152 592.226 42.6809 602.893 8.67784C607.532 -6.11044 618.095 -13.6841 632.217 -17.3316C649.865 -21.8895 668.029 -22.1426 682.227 -22.2142Z" fill="#E8E4DE"/>
    <path d="M603.371 8.84243L603.371 8.84242C607.948 -5.74898 618.353 -13.23 632.358 -16.8473C649.939 -21.3879 668.044 -21.6428 682.244 -21.7144C686.639 -21.6823 690.617 -21.6134 694.311 -21.5493C701.923 -21.4174 708.33 -21.3063 714.7 -21.5817C724.54 -22.0072 733.884 -19.7457 741.206 -13.472C770.894 11.968 806.115 13.9512 841.021 15.9168C842.413 15.9951 843.803 16.0735 845.194 16.1532C871.906 17.6859 898.43 15.2556 924.851 12.8347C926.58 12.6763 928.309 12.5178 930.038 12.3606C951.172 10.4378 972.099 13.2418 993.073 16.0522C1000.29 17.0198 1007.52 17.9882 1014.76 18.7646C1016.98 19.0019 1019.2 19.2918 1021.44 19.5827C1027.15 20.3271 1032.92 21.0783 1038.68 20.9724C1057.42 20.6286 1076.17 21.1536 1094.95 21.6792C1095.86 21.7047 1096.77 21.7302 1097.68 21.7556C1117.37 22.3044 1137.07 22.8074 1156.76 22.2607C1172.11 21.8347 1187.17 20.1365 1202.18 18.2614C1212.63 16.9572 1221.89 18.1396 1230.02 21.8218C1238.16 25.5037 1245.21 31.7015 1251.2 40.4863C1261.51 55.5749 1274.18 68.0641 1287.75 79.9598C1292.68 84.2869 1296.39 87.9197 1298.96 91.2528C1301.53 94.5807 1302.93 97.583 1303.28 100.653C1303.63 103.723 1302.94 106.924 1301.19 110.657C1299.45 114.396 1296.66 118.637 1292.87 123.78C1287.63 130.896 1283.58 138.399 1280.43 146.733C1278.21 152.622 1275.15 157.425 1270.96 160.56C1266.79 163.687 1261.46 165.187 1254.63 164.404C1234.08 162.048 1215.35 167.997 1196.47 173.992C1196.03 174.131 1195.59 174.27 1195.15 174.409C1171.85 181.804 1147.78 186.616 1122.88 185.726C1109.88 185.261 1097.03 186.514 1084.2 187.764C1082.99 187.882 1081.78 188 1080.57 188.117C1066.53 189.469 1052.49 190.625 1038.22 189.355C1021.34 187.853 1007.53 198.336 995.16 207.722L995 207.844C970.967 226.086 944.819 224.008 919.005 213.328C900.82 205.804 882.958 200.153 863.726 200.837C843.248 201.566 825.293 194.677 808.631 182.625C798.236 175.106 787.559 168.834 774.106 168.652C760.641 168.47 747.895 169.337 737.296 179.084C731.012 184.863 726.004 186.539 721.871 184.937C719.786 184.129 717.848 182.464 716.03 179.922C714.212 177.379 712.535 173.986 710.967 169.772L710.499 169.932L710.967 169.772C709.935 167 709.138 164.121 708.442 161.23C706.377 152.66 702.602 145.813 697.288 140.49C691.977 135.17 685.153 131.398 677.025 128.94C662.9 124.669 649.768 118.279 637.547 109.531C623.043 99.1487 611.84 82.4364 605.593 64.0667C599.347 45.6975 598.075 25.7241 603.371 8.84243Z" stroke="black" stroke-opacity="0.41"/>
    <path d="M639.282 284.965C636.935 284.981 634.534 284.839 633.572 282.346C632.589 279.798 632.803 277.224 634.766 275.077C636.585 273.087 638.795 272.431 641.458 273.529C644.146 274.637 646.699 276.001 648.751 277.977C650.763 279.916 650.298 282.144 647.687 283.191C645.029 284.257 642.218 284.96 639.282 284.965Z" fill="#E8E4DE"/>
    <path d="M648.404 278.338C649.333 279.232 649.608 280.11 649.463 280.818C649.317 281.528 648.711 282.242 647.501 282.727L647.687 283.191L647.501 282.727C644.885 283.776 642.137 284.46 639.282 284.465L639.279 284.465C638.101 284.473 636.993 284.438 636.069 284.123C635.178 283.82 634.46 283.258 634.039 282.166L633.572 282.346L634.039 282.166C633.11 279.761 633.322 277.397 635.135 275.414C635.995 274.473 636.921 273.877 637.916 273.63C638.907 273.385 640.016 273.476 641.268 273.991L641.268 273.991C643.929 275.088 646.417 276.424 648.404 278.338ZM648.404 278.338L648.751 277.977L648.404 278.338Z" stroke="black" stroke-opacity="0.41"/>
    </g>
    <defs>
    <clipPath id="clip0_468_61">
    <rect width="880" height="355" fill="white"/>
    </clipPath>
    </defs>
</svg>
