<svg width="880" height="335" viewBox="0 0 880 335" preserveAspectRatio="none" fill="none" xmlns="http://www.w3.org/2000/svg">
    <g clip-path="url(#clip0_468_2)">
    <rect width="880" height="335" fill="#E8E3DD"/>
    <path d="M38.3562 146.158C26.9827 135.674 14.2779 126.858 4.09248 114.941C-6.86131 102.125 -20.5242 94.8533 -38.2275 98.3857C-44.6389 99.6651 -50.736 97.271 -56.5118 94.9069C-62.2628 92.553 -63.0747 88.1242 -58.9543 83.4523C-56.7553 80.9589 -53.9029 79.049 -51.4004 76.8142C-42.2273 68.6224 -35.4376 58.8812 -31.3642 47.1609C-29.3174 41.2717 -26.7549 35.4925 -23.7801 30.0152C-19.3324 21.8268 -16.5374 13.4246 -16.0573 3.96719C-15.4982 -7.04653 -12.8903 -9.05058 -1.57973 -9.23187C2.7595 -9.30132 7.10751 -8.6526 11.4553 -8.57191C29.0937 -8.24436 40.8381 -17.8834 43.7721 -35.108C44.4995 -39.3786 44.746 -43.7322 45.4711 -48.0032C47.2532 -58.4992 52.0995 -67.0927 61.589 -72.4925C69.5938 -77.0475 76.531 -82.3421 81.2506 -90.7498C85.2461 -97.8679 89.5096 -97.5942 94.7201 -91.1771C100.83 -83.6519 102.132 -74.1747 102.753 -65.284C104.092 -46.1402 110.773 -29.8182 123.472 -15.5129C126.79 -11.7749 132.159 -6.16751 128.238 -1.71243C123.93 3.18365 118.874 -2.78907 114.566 -5.35931C93.151 -18.1375 76.7582 -13.2298 66.5627 9.26171C62.7612 17.6478 58.4748 25.6398 52.3043 32.574C49.7528 35.4409 47.2321 38.526 45.5336 41.9306C32.8292 67.3973 38.596 107.099 58.391 128.7C66.4186 137.46 72.7151 146.906 74.7131 158.73C75.3332 162.4 76.9858 166.784 73.1875 169.536C68.8269 172.695 66.1224 168.286 63.3111 166.121C54.8728 159.623 46.6581 152.834 38.3562 146.158Z" fill="#E8E4DE"/>
    <path d="M81.6866 -90.5051L81.2506 -90.7498L81.6866 -90.5051C83.667 -94.0332 85.6047 -95.5225 87.5341 -95.5392C89.5005 -95.5562 91.7362 -94.0589 94.3319 -90.862L94.7196 -91.1768L94.3319 -90.862C100.335 -83.4685 101.633 -74.1346 102.255 -65.2491C103.601 -45.9987 110.324 -29.5714 123.098 -15.181C123.244 -15.0161 123.394 -14.8482 123.546 -14.6774C125.138 -12.8922 127.002 -10.8025 128.126 -8.65013C128.739 -7.4774 129.11 -6.32289 129.114 -5.221C129.117 -4.13413 128.763 -3.06602 127.863 -2.04275C126.857 -0.899834 125.848 -0.430606 124.851 -0.353801C123.835 -0.275482 122.762 -0.599615 121.63 -1.18075C120.5 -1.76144 119.359 -2.57345 118.211 -3.41923C118.058 -3.53144 117.906 -3.64436 117.753 -3.75735C116.768 -4.48622 115.778 -5.21864 114.823 -5.78869C104.052 -12.2154 94.4495 -14.2515 86.2119 -11.7534C77.9718 -9.25456 71.2371 -2.26119 66.1073 9.05527C62.3135 17.4245 58.0517 25.3631 51.9308 32.2416C49.3743 35.1141 46.8159 38.2402 45.0862 41.7074C38.6776 54.5536 36.9413 70.9541 39.2803 86.8375C41.6195 102.722 48.0429 118.147 58.0224 129.037C66.0191 137.764 72.2449 147.124 74.2201 158.814C74.3122 159.359 74.4302 159.936 74.5479 160.512C74.6278 160.903 74.7077 161.293 74.7791 161.672C74.9602 162.633 75.0996 163.577 75.1072 164.481C75.1221 166.266 74.628 167.875 72.8941 169.131C71.871 169.872 70.9854 170.142 70.2016 170.14C69.413 170.137 68.6691 169.859 67.9324 169.401C67.1911 168.94 66.484 168.314 65.7681 167.647C65.6413 167.529 65.5139 167.409 65.386 167.288C64.8047 166.741 64.2122 166.184 63.6162 165.725C57.552 161.055 51.6057 156.236 45.6537 151.413C43.3333 149.533 41.012 147.652 38.6826 145.779C34.7181 142.125 30.5868 138.669 26.4674 135.222C24.6721 133.72 22.8791 132.22 21.1031 130.706C15.238 125.707 9.53933 120.544 4.47256 114.617C-6.56212 101.706 -20.3953 94.3177 -38.3254 97.8954C-44.567 99.1409 -50.5262 96.8166 -56.3224 94.4442C-59.115 93.3011 -60.5846 91.7072 -60.945 89.9485C-61.3073 88.1803 -60.5878 86.0603 -58.5793 83.783C-57.5071 82.5672 -56.2694 81.4868 -54.9738 80.4226C-54.5998 80.1154 -54.2195 79.8085 -53.8372 79.4999C-52.9055 78.7477 -51.9617 77.9858 -51.0673 77.1872C-41.8359 68.9432 -34.9954 59.1319 -30.8919 47.325C-28.8542 41.462 -26.3028 35.7076 -23.3407 30.2538C-18.865 22.0137 -16.0425 13.539 -15.5579 3.99254C-15.2778 -1.52492 -14.4816 -4.57359 -12.5179 -6.32097C-11.5369 -7.19387 -10.2245 -7.77779 -8.43252 -8.15243C-6.63642 -8.52792 -4.39101 -8.68675 -1.57171 -8.73193C0.572827 -8.76626 2.72443 -8.62316 4.89704 -8.4596C5.14914 -8.44062 5.40158 -8.42136 5.65433 -8.40208C7.57315 -8.25567 9.5095 -8.10794 11.446 -8.07199C20.3594 -7.90647 27.8281 -10.2598 33.4451 -14.8715C39.0626 -19.4835 42.7818 -26.3164 44.265 -35.0241C44.6315 -37.1756 44.8764 -39.3456 45.1193 -41.4994L45.1204 -41.5085C45.3635 -43.6639 45.6048 -45.8031 45.9641 -47.9195C47.727 -58.3026 52.5052 -66.7483 61.8363 -72.0579C69.8774 -76.6337 76.9035 -81.9841 81.6866 -90.5051Z" stroke="black" stroke-opacity="0.41"/>
    <path d="M-93.2784 490.367C-112.057 505.243 -135.925 511.695 -157.187 523.061C-216.515 554.776 -267.364 598.314 -323.63 634.274C-338.422 643.727 -352.754 653.871 -367.701 663.079C-373.912 666.905 -381.011 672.328 -388.629 665.54C-395.509 659.411 -392.806 651.747 -390.708 644.636C-389.207 639.551 -386.917 634.588 -384.342 629.892C-373.233 609.635 -367.176 588.563 -368.335 565.376C-369.462 542.829 -359.288 525.28 -342.046 509.107C-319.46 487.921 -293.824 471.43 -267.476 455.751C-243.703 441.605 -222.023 425.368 -203.837 404.919C-195.693 395.761 -186.735 387.772 -174.079 385.699C-122.844 377.311 -78.1685 353.076 -35.8374 326.377C25.4268 287.736 89.855 254.336 151.053 215.744C170.455 203.508 191.246 193.098 206.937 175.762C211.165 171.09 217.468 167.754 223.401 164.992C258.36 148.723 291.836 130.486 319.215 103.105C323.706 98.6132 330.127 95.7507 335.979 92.7293C346.531 87.282 350.842 94.3402 351.294 102.148C352.06 115.372 347.391 127.457 335.898 135.883C328.84 141.058 321.425 145.894 313.712 150.088C292.081 161.849 274.676 177.294 261.301 197.899C242.81 226.385 215.801 248.184 187.621 266.124C146.591 292.246 111.51 324.653 75.2859 355.774C44.6547 382.09 8.7671 401.635 -20.3848 429.652C-43.0321 451.417 -63.6481 475.659 -93.2784 490.367Z" fill="#E8E4DE"/>
    <path d="M-93.5122 489.927L-93.5594 489.95L-93.6004 489.983C-102.939 497.381 -113.554 502.692 -124.517 507.581C-127.522 508.921 -130.555 510.23 -133.595 511.542C-141.628 515.009 -149.707 518.497 -157.435 522.628C-187.128 538.501 -214.694 557.329 -241.858 576.676C-247.82 580.921 -253.762 585.191 -259.702 589.461C-280.839 604.651 -301.961 619.832 -323.911 633.86C-330.226 637.896 -336.441 642.046 -342.65 646.193C-351.024 651.785 -359.387 657.37 -367.975 662.661C-368.458 662.959 -368.944 663.264 -369.433 663.571C-372.123 665.262 -374.892 667.002 -377.783 667.815C-379.474 668.291 -381.183 668.44 -382.917 668.075C-384.65 667.709 -386.442 666.824 -388.29 665.177L-388.629 665.54L-388.29 665.177C-391.604 662.225 -392.604 658.924 -392.529 655.472C-392.46 652.299 -391.483 649.019 -390.512 645.757C-390.415 645.431 -390.317 645.104 -390.221 644.777C-388.734 639.737 -386.46 634.807 -383.895 630.128C-372.752 609.81 -366.665 588.65 -367.829 565.358C-368.947 543 -358.872 525.579 -341.693 509.465C-319.147 488.317 -293.55 471.848 -267.208 456.173C-243.406 442.009 -221.682 425.742 -203.453 405.244C-195.324 396.104 -186.465 388.229 -173.99 386.186C-122.649 377.781 -77.902 353.499 -35.559 326.792C-4.93736 307.479 26.4766 289.473 57.8929 271.468L57.9709 271.424C89.3583 253.435 120.747 235.446 151.331 216.159C155.391 213.599 159.518 211.115 163.652 208.628C179.218 199.261 194.872 189.841 207.318 176.091C211.473 171.5 217.692 168.199 223.624 165.438C258.596 149.163 292.137 130.895 319.58 103.451L319.215 103.105L319.58 103.451C323.353 99.6774 328.511 97.0709 333.609 94.4952C334.483 94.0532 335.356 93.6121 336.22 93.1661C341.395 90.4949 344.863 90.9656 347.096 92.8404C349.391 94.7674 350.565 98.3152 350.788 102.17C351.546 115.253 346.933 127.172 335.59 135.488C328.547 140.652 321.151 145.475 313.462 149.656C291.763 161.454 274.295 176.954 260.872 197.631C242.435 226.034 215.493 247.788 187.34 265.71C153.086 287.517 122.973 313.704 92.9146 339.842C86.9345 345.042 80.9566 350.24 74.9487 355.402C61.425 367.02 46.8751 377.318 32.3119 387.624C30.4056 388.973 28.4991 390.323 26.5947 391.675C10.1493 403.353 -6.13744 415.262 -20.7423 429.298C-25.1859 433.569 -29.5466 437.929 -33.9083 442.29C-51.8238 460.204 -69.7559 478.134 -93.5122 489.927Z" stroke="black" stroke-opacity="0.41"/>
    <path d="M969.424 379.579C956.84 373.369 948.129 368.635 939.091 364.732C929.594 360.63 921.743 354.182 917.667 344.801C900.865 306.127 867.009 288.454 833.938 270.019C808.052 255.588 780.319 245.474 752.776 235.105C724.913 224.614 701.264 206.231 676.205 190.584C669.157 186.184 662.392 181.166 654.858 177.687C617.679 160.515 582.169 139.715 544.798 122.882C530.246 116.326 515.38 111.093 500.458 106.04C479.556 98.9631 467.55 84.5897 464.284 62.4726C461.508 43.6846 455.335 26.2444 448.046 8.92573C437.416 -16.3286 439.817 -22.7908 463.415 -35.253C471.529 -39.5379 478.702 -44.7229 485.408 -51.0971C495.013 -60.2273 505.964 -63.8442 518.248 -56.0472C536.739 -44.3102 557.408 -41.542 578.332 -38.5287C603.575 -34.8934 628.374 -28.4813 651.376 -16.304C677.51 -2.46825 706.699 3.32846 732.384 18.7254C747.388 27.7198 764.981 24.133 780.94 20.9059C812.002 14.6242 835.732 28.5766 855.134 50.4125C868.734 65.7192 882.838 79.0683 901.066 87.108C920.718 95.7751 934.487 110.495 944.659 129.467C950.966 141.229 958.05 151.841 970.42 158.042C982.944 164.319 995.123 169.201 1009.29 164.913C1026.4 159.736 1032.19 167.393 1030.39 186.184C1030.09 189.288 1029.52 192.379 1028.86 195.421C1024.96 213.231 1030.54 227.604 1043.44 239.508C1054.77 249.972 1064.21 261.984 1071.71 275.806C1089.57 308.728 1083.3 359.446 1057.83 386.558C1046.75 398.349 1033.4 400.672 1018.51 397.689C999.896 393.962 982.76 385.955 969.424 379.579Z" fill="#E8E4DE"/>
    <path d="M1057.47 386.202L1057.82 386.556L1057.47 386.202C1046.53 397.843 1033.37 400.151 1018.59 397.192C1000.05 393.479 982.964 385.499 969.626 379.121C965.522 377.096 961.825 375.225 958.392 373.488C951.32 369.91 945.367 366.897 939.273 364.265C929.856 360.198 922.125 353.828 918.117 344.603C901.879 307.228 869.783 289.381 837.966 271.689C836.699 270.985 835.432 270.28 834.166 269.574C809.833 256.01 783.874 246.256 758.013 236.538C756.321 235.902 754.628 235.266 752.937 234.629C732.255 226.843 713.919 214.708 695.544 202.546C689.218 198.359 682.887 194.17 676.454 190.153C674.487 188.925 672.533 187.642 670.572 186.355C665.556 183.061 660.496 179.739 655.052 177.225C637.335 169.043 619.997 160.035 602.643 151.019C601.8 150.582 600.957 150.144 600.115 149.706C581.92 140.256 563.688 130.842 544.988 122.418C530.412 115.852 515.527 110.612 500.603 105.559C490.222 102.044 482.081 96.7288 476.13 89.5722C470.179 82.4161 466.393 73.3884 464.771 62.4075C461.986 43.5557 455.794 26.0683 448.498 8.7334C445.843 2.42727 444.017 -2.67349 443.127 -6.97368C442.238 -11.2674 442.29 -14.7301 443.36 -17.7795C444.43 -20.8299 446.54 -23.5259 449.875 -26.2443C453.215 -28.9661 457.755 -31.6889 463.648 -34.8012C471.802 -39.107 479.01 -44.3179 485.747 -50.7216C490.511 -55.2496 495.571 -58.3744 500.926 -59.422C506.266 -60.4667 511.949 -59.4556 517.995 -55.6177C536.173 -44.0804 556.434 -41.1673 576.856 -38.231L578.274 -38.0269C603.483 -34.3964 628.223 -27.9964 651.158 -15.8547C663.131 -9.51599 675.742 -4.86101 688.328 -0.215017C689.516 0.223424 690.704 0.661798 691.89 1.10148C705.666 6.20504 719.344 11.4897 732.142 19.1616C747.274 28.2327 764.981 24.6519 780.843 21.4442L781.046 21.4032C811.879 15.1679 835.442 28.9935 854.773 50.7496C868.388 66.0731 882.551 79.4889 900.881 87.573C920.407 96.1852 934.099 110.812 944.229 129.704C950.546 141.487 957.694 152.222 970.212 158.496C982.747 164.779 995.079 169.746 1009.44 165.399C1017.96 162.821 1023.43 163.516 1026.58 166.906C1028.17 168.615 1029.23 171.064 1029.77 174.281C1030.32 177.499 1030.35 181.451 1029.9 186.124L1030.39 186.184L1029.9 186.124C1029.6 189.198 1029.04 192.267 1028.38 195.3C1026.41 204.286 1026.83 212.43 1029.39 219.839C1031.94 227.245 1036.62 233.885 1043.11 239.881C1054.41 250.308 1063.8 262.275 1071.28 276.045C1080.14 292.389 1083.04 313.184 1080.53 333.285C1078.02 353.386 1070.12 372.737 1057.47 386.202Z" stroke="black" stroke-opacity="0.41"/>
    </g>
    <defs>
    <clipPath id="clip0_468_2">
    <rect width="880" height="335" fill="white"/>
    </clipPath>
    </defs>
</svg>
