<svg preserveAspectRatio="none" width="880" height="112" viewBox="0 0 880 112" fill="none" xmlns="http://www.w3.org/2000/svg">
    <g clip-path="url(#clip0_115_707)">
    <rect width="880" height="112" fill="#E8E3DD"/>
    <path d="M219.208 58.238C218.355 65.1266 219.706 71.9399 216.929 78.8791C213.942 86.3419 217.154 92.9961 231.632 97.6715C236.875 99.3647 238.986 102.075 240.91 104.671C242.825 107.257 239.833 108.87 233.398 108.954C229.964 109 226.564 108.655 223.136 108.522C210.569 108.038 198.339 108.799 186.322 111.046C180.285 112.175 173.995 113.103 167.673 113.805C158.223 114.855 149.691 116.506 141.844 119.231C132.706 122.405 129.392 122.168 121.795 118.549C118.881 117.16 116.532 115.55 113.732 114.113C102.37 108.283 86.957 107.403 71.3089 111.697C67.4292 112.762 63.8003 114.008 59.9217 115.074C50.3903 117.692 40.3545 118.735 29.8023 117.297C20.9009 116.084 12.1142 115.444 2.30985 116.471C-5.99049 117.342 -8.58185 115.873 -6.90552 112.226C-4.93986 107.948 1.74886 104.638 8.41827 101.728C22.7792 95.4612 31.373 88.3184 34.3965 79.8352C35.1865 77.6185 36.1137 74.1661 42.2444 74.0827C48.9816 73.9909 47.557 77.4528 48.3489 79.6353C52.2852 90.4854 66.9943 94.3161 91.6208 90.7768C100.803 89.4572 109.991 88.4152 119.578 88.3075C123.542 88.2631 127.659 88.1422 131.489 87.6569C160.138 84.0264 187.95 70.0587 192.106 57.0473C193.792 51.7707 197.164 46.8475 205.263 42.5963C207.776 41.2771 210.178 39.4045 214.872 39.8002C220.261 40.2545 218.532 42.4762 218.661 44.0491C219.046 48.7702 219.053 53.5072 219.208 58.238Z" fill="#E8E4DE"/>
    <path d="M2.25772 115.974L2.30985 116.471L2.25771 115.974C0.197193 116.19 -1.4929 116.259 -2.84141 116.189C-4.19714 116.118 -5.17023 115.908 -5.82126 115.593C-6.45467 115.286 -6.7539 114.898 -6.85122 114.445C-6.95532 113.961 -6.85056 113.303 -6.4512 112.434L-6.45119 112.434C-5.53124 110.432 -3.47222 108.6 -0.741844 106.888C1.97585 105.183 5.28595 103.64 8.61825 102.186C23.0138 95.9044 31.7722 88.6876 34.8675 80.003C34.9024 79.9051 34.9372 79.806 34.9724 79.7059C35.3467 78.6409 35.758 77.4707 36.6796 76.5039C37.6629 75.4724 39.2867 74.6229 42.2512 74.5826C45.5552 74.5376 46.63 75.365 47.0824 76.2365C47.3306 76.7146 47.4298 77.2705 47.5127 77.8994C47.5233 77.9791 47.5335 78.0607 47.544 78.1436C47.6119 78.6817 47.6869 79.2765 47.8789 79.8058C49.92 85.4318 54.7477 89.1873 62.101 91.0862C69.4408 92.9815 79.3499 93.0455 91.6919 91.2717C100.865 89.9534 110.028 88.9148 119.583 88.8075C123.55 88.763 127.692 88.6421 131.552 88.1529C145.931 86.3308 160.101 81.9152 171.207 76.3164C176.761 73.517 181.56 70.4156 185.24 67.1844C188.913 63.9586 191.505 60.5736 192.582 57.1995C194.226 52.0535 197.508 47.2319 205.495 43.039C205.879 42.8375 206.256 42.6265 206.634 42.4144C208.785 41.2099 210.99 39.9748 214.83 40.2985C216.15 40.4098 216.981 40.6262 217.497 40.8824C217.994 41.129 218.181 41.4016 218.262 41.6569C218.354 41.9446 218.336 42.2843 218.277 42.7177C218.268 42.7848 218.257 42.8556 218.246 42.9292C218.193 43.2846 218.131 43.7051 218.162 44.0898C218.439 47.4703 218.519 50.8521 218.601 54.2507C218.632 55.5695 218.664 56.8907 218.707 58.2154C218.411 60.629 218.381 63.0502 218.351 65.4384C218.338 66.4738 218.325 67.503 218.29 68.5227C218.175 71.9332 217.822 75.3034 216.465 78.6933C214.925 82.5411 214.963 86.2569 217.322 89.6084C219.655 92.9213 224.202 95.7975 231.478 98.1473C236.574 99.7929 238.607 102.404 240.508 104.969C240.941 105.553 241.03 105.993 240.96 106.314C240.89 106.636 240.63 106.984 240.041 107.315C238.844 107.986 236.597 108.412 233.392 108.454C231.188 108.483 229.016 108.352 226.822 108.218C225.61 108.145 224.391 108.07 223.155 108.023C210.555 107.537 198.287 108.3 186.231 110.555C180.206 111.682 173.928 112.608 167.618 113.309C158.144 114.361 149.573 116.018 141.68 118.759C137.122 120.342 134.084 121.049 131.261 120.938C128.446 120.827 125.793 119.9 122.01 118.097C120.573 117.413 119.272 116.672 117.972 115.917C117.821 115.829 117.67 115.741 117.519 115.653C116.371 114.985 115.21 114.309 113.96 113.668C102.46 107.767 86.9116 106.897 71.1766 111.215C69.2281 111.75 67.3437 112.33 65.4678 112.907L65.4573 112.911C63.5827 113.488 61.7164 114.062 59.7893 114.592C50.3128 117.195 40.3455 118.23 29.8698 116.802C20.9471 115.586 12.1168 114.94 2.25772 115.974Z" stroke="black" stroke-opacity="0.41"/>
    <path d="M464.28 151.458C460.671 154.316 456.084 155.556 451.999 157.74C440.598 163.835 430.826 172.201 420.014 179.112C417.171 180.929 414.417 182.878 411.545 184.647C410.351 185.382 408.987 186.425 407.523 185.12C406.201 183.942 406.72 182.47 407.124 181.103C407.412 180.126 407.852 179.172 408.347 178.27C410.482 174.377 411.646 170.328 411.423 165.872C411.206 161.539 413.161 158.167 416.475 155.059C420.815 150.988 425.741 147.819 430.805 144.806C435.373 142.087 439.539 138.967 443.034 135.037C444.599 133.277 446.32 131.742 448.753 131.344C458.598 129.732 467.184 125.075 475.318 119.944C487.091 112.518 499.472 106.1 511.232 98.6838C514.961 96.3326 518.956 94.3321 521.971 91.0007C522.784 90.103 523.995 89.4617 525.135 88.931C531.853 85.8048 538.286 82.3001 543.548 77.0383C544.411 76.1752 545.645 75.6251 546.769 75.0445C548.797 73.9977 549.625 75.354 549.712 76.8545C549.859 79.3956 548.962 81.718 546.754 83.3373C545.397 84.3317 543.972 85.261 542.49 86.067C538.333 88.3271 534.989 91.2951 532.419 95.2546C528.865 100.729 523.675 104.918 518.26 108.365C510.375 113.385 503.634 119.613 496.672 125.593C490.786 130.65 483.89 134.406 478.288 139.79C473.936 143.973 469.974 148.631 464.28 151.458Z" fill="#E8E4DE"/>
    <path d="M463.999 151.041L464.046 151.017C468.546 148.783 471.935 145.396 475.374 141.959C476.217 141.115 477.064 140.269 477.93 139.437C480.76 136.717 483.912 134.413 487.072 132.169C487.439 131.909 487.805 131.649 488.172 131.39C490.972 129.408 493.752 127.441 496.335 125.221C497.486 124.233 498.632 123.236 499.78 122.238C505.556 117.215 511.369 112.159 517.979 107.951C523.367 104.521 528.491 100.378 531.99 94.9873L532.419 95.2546L531.99 94.9873C534.608 90.9544 538.016 87.9319 542.24 85.6352C543.699 84.842 545.105 83.9254 546.446 82.9416C548.504 81.4328 549.346 79.2768 549.207 76.8767C549.166 76.1753 548.954 75.6298 548.641 75.3667C548.389 75.1557 547.922 75.0103 547.01 75.4813L546.769 75.0445L547.01 75.4813C546.837 75.5706 546.665 75.6577 546.495 75.7439C545.512 76.2412 544.588 76.709 543.912 77.385C538.588 82.7097 532.09 86.2441 525.358 89.3769C524.219 89.9068 523.092 90.5128 522.353 91.3296C519.918 94.0202 516.843 95.8696 513.845 97.6728C513.057 98.1467 512.275 98.6173 511.511 99.0992C505.626 102.81 499.588 106.271 493.559 109.726L493.54 109.737C487.502 113.197 481.473 116.653 475.597 120.359C467.45 125.498 458.793 130.201 448.842 131.831C446.591 132.199 444.968 133.62 443.418 135.363C439.88 139.341 435.67 142.492 431.072 145.228C426.016 148.237 421.128 151.383 416.828 155.416L416.475 155.059L416.828 155.416C413.578 158.465 411.721 161.71 411.929 165.853C412.157 170.415 410.963 174.552 408.794 178.506C408.309 179.391 407.886 180.311 407.61 181.245L463.999 151.041ZM463.999 151.041L463.958 151.073M463.999 151.041L463.958 151.073M463.958 151.073C462.204 152.462 460.202 153.467 458.103 154.403C457.536 154.656 456.959 154.905 456.378 155.155C454.829 155.824 453.252 156.504 451.751 157.307C446.021 160.37 440.707 164.001 435.484 167.72C434.335 168.539 433.191 169.361 432.048 170.182C427.988 173.1 423.941 176.009 419.733 178.698C418.502 179.485 417.304 180.285 416.112 181.081C414.512 182.15 412.921 183.212 411.271 184.229C411.171 184.291 411.072 184.352 410.976 184.413C410.457 184.738 409.983 185.035 409.49 185.174C409.214 185.252 408.955 185.271 408.703 185.218C408.452 185.165 408.172 185.033 407.862 184.758L407.862 184.757M463.958 151.073L407.862 184.757M407.862 184.757C407.327 184.281 407.17 183.765 407.182 183.199M407.862 184.757L407.182 183.199M407.182 183.199C407.195 182.644 407.367 182.064 407.557 181.426M407.182 183.199L407.557 181.426M407.557 181.426C407.574 181.366 407.592 181.306 407.61 181.245L407.557 181.426Z" stroke="black" stroke-opacity="0.41"/>
    <path d="M464.99 -87.5042C473.469 -87.4423 479.453 -87.1625 485.396 -87.4202C491.64 -87.691 497.608 -86.2528 502.296 -82.225C521.619 -65.6199 544.685 -64.9273 567.525 -63.6128C585.403 -62.5842 603.148 -64.3891 620.857 -66.0048C638.773 -67.6393 656.475 -63.872 674.223 -61.9639C679.215 -61.4274 684.216 -60.4804 689.229 -60.5728C713.97 -61.028 738.759 -59.0707 763.515 -59.7599C773.156 -60.0282 782.618 -61.0979 792.063 -62.2809C805.294 -63.9381 815.609 -59.2842 823.211 -48.1175C829.669 -38.6316 837.62 -30.7735 846.146 -23.2758C858.578 -12.3423 858.974 -8.19573 849.424 4.79692C846.141 9.26426 843.606 13.9732 841.638 19.2058C838.82 26.7009 833.817 31.5522 825.084 30.5478C811.936 29.036 799.968 32.9749 787.796 36.8477C773.111 41.5197 757.936 44.5651 742.22 44.0018C724.364 43.3618 706.964 47.898 688.941 46.2906C678.413 45.3514 669.791 51.9362 661.962 57.8947C646.725 69.4925 630.146 68.1556 613.844 61.3917C602.416 56.6504 591.23 53.106 579.2 53.5355C566.231 53.9985 554.865 49.6207 544.337 41.9834C537.809 37.2481 531.162 33.3433 522.801 33.2298C514.337 33.115 506.429 33.668 499.853 39.7319C491.915 47.053 486.746 44.4159 482.777 33.7221C482.121 31.9561 481.617 30.1254 481.177 28.2956C478.604 17.5845 471.783 11.2384 461.636 8.16161C452.716 5.45673 444.422 1.4094 436.703 -4.1313C418.317 -17.3289 408.368 -46.5615 415.078 -68.0142C417.997 -77.3443 424.642 -82.1225 433.527 -84.4237C444.63 -87.2994 456.058 -87.4591 464.99 -87.5042Z" fill="#E8E4DE"/>
    <path d="M483.245 33.5628L483.245 33.5628C482.599 31.8238 482.1 30.0151 481.663 28.1952C480.357 22.7587 477.966 18.4057 474.595 15.0195C471.226 11.6355 466.903 9.2414 461.766 7.68373C452.899 4.99495 444.657 0.972702 436.985 -4.53377C427.9 -11.0551 420.873 -21.5618 416.953 -33.1225C413.033 -44.6825 412.238 -57.2432 415.556 -67.85L415.078 -68.0142L415.556 -67.85C418.413 -76.9835 424.901 -81.6688 433.669 -83.9396C444.704 -86.7977 456.073 -86.9592 465.007 -87.0044C467.766 -86.9842 470.266 -86.9408 472.589 -86.9004C477.381 -86.8171 481.422 -86.7469 485.435 -86.9209C491.593 -87.1879 497.419 -85.768 501.977 -81.8509C520.706 -65.7569 542.925 -64.5027 564.872 -63.2639C565.753 -63.2142 566.634 -63.1644 567.514 -63.1138C584.334 -62.146 601.034 -63.6805 617.653 -65.2076C618.742 -65.3077 619.831 -65.4078 620.92 -65.5071C634.193 -66.7181 647.329 -64.9531 660.519 -63.1809C665.066 -62.5699 669.619 -61.9581 674.187 -61.467C675.571 -61.3183 676.965 -61.1361 678.367 -60.953C681.968 -60.4827 685.618 -60.006 689.256 -60.073C701.041 -60.2899 712.838 -59.9587 724.651 -59.6272C725.224 -59.6111 725.797 -59.595 726.37 -59.579C738.753 -59.2327 751.153 -58.9152 763.547 -59.2603C773.213 -59.5293 782.696 -60.6017 792.143 -61.7849C798.684 -62.6043 804.474 -61.8602 809.554 -59.5543C814.635 -57.2486 819.044 -53.3648 822.801 -47.8463C829.295 -38.3071 837.283 -30.4151 845.823 -22.9057C848.925 -20.1776 851.249 -17.8957 852.853 -15.8084C854.453 -13.7262 855.316 -11.8642 855.531 -9.97223C855.747 -8.07926 855.323 -6.09414 854.234 -3.75697C853.144 -1.41487 851.401 1.24943 849.018 4.49198C845.708 8.99524 843.152 13.7429 841.169 19.0158C839.779 22.7129 837.867 25.7095 835.27 27.6608C832.684 29.6032 829.378 30.5405 825.124 30.0513C812.157 28.5603 800.337 32.3244 788.469 36.1035C788.189 36.1927 787.909 36.2818 787.629 36.3709C772.977 41.0327 757.861 44.0628 742.221 43.5023C734.026 43.2086 725.929 44.0002 717.863 44.7889C717.101 44.8634 716.34 44.9379 715.578 45.0114C706.742 45.8646 697.929 46.5918 688.969 45.7927C678.275 44.8388 669.537 51.4898 661.777 57.3967L661.65 57.4932C646.6 68.9493 630.225 67.654 614.022 60.9311C602.573 56.1811 591.305 52.6026 579.165 53.036C566.331 53.4941 555.077 49.1667 544.621 41.5824C538.074 36.8334 531.316 32.8458 522.791 32.73C514.314 32.6151 506.23 33.159 499.507 39.3592C495.563 42.9965 492.487 43.9867 489.994 43.0176C488.729 42.526 487.537 41.5069 486.407 39.9217C485.277 38.3364 484.229 36.2129 483.245 33.5628Z" stroke="black" stroke-opacity="0.41"/>
    </g>
    <defs>
    <clipPath id="clip0_115_707">
    <rect width="880" height="112" fill="white"/>
    </clipPath>
    </defs>
</svg>