<svg preserveAspectRatio="none" width="880" height="355" viewBox="0 0 880 355" fill="none" xmlns="http://www.w3.org/2000/svg">
    <g clip-path="url(#clip0_468_98)">
    <rect width="880" height="355" fill="#E8E3DD"/>
    <path d="M52.0713 271.399C42.9972 278.825 31.0462 281.55 20.5885 287.007C-8.59127 302.231 -33.0531 324.096 -60.53 341.706C-67.7536 346.335 -74.7193 351.351 -82.0301 355.843C-85.068 357.71 -88.5051 360.409 -92.6163 356.509C-96.3289 352.988 -95.2079 348.943 -94.3768 345.176C-93.7825 342.482 -92.7814 339.879 -91.6261 337.429C-86.6422 326.86 -84.261 315.692 -85.6295 303.156C-86.9602 290.967 -82.3619 281.828 -74.1148 273.654C-63.3114 262.946 -50.796 254.865 -37.8902 247.244C-26.2457 240.368 -15.7384 232.3 -7.15354 221.85C-3.30911 217.171 0.989462 213.147 7.37171 212.429C33.2087 209.523 55.1704 197.869 75.8543 184.812C105.789 165.915 137.513 149.942 167.416 131.07C176.896 125.086 187.146 120.13 194.563 111.28C196.562 108.896 199.663 107.296 202.595 105.994C219.871 98.3273 236.324 89.5522 249.363 75.6561C251.502 73.3766 254.679 72.036 257.561 70.592C262.758 67.9884 265.192 71.9291 265.684 76.1522C266.518 83.3047 264.543 89.6718 258.967 93.8516C255.542 96.4184 251.924 98.7914 248.133 100.809C237.501 106.467 229.146 114.243 223.019 124.928C214.548 139.7 201.51 150.599 187.746 159.381C167.706 172.167 150.91 188.53 133.487 204.163C118.755 217.383 101.116 226.787 87.1945 240.969C76.3793 251.988 66.6828 264.405 52.0713 271.399Z" fill="#E8E4DE"/>
    <path d="M51.844 270.955L51.7895 270.981L51.7432 271.019C47.2632 274.686 42.0615 277.201 36.6431 279.488C35.1642 280.112 33.6666 280.72 32.1636 281.331C28.1807 282.948 24.1595 284.581 20.3457 286.571C5.7216 294.201 -7.71322 303.491 -20.9145 313.064C-23.8136 315.167 -26.701 317.282 -29.5872 319.397C-39.8515 326.918 -50.1007 334.428 -60.8115 341.292C-63.9096 343.278 -66.9412 345.321 -69.9671 347.36C-74.0405 350.105 -78.1034 352.844 -82.3036 355.425C-82.5459 355.573 -82.7872 355.725 -83.0282 355.876C-84.3448 356.703 -85.651 357.524 -87.047 357.859C-87.8529 358.052 -88.6715 358.077 -89.52 357.839C-90.3707 357.6 -91.285 357.087 -92.2654 356.158L-92.6162 356.509L-92.2654 356.158C-95.5986 352.996 -94.8033 349.425 -93.9876 345.761C-93.9523 345.603 -93.9169 345.444 -93.8818 345.285C-93.2975 342.637 -92.3112 340.069 -91.1656 337.639C-86.1488 327 -83.7467 315.744 -85.126 303.11C-86.4369 291.102 -81.9224 282.1 -73.7518 274.002C-62.9936 263.339 -50.5222 255.283 -37.6243 247.667C-25.9459 240.771 -15.3885 232.668 -6.75695 222.162C-2.92855 217.502 1.26152 213.614 7.43542 212.919C33.3919 210 55.4341 198.293 76.1329 185.227C91.0884 175.786 106.492 167.075 121.905 158.359L121.946 158.336C137.341 149.63 152.744 140.92 167.694 131.485C169.665 130.241 171.677 129.038 173.696 127.831C181.322 123.27 189.04 118.655 194.957 111.595C196.875 109.306 199.88 107.744 202.809 106.444C220.101 98.7697 236.63 89.9618 249.739 75.9915L249.363 75.6561L249.739 75.9915C251.497 74.1172 253.984 72.901 256.499 71.6714C256.932 71.4596 257.366 71.2475 257.797 71.0316C259.038 70.4094 260.072 70.1999 260.922 70.2608C261.764 70.3212 262.464 70.6495 263.045 71.173C264.232 72.2411 264.94 74.139 265.181 76.2024C266 83.2315 264.058 89.4093 258.655 93.459C255.247 96.0134 251.651 98.3718 247.887 100.375C237.176 106.074 228.752 113.915 222.576 124.683C214.16 139.359 201.197 150.206 187.466 158.967C170.713 169.656 156.219 182.841 141.773 195.983C138.9 198.596 136.029 201.208 133.142 203.798C126.65 209.624 119.591 214.706 112.511 219.804C111.585 220.471 110.658 221.138 109.732 221.807C101.74 227.584 93.8194 233.502 86.8268 240.626C84.6948 242.798 82.6114 245.018 80.53 247.235C72.0007 256.323 63.5056 265.373 51.844 270.955Z" stroke="black" stroke-opacity="0.41"/>
    <path d="M302.282 250.999C299.935 251.015 297.534 250.872 296.572 248.372C295.589 245.817 295.803 243.236 297.766 241.082C299.585 239.087 301.795 238.43 304.458 239.531C307.146 240.641 309.699 242.01 311.751 243.991C313.763 245.935 313.298 248.169 310.687 249.22C308.029 250.288 305.218 250.994 302.282 250.999Z" fill="#E8E4DE"/>
    <path d="M311.404 244.351C312.333 245.248 312.609 246.129 312.463 246.84C312.317 247.554 311.71 248.269 310.5 248.756C307.884 249.808 305.137 250.494 302.282 250.499L302.279 250.499C301.101 250.507 299.994 250.471 299.07 250.156C298.179 249.852 297.461 249.289 297.039 248.193L296.572 248.372L297.039 248.193C296.11 245.78 296.322 243.408 298.136 241.419C298.996 240.476 299.921 239.878 300.916 239.631C301.907 239.385 303.016 239.475 304.267 239.993L304.267 239.993C306.929 241.093 309.417 242.432 311.404 244.351ZM311.404 244.351L311.751 243.991M311.404 244.351L311.751 243.991M311.751 243.991C313.763 245.935 313.298 248.169 310.687 249.22C308.029 250.288 305.218 250.994 302.282 250.999L297.766 241.082C299.585 239.087 301.795 238.43 304.458 239.531C307.146 240.641 309.699 242.01 311.751 243.991Z" stroke="black" stroke-opacity="0.41"/>
    <path d="M812.475 670.635C801.7 665.319 794.397 660.921 786.46 658.018C778.121 654.968 772.316 647.411 771.455 633.545C767.904 576.385 739.26 560.487 711.7 543.026C690.126 529.359 665.107 523.525 640.376 517.195C615.357 510.792 597.503 489.739 577.217 473.744C571.511 469.246 566.318 463.619 559.783 460.829C527.531 447.055 498.295 426.652 465.725 413.509C453.041 408.391 439.564 405.574 425.963 403.076C406.912 399.579 399.646 380.584 404.161 345.418C407.997 315.545 407.845 289.22 406.497 263.531C404.532 226.071 409.315 214.485 438.117 184.736C448.02 174.507 457.273 163.162 466.468 150.041C479.638 131.246 492.232 121.01 502.13 129.059C517.032 141.177 537.379 137.666 557.902 134.459C582.66 130.591 605.972 131.471 625.371 142.552C647.413 155.143 675.474 153.295 696.495 168.633C708.774 177.594 728.213 164.813 745.837 153.263C780.139 130.782 799.657 144.504 811.896 172.906C820.475 192.815 830.272 209.302 846.221 215.43C863.413 222.037 872.377 240.913 876.111 268.2C878.425 285.118 881.953 299.836 892.51 305.222C903.199 310.674 914.028 313.962 930.182 301.363C949.685 286.152 952.938 296.505 944.374 328.172C942.961 333.402 941.271 338.716 939.499 343.989C929.127 374.856 929.761 396.359 938.826 410.937C946.793 423.752 952.246 439.86 955.058 459.705C961.756 506.974 937.196 592.992 901.234 647.611C885.595 671.366 870.991 680.404 856.681 681.307C838.799 682.434 823.967 675.934 812.475 670.635Z" fill="#E8E4DE"/>
    <path d="M856.64 680.801C838.893 681.92 824.162 675.473 812.674 670.177C809.178 668.451 806.038 666.817 803.118 665.298C797.083 662.158 791.986 659.505 786.617 657.541C782.542 656.051 779.098 653.466 776.562 649.563C774.022 645.654 772.374 640.392 771.947 633.524C770.166 604.851 762.085 586.475 750.953 573.075C740.685 560.714 727.842 552.617 715.096 544.582C714.047 543.92 712.998 543.259 711.952 542.597C691.631 529.723 668.272 523.778 645.055 517.869C643.531 517.481 642.008 517.093 640.486 516.704C628.074 513.527 617.421 506.713 607.318 498.668C602.38 494.736 597.581 490.517 592.773 486.29L592.441 485.999C587.525 481.677 582.596 477.353 577.512 473.345C576.095 472.228 574.709 471.04 573.318 469.836C573.139 469.681 572.959 469.526 572.78 469.371C571.569 468.322 570.351 467.267 569.113 466.253C566.271 463.924 563.296 461.784 559.963 460.361C544.608 453.804 529.936 445.74 515.235 437.661C514.523 437.269 513.81 436.878 513.098 436.487C497.688 428.023 482.212 419.622 465.896 413.038C453.163 407.9 439.642 405.075 426.039 402.578C416.692 400.861 410.255 395.366 406.684 385.948C403.096 376.487 402.396 363.048 404.65 345.495C408.491 315.581 408.338 289.222 406.989 263.515C406.008 244.8 406.719 232.634 411.226 221.444C415.736 210.245 424.071 199.97 438.47 185.097C448.393 174.847 457.662 163.483 466.87 150.343C473.446 140.958 479.844 133.764 485.795 129.914C488.767 127.991 491.599 126.921 494.266 126.805C496.92 126.689 499.445 127.515 501.83 129.454C509.396 135.607 518.329 137.774 527.907 138.012C537.048 138.239 546.827 136.708 556.618 135.174C557.074 135.103 557.53 135.031 557.986 134.96C582.702 131.099 605.882 131.994 625.139 142.994C635.276 148.784 646.673 151.539 658 154.276C659.071 154.535 660.142 154.794 661.212 155.055C673.613 158.085 685.794 161.44 696.215 169.044C702.575 173.685 710.722 172.644 719.353 169.111C727.952 165.592 737.201 159.53 745.956 153.792L746.109 153.692C763.199 142.491 776.486 140.388 786.974 144.477C797.481 148.573 805.345 158.946 811.446 173.102C820.024 193.009 829.892 209.693 846.057 215.904C862.969 222.403 871.893 241.007 875.622 268.259C876.78 276.724 878.247 284.685 880.761 291.213C883.277 297.744 886.864 302.902 892.299 305.675C897.662 308.41 903.129 310.641 909.313 310.568C915.507 310.495 922.35 308.114 930.486 301.769C935.352 297.974 939.143 295.825 941.95 295.176C943.346 294.854 944.455 294.912 945.322 295.279C946.178 295.642 946.858 296.332 947.36 297.4C948.383 299.579 948.616 303.238 948.022 308.414C947.432 313.564 946.037 320.12 943.899 328.026C942.489 333.242 940.803 338.546 939.032 343.815C928.644 374.73 929.222 396.424 938.412 411.203C946.331 423.941 951.766 439.975 954.57 459.767C957.904 483.295 953.46 516.536 943.67 550.749C933.883 584.95 918.772 620.061 900.824 647.321L901.154 647.554L900.824 647.321C885.226 671.012 870.738 679.912 856.64 680.801Z" stroke="black" stroke-opacity="0.41"/>
    </g>
    <defs>
    <clipPath id="clip0_468_98">
    <rect width="880" height="355" fill="white"/>
    </clipPath>
    </defs>
</svg>
