<svg preserveAspectRatio="none" width="880" height="112" viewBox="0 0 880 112" fill="none" xmlns="http://www.w3.org/2000/svg">
    <g clip-path="url(#clip0_115_715)">
    <rect width="880" height="112" fill="#E8E3DD"/>
    <path d="M176.049 58.5213C180.315 62.9989 179.879 70.2397 182.133 75.9908C188.423 92.0381 201.509 103.758 210.241 118.245C212.537 122.054 215.224 125.621 217.382 129.513C218.279 131.13 219.797 132.848 215.495 136.26C211.611 139.34 208.399 139.383 205.358 139.561C203.185 139.688 201.183 139.533 199.348 139.25C191.434 138.026 182.401 138.606 171.324 141.882C160.553 145.067 153.776 143.821 148.676 140.023C141.994 135.047 137.965 128.46 134.422 121.531C131.225 115.28 126.74 109.994 119.765 106.41C116.641 104.805 114.186 102.78 115.052 98.7726C118.559 82.5502 113.656 70.5098 107.254 59.5661C97.9868 43.7278 91.6457 26.1712 82.3923 10.3491C79.4585 5.333 77.5854 -0.378319 71.712 -3.5092C70.1293 -4.35287 69.4764 -6.0619 69.0403 -7.71787C66.4722 -17.4747 62.7619 -26.4869 53.8631 -32.3072C52.4033 -33.2618 51.9906 -35.0693 51.4206 -36.6657C50.3928 -39.5439 54.3405 -41.8746 58.0796 -42.9985C64.4124 -44.9017 69.4188 -44.832 71.7112 -42.007C73.1189 -40.2725 74.3154 -38.3752 75.1666 -36.2979C77.5531 -30.4715 82.2873 -26.5278 90.0352 -24.5837C100.747 -21.8962 107.074 -15.5066 111.414 -8.24189C117.735 2.33523 127.878 10.1254 137.249 18.461C145.174 25.5094 149.149 35.1717 158.089 41.5102C165.034 46.4344 173.44 50.3659 176.049 58.5213Z" fill="#E8E4DE"/>
    <path d="M175.58 58.6847L175.615 58.7947L175.693 58.8773C177.729 61.014 178.663 63.8292 179.365 66.9001C179.553 67.7222 179.724 68.5668 179.898 69.4195C180.363 71.7082 180.84 74.0558 181.674 76.1848C184.846 84.277 189.726 91.2645 194.881 98.0179C196.017 99.5062 197.165 100.982 198.312 102.456C202.381 107.686 206.429 112.888 209.82 118.515C210.803 120.146 211.858 121.733 212.905 123.309C213.088 123.585 213.271 123.861 213.454 124.136C214.682 125.99 215.883 127.84 216.952 129.767C217.031 129.91 217.109 130.045 217.185 130.175C217.344 130.448 217.493 130.705 217.622 130.989C217.804 131.387 217.913 131.777 217.895 132.197C217.859 133.024 217.313 134.182 215.196 135.861C211.615 138.701 208.655 138.868 205.751 139.032C205.613 139.04 205.475 139.047 205.337 139.055C203.204 139.18 201.236 139.029 199.428 138.749C191.432 137.513 182.327 138.104 171.193 141.396C160.516 144.553 153.911 143.292 148.97 139.612L148.676 140.023L148.97 139.612C142.381 134.706 138.394 128.202 134.86 121.292C131.625 114.967 127.074 109.596 119.991 105.957C118.444 105.162 117.133 104.296 116.307 103.182C115.502 102.097 115.131 100.742 115.534 98.8757C119.08 82.4711 114.109 70.2942 107.678 59.3017C103.058 51.4058 99.1658 43.0783 95.2639 34.7281L95.2498 34.6981C91.3559 26.3649 87.4515 18.0095 82.8168 10.0847C82.2062 9.04082 81.6424 7.96717 81.0722 6.88139C80.9642 6.67558 80.8558 6.46931 80.7469 6.26274C80.0664 4.9718 79.3652 3.67349 78.5682 2.4311C76.9702 -0.0600953 74.9774 -2.34206 71.9445 -3.95884C70.5615 -4.69601 69.9512 -6.20788 69.5172 -7.85575C66.9402 -17.6464 63.1884 -26.812 54.1327 -32.7348L53.8631 -32.3072L54.1327 -32.7348C53.5077 -33.1435 53.0901 -33.7437 52.7549 -34.4676C52.5144 -34.9869 52.3316 -35.5308 52.1412 -36.0976C52.0589 -36.3426 51.9751 -36.5918 51.8846 -36.8452C51.4812 -37.975 52.0038 -39.0639 53.2672 -40.0959C54.522 -41.1208 56.3751 -41.9606 58.2128 -42.513C61.35 -43.4558 64.1243 -43.8987 66.3766 -43.7705C68.6294 -43.6423 70.3012 -42.948 71.3298 -41.6804C72.7131 -39.9759 73.8818 -38.1202 74.7109 -36.0968C77.1687 -30.0961 82.0466 -26.0655 89.9118 -24.0921C100.47 -21.4431 106.701 -15.1552 110.992 -7.97347C116.308 0.922577 124.31 7.86643 132.235 14.7434C133.808 16.1083 135.378 17.4706 136.923 18.8451C140.388 21.9267 143.088 25.5127 145.822 29.1413C146.179 29.6157 146.537 30.0909 146.897 30.5657C150.002 34.6585 153.269 38.7118 157.804 41.9276C159.17 42.8962 160.594 43.8276 162.01 44.7542C162.404 45.0115 162.796 45.2684 163.187 45.5256C164.991 46.7129 166.759 47.911 168.389 49.2056C171.649 51.7951 174.318 54.7418 175.58 58.6847Z" stroke="black" stroke-opacity="0.41"/>
    <path d="M734.888 57.8048C727.679 62.2684 722.466 65.2189 717.573 68.6025C712.432 72.1579 706.615 74.1194 700.503 73.2072C675.304 69.4461 655.413 81.1458 635.383 92.1985C619.704 100.85 605.647 111.83 591.52 122.63C577.228 133.555 560.239 139.796 544.201 147.634C539.691 149.839 534.954 151.701 530.76 154.45C510.063 168.013 488.041 179.56 467.456 193.329C459.439 198.691 452.001 204.637 444.637 210.669C434.322 219.118 423.113 220.674 410.731 215.272C400.213 210.684 389.299 208.268 378.089 206.463C361.744 203.832 359.199 200.533 360.362 184.45C360.761 178.921 360.398 173.585 359.277 168.108C357.67 160.264 359.32 153.493 367.246 149.692C379.179 143.968 387.21 134.26 395.449 124.499C405.389 112.723 416.61 102.063 430.211 94.1688C445.664 85.1996 457.974 72.0927 474.084 63.8534C483.495 59.0406 487.285 48.8748 490.737 39.662C497.455 21.7307 512.199 14.0314 529.599 11.0728C541.797 8.99871 553.151 6.04052 563.104 -0.730791C573.834 -8.03049 585.785 -10.3789 598.764 -9.52316C606.81 -8.99236 614.516 -9.22825 621.652 -13.5851C628.877 -17.9962 635.276 -22.6767 637.611 -31.3111C640.43 -41.7355 646.21 -42.257 655.265 -35.3203C656.76 -34.175 658.162 -32.8943 659.509 -31.5798C667.392 -23.8851 676.545 -22.147 686.772 -24.9479C695.762 -27.4096 704.937 -28.4019 714.421 -27.8239C737.011 -26.4473 761.003 -7.00594 766.749 14.7248C769.249 24.1756 766.17 31.7595 759.876 38.4395C752.011 46.787 742.424 53.009 734.888 57.8048Z" fill="#E8E4DE"/>
    <path d="M654.953 -34.9362L654.953 -34.9361C656.426 -33.8083 657.812 -32.5433 659.151 -31.2359C663.152 -27.3304 667.494 -24.9197 672.151 -23.8494C676.805 -22.7798 681.739 -23.0563 686.917 -24.4743C695.853 -26.9214 704.971 -27.9073 714.396 -27.3329C725.559 -26.6527 737.103 -21.5036 746.579 -13.8073C756.053 -6.11138 763.416 4.0961 766.258 14.8404L766.749 14.7248L766.258 14.8404C768.705 24.0921 765.709 31.5132 759.498 38.105C751.681 46.4018 742.145 52.5941 734.608 57.3908C732.262 58.8434 730.123 60.1381 728.135 61.3413C724.035 63.8234 720.578 65.9159 717.274 68.2007C712.205 71.7068 706.518 73.6082 700.573 72.721C676.15 69.0756 656.677 79.8489 637.443 90.4899C636.67 90.9172 635.898 91.3442 635.127 91.7701C620.375 99.9103 607.059 110.104 593.807 120.248C592.938 120.913 592.07 121.578 591.201 122.242C580.612 130.337 568.555 135.839 556.448 141.365C552.275 143.27 548.095 145.177 543.967 147.195C542.717 147.806 541.44 148.394 540.156 148.986C536.858 150.506 533.515 152.046 530.472 154.041C520.613 160.502 510.452 166.505 500.278 172.516C499.784 172.808 499.29 173.1 498.797 173.391C488.132 179.694 477.469 186.03 467.163 192.923C459.125 198.3 451.671 204.258 444.306 210.291C439.205 214.469 433.909 216.923 428.381 217.677C422.853 218.432 417.053 217.493 410.934 214.824C400.357 210.21 389.392 207.785 378.165 205.978C374.087 205.321 370.904 204.628 368.435 203.716C365.972 202.806 364.25 201.689 363.06 200.203C361.869 198.716 361.17 196.81 360.847 194.252C360.522 191.689 360.578 188.506 360.868 184.492C361.271 178.918 360.905 173.538 359.775 168.019C358.982 164.15 359.004 160.596 360.163 157.561C361.317 154.539 363.616 151.985 367.477 150.133C379.245 144.489 387.245 135.007 395.276 125.487C395.465 125.262 395.655 125.038 395.844 124.813C405.762 113.064 416.942 102.448 430.477 94.5918C437.569 90.4757 444 85.493 450.406 80.5293C451.011 80.0603 451.616 79.5915 452.222 79.1236C459.245 73.6954 466.318 68.3853 474.326 64.2892C483.885 59.4008 487.737 49.1177 491.159 39.985L491.215 39.8358C497.851 22.1234 512.399 14.4981 529.694 11.5573C541.914 9.47952 553.356 6.50635 563.4 -0.326846C574.018 -7.55004 585.848 -9.88217 598.737 -9.03233C606.807 -8.49999 614.651 -8.72495 621.928 -13.1678C629.163 -17.5855 635.715 -22.3515 638.103 -31.18C639.503 -36.3592 641.58 -38.8359 644.206 -39.3436C645.538 -39.6012 647.089 -39.3734 648.89 -38.6337C650.691 -37.894 652.709 -36.6551 654.953 -34.9362Z" stroke="black" stroke-opacity="0.41"/>
    </g>
    <defs>
    <clipPath id="clip0_115_715">
    <rect width="880" height="112" fill="white"/>
    </clipPath>
    </defs>
</svg>