<svg preserveAspectRatio="none" width="880" height="355" viewBox="0 0 880 355" fill="none" xmlns="http://www.w3.org/2000/svg">
    <g clip-path="url(#clip0_468_84)">
    <rect width="880" height="355" fill="#E8E3DD"/>
    <path d="M59.2427 129.693C51.7335 135.642 42.1892 138.222 33.6871 142.767C9.9637 155.448 -10.3698 172.858 -32.8691 187.238C-38.784 191.018 -44.5149 195.074 -50.4918 198.756C-52.9754 200.286 -55.8142 202.455 -58.8605 199.74C-61.6116 197.289 -60.5307 194.225 -59.6917 191.381C-59.0917 189.348 -58.1759 187.364 -57.1462 185.486C-52.7039 177.385 -50.2818 168.959 -50.7454 159.687C-51.1962 150.672 -47.1276 143.654 -40.233 137.187C-31.2014 128.715 -20.9504 122.121 -10.4144 115.851C-0.908133 110.194 7.76106 103.702 15.0331 95.5246C18.2896 91.8628 21.8716 88.6679 26.9325 87.8392C47.4201 84.485 65.2847 74.7941 82.2118 64.1178C106.71 48.6663 132.473 35.3103 156.945 19.8783C164.703 14.9857 173.017 10.8229 179.291 3.89069C180.982 2.02266 183.502 0.688328 185.875 -0.41598C199.854 -6.92131 213.24 -14.2141 224.188 -25.163C225.984 -26.9591 228.551 -28.1037 230.892 -29.3119C235.111 -31.4902 236.835 -28.6678 237.016 -25.5456C237.322 -20.2578 235.455 -15.4253 230.859 -12.0557C228.037 -9.98656 225.072 -8.05272 221.988 -6.37566C213.338 -1.67258 206.378 4.50338 201.03 12.7426C193.636 24.1335 182.836 32.8504 171.567 40.0243C155.16 50.4695 141.132 63.4282 126.647 75.8727C114.399 86.3959 100.048 94.2117 88.391 105.415C79.3349 114.118 71.0911 123.812 59.2427 129.693Z" fill="#E8E4DE"/>
    <path d="M59.0089 129.253L58.9617 129.276L58.9207 129.309C55.2166 132.243 51.0002 134.354 46.6223 136.307C45.428 136.84 44.2195 137.361 43.0064 137.885C39.7903 139.273 36.5418 140.675 33.4398 142.333C21.5484 148.69 10.5127 156.228 -0.351721 163.966C-2.73792 165.665 -5.11539 167.374 -7.49181 169.082C-15.9427 175.155 -24.3804 181.219 -33.15 186.824C-35.6882 188.446 -38.1758 190.108 -40.6583 191.766C-43.9997 193.997 -47.3319 196.223 -50.7658 198.338C-50.9645 198.46 -51.1624 198.585 -51.3599 198.709C-52.4374 199.385 -53.5011 200.053 -54.6106 200.365C-55.2504 200.545 -55.882 200.598 -56.5155 200.464C-57.1474 200.331 -57.8163 200.006 -58.5213 199.378L-58.8605 199.74L-58.5213 199.378C-59.7707 198.265 -60.1448 197.033 -60.1162 195.724C-60.0893 194.496 -59.7104 193.223 -59.32 191.91C-59.2817 191.782 -59.2432 191.652 -59.205 191.523C-58.618 189.534 -57.7188 187.582 -56.6991 185.722C-52.2228 177.56 -49.7708 169.046 -50.2397 159.669C-50.681 150.842 -46.7114 143.952 -39.8798 137.545C-30.8889 129.111 -20.6762 122.539 -10.147 116.273C-0.611532 110.599 8.10202 104.076 15.4173 95.8503C18.6586 92.2056 22.1425 89.125 27.0219 88.326C47.6153 84.9545 65.5513 75.2169 82.4903 64.5332C94.7288 56.814 107.285 49.6173 119.848 42.417L119.882 42.3976C132.431 35.2055 144.988 28.0093 157.223 20.2937C158.834 19.2775 160.477 18.2893 162.125 17.2977C168.354 13.5498 174.663 9.75385 179.672 4.21966C181.29 2.43252 183.726 1.13342 186.097 0.0299302C200.09 -6.48196 213.541 -13.8045 224.553 -24.8164L224.188 -25.163L224.553 -24.8164C226.025 -26.2889 228.038 -27.3065 230.078 -28.3382C230.43 -28.516 230.782 -28.6941 231.133 -28.8751C233.141 -29.9118 234.379 -29.6828 235.14 -29.044C235.963 -28.3531 236.423 -27.0356 236.51 -25.5234C236.808 -20.3766 234.997 -15.7105 230.552 -12.4515C227.744 -10.3929 224.798 -8.47177 221.737 -6.80739C213.02 -2.06778 205.997 4.16269 200.601 12.4752C193.261 23.7825 182.528 32.4539 171.287 39.6101C157.569 48.3433 145.508 58.8317 133.488 69.2837C131.098 71.3622 128.71 73.4392 126.31 75.5008C120.914 80.1371 115.107 84.2462 109.283 88.3685C108.521 88.9079 107.758 89.4476 106.996 89.9887C100.42 94.6588 93.8909 99.4319 88.0334 105.061C86.2472 106.778 84.4972 108.528 82.7492 110.275C75.5881 117.435 68.4601 124.561 59.0089 129.253Z" stroke="black" stroke-opacity="0.41"/>
    <path d="M380.56 292.949C394.07 283.036 403.883 276.415 412.997 268.989C422.574 261.187 433.73 256.42 445.913 257.269C496.142 260.768 533.513 234.632 571.26 209.749C600.806 190.271 626.797 166.459 652.953 142.99C679.414 119.247 711.916 104.317 742.295 86.385C750.84 81.3415 759.882 76.9381 767.718 70.8728C806.388 40.9401 847.984 14.7738 886.402 -15.5477C901.363 -27.3553 915.095 -40.2225 928.667 -53.249C947.677 -71.4965 969.518 -76.2996 994.75 -67.5792C1016.18 -60.1716 1038.06 -57.1057 1060.43 -55.2901C1093.04 -52.6419 1098.56 -46.5388 1098.77 -14.6735C1098.84 -3.71704 1100.38 6.73811 1103.44 17.3537C1107.82 32.5591 1105.62 46.1533 1090.6 54.8735C1067.98 68.0005 1053.66 88.3741 1038.94 108.883C1021.19 133.624 1000.74 156.367 975.165 174.03C946.112 194.098 923.894 221.83 893.434 240.563C875.641 251.505 869.751 272.121 864.38 290.806C853.926 327.176 826.074 344.632 792.254 353.161C768.546 359.139 746.634 366.729 728.077 381.614C708.07 397.66 684.891 404.141 659.188 404.469C643.253 404.672 628.108 406.333 614.725 416.023C601.176 425.835 589.296 436.049 586.036 453.422C582.099 474.397 570.794 476.321 551.878 464.06C548.754 462.036 545.793 459.73 542.936 457.349C526.211 443.413 507.91 441.409 488.196 448.514C470.867 454.759 452.945 458.138 434.17 458.471C389.451 459.264 339.169 424.685 324.475 382.765C318.084 364.534 322.974 349.115 334.338 334.978C348.537 317.312 366.459 303.567 380.56 292.949Z" fill="#E8E4DE"/>
    <path d="M324.957 382.611L324.475 382.765L324.957 382.611C318.634 364.575 323.453 349.324 334.74 335.282C348.896 317.67 366.769 303.958 380.873 293.34C385.281 290.105 389.301 287.218 393.033 284.537C400.717 279.016 407.184 274.371 413.327 269.366C422.836 261.619 433.867 256.922 445.881 257.759C494.388 261.139 530.948 236.981 567.222 213.012C568.665 212.059 570.107 211.107 571.549 210.156C599.316 191.851 623.944 169.725 648.484 147.677C650.089 146.235 651.695 144.792 653.301 143.352C672.951 125.721 695.92 112.97 718.929 100.198C726.847 95.8032 734.77 91.4053 742.563 86.8052C744.953 85.3948 747.39 84.0298 749.835 82.6608C756.085 79.1614 762.382 75.6356 768.038 71.2576C786.467 56.9925 805.562 43.5825 824.672 30.1623C825.6 29.5105 826.528 28.8588 827.456 28.2069C847.49 14.1342 867.504 0.00473314 886.726 -15.1658C901.707 -26.9894 915.454 -39.8708 929.027 -52.8986C938.478 -61.971 948.61 -67.6797 959.491 -70.0475C970.372 -72.4153 982.041 -71.4512 994.583 -67.1166C1016.08 -59.6879 1038.01 -56.6174 1060.39 -54.8003C1068.53 -54.1389 1074.95 -53.264 1080.01 -51.8359C1085.06 -50.4096 1088.72 -48.4404 1091.37 -45.6098C1094.03 -42.7784 1095.73 -39.0395 1096.78 -33.9984C1097.82 -28.9519 1098.21 -22.6344 1098.26 -14.6751C1098.33 -3.67399 1099.88 6.82462 1102.95 17.4815C1105.13 25.0325 1105.65 32.1342 1103.81 38.407C1101.97 44.6656 1097.75 50.1482 1090.33 54.4515C1068.11 67.3446 1053.88 87.1914 1039.52 107.216L1038.52 108.6C1020.79 133.314 1000.37 156.01 974.867 173.629C961.562 182.819 949.689 193.612 937.833 204.389C936.715 205.406 935.597 206.422 934.477 207.437C921.483 219.221 908.344 230.808 893.158 240.147C875.245 251.163 869.295 271.865 863.953 290.45L863.89 290.671C853.501 326.815 825.838 344.182 792.121 352.685C768.391 358.669 746.394 366.281 727.75 381.235C707.85 397.196 684.789 403.651 659.177 403.978C643.218 404.181 627.934 405.842 614.418 415.629C600.859 425.448 588.833 435.759 585.535 453.33C583.573 463.784 579.816 469.244 574.43 470.732C571.719 471.481 568.519 471.25 564.798 470.054C561.077 468.857 556.866 466.704 552.158 463.653L551.878 464.06L552.158 463.653C549.058 461.644 546.115 459.353 543.266 456.978C534.839 449.957 525.996 445.926 516.76 444.556C507.526 443.185 497.934 444.478 488.015 448.053C470.738 454.28 452.872 457.647 434.156 457.979C411.929 458.374 388.285 449.975 368.356 436.236C348.428 422.498 332.262 403.453 324.957 382.611Z" stroke="black" stroke-opacity="0.41"/>
    <path d="M107.282 291.999C104.935 292.015 102.534 291.872 101.572 289.372C100.589 286.817 100.803 284.236 102.766 282.082C104.585 280.087 106.795 279.43 109.458 280.531C112.146 281.641 114.699 283.01 116.751 284.991C118.763 286.935 118.298 289.169 115.687 290.22C113.029 291.288 110.218 291.994 107.282 291.999Z" fill="#E8E4DE"/>
    <path d="M116.404 285.351C117.333 286.248 117.609 287.129 117.463 287.84C117.317 288.554 116.71 289.269 115.5 289.756L115.687 290.22L115.5 289.756C112.884 290.808 110.137 291.494 107.282 291.499L107.279 291.499C106.101 291.507 104.994 291.471 104.07 291.156C103.179 290.852 102.461 290.289 102.039 289.193L101.572 289.372L102.039 289.193C101.11 286.78 101.322 284.408 103.136 282.419C103.996 281.476 104.921 280.878 105.916 280.631C106.907 280.385 108.016 280.475 109.267 280.993L109.267 280.993C111.929 282.093 114.417 283.432 116.404 285.351ZM116.404 285.351L116.751 284.991L116.404 285.351Z" stroke="black" stroke-opacity="0.41"/>
    </g>
    <defs>
    <clipPath id="clip0_468_84">
    <rect width="880" height="355" fill="white"/>
    </clipPath>
    </defs>
</svg>

