<svg preserveAspectRatio="none" width="880" height="112" viewBox="0 0 880 112" fill="none" xmlns="http://www.w3.org/2000/svg">
    <g clip-path="url(#clip0_115_700)">
    <rect width="880" height="112" fill="#E8E3DD"/>
    <path d="M29.2799 42.4576C25.6712 45.3162 21.0845 46.5561 16.9986 48.7403C5.59786 54.8348 -4.1738 63.2014 -14.9863 70.1118C-17.8288 71.9285 -20.5829 73.8777 -23.4552 75.6472C-24.6488 76.3825 -26.013 77.4245 -27.477 76.1201C-28.7991 74.9423 -28.2796 73.4696 -27.8765 72.1031C-27.5881 71.126 -27.148 70.1723 -26.6531 69.2698C-24.5183 65.377 -23.3543 61.3277 -23.5771 56.8719C-23.7938 52.5392 -21.8385 49.1668 -18.5252 46.0589C-14.1849 41.9876 -9.25851 38.8186 -4.19524 35.8055C0.373182 33.087 4.53933 29.9669 8.03405 26.0372C9.59903 24.2774 11.3204 22.7421 13.7526 22.3438C23.5983 20.7319 32.1835 16.0747 40.3182 10.944C52.0912 3.51849 64.4722 -2.90001 76.2325 -10.3162C79.9609 -12.6674 83.9562 -14.6679 86.9715 -17.9993C87.784 -18.897 88.9953 -19.5383 90.1355 -20.069C96.8534 -23.1952 103.286 -26.6999 108.548 -31.9617C109.411 -32.8248 110.645 -33.3749 111.769 -33.9555C113.797 -35.0023 114.625 -33.646 114.712 -32.1455C114.859 -29.6044 113.962 -27.282 111.754 -25.6627C110.397 -24.6683 108.972 -23.739 107.49 -22.933C103.333 -20.6729 99.9889 -17.7049 97.4185 -13.7454C93.8651 -8.27123 88.675 -4.08214 83.2596 -0.634598C75.3749 4.38507 68.6336 10.6126 61.6725 16.5931C55.7862 21.6502 48.8897 25.4062 43.2877 30.7901C38.9356 34.9727 34.9739 39.6312 29.2799 42.4576Z" fill="#E8E4DE"/>
    <path d="M28.9989 42.0407L29.0461 42.0172C33.5462 39.7834 36.9349 36.396 40.3738 32.9585C41.2172 32.1155 42.0636 31.2694 42.9301 30.4366C45.7601 27.7169 48.9116 25.4135 52.0723 23.1689C52.4389 22.9086 52.8055 22.6492 53.1717 22.39C55.972 20.4081 58.7517 18.4408 61.3353 16.2211C62.486 15.2326 63.6321 14.2358 64.7798 13.2378C70.556 8.21468 76.3692 3.15944 82.9794 -1.04882C88.3669 -4.47866 93.4907 -8.62225 96.9898 -14.0127L97.4185 -13.7454L96.9898 -14.0127C99.6078 -18.0456 103.016 -21.0681 107.24 -23.3648C108.699 -24.158 110.105 -25.0746 111.446 -26.0584C113.504 -27.5672 114.346 -29.7232 114.207 -32.1233C114.166 -32.8247 113.954 -33.3702 113.641 -33.6333C113.389 -33.8443 112.922 -33.9897 112.01 -33.5187L111.769 -33.9555L112.01 -33.5187C111.837 -33.4294 111.665 -33.3423 111.495 -33.2561C110.512 -32.7588 109.588 -32.291 108.912 -31.615C103.588 -26.2903 97.0898 -22.7559 90.3579 -19.6231C89.2194 -19.0932 88.0921 -18.4872 87.3528 -17.6704C84.9176 -14.9798 81.843 -13.1304 78.8452 -11.3272C78.0575 -10.8533 77.275 -10.3827 76.5109 -9.90079C70.6264 -6.18997 64.5882 -2.72942 58.559 0.725981L58.5404 0.736677C52.5019 4.19738 46.4727 7.65319 40.5966 11.3594C32.45 16.4976 23.7935 21.2014 13.842 22.8306C11.5913 23.1992 9.96806 24.6202 8.41822 26.363C4.8803 30.3413 0.66978 33.4918 -3.92787 36.2276C-8.98435 39.2367 -13.8723 42.3833 -18.172 46.4164L-18.5252 46.0589L-18.172 46.4164C-21.4223 49.4652 -23.2786 52.7097 -23.0714 56.8535C-22.8433 61.4149 -24.0373 65.5517 -26.206 69.5063C-26.6909 70.3907 -27.1144 71.3114 -27.3897 72.2445L28.9989 42.0407ZM28.9989 42.0407L28.9579 42.0731M28.9989 42.0407L28.9579 42.0731M28.9579 42.0731C27.204 43.4624 25.2021 44.4665 23.1032 45.4026C22.5356 45.6557 21.9587 45.9047 21.3779 46.1554C19.8289 46.824 18.2524 47.5044 16.7513 48.3069C11.0213 51.37 5.7067 55.0008 0.483864 58.7204C-0.664955 59.5385 -1.80887 60.3606 -2.95175 61.182C-7.01209 64.1001 -11.0594 67.0088 -15.2672 69.6981C-16.4982 70.4847 -17.6958 71.2847 -18.8884 72.0813C-20.4881 73.1498 -22.0789 74.2124 -23.7292 75.2291C-23.8294 75.2908 -23.9276 75.3524 -24.0242 75.4129C-24.5432 75.7384 -25.0169 76.0354 -25.5102 76.1742C-25.7862 76.2518 -26.0448 76.2707 -26.2973 76.2175C-26.5483 76.1646 -26.8284 76.0332 -27.1378 75.7575L-27.1378 75.7575M28.9579 42.0731L-27.1378 75.7575M-27.1378 75.7575C-27.6727 75.281 -27.8299 74.7654 -27.8175 74.1985M-27.1378 75.7575L-27.8175 74.1985M-27.8175 74.1985C-27.8054 73.6439 -27.6332 73.0644 -27.4435 72.4259M-27.8175 74.1985L-27.4435 72.4259M-27.4435 72.4259C-27.4257 72.366 -27.4077 72.3055 -27.3898 72.2446L-27.4435 72.4259Z" stroke="black" stroke-opacity="0.41"/>
    <path d="M628.526 289.454C620.923 285.702 615.659 282.842 610.198 280.483C604.46 278.004 599.716 274.108 597.253 268.44C587.101 245.072 566.644 234.394 546.661 223.254C531.02 214.535 514.263 208.424 497.621 202.158C480.785 195.819 466.495 184.712 451.354 175.257C447.095 172.598 443.007 169.566 438.455 167.464C415.991 157.089 394.534 144.521 371.953 134.349C363.16 130.388 354.178 127.226 345.162 124.173C332.532 119.897 325.278 111.212 323.304 97.848C321.627 86.4957 317.897 75.9577 313.492 65.4932C307.07 50.2336 308.52 46.329 322.779 38.7989C327.682 36.2098 332.016 33.0769 336.068 29.2253C341.871 23.7086 348.488 21.5232 355.911 26.2344C367.084 33.3262 379.573 34.9989 392.216 36.8196C407.468 39.0162 422.453 42.8906 436.351 50.2485C452.142 58.6085 469.779 62.1111 485.299 71.4144C494.365 76.8492 504.995 74.6819 514.638 72.732C533.407 68.9364 547.745 77.3669 559.468 90.5609C567.686 99.8097 576.208 107.876 587.223 112.734C599.096 117.97 607.417 126.865 613.563 138.328C617.373 145.435 621.654 151.847 629.128 155.594C636.696 159.387 644.054 162.337 652.616 159.746C662.951 156.618 666.454 161.244 665.364 172.599C665.185 174.474 664.841 176.341 664.439 178.18C662.085 188.941 665.457 197.626 673.248 204.819C680.097 211.141 685.797 218.4 690.328 226.751C701.122 246.643 697.333 277.29 681.942 293.671C675.248 300.796 667.184 302.199 658.185 300.397C646.939 298.145 636.585 293.307 628.526 289.454Z" fill="#E8E4DE"/>
    <path d="M664.873 172.538L664.873 172.538C664.696 174.385 664.357 176.23 663.957 178.058C662.763 183.52 663.017 188.48 664.575 192.997C666.131 197.512 668.979 201.551 672.923 205.192C679.731 211.477 685.395 218.69 689.899 226.99C695.232 236.82 696.977 249.339 695.465 261.452C693.954 273.565 689.193 285.216 681.583 293.315L681.942 293.671L681.583 293.315C675.031 300.29 667.149 301.678 658.269 299.9C647.091 297.661 636.789 292.851 628.729 288.997C626.254 287.776 624.024 286.647 621.95 285.598C617.674 283.434 614.068 281.609 610.381 280.017C604.722 277.572 600.098 273.755 597.703 268.242C587.863 245.594 568.413 234.779 549.202 224.097C548.43 223.668 547.659 223.239 546.889 222.81C532.173 214.607 516.474 208.708 500.852 202.837C499.828 202.452 498.804 202.068 497.781 201.683C485.307 196.986 474.255 189.672 463.157 182.327C459.331 179.795 455.5 177.259 451.603 174.826C450.423 174.089 449.247 173.317 448.065 172.541C445.029 170.548 441.953 168.528 438.649 167.003C427.948 162.06 417.476 156.62 406.989 151.172C406.48 150.907 405.971 150.643 405.462 150.379C394.469 144.669 383.448 138.978 372.143 133.886C363.326 129.914 354.325 126.745 345.307 123.692C339.062 121.578 334.176 118.384 330.609 114.094C327.042 109.804 324.767 104.387 323.791 97.7829C322.105 86.3667 318.356 75.7816 313.944 65.3008C312.342 61.4934 311.245 58.4265 310.711 55.8487C310.179 53.2773 310.214 51.2255 310.845 49.4287C311.475 47.6309 312.723 46.0293 314.721 44.4004C316.724 42.7681 319.454 41.1299 323.012 39.2507C327.954 36.6407 332.324 33.4819 336.407 29.6008C339.27 26.8796 342.296 25.016 345.485 24.3922C348.659 23.7713 352.043 24.3689 355.658 26.6638C366.678 33.6581 378.957 35.4235 391.286 37.1959C391.576 37.2377 391.867 37.2795 392.158 37.3214C407.377 39.5131 422.302 43.3755 436.133 50.6979C443.38 54.5344 451.012 57.3515 458.615 60.1579C459.333 60.4231 460.051 60.6882 460.769 60.954C469.093 64.0378 477.342 67.2256 485.057 71.8506C494.265 77.3707 505.029 75.194 514.588 73.2608L514.744 73.2293C533.283 69.48 547.455 77.7838 559.108 90.8979C567.34 100.164 575.922 108.296 587.037 113.198C598.786 118.381 607.028 127.181 613.132 138.565C616.954 145.693 621.298 152.228 628.92 156.048C636.499 159.847 644.011 162.882 652.765 160.232C657.9 158.678 661.1 159.128 662.922 161.087C663.845 162.081 664.474 163.518 664.8 165.437C665.126 167.356 665.144 169.724 664.873 172.538Z" stroke="black" stroke-opacity="0.41"/>
    </g>
    <defs>
    <clipPath id="clip0_115_700">
    <rect width="880" height="112" fill="white"/>
    </clipPath>
    </defs>
</svg>