<svg preserveAspectRatio="none" width="880" height="355" viewBox="0 0 880 355" fill="none" xmlns="http://www.w3.org/2000/svg">
    <g clip-path="url(#clip0_468_69)">
    <rect width="880" height="355" fill="#E8E3DD"/>
    <path d="M156.228 411.249C128.741 385.899 98.022 364.594 73.4171 335.766C46.956 304.763 13.9108 287.204 -28.9655 295.844C-44.4934 298.973 -59.2439 293.2 -73.2165 287.498C-87.1292 281.82 -89.0745 271.093 -79.0778 259.754C-73.7425 253.702 -66.8281 249.062 -60.7593 243.635C-38.5137 223.745 -22.0314 200.111 -12.1163 171.693C-7.13417 157.415 -0.903968 143.399 6.32322 130.114C17.1283 110.253 23.9334 89.882 25.1387 66.9642C26.5425 40.2752 32.8654 35.4074 60.2494 34.9167C70.7551 34.7287 81.2787 36.2808 91.8046 36.4565C134.506 37.17 162.983 13.7609 170.165 -27.9883C171.946 -38.3392 172.562 -48.8892 174.337 -59.2414C178.699 -84.6814 190.472 -105.526 213.47 -118.653C232.871 -129.726 249.69 -142.587 261.155 -162.98C270.86 -180.246 281.181 -179.602 293.767 -164.077C308.526 -145.871 311.633 -122.913 313.098 -101.374C316.252 -54.9939 332.353 -15.4757 363.031 19.1287C371.047 28.1709 384.02 41.7334 374.507 52.546C364.054 64.4289 351.842 49.9799 341.425 43.7717C289.636 12.9071 249.926 24.8732 225.14 79.4172C215.898 99.7542 205.484 119.139 190.514 135.968C184.324 142.927 178.207 150.413 174.079 158.67C143.206 220.435 156.987 316.606 204.813 368.856C224.208 390.045 239.409 412.905 244.192 441.547C245.677 450.434 249.658 461.051 240.45 467.736C229.878 475.411 223.351 464.74 216.554 459.507C196.155 443.799 176.297 427.386 156.228 411.249Z" fill="#E8E4DE"/>
    <path d="M156.555 410.87C146.981 402.041 137.01 393.697 127.052 385.365C122.71 381.732 118.37 378.1 114.066 374.431C99.8808 362.338 86.0738 349.825 73.7974 335.442C47.2549 304.343 14.0389 286.668 -29.0643 295.354C-44.4223 298.449 -59.0347 292.745 -73.0276 287.035C-79.9005 284.23 -83.6934 280.231 -84.6231 275.649C-85.5549 271.058 -83.6497 265.696 -78.7027 260.085C-76.0622 257.09 -73.0249 254.437 -69.8759 251.846C-68.9588 251.092 -68.0308 250.341 -67.1006 249.589C-64.8472 247.767 -62.5809 245.935 -60.426 244.008C-38.1223 224.065 -21.5894 200.362 -11.6442 171.858C-6.67116 157.605 -0.452009 143.615 6.76243 130.353C17.5955 110.441 24.428 89.9972 25.6381 66.9905C26.3405 53.6357 28.2761 45.9513 33.2841 41.4894C35.7872 39.2593 39.0976 37.7987 43.5114 36.8672C47.9293 35.9349 53.4207 35.5391 60.2583 35.4166C65.4861 35.3231 70.7232 35.6624 75.9828 36.0489C76.5938 36.0937 77.2053 36.1393 77.817 36.1848C82.4641 36.531 87.1298 36.8786 91.7962 36.9565C113.241 37.3147 131.159 31.6151 144.622 20.5438C158.086 9.47221 167.051 -6.93374 170.658 -27.9035C171.551 -33.0951 172.152 -38.3344 172.75 -43.5575L172.754 -43.5887C173.351 -48.806 173.947 -54.0071 174.83 -59.1569C179.173 -84.4844 190.877 -105.182 213.718 -118.219C233.155 -129.313 250.063 -142.229 261.591 -162.735C266.426 -171.338 271.306 -175.272 276.386 -175.325C281.502 -175.379 287.095 -171.513 293.378 -163.762C308.03 -145.688 311.134 -122.875 312.599 -101.34C315.76 -54.8534 331.903 -15.2295 362.657 19.4604C363.011 19.8603 363.375 20.2685 363.745 20.6843C367.581 24.9898 372.144 30.111 374.899 35.4043C376.406 38.3 377.351 41.2106 377.354 44.0352C377.358 46.8449 376.431 49.6027 374.132 52.2157C371.59 55.1058 368.981 56.3551 366.354 56.5627C363.707 56.7718 360.972 55.9294 358.181 54.4981C355.39 53.0672 352.59 51.073 349.815 49.0302C349.444 48.7572 349.074 48.4833 348.704 48.2097C346.32 46.4461 343.958 44.6996 341.681 43.3422C315.723 27.8721 292.697 23.0792 273.01 29.088C253.321 35.0974 237.11 51.868 224.685 79.2103C215.451 99.5306 205.061 118.862 190.14 135.636C183.945 142.6 177.791 150.127 173.632 158.447C158.139 189.442 153.864 229.033 159.439 267.403C165.014 305.773 180.449 342.978 204.444 369.193C223.808 390.348 238.938 413.122 243.699 441.629C243.919 442.944 244.196 444.314 244.476 445.693C244.668 446.642 244.861 447.596 245.037 448.54C245.474 450.88 245.816 453.215 245.831 455.47C245.86 459.957 244.596 464.108 240.156 467.331C237.58 469.202 235.29 469.927 233.213 469.924C231.13 469.921 229.202 469.187 227.35 468.037C225.494 466.884 223.741 465.33 222.01 463.714C221.698 463.423 221.386 463.13 221.074 462.836C219.67 461.515 218.27 460.197 216.859 459.111C202.191 447.817 187.806 436.159 173.415 424.497C167.802 419.948 162.187 415.399 156.555 410.87Z" stroke="black" stroke-opacity="0.41"/>
    <path d="M572.352 402.696C572.544 394.219 573.022 388.239 572.717 382.294C572.397 376.048 574.564 370.095 580.491 365.446C604.925 346.284 606.209 323.228 608.396 300.404C610.108 282.539 607.688 264.779 605.543 247.058C603.374 229.13 609.076 211.466 612.068 193.739C612.909 188.753 614.349 183.762 614.274 178.749C613.905 154.007 617.052 129.241 616.342 104.482C616.065 94.8402 614.619 85.3692 613.007 75.9142C610.748 62.6698 617.655 52.4011 634.022 44.9062C647.926 38.5394 659.474 30.6649 670.505 22.2117C686.589 9.88547 692.638 9.52851 711.463 19.2005C717.936 22.5261 724.77 25.1053 732.374 27.1225C743.265 30.0118 750.277 35.0595 748.709 43.7823C746.349 56.9132 751.949 68.9177 757.449 81.1246C764.085 95.8512 768.343 111.053 767.335 126.761C766.19 144.608 772.595 162.048 770.038 180.053C768.544 190.57 778.04 199.255 786.632 207.138C803.356 222.483 801.211 239.047 791.158 255.283C784.111 266.663 778.811 277.814 779.294 289.846C779.815 302.818 773.299 314.14 762.041 324.594C755.061 331.075 749.29 337.685 749.026 346.042C748.758 354.504 749.47 362.417 758.231 369.049C768.808 377.056 764.902 382.199 749.267 386.065C746.686 386.704 744.011 387.191 741.339 387.613C725.695 390.084 716.364 396.843 711.758 406.96C707.71 415.853 701.711 424.107 693.543 431.772C674.088 450.029 631.359 459.699 600.169 452.785C586.603 449.779 579.718 443.088 576.469 434.183C572.409 423.055 572.312 411.627 572.352 402.696Z" fill="#E8E4DE"/>
    <path d="M576.939 433.997C572.913 422.961 572.812 411.617 572.853 402.685C572.915 399.934 573.008 397.438 573.094 395.118C573.272 390.322 573.423 386.272 573.217 382.251C572.904 376.154 575.01 370.369 580.791 365.836C604.479 347.258 606.576 325.012 608.645 303.058C608.728 302.183 608.81 301.308 608.894 300.435C610.506 283.609 608.466 266.881 606.438 250.254C606.305 249.162 606.172 248.071 606.04 246.981C604.964 238.086 605.838 229.243 607.363 220.391C608.108 216.065 609.007 211.743 609.908 207.412L609.97 207.113C610.892 202.685 611.811 198.248 612.561 193.805C612.799 192.395 613.079 191.011 613.362 189.617C613.582 188.532 613.803 187.441 614.007 186.327C614.465 183.817 614.812 181.278 614.774 178.724C614.598 166.944 615.221 155.157 615.845 143.347C615.875 142.775 615.905 142.203 615.935 141.631C616.587 129.253 617.198 116.852 616.842 104.45C616.564 94.7711 615.112 85.2709 613.5 75.8135C612.39 69.3037 613.533 63.5613 616.941 58.5241C620.358 53.4724 626.083 49.0839 634.217 45.3595C648.17 38.9699 659.754 31.0697 670.8 22.6045C678.839 16.4441 684.264 13.3646 689.975 12.9554C695.697 12.5453 701.805 14.8083 711.222 19.6468C717.729 22.9896 724.595 25.5807 732.23 27.606C737.645 29.0427 742.032 31.0012 744.866 33.6364C747.675 36.2478 748.969 39.5283 748.217 43.7107C745.881 56.7076 751.244 68.598 756.603 80.4805C756.733 80.768 756.862 81.0555 756.992 81.343C763.61 96.0311 767.837 111.149 766.836 126.746C766.31 134.953 767.369 143.071 768.423 151.14C768.522 151.903 768.622 152.666 768.72 153.429C769.859 162.272 770.811 171.072 769.543 180C768.77 185.439 770.848 190.366 774.145 194.887C777.419 199.375 781.942 203.525 786.206 207.437L786.287 207.512C794.574 215.116 798.145 222.978 798.436 230.912C798.729 238.862 795.732 246.96 790.735 255.03C783.678 266.428 778.305 277.691 778.795 289.884C779.307 302.651 772.903 313.836 761.708 324.233C754.731 330.712 748.798 337.454 748.526 346.044C748.391 350.287 748.499 354.451 749.766 358.399C751.037 362.362 753.465 366.079 757.92 369.451C760.544 371.437 762.218 373.209 763.046 374.786C763.861 376.337 763.848 377.666 763.148 378.87C762.423 380.119 760.914 381.317 758.548 382.452C756.194 383.581 753.056 384.618 749.163 385.58C746.602 386.214 743.943 386.699 741.278 387.12C725.513 389.61 716.002 396.448 711.304 406.766C707.287 415.591 701.331 423.79 693.208 431.413C683.574 440.454 668.127 447.406 651.163 451.23C634.207 455.053 615.803 455.735 600.293 452.297L600.169 452.785L600.293 452.297C586.868 449.321 580.125 442.731 576.939 433.997Z" stroke="black" stroke-opacity="0.41"/>
    <path d="M515.282 313.999C512.935 314.015 510.534 313.872 509.572 311.372C508.589 308.817 508.803 306.236 510.766 304.082C512.585 302.087 514.795 301.43 517.458 302.531C520.146 303.641 522.699 305.01 524.751 306.991C526.763 308.935 526.298 311.169 523.687 312.22C521.029 313.288 518.218 313.994 515.282 313.999Z" fill="#E8E4DE"/>
    <path d="M524.404 307.351C525.333 308.248 525.609 309.129 525.463 309.84C525.317 310.554 524.71 311.269 523.5 311.756L523.687 312.22L523.5 311.756C520.884 312.808 518.137 313.494 515.282 313.499L515.279 313.499C514.101 313.507 512.994 313.471 512.07 313.156C511.179 312.852 510.461 312.289 510.039 311.193L509.572 311.372L510.039 311.193C509.11 308.78 509.322 306.408 511.136 304.419C511.996 303.476 512.921 302.878 513.916 302.631C514.907 302.385 516.016 302.475 517.267 302.993L517.267 302.993C519.929 304.093 522.417 305.432 524.404 307.351ZM524.404 307.351L524.751 306.991L524.404 307.351Z" stroke="black" stroke-opacity="0.41"/>
    </g>
    <defs>
    <clipPath id="clip0_468_69">
    <rect width="880" height="355" fill="white"/>
    </clipPath>
    </defs>
</svg>
