<svg preserveAspectRatio="none" width="880" height="355" viewBox="0 0 880 355" fill="none" xmlns="http://www.w3.org/2000/svg">
    <g clip-path="url(#clip0_468_91)">
    <rect width="880" height="355" fill="#E8E3DD"/>
    <path d="M112.088 218.162C111.77 233.216 98.5898 244.97 92.6123 258.769C75.9336 297.274 78.417 339.969 68.6331 379.972C66.0611 390.489 64.5781 401.262 61.6254 411.684C60.3986 416.015 60.0725 421.587 46.789 420.096C34.7939 418.75 29.1744 413.311 23.6194 408.4C19.6479 404.888 16.4562 401.186 13.7742 397.548C2.20823 381.853 -14.3846 367.354 -39.1341 353.998C-63.2 341.012 -72.7635 327.233 -75.0521 311.92C-78.0506 291.862 -73.7026 273.572 -67.9309 255.527C-62.7226 239.245 -61.3953 222.42 -67.2884 204.26C-69.9273 196.128 -70.6928 188.417 -62.3201 182.984C-28.4233 160.991 -16.2253 131.786 -8.50019 101.9C2.67972 58.6471 21.8605 17.4482 33.0357 -25.7537C36.5783 -39.4503 43.1454 -52.5273 38.3767 -68.0134C37.0916 -72.1864 38.8972 -76.2581 40.9861 -79.866C53.2961 -101.121 62.356 -123.051 56.9784 -148.373C56.0959 -152.527 58.4852 -156.356 60.2408 -160.091C63.4056 -166.825 74.2223 -164.075 82.6077 -159.598C96.8092 -152.017 105.335 -143.304 104.445 -134.492C103.899 -129.081 102.709 -123.751 100.614 -118.704C94.7354 -104.547 96.1422 -89.6121 106.185 -72.9584C120.069 -49.9342 120.028 -28.0429 115.056 -8.0489C107.817 21.0623 111.963 51.9215 113.84 82.3987C115.428 108.17 105.709 131.676 110.268 157.964C113.81 178.386 121.578 199.601 112.088 218.162Z" fill="#E8E4DE"/>
    <path d="M111.639 217.947L111.587 218.05L111.584 218.164C111.429 225.55 108.118 232.154 104.046 238.683C102.938 240.459 101.771 242.233 100.599 244.015C97.4868 248.747 94.336 253.538 92.1503 258.584C83.7816 277.904 80.2261 298.261 77.5381 318.757C76.9473 323.261 76.3986 327.771 75.8502 332.277C73.9006 348.298 71.9553 364.284 68.1441 379.867C67.0469 384.353 66.1473 388.886 65.2503 393.407C65.0932 394.198 64.9363 394.989 64.7783 395.779C63.7172 401.089 62.6115 406.371 61.141 411.561C61.0413 411.913 60.9498 412.263 60.8589 412.611C60.659 413.375 60.4617 414.13 60.1855 414.875C59.7913 415.939 59.2572 416.914 58.3897 417.714C56.6643 419.306 53.4563 420.343 46.858 419.603L46.789 420.096L46.858 419.603C35.5734 418.336 30.0323 413.416 24.7238 408.703C24.4689 408.477 24.2147 408.251 23.9603 408.026C20.0192 404.541 16.8498 400.866 14.1837 397.249C2.56853 381.487 -14.0831 366.944 -38.8844 353.561C-62.8636 340.622 -72.295 326.952 -74.5542 311.836C-77.5356 291.891 -73.2166 273.691 -67.4513 255.665C-62.2178 239.305 -60.8784 222.373 -66.8088 204.098C-68.123 200.048 -68.944 196.176 -68.4354 192.669C-67.932 189.196 -66.119 186.037 -62.0509 183.397C-27.9977 161.302 -15.752 131.952 -8.01272 102.012C-2.42952 80.4113 5.15245 59.3201 12.7433 38.2099L12.7649 38.1498C20.346 17.0669 27.9341 -4.03547 33.5231 -25.642C34.2648 -28.5097 35.1395 -31.3494 36.0183 -34.2026C36.1846 -34.7427 36.3511 -35.2831 36.5168 -35.8244C37.5565 -39.2197 38.566 -42.6398 39.3151 -46.1208C40.8149 -53.0901 41.275 -60.3211 38.8585 -68.1685C37.64 -72.1251 39.3368 -76.0269 41.4216 -79.6276C53.749 -100.913 62.8876 -122.981 57.4711 -148.487L56.9784 -148.373L57.4711 -148.487C57.0558 -150.441 57.4047 -152.337 58.0935 -154.232C58.5836 -155.58 59.2292 -156.889 59.8812 -158.212C60.1555 -158.768 60.4309 -159.327 60.6964 -159.892C62.1391 -162.961 65.3371 -163.952 69.4048 -163.555C73.4615 -163.158 78.1966 -161.383 82.3599 -159.16C89.4338 -155.384 95.0618 -151.342 98.8053 -147.172C102.549 -143.002 104.37 -138.75 103.944 -134.529C103.402 -129.157 102.222 -123.876 100.149 -118.882C94.1981 -104.552 95.6456 -89.454 105.751 -72.6966C119.554 -49.808 119.516 -28.0563 114.567 -8.15607C108.509 16.2073 110.399 41.7961 112.28 67.2714C112.653 72.3359 113.027 77.396 113.338 82.441C114.037 93.7831 112.536 104.683 111.028 115.633C110.831 117.066 110.634 118.499 110.441 119.935C108.779 132.323 107.479 144.836 109.772 158.06C110.466 162.062 111.323 166.098 112.178 170.127C112.416 171.248 112.654 172.368 112.889 173.487C113.966 178.636 114.969 183.765 115.565 188.83C116.758 198.962 116.32 208.792 111.639 217.947Z" stroke="black" stroke-opacity="0.41"/>
    <path d="M1122.73 306.596C1111.06 313.82 1102.42 318.288 1094.77 324.155C1086.72 330.321 1076.09 331.681 1062.73 325.01C1007.62 297.506 974.979 315.758 941.564 332.152C915.41 344.986 894.343 365.271 872.999 385.019C851.405 404.998 820.747 410.364 793.245 420.737C785.51 423.654 777.053 425.483 770.378 430.099C737.437 452.876 700.251 469.253 667.695 492.669C655.016 501.787 643.969 512.89 633.141 524.281C617.973 540.237 595.851 536.798 566.147 513.602C540.914 493.898 516.465 479.842 491.856 467.249C455.971 448.885 448.249 438.157 438.766 395.137C435.505 380.345 430.805 365.561 424.425 349.872C415.287 327.4 413.705 310.085 427.351 305.155C447.893 297.735 457.389 276.785 467.276 255.835C479.203 230.56 494.617 209.203 517.019 197.011C542.471 183.158 558.336 155.88 585.691 144.466C601.67 137.799 602.022 112.699 602.375 89.9639C603.061 45.7127 627.979 34.8341 661.918 38.6898C685.71 41.3925 707.098 41.1094 722.755 29.478C739.635 16.9389 762.711 18.7252 790.292 29.9451C807.393 36.902 823.218 41.5366 834.812 34.5539C846.55 27.484 856.375 19.1147 854.836 -2.80951C852.979 -29.2789 864.594 -26.7416 888.526 -1.64221C892.478 2.50238 896.337 6.95158 900.105 11.4551C922.164 37.817 942.454 48.8204 961.617 48.1937C978.462 47.6435 996.779 51.2238 1016.9 59.2935C1064.82 78.5146 1129.01 147.911 1157.02 211.049C1169.2 238.509 1168.42 257.061 1160.29 270.95C1150.13 288.305 1134.83 298.691 1122.73 306.596Z" fill="#E8E4DE"/>
    <path d="M1159.85 270.703C1149.75 287.948 1134.54 298.28 1122.45 306.184C1118.66 308.531 1115.17 310.593 1111.94 312.509C1105.26 316.465 1099.62 319.802 1094.45 323.768C1090.5 326.794 1085.93 328.634 1080.71 328.905C1075.48 329.176 1069.58 327.878 1062.96 324.573C1035.32 310.777 1013.27 308.44 993.92 311.634C976.071 314.581 960.551 322.236 945.133 329.84C943.865 330.466 942.598 331.091 941.33 331.713C916.71 343.793 896.592 362.453 876.582 381.013C875.27 382.23 873.958 383.447 872.645 384.661C861.917 394.587 848.924 400.895 835.149 406.021C828.417 408.526 821.507 410.745 814.585 412.968L814.106 413.122C807.029 415.396 799.944 417.68 793.055 420.278C791.132 421.003 789.163 421.662 787.178 422.315C786.923 422.399 786.667 422.483 786.412 422.567C784.682 423.136 782.945 423.707 781.232 424.319C777.301 425.724 773.47 427.352 770.079 429.697C754.392 440.544 737.738 449.94 721.058 459.35C720.249 459.806 719.441 460.262 718.632 460.719C701.15 470.586 683.692 480.546 667.388 492.272C654.669 501.42 643.595 512.552 632.765 523.945C625.294 531.804 616.14 534.876 605.17 533.138C594.159 531.394 581.286 524.797 566.462 513.221C541.194 493.489 516.714 479.416 492.088 466.815C474.158 457.639 463.349 450.411 455.822 440.158C448.288 429.895 444.004 416.55 439.262 395.041C435.995 380.219 431.287 365.409 424.898 349.697C420.335 338.479 417.686 328.606 417.852 320.953C417.934 317.131 418.718 313.892 420.29 311.317C421.856 308.75 424.223 306.813 427.534 305.617C437.935 301.86 445.518 294.683 451.73 285.85C457.661 277.417 462.366 267.439 467.08 257.439C467.3 256.974 467.519 256.509 467.738 256.045C479.647 230.81 495.004 209.56 517.272 197.44C528.963 191.077 538.639 181.899 548.267 172.765C549.178 171.902 550.087 171.039 550.998 170.179C561.568 160.199 572.314 150.586 585.897 144.918C594.118 141.488 598.251 133.341 600.39 123.347C602.519 113.399 602.704 101.469 602.879 90.1716L602.882 89.9784C603.224 67.9348 609.598 54.3254 619.987 46.6801C630.393 39.0228 644.948 37.2565 661.866 39.1784C685.662 41.8816 707.238 41.6295 723.068 29.87C739.724 17.4969 762.566 19.197 790.101 30.3983C798.658 33.8794 806.937 36.7975 814.545 37.9628C822.158 39.1289 829.15 38.5474 835.085 34.9728C840.97 31.4282 846.44 27.5214 850.233 21.7098C854.033 15.8876 856.118 8.20568 855.343 -2.83576C854.88 -9.43801 855.265 -14.1543 856.427 -17.1444C857.005 -18.6319 857.763 -19.6585 858.67 -20.2892C859.569 -20.9145 860.66 -21.1815 861.975 -21.074C864.647 -20.8555 868.181 -19.095 872.595 -15.7499C876.989 -12.4199 882.18 -7.57742 888.155 -1.31127C892.097 2.82207 895.947 7.26194 899.712 11.7615C921.813 38.1726 942.241 49.3198 961.641 48.6853C978.398 48.1381 996.642 51.6988 1016.71 59.7476C1040.57 69.3165 1068.53 91.4071 1094.05 119.027C1119.56 146.639 1142.58 179.728 1156.55 211.238L1157.02 211.05L1156.55 211.238C1168.7 238.616 1167.87 256.995 1159.85 270.703Z" stroke="black" stroke-opacity="0.41"/>
    <path d="M250.282 226.999C247.935 227.015 245.534 226.872 244.572 224.372C243.589 221.817 243.803 219.236 245.766 217.082C247.585 215.087 249.795 214.43 252.458 215.531C255.146 216.641 257.699 218.01 259.751 219.991C261.763 221.935 261.298 224.169 258.687 225.22C256.029 226.288 253.218 226.994 250.282 226.999Z" fill="#E8E4DE"/>
    <path d="M259.404 220.351C260.333 221.248 260.609 222.129 260.463 222.84C260.317 223.554 259.71 224.269 258.5 224.756L258.687 225.22L258.5 224.756C255.884 225.808 253.137 226.494 250.282 226.499L250.279 226.499C249.101 226.507 247.994 226.471 247.07 226.156C246.179 225.852 245.461 225.289 245.039 224.193L244.572 224.372L245.039 224.193C244.11 221.78 244.322 219.408 246.136 217.419C246.996 216.476 247.921 215.878 248.916 215.631C249.907 215.385 251.016 215.475 252.267 215.993L252.267 215.993C254.929 217.093 257.417 218.432 259.404 220.351ZM259.404 220.351L259.751 219.991L259.404 220.351Z" stroke="black" stroke-opacity="0.41"/>
    </g>
    <defs>
    <clipPath id="clip0_468_91">
    <rect width="880" height="355" fill="white"/>
    </clipPath>
    </defs>
</svg>
