<svg width="880" height="112" viewBox="0 0 880 112" preserveAspectRatio="none" fill="none" xmlns="http://www.w3.org/2000/svg">
    <g clip-path="url(#clip0_115_692)">
    <rect width="880" height="112" fill="#E8E3DD"/>
    <path d="M25.5362 88.2591C20.4828 83.6011 14.8378 79.6838 10.3123 74.3892C5.4454 68.6949 -0.62523 65.4637 -8.49108 67.0332C-11.3397 67.6017 -14.0488 66.5379 -16.6151 65.4876C-19.1703 64.4416 -19.531 62.4739 -17.7003 60.3981C-16.7232 59.2902 -15.4559 58.4416 -14.344 57.4487C-10.2682 53.8089 -7.25149 49.4808 -5.44161 44.2733C-4.5322 41.6566 -3.39364 39.0888 -2.07185 36.6552C-0.0957109 33.0169 1.14618 29.2837 1.35949 25.0817C1.60792 20.1881 2.76665 19.2977 7.79209 19.2171C9.72007 19.1863 11.652 19.4745 13.5838 19.5103C21.4207 19.6559 26.639 15.3731 27.9426 7.71994C28.2658 5.82248 28.3753 3.8881 28.6975 1.99042C29.4893 -2.67309 31.6426 -6.49132 35.8589 -8.89054C39.4155 -10.9144 42.4979 -13.2668 44.5949 -17.0026C46.3701 -20.1652 48.2645 -20.0436 50.5795 -17.1924C53.2945 -13.8488 53.8726 -9.63799 54.1489 -5.68771C54.7437 2.81818 57.7123 10.0703 63.3543 16.4263C64.8286 18.0872 67.214 20.5787 65.472 22.5581C63.5577 24.7335 61.3115 22.0797 59.3975 20.9377C49.8824 15.2602 42.5988 17.4408 38.0688 27.4341C36.3797 31.1602 34.4752 34.7111 31.7336 37.7921C30.5999 39.0659 29.4799 40.4366 28.7252 41.9494C23.0805 53.2646 25.6428 70.9045 34.438 80.5022C38.0047 84.3943 40.8024 88.5914 41.6901 93.8452C41.9656 95.4755 42.6999 97.4236 41.0123 98.6463C39.0748 100.05 37.8732 98.0911 36.6241 97.1291C32.8748 94.2418 29.2249 91.2252 25.5362 88.2591Z" fill="#E8E4DE"/>
    <path d="M-8.58892 66.5429L-8.49108 67.0332L-8.58893 66.5429C-11.2679 67.0775 -13.839 66.0836 -16.4257 65.0248C-17.6204 64.5358 -18.1783 63.8842 -18.3126 63.2287C-18.4488 62.5638 -18.189 61.7081 -17.3253 60.7288C-16.864 60.2058 -16.3281 59.7371 -15.7553 59.2667C-15.5931 59.1334 -15.4265 58.9989 -15.258 58.8628C-14.8418 58.5269 -14.4138 58.1814 -14.0109 57.8216C-9.87684 54.1297 -6.80925 49.7314 -4.96932 44.4374C-4.06898 41.8469 -2.9415 39.3039 -1.63248 36.8938C0.371771 33.2038 1.64101 29.3982 1.85885 25.107C1.9836 22.6496 2.33983 21.4094 3.11679 20.718C3.50438 20.3731 4.03676 20.1291 4.80414 19.9687C5.5757 19.8074 6.55207 19.7371 7.8001 19.7171C8.73902 19.702 9.68378 19.7646 10.649 19.8373C10.7606 19.8457 10.8727 19.8543 10.985 19.8628C11.8367 19.9278 12.7055 19.9941 13.5745 20.0103C17.5872 20.0848 20.974 19.025 23.5305 16.9261C26.0874 14.8268 27.7674 11.7259 28.4355 7.8039C28.5998 6.83899 28.7095 5.86705 28.8173 4.91138L28.8173 4.9113C28.9256 3.95091 29.0321 3.00685 29.1904 2.0741C29.9631 -2.47657 32.0483 -6.1469 36.1062 -8.45597L35.8589 -8.89054L36.1062 -8.45597C39.6992 -10.5006 42.8703 -12.9089 45.0309 -16.7578C45.9011 -18.3082 46.6915 -18.8467 47.3891 -18.8527C48.1238 -18.8591 49.0433 -18.2912 50.1914 -16.8772L50.1914 -16.8772C52.7993 -13.6654 53.3742 -9.59787 53.6501 -5.65282C54.2524 2.95967 57.2628 10.3171 62.9803 16.7583C63.0449 16.831 63.1106 16.9047 63.1771 16.9793C63.889 17.7779 64.6936 18.6804 65.176 19.6042C65.4365 20.1029 65.582 20.5709 65.5833 21.0001C65.5847 21.4142 65.4525 21.8234 65.0967 22.2278C64.6895 22.6905 64.3051 22.8571 63.946 22.8847C63.5673 22.9139 63.1441 22.7942 62.6631 22.5472C62.1831 22.3006 61.6923 21.9523 61.1815 21.576C61.1148 21.5269 61.0476 21.4772 60.98 21.4272C60.5435 21.1041 60.0911 20.7693 59.6537 20.5084C54.8332 17.632 50.4832 16.6892 46.7186 17.8309C42.9515 18.9733 39.9104 22.1603 37.6134 27.2277C35.932 30.9369 34.0521 34.4344 31.36 37.4597C30.2214 38.7391 29.0637 40.1509 28.2778 41.7262C25.3991 47.4967 24.6266 54.8439 25.6719 61.9427C26.7174 69.0423 29.5898 75.9517 34.0693 80.84C37.6053 84.6985 40.3322 88.8098 41.1971 93.9285C41.2384 94.1728 41.2931 94.4408 41.3465 94.7021C41.3818 94.8752 41.4166 95.0454 41.4464 95.2038C41.5259 95.6258 41.5842 96.0258 41.5874 96.4028C41.5935 97.1322 41.3975 97.7498 40.7189 98.2414C40.3016 98.5438 39.9643 98.6376 39.6865 98.6367C39.4039 98.6359 39.1239 98.5367 38.8241 98.3503C38.5198 98.161 38.2227 97.8997 37.9052 97.6037C37.8511 97.5533 37.7961 97.5016 37.7403 97.449C37.4818 97.2058 37.206 96.9462 36.9291 96.733C34.2376 94.6602 31.5996 92.5225 28.9561 90.3804C27.9269 89.5464 26.897 88.7118 25.8627 87.88C24.0982 86.2544 22.2567 84.7137 20.4264 83.1823C19.6299 82.516 18.8356 81.8514 18.0507 81.1824C15.448 78.964 12.9292 76.6813 10.6924 74.0643C5.74458 68.2753 -0.496321 64.9281 -8.58892 66.5429Z" stroke="black" stroke-opacity="0.41"/>
    <path d="M414.28 111.458C410.671 114.316 406.084 115.556 401.999 117.74C390.598 123.835 380.826 132.201 370.014 139.112C367.171 140.929 364.417 142.878 361.545 144.647C360.351 145.382 358.987 146.425 357.523 145.12C356.201 143.942 356.72 142.47 357.124 141.103C357.412 140.126 357.852 139.172 358.347 138.27C360.482 134.377 361.646 130.328 361.423 125.872C361.206 121.539 363.161 118.167 366.475 115.059C370.815 110.988 375.741 107.819 380.805 104.806C385.373 102.087 389.539 98.9669 393.034 95.0372C394.599 93.2774 396.32 91.7421 398.753 91.3438C408.598 89.7319 417.184 85.0747 425.318 79.944C437.091 72.5185 449.472 66.1 461.232 58.6838C464.961 56.3326 468.956 54.3321 471.971 51.0007C472.784 50.103 473.995 49.4617 475.135 48.931C481.853 45.8048 488.286 42.3001 493.548 37.0383C494.411 36.1752 495.645 35.6251 496.769 35.0445C498.797 33.9977 499.625 35.354 499.712 36.8545C499.859 39.3957 498.962 41.718 496.754 43.3373C495.397 44.3317 493.972 45.261 492.49 46.067C488.333 48.3271 484.989 51.2951 482.419 55.2546C478.865 60.7288 473.675 64.9179 468.26 68.3654C460.375 73.3851 453.634 79.6126 446.672 85.5931C440.786 90.6502 433.89 94.4062 428.288 99.7901C423.936 103.973 419.974 108.631 414.28 111.458Z" fill="#E8E4DE"/>
    <path d="M413.999 111.041L414.046 111.017C418.546 108.783 421.935 105.396 425.374 101.959C426.217 101.115 427.064 100.269 427.93 99.4366C430.76 96.7169 433.912 94.4135 437.072 92.1689C437.439 91.9086 437.805 91.6492 438.172 91.39C440.972 89.4081 443.752 87.4407 446.335 85.2211C447.486 84.2326 448.632 83.2358 449.78 82.2378C455.556 77.2147 461.369 72.1594 467.979 67.9512C473.367 64.5213 478.491 60.3777 481.99 54.9873L482.419 55.2546L481.99 54.9873C484.608 50.9544 488.016 47.9319 492.24 45.6352C493.699 44.842 495.105 43.9254 496.446 42.9416C498.504 41.4328 499.346 39.2768 499.207 36.8767C499.166 36.1753 498.954 35.6298 498.641 35.3667C498.389 35.1557 497.922 35.0103 497.01 35.4813C496.837 35.5706 496.665 35.6577 496.495 35.7439C495.512 36.2412 494.588 36.709 493.912 37.385C488.588 42.7097 482.09 46.2441 475.358 49.3769C474.219 49.9068 473.092 50.5128 472.353 51.3296C469.918 54.0202 466.843 55.8696 463.845 57.6728C463.057 58.1466 462.275 58.6173 461.511 59.0992C455.626 62.81 449.588 66.2706 443.559 69.726L443.54 69.7367C437.502 73.1974 431.473 76.6532 425.597 80.3594C417.45 85.4976 408.793 90.2014 398.842 91.8306C396.591 92.1992 394.968 93.6202 393.418 95.363C389.88 99.3413 385.67 102.492 381.072 105.228C376.016 108.237 371.128 111.383 366.828 115.416C363.578 118.465 361.721 121.71 361.929 125.853C362.157 130.415 360.963 134.552 358.794 138.506C358.309 139.391 357.886 140.311 357.61 141.245L413.999 111.041ZM413.999 111.041L413.958 111.073M413.999 111.041L413.958 111.073M413.958 111.073C412.204 112.462 410.202 113.467 408.103 114.403C407.536 114.656 406.959 114.905 406.378 115.155C404.829 115.824 403.252 116.504 401.751 117.307C396.021 120.37 390.707 124.001 385.484 127.72C384.335 128.539 383.191 129.361 382.048 130.182C377.988 133.1 373.941 136.009 369.733 138.698C368.502 139.485 367.304 140.285 366.112 141.081C364.512 142.15 362.921 143.212 361.271 144.229C361.171 144.291 361.072 144.352 360.976 144.413C360.457 144.738 359.983 145.035 359.49 145.174C359.214 145.252 358.955 145.271 358.703 145.218C358.452 145.165 358.172 145.033 357.862 144.758L357.862 144.757M413.958 111.073L357.862 144.757M357.862 144.757C357.327 144.281 357.17 143.765 357.182 143.199M357.862 144.757L357.182 143.199M357.182 143.199C357.195 142.644 357.367 142.064 357.556 141.426M357.182 143.199L357.556 141.426M357.556 141.426C357.574 141.366 357.592 141.306 357.61 141.245L357.556 141.426Z" stroke="black" stroke-opacity="0.41"/>
    <path d="M808.526 174.454C800.923 170.702 795.659 167.842 790.198 165.483C784.46 163.004 779.716 159.108 777.253 153.44C767.101 130.072 746.644 119.394 726.661 108.254C711.02 99.535 694.263 93.4237 677.621 87.158C660.785 80.8192 646.495 69.7119 631.354 60.2575C627.095 57.5985 623.007 54.5663 618.455 52.4641C595.991 42.0885 574.534 29.5206 551.953 19.3491C543.16 15.3879 534.178 12.2258 525.162 9.1729C512.532 4.89675 505.278 -3.78814 503.304 -17.152C501.627 -28.5044 497.897 -39.0424 493.492 -49.5069C487.07 -64.7664 488.52 -68.671 502.779 -76.2011C507.682 -78.7902 512.016 -81.9232 516.068 -85.7747C521.871 -91.2914 528.488 -93.4769 535.911 -88.7657C547.084 -81.6738 559.573 -80.0011 572.216 -78.1804C587.468 -75.9839 602.453 -72.1094 616.351 -64.7515C632.142 -56.3915 649.779 -52.8889 665.299 -43.5856C674.365 -38.1509 684.995 -40.3181 694.638 -42.268C713.407 -46.0636 727.745 -37.6331 739.468 -24.4391C747.686 -15.1903 756.208 -7.12434 767.223 -2.26647C779.096 2.97047 787.417 11.8649 793.563 23.3281C797.373 30.4353 801.654 36.8474 809.128 40.594C816.696 44.387 824.054 47.3369 832.616 44.7459C842.951 41.6176 846.454 46.2444 845.364 57.5988C845.185 59.474 844.841 61.3415 844.439 63.1799C842.085 73.9415 845.457 82.626 853.248 89.8187C860.097 96.1414 865.797 103.4 870.328 111.751C881.122 131.643 877.333 162.29 861.942 178.671C855.248 185.796 847.184 187.199 838.185 185.397C826.939 183.145 816.585 178.307 808.526 174.454Z" fill="#E8E4DE"/>
    <path d="M844.873 57.538L844.873 57.5381C844.697 59.3845 844.357 61.2299 843.957 63.0584C842.763 68.5205 843.017 73.4804 844.575 77.9973C846.131 82.5115 848.979 86.5509 852.923 90.1922C859.731 96.4773 865.395 103.69 869.899 111.99C875.232 121.82 876.977 134.339 875.465 146.452C873.954 158.565 869.193 170.216 861.583 178.315L861.942 178.671L861.583 178.315C855.031 185.29 847.149 186.678 838.269 184.9C827.091 182.661 816.789 177.851 808.729 173.997C806.254 172.776 804.024 171.647 801.95 170.598C797.674 168.434 794.068 166.609 790.381 165.017C784.722 162.572 780.098 158.755 777.703 153.242C767.863 130.594 748.413 119.779 729.202 109.097C728.43 108.668 727.659 108.239 726.889 107.81C712.173 99.6065 696.474 93.7076 680.852 87.8372C679.828 87.4525 678.804 87.0678 677.781 86.6827C665.307 81.9863 654.255 74.6718 643.157 67.327C639.331 64.795 635.5 62.2593 631.603 59.826C630.423 59.0891 629.247 58.3173 628.065 57.5413C625.03 55.5484 621.953 53.5283 618.649 52.0027C607.948 47.0605 597.475 41.6196 586.988 36.1716C586.48 35.9074 585.971 35.6431 585.462 35.3789C574.469 29.669 563.448 23.978 552.143 18.8857C543.326 14.914 534.325 11.7454 525.307 8.69198C519.062 6.57769 514.176 3.38437 510.609 -0.905808C507.042 -5.19556 504.767 -10.6128 503.791 -17.2171C502.105 -28.6333 498.356 -39.2184 493.944 -49.6992C492.342 -53.5066 491.245 -56.5735 490.711 -59.1513C490.179 -61.7227 490.214 -63.7746 490.845 -65.5713C491.475 -67.3691 492.723 -68.9707 494.721 -70.5996C496.724 -72.2319 499.454 -73.8701 503.012 -75.7494C507.954 -78.3593 512.324 -81.5181 516.407 -85.3992C519.27 -88.1204 522.296 -89.9841 525.485 -90.6078C528.659 -91.2287 532.043 -90.6312 535.658 -88.3362C546.678 -81.3419 558.957 -79.5766 571.285 -77.8041C571.576 -77.7623 571.867 -77.7205 572.158 -77.6786C587.377 -75.4869 602.302 -71.6245 616.133 -64.3022C623.38 -60.4655 631.012 -57.6483 638.615 -54.8418C639.334 -54.5768 640.051 -54.3118 640.769 -54.0461C649.093 -50.9622 657.342 -47.7744 665.057 -43.1494C674.265 -37.6293 685.029 -39.806 694.588 -41.7392L694.744 -41.7708C713.283 -45.52 727.455 -37.2163 739.108 -24.1021C747.34 -14.8364 755.922 -6.7038 767.037 -1.80154C778.786 3.38053 787.028 12.1814 793.132 23.5649C796.954 30.6929 801.298 37.2279 808.92 41.0484C816.499 44.847 824.011 47.8815 832.765 45.2322C837.9 43.678 841.1 44.128 842.922 46.087C843.845 47.0807 844.474 48.5175 844.8 50.4368C845.126 52.3562 845.144 54.7243 844.873 57.538Z" stroke="black" stroke-opacity="0.41"/>
    </g>
    <defs>
    <clipPath id="clip0_115_692">
    <rect width="880" height="112" fill="white"/>
    </clipPath>
    </defs>
</svg>