<svg  preserveAspectRatio="none" width="358" height="629" viewBox="0 0 358 629" fill="none" xmlns="http://www.w3.org/2000/svg">
    <rect width="358" height="629" fill="#E8E3DD"/>
    <path d="M62 224C107.84 224 145 186.84 145 141C145 95.1604 107.84 58 62 58C16.1604 58 -21 95.1604 -21 141C-21 186.84 16.1604 224 62 224Z" fill="#E2B63F"/>
    <path d="M327 339C372.84 339 410 301.84 410 256C410 210.16 372.84 173 327 173C281.16 173 244 210.16 244 256C244 301.84 281.16 339 327 339Z" fill="#E2B63F"/>
    <mask id="path-4-inside-1_0_1" fill="white">
    <path d="M-112.039 468.181C-109.668 468.778 -106.992 469.316 -104.396 470.14C-100.99 471.221 -97.3306 470.975 -93.7634 471.109C-90.8641 471.218 -88.1405 471.916 -85.3733 472.512C-84.0327 472.801 -83.1328 474.058 -82.3908 475.477C-80.2975 479.48 -77.5226 481.393 -73.6049 480.275C-70.563 479.408 -67.8534 480.398 -65.1483 481.233C-62.1616 482.156 -59.0395 481.885 -55.8077 481.034C-54.4538 480.677 -53.065 480.241 -51.7664 480.285C-48.5784 480.391 -46.1671 482.1 -45.5861 487.169C-45.3654 489.096 -45.1032 491 -44.8037 492.874C-44.4834 494.879 -43.5825 496.174 -42.2022 496.115C-40.6228 496.048 -39.2248 494.468 -38.4121 492.083C-37.7338 490.093 -37.0609 487.964 -36.8051 485.926C-36.2456 481.471 -34.3979 478.592 -31.8188 476.833C-29.6222 475.335 -27.9535 473.072 -26.4896 470.193C-24.9629 467.191 -23.2484 464.47 -21.3282 462.04C-17.4917 457.186 -15.7486 451.408 -15.6605 444.757C-15.5414 435.773 -13.8242 432.146 -7.88342 428.091C-6.43349 427.101 -4.95263 426.176 -3.47564 425.533C-0.466403 424.221 1.95272 421.561 4.11541 417.66C9.02741 408.8 13.6406 399.683 17.4003 389.792C18.5239 386.835 19.9148 384.289 21.6697 382.195C24.1267 379.262 26.2233 378.743 28.0033 381.185C32.4663 387.308 38.1748 388.805 44.8685 386.868C47.9111 385.987 50.709 386.405 53.4036 387.343C55.7595 388.163 58.1095 387.662 60.5995 385.552C63.8199 382.825 67.1834 381.326 70.522 379.952C74.0367 378.506 77.311 378.388 80.2885 380.605C82.6617 382.373 85.47 382.203 88.3181 378.728C91.5016 374.843 95.2685 373.636 98.6132 370.369C102.735 366.343 106.961 362.652 111.149 358.841C114.248 356.02 116.833 352.352 118.897 347.749C120.376 344.45 122.054 341.36 124.159 338.909C127.356 335.186 130.637 332.883 134.097 334.328C135.193 334.786 136.421 334.833 137.498 335.342C140.118 336.579 142.781 336.342 145.71 333.821C148.912 331.065 151.507 332.831 154.067 334.02C155.244 334.566 156.385 335.265 157.596 335.754C159.48 336.514 161.363 336.157 163.297 333.978C166.038 330.89 168.86 330.377 171.613 330.664C175.021 331.02 178.406 330.079 181.842 327.4C186.64 323.657 191.538 320.835 196.502 318.643C198.905 317.582 201.079 315.983 203.044 312.92C205.192 309.572 206.692 310.023 207.097 313.937C207.277 315.674 207.19 317.589 207.107 319.454C206.999 321.898 206.964 324.283 207.334 326.519C208.014 330.625 209.567 332.539 212.567 331.944C216.848 331.096 220.633 332.469 224.539 333.365C225.889 333.675 226.68 335.021 227.604 336.168C230.277 339.48 232.395 339.007 235.28 334.244C236.978 331.441 238.705 328.794 240.754 326.609C241.622 325.684 242.524 324.388 243.044 323.031C246.134 314.965 249.109 306.913 248.197 298.193C247.622 292.694 248.652 289.85 252.121 286.219C254.063 284.186 255.76 281.792 257.43 279.242C259.892 275.484 260.997 275.264 263.821 276.468C267.074 277.856 270.704 276.514 274.269 275.237C277.485 274.085 280.701 272.584 283.918 271.399C288.402 269.747 292.717 269.806 297.015 269.93C298.485 269.972 299.969 269.549 301.426 268.49C304.43 266.307 307.427 264.068 310.397 261.707C313.355 259.355 314.998 255.586 315.148 251.065C315.269 247.425 316.177 244.414 317.89 241.347C320.307 237.02 320.58 234.292 318.808 230.683C316.792 226.575 314.741 222.424 311.054 221.165C310.059 220.826 309.149 220.151 308.259 219.491C306.197 217.961 306.205 216.561 308.392 213.963C309.423 212.738 310.408 211.629 310.325 209.676C310.251 207.955 309.274 207.547 308.343 207.422C304.321 206.884 300.859 204.41 296.928 203.557C291.937 202.475 287.788 198.834 283.049 196.942C270.586 191.969 258.221 186.669 243.954 189.618C242.242 189.972 240.53 190.016 238.879 189.878C235.116 189.564 231.317 190.98 227.485 193.128C224.598 194.746 222.014 197.259 219.742 200.904C217.841 203.956 215.83 206.863 213.811 209.737C210.842 213.963 208.295 218.608 206.503 224.015C205.701 226.432 204.791 228.72 203.386 230.522C200.083 234.761 196.263 233.115 196.247 227.361C196.242 225.362 196.607 223.218 196.851 221.136C197.96 211.704 194.01 201.166 188.446 199.091C186.001 198.179 183.514 197.315 180.933 196.974C174.881 196.174 168.95 199.78 163.19 205.343C161.823 206.663 160.641 208.532 159.768 210.743C157.313 216.963 153.819 218.466 150.157 218.151C148.035 217.969 145.804 217.605 144.076 216.27C141.293 214.12 138.176 214.707 134.978 215.785C129.397 217.666 124.002 217.134 118.395 219.259C116.103 220.127 114.713 217.829 113.632 215.411C111.709 211.112 109.46 207.347 106.462 204.715C102.691 201.405 100.098 201.796 96.107 207.48C92.5913 212.487 89.2327 214.097 85.8738 211.459C82.8243 209.065 79.3321 209.793 75.742 210.946C69.5644 212.93 63.7342 212.799 58.3234 210.401C55.6153 209.201 53.0675 207.477 50.5332 205.775C49.7067 205.219 48.8723 204.8 47.964 204.541C44.5453 203.564 41.3059 202.195 38.6225 199.115C36.6864 196.892 34.1933 196.746 31.4254 199.086C31.0723 199.385 30.7036 199.615 30.3462 199.898C24.295 204.684 22.8973 203.151 20.5226 197.973C19.7071 196.195 18.6375 194.783 17.1945 194.072C14.416 192.703 11.6814 191.2 8.87355 189.922C6.1321 188.675 3.17668 189.887 0.18188 191.674C-3.74289 194.017 -7.63633 196.102 -11.5496 195.397C-14.1082 194.936 -16.239 193.74 -17.5831 190.684C-20.1061 184.947 -23.9682 181.791 -28.233 179.478C-30.7883 178.092 -33.579 177.591 -36.6272 178.404C-41.9731 179.829 -45.628 177.458 -47.4883 170.319C-49.0151 164.459 -50.7962 163.453 -55.1697 166.693C-59.6106 169.983 -62.5886 168.481 -65.3224 164.982C-65.5721 164.662 -65.8084 164.315 -66.0225 163.94C-70.6681 155.815 -77.4826 156.101 -84.9421 158.769C-86.5473 159.343 -87.8222 160.71 -88.9718 162.618C-89.6241 163.7 -90.2325 164.843 -90.8497 165.971C-93.247 170.351 -95.9282 172.707 -99.3222 172.422C-100.725 172.304 -102.181 172.355 -103.589 172.179C-107.619 171.675 -111.157 173.988 -114.053 179.867C-114.548 180.872 -115.086 181.854 -115.504 182.913C-118.257 189.874 -121.529 196.353 -125.015 202.614C-127.441 206.97 -129.537 211.515 -131.16 216.531C-133.71 224.417 -136.594 232.125 -136.91 240.572C-137.101 245.675 -139.089 249.972 -143.761 250.512C-151.863 251.449 -159.788 256.304 -167.781 259.685C-170.829 260.974 -173.715 261.451 -176.452 260.6C-179.347 259.7 -182.309 259.885 -185.484 261.43C-188.21 262.756 -190.921 263.204 -193.623 263.675C-196.908 264.247 -200.043 265.663 -202.809 269.878C-204.7 272.759 -206.937 274.098 -209.15 273.831C-211.999 273.488 -214.932 273.943 -217.834 274.081C-219.506 274.16 -221.265 273.869 -222.62 272.874C-224.528 271.472 -226.727 271.457 -228.829 272.01C-232.883 273.076 -236.952 273.464 -241.038 275.826C-243.081 277.006 -244.875 277.129 -246.563 275.786C-250.33 272.786 -254.879 272.306 -259.191 271.122C-262.443 270.228 -265.877 271.988 -268.921 275.493C-272.98 280.167 -277.075 282.495 -281.465 282.323C-283.048 282.261 -284.67 283.081 -286.264 283.806C-289.867 285.445 -292.803 284.842 -295.053 281.321C-296.032 279.79 -297.213 278.563 -298.324 277.235C-300.853 274.212 -300.904 271.96 -297.926 267.618C-294.009 261.905 -292.521 255.322 -291.659 248.353C-290.971 242.798 -292.093 238.663 -294.42 235.543C-296.534 232.708 -298.804 230.153 -300.794 227.088C-302.879 223.875 -305.589 224.09 -308.751 227.06C-309.446 227.713 -310.144 228.366 -310.816 229.087C-313.706 232.184 -316.592 233.35 -319.348 231.831C-322.296 230.206 -325.553 229.546 -328.375 227.526C-331.639 225.189 -332.957 220.13 -334.992 216.086C-335.669 214.741 -335.06 212.955 -334.122 211.386C-329.848 204.245 -328.146 196.329 -327.695 187.941C-327.512 184.539 -326.563 181.141 -325.46 177.792C-323.614 172.189 -322.477 166.565 -323.118 161.021C-323.918 154.107 -322.476 146.9 -320.879 139.699C-320.25 136.86 -319.565 134.013 -318.741 131.231C-316.379 123.255 -315.253 115.393 -315.69 107.606C-315.782 105.967 -315.633 104.272 -315.278 102.537C-314.047 96.5188 -314.212 90.8864 -314.589 85.2978C-314.929 80.2769 -315.268 75.2509 -315.456 70.1598C-315.617 65.7772 -315.516 61.3059 -313.68 56.7654C-312.832 54.6657 -312.908 52.9006 -314.167 52.1534C-316.057 51.0324 -318.065 50.0997 -320.44 51.97C-322.809 53.8356 -325.341 54.9588 -327.503 57.8401C-328.086 58.6168 -328.912 59.1074 -329.633 59.3966C-331.032 59.958 -332.069 59.3096 -332.279 57.2473C-332.46 55.4694 -331.806 53.7755 -330.641 52.7676C-327.944 50.4345 -325.251 47.9539 -322.475 46.1128C-320.461 44.7773 -318.593 43.2912 -317.122 40.7013C-315.114 37.1685 -312.762 35.6816 -310.221 35.3798C-307.129 35.0129 -304.132 34.4313 -301.148 31.1275C-300.08 29.9446 -298.743 29.7893 -297.497 29.7753C-295.913 29.7575 -294.24 29.5604 -293.183 26.5915C-292.135 23.6495 -292.584 21.6386 -293.811 19.7628C-296.188 16.1293 -295.927 14.4306 -292.694 10.1491C-290.919 7.79717 -289.075 5.71275 -286.964 4.22559C-284.827 2.7208 -282.897 2.10481 -280.84 2.70095C-276.495 3.95984 -275.851 3.36033 -272.804 -3.60729C-270.055 -9.89071 -266.668 -14.2771 -261.979 -15.4408C-260.692 -15.7602 -259.554 -15.7277 -258.468 -15.1749C-255.76 -13.797 -250.7 -16.366 -248.449 -20.115C-247.128 -22.3157 -247.072 -24.5402 -247.361 -26.5925C-248.011 -31.2114 -249.136 -35.5058 -249.19 -40.5332C-249.203 -41.7197 -249.77 -42.7531 -250.206 -43.7033C-251.861 -47.3073 -252.784 -47.0922 -254.524 -42.3009C-255.783 -38.833 -257.425 -36.8098 -259.736 -36.1598C-261.838 -35.5691 -263.96 -34.8366 -266.027 -34.5991C-267.728 -34.4036 -269.728 -34.436 -270.275 -36.9417C-270.952 -40.0397 -271.489 -43.1779 -272.752 -45.7394C-273.245 -46.7389 -272.872 -48.0602 -272.078 -49.3449C-269.651 -53.2738 -265.733 -55.3094 -263.089 -53.4587C-261.643 -52.4468 -260.157 -51.8078 -258.482 -51.6698C-255.598 -51.4325 -253.147 -52.0191 -251.312 -57.5994C-250.032 -61.4944 -247.209 -62.882 -244.744 -64.3098C-243.771 -64.873 -242.746 -65.044 -241.801 -65.7248C-240.253 -66.8403 -239.126 -68.5464 -239.075 -71.2581C-239.047 -72.7382 -238.802 -74.2975 -238.837 -75.7455C-238.928 -79.5424 -237.537 -82.5828 -235.468 -84.8934C-233.15 -87.4825 -230.801 -89.9847 -228.516 -92.6723C-226.941 -94.524 -225.125 -95.149 -223.415 -95.3891C-216.988 -96.2921 -212.526 -102.228 -209.727 -111.314C-207.766 -117.679 -204.932 -123.329 -202.637 -129.392C-201.454 -132.515 -199.769 -134.507 -197.729 -135.644C-195.228 -137.038 -192.924 -138.849 -190.815 -141.849C-187.949 -145.924 -185.138 -145.682 -182.554 -143.811C-181.564 -143.094 -180.724 -142.001 -179.864 -140.992C-177.937 -138.733 -175.757 -137.192 -173.11 -136.797C-168.028 -136.039 -163.854 -132.413 -159.09 -130.625C-156.987 -129.835 -155.806 -127.226 -155.397 -124.012C-154.605 -117.792 -151.809 -115.88 -147.697 -116.783C-145.532 -117.259 -144.09 -115.725 -142.554 -114.514C-139.468 -112.08 -136.215 -111.406 -132.208 -113.99C-128.932 -116.103 -125.639 -116.052 -122.967 -114.362C-120.346 -112.705 -117.551 -112.864 -114.631 -113.423C-111.595 -114.005 -108.953 -113.488 -106.547 -111.474C-104.145 -109.464 -101.446 -108.166 -98.5597 -107.492C-96.372 -106.981 -94.2778 -106.254 -92.3333 -104.863C-90.5328 -103.574 -88.3982 -102.904 -86.1684 -103.375C-83.6127 -103.915 -81.4091 -103.173 -79.1584 -102.441C-77.3631 -101.857 -75.6017 -101.017 -73.5077 -102.082C-68.8865 -104.434 -64.7498 -104.198 -60.9283 -101.599C-58.3063 -99.8165 -55.4658 -98.578 -52.7249 -97.0905C-52.3014 -96.8608 -51.8083 -96.7385 -51.488 -96.3264C-50.8411 -95.4941 -49.857 -94.7773 -50.1984 -93.0548C-50.6499 -90.7774 -52.0882 -90.6351 -53.0753 -90.5573C-57.5849 -90.2024 -62.0966 -89.307 -66.7007 -87.2438C-68.4798 -86.4464 -69.9573 -87.4172 -71.4693 -88.2317C-76.1194 -90.7374 -80.7642 -93.2802 -86.273 -92.721C-88.2608 -92.5193 -90.2098 -91.8838 -92.1694 -90.7656C-95.3886 -88.9287 -98.5558 -87.6022 -101.742 -87.8019C-106.359 -88.0911 -110.261 -83.8343 -113.905 -78.7522C-115.835 -76.0609 -117.648 -73.1263 -119.399 -70.153C-125.02 -60.6107 -126.498 -48.2812 -122.38 -40.4516C-118.102 -32.3151 -113.217 -25.0066 -105.785 -22.7155C-103.235 -21.9296 -101.409 -19.5385 -99.7074 -16.9572C-98.8618 -15.6742 -98.1163 -14.2338 -97.2464 -12.9912C-94.344 -8.84508 -91.8832 -8.44918 -87.8214 -12.9697C-84.5369 -16.625 -81.6445 -14.5961 -80.8501 -10.7565C-79.8272 -5.81185 -78.9009 -0.790312 -77.869 4.14706C-77.5667 5.59204 -77.7711 7.02008 -78.1723 8.54789C-78.6199 10.2523 -79.294 11.7537 -80.071 13.2803C-83.8539 20.7133 -83.815 20.716 -88.5582 17.7811C-91.2886 16.0918 -94.1392 17.0841 -97.0245 20.3014C-98.7942 22.2746 -100.543 24.3015 -102.303 26.3008C-104.108 28.352 -106.237 29.3845 -107.581 27.9142C-112.297 22.7514 -118.392 24.3411 -124.324 24.8584C-126.504 25.0486 -128.635 24.797 -130.765 24.6211C-132.578 24.4712 -134.391 23.9214 -135.326 21.7757C-138.114 15.3778 -143.063 14.5424 -147.96 14.9085C-154.637 15.4077 -160.754 13.8111 -166.924 12.2323C-173.121 10.6464 -179.671 11.0703 -186.127 10.9485C-187.194 10.9282 -188.354 10.9798 -189.425 11.5599C-195.183 14.6799 -200.695 14.6932 -206.32 15.416C-213.125 16.2906 -220.013 17.6998 -226.988 21.2493C-231.276 23.4318 -235.632 24.565 -239.955 26.2788C-245.577 28.5071 -250.241 33.9163 -254.321 40.7895C-259.296 49.1698 -258.897 57.972 -253.343 61.3341C-248.89 64.0299 -244.263 66.3097 -239.261 67.2596C-235.449 67.9837 -232.206 69.7305 -229.796 73.978C-227.215 78.5286 -223.33 79.5786 -218.894 77.992C-216.462 77.1221 -214.239 77.04 -212.075 77.754C-208.971 78.7784 -205.748 78.5325 -202.336 76.2764C-200.434 75.0192 -198.649 74.9786 -196.917 75.5616C-191.64 77.3377 -186.253 75.9526 -180.671 71.1739C-178.155 69.0189 -175.522 68.1333 -173.024 68.6793C-169.512 69.4467 -165.989 68.1792 -162.486 65.1083C-159.905 62.8463 -157.697 62.4965 -155.661 64.5381C-153.362 66.8438 -150.66 68.055 -147.857 69.0644C-145.517 69.907 -143.551 71.6782 -142.047 74.4621C-140.152 77.97 -137.804 80.3352 -134.205 80.1469C-131.601 80.0106 -129.895 82.6961 -128.306 85.1934C-125.479 89.6345 -121.824 91.922 -117.369 92.0376C-114.982 92.0995 -112.541 91.7007 -110.048 90.9112C-104.143 89.0409 -98.6403 93.6488 -97.0329 101.553C-95.5633 108.78 -92.1759 112.113 -86.52 109.653C-80.1791 106.894 -73.9872 107.145 -67.6753 103.965C-65.6666 102.953 -63.7844 103.106 -61.8988 103.515C-58.7962 104.188 -55.4541 104.344 -52.5817 105.42C-47.7557 107.226 -42.5548 106.9 -37.681 108.189C-35.3398 108.808 -34.6828 109.684 -35.0096 114.118C-35.5038 120.824 -33.8863 124.816 -30.072 126.483C-29.6439 126.67 -29.3419 127.324 -28.9021 127.39C-27.1984 127.646 -25.905 128.954 -24.6629 130.256C-21.7763 133.281 -18.3467 134.282 -14.5155 134.064C-12.0168 133.921 -10.1396 134.966 -9.96892 139.229C-9.72449 145.332 -7.04769 147.229 -3.34615 147.148C4.62143 146.974 12.6645 145.945 20.8721 142.733C25.2734 141.011 29.5169 140.253 33.4048 142.235C34.1479 142.614 35.012 142.634 35.8041 142.879C38.8801 143.83 41.5209 141.989 43.9696 137.662C47.2845 131.805 48.3583 131.184 51.923 134.269C55.8173 137.638 60.4445 137.757 65.1316 137.668C68.1244 137.612 70.9948 137.652 73.7923 138.784C77.9616 140.471 82.3818 141.394 87.0443 141.064C92.2842 140.693 97.3051 141.429 102.215 142.757C105.298 143.59 108.449 144.163 111.563 144.88C113.403 145.304 115.14 145.938 116.77 147.161C120.159 149.704 124.046 150.42 128.141 150.77C133.697 151.244 139.186 152.079 144.81 152.243C146.587 152.294 148.385 152.753 149.896 153.735C151.879 155.024 154.031 155.561 156.206 156.087C157.574 156.418 158.926 156.717 160.43 156.569C162.489 156.365 164.466 156.942 166.238 158.048C168.903 159.71 171.669 160.769 174.754 161.222C181.305 162.184 187.711 163.843 193.814 166.645C197.283 168.237 201.07 168.932 205.001 168.348C209.095 167.74 212.454 169.665 215.728 171.63C219.301 173.774 223.144 173.903 227.213 173.024C234.016 171.554 240.151 173.045 245.972 175.978C248.138 177.069 250.421 177.868 252.78 177.897C257.974 177.96 262.311 180.245 266.035 184.462C268.433 187.176 271.579 187.165 274.703 186.852C279.322 186.391 284.01 185.237 288.715 183.494C289.961 183.033 291.185 182.493 292.332 181.191C294.726 178.473 295.501 175.043 294.621 171.526C293.741 168.007 291.62 166.695 289.476 165.802C285.976 164.343 282.63 162.341 278.856 161.762C275.4 161.231 272.654 158.663 269.844 156.399C267.919 154.848 268.129 152.709 269.83 149.422C271.459 146.275 273.529 144.907 275.635 144.497C280.836 143.484 285.84 143.808 290.389 146.082C295.575 148.674 301.086 149.807 306.833 150.146C310.037 150.336 313.238 150.564 316.41 150.98C325.436 152.162 334.131 154.979 343.528 154.345C345.493 154.212 347.295 154.918 349.01 155.766C354.403 158.43 360.092 159.842 366.095 160.097C367.755 160.167 369.465 160.509 370.852 161.465C372.608 162.674 374.532 163.207 376.448 163.739C381.227 165.065 385.878 166.768 390.263 169.357C390.366 169.418 390.484 169.448 390.6 169.467C398.569 170.782 405.557 175.622 413.568 176.825C416.154 177.214 418.779 177.283 421.423 177.225C427.275 177.097 432.683 178.558 437.842 181.257C441.126 182.974 444.641 184.065 448.135 185.133C450.75 185.933 453.128 187.395 455.583 188.63C461.366 191.539 467.244 194.115 473.499 195.408C476.845 196.1 480.4 195.745 483.715 196.717C485.772 197.32 487.442 199.003 489.596 199.255C495.582 199.956 501.447 201.283 507.687 200.641C511.11 200.289 514.43 200.511 517.63 201.463C531.708 205.648 546.149 208.422 560.266 212.428C566.928 214.318 573.743 215.937 579.878 219.696C584.289 222.398 585.037 225.242 582.909 232.972C581.246 239.014 580.491 244.629 581.635 250.063C582.052 252.048 581.842 254.331 581.454 256.688C580.358 263.352 581.787 267.807 585.277 270.235C587.185 271.563 589.152 272.748 591.093 273.995C591.755 274.421 592.255 275.087 591.867 276.458C591.495 277.773 590.672 278.227 589.941 278.282C589.099 278.347 588.303 278.053 587.476 277.974C579.999 277.258 572.849 275.156 565.632 273.341C563.451 272.793 561.168 272.993 559.198 275.691C554.614 281.966 549.974 281.76 545.27 281.709C539.598 281.647 534.344 279.717 528.859 278.82C527.584 278.612 526.397 278.154 524.962 278.575C521.465 279.601 519.35 282.311 518.18 287.705C517.089 292.728 517.908 295.791 520.935 297.463C525.24 299.84 529.888 301.189 534.061 304.003C535.528 304.992 537.355 305.372 539.261 304.965C539.864 304.836 540.465 304.909 541.039 305.012C542.008 305.187 542.904 305.723 543.023 307.291C543.149 308.95 542.282 310.212 541.337 311.196C539.531 313.076 537.765 315.162 535.882 316.712C532.123 319.808 528.273 320.535 524.499 320.881C522.944 321.023 521.538 320.337 520.591 318.411C519.814 316.829 518.674 315.54 517.237 315.399C514.201 315.102 511.642 313.698 509.462 311.037C507.656 308.831 505.333 309.632 502.949 311.439C502.472 311.801 502.024 312.309 501.56 312.744C496.577 317.409 495.796 317.397 493.033 311.855C490.613 306.999 488.089 304.811 482.006 310.068C478.48 313.115 475.046 316.441 471.306 318.417C469.513 319.364 468.005 321.417 466.779 323.67C462.695 331.171 457.676 332.748 452.881 332.478C448.283 332.218 444.521 333.925 440.754 339.92C438.887 342.892 436.452 345.131 434.178 347.403C432.184 349.397 431.421 349.048 431.2 345.914C430.855 341.015 429.519 337.344 427.133 334.689C426.036 333.468 425.636 331.463 425.367 329.341C424.127 319.548 419.59 315.928 413.118 316.21C410.901 316.307 408.919 315.51 406.806 315.231C402.085 314.607 397.621 316.171 393.328 321.997C391.2 324.884 388.807 326.59 386.236 326.89C382.962 327.272 379.857 329.037 376.84 332.312C375.522 333.743 374.038 334.843 372.587 335.768C370.328 337.208 368.346 339.26 366.566 342.043C364.659 345.024 362.662 345.986 360.321 345.468C356.461 344.612 353.078 342.616 349.93 339.793C347.817 337.898 346.463 335.328 346.426 331.145C346.381 326.129 344.892 323.032 341.984 321.4C339.574 320.048 337.424 317.912 334.665 317.64C329.473 317.128 325.382 313.693 322.273 308.601C317.936 301.499 312.496 300.637 305.482 304.228C301.211 306.415 296.861 307.075 292.55 309.796C291.172 310.666 289.61 310.481 288.183 310.456C286.556 310.428 284.978 311.215 283.4 312.276C280.084 314.505 278.24 318.232 277.789 323.377C277.518 326.459 277.612 329.386 278.336 331.921C279.553 336.179 279.85 341.075 280.629 345.635C281.156 348.72 280.619 349.585 278.388 351.506C275.638 353.875 273.26 352.612 270.799 352.683C268.556 352.748 266.376 352.096 264.441 350.59C261.665 348.431 258.427 348.083 254.918 348.657C249.777 349.498 244.725 349.548 239.467 353.254C236.112 355.619 234.353 359.307 233.583 364.241C233.348 365.741 233.342 367.261 233.329 368.738C233.31 370.77 233.435 372.754 233.408 374.79C233.365 377.966 232.655 379.465 230.525 380.368C229.059 380.989 227.556 381.272 226.11 381.384C224.213 381.531 222.347 382.246 220.669 384.174C217.117 388.254 213.438 389.177 209.806 389.127C206.678 389.084 203.822 390.541 200.727 392.987C195.921 396.785 191.197 397.272 186.917 394.772C184.834 393.555 182.932 391.929 180.589 391.339C177.136 390.469 174 391.902 171.242 396.631C168.634 401.103 167.853 408.143 169.348 412.738C169.934 414.539 170.95 415.901 171.579 417.667C172.176 419.345 173.575 420.794 172.408 423.437C171.411 425.692 169.732 426.395 168.264 426.569C164.081 427.066 160.082 426.666 156.623 424.066C153.296 421.567 152.884 417.695 155.32 411.774C156.045 410.013 156.83 408.291 157.505 406.501C159.752 400.54 159.116 396.213 155.925 393.56C153.27 391.353 150.177 390.689 146.982 392.411C140.928 395.673 136.445 392.51 131.451 390.748C125.265 388.566 118.945 386.746 111.649 390.434C105.244 393.671 97.3654 409.204 97.0061 419.435C96.8868 422.833 97.4637 425.499 98.7582 427.605C100.387 430.257 101.995 432.942 103.988 435.033C105.792 436.924 107.288 439.33 108.461 442.192C110.175 446.374 109.826 449.627 106.916 453.756C103.585 458.483 100.181 463.103 96.6995 467.544C94.0284 470.951 92.9636 470.246 92.9792 465.407C92.9885 462.464 93.2304 459.426 93.1245 456.539C92.8003 447.691 89.9007 444.236 84.0035 445.469C82.5279 445.778 81.0423 446.151 79.5598 446.661C75.9478 447.904 72.851 447.394 70.386 444.136C68.5778 441.747 66.0082 441.5 63.4587 441.697C60.2709 441.943 57.1297 445.85 55.5351 451.018C54.3675 454.802 53.9525 458.548 53.9337 462.318C53.9164 465.83 53.7418 469.391 52.9082 473.036C51.4221 479.535 49.8133 481.721 45.6123 482.654C43.645 483.09 41.6893 483.307 39.7375 483.538C35.4338 484.045 31.6176 486.996 28.3412 492.44C26.1596 496.065 23.7351 499.135 21.0413 501.613C18.7124 503.755 17.1509 506.914 15.7483 510.257C14.6331 512.915 13.4425 515.481 11.8855 517.601C9.05328 521.457 6.28371 522.086 4.36473 518.634C1.39979 513.3 -1.67213 508.232 -5.7149 504.68C-6.79593 503.73 -7.27601 502.001 -7.42478 499.927C-7.53981 498.322 -7.71994 496.704 -8.08908 495.287C-8.99951 491.789 -12.0421 491.073 -14.4761 493.757C-15.3541 494.725 -16.1791 495.918 -16.9181 497.155C-22.031 505.71 -27.7135 510.326 -34.3993 509.462C-36.7613 509.157 -39.2933 510.268 -41.7535 511.816C-43.1024 512.665 -44.5055 513.685 -45.4813 515.515C-48.5128 521.201 -51.4995 526.941 -54.4116 532.751C-56.4026 536.724 -56.3303 540.394 -55.0897 543.756C-53.687 547.558 -53.822 548.543 -56.659 551.578C-59.6303 554.758 -61.7534 558.607 -62.682 563.689C-63.4369 567.822 -65.0601 570.808 -67.652 573.043C-69.5148 574.649 -71.2109 576.91 -73.0323 578.717C-79.315 584.952 -83.5693 585.439 -88.1073 579.731C-92.6069 574.072 -98.445 575.286 -104.435 577.399C-108.103 578.693 -111.727 579.885 -114.76 577.743C-117.124 576.073 -119.709 575.38 -122.312 574.602C-124.274 574.016 -126.288 574.096 -128.436 574.852C-134.008 576.812 -138.825 576.158 -142.239 570.251C-143.147 568.68 -144.449 567.517 -145.78 566.729C-148.686 565.01 -151.609 567.402 -153.258 572.561C-153.487 573.276 -153.652 574.025 -153.812 574.763C-155.32 581.719 -156.088 582.444 -160.143 580.682C-163.236 579.338 -165.869 577.029 -167.986 573.602C-170.899 568.887 -174.084 564.689 -178.331 562.492C-179.939 561.66 -181.202 560.048 -182.521 558.578C-184.154 556.758 -186.026 555.825 -188.435 556.763C-191.24 557.856 -193.417 557.064 -195.008 553.993C-196.229 551.635 -198.12 550.408 -200.022 549.36C-200.994 548.824 -201.825 548.052 -202.537 547.024C-204.58 544.075 -204.518 541.959 -201.965 537.978C-200.385 535.515 -199.115 532.833 -198.026 529.989C-196.628 526.337 -194.628 524.329 -192.285 523.929C-189.104 523.386 -186.15 521.816 -183.332 518.454C-182.811 517.832 -182.149 517.391 -181.544 517.131C-177.573 515.425 -174.195 512.16 -171.098 507.147C-169.313 504.258 -166.643 503.189 -164.319 502.268C-160.359 500.697 -156.443 498.14 -152.461 497.091C-149.465 496.301 -147.13 493.629 -145.9 488.937C-145.206 486.289 -143.995 484.449 -142.444 482.971C-140.459 481.078 -138.83 478.645 -137.258 475.887C-132.979 468.382 -127.583 463.362 -121.246 465.849C-118.366 466.98 -115.401 467.805 -112.039 468.181Z"/>
    </mask>
    <path d="M-112.039 468.181C-109.668 468.778 -106.992 469.316 -104.396 470.14C-100.99 471.221 -97.3306 470.975 -93.7634 471.109C-90.8641 471.218 -88.1405 471.916 -85.3733 472.512C-84.0327 472.801 -83.1328 474.058 -82.3908 475.477C-80.2975 479.48 -77.5226 481.393 -73.6049 480.275C-70.563 479.408 -67.8534 480.398 -65.1483 481.233C-62.1616 482.156 -59.0395 481.885 -55.8077 481.034C-54.4538 480.677 -53.065 480.241 -51.7664 480.285C-48.5784 480.391 -46.1671 482.1 -45.5861 487.169C-45.3654 489.096 -45.1032 491 -44.8037 492.874C-44.4834 494.879 -43.5825 496.174 -42.2022 496.115C-40.6228 496.048 -39.2248 494.468 -38.4121 492.083C-37.7338 490.093 -37.0609 487.964 -36.8051 485.926C-36.2456 481.471 -34.3979 478.592 -31.8188 476.833C-29.6222 475.335 -27.9535 473.072 -26.4896 470.193C-24.9629 467.191 -23.2484 464.47 -21.3282 462.04C-17.4917 457.186 -15.7486 451.408 -15.6605 444.757C-15.5414 435.773 -13.8242 432.146 -7.88342 428.091C-6.43349 427.101 -4.95263 426.176 -3.47564 425.533C-0.466403 424.221 1.95272 421.561 4.11541 417.66C9.02741 408.8 13.6406 399.683 17.4003 389.792C18.5239 386.835 19.9148 384.289 21.6697 382.195C24.1267 379.262 26.2233 378.743 28.0033 381.185C32.4663 387.308 38.1748 388.805 44.8685 386.868C47.9111 385.987 50.709 386.405 53.4036 387.343C55.7595 388.163 58.1095 387.662 60.5995 385.552C63.8199 382.825 67.1834 381.326 70.522 379.952C74.0367 378.506 77.311 378.388 80.2885 380.605C82.6617 382.373 85.47 382.203 88.3181 378.728C91.5016 374.843 95.2685 373.636 98.6132 370.369C102.735 366.343 106.961 362.652 111.149 358.841C114.248 356.02 116.833 352.352 118.897 347.749C120.376 344.45 122.054 341.36 124.159 338.909C127.356 335.186 130.637 332.883 134.097 334.328C135.193 334.786 136.421 334.833 137.498 335.342C140.118 336.579 142.781 336.342 145.71 333.821C148.912 331.065 151.507 332.831 154.067 334.02C155.244 334.566 156.385 335.265 157.596 335.754C159.48 336.514 161.363 336.157 163.297 333.978C166.038 330.89 168.86 330.377 171.613 330.664C175.021 331.02 178.406 330.079 181.842 327.4C186.64 323.657 191.538 320.835 196.502 318.643C198.905 317.582 201.079 315.983 203.044 312.92C205.192 309.572 206.692 310.023 207.097 313.937C207.277 315.674 207.19 317.589 207.107 319.454C206.999 321.898 206.964 324.283 207.334 326.519C208.014 330.625 209.567 332.539 212.567 331.944C216.848 331.096 220.633 332.469 224.539 333.365C225.889 333.675 226.68 335.021 227.604 336.168C230.277 339.48 232.395 339.007 235.28 334.244C236.978 331.441 238.705 328.794 240.754 326.609C241.622 325.684 242.524 324.388 243.044 323.031C246.134 314.965 249.109 306.913 248.197 298.193C247.622 292.694 248.652 289.85 252.121 286.219C254.063 284.186 255.76 281.792 257.43 279.242C259.892 275.484 260.997 275.264 263.821 276.468C267.074 277.856 270.704 276.514 274.269 275.237C277.485 274.085 280.701 272.584 283.918 271.399C288.402 269.747 292.717 269.806 297.015 269.93C298.485 269.972 299.969 269.549 301.426 268.49C304.43 266.307 307.427 264.068 310.397 261.707C313.355 259.355 314.998 255.586 315.148 251.065C315.269 247.425 316.177 244.414 317.89 241.347C320.307 237.02 320.58 234.292 318.808 230.683C316.792 226.575 314.741 222.424 311.054 221.165C310.059 220.826 309.149 220.151 308.259 219.491C306.197 217.961 306.205 216.561 308.392 213.963C309.423 212.738 310.408 211.629 310.325 209.676C310.251 207.955 309.274 207.547 308.343 207.422C304.321 206.884 300.859 204.41 296.928 203.557C291.937 202.475 287.788 198.834 283.049 196.942C270.586 191.969 258.221 186.669 243.954 189.618C242.242 189.972 240.53 190.016 238.879 189.878C235.116 189.564 231.317 190.98 227.485 193.128C224.598 194.746 222.014 197.259 219.742 200.904C217.841 203.956 215.83 206.863 213.811 209.737C210.842 213.963 208.295 218.608 206.503 224.015C205.701 226.432 204.791 228.72 203.386 230.522C200.083 234.761 196.263 233.115 196.247 227.361C196.242 225.362 196.607 223.218 196.851 221.136C197.96 211.704 194.01 201.166 188.446 199.091C186.001 198.179 183.514 197.315 180.933 196.974C174.881 196.174 168.95 199.78 163.19 205.343C161.823 206.663 160.641 208.532 159.768 210.743C157.313 216.963 153.819 218.466 150.157 218.151C148.035 217.969 145.804 217.605 144.076 216.27C141.293 214.12 138.176 214.707 134.978 215.785C129.397 217.666 124.002 217.134 118.395 219.259C116.103 220.127 114.713 217.829 113.632 215.411C111.709 211.112 109.46 207.347 106.462 204.715C102.691 201.405 100.098 201.796 96.107 207.48C92.5913 212.487 89.2327 214.097 85.8738 211.459C82.8243 209.065 79.3321 209.793 75.742 210.946C69.5644 212.93 63.7342 212.799 58.3234 210.401C55.6153 209.201 53.0675 207.477 50.5332 205.775C49.7067 205.219 48.8723 204.8 47.964 204.541C44.5453 203.564 41.3059 202.195 38.6225 199.115C36.6864 196.892 34.1933 196.746 31.4254 199.086C31.0723 199.385 30.7036 199.615 30.3462 199.898C24.295 204.684 22.8973 203.151 20.5226 197.973C19.7071 196.195 18.6375 194.783 17.1945 194.072C14.416 192.703 11.6814 191.2 8.87355 189.922C6.1321 188.675 3.17668 189.887 0.18188 191.674C-3.74289 194.017 -7.63633 196.102 -11.5496 195.397C-14.1082 194.936 -16.239 193.74 -17.5831 190.684C-20.1061 184.947 -23.9682 181.791 -28.233 179.478C-30.7883 178.092 -33.579 177.591 -36.6272 178.404C-41.9731 179.829 -45.628 177.458 -47.4883 170.319C-49.0151 164.459 -50.7962 163.453 -55.1697 166.693C-59.6106 169.983 -62.5886 168.481 -65.3224 164.982C-65.5721 164.662 -65.8084 164.315 -66.0225 163.94C-70.6681 155.815 -77.4826 156.101 -84.9421 158.769C-86.5473 159.343 -87.8222 160.71 -88.9718 162.618C-89.6241 163.7 -90.2325 164.843 -90.8497 165.971C-93.247 170.351 -95.9282 172.707 -99.3222 172.422C-100.725 172.304 -102.181 172.355 -103.589 172.179C-107.619 171.675 -111.157 173.988 -114.053 179.867C-114.548 180.872 -115.086 181.854 -115.504 182.913C-118.257 189.874 -121.529 196.353 -125.015 202.614C-127.441 206.97 -129.537 211.515 -131.16 216.531C-133.71 224.417 -136.594 232.125 -136.91 240.572C-137.101 245.675 -139.089 249.972 -143.761 250.512C-151.863 251.449 -159.788 256.304 -167.781 259.685C-170.829 260.974 -173.715 261.451 -176.452 260.6C-179.347 259.7 -182.309 259.885 -185.484 261.43C-188.21 262.756 -190.921 263.204 -193.623 263.675C-196.908 264.247 -200.043 265.663 -202.809 269.878C-204.7 272.759 -206.937 274.098 -209.15 273.831C-211.999 273.488 -214.932 273.943 -217.834 274.081C-219.506 274.16 -221.265 273.869 -222.62 272.874C-224.528 271.472 -226.727 271.457 -228.829 272.01C-232.883 273.076 -236.952 273.464 -241.038 275.826C-243.081 277.006 -244.875 277.129 -246.563 275.786C-250.33 272.786 -254.879 272.306 -259.191 271.122C-262.443 270.228 -265.877 271.988 -268.921 275.493C-272.98 280.167 -277.075 282.495 -281.465 282.323C-283.048 282.261 -284.67 283.081 -286.264 283.806C-289.867 285.445 -292.803 284.842 -295.053 281.321C-296.032 279.79 -297.213 278.563 -298.324 277.235C-300.853 274.212 -300.904 271.96 -297.926 267.618C-294.009 261.905 -292.521 255.322 -291.659 248.353C-290.971 242.798 -292.093 238.663 -294.42 235.543C-296.534 232.708 -298.804 230.153 -300.794 227.088C-302.879 223.875 -305.589 224.09 -308.751 227.06C-309.446 227.713 -310.144 228.366 -310.816 229.087C-313.706 232.184 -316.592 233.35 -319.348 231.831C-322.296 230.206 -325.553 229.546 -328.375 227.526C-331.639 225.189 -332.957 220.13 -334.992 216.086C-335.669 214.741 -335.06 212.955 -334.122 211.386C-329.848 204.245 -328.146 196.329 -327.695 187.941C-327.512 184.539 -326.563 181.141 -325.46 177.792C-323.614 172.189 -322.477 166.565 -323.118 161.021C-323.918 154.107 -322.476 146.9 -320.879 139.699C-320.25 136.86 -319.565 134.013 -318.741 131.231C-316.379 123.255 -315.253 115.393 -315.69 107.606C-315.782 105.967 -315.633 104.272 -315.278 102.537C-314.047 96.5188 -314.212 90.8864 -314.589 85.2978C-314.929 80.2769 -315.268 75.2509 -315.456 70.1598C-315.617 65.7772 -315.516 61.3059 -313.68 56.7654C-312.832 54.6657 -312.908 52.9006 -314.167 52.1534C-316.057 51.0324 -318.065 50.0997 -320.44 51.97C-322.809 53.8356 -325.341 54.9588 -327.503 57.8401C-328.086 58.6168 -328.912 59.1074 -329.633 59.3966C-331.032 59.958 -332.069 59.3096 -332.279 57.2473C-332.46 55.4694 -331.806 53.7755 -330.641 52.7676C-327.944 50.4345 -325.251 47.9539 -322.475 46.1128C-320.461 44.7773 -318.593 43.2912 -317.122 40.7013C-315.114 37.1685 -312.762 35.6816 -310.221 35.3798C-307.129 35.0129 -304.132 34.4313 -301.148 31.1275C-300.08 29.9446 -298.743 29.7893 -297.497 29.7753C-295.913 29.7575 -294.24 29.5604 -293.183 26.5915C-292.135 23.6495 -292.584 21.6386 -293.811 19.7628C-296.188 16.1293 -295.927 14.4306 -292.694 10.1491C-290.919 7.79717 -289.075 5.71275 -286.964 4.22559C-284.827 2.7208 -282.897 2.10481 -280.84 2.70095C-276.495 3.95984 -275.851 3.36033 -272.804 -3.60729C-270.055 -9.89071 -266.668 -14.2771 -261.979 -15.4408C-260.692 -15.7602 -259.554 -15.7277 -258.468 -15.1749C-255.76 -13.797 -250.7 -16.366 -248.449 -20.115C-247.128 -22.3157 -247.072 -24.5402 -247.361 -26.5925C-248.011 -31.2114 -249.136 -35.5058 -249.19 -40.5332C-249.203 -41.7197 -249.77 -42.7531 -250.206 -43.7033C-251.861 -47.3073 -252.784 -47.0922 -254.524 -42.3009C-255.783 -38.833 -257.425 -36.8098 -259.736 -36.1598C-261.838 -35.5691 -263.96 -34.8366 -266.027 -34.5991C-267.728 -34.4036 -269.728 -34.436 -270.275 -36.9417C-270.952 -40.0397 -271.489 -43.1779 -272.752 -45.7394C-273.245 -46.7389 -272.872 -48.0602 -272.078 -49.3449C-269.651 -53.2738 -265.733 -55.3094 -263.089 -53.4587C-261.643 -52.4468 -260.157 -51.8078 -258.482 -51.6698C-255.598 -51.4325 -253.147 -52.0191 -251.312 -57.5994C-250.032 -61.4944 -247.209 -62.882 -244.744 -64.3098C-243.771 -64.873 -242.746 -65.044 -241.801 -65.7248C-240.253 -66.8403 -239.126 -68.5464 -239.075 -71.2581C-239.047 -72.7382 -238.802 -74.2975 -238.837 -75.7455C-238.928 -79.5424 -237.537 -82.5828 -235.468 -84.8934C-233.15 -87.4825 -230.801 -89.9847 -228.516 -92.6723C-226.941 -94.524 -225.125 -95.149 -223.415 -95.3891C-216.988 -96.2921 -212.526 -102.228 -209.727 -111.314C-207.766 -117.679 -204.932 -123.329 -202.637 -129.392C-201.454 -132.515 -199.769 -134.507 -197.729 -135.644C-195.228 -137.038 -192.924 -138.849 -190.815 -141.849C-187.949 -145.924 -185.138 -145.682 -182.554 -143.811C-181.564 -143.094 -180.724 -142.001 -179.864 -140.992C-177.937 -138.733 -175.757 -137.192 -173.11 -136.797C-168.028 -136.039 -163.854 -132.413 -159.09 -130.625C-156.987 -129.835 -155.806 -127.226 -155.397 -124.012C-154.605 -117.792 -151.809 -115.88 -147.697 -116.783C-145.532 -117.259 -144.09 -115.725 -142.554 -114.514C-139.468 -112.08 -136.215 -111.406 -132.208 -113.99C-128.932 -116.103 -125.639 -116.052 -122.967 -114.362C-120.346 -112.705 -117.551 -112.864 -114.631 -113.423C-111.595 -114.005 -108.953 -113.488 -106.547 -111.474C-104.145 -109.464 -101.446 -108.166 -98.5597 -107.492C-96.372 -106.981 -94.2778 -106.254 -92.3333 -104.863C-90.5328 -103.574 -88.3982 -102.904 -86.1684 -103.375C-83.6127 -103.915 -81.4091 -103.173 -79.1584 -102.441C-77.3631 -101.857 -75.6017 -101.017 -73.5077 -102.082C-68.8865 -104.434 -64.7498 -104.198 -60.9283 -101.599C-58.3063 -99.8165 -55.4658 -98.578 -52.7249 -97.0905C-52.3014 -96.8608 -51.8083 -96.7385 -51.488 -96.3264C-50.8411 -95.4941 -49.857 -94.7773 -50.1984 -93.0548C-50.6499 -90.7774 -52.0882 -90.6351 -53.0753 -90.5573C-57.5849 -90.2024 -62.0966 -89.307 -66.7007 -87.2438C-68.4798 -86.4464 -69.9573 -87.4172 -71.4693 -88.2317C-76.1194 -90.7374 -80.7642 -93.2802 -86.273 -92.721C-88.2608 -92.5193 -90.2098 -91.8838 -92.1694 -90.7656C-95.3886 -88.9287 -98.5558 -87.6022 -101.742 -87.8019C-106.359 -88.0911 -110.261 -83.8343 -113.905 -78.7522C-115.835 -76.0609 -117.648 -73.1263 -119.399 -70.153C-125.02 -60.6107 -126.498 -48.2812 -122.38 -40.4516C-118.102 -32.3151 -113.217 -25.0066 -105.785 -22.7155C-103.235 -21.9296 -101.409 -19.5385 -99.7074 -16.9572C-98.8618 -15.6742 -98.1163 -14.2338 -97.2464 -12.9912C-94.344 -8.84508 -91.8832 -8.44918 -87.8214 -12.9697C-84.5369 -16.625 -81.6445 -14.5961 -80.8501 -10.7565C-79.8272 -5.81185 -78.9009 -0.790312 -77.869 4.14706C-77.5667 5.59204 -77.7711 7.02008 -78.1723 8.54789C-78.6199 10.2523 -79.294 11.7537 -80.071 13.2803C-83.8539 20.7133 -83.815 20.716 -88.5582 17.7811C-91.2886 16.0918 -94.1392 17.0841 -97.0245 20.3014C-98.7942 22.2746 -100.543 24.3015 -102.303 26.3008C-104.108 28.352 -106.237 29.3845 -107.581 27.9142C-112.297 22.7514 -118.392 24.3411 -124.324 24.8584C-126.504 25.0486 -128.635 24.797 -130.765 24.6211C-132.578 24.4712 -134.391 23.9214 -135.326 21.7757C-138.114 15.3778 -143.063 14.5424 -147.96 14.9085C-154.637 15.4077 -160.754 13.8111 -166.924 12.2323C-173.121 10.6464 -179.671 11.0703 -186.127 10.9485C-187.194 10.9282 -188.354 10.9798 -189.425 11.5599C-195.183 14.6799 -200.695 14.6932 -206.32 15.416C-213.125 16.2906 -220.013 17.6998 -226.988 21.2493C-231.276 23.4318 -235.632 24.565 -239.955 26.2788C-245.577 28.5071 -250.241 33.9163 -254.321 40.7895C-259.296 49.1698 -258.897 57.972 -253.343 61.3341C-248.89 64.0299 -244.263 66.3097 -239.261 67.2596C-235.449 67.9837 -232.206 69.7305 -229.796 73.978C-227.215 78.5286 -223.33 79.5786 -218.894 77.992C-216.462 77.1221 -214.239 77.04 -212.075 77.754C-208.971 78.7784 -205.748 78.5325 -202.336 76.2764C-200.434 75.0192 -198.649 74.9786 -196.917 75.5616C-191.64 77.3377 -186.253 75.9526 -180.671 71.1739C-178.155 69.0189 -175.522 68.1333 -173.024 68.6793C-169.512 69.4467 -165.989 68.1792 -162.486 65.1083C-159.905 62.8463 -157.697 62.4965 -155.661 64.5381C-153.362 66.8438 -150.66 68.055 -147.857 69.0644C-145.517 69.907 -143.551 71.6782 -142.047 74.4621C-140.152 77.97 -137.804 80.3352 -134.205 80.1469C-131.601 80.0106 -129.895 82.6961 -128.306 85.1934C-125.479 89.6345 -121.824 91.922 -117.369 92.0376C-114.982 92.0995 -112.541 91.7007 -110.048 90.9112C-104.143 89.0409 -98.6403 93.6488 -97.0329 101.553C-95.5633 108.78 -92.1759 112.113 -86.52 109.653C-80.1791 106.894 -73.9872 107.145 -67.6753 103.965C-65.6666 102.953 -63.7844 103.106 -61.8988 103.515C-58.7962 104.188 -55.4541 104.344 -52.5817 105.42C-47.7557 107.226 -42.5548 106.9 -37.681 108.189C-35.3398 108.808 -34.6828 109.684 -35.0096 114.118C-35.5038 120.824 -33.8863 124.816 -30.072 126.483C-29.6439 126.67 -29.3419 127.324 -28.9021 127.39C-27.1984 127.646 -25.905 128.954 -24.6629 130.256C-21.7763 133.281 -18.3467 134.282 -14.5155 134.064C-12.0168 133.921 -10.1396 134.966 -9.96892 139.229C-9.72449 145.332 -7.04769 147.229 -3.34615 147.148C4.62143 146.974 12.6645 145.945 20.8721 142.733C25.2734 141.011 29.5169 140.253 33.4048 142.235C34.1479 142.614 35.012 142.634 35.8041 142.879C38.8801 143.83 41.5209 141.989 43.9696 137.662C47.2845 131.805 48.3583 131.184 51.923 134.269C55.8173 137.638 60.4445 137.757 65.1316 137.668C68.1244 137.612 70.9948 137.652 73.7923 138.784C77.9616 140.471 82.3818 141.394 87.0443 141.064C92.2842 140.693 97.3051 141.429 102.215 142.757C105.298 143.59 108.449 144.163 111.563 144.88C113.403 145.304 115.14 145.938 116.77 147.161C120.159 149.704 124.046 150.42 128.141 150.77C133.697 151.244 139.186 152.079 144.81 152.243C146.587 152.294 148.385 152.753 149.896 153.735C151.879 155.024 154.031 155.561 156.206 156.087C157.574 156.418 158.926 156.717 160.43 156.569C162.489 156.365 164.466 156.942 166.238 158.048C168.903 159.71 171.669 160.769 174.754 161.222C181.305 162.184 187.711 163.843 193.814 166.645C197.283 168.237 201.07 168.932 205.001 168.348C209.095 167.74 212.454 169.665 215.728 171.63C219.301 173.774 223.144 173.903 227.213 173.024C234.016 171.554 240.151 173.045 245.972 175.978C248.138 177.069 250.421 177.868 252.78 177.897C257.974 177.96 262.311 180.245 266.035 184.462C268.433 187.176 271.579 187.165 274.703 186.852C279.322 186.391 284.01 185.237 288.715 183.494C289.961 183.033 291.185 182.493 292.332 181.191C294.726 178.473 295.501 175.043 294.621 171.526C293.741 168.007 291.62 166.695 289.476 165.802C285.976 164.343 282.63 162.341 278.856 161.762C275.4 161.231 272.654 158.663 269.844 156.399C267.919 154.848 268.129 152.709 269.83 149.422C271.459 146.275 273.529 144.907 275.635 144.497C280.836 143.484 285.84 143.808 290.389 146.082C295.575 148.674 301.086 149.807 306.833 150.146C310.037 150.336 313.238 150.564 316.41 150.98C325.436 152.162 334.131 154.979 343.528 154.345C345.493 154.212 347.295 154.918 349.01 155.766C354.403 158.43 360.092 159.842 366.095 160.097C367.755 160.167 369.465 160.509 370.852 161.465C372.608 162.674 374.532 163.207 376.448 163.739C381.227 165.065 385.878 166.768 390.263 169.357C390.366 169.418 390.484 169.448 390.6 169.467C398.569 170.782 405.557 175.622 413.568 176.825C416.154 177.214 418.779 177.283 421.423 177.225C427.275 177.097 432.683 178.558 437.842 181.257C441.126 182.974 444.641 184.065 448.135 185.133C450.75 185.933 453.128 187.395 455.583 188.63C461.366 191.539 467.244 194.115 473.499 195.408C476.845 196.1 480.4 195.745 483.715 196.717C485.772 197.32 487.442 199.003 489.596 199.255C495.582 199.956 501.447 201.283 507.687 200.641C511.11 200.289 514.43 200.511 517.63 201.463C531.708 205.648 546.149 208.422 560.266 212.428C566.928 214.318 573.743 215.937 579.878 219.696C584.289 222.398 585.037 225.242 582.909 232.972C581.246 239.014 580.491 244.629 581.635 250.063C582.052 252.048 581.842 254.331 581.454 256.688C580.358 263.352 581.787 267.807 585.277 270.235C587.185 271.563 589.152 272.748 591.093 273.995C591.755 274.421 592.255 275.087 591.867 276.458C591.495 277.773 590.672 278.227 589.941 278.282C589.099 278.347 588.303 278.053 587.476 277.974C579.999 277.258 572.849 275.156 565.632 273.341C563.451 272.793 561.168 272.993 559.198 275.691C554.614 281.966 549.974 281.76 545.27 281.709C539.598 281.647 534.344 279.717 528.859 278.82C527.584 278.612 526.397 278.154 524.962 278.575C521.465 279.601 519.35 282.311 518.18 287.705C517.089 292.728 517.908 295.791 520.935 297.463C525.24 299.84 529.888 301.189 534.061 304.003C535.528 304.992 537.355 305.372 539.261 304.965C539.864 304.836 540.465 304.909 541.039 305.012C542.008 305.187 542.904 305.723 543.023 307.291C543.149 308.95 542.282 310.212 541.337 311.196C539.531 313.076 537.765 315.162 535.882 316.712C532.123 319.808 528.273 320.535 524.499 320.881C522.944 321.023 521.538 320.337 520.591 318.411C519.814 316.829 518.674 315.54 517.237 315.399C514.201 315.102 511.642 313.698 509.462 311.037C507.656 308.831 505.333 309.632 502.949 311.439C502.472 311.801 502.024 312.309 501.56 312.744C496.577 317.409 495.796 317.397 493.033 311.855C490.613 306.999 488.089 304.811 482.006 310.068C478.48 313.115 475.046 316.441 471.306 318.417C469.513 319.364 468.005 321.417 466.779 323.67C462.695 331.171 457.676 332.748 452.881 332.478C448.283 332.218 444.521 333.925 440.754 339.92C438.887 342.892 436.452 345.131 434.178 347.403C432.184 349.397 431.421 349.048 431.2 345.914C430.855 341.015 429.519 337.344 427.133 334.689C426.036 333.468 425.636 331.463 425.367 329.341C424.127 319.548 419.59 315.928 413.118 316.21C410.901 316.307 408.919 315.51 406.806 315.231C402.085 314.607 397.621 316.171 393.328 321.997C391.2 324.884 388.807 326.59 386.236 326.89C382.962 327.272 379.857 329.037 376.84 332.312C375.522 333.743 374.038 334.843 372.587 335.768C370.328 337.208 368.346 339.26 366.566 342.043C364.659 345.024 362.662 345.986 360.321 345.468C356.461 344.612 353.078 342.616 349.93 339.793C347.817 337.898 346.463 335.328 346.426 331.145C346.381 326.129 344.892 323.032 341.984 321.4C339.574 320.048 337.424 317.912 334.665 317.64C329.473 317.128 325.382 313.693 322.273 308.601C317.936 301.499 312.496 300.637 305.482 304.228C301.211 306.415 296.861 307.075 292.55 309.796C291.172 310.666 289.61 310.481 288.183 310.456C286.556 310.428 284.978 311.215 283.4 312.276C280.084 314.505 278.24 318.232 277.789 323.377C277.518 326.459 277.612 329.386 278.336 331.921C279.553 336.179 279.85 341.075 280.629 345.635C281.156 348.72 280.619 349.585 278.388 351.506C275.638 353.875 273.26 352.612 270.799 352.683C268.556 352.748 266.376 352.096 264.441 350.59C261.665 348.431 258.427 348.083 254.918 348.657C249.777 349.498 244.725 349.548 239.467 353.254C236.112 355.619 234.353 359.307 233.583 364.241C233.348 365.741 233.342 367.261 233.329 368.738C233.31 370.77 233.435 372.754 233.408 374.79C233.365 377.966 232.655 379.465 230.525 380.368C229.059 380.989 227.556 381.272 226.11 381.384C224.213 381.531 222.347 382.246 220.669 384.174C217.117 388.254 213.438 389.177 209.806 389.127C206.678 389.084 203.822 390.541 200.727 392.987C195.921 396.785 191.197 397.272 186.917 394.772C184.834 393.555 182.932 391.929 180.589 391.339C177.136 390.469 174 391.902 171.242 396.631C168.634 401.103 167.853 408.143 169.348 412.738C169.934 414.539 170.95 415.901 171.579 417.667C172.176 419.345 173.575 420.794 172.408 423.437C171.411 425.692 169.732 426.395 168.264 426.569C164.081 427.066 160.082 426.666 156.623 424.066C153.296 421.567 152.884 417.695 155.32 411.774C156.045 410.013 156.83 408.291 157.505 406.501C159.752 400.54 159.116 396.213 155.925 393.56C153.27 391.353 150.177 390.689 146.982 392.411C140.928 395.673 136.445 392.51 131.451 390.748C125.265 388.566 118.945 386.746 111.649 390.434C105.244 393.671 97.3654 409.204 97.0061 419.435C96.8868 422.833 97.4637 425.499 98.7582 427.605C100.387 430.257 101.995 432.942 103.988 435.033C105.792 436.924 107.288 439.33 108.461 442.192C110.175 446.374 109.826 449.627 106.916 453.756C103.585 458.483 100.181 463.103 96.6995 467.544C94.0284 470.951 92.9636 470.246 92.9792 465.407C92.9885 462.464 93.2304 459.426 93.1245 456.539C92.8003 447.691 89.9007 444.236 84.0035 445.469C82.5279 445.778 81.0423 446.151 79.5598 446.661C75.9478 447.904 72.851 447.394 70.386 444.136C68.5778 441.747 66.0082 441.5 63.4587 441.697C60.2709 441.943 57.1297 445.85 55.5351 451.018C54.3675 454.802 53.9525 458.548 53.9337 462.318C53.9164 465.83 53.7418 469.391 52.9082 473.036C51.4221 479.535 49.8133 481.721 45.6123 482.654C43.645 483.09 41.6893 483.307 39.7375 483.538C35.4338 484.045 31.6176 486.996 28.3412 492.44C26.1596 496.065 23.7351 499.135 21.0413 501.613C18.7124 503.755 17.1509 506.914 15.7483 510.257C14.6331 512.915 13.4425 515.481 11.8855 517.601C9.05328 521.457 6.28371 522.086 4.36473 518.634C1.39979 513.3 -1.67213 508.232 -5.7149 504.68C-6.79593 503.73 -7.27601 502.001 -7.42478 499.927C-7.53981 498.322 -7.71994 496.704 -8.08908 495.287C-8.99951 491.789 -12.0421 491.073 -14.4761 493.757C-15.3541 494.725 -16.1791 495.918 -16.9181 497.155C-22.031 505.71 -27.7135 510.326 -34.3993 509.462C-36.7613 509.157 -39.2933 510.268 -41.7535 511.816C-43.1024 512.665 -44.5055 513.685 -45.4813 515.515C-48.5128 521.201 -51.4995 526.941 -54.4116 532.751C-56.4026 536.724 -56.3303 540.394 -55.0897 543.756C-53.687 547.558 -53.822 548.543 -56.659 551.578C-59.6303 554.758 -61.7534 558.607 -62.682 563.689C-63.4369 567.822 -65.0601 570.808 -67.652 573.043C-69.5148 574.649 -71.2109 576.91 -73.0323 578.717C-79.315 584.952 -83.5693 585.439 -88.1073 579.731C-92.6069 574.072 -98.445 575.286 -104.435 577.399C-108.103 578.693 -111.727 579.885 -114.76 577.743C-117.124 576.073 -119.709 575.38 -122.312 574.602C-124.274 574.016 -126.288 574.096 -128.436 574.852C-134.008 576.812 -138.825 576.158 -142.239 570.251C-143.147 568.68 -144.449 567.517 -145.78 566.729C-148.686 565.01 -151.609 567.402 -153.258 572.561C-153.487 573.276 -153.652 574.025 -153.812 574.763C-155.32 581.719 -156.088 582.444 -160.143 580.682C-163.236 579.338 -165.869 577.029 -167.986 573.602C-170.899 568.887 -174.084 564.689 -178.331 562.492C-179.939 561.66 -181.202 560.048 -182.521 558.578C-184.154 556.758 -186.026 555.825 -188.435 556.763C-191.24 557.856 -193.417 557.064 -195.008 553.993C-196.229 551.635 -198.12 550.408 -200.022 549.36C-200.994 548.824 -201.825 548.052 -202.537 547.024C-204.58 544.075 -204.518 541.959 -201.965 537.978C-200.385 535.515 -199.115 532.833 -198.026 529.989C-196.628 526.337 -194.628 524.329 -192.285 523.929C-189.104 523.386 -186.15 521.816 -183.332 518.454C-182.811 517.832 -182.149 517.391 -181.544 517.131C-177.573 515.425 -174.195 512.16 -171.098 507.147C-169.313 504.258 -166.643 503.189 -164.319 502.268C-160.359 500.697 -156.443 498.14 -152.461 497.091C-149.465 496.301 -147.13 493.629 -145.9 488.937C-145.206 486.289 -143.995 484.449 -142.444 482.971C-140.459 481.078 -138.83 478.645 -137.258 475.887C-132.979 468.382 -127.583 463.362 -121.246 465.849C-118.366 466.98 -115.401 467.805 -112.039 468.181Z" fill="#E8E4DE" stroke="black" stroke-opacity="0.41" stroke-width="2" mask="url(#path-4-inside-1_0_1)"/>
    <path d="M-192.874 365.629C-192.359 365.618 -191.892 365.293 -191.493 364.632C-188.061 358.939 -183.981 355.656 -179.528 353.561C-178.187 352.93 -176.843 351.906 -175.549 350.845C-170.923 347.055 -166.303 343.318 -161.414 341.236C-160.315 340.768 -159.206 339.893 -158.146 339.012C-155.275 336.627 -152.372 335.033 -149.36 334.31C-146.005 333.504 -143.416 330.488 -141.349 325.768C-139.446 321.421 -138.82 317.482 -139.905 313.389C-141.285 308.185 -140.667 305.684 -137.229 301.423C-134.805 298.421 -132.333 296.99 -129.416 296.659C-123.985 296.043 -119.786 299.74 -114.81 300.618C-113.498 300.85 -112.816 302.591 -111.956 303.848C-108.583 308.778 -105.342 308.162 -101.676 301.143C-99.3479 296.684 -96.716 294.414 -93.6562 293.972C-86.2598 292.903 -79.1817 287.591 -71.9656 283.46C-65.9315 280.005 -60.5765 275.209 -55.454 268.498C-52.0108 263.987 -48.0218 260.787 -43.7657 259.511C-41.4964 258.831 -39.362 257.1 -37.4799 254.409C-35.667 251.816 -33.8335 249.259 -32.0295 246.652C-29.8898 243.56 -27.718 241.824 -25.0791 242.531C-21.6441 243.45 -18.4076 241.117 -15.8929 236.239C-13.5152 231.628 -10.7978 229.032 -7.36404 227.616C-1.53753 225.215 4.16115 223.135 9.8957 223.517C13.7949 223.777 17.8474 223.114 21.6161 224.283C30.7996 227.131 40.6272 226.587 50.3861 226.304C53.0976 226.225 55.5917 226.785 58.0212 227.736C61.4326 229.072 64.9348 229.077 68.7794 226.476C72.9286 223.668 76.3323 225.788 79.5797 227.409C86.0425 230.634 92.8778 231.467 100.294 229.22C103.947 228.113 107.035 228.826 109.745 231.309C110.279 231.799 110.919 232.262 111.032 233.436C110.793 234.893 109.981 235.313 109.289 235.632C104.516 237.83 99.8598 239.146 95.9874 235.581C93.0311 232.86 89.5327 232.695 85.7199 233.85C78.0705 236.167 70.3938 239.118 62.8102 239.889C58.9231 240.284 54.9464 241.796 51.0722 241.802C49.2402 241.804 47.4928 241.498 45.8158 241.018C37.5194 238.643 28.7937 238.108 20.5026 235.743C17.3476 234.842 14.0678 235.941 11.0662 238.798C4.69359 244.862 -2.13799 248.624 -8.50916 254.576C-9.66667 255.657 -10.8913 256.576 -11.9721 257.84C-15.3806 261.826 -18.8217 263.195 -22.3299 262.209C-25.8791 261.213 -29.6248 261.466 -33.3988 261.746C-37.134 262.022 -40.2182 264.686 -43.0234 269.275C-45.2788 272.965 -47.2704 276.998 -49.8507 280.274C-52.9753 284.241 -56.2018 287.506 -59.9279 289.037C-63.1708 290.37 -66.3183 292.483 -69.35 295.384C-71.3216 297.27 -73.4139 298.486 -75.5149 299.579C-77.75 300.742 -79.8826 302.395 -81.9785 304.383C-84.7889 307.048 -86.891 310.544 -87.9559 315.118C-89.0109 319.649 -91.0931 322.553 -93.6694 325.329C-99.5394 331.653 -105.719 334.981 -112.115 337.259C-116.936 338.975 -121.758 341.079 -126.578 343.07C-130.507 344.692 -134.092 343.743 -137.762 343.578C-139.961 343.478 -142.114 343.698 -144.343 344.932C-147.819 346.857 -151.262 347.87 -154.667 348.021C-157.233 348.134 -159.501 349.758 -161.81 352.348C-166.698 357.831 -172.025 361.645 -177.297 365.586C-180.56 368.026 -183.692 367.394 -186.746 367.213C-188.848 367.088 -191.121 367.26 -192.878 365.621C-192.879 365.621 -192.874 365.629 -192.874 365.629Z" fill="#E8E4DE"/>
    <path d="M-189.858 366.491C-190.57 366.371 -191.239 366.163 -191.851 365.782C-191.55 365.567 -191.288 365.261 -191.065 364.89C-187.686 359.284 -183.681 356.068 -179.315 354.014C-177.913 353.354 -176.527 352.294 -175.232 351.232C-170.594 347.432 -166.029 343.745 -161.218 341.696C-160.042 341.196 -158.88 340.273 -157.826 339.397C-154.998 337.047 -152.162 335.497 -149.243 334.796L-149.36 334.31L-149.243 334.796C-145.653 333.934 -142.976 330.73 -140.891 325.968C-138.958 321.552 -138.299 317.494 -139.422 313.261C-140.103 310.691 -140.272 308.856 -139.886 307.163C-139.5 305.467 -138.543 303.848 -136.84 301.737C-134.48 298.814 -132.119 297.469 -129.36 297.156C-126.774 296.862 -124.464 297.591 -122.131 298.541C-121.651 298.737 -121.168 298.943 -120.681 299.15C-118.831 299.939 -116.921 300.753 -114.897 301.111C-114.445 301.191 -114.047 301.54 -113.621 302.138C-113.413 302.431 -113.216 302.757 -113.01 303.102L-112.968 303.172C-112.778 303.49 -112.579 303.823 -112.369 304.131C-110.667 306.618 -108.831 307.959 -106.807 307.462C-105.828 307.221 -104.892 306.563 -103.983 305.555C-103.073 304.544 -102.16 303.149 -101.233 301.374C-98.9375 296.978 -96.4136 294.876 -93.5847 294.467C-89.7978 293.92 -86.1166 292.29 -82.5023 290.302C-80.6932 289.307 -78.8921 288.217 -77.0983 287.121C-76.8968 286.998 -76.6953 286.875 -76.494 286.752C-74.9003 285.778 -73.312 284.806 -71.7172 283.893C-65.6165 280.401 -60.2129 275.556 -55.0566 268.801C-51.6516 264.341 -47.743 261.226 -43.6221 259.99C-41.2103 259.267 -38.9925 257.444 -37.0701 254.695C-36.3249 253.629 -35.5737 252.566 -34.8216 251.502C-33.7505 249.986 -32.6778 248.468 -31.6183 246.937C-30.5627 245.411 -29.5297 244.267 -28.4714 243.588C-27.4324 242.921 -26.3734 242.702 -25.2083 243.014C-23.3313 243.516 -21.5137 243.121 -19.8557 241.97C-18.2121 240.829 -16.7274 238.949 -15.4485 236.469C-13.1109 231.935 -10.4721 229.438 -7.17349 228.079C-1.3404 225.674 4.25813 223.642 9.86246 224.016C11.1877 224.104 12.5463 224.087 13.8821 224.071C14.5294 224.063 15.1713 224.055 15.8015 224.059C17.7586 224.072 19.6549 224.198 21.468 224.76C30.0832 227.432 39.2521 227.148 48.3053 226.867C49.0045 226.846 49.7031 226.824 50.4006 226.804C53.0307 226.727 55.4573 227.269 57.8389 228.202C59.5991 228.891 61.4056 229.246 63.2817 229.08C65.1596 228.915 67.0764 228.232 69.0597 226.89C71.0129 225.568 72.76 225.415 74.4126 225.77C75.8582 226.081 77.2247 226.776 78.624 227.486C78.8669 227.61 79.1109 227.734 79.3565 227.856C85.9262 231.135 92.8929 231.985 100.439 229.698C102.198 229.165 103.795 229.078 105.264 229.406C106.733 229.734 108.106 230.485 109.407 231.678C109.459 231.726 109.51 231.772 109.561 231.817C110.038 232.246 110.431 232.6 110.527 233.419C110.418 234.02 110.204 234.375 109.973 234.612C109.723 234.867 109.423 235.02 109.079 235.178C106.704 236.272 104.415 237.117 102.265 237.269C100.141 237.418 98.1494 236.892 96.326 235.213L95.9874 235.581L96.326 235.213C93.1936 232.33 89.4876 232.186 85.575 233.371C83.833 233.899 82.0964 234.457 80.365 235.013C74.442 236.916 68.5783 238.8 62.7596 239.392C61.0753 239.563 59.3738 239.94 57.7047 240.31C57.412 240.375 57.1203 240.439 56.8299 240.503C54.8666 240.931 52.95 241.299 51.0714 241.302L51.0722 241.802L51.0714 241.302C49.2963 241.304 47.5963 241.007 45.9534 240.537C41.7744 239.341 37.4918 238.61 33.2414 237.884L33.2303 237.882C28.9745 237.156 24.7512 236.435 20.6398 235.262C17.2632 234.298 13.8074 235.498 10.7215 238.435C7.56059 241.444 4.2833 243.883 0.980562 246.327L0.758966 246.491C-2.46528 248.877 -5.7124 251.279 -8.85049 254.211C-9.19512 254.532 -9.55791 254.849 -9.92747 255.172C-10.7437 255.885 -11.5928 256.627 -12.3521 257.515L-11.9721 257.84L-12.3521 257.515C-15.6889 261.418 -18.9436 262.641 -22.1948 261.728C-25.842 260.704 -29.6757 260.968 -33.4357 261.247C-37.415 261.542 -40.6169 264.379 -43.45 269.015C-44.1669 270.188 -44.8502 271.381 -45.5291 272.567C-47.0186 275.169 -48.4872 277.734 -50.2435 279.964C-53.3587 283.92 -56.5183 287.096 -60.118 288.575C-63.428 289.935 -66.6269 292.086 -69.6957 295.022C-71.6158 296.859 -73.6584 298.049 -75.7457 299.135C-78.0357 300.327 -80.2062 302.013 -82.3225 304.02C-85.206 306.754 -87.3564 310.338 -88.4429 315.005C-89.4713 319.422 -91.4943 322.25 -94.0359 324.989C-99.8389 331.241 -105.944 334.531 -112.283 336.788C-116.031 338.122 -119.783 339.691 -123.52 341.254C-124.605 341.708 -125.688 342.161 -126.769 342.607C-128.647 343.383 -130.449 343.548 -132.252 343.494C-133.157 343.467 -134.057 343.385 -134.972 343.299L-135.16 343.281C-136.009 343.2 -136.872 343.117 -137.74 343.078C-139.991 342.976 -142.247 343.2 -144.585 344.495C-148.003 346.387 -151.371 347.374 -154.689 347.521C-157.465 347.644 -159.851 349.399 -162.183 352.016L-161.81 352.348L-162.183 352.016C-166.655 357.031 -171.497 360.64 -176.368 364.27C-176.777 364.575 -177.187 364.88 -177.596 365.186C-180.288 367.199 -182.847 367.003 -185.535 366.797C-185.926 366.767 -186.319 366.737 -186.716 366.714C-187.038 366.694 -187.354 366.682 -187.665 366.67C-188.416 366.641 -189.14 366.613 -189.858 366.491Z" stroke="black" stroke-opacity="0.41"/>
    <path d="M242.166 -4.83417C244.867 -4.55656 246.846 -2.45961 248.835 -0.406228C251.629 2.4779 254.395 5.34588 257.989 6.41315C260.341 7.11151 262.749 6.51421 265.224 5.69679C266.456 5.28962 267.698 4.67071 268.922 4.38175C272.385 3.56424 273.524 5.99537 272.492 11.4189C271.563 16.3052 269.884 19.7671 266.635 22.5331C261.905 26.5588 258.719 33.4774 255.741 40.186C253.814 44.5261 254.358 47.8289 256.773 50.613C258.156 52.2071 259.72 53.4792 261.044 55.1687C262.292 56.7612 262.149 58.2338 260.36 59.3285C254.875 62.6859 251.225 68.6649 248.625 76.598C248.342 77.4617 247.793 78.336 247.261 78.9306C241.86 84.9706 237.081 92.4665 231.369 97.7649C230.564 98.511 229.695 99.0221 228.882 99.7412C227.146 101.276 225.976 100.785 225.289 98.6215C223.982 94.5015 222.635 90.4165 221.451 86.1808C220.81 83.8867 221.081 81.357 222.368 78.6941C227.433 68.2062 227.977 57.2773 228.392 46.4121C228.592 41.1719 226.405 39.0253 223.474 38.2296C219.829 37.2404 216.382 35.666 213.039 33.7249C209.941 31.9262 207.418 29.0851 205.656 24.9846C204.004 21.1391 201.673 19.0211 198.437 18.6591C195.686 18.3512 193.249 17.0616 191.233 14.6965C189.144 12.2446 189.363 10.4568 192.196 8.06712C195.842 4.99234 199.801 3.67958 203.37 0.0636926C203.589 -0.157733 203.903 -0.134758 204.095 -0.382838C209.168 -6.94662 213.949 -6.58942 218.858 -4.81793C222.301 -3.57532 226.108 -3.81918 229.924 -4.58149C234.125 -5.42068 238.164 -5.26582 242.166 -4.83417Z" fill="#E8E4DE"/>
    <path d="M242.112 -4.33705L242.115 -4.33679C243.345 -4.21039 244.43 -3.66912 245.466 -2.88698C246.471 -2.12871 247.402 -1.16755 248.365 -0.173115L248.476 -0.0583601L248.561 0.0295422C251.305 2.86269 254.142 5.7923 257.847 6.89246C260.361 7.63915 262.904 6.98968 265.381 6.17156C265.879 6.00691 266.381 5.80761 266.868 5.61483C266.999 5.56265 267.129 5.51094 267.258 5.46052C267.873 5.21977 268.462 5.00415 269.037 4.86837L268.922 4.38175L269.037 4.86837C269.849 4.67657 270.466 4.69027 270.924 4.84679C271.365 4.99774 271.703 5.29664 271.945 5.78262C272.454 6.80617 272.515 8.62295 272.001 11.3255C271.086 16.1367 269.449 19.4814 266.311 22.1524C261.478 26.266 258.25 33.3018 255.284 39.9831C254.295 42.211 253.922 44.2126 254.132 46.04C254.342 47.8723 255.133 49.4856 256.395 50.9407C257.008 51.6467 257.656 52.2913 258.288 52.9208C258.385 53.0171 258.482 53.1131 258.577 53.2089C259.305 53.9359 260.009 54.6581 260.651 55.4771L261.044 55.1687L260.651 55.4771C261.23 56.2158 261.422 56.8463 261.346 57.3625C261.272 57.8694 260.918 58.4009 260.099 58.9021L260.36 59.3285L260.099 58.9021C254.467 62.3491 250.766 68.46 248.15 76.4423C247.891 77.2313 247.381 78.0466 246.889 78.5973L246.889 78.5974C244.721 81.0214 242.651 83.6807 240.594 86.3237C240.075 86.9905 239.557 87.6564 239.038 88.3171C236.456 91.6069 233.854 94.7781 231.029 97.3983L231.366 97.7616L231.029 97.3983C230.649 97.7505 230.251 98.0502 229.831 98.3615C229.803 98.3819 229.776 98.4024 229.748 98.423C229.358 98.7117 228.948 99.0149 228.551 99.3666C227.713 100.107 227.178 100.205 226.852 100.094C226.5 99.9753 226.101 99.5271 225.766 98.4703L225.289 98.6215L225.766 98.4703C225.51 97.6644 225.253 96.8605 224.996 96.0572C223.938 92.7469 222.883 89.446 221.933 86.0463C221.33 83.8887 221.575 81.4843 222.818 78.9115C227.935 68.3173 228.477 57.2877 228.892 46.4312C228.994 43.7428 228.487 41.7784 227.519 40.3708C226.547 38.9574 225.152 38.1671 223.605 37.7471C220.012 36.7721 216.606 35.2179 213.29 33.2925L213.039 33.7249L213.29 33.2924C210.295 31.5538 207.84 28.8008 206.116 24.7872C204.42 20.8418 201.968 18.551 198.493 18.1622C195.875 17.8693 193.552 16.6464 191.614 14.3722C190.602 13.1854 190.246 12.2679 190.364 11.428C190.485 10.5665 191.124 9.62522 192.519 8.44934C194.072 7.13956 195.681 6.15716 197.327 5.15164C197.575 5.00005 197.824 4.84794 198.074 4.6941C199.973 3.52537 201.898 2.26759 203.726 0.414929L203.726 0.414833C203.75 0.391252 203.776 0.376551 203.931 0.313394L203.936 0.311557C204.067 0.257956 204.307 0.160336 204.49 -0.0770117L204.49 -0.0770709C206.977 -3.29395 209.345 -4.75784 211.64 -5.23665C213.948 -5.71813 216.265 -5.22232 218.688 -4.34762C222.259 -3.05882 226.175 -3.32255 230.022 -4.09118C234.151 -4.91593 238.132 -4.76642 242.112 -4.33705ZM242.166 -4.83417C244.812 -4.56223 246.765 -2.54447 248.713 -0.532019L248.835 -0.406228L248.871 -0.368825C251.653 2.50266 254.411 5.35049 257.989 6.41315C260.341 7.11151 262.749 6.51421 265.224 5.69679L242.166 -4.83417Z" stroke="black" stroke-opacity="0.41"/>
    <path d="M356.14 439.541C359.688 440.866 363.444 441.361 366.803 443.409C370.416 445.611 374.296 445.391 378.393 440.692C379.877 438.99 381.547 438.602 383.136 438.267C384.719 437.933 385.237 439.281 384.56 441.686C384.198 442.97 383.634 444.183 383.18 445.439C381.514 450.04 380.545 454.699 380.386 459.496C380.306 461.906 380.091 464.38 379.753 466.833C379.248 470.501 379.165 473.915 379.726 477.231C380.38 481.093 379.883 482.29 377.116 484.585C376.055 485.466 374.94 486.103 373.866 486.934C369.507 490.306 367.313 495.908 367.829 502.354C367.957 503.953 368.209 505.484 368.338 507.082C368.654 511.009 368.08 514.893 366.136 518.606C364.496 521.739 363.171 524.912 362.615 528.708C362.145 531.921 361.077 532.67 359.336 531.513C357.293 530.156 356.293 527.185 355.501 524.279C353.797 518.022 350.983 513.782 346.834 511.416C345.75 510.798 344.028 509.948 344.672 507.657C345.379 505.138 347.05 506.174 348.294 506.199C354.475 506.324 358.151 501.415 359.041 491.741C359.373 488.134 359.852 484.565 360.871 480.985C361.292 479.504 361.69 477.956 361.863 476.461C363.156 465.277 358.887 452.893 352.47 449.443C349.868 448.045 347.642 446.07 346.302 442.437C345.886 441.309 345.164 440.142 345.9 438.455C346.745 436.518 347.726 437.486 348.573 437.668C351.113 438.215 353.62 438.906 356.14 439.541Z" fill="#E8E4DE"/>
    <path d="M378.393 440.692L378.77 441.02C376.675 443.423 374.589 444.735 372.51 445.129C370.423 445.526 368.425 444.983 366.543 443.835C364.917 442.845 363.187 442.224 361.398 441.682C360.866 441.521 360.325 441.366 359.779 441.21C358.519 440.85 357.237 440.483 355.991 440.019C355.286 439.841 354.585 439.66 353.885 439.479C352.079 439.012 350.284 438.548 348.468 438.157C348.25 438.11 348.024 438.021 347.842 437.949C347.805 437.935 347.77 437.921 347.738 437.908C347.516 437.823 347.353 437.773 347.211 437.766C347.093 437.76 346.987 437.784 346.867 437.88C346.731 437.988 346.553 438.21 346.359 438.655C345.821 439.888 346.166 440.745 346.557 441.717C346.628 441.894 346.701 442.076 346.771 442.264L346.302 442.437L346.771 442.264C348.06 445.76 350.188 447.649 352.707 449.003C356.077 450.815 358.805 454.914 360.53 459.888C362.261 464.881 363.015 470.849 362.359 476.518C362.182 478.056 361.774 479.637 361.352 481.121C360.346 484.658 359.87 488.192 359.539 491.787C359.09 496.666 357.934 500.417 356.052 502.943C354.151 505.496 351.532 506.765 348.284 506.699M378.393 440.692L359.336 531.513M378.393 440.692L378.77 441.02C380.138 439.452 381.662 439.089 383.24 438.756C383.568 438.687 383.782 438.717 383.917 438.778C384.042 438.834 384.151 438.939 384.232 439.138C384.41 439.573 384.409 440.374 384.078 441.551C383.851 442.359 383.55 443.114 383.239 443.897C383.062 444.34 382.882 444.793 382.71 445.268C381.028 449.914 380.047 454.625 379.886 459.479C379.807 461.871 379.593 464.328 379.258 466.765C378.749 470.466 378.661 473.934 379.233 477.314C379.559 479.235 379.575 480.387 379.234 481.325C378.895 482.259 378.172 483.06 376.797 484.201C376.286 484.625 375.758 484.993 375.214 485.366C375.151 485.409 375.087 485.452 375.024 485.495C374.542 485.824 374.047 486.162 373.56 486.539C369.043 490.033 366.804 495.813 367.331 502.394C367.396 503.205 367.492 503.998 367.587 504.779L367.587 504.78C367.682 505.563 367.776 506.335 367.84 507.122C368.149 510.972 367.586 514.759 365.693 518.375L366.136 518.606M378.393 440.692L368.338 507.082C368.654 511.009 368.08 514.893 366.136 518.606M348.284 506.699L348.294 506.199L348.284 506.699C348.284 506.699 348.284 506.699 348.284 506.699ZM348.284 506.699C347.971 506.693 347.637 506.632 347.346 506.578C347.301 506.57 347.257 506.562 347.215 506.555C346.871 506.493 346.581 506.452 346.321 506.473C346.078 506.492 345.878 506.565 345.702 506.729C345.516 506.902 345.315 507.215 345.153 507.792L345.153 507.792C344.876 508.78 345.11 509.394 345.488 509.842C345.869 510.294 346.412 510.602 346.942 510.902C346.989 510.929 347.036 510.955 347.082 510.982C351.385 513.436 354.259 517.814 355.984 524.148C356.378 525.596 356.817 527.029 357.401 528.263C357.987 529.498 358.698 530.489 359.612 531.096L359.612 531.096C360.014 531.363 360.332 531.489 360.576 531.518C360.8 531.545 360.974 531.494 361.135 531.362C361.314 531.216 361.505 530.946 361.682 530.485C361.858 530.028 362.006 529.418 362.12 528.635C362.688 524.762 364.039 521.533 365.693 518.375L366.136 518.606M366.136 518.606C364.496 521.739 363.171 524.912 362.615 528.708C362.145 531.921 361.077 532.67 359.336 531.513M359.336 531.513L359.336 531.513L359.336 531.513Z" stroke="black" stroke-opacity="0.41"/>
    <path d="M344.182 52.1414C346.79 52.3083 348.918 54.19 351.349 55.1131C358.132 57.6889 365.505 57.7041 372.499 59.3585C374.338 59.7934 376.213 60.0829 378.038 60.5686C378.797 60.7704 379.764 60.8604 379.599 62.647C379.451 64.2603 378.549 64.9766 377.738 65.6884C377.159 66.1973 376.54 66.5991 375.929 66.9323C373.294 68.3694 370.902 70.497 368.765 73.7387C366.687 76.8909 364.369 78.0725 361.734 78.2564C358.283 78.4973 355.086 77.7578 351.922 76.8276C349.067 75.9883 346.145 75.67 343.043 76.3185C341.654 76.6089 340.324 76.6491 339.325 75.4705C335.278 70.699 330.136 68.8066 324.908 67.5144C317.342 65.6443 310.074 62.7075 302.517 60.8384C300.121 60.2459 297.811 59.2489 295.164 59.7672C294.45 59.9068 293.733 59.6288 293.094 59.3162C289.327 57.4741 285.467 56.0666 281.122 56.5864C280.409 56.6717 279.729 56.3166 279.07 56.0481C277.882 55.5641 278.282 54.1219 278.997 53.0232C280.209 51.1624 281.657 50.0796 283.189 50.2726C284.13 50.3911 285.061 50.5962 285.949 50.9215C288.441 51.8341 291.017 51.7666 293.829 50.5437C297.716 48.853 301.506 49.0388 305.002 49.8768C310.093 51.0967 315.405 50.7895 320.668 50.7862C325.118 50.7833 329.256 52.293 333.774 51.8921C337.284 51.5806 340.902 50.7033 344.182 52.1414Z" fill="#E8E4DE"/>
    <path d="M343.981 52.5993L344.062 52.6347L344.15 52.6404C345.345 52.7169 346.453 53.1875 347.6 53.7869C347.901 53.9437 348.207 54.1113 348.518 54.2818C349.367 54.7465 350.255 55.2327 351.171 55.5806C354.616 56.8885 358.199 57.5423 361.771 58.0758C362.561 58.1939 363.35 58.3059 364.137 58.4177C366.921 58.8132 369.679 59.2051 372.384 59.845C373.176 60.0322 373.974 60.1928 374.763 60.3514C374.9 60.3792 375.038 60.4068 375.175 60.4345C376.101 60.6218 377.013 60.8131 377.91 61.0518C377.985 61.0717 378.053 61.0886 378.116 61.1044C378.241 61.1356 378.351 61.1628 378.468 61.2017C378.63 61.2558 378.75 61.3161 378.839 61.393C378.985 61.5178 379.176 61.7948 379.102 62.6012L379.599 62.647L379.102 62.6013C378.979 63.9386 378.288 64.5431 377.508 65.2259C377.475 65.2547 377.442 65.2835 377.409 65.3126C376.863 65.7914 376.277 66.173 375.69 66.4934C372.978 67.9722 370.526 70.1582 368.347 73.4635C366.347 76.4974 364.165 77.5855 361.7 77.7576L361.734 78.2564L361.7 77.7576C358.34 77.9921 355.213 77.274 352.063 76.3479C349.15 75.4915 346.142 75.1597 342.941 75.8291C341.582 76.1131 340.514 76.0993 339.706 75.1471C335.557 70.2548 330.29 68.3296 325.028 67.029C321.265 66.0989 317.574 64.9029 313.863 63.7004L313.846 63.6949C310.148 62.496 306.43 61.2911 302.637 60.353C302.143 60.2308 301.652 60.0911 301.152 59.9486C301.057 59.9215 300.962 59.8943 300.866 59.8671C300.27 59.6982 299.66 59.5303 299.039 59.3973C297.793 59.1307 296.481 58.9997 295.068 59.2765C294.531 59.3815 293.948 59.1775 293.313 58.867C289.523 57.0134 285.555 55.5526 281.062 56.0899L281.122 56.5864L281.062 56.0899C280.806 56.1205 280.537 56.0747 280.231 55.9747C280.011 55.9026 279.803 55.8145 279.577 55.7184C279.476 55.6753 279.37 55.6306 279.259 55.5851L279.07 56.0481L279.259 55.5851C279.057 55.503 278.955 55.3962 278.897 55.2891C278.836 55.1746 278.803 55.0159 278.818 54.8026C278.851 54.3634 279.081 53.8112 279.416 53.2961C280.603 51.4749 281.895 50.6135 283.127 50.7687L283.189 50.2726L283.127 50.7687C284.037 50.8835 284.931 51.081 285.777 51.391C288.399 52.3509 291.107 52.2725 294.028 51.0022L293.829 50.5437L294.028 51.0022C297.783 49.369 301.454 49.5405 304.886 50.363C309.197 51.3962 313.67 51.35 318.067 51.3047C318.938 51.2957 319.805 51.2867 320.668 51.2862C322.594 51.2849 324.461 51.573 326.37 51.8677C326.619 51.9061 326.869 51.9447 327.12 51.9828C329.278 52.3101 331.494 52.5964 333.818 52.3901C334.539 52.3261 335.241 52.2419 335.935 52.1587C336.992 52.0319 338.03 51.9075 339.087 51.8602C340.801 51.7834 342.439 51.9234 343.981 52.5993Z" stroke="black" stroke-opacity="0.41"/>
    <path d="M153.54 236.943C154.301 235.702 154.892 235.361 155.529 235.127C160.353 233.356 165.128 230.752 169.887 227.954C174.946 224.98 179.627 225.815 184.326 226.13C186.332 226.264 186.699 228.934 185.453 231.946C184.424 234.434 182.988 236.492 181.524 238.341C179.052 241.463 177.876 244.775 178.194 249.095C178.406 251.963 177.769 252.593 175.755 252.365C174.297 252.201 173.097 251.349 172.05 250.177C169.116 246.896 165.737 245.26 161.688 245.034C157.889 244.822 155.575 240.99 153.54 236.943Z" fill="#E8E4DE"/>
    <path d="M155.702 235.596L155.702 235.596C160.57 233.809 165.376 231.186 170.14 228.385C174.449 225.852 178.448 226.17 182.59 226.5C183.154 226.545 183.722 226.59 184.293 226.629C184.676 226.654 184.954 226.795 185.159 227.014C185.372 227.24 185.535 227.582 185.617 228.045C185.781 228.98 185.592 230.301 184.991 231.755L185.453 231.946L184.991 231.755C183.987 234.182 182.584 236.197 181.132 238.031L181.132 238.031C178.588 241.244 177.367 244.678 177.696 249.132L177.696 249.132C177.747 249.834 177.745 250.372 177.69 250.781C177.635 251.192 177.532 251.434 177.416 251.581C177.212 251.84 176.81 251.981 175.811 251.868L175.811 251.868C174.524 251.723 173.429 250.97 172.422 249.844L172.422 249.844C169.406 246.47 165.904 244.769 161.716 244.535L161.688 245.034L161.716 244.535C159.997 244.439 158.584 243.528 157.329 242.097C156.119 240.719 155.092 238.899 154.114 236.971C154.412 236.52 154.67 236.235 154.902 236.041C155.165 235.821 155.415 235.701 155.702 235.596ZM175.755 252.365L175.755 252.365L175.755 252.365Z" stroke="black" stroke-opacity="0.41"/>
    <path d="M228.199 210.802C226.986 214.37 225.238 215.401 223.95 217.216C221.867 220.151 220.626 223.098 220.843 227.053C221.04 230.646 221.024 234.369 220.873 238.097C220.679 242.908 219.515 247.525 217.172 251.777C213.807 257.885 210.51 264.071 207.148 270.183C205.031 274.032 203.971 274.421 201.836 272.018C200.791 270.843 199.9 269.37 199.009 267.929C198.501 267.108 197.913 266.314 197.892 264.544C200.746 261.997 202.261 258.102 203.723 253.479C205.733 247.124 208.463 241.007 212.325 236.135C215.787 231.767 218.446 226.258 220.305 220.363C221.986 215.029 224.443 212.53 228.199 210.802Z" fill="#E8E4DE"/>
    <path d="M216.734 251.536L217.172 251.777L216.734 251.536C215.051 254.591 213.384 257.666 211.719 260.74L211.601 260.959C209.975 263.961 208.35 266.96 206.71 269.942L207.105 270.159L206.71 269.942C206.185 270.897 205.738 271.613 205.334 272.12C204.925 272.633 204.6 272.88 204.334 272.973C204.1 273.055 203.85 273.038 203.512 272.85C203.154 272.65 202.733 272.275 202.209 271.686C201.255 270.613 200.429 269.277 199.582 267.906C199.533 267.826 199.483 267.746 199.434 267.666C199.393 267.599 199.352 267.534 199.312 267.47C199.093 267.122 198.894 266.804 198.731 266.404C198.56 265.985 198.428 265.47 198.398 264.76C201.254 262.11 202.769 258.154 204.2 253.63C206.2 247.306 208.907 241.252 212.717 236.446C216.226 232.018 218.91 226.45 220.782 220.513C221.608 217.891 222.615 215.999 223.853 214.556C224.821 213.429 225.943 212.561 227.262 211.833C226.532 213.476 225.692 214.41 224.856 215.339C224.411 215.834 223.967 216.328 223.542 216.927C221.414 219.925 220.119 222.982 220.344 227.081C220.54 230.654 220.524 234.36 220.374 238.077C220.182 242.819 219.035 247.359 216.734 251.536Z" stroke="black" stroke-opacity="0.41"/>
    <path d="M2.23938 65.8358C2.83885 63.3611 3.9777 61.6772 5.55393 60.6818C8.49356 58.8253 11.4079 57.7148 14.3676 57.5592C16.2704 57.4591 17.4323 58.4692 17.9904 60.9413C18.2839 62.2418 18.5073 63.6062 18.8603 64.8504C19.6472 67.6247 20.9823 69.4232 23.1338 69.743C23.9504 69.8643 24.7902 70.0068 25.5082 70.4364C27.2026 71.4502 27.0931 73.9401 25.2989 76.069C24.3164 77.2349 23.2344 77.9952 22.1268 78.6893C17.8092 81.395 13.5287 82.6981 9.2874 82.6601C3.50982 82.6082 0.14198 74.5244 2.23938 65.8358Z" fill="#E8E4DE"/>
    <path d="M14.3676 57.5592L14.3939 58.0585C11.5442 58.2083 8.71224 59.2786 5.82091 61.1045C4.38057 62.0142 3.30235 63.5716 2.72535 65.9534L14.3676 57.5592ZM14.3676 57.5592L14.3939 58.0585C15.2453 58.0137 15.8686 58.2166 16.3451 58.654C16.8373 59.1059 17.2345 59.8639 17.5026 61.0515C17.6004 61.4846 17.6926 61.9374 17.786 62.3963C17.9634 63.2684 18.1454 64.1627 18.3792 64.9869C19.1831 67.8208 20.6094 69.8733 23.0602 70.2376L23.0603 70.2376M14.3676 57.5592L23.0603 70.2376M23.0603 70.2376C23.8853 70.3601 24.6298 70.4935 25.2514 70.8655L25.2515 70.8655M23.0603 70.2376L25.2515 70.8655M25.2515 70.8655C25.915 71.2625 26.2461 71.9489 26.2122 72.8149C26.1776 73.6947 25.7595 74.7466 24.9166 75.7468L24.9166 75.7468M25.2515 70.8655L24.9166 75.7468M24.9166 75.7468C23.9838 76.8536 22.9534 77.5813 21.8613 78.2656L21.8613 78.2656M24.9166 75.7468L21.8613 78.2656M21.8613 78.2656C17.6102 80.9297 13.4221 82.1972 9.29188 82.1601M21.8613 78.2656L9.29188 82.1601M9.29188 82.1601C6.67432 82.1366 4.52822 80.2989 3.27156 77.2938M9.29188 82.1601L3.27156 77.2938M3.27156 77.2938C2.01681 74.2932 1.69768 70.2109 2.72532 65.9536L3.27156 77.2938Z" stroke="black" stroke-opacity="0.41"/>
    <path d="M163.306 84.7006C167.28 86.669 171.959 89.018 176.661 91.2995C178.375 92.1307 180.157 92.7545 181.876 93.5695C182.513 93.8715 183.155 94.2912 183.623 94.9372C184.508 96.1584 185.423 97.6347 184.887 99.9285C184.241 102.696 182.679 102.429 181.355 102.704C178.636 103.268 176.279 101.674 173.506 102.505C172.407 102.834 171.32 102.72 170.221 103.07C168.353 103.666 166.9 103.03 165.842 101.223C163.924 97.945 161.583 95.6869 158.464 95.0501C157.681 94.8901 157.062 94.0643 156.302 93.7598C155 93.2381 153.918 92.5236 154.436 89.7855C154.957 87.0303 156.085 85.2204 157.932 84.3773C159.619 83.607 161.071 84.0551 163.306 84.7006Z" fill="#E8E4DE"/>
    <path d="M176.443 91.7494L176.443 91.7494C173.031 90.0937 169.63 88.4021 166.503 86.8472C165.334 86.2655 164.203 85.7029 163.124 85.1685C160.873 84.5183 159.619 84.1566 158.14 84.8321L158.14 84.8322C156.499 85.581 155.433 87.2064 154.927 89.8784C154.68 91.1865 154.836 91.9025 155.11 92.3377C155.388 92.7801 155.851 93.0405 156.488 93.2957L176.443 91.7494ZM176.443 91.7494C177.315 92.1724 178.202 92.5414 179.076 92.9026C179.11 92.9169 179.144 92.9311 179.179 92.9453C180.021 93.2935 180.849 93.636 181.662 94.0213C182.258 94.3038 182.818 94.6781 183.218 95.2307C184.08 96.4194 184.885 97.7395 184.401 99.8148C184.1 101.099 183.619 101.574 183.154 101.803C182.901 101.927 182.618 101.996 182.293 102.05C182.188 102.068 182.067 102.085 181.94 102.103C181.714 102.135 181.468 102.17 181.253 102.214L181.253 102.214M176.443 91.7494L181.253 102.214M181.253 102.214C180.071 102.46 178.96 102.263 177.738 102.047C177.672 102.036 177.605 102.024 177.537 102.012C176.262 101.788 174.873 101.573 173.363 102.026L173.363 102.026M181.253 102.214L173.363 102.026M173.363 102.026C172.872 102.173 172.378 102.224 171.83 102.281L171.812 102.282C171.27 102.338 170.675 102.401 170.07 102.594L170.069 102.594M173.363 102.026L170.069 102.594M170.069 102.594C169.223 102.864 168.52 102.841 167.924 102.588C167.322 102.331 166.767 101.812 166.274 100.97L165.842 101.223M170.069 102.594L165.842 101.223M165.842 101.223L166.274 100.97C164.322 97.6346 161.881 95.2376 158.564 94.5602M165.842 101.223L158.564 94.5602M158.564 94.5602C158.299 94.506 158.032 94.3311 157.677 94.0613M158.564 94.5602L157.677 94.0613M157.677 94.0613C157.64 94.033 157.602 94.0035 157.562 93.973M157.677 94.0613L157.562 93.973M157.562 93.973C157.262 93.7417 156.894 93.4583 156.488 93.2957L157.562 93.973Z" stroke="black" stroke-opacity="0.41"/>
    <path d="M217.061 281.988C218.357 282.298 219.645 282.765 219.587 285.235C219.527 287.759 218.801 290.142 217.213 291.882C215.742 293.495 214.371 293.803 213.164 292.405C211.946 290.994 210.862 289.361 210.199 287.224C209.549 285.129 210.331 283.105 212.016 282.485C213.731 281.855 215.444 281.586 217.061 281.988Z" fill="#E8E4DE"/>
    <path d="M216.941 282.473L216.941 282.473L216.945 282.474C217.593 282.629 218.114 282.8 218.483 283.16C218.829 283.497 219.114 284.077 219.087 285.223L219.586 285.235L219.087 285.223C219.029 287.666 218.328 289.919 216.844 291.545C216.136 292.321 215.523 292.7 215.014 292.778C214.552 292.849 214.067 292.686 213.542 292.078L213.542 292.078C212.355 290.703 211.314 289.129 210.677 287.076C210.079 285.15 210.829 283.455 212.189 282.955L212.016 282.485L212.189 282.955C213.851 282.343 215.457 282.104 216.941 282.473Z" stroke="black" stroke-opacity="0.41"/>
    <path d="M124.609 235.186C119.492 240.054 117.926 239.992 115.35 235.215C118.866 233.098 120.118 233.07 124.609 235.186Z" fill="#E8E4DE"/>
    <path d="M119.616 234.113C120.681 234.107 121.869 234.485 123.727 235.329C122.696 236.285 121.833 237.004 121.089 237.5C120.214 238.083 119.559 238.319 119.028 238.317C118.525 238.316 118.048 238.098 117.521 237.56C117.049 237.078 116.565 236.366 116.021 235.398C117.536 234.516 118.544 234.119 119.616 234.113Z" stroke="black" stroke-opacity="0.41"/>
</svg>