<svg  preserveAspectRatio="none" width="358" height="629" viewBox="0 0 358 629" fill="none" xmlns="http://www.w3.org/2000/svg">
    <g clip-path="url(#clip0_46_1219)">
    <rect width="358" height="629" fill="#171616"/>
    <path d="M177.5 -16L230.496 91.3126L349 108.521L263.25 192.052L283.493 310L177.5 254.313L71.5072 310L91.75 192.052L6 108.521L124.504 91.3126L177.5 -16Z" fill="#E2B63F"/>
    <g clip-path="url(#clip1_46_1219)">
    <mask id="path-5-inside-1_46_1219" fill="white">
    <path d="M725.848 -127.945C723.704 -129.183 721.227 -130.414 718.95 -131.976C715.964 -134.026 712.169 -134.517 708.626 -135.452C705.746 -136.211 703.288 -137.647 700.744 -138.97C699.512 -139.611 699.126 -141.331 698.967 -143.215C698.518 -148.527 696.513 -151.45 692.096 -150.94C688.667 -150.545 686.344 -152.333 683.962 -153.932C681.332 -155.699 678.07 -156.045 674.456 -155.71C672.941 -155.569 671.359 -155.341 670.067 -155.674C666.895 -156.493 665.172 -159.088 666.692 -165.37C667.27 -167.756 667.796 -170.125 668.273 -172.466C668.782 -174.969 668.411 -176.735 666.994 -176.963C665.373 -177.222 663.306 -175.607 661.496 -172.887C659.984 -170.617 658.421 -168.177 657.316 -165.759C654.901 -160.471 651.841 -157.374 648.509 -155.797C645.67 -154.454 643.047 -152.066 640.374 -148.887C637.586 -145.572 634.726 -142.64 631.78 -140.105C625.892 -135.04 621.733 -128.402 618.881 -120.345C615.029 -109.464 611.79 -105.432 604.112 -101.793C602.238 -100.905 600.36 -100.101 598.602 -99.6393C595.021 -98.6975 591.476 -95.9914 587.673 -91.7228C579.037 -82.0267 570.595 -71.9553 562.693 -60.7584C560.332 -57.4122 557.871 -54.6219 555.23 -52.4581C551.533 -49.4284 549.202 -49.252 548.421 -52.6018C546.461 -61.0005 541.324 -64.0531 533.766 -63.1484C530.331 -62.7372 527.682 -63.8493 525.353 -65.5711C523.317 -67.0763 520.737 -66.9754 517.349 -64.9531C512.967 -62.3378 508.951 -61.2447 505.012 -60.2988C500.865 -59.3031 497.513 -59.8677 495.43 -63.2043C493.77 -65.8639 490.866 -66.2643 486.549 -62.6608C481.723 -58.6328 477.422 -57.9818 472.69 -54.7387C466.859 -50.7419 461.062 -47.174 455.254 -43.452C450.955 -40.697 446.824 -36.8027 442.829 -31.6599C439.967 -27.9745 436.99 -24.586 433.847 -22.0647C429.076 -18.2365 424.809 -16.1491 421.919 -18.6524C421.003 -19.4457 419.784 -19.7677 418.908 -20.6181C416.779 -22.6867 413.994 -22.9752 409.992 -20.548C405.617 -17.8944 403.732 -20.5994 401.643 -22.5964C400.682 -23.5141 399.822 -24.6098 398.803 -25.4652C397.219 -26.7951 395.17 -26.7689 392.314 -24.5417C388.265 -21.3852 385.206 -21.3721 382.547 -22.3164C379.257 -23.4854 375.45 -23.0747 370.871 -20.5646C364.475 -17.0582 358.362 -14.6903 352.442 -13.1025C349.578 -12.3341 346.72 -10.8633 343.466 -7.56921C339.907 -3.96809 338.581 -4.84063 339.798 -9.67984C340.339 -11.8284 341.222 -14.1342 342.08 -16.3807C343.205 -19.3246 344.231 -22.213 344.786 -25.0082C345.806 -30.1404 345.034 -32.7998 341.761 -32.7264C337.089 -32.6219 333.841 -35.1071 330.273 -37.0407C329.039 -37.709 328.801 -39.5139 328.344 -41.1057C327.024 -45.7054 324.69 -45.5886 319.8 -40.4297C316.923 -37.394 314.081 -34.5539 311.106 -32.3443C309.846 -31.4083 308.398 -30.0293 307.31 -28.4945C300.841 -19.3693 294.495 -10.2361 291.793 0.548392C290.089 7.34902 287.869 10.5797 282.86 14.2378C280.056 16.2864 277.35 18.8262 274.605 21.561C270.56 25.591 269.354 25.6195 267.005 23.5464C264.3 21.1582 260.08 22.0022 255.953 22.7819C252.23 23.4851 248.361 24.6119 244.624 25.3552C239.414 26.3915 235.085 25.3867 230.8 24.3074C229.334 23.9384 227.661 24.1309 225.752 25.1013C221.814 27.1029 217.86 29.1727 213.883 31.3974C209.922 33.6131 206.699 37.8343 204.669 43.2906C203.035 47.685 200.868 51.1438 197.865 54.4978C193.63 59.2285 192.221 62.4818 192.509 67.2464C192.837 72.6702 193.181 78.1537 196.379 80.4792C197.241 81.1063 197.879 82.1223 198.502 83.1162C199.948 85.4201 199.358 87.1185 196.072 89.7997C194.523 91.064 193.068 92.197 192.341 94.5865C191.701 96.6914 192.517 97.3992 193.405 97.7518C197.238 99.2745 199.704 103.027 203.316 104.913C207.901 107.306 210.575 112.624 214.57 115.945C225.077 124.679 235.351 133.788 250.97 133.292C252.844 133.233 254.589 133.55 256.198 134.074C259.864 135.269 264.286 134.371 269.043 132.592C272.628 131.252 276.279 128.76 280.085 124.825C283.272 121.53 286.508 118.436 289.738 115.383C294.489 110.894 298.989 105.805 303.043 99.6279C304.856 96.8663 306.725 94.2857 308.89 92.4014C313.984 87.9686 317.154 90.7936 314.78 97.7829C313.955 100.211 312.696 102.735 311.584 105.21C306.548 116.422 306.155 130.071 310.906 133.794C312.994 135.43 315.145 137.016 317.607 137.989C323.38 140.269 330.862 137.173 338.984 131.664C340.912 130.357 342.881 128.343 344.68 125.848C349.741 118.827 353.89 117.757 357.454 118.931C359.519 119.611 361.619 120.536 362.807 122.53C364.722 125.742 368.111 125.704 371.785 125.087C378.197 124.01 383.419 125.822 389.959 124.455C392.631 123.896 393.079 126.987 393.166 130.157C393.32 135.792 394.024 140.849 395.956 144.694C398.385 149.527 401.163 149.614 407.552 143.575C413.179 138.256 417.236 137.029 419.529 140.957C421.611 144.523 425.436 144.395 429.537 143.771C436.594 142.698 442.422 144.118 446.884 148.2C449.118 150.242 450.972 152.886 452.822 155.501C453.425 156.354 454.093 157.043 454.901 157.555C457.945 159.48 460.644 161.843 462.072 166.163C463.102 169.28 465.557 169.997 469.321 167.754C469.801 167.468 470.269 167.268 470.747 167.002C478.84 162.499 479.614 164.663 479.858 171.463C479.942 173.799 480.435 175.744 481.595 176.919C483.83 179.182 485.964 181.599 488.267 183.757C490.514 185.865 493.999 185.032 497.763 183.509C502.696 181.513 507.49 179.824 511.146 181.526C513.535 182.639 515.189 184.551 515.275 188.553C515.437 196.064 518.022 200.732 521.364 204.462C523.367 206.697 525.974 207.909 529.387 207.581C535.372 207.007 538.075 210.676 536.986 219.746C536.092 227.192 537.471 228.798 543.229 225.81C549.076 222.776 551.457 225.243 552.762 230.083C552.881 230.525 552.975 230.998 553.035 231.499C554.347 242.368 561.34 243.495 569.975 241.868C571.833 241.518 573.687 240.135 575.639 238.067C576.747 236.894 577.835 235.638 578.927 234.402C583.165 229.602 586.848 227.322 590.154 228.402C591.52 228.848 593.011 229.1 594.359 229.619C598.215 231.102 602.745 229.059 608.108 222.548C609.026 221.434 609.976 220.358 610.839 219.163C616.507 211.306 622.5 204.148 628.618 197.299C632.875 192.535 636.878 187.471 640.599 181.731C646.447 172.708 652.559 163.973 656.387 153.785C658.7 147.631 662.49 142.844 667.428 143.198C675.992 143.812 686.004 139.631 695.472 137.255C699.083 136.348 702.192 136.393 704.6 138.019C707.147 139.738 710.212 140.153 714.057 138.965C717.358 137.944 720.28 137.985 723.202 137.998C726.753 138.015 730.505 136.972 735.046 132.453C738.15 129.365 740.964 128.223 743.086 129.025C745.818 130.057 748.965 130.139 751.951 130.599C753.67 130.864 755.324 131.599 756.277 133.1C757.62 135.214 759.833 135.708 762.183 135.492C766.716 135.073 770.982 135.483 776.086 133.499C778.638 132.507 780.498 132.745 781.643 134.742C784.198 139.198 788.587 140.764 792.446 143.135C795.356 144.923 799.552 143.53 804.078 139.932C810.115 135.134 815.214 133.193 819.571 134.352C821.142 134.769 823.119 134.125 825.03 133.589C829.345 132.378 832.056 133.746 832.864 138.506C833.216 140.577 833.897 142.323 834.466 144.175C835.762 148.393 834.878 151.137 830.07 155.766C823.745 161.855 819.509 169.526 815.744 177.801C812.743 184.396 812.156 189.66 813.208 193.952C814.163 197.85 815.392 201.443 816.126 205.595C816.896 209.947 819.718 210.272 824.143 207.35C825.115 206.707 826.091 206.065 827.068 205.336C831.27 202.2 834.666 201.408 836.816 203.849C839.114 206.459 842.127 207.965 844.134 211.028C846.456 214.571 845.685 220.998 846.058 226.348C846.182 228.127 844.826 230.165 843.228 231.866C835.95 239.613 830.943 248.856 827.005 258.942C825.407 263.034 823.038 266.954 820.533 270.782C816.344 277.185 812.86 283.768 811.204 290.638C809.138 299.205 804.689 307.644 800.087 316.042C798.274 319.352 796.399 322.662 794.412 325.862C788.716 335.035 784.314 344.336 781.52 353.885C780.932 355.896 780.078 357.921 778.999 359.952C775.256 366.992 773.083 373.866 771.142 380.733C769.399 386.903 767.654 393.078 765.728 399.3C764.07 404.656 762.11 410.063 758.372 415.179C756.644 417.545 755.987 419.705 756.948 420.884C758.389 422.654 760.027 424.221 763.2 422.463C766.365 420.71 769.386 419.894 772.765 416.863C773.675 416.046 774.713 415.63 775.56 415.434C777.204 415.055 777.981 416.066 777.336 418.616C776.78 420.814 775.418 422.729 773.823 423.701C770.133 425.95 766.386 428.38 762.82 430.015C760.233 431.201 757.732 432.601 755.171 435.428C751.678 439.283 748.688 440.58 745.998 440.396C742.726 440.173 739.461 440.231 735.079 443.598C733.51 444.803 732.096 444.702 730.834 444.45C729.228 444.129 727.458 444.006 725.158 447.382C722.879 450.728 722.496 453.267 722.955 455.809C723.844 460.735 722.874 462.741 717.835 467.24C715.066 469.712 712.34 471.844 709.592 473.193C706.812 474.558 704.609 474.889 702.78 473.72C698.92 471.252 698.021 471.841 692.052 479.642C686.67 486.676 681.43 491.27 676.216 491.669C674.785 491.778 673.65 491.492 672.784 490.586C670.625 488.328 664.452 490.353 660.624 494.418C658.376 496.804 657.396 499.493 656.835 502.047C655.572 507.796 654.923 513.253 652.889 519.369C652.409 520.812 652.552 522.19 652.597 523.438C652.77 528.171 653.791 528.11 657.536 522.669C660.247 518.73 662.744 516.629 665.346 516.34C667.711 516.077 670.157 515.646 672.341 515.805C674.138 515.935 676.143 516.407 675.654 519.568C675.05 523.476 674.288 527.402 674.498 530.785C674.58 532.105 673.655 533.629 672.32 535.017C668.24 539.262 663.441 540.887 661.542 538.068C660.504 536.527 659.27 535.43 657.637 534.9C654.826 533.988 652.11 534.17 647.941 540.549C645.031 545.001 641.607 546.075 638.526 547.276C637.311 547.749 636.206 547.735 634.97 548.358C632.945 549.377 631.099 551.205 629.921 554.486C629.277 556.277 628.383 558.118 627.816 559.883C626.331 564.513 623.664 567.904 620.617 570.262C617.203 572.904 613.794 575.434 610.372 578.203C608.014 580.111 605.922 580.477 604.097 580.399C597.238 580.105 590.27 586.348 583.672 596.774C579.049 604.079 573.843 610.325 569.009 617.19C566.518 620.726 563.99 622.78 561.46 623.72C558.358 624.871 555.281 626.572 551.907 629.758C547.322 634.087 544.588 633.184 542.758 630.354C542.057 629.27 541.664 627.761 541.215 626.35C540.209 623.19 538.649 620.848 536.143 619.796C531.331 617.776 528.626 612.472 524.563 609.27C522.769 607.857 522.661 604.433 523.584 600.443C525.369 592.72 523.342 589.793 518.819 590.001C516.437 590.11 515.619 587.936 514.573 586.133C512.47 582.511 509.468 580.989 504.352 583.26C500.169 585.117 496.869 584.343 494.874 581.713C492.919 579.135 490.032 578.724 486.855 578.771C483.549 578.821 481.099 577.622 479.508 574.656C477.92 571.696 475.736 569.537 473.104 568.095C471.109 567.001 469.298 565.665 467.914 563.556C466.633 561.602 464.758 560.326 462.313 560.416C459.51 560.519 457.595 559.142 455.629 557.766C454.06 556.669 452.632 555.268 450.077 556.109C444.437 557.965 440.362 556.784 437.586 552.803C435.681 550.071 433.33 547.953 431.183 545.554C430.851 545.184 430.404 544.929 430.252 544.359C429.945 543.208 429.25 542.125 430.31 540.108C431.712 537.44 433.222 537.579 434.25 537.698C438.947 538.242 443.871 538.13 449.373 536.621C451.499 536.037 452.587 537.535 453.774 538.851C457.424 542.899 461.054 546.991 466.844 547.503C468.933 547.688 471.164 547.338 473.605 546.404C477.616 544.87 481.363 543.944 484.494 544.876C489.032 546.225 494.737 541.901 500.525 536.518C503.59 533.668 506.638 530.497 509.64 527.266C519.274 516.895 525.887 502.245 524.986 491.848C524.05 481.044 522.157 471.114 515.611 466.725C513.365 465.22 512.516 461.922 511.872 458.42C511.551 456.679 511.398 454.769 511.036 453.072C509.83 447.411 507.512 446.398 501.536 451.008C496.704 454.736 494.629 451.647 495.423 446.813C496.445 440.589 497.596 434.291 498.606 428.074C498.901 426.254 499.701 424.564 500.74 422.796C501.9 420.823 503.204 419.146 504.622 417.461C511.526 409.254 511.488 409.242 515.054 413.831C517.107 416.473 520.395 415.884 524.643 412.602C527.248 410.589 529.854 408.506 532.46 406.459C535.134 404.359 537.711 403.566 538.455 405.642C541.069 412.93 547.879 412.318 554.078 412.972C556.356 413.213 558.402 413.979 560.478 414.653C562.244 415.227 563.845 416.287 563.897 419.094C564.052 427.465 568.698 429.55 573.791 430.164C580.734 431.002 586.243 434.263 591.811 437.514C597.405 440.78 604.19 441.682 610.652 443.225C611.72 443.481 612.912 443.669 614.233 443.196C621.339 440.653 626.905 441.829 632.881 442.168C640.109 442.578 647.643 442.356 656.155 439.554C661.388 437.832 666.253 437.398 671.327 436.252C677.925 434.762 684.877 429.203 691.849 421.74C700.35 412.641 703.604 401.868 699.397 396.585C696.024 392.348 692.303 388.58 687.651 386.345C684.106 384.642 681.56 381.82 680.893 376.141C680.179 370.058 676.696 367.943 671.562 368.91C668.747 369.44 666.47 369.059 664.583 367.725C661.877 365.81 658.523 365.411 654.143 367.412C651.702 368.528 649.885 368.191 648.38 367.109C643.794 363.811 637.783 364.328 630.167 368.923C626.732 370.995 623.709 371.501 621.415 370.298C618.191 368.607 614.109 369.384 609.299 372.355C605.756 374.544 603.383 374.491 602.177 371.572C600.815 368.275 598.593 366.22 596.184 364.388C594.174 362.859 592.926 360.284 592.565 356.578C592.11 351.909 590.724 348.53 587.014 347.98C584.331 347.583 583.726 343.953 583.159 340.578C582.152 334.574 579.415 331.006 574.969 329.903C572.586 329.311 569.958 329.268 567.115 329.687C560.38 330.681 556.743 323.897 558.404 313.952C559.924 304.859 557.891 300.08 551.163 301.844C543.62 303.822 537.477 302.18 529.788 304.675C527.341 305.47 525.506 304.877 523.773 303.973C520.922 302.485 517.616 301.572 515.164 299.645C511.046 296.408 505.663 295.68 501.282 293.061C499.177 291.803 498.878 290.597 501.05 285.284C504.334 277.249 504.36 272.053 501.205 269.203C500.851 268.883 500.817 268.025 500.401 267.849C498.789 267.17 498.027 265.302 497.315 263.453C495.659 259.156 492.615 257.199 488.659 256.635C486.079 256.268 484.619 254.593 486.218 249.381C488.506 241.918 486.594 239.036 482.826 238.334C474.715 236.823 466.173 236.332 456.558 238.457C451.402 239.597 446.806 239.599 443.707 236.352C443.115 235.731 442.251 235.52 441.554 235.051C438.846 233.231 435.417 234.895 431.149 239.619C425.371 246.015 424.03 246.536 421.715 242.02C419.186 237.086 414.567 235.942 409.801 235.036C406.758 234.458 403.879 233.788 401.527 231.809C398.021 228.859 393.945 226.782 389.104 226.175C383.664 225.492 378.904 223.512 374.502 220.839C371.737 219.16 368.797 217.783 365.953 216.239C364.272 215.326 362.783 214.181 361.647 212.344C359.284 208.524 355.66 206.814 351.675 205.503C346.266 203.726 341.075 201.526 335.469 200.111C333.698 199.664 332.074 198.718 330.958 197.199C329.493 195.205 327.545 194.088 325.568 192.979C324.326 192.282 323.087 191.625 321.507 191.48C319.345 191.282 317.59 190.154 316.262 188.429C314.264 185.834 311.913 183.951 308.989 182.733C302.78 180.148 297.006 176.749 292.012 172.028C289.174 169.344 285.642 167.682 281.433 167.54C277.05 167.393 274.461 164.33 271.974 161.236C269.261 157.86 265.437 156.873 260.967 157.06C253.492 157.373 247.922 154.237 243.267 149.417C241.535 147.624 239.564 146.16 237.196 145.615C231.982 144.416 228.556 140.703 226.55 134.778C225.259 130.964 222.08 130.297 218.798 130.001C213.946 129.562 208.738 129.95 203.267 131.048C201.818 131.339 200.359 131.73 198.661 133.063C195.117 135.845 192.91 139.841 192.337 144.302C191.763 148.765 193.357 150.817 195.149 152.365C198.075 154.893 200.619 158.047 204.186 159.567C207.452 160.958 209.156 164.67 211.05 168.027C212.348 170.326 211.247 172.878 208.165 176.501C205.215 179.969 202.558 181.182 200.263 181.225C194.595 181.33 189.681 179.855 186.036 176.111C181.881 171.841 176.792 169.275 171.135 167.62C167.981 166.697 164.846 165.727 161.818 164.537C153.204 161.15 145.601 155.848 135.857 154.587C133.82 154.324 132.295 153.076 130.917 151.677C126.583 147.275 121.43 144.331 115.479 142.723C113.834 142.279 112.251 141.494 111.248 140.034C109.979 138.186 108.259 137.123 106.548 136.063C102.277 133.419 98.2921 130.345 94.9435 126.254C94.8643 126.158 94.7581 126.096 94.6485 126.047C87.1557 122.728 82.1154 115.34 74.5339 112.147C72.0861 111.116 69.4663 110.464 66.7745 109.963C60.8172 108.853 55.9687 105.91 51.8845 101.517C49.2851 98.7217 46.1921 96.6374 43.111 94.5851C40.8045 93.0487 39.0128 90.7596 37.0489 88.7292C32.423 83.9466 27.5628 79.5472 21.7897 76.6249C18.7013 75.0617 14.9673 74.7234 12.0261 72.8259C10.2017 71.649 9.21621 69.2449 7.14745 68.4728C1.3991 66.3272 -3.9672 63.4487 -10.5289 62.8788C-14.1285 62.566 -17.3853 61.5776 -20.2187 59.7304C-32.6836 51.6046 -46.0999 45.1137 -58.6791 37.1978C-64.6146 33.4627 -70.8179 30.0226 -75.4458 24.1326C-78.7731 19.8979 -78.3469 16.2823 -72.9891 7.35751C-68.8008 0.380798 -65.7066 -6.27242 -64.603 -13.1181C-64.1998 -15.6183 -63.0389 -18.3449 -61.669 -21.1224C-57.7949 -28.9771 -57.3858 -34.6946 -59.8976 -38.397C-61.2714 -40.422 -62.7633 -42.286 -64.2033 -44.2206C-64.6947 -44.8809 -64.922 -45.7977 -63.9609 -47.3787C-63.0396 -48.8944 -62.0206 -49.2671 -61.2607 -49.1769C-60.3843 -49.0728 -59.7036 -48.544 -58.9018 -48.2689C-51.6553 -45.7826 -45.315 -41.6848 -38.7884 -37.9208C-36.8158 -36.7832 -34.429 -36.5325 -31.3205 -39.382C-24.0891 -46.0107 -19.4935 -44.7561 -14.7693 -43.677C-9.07232 -42.3756 -4.57317 -38.8967 0.587981 -36.6213C1.78734 -36.0926 2.79496 -35.2799 4.41784 -35.4809C8.37198 -35.9703 11.6314 -38.8029 15.0531 -45.0989C18.2399 -50.9627 18.687 -54.8587 16.3268 -57.5429C12.971 -61.3595 8.84246 -64.0025 5.80122 -68.3222C4.73221 -69.8405 3.04672 -70.6968 0.954571 -70.614C0.292741 -70.5878 -0.283104 -70.8061 -0.819355 -71.0558C-1.72491 -71.4777 -2.40604 -72.3222 -1.87494 -74.2518C-1.31304 -76.2932 0.0860025 -77.6379 1.44848 -78.6285C4.05193 -80.5212 6.69949 -82.6712 9.24369 -84.1468C14.3214 -87.0919 18.5082 -87.1429 22.4598 -86.7464C24.0871 -86.5832 25.2213 -85.4458 25.3761 -82.903C25.5032 -80.8131 26.1177 -79.0026 27.509 -78.5209C30.4489 -77.5032 32.4475 -75.2453 33.5406 -71.5432C34.4465 -68.4745 37.123 -68.9447 40.2786 -70.623C40.91 -70.9587 41.574 -71.4793 42.2221 -71.9062C49.1876 -76.4936 49.9709 -76.3098 50.4555 -68.9832C50.88 -62.5646 52.5179 -59.362 60.839 -64.4296C65.6611 -67.3662 70.5076 -70.6617 75.1024 -72.2528C77.304 -73.0151 79.679 -75.1815 81.8518 -77.6513C89.088 -85.8761 94.8066 -86.7054 99.5316 -85.34C104.062 -84.0306 108.567 -85.289 114.858 -91.754C117.977 -94.9586 121.363 -97.1499 124.601 -99.4174C127.442 -101.407 128.066 -100.818 126.987 -96.9654C125.3 -90.9422 125.123 -86.197 126.427 -82.4571C127.027 -80.7378 126.598 -78.2167 125.988 -75.5824C123.17 -63.4237 126.244 -58.0477 132.891 -56.99C135.168 -56.6279 136.836 -55.2322 138.851 -54.4362C143.355 -52.6577 148.509 -53.5915 155.261 -59.7372C158.607 -62.7825 161.729 -64.3359 164.448 -64.1444C167.91 -63.9006 171.776 -65.3715 176.18 -68.6957C178.104 -70.1483 180.058 -71.1626 181.906 -71.9719C184.784 -73.2321 187.636 -75.2949 190.588 -78.2888C193.75 -81.4956 196.164 -82.2324 198.311 -81.0964C201.85 -79.2233 204.434 -76.0684 206.437 -71.9597C207.782 -69.2019 208.079 -65.7881 206.38 -60.7019C204.341 -54.6013 204.557 -50.5196 206.813 -47.909C208.683 -45.7462 209.964 -42.6889 212.635 -41.7619C217.661 -40.0171 220.361 -34.9615 221.383 -28.1066C222.807 -18.5467 227.938 -16.324 236.506 -19.1672C241.723 -20.8983 246.386 -20.7588 251.866 -23.131C253.617 -23.8894 255.117 -23.3267 256.546 -22.9881C258.175 -22.6018 260.095 -23.216 262.127 -24.1628C266.399 -26.1528 269.807 -30.2787 272.4 -36.4276C273.953 -40.1117 275.075 -43.685 275.397 -46.9195C275.938 -52.3536 277.673 -58.3622 278.781 -64.0664C279.531 -67.9268 280.432 -68.8606 283.481 -70.7109C287.239 -72.9917 289.113 -70.9443 291.626 -70.4984C293.916 -70.0921 295.845 -68.8297 297.172 -66.583C299.075 -63.3603 302.198 -62.2376 305.976 -62.1757C311.512 -62.0851 316.63 -61.0541 323.473 -64.4161C327.842 -66.562 331.148 -70.66 333.975 -76.4837C334.834 -78.2541 335.472 -80.0981 336.099 -81.8887C336.962 -84.3527 337.66 -86.7886 338.533 -89.2536C339.895 -93.1008 341.235 -94.768 343.759 -95.4029C345.496 -95.84 347.13 -95.8594 348.636 -95.6826C350.61 -95.451 352.79 -95.9148 355.284 -97.8927C360.562 -102.079 364.657 -102.405 368.301 -101.558C371.439 -100.829 374.926 -101.981 379.065 -104.282C385.491 -107.853 390.459 -107.423 393.738 -103.462C395.334 -101.534 396.578 -99.1484 398.697 -97.9249C401.818 -96.1224 405.578 -97.1841 410.325 -102.329C414.814 -107.195 418.527 -115.574 418.927 -121.476C419.084 -123.79 418.625 -125.663 418.724 -127.943C418.819 -130.11 418.009 -132.171 420.284 -135.128C422.227 -137.651 424.213 -138.141 425.766 -138.035C430.193 -137.734 434.061 -136.383 436.472 -132.479C438.79 -128.725 437.596 -123.934 432.679 -117.272C431.217 -115.291 429.709 -113.37 428.285 -111.343C423.541 -104.591 422.385 -99.1999 424.503 -95.2882C426.264 -92.0351 429.109 -90.5597 433.048 -91.9594C440.511 -94.6113 443.72 -89.8011 448.026 -86.583C453.361 -82.5957 458.981 -79.0185 467.874 -81.9185C475.68 -84.4643 490.082 -101.62 494.694 -113.964C496.226 -118.064 496.751 -121.425 496.321 -124.263C495.779 -127.835 495.272 -131.443 494.129 -134.412C493.095 -137.098 492.585 -140.344 492.591 -144.072C492.6 -149.52 494.303 -153.394 498.953 -157.778C504.278 -162.797 509.632 -167.67 514.989 -172.309C519.099 -175.869 519.88 -174.783 517.854 -168.91C516.622 -165.339 515.116 -161.703 514.024 -158.174C510.675 -147.361 512.166 -142.54 518.628 -142.762C520.244 -142.818 521.898 -142.949 523.606 -143.248C527.766 -143.976 530.678 -142.687 531.812 -138.199C532.644 -134.907 535.134 -134.052 537.788 -133.74C541.106 -133.349 545.898 -137.413 549.654 -143.343C552.404 -147.685 554.379 -152.144 555.964 -156.716C557.44 -160.977 559.095 -165.262 561.451 -169.509C565.65 -177.077 568.181 -179.383 572.807 -179.608C574.973 -179.713 577.036 -179.553 579.101 -179.411C583.654 -179.096 588.73 -181.854 594.297 -187.755C598.004 -191.685 601.725 -194.888 605.472 -197.314C608.712 -199.411 611.599 -202.909 614.403 -206.665C616.633 -209.651 618.9 -212.509 621.351 -214.746C625.811 -218.816 628.866 -218.98 629.368 -214.374C630.143 -207.256 631.137 -200.439 633.741 -195.252C634.437 -193.865 634.203 -191.662 633.491 -189.111C632.94 -187.137 632.45 -185.135 632.234 -183.334C631.699 -178.891 634.471 -177.363 638.042 -180.096C639.33 -181.081 640.658 -182.351 641.917 -183.693C650.63 -192.975 658.28 -197.35 664.666 -194.855C666.923 -193.974 669.939 -194.775 673.064 -196.123C674.778 -196.863 676.617 -197.797 678.362 -199.808C683.782 -206.056 689.18 -212.379 694.532 -218.804C698.19 -223.197 699.642 -227.67 699.787 -232.02C699.951 -236.938 700.497 -238.105 704.62 -241.177C708.939 -244.395 712.679 -248.609 715.728 -254.58C718.206 -259.434 721.084 -262.708 724.627 -264.861C727.174 -266.409 729.824 -268.787 732.413 -270.588C741.341 -276.799 745.836 -276.47 748.043 -268.559C750.232 -260.715 756.626 -260.926 763.547 -262.196C767.786 -262.974 771.937 -263.638 774.107 -260.381C775.798 -257.843 778.118 -256.442 780.421 -254.935C782.158 -253.799 784.223 -253.46 786.703 -253.913C793.139 -255.089 797.727 -253.253 798.718 -245.343C798.981 -243.239 799.812 -241.545 800.827 -240.301C803.044 -237.585 806.987 -239.858 810.794 -245.764C811.322 -246.583 811.8 -247.457 812.268 -248.319C816.678 -256.438 817.755 -257.153 821.114 -254.136C823.677 -251.835 825.373 -248.462 826.086 -243.844C827.066 -237.489 828.535 -231.703 831.907 -228.118C833.184 -226.76 833.788 -224.53 834.509 -222.46C835.4 -219.896 836.901 -218.358 839.722 -218.977C843.005 -219.697 844.873 -218.265 845.202 -214.192C845.454 -211.066 846.853 -209.167 848.336 -207.483C849.094 -206.622 849.612 -205.504 849.903 -204.103C850.739 -200.08 849.797 -197.525 845.568 -193.243C842.951 -190.595 840.555 -187.613 838.275 -184.395C835.347 -180.264 832.495 -178.258 829.966 -178.279C826.531 -178.307 822.899 -177.04 818.659 -173.567C817.874 -172.925 817.023 -172.533 816.305 -172.348C811.59 -171.135 806.826 -167.901 801.619 -162.484C798.618 -159.363 795.48 -158.643 792.753 -158.026C788.105 -156.975 783.092 -154.718 778.639 -154.305C775.288 -153.994 771.823 -151.255 768.632 -145.824C766.832 -142.759 764.845 -140.787 762.667 -139.327C759.878 -137.459 757.224 -134.856 754.492 -131.848C747.057 -123.66 739.527 -118.732 734.168 -123.123C731.732 -125.119 729.083 -126.762 725.848 -127.945Z"/>
    </mask>
    <path d="M725.848 -127.945C723.704 -129.183 721.227 -130.414 718.95 -131.976C715.964 -134.026 712.169 -134.517 708.626 -135.452C705.746 -136.211 703.288 -137.647 700.744 -138.97C699.512 -139.611 699.126 -141.331 698.967 -143.215C698.518 -148.527 696.513 -151.45 692.096 -150.94C688.667 -150.545 686.344 -152.333 683.962 -153.932C681.332 -155.699 678.07 -156.045 674.456 -155.71C672.941 -155.569 671.359 -155.341 670.067 -155.674C666.895 -156.493 665.172 -159.088 666.692 -165.37C667.27 -167.756 667.796 -170.125 668.273 -172.466C668.782 -174.969 668.411 -176.735 666.994 -176.963C665.373 -177.222 663.306 -175.607 661.496 -172.887C659.984 -170.617 658.421 -168.177 657.316 -165.759C654.901 -160.471 651.841 -157.374 648.509 -155.797C645.67 -154.454 643.047 -152.066 640.374 -148.887C637.586 -145.572 634.726 -142.64 631.78 -140.105C625.892 -135.04 621.733 -128.402 618.881 -120.345C615.029 -109.464 611.79 -105.432 604.112 -101.793C602.238 -100.905 600.36 -100.101 598.602 -99.6393C595.021 -98.6975 591.476 -95.9914 587.673 -91.7228C579.037 -82.0267 570.595 -71.9553 562.693 -60.7584C560.332 -57.4122 557.871 -54.6219 555.23 -52.4581C551.533 -49.4284 549.202 -49.252 548.421 -52.6018C546.461 -61.0005 541.324 -64.0531 533.766 -63.1484C530.331 -62.7372 527.682 -63.8493 525.353 -65.5711C523.317 -67.0763 520.737 -66.9754 517.349 -64.9531C512.967 -62.3378 508.951 -61.2447 505.012 -60.2988C500.865 -59.3031 497.513 -59.8677 495.43 -63.2043C493.77 -65.8639 490.866 -66.2643 486.549 -62.6608C481.723 -58.6328 477.422 -57.9818 472.69 -54.7387C466.859 -50.7419 461.062 -47.174 455.254 -43.452C450.955 -40.697 446.824 -36.8027 442.829 -31.6599C439.967 -27.9745 436.99 -24.586 433.847 -22.0647C429.076 -18.2365 424.809 -16.1491 421.919 -18.6524C421.003 -19.4457 419.784 -19.7677 418.908 -20.6181C416.779 -22.6867 413.994 -22.9752 409.992 -20.548C405.617 -17.8944 403.732 -20.5994 401.643 -22.5964C400.682 -23.5141 399.822 -24.6098 398.803 -25.4652C397.219 -26.7951 395.17 -26.7689 392.314 -24.5417C388.265 -21.3852 385.206 -21.3721 382.547 -22.3164C379.257 -23.4854 375.45 -23.0747 370.871 -20.5646C364.475 -17.0582 358.362 -14.6903 352.442 -13.1025C349.578 -12.3341 346.72 -10.8633 343.466 -7.56921C339.907 -3.96809 338.581 -4.84063 339.798 -9.67984C340.339 -11.8284 341.222 -14.1342 342.08 -16.3807C343.205 -19.3246 344.231 -22.213 344.786 -25.0082C345.806 -30.1404 345.034 -32.7998 341.761 -32.7264C337.089 -32.6219 333.841 -35.1071 330.273 -37.0407C329.039 -37.709 328.801 -39.5139 328.344 -41.1057C327.024 -45.7054 324.69 -45.5886 319.8 -40.4297C316.923 -37.394 314.081 -34.5539 311.106 -32.3443C309.846 -31.4083 308.398 -30.0293 307.31 -28.4945C300.841 -19.3693 294.495 -10.2361 291.793 0.548392C290.089 7.34902 287.869 10.5797 282.86 14.2378C280.056 16.2864 277.35 18.8262 274.605 21.561C270.56 25.591 269.354 25.6195 267.005 23.5464C264.3 21.1582 260.08 22.0022 255.953 22.7819C252.23 23.4851 248.361 24.6119 244.624 25.3552C239.414 26.3915 235.085 25.3867 230.8 24.3074C229.334 23.9384 227.661 24.1309 225.752 25.1013C221.814 27.1029 217.86 29.1727 213.883 31.3974C209.922 33.6131 206.699 37.8343 204.669 43.2906C203.035 47.685 200.868 51.1438 197.865 54.4978C193.63 59.2285 192.221 62.4818 192.509 67.2464C192.837 72.6702 193.181 78.1537 196.379 80.4792C197.241 81.1063 197.879 82.1223 198.502 83.1162C199.948 85.4201 199.358 87.1185 196.072 89.7997C194.523 91.064 193.068 92.197 192.341 94.5865C191.701 96.6914 192.517 97.3992 193.405 97.7518C197.238 99.2745 199.704 103.027 203.316 104.913C207.901 107.306 210.575 112.624 214.57 115.945C225.077 124.679 235.351 133.788 250.97 133.292C252.844 133.233 254.589 133.55 256.198 134.074C259.864 135.269 264.286 134.371 269.043 132.592C272.628 131.252 276.279 128.76 280.085 124.825C283.272 121.53 286.508 118.436 289.738 115.383C294.489 110.894 298.989 105.805 303.043 99.6279C304.856 96.8663 306.725 94.2857 308.89 92.4014C313.984 87.9686 317.154 90.7936 314.78 97.7829C313.955 100.211 312.696 102.735 311.584 105.21C306.548 116.422 306.155 130.071 310.906 133.794C312.994 135.43 315.145 137.016 317.607 137.989C323.38 140.269 330.862 137.173 338.984 131.664C340.912 130.357 342.881 128.343 344.68 125.848C349.741 118.827 353.89 117.757 357.454 118.931C359.519 119.611 361.619 120.536 362.807 122.53C364.722 125.742 368.111 125.704 371.785 125.087C378.197 124.01 383.419 125.822 389.959 124.455C392.631 123.896 393.079 126.987 393.166 130.157C393.32 135.792 394.024 140.849 395.956 144.694C398.385 149.527 401.163 149.614 407.552 143.575C413.179 138.256 417.236 137.029 419.529 140.957C421.611 144.523 425.436 144.395 429.537 143.771C436.594 142.698 442.422 144.118 446.884 148.2C449.118 150.242 450.972 152.886 452.822 155.501C453.425 156.354 454.093 157.043 454.901 157.555C457.945 159.48 460.644 161.843 462.072 166.163C463.102 169.28 465.557 169.997 469.321 167.754C469.801 167.468 470.269 167.268 470.747 167.002C478.84 162.499 479.614 164.663 479.858 171.463C479.942 173.799 480.435 175.744 481.595 176.919C483.83 179.182 485.964 181.599 488.267 183.757C490.514 185.865 493.999 185.032 497.763 183.509C502.696 181.513 507.49 179.824 511.146 181.526C513.535 182.639 515.189 184.551 515.275 188.553C515.437 196.064 518.022 200.732 521.364 204.462C523.367 206.697 525.974 207.909 529.387 207.581C535.372 207.007 538.075 210.676 536.986 219.746C536.092 227.192 537.471 228.798 543.229 225.81C549.076 222.776 551.457 225.243 552.762 230.083C552.881 230.525 552.975 230.998 553.035 231.499C554.347 242.368 561.34 243.495 569.975 241.868C571.833 241.518 573.687 240.135 575.639 238.067C576.747 236.894 577.835 235.638 578.927 234.402C583.165 229.602 586.848 227.322 590.154 228.402C591.52 228.848 593.011 229.1 594.359 229.619C598.215 231.102 602.745 229.059 608.108 222.548C609.026 221.434 609.976 220.358 610.839 219.163C616.507 211.306 622.5 204.148 628.618 197.299C632.875 192.535 636.878 187.471 640.599 181.731C646.447 172.708 652.559 163.973 656.387 153.785C658.7 147.631 662.49 142.844 667.428 143.198C675.992 143.812 686.004 139.631 695.472 137.255C699.083 136.348 702.192 136.393 704.6 138.019C707.147 139.738 710.212 140.153 714.057 138.965C717.358 137.944 720.28 137.985 723.202 137.998C726.753 138.015 730.505 136.972 735.046 132.453C738.15 129.365 740.964 128.223 743.086 129.025C745.818 130.057 748.965 130.139 751.951 130.599C753.67 130.864 755.324 131.599 756.277 133.1C757.62 135.214 759.833 135.708 762.183 135.492C766.716 135.073 770.982 135.483 776.086 133.499C778.638 132.507 780.498 132.745 781.643 134.742C784.198 139.198 788.587 140.764 792.446 143.135C795.356 144.923 799.552 143.53 804.078 139.932C810.115 135.134 815.214 133.193 819.571 134.352C821.142 134.769 823.119 134.125 825.03 133.589C829.345 132.378 832.056 133.746 832.864 138.506C833.216 140.577 833.897 142.323 834.466 144.175C835.762 148.393 834.878 151.137 830.07 155.766C823.745 161.855 819.509 169.526 815.744 177.801C812.743 184.396 812.156 189.66 813.208 193.952C814.163 197.85 815.392 201.443 816.126 205.595C816.896 209.947 819.718 210.272 824.143 207.35C825.115 206.707 826.091 206.065 827.068 205.336C831.27 202.2 834.666 201.408 836.816 203.849C839.114 206.459 842.127 207.965 844.134 211.028C846.456 214.571 845.685 220.998 846.058 226.348C846.182 228.127 844.826 230.165 843.228 231.866C835.95 239.613 830.943 248.856 827.005 258.942C825.407 263.034 823.038 266.954 820.533 270.782C816.344 277.185 812.86 283.768 811.204 290.638C809.138 299.205 804.689 307.644 800.087 316.042C798.274 319.352 796.399 322.662 794.412 325.862C788.716 335.035 784.314 344.336 781.52 353.885C780.932 355.896 780.078 357.921 778.999 359.952C775.256 366.992 773.083 373.866 771.142 380.733C769.399 386.903 767.654 393.078 765.728 399.3C764.07 404.656 762.11 410.063 758.372 415.179C756.644 417.545 755.987 419.705 756.948 420.884C758.389 422.654 760.027 424.221 763.2 422.463C766.365 420.71 769.386 419.894 772.765 416.863C773.675 416.046 774.713 415.63 775.56 415.434C777.204 415.055 777.981 416.066 777.336 418.616C776.78 420.814 775.418 422.729 773.823 423.701C770.133 425.95 766.386 428.38 762.82 430.015C760.233 431.201 757.732 432.601 755.171 435.428C751.678 439.283 748.688 440.58 745.998 440.396C742.726 440.173 739.461 440.231 735.079 443.598C733.51 444.803 732.096 444.702 730.834 444.45C729.228 444.129 727.458 444.006 725.158 447.382C722.879 450.728 722.496 453.267 722.955 455.809C723.844 460.735 722.874 462.741 717.835 467.24C715.066 469.712 712.34 471.844 709.592 473.193C706.812 474.558 704.609 474.889 702.78 473.72C698.92 471.252 698.021 471.841 692.052 479.642C686.67 486.676 681.43 491.27 676.216 491.669C674.785 491.778 673.65 491.492 672.784 490.586C670.625 488.328 664.452 490.353 660.624 494.418C658.376 496.804 657.396 499.493 656.835 502.047C655.572 507.796 654.923 513.253 652.889 519.369C652.409 520.812 652.552 522.19 652.597 523.438C652.77 528.171 653.791 528.11 657.536 522.669C660.247 518.73 662.744 516.629 665.346 516.34C667.711 516.077 670.157 515.646 672.341 515.805C674.138 515.935 676.143 516.407 675.654 519.568C675.05 523.476 674.288 527.402 674.498 530.785C674.58 532.105 673.655 533.629 672.32 535.017C668.24 539.262 663.441 540.887 661.542 538.068C660.504 536.527 659.27 535.43 657.637 534.9C654.826 533.988 652.11 534.17 647.941 540.549C645.031 545.001 641.607 546.075 638.526 547.276C637.311 547.749 636.206 547.735 634.97 548.358C632.945 549.377 631.099 551.205 629.921 554.486C629.277 556.277 628.383 558.118 627.816 559.883C626.331 564.513 623.664 567.904 620.617 570.262C617.203 572.904 613.794 575.434 610.372 578.203C608.014 580.111 605.922 580.477 604.097 580.399C597.238 580.105 590.27 586.348 583.672 596.774C579.049 604.079 573.843 610.325 569.009 617.19C566.518 620.726 563.99 622.78 561.46 623.72C558.358 624.871 555.281 626.572 551.907 629.758C547.322 634.087 544.588 633.184 542.758 630.354C542.057 629.27 541.664 627.761 541.215 626.35C540.209 623.19 538.649 620.848 536.143 619.796C531.331 617.776 528.626 612.472 524.563 609.27C522.769 607.857 522.661 604.433 523.584 600.443C525.369 592.72 523.342 589.793 518.819 590.001C516.437 590.11 515.619 587.936 514.573 586.133C512.47 582.511 509.468 580.989 504.352 583.26C500.169 585.117 496.869 584.343 494.874 581.713C492.919 579.135 490.032 578.724 486.855 578.771C483.549 578.821 481.099 577.622 479.508 574.656C477.92 571.696 475.736 569.537 473.104 568.095C471.109 567.001 469.298 565.665 467.914 563.556C466.633 561.602 464.758 560.326 462.313 560.416C459.51 560.519 457.595 559.142 455.629 557.766C454.06 556.669 452.632 555.268 450.077 556.109C444.437 557.965 440.362 556.784 437.586 552.803C435.681 550.071 433.33 547.953 431.183 545.554C430.851 545.184 430.404 544.929 430.252 544.359C429.945 543.208 429.25 542.125 430.31 540.108C431.712 537.44 433.222 537.579 434.25 537.698C438.947 538.242 443.871 538.13 449.373 536.621C451.499 536.037 452.587 537.535 453.774 538.851C457.424 542.899 461.054 546.991 466.844 547.503C468.933 547.688 471.164 547.338 473.605 546.404C477.616 544.87 481.363 543.944 484.494 544.876C489.032 546.225 494.737 541.901 500.525 536.518C503.59 533.668 506.638 530.497 509.64 527.266C519.274 516.895 525.887 502.245 524.986 491.848C524.05 481.044 522.157 471.114 515.611 466.725C513.365 465.22 512.516 461.922 511.872 458.42C511.551 456.679 511.398 454.769 511.036 453.072C509.83 447.411 507.512 446.398 501.536 451.008C496.704 454.736 494.629 451.647 495.423 446.813C496.445 440.589 497.596 434.291 498.606 428.074C498.901 426.254 499.701 424.564 500.74 422.796C501.9 420.823 503.204 419.146 504.622 417.461C511.526 409.254 511.488 409.242 515.054 413.831C517.107 416.473 520.395 415.884 524.643 412.602C527.248 410.589 529.854 408.506 532.46 406.459C535.134 404.359 537.711 403.566 538.455 405.642C541.069 412.93 547.879 412.318 554.078 412.972C556.356 413.213 558.402 413.979 560.478 414.653C562.244 415.227 563.845 416.287 563.897 419.094C564.052 427.465 568.698 429.55 573.791 430.164C580.734 431.002 586.243 434.263 591.811 437.514C597.405 440.78 604.19 441.682 610.652 443.225C611.72 443.481 612.912 443.669 614.233 443.196C621.339 440.653 626.905 441.829 632.881 442.168C640.109 442.578 647.643 442.356 656.155 439.554C661.388 437.832 666.253 437.398 671.327 436.252C677.925 434.762 684.877 429.203 691.849 421.74C700.35 412.641 703.604 401.868 699.397 396.585C696.024 392.348 692.303 388.58 687.651 386.345C684.106 384.642 681.56 381.82 680.893 376.141C680.179 370.058 676.696 367.943 671.562 368.91C668.747 369.44 666.47 369.059 664.583 367.725C661.877 365.81 658.523 365.411 654.143 367.412C651.702 368.528 649.885 368.191 648.38 367.109C643.794 363.811 637.783 364.328 630.167 368.923C626.732 370.995 623.709 371.501 621.415 370.298C618.191 368.607 614.109 369.384 609.299 372.355C605.756 374.544 603.383 374.491 602.177 371.572C600.815 368.275 598.593 366.22 596.184 364.388C594.174 362.859 592.926 360.284 592.565 356.578C592.11 351.909 590.724 348.53 587.014 347.98C584.331 347.583 583.726 343.953 583.159 340.578C582.152 334.574 579.415 331.006 574.969 329.903C572.586 329.311 569.958 329.268 567.115 329.687C560.38 330.681 556.743 323.897 558.404 313.952C559.924 304.859 557.891 300.08 551.163 301.844C543.62 303.822 537.477 302.18 529.788 304.675C527.341 305.47 525.506 304.877 523.773 303.973C520.922 302.485 517.616 301.572 515.164 299.645C511.046 296.408 505.663 295.68 501.282 293.061C499.177 291.803 498.878 290.597 501.05 285.284C504.334 277.249 504.36 272.053 501.205 269.203C500.851 268.883 500.817 268.025 500.401 267.849C498.789 267.17 498.027 265.302 497.315 263.453C495.659 259.156 492.615 257.199 488.659 256.635C486.079 256.268 484.619 254.593 486.218 249.381C488.506 241.918 486.594 239.036 482.826 238.334C474.715 236.823 466.173 236.332 456.558 238.457C451.402 239.597 446.806 239.599 443.707 236.352C443.115 235.731 442.251 235.52 441.554 235.051C438.846 233.231 435.417 234.895 431.149 239.619C425.371 246.015 424.03 246.536 421.715 242.02C419.186 237.086 414.567 235.942 409.801 235.036C406.758 234.458 403.879 233.788 401.527 231.809C398.021 228.859 393.945 226.782 389.104 226.175C383.664 225.492 378.904 223.512 374.502 220.839C371.737 219.16 368.797 217.783 365.953 216.239C364.272 215.326 362.783 214.181 361.647 212.344C359.284 208.524 355.66 206.814 351.675 205.503C346.266 203.726 341.075 201.526 335.469 200.111C333.698 199.664 332.074 198.718 330.958 197.199C329.493 195.205 327.545 194.088 325.568 192.979C324.326 192.282 323.087 191.625 321.507 191.48C319.345 191.282 317.59 190.154 316.262 188.429C314.264 185.834 311.913 183.951 308.989 182.733C302.78 180.148 297.006 176.749 292.012 172.028C289.174 169.344 285.642 167.682 281.433 167.54C277.05 167.393 274.461 164.33 271.974 161.236C269.261 157.86 265.437 156.873 260.967 157.06C253.492 157.373 247.922 154.237 243.267 149.417C241.535 147.624 239.564 146.16 237.196 145.615C231.982 144.416 228.556 140.703 226.55 134.778C225.259 130.964 222.08 130.297 218.798 130.001C213.946 129.562 208.738 129.95 203.267 131.048C201.818 131.339 200.359 131.73 198.661 133.063C195.117 135.845 192.91 139.841 192.337 144.302C191.763 148.765 193.357 150.817 195.149 152.365C198.075 154.893 200.619 158.047 204.186 159.567C207.452 160.958 209.156 164.67 211.05 168.027C212.348 170.326 211.247 172.878 208.165 176.501C205.215 179.969 202.558 181.182 200.263 181.225C194.595 181.33 189.681 179.855 186.036 176.111C181.881 171.841 176.792 169.275 171.135 167.62C167.981 166.697 164.846 165.727 161.818 164.537C153.204 161.15 145.601 155.848 135.857 154.587C133.82 154.324 132.295 153.076 130.917 151.677C126.583 147.275 121.43 144.331 115.479 142.723C113.834 142.279 112.251 141.494 111.248 140.034C109.979 138.186 108.259 137.123 106.548 136.063C102.277 133.419 98.2921 130.345 94.9435 126.254C94.8643 126.158 94.7581 126.096 94.6485 126.047C87.1557 122.728 82.1154 115.34 74.5339 112.147C72.0861 111.116 69.4663 110.464 66.7745 109.963C60.8172 108.853 55.9687 105.91 51.8845 101.517C49.2851 98.7217 46.1921 96.6374 43.111 94.5851C40.8045 93.0487 39.0128 90.7596 37.0489 88.7292C32.423 83.9466 27.5628 79.5472 21.7897 76.6249C18.7013 75.0617 14.9673 74.7234 12.0261 72.8259C10.2017 71.649 9.21621 69.2449 7.14745 68.4728C1.3991 66.3272 -3.9672 63.4487 -10.5289 62.8788C-14.1285 62.566 -17.3853 61.5776 -20.2187 59.7304C-32.6836 51.6046 -46.0999 45.1137 -58.6791 37.1978C-64.6146 33.4627 -70.8179 30.0226 -75.4458 24.1326C-78.7731 19.8979 -78.3469 16.2823 -72.9891 7.35751C-68.8008 0.380798 -65.7066 -6.27242 -64.603 -13.1181C-64.1998 -15.6183 -63.0389 -18.3449 -61.669 -21.1224C-57.7949 -28.9771 -57.3858 -34.6946 -59.8976 -38.397C-61.2714 -40.422 -62.7633 -42.286 -64.2033 -44.2206C-64.6947 -44.8809 -64.922 -45.7977 -63.9609 -47.3787C-63.0396 -48.8944 -62.0206 -49.2671 -61.2607 -49.1769C-60.3843 -49.0728 -59.7036 -48.544 -58.9018 -48.2689C-51.6553 -45.7826 -45.315 -41.6848 -38.7884 -37.9208C-36.8158 -36.7832 -34.429 -36.5325 -31.3205 -39.382C-24.0891 -46.0107 -19.4935 -44.7561 -14.7693 -43.677C-9.07232 -42.3756 -4.57317 -38.8967 0.587981 -36.6213C1.78734 -36.0926 2.79496 -35.2799 4.41784 -35.4809C8.37198 -35.9703 11.6314 -38.8029 15.0531 -45.0989C18.2399 -50.9627 18.687 -54.8587 16.3268 -57.5429C12.971 -61.3595 8.84246 -64.0025 5.80122 -68.3222C4.73221 -69.8405 3.04672 -70.6968 0.954571 -70.614C0.292741 -70.5878 -0.283104 -70.8061 -0.819355 -71.0558C-1.72491 -71.4777 -2.40604 -72.3222 -1.87494 -74.2518C-1.31304 -76.2932 0.0860025 -77.6379 1.44848 -78.6285C4.05193 -80.5212 6.69949 -82.6712 9.24369 -84.1468C14.3214 -87.0919 18.5082 -87.1429 22.4598 -86.7464C24.0871 -86.5832 25.2213 -85.4458 25.3761 -82.903C25.5032 -80.8131 26.1177 -79.0026 27.509 -78.5209C30.4489 -77.5032 32.4475 -75.2453 33.5406 -71.5432C34.4465 -68.4745 37.123 -68.9447 40.2786 -70.623C40.91 -70.9587 41.574 -71.4793 42.2221 -71.9062C49.1876 -76.4936 49.9709 -76.3098 50.4555 -68.9832C50.88 -62.5646 52.5179 -59.362 60.839 -64.4296C65.6611 -67.3662 70.5076 -70.6617 75.1024 -72.2528C77.304 -73.0151 79.679 -75.1815 81.8518 -77.6513C89.088 -85.8761 94.8066 -86.7054 99.5316 -85.34C104.062 -84.0306 108.567 -85.289 114.858 -91.754C117.977 -94.9586 121.363 -97.1499 124.601 -99.4174C127.442 -101.407 128.066 -100.818 126.987 -96.9654C125.3 -90.9422 125.123 -86.197 126.427 -82.4571C127.027 -80.7378 126.598 -78.2167 125.988 -75.5824C123.17 -63.4237 126.244 -58.0477 132.891 -56.99C135.168 -56.6279 136.836 -55.2322 138.851 -54.4362C143.355 -52.6577 148.509 -53.5915 155.261 -59.7372C158.607 -62.7825 161.729 -64.3359 164.448 -64.1444C167.91 -63.9006 171.776 -65.3715 176.18 -68.6957C178.104 -70.1483 180.058 -71.1626 181.906 -71.9719C184.784 -73.2321 187.636 -75.2949 190.588 -78.2888C193.75 -81.4956 196.164 -82.2324 198.311 -81.0964C201.85 -79.2233 204.434 -76.0684 206.437 -71.9597C207.782 -69.2019 208.079 -65.7881 206.38 -60.7019C204.341 -54.6013 204.557 -50.5196 206.813 -47.909C208.683 -45.7462 209.964 -42.6889 212.635 -41.7619C217.661 -40.0171 220.361 -34.9615 221.383 -28.1066C222.807 -18.5467 227.938 -16.324 236.506 -19.1672C241.723 -20.8983 246.386 -20.7588 251.866 -23.131C253.617 -23.8894 255.117 -23.3267 256.546 -22.9881C258.175 -22.6018 260.095 -23.216 262.127 -24.1628C266.399 -26.1528 269.807 -30.2787 272.4 -36.4276C273.953 -40.1117 275.075 -43.685 275.397 -46.9195C275.938 -52.3536 277.673 -58.3622 278.781 -64.0664C279.531 -67.9268 280.432 -68.8606 283.481 -70.7109C287.239 -72.9917 289.113 -70.9443 291.626 -70.4984C293.916 -70.0921 295.845 -68.8297 297.172 -66.583C299.075 -63.3603 302.198 -62.2376 305.976 -62.1757C311.512 -62.0851 316.63 -61.0541 323.473 -64.4161C327.842 -66.562 331.148 -70.66 333.975 -76.4837C334.834 -78.2541 335.472 -80.0981 336.099 -81.8887C336.962 -84.3527 337.66 -86.7886 338.533 -89.2536C339.895 -93.1008 341.235 -94.768 343.759 -95.4029C345.496 -95.84 347.13 -95.8594 348.636 -95.6826C350.61 -95.451 352.79 -95.9148 355.284 -97.8927C360.562 -102.079 364.657 -102.405 368.301 -101.558C371.439 -100.829 374.926 -101.981 379.065 -104.282C385.491 -107.853 390.459 -107.423 393.738 -103.462C395.334 -101.534 396.578 -99.1484 398.697 -97.9249C401.818 -96.1224 405.578 -97.1841 410.325 -102.329C414.814 -107.195 418.527 -115.574 418.927 -121.476C419.084 -123.79 418.625 -125.663 418.724 -127.943C418.819 -130.11 418.009 -132.171 420.284 -135.128C422.227 -137.651 424.213 -138.141 425.766 -138.035C430.193 -137.734 434.061 -136.383 436.472 -132.479C438.79 -128.725 437.596 -123.934 432.679 -117.272C431.217 -115.291 429.709 -113.37 428.285 -111.343C423.541 -104.591 422.385 -99.1999 424.503 -95.2882C426.264 -92.0351 429.109 -90.5597 433.048 -91.9594C440.511 -94.6113 443.72 -89.8011 448.026 -86.583C453.361 -82.5957 458.981 -79.0185 467.874 -81.9185C475.68 -84.4643 490.082 -101.62 494.694 -113.964C496.226 -118.064 496.751 -121.425 496.321 -124.263C495.779 -127.835 495.272 -131.443 494.129 -134.412C493.095 -137.098 492.585 -140.344 492.591 -144.072C492.6 -149.52 494.303 -153.394 498.953 -157.778C504.278 -162.797 509.632 -167.67 514.989 -172.309C519.099 -175.869 519.88 -174.783 517.854 -168.91C516.622 -165.339 515.116 -161.703 514.024 -158.174C510.675 -147.361 512.166 -142.54 518.628 -142.762C520.244 -142.818 521.898 -142.949 523.606 -143.248C527.766 -143.976 530.678 -142.687 531.812 -138.199C532.644 -134.907 535.134 -134.052 537.788 -133.74C541.106 -133.349 545.898 -137.413 549.654 -143.343C552.404 -147.685 554.379 -152.144 555.964 -156.716C557.44 -160.977 559.095 -165.262 561.451 -169.509C565.65 -177.077 568.181 -179.383 572.807 -179.608C574.973 -179.713 577.036 -179.553 579.101 -179.411C583.654 -179.096 588.73 -181.854 594.297 -187.755C598.004 -191.685 601.725 -194.888 605.472 -197.314C608.712 -199.411 611.599 -202.909 614.403 -206.665C616.633 -209.651 618.9 -212.509 621.351 -214.746C625.811 -218.816 628.866 -218.98 629.368 -214.374C630.143 -207.256 631.137 -200.439 633.741 -195.252C634.437 -193.865 634.203 -191.662 633.491 -189.111C632.94 -187.137 632.45 -185.135 632.234 -183.334C631.699 -178.891 634.471 -177.363 638.042 -180.096C639.33 -181.081 640.658 -182.351 641.917 -183.693C650.63 -192.975 658.28 -197.35 664.666 -194.855C666.923 -193.974 669.939 -194.775 673.064 -196.123C674.778 -196.863 676.617 -197.797 678.362 -199.808C683.782 -206.056 689.18 -212.379 694.532 -218.804C698.19 -223.197 699.642 -227.67 699.787 -232.02C699.951 -236.938 700.497 -238.105 704.62 -241.177C708.939 -244.395 712.679 -248.609 715.728 -254.58C718.206 -259.434 721.084 -262.708 724.627 -264.861C727.174 -266.409 729.824 -268.787 732.413 -270.588C741.341 -276.799 745.836 -276.47 748.043 -268.559C750.232 -260.715 756.626 -260.926 763.547 -262.196C767.786 -262.974 771.937 -263.638 774.107 -260.381C775.798 -257.843 778.118 -256.442 780.421 -254.935C782.158 -253.799 784.223 -253.46 786.703 -253.913C793.139 -255.089 797.727 -253.253 798.718 -245.343C798.981 -243.239 799.812 -241.545 800.827 -240.301C803.044 -237.585 806.987 -239.858 810.794 -245.764C811.322 -246.583 811.8 -247.457 812.268 -248.319C816.678 -256.438 817.755 -257.153 821.114 -254.136C823.677 -251.835 825.373 -248.462 826.086 -243.844C827.066 -237.489 828.535 -231.703 831.907 -228.118C833.184 -226.76 833.788 -224.53 834.509 -222.46C835.4 -219.896 836.901 -218.358 839.722 -218.977C843.005 -219.697 844.873 -218.265 845.202 -214.192C845.454 -211.066 846.853 -209.167 848.336 -207.483C849.094 -206.622 849.612 -205.504 849.903 -204.103C850.739 -200.08 849.797 -197.525 845.568 -193.243C842.951 -190.595 840.555 -187.613 838.275 -184.395C835.347 -180.264 832.495 -178.258 829.966 -178.279C826.531 -178.307 822.899 -177.04 818.659 -173.567C817.874 -172.925 817.023 -172.533 816.305 -172.348C811.59 -171.135 806.826 -167.901 801.619 -162.484C798.618 -159.363 795.48 -158.643 792.753 -158.026C788.105 -156.975 783.092 -154.718 778.639 -154.305C775.288 -153.994 771.823 -151.255 768.632 -145.824C766.832 -142.759 764.845 -140.787 762.667 -139.327C759.878 -137.459 757.224 -134.856 754.492 -131.848C747.057 -123.66 739.527 -118.732 734.168 -123.123C731.732 -125.119 729.083 -126.762 725.848 -127.945Z" fill="#181717" stroke="white" stroke-opacity="0.41" stroke-width="2" mask="url(#path-5-inside-1_46_1219)"/>
    <path d="M-49.1242 158.27C-47.2077 159.377 -45.9199 160.267 -44.4938 160.903C-42.9952 161.572 -42.0297 162.995 -42.0684 165.451C-42.2283 175.577 -37.1585 178.829 -32.3114 182.34C-28.5172 185.088 -23.974 186.51 -19.4911 188.015C-14.956 189.538 -11.9551 193.528 -8.43218 196.666C-7.44133 197.548 -6.56137 198.621 -5.39272 199.216C0.374686 202.151 5.4896 206.206 11.3248 209.035C13.5972 210.137 16.0492 210.846 18.5286 211.5C22.0016 212.417 23.074 215.878 21.7367 222.001C20.6007 227.204 20.2528 231.844 20.1351 236.391C19.9634 243.021 18.9135 244.986 13.1624 249.773C11.185 251.419 9.31192 253.272 7.42412 255.438C4.72011 258.541 2.24515 260.146 0.529631 258.572C-2.05288 256.202 -5.86564 256.5 -9.70656 256.741C-14.3403 257.032 -18.6384 256.51 -22.0675 254.252C-25.9637 251.686 -31.1792 251.569 -34.8473 248.535C-36.99 246.763 -40.7673 248.708 -44.1913 250.465C-50.8556 253.885 -54.2689 251.159 -56.1265 245.963C-57.4287 242.32 -59.0048 239.261 -61.8665 237.93C-64.9515 236.495 -66.3394 233.029 -66.6401 228.163C-66.8264 225.146 -67.2685 222.497 -69.1439 221.382C-71.0425 220.253 -72.9982 219.503 -76.1654 221.468C-79.9891 223.84 -80.4428 221.965 -78.4069 216.521C-78.0708 215.622 -77.6824 214.713 -77.2794 213.812C-74.9205 208.537 -74.7307 204.739 -76.1986 202.028C-77.4889 199.645 -78.2673 196.721 -78.5038 193.181C-79.0673 184.748 -73.2968 169.982 -65.8666 160.927C-62.6352 156.989 -59.8055 155.626 -57.1464 155.693C-53.8236 155.776 -51.1736 157.156 -49.1242 158.27Z" fill="#181717"/>
    <path d="M-77.9386 216.696L-78.4069 216.521L-77.9386 216.696C-77.6076 215.811 -77.224 214.912 -76.823 214.016C-74.441 208.69 -74.1799 204.706 -75.7589 201.79C-77.0073 199.484 -77.772 196.634 -78.0049 193.148C-78.2795 189.038 -77.0073 183.319 -74.7172 177.469C-72.4314 171.63 -69.1556 165.723 -65.4801 161.244L-65.4801 161.244C-62.3005 157.369 -59.6037 156.132 -57.159 156.193C-53.9698 156.273 -51.4146 157.594 -49.3687 158.706C-48.7692 159.053 -48.2232 159.383 -47.71 159.694C-46.6245 160.351 -45.6857 160.919 -44.6975 161.36C-44.0371 161.654 -43.5061 162.108 -43.1394 162.754C-42.7699 163.404 -42.55 164.281 -42.5684 165.443C-42.6498 170.6 -41.397 174.055 -39.4702 176.673C-37.7084 179.066 -35.3985 180.731 -33.1646 182.341C-32.9773 182.476 -32.7906 182.61 -32.6047 182.745L-32.3114 182.34L-32.6047 182.745C-28.9785 185.371 -24.6874 186.805 -20.4921 188.207C-20.211 188.301 -19.9303 188.395 -19.6502 188.489C-17.4764 189.219 -15.6521 190.546 -13.9163 192.107C-13.0667 192.871 -12.2456 193.683 -11.4146 194.506L-11.3604 194.56C-10.514 195.398 -9.65682 196.245 -8.76472 197.039L-8.43218 196.666L-8.76471 197.039C-8.52619 197.252 -8.29247 197.477 -8.05256 197.711C-8.02198 197.741 -7.99127 197.771 -7.96043 197.801C-7.75173 198.004 -7.53729 198.214 -7.31854 198.416C-6.8163 198.88 -6.26452 199.333 -5.61946 199.662C-2.89144 201.05 -0.308246 202.692 2.29906 204.35C2.42346 204.429 2.54792 204.508 2.67244 204.587C5.3995 206.32 8.15974 208.056 11.1067 209.485C13.4262 210.61 15.9191 211.329 18.401 211.984L18.5286 211.5L18.401 211.984C19.9683 212.397 20.9735 213.363 21.4585 214.945C21.9563 216.568 21.91 218.864 21.2482 221.895C20.1031 227.139 19.7534 231.813 19.6353 236.378C19.5498 239.678 19.245 241.73 18.2979 243.541C17.3456 245.363 15.7166 246.997 12.8426 249.389C10.8421 251.054 8.95015 252.926 7.04715 255.11C5.70642 256.648 4.46323 257.765 3.38054 258.313C2.84389 258.584 2.37564 258.701 1.97213 258.683C1.58024 258.666 1.21442 258.522 0.867681 258.204C-0.528918 256.922 -2.24344 256.379 -4.06232 256.18C-5.7855 255.992 -7.64782 256.11 -9.46939 256.225C-9.559 256.231 -9.64851 256.237 -9.73791 256.242C-14.3269 256.53 -18.4957 256.005 -21.7926 253.834C-23.6331 252.622 -25.7543 251.94 -27.8006 251.283C-27.9975 251.22 -28.1936 251.157 -28.3888 251.093C-30.6413 250.363 -32.7765 249.599 -34.5286 248.15C-35.8014 247.097 -37.5009 247.201 -39.1804 247.697C-40.8579 248.193 -42.6832 249.129 -44.369 249.994L-44.4196 250.02C-47.6822 251.694 -50.0276 251.803 -51.7484 250.993C-53.4877 250.174 -54.7434 248.347 -55.6557 245.795C-56.9579 242.152 -58.5898 238.903 -61.6556 237.477C-64.4759 236.165 -65.8428 232.958 -66.141 228.132C-66.2346 226.617 -66.3941 225.15 -66.7814 223.91C-67.17 222.666 -67.8054 221.596 -68.8883 220.952C-69.8549 220.378 -70.9007 219.858 -72.142 219.766C-73.3946 219.673 -74.7794 220.02 -76.429 221.043C-77.3732 221.629 -78.043 221.907 -78.4808 221.965C-78.6916 221.993 -78.8066 221.964 -78.8662 221.934C-78.9163 221.909 -78.9712 221.861 -79.0185 221.742C-79.1294 221.461 -79.145 220.917 -78.9633 220.024C-78.7868 219.157 -78.4436 218.047 -77.9386 216.696Z" stroke="white" stroke-opacity="0.41"/>
    <path d="M171.995 369.773C169.385 368.852 168.26 365.878 167.106 362.955C165.486 358.849 163.886 354.768 160.704 352.696C158.621 351.339 155.943 351.543 153.107 352.001C151.694 352.229 150.185 352.712 148.83 352.798C144.996 353.042 144.857 349.843 148.151 343.482C151.119 337.75 154.25 333.91 158.678 331.254C165.122 327.389 171.21 319.678 177.002 312.176C180.748 307.323 181.572 303.196 180.292 299.293C179.559 297.059 178.509 295.176 177.875 292.838C177.278 290.635 178.034 288.878 180.294 287.936C187.223 285.045 193.389 278.575 199.307 269.505C199.952 268.518 200.868 267.575 201.652 266.968C209.61 260.803 217.545 252.735 225.51 247.537C226.631 246.805 227.72 246.373 228.84 245.675C231.229 244.188 232.205 245.037 231.999 247.812C231.606 253.097 231.268 258.348 230.703 263.746C230.397 266.67 229.072 269.683 226.668 272.638C217.201 284.277 212.112 297.429 207.18 310.531C204.801 316.85 206.116 319.929 208.743 321.529C212.009 323.518 214.833 326.175 217.399 329.255C219.778 332.109 221.142 336.104 221.217 341.464C221.286 346.49 222.758 349.565 225.872 350.705C228.52 351.673 230.443 353.766 231.494 357.074C232.583 360.502 231.62 362.626 227.768 364.915C222.813 367.859 218.273 368.597 213.17 372.216C212.858 372.437 212.551 372.341 212.254 372.601C204.409 379.474 199.733 378.006 195.517 374.794C192.559 372.54 188.617 372.013 184.45 372.113C179.863 372.224 175.853 371.163 171.995 369.773Z" fill="#181717"/>
    <path d="M172.164 369.303L172.161 369.302C171.005 368.893 170.15 368.024 169.431 366.853C168.733 365.717 168.194 364.35 167.635 362.933L167.571 362.771L167.544 362.702C166.745 360.678 165.935 358.625 164.927 356.819C163.906 354.989 162.662 353.374 160.976 352.277C158.714 350.803 155.849 351.052 153.027 351.507C152.457 351.599 151.868 351.732 151.297 351.861C151.143 351.896 150.99 351.931 150.839 351.964C150.117 352.124 149.434 352.258 148.798 352.299L148.83 352.798L148.798 352.299C147.897 352.356 147.305 352.203 146.938 351.936C146.589 351.681 146.361 351.263 146.317 350.584C146.271 349.893 146.422 348.974 146.804 347.811C147.183 346.654 147.779 345.288 148.595 343.711C151.537 338.029 154.614 334.275 158.935 331.683C165.476 327.759 171.623 319.961 177.397 312.482C181.213 307.54 182.114 303.242 180.767 299.137C180.443 298.148 180.057 297.226 179.68 296.325C179.623 296.187 179.565 296.05 179.508 295.912C179.076 294.873 178.666 293.843 178.358 292.707L177.875 292.838L178.358 292.707C178.081 291.689 178.132 290.827 178.464 290.129C178.796 289.434 179.441 288.833 180.486 288.397L180.294 287.936L180.486 288.397C187.555 285.448 193.79 278.875 199.726 269.779C200.337 268.842 201.214 267.94 201.958 267.363L201.652 266.968L201.958 267.363C205.146 264.894 208.332 262.118 211.504 259.355C212.306 258.657 213.106 257.959 213.906 257.268C217.879 253.831 221.832 250.535 225.783 247.956L225.51 247.537L225.783 247.956C226.321 247.605 226.854 247.324 227.406 247.037C227.442 247.018 227.478 247 227.514 246.981C228.029 246.714 228.563 246.437 229.104 246.1C229.677 245.743 230.128 245.551 230.47 245.481C230.804 245.413 230.988 245.47 231.1 245.55C231.222 245.638 231.355 245.825 231.44 246.207C231.525 246.587 231.55 247.106 231.5 247.775C231.424 248.808 231.349 249.839 231.274 250.869C230.967 255.117 230.66 259.357 230.206 263.694C229.912 266.503 228.637 269.427 226.281 272.323C216.755 284.033 211.642 297.258 206.712 310.355C205.506 313.558 205.208 316.011 205.595 317.9C205.986 319.814 207.068 321.094 208.483 321.956C211.689 323.909 214.473 326.524 217.015 329.575L217.399 329.255L217.015 329.575C219.301 332.318 220.643 336.192 220.717 341.47C220.787 346.565 222.287 349.926 225.7 351.174C228.179 352.081 230.005 354.039 231.018 357.225C231.541 358.871 231.545 360.118 231.032 361.209C230.509 362.319 229.409 363.358 227.513 364.485C225.392 365.745 223.352 366.594 221.273 367.458C220.96 367.588 220.646 367.719 220.331 367.851C217.93 368.86 215.478 369.966 212.881 371.808L212.881 371.808C212.818 371.853 212.762 371.867 212.591 371.908C212.426 371.947 212.171 372.009 211.925 372.225L211.925 372.225C208.045 375.624 205.022 376.894 202.508 376.979C200 377.064 197.891 375.974 195.82 374.396C192.723 372.036 188.635 371.513 184.438 371.614C179.939 371.722 175.995 370.682 172.164 369.303Z" stroke="white" stroke-opacity="0.41"/>
    <path d="M283.464 573.863C281.476 572.103 279.455 570.24 277.21 569.05C273.433 567.046 269.557 565.146 265.542 563.536C264.854 563.26 263.931 563.369 263.053 565.018C262.4 566.244 262.665 567.089 263.107 567.549C264.894 569.41 266.841 571.039 268.503 573.079C270.908 576.03 269.921 580.264 265.821 585.676C264.037 588.032 262.269 589.055 260.575 589.832C256.988 591.477 253.447 592.905 249.902 594.36C248.333 595.005 247.045 594.981 246.023 594.25C244.753 593.341 243.461 592.433 241.967 591.935C239.397 591.079 238.374 588.428 238.011 584.693C237.632 580.799 236.892 577.228 233.191 577.717C230.961 578.012 228.647 579.438 226.156 581.836C221.868 585.964 218.498 586.745 215.79 585.324C212.299 583.493 208.768 581.744 206.153 578.427C204.995 576.958 203.115 576.52 201.605 575.544C196.015 571.929 193.649 565.059 197.285 552.164C198.296 548.579 198.794 545.354 198.389 542.64C198.113 540.795 199.115 539.372 200.759 538.732C204.289 537.357 206.85 538.043 208.629 540.313C210.523 542.732 213.244 543.673 215.934 544.754C220.388 546.542 224.823 548.331 228.312 551.904C235.075 558.828 244.077 561.516 256.24 556.979C268.754 552.311 279.374 552.555 290.22 552.336C294.899 552.242 299.838 551.516 304.696 550.979C308.936 550.51 309.311 551.659 306.896 558.569C302.386 571.468 303.035 575.957 309.777 577.747C310.521 577.945 311.092 578.265 311.364 579.165C311.643 580.09 311.663 581.141 310.826 582.638C309.951 584.205 309.06 584.653 308.166 584.679C306.954 584.714 305.796 584.687 304.839 584.138C301.618 582.292 298.214 580.762 295.065 578.795C291.505 576.572 286.549 576.955 283.464 573.863Z" fill="#181717"/>
    <path d="M283.818 573.51L283.807 573.499L283.796 573.489C283.641 573.352 283.485 573.214 283.329 573.075C281.499 571.449 279.572 569.737 277.445 568.608C273.658 566.6 269.766 564.691 265.728 563.072C265.285 562.894 264.735 562.832 264.157 563.102C263.596 563.364 263.079 563.906 262.612 564.783C262.249 565.463 262.12 566.078 262.171 566.618C262.222 567.16 262.452 567.59 262.746 567.896C263.396 568.572 264.07 569.222 264.736 569.863C264.994 570.111 265.25 570.358 265.503 570.605C266.417 571.496 267.303 572.397 268.115 573.395C269.206 574.733 269.544 576.367 269.113 578.348C268.676 580.351 267.452 582.695 265.423 585.374C263.704 587.644 262.013 588.623 260.366 589.378C257.211 590.825 254.092 592.103 250.964 593.385C250.547 593.555 250.13 593.726 249.713 593.898C248.234 594.505 247.144 594.438 246.314 593.843C245.051 592.94 243.701 591.986 242.125 591.461C239.873 590.711 238.871 588.371 238.509 584.644C238.32 582.705 238.036 580.745 237.289 579.328C236.91 578.608 236.397 578.001 235.693 577.615C234.986 577.227 234.134 577.088 233.126 577.221L233.191 577.717L233.126 577.221C230.737 577.537 228.327 579.052 225.809 581.476C223.696 583.511 221.847 584.681 220.232 585.183C218.635 585.68 217.253 585.527 216.023 584.882C215.862 584.798 215.702 584.714 215.543 584.63C212.197 582.879 208.967 581.188 206.545 578.117L206.153 578.427L206.545 578.117C205.899 577.298 205.063 576.782 204.24 576.356C203.961 576.212 203.689 576.08 203.425 575.953C202.881 575.69 202.367 575.441 201.877 575.124L201.605 575.544L201.877 575.124C199.189 573.386 197.28 570.875 196.474 567.226C195.662 563.556 195.96 558.705 197.766 552.3C198.783 548.693 199.304 545.385 198.883 542.566L198.389 542.64L198.883 542.566C198.647 540.984 199.483 539.765 200.94 539.198C202.644 538.534 204.064 538.387 205.245 538.644C206.417 538.899 207.406 539.563 208.235 540.622C210.07 542.964 212.646 543.986 215.108 544.963C215.322 545.048 215.536 545.133 215.748 545.218L215.748 545.218C220.216 547.012 224.55 548.768 227.954 552.253L228.312 551.904L227.954 552.253C231.393 555.773 235.419 558.235 240.148 559.229C244.876 560.222 250.265 559.741 256.415 557.447C267.769 553.212 277.544 553.05 287.441 552.886C288.369 552.87 289.298 552.855 290.23 552.836C293.863 552.763 297.657 552.311 301.42 551.863C302.534 551.731 303.647 551.598 304.751 551.476C305.807 551.359 306.547 551.354 307.046 551.48C307.287 551.541 307.448 551.627 307.56 551.726C307.668 551.823 307.755 551.954 307.812 552.148C307.935 552.565 307.914 553.235 307.679 554.294C307.448 555.335 307.026 556.68 306.424 558.404C304.172 564.843 303.16 569.301 303.622 572.398C303.857 573.974 304.475 575.214 305.507 576.175C306.529 577.127 307.92 577.772 309.648 578.231C309.991 578.322 310.243 578.429 310.434 578.582C310.616 578.729 310.775 578.943 310.885 579.31C311.124 580.101 311.162 581.012 310.39 582.394L310.826 582.638L310.39 582.394C309.976 583.135 309.58 583.572 309.216 583.827C308.861 584.076 308.512 584.169 308.151 584.179C306.931 584.214 305.909 584.175 305.087 583.704C303.725 582.923 302.33 582.198 300.945 581.479C300.682 581.342 300.418 581.205 300.156 581.068C298.51 580.21 296.886 579.343 295.33 578.371C293.735 577.376 291.871 576.88 290.095 576.408C289.8 576.33 289.507 576.252 289.219 576.173C287.154 575.606 285.26 574.955 283.818 573.51Z" stroke="white" stroke-opacity="0.41"/>
    <path d="M155.369 545.753C156.597 546.592 157.66 546.903 158.109 548.204C159.975 553.611 164.756 553.527 169.95 552.646C170.519 552.55 171.101 552.42 171.685 552.282C173.342 551.89 174.01 552.929 173.919 555.021C173.822 557.239 172.547 559.933 170.991 561.302C165.253 566.352 161.768 573.003 158.268 580.437C155.437 586.453 146.235 594.452 142.565 594.967C140.495 595.257 139.852 593.54 139.824 591.055C139.795 588.501 140.027 585.729 139.919 583.246C139.694 578.061 137.5 576.582 132.826 579.231C127.405 582.304 123.604 581.438 119.875 580.313C118.244 579.821 116.882 578.805 115.322 578.168C112.747 577.117 111.395 574.752 111.752 570.017C111.982 566.953 111.357 564.552 110.288 562.607C108.163 558.743 108.871 556.575 113.82 550.808C116.6 547.569 119.41 544.409 122.226 541.277C125.156 538.018 127.646 536.747 129.65 537.919C136.573 541.967 145.12 542.818 153.089 544.805C154.042 545.043 154.867 545.539 155.369 545.753Z" fill="#181717"/>
    <path d="M171.8 552.768L171.8 552.768C171.214 552.907 170.619 553.04 170.033 553.139L171.8 552.768ZM171.8 552.768C172.514 552.6 172.86 552.762 173.061 553.025C173.311 553.35 173.464 553.98 173.419 554.999C173.375 556.028 173.054 557.191 172.55 558.268C172.045 559.345 171.374 560.299 170.661 560.927C164.837 566.052 161.316 572.789 157.816 580.224C156.441 583.145 153.488 586.597 150.396 589.394C148.854 590.788 147.293 592.007 145.898 592.905C144.485 593.815 143.299 594.359 142.495 594.472L142.495 594.472M171.8 552.768L142.495 594.472M142.495 594.472C142.049 594.534 141.72 594.483 141.473 594.372C141.229 594.261 141.026 594.074 140.857 593.794C140.506 593.21 140.338 592.273 140.324 591.049L139.824 591.055M142.495 594.472L139.824 591.055M139.824 591.055L140.324 591.049C140.311 589.951 140.348 588.812 140.384 587.66C140.39 587.487 140.396 587.313 140.401 587.14C140.442 585.817 140.474 584.487 140.419 583.224C140.361 581.899 140.177 580.777 139.841 579.883C139.504 578.986 139.002 578.289 138.295 577.871C136.878 577.032 134.93 577.464 132.58 578.796C129.935 580.295 127.711 580.82 125.709 580.846C123.697 580.872 121.877 580.395 120.019 579.834C119.255 579.604 118.544 579.247 117.808 578.854C117.694 578.793 117.579 578.731 117.464 578.669C116.843 578.334 116.195 577.984 115.512 577.705L115.511 577.705M139.824 591.055L115.511 577.705M115.511 577.705C114.328 577.222 113.447 576.451 112.891 575.262C112.326 574.055 112.076 572.376 112.25 570.054C112.488 566.896 111.843 564.398 110.726 562.366C109.698 560.497 109.404 559.134 109.88 557.566C110.375 555.934 111.719 554.024 114.2 551.133L113.821 550.808M115.511 577.705L113.821 550.808M113.821 550.808L114.2 551.133C116.975 547.899 119.783 544.743 122.598 541.612C124.045 540.002 125.347 538.926 126.497 538.389C127.628 537.861 128.572 537.867 129.398 538.35L129.398 538.35M113.821 550.808L129.398 538.35M129.398 538.35C132.921 540.411 136.844 541.649 140.86 542.621C142.769 543.082 144.706 543.485 146.634 543.887C146.735 543.908 146.836 543.928 146.936 543.949C148.967 544.372 150.987 544.796 152.968 545.29C153.602 545.448 154.136 545.713 154.605 545.944C154.789 546.035 154.962 546.121 155.128 546.193L129.398 538.35Z" stroke="white" stroke-opacity="0.41"/>
    <path d="M92.741 278.537C90.179 277.77 88.814 275.025 86.7448 273.379C80.9711 268.785 73.5387 267.172 67.1698 263.651C65.4954 262.725 63.7238 261.968 62.0842 260.984C61.4029 260.575 60.4648 260.256 61.3728 258.123C62.1926 256.196 63.4 255.521 64.5138 254.832C65.3101 254.34 66.1008 253.986 66.8556 253.713C70.1112 252.538 73.409 250.472 76.9116 246.998C80.3175 243.621 83.1467 242.687 85.881 243.034C89.4629 243.487 92.3809 245.076 95.1872 246.89C97.7192 248.527 100.535 249.545 103.934 249.428C105.456 249.376 106.814 249.615 107.333 251.262C109.433 257.93 113.835 261.34 118.572 264.039C125.429 267.946 131.541 273.083 138.389 276.987C140.56 278.224 142.477 279.935 145.363 279.878C146.14 279.862 146.749 280.355 147.264 280.873C150.299 283.924 153.608 286.467 158.208 286.776C158.963 286.827 159.501 287.405 160.055 287.873C161.052 288.718 160.05 290.383 158.871 291.562C156.876 293.559 154.965 294.561 153.5 293.995C152.6 293.648 151.746 293.197 150.985 292.61C148.849 290.963 146.223 290.488 142.878 291.365C138.254 292.577 134.507 291.532 131.328 289.759C126.699 287.177 121.212 286.401 115.901 285.267C111.41 284.308 107.863 281.58 103.138 281.09C99.4669 280.709 95.4528 280.992 92.741 278.537Z" fill="#181717"/>
    <path d="M93.0766 278.166L92.9927 278.09L92.8843 278.058C91.7373 277.714 90.8317 276.921 89.9239 275.947C89.6894 275.695 89.4522 275.428 89.21 275.155C88.545 274.405 87.8428 273.614 87.0561 272.988C84.1127 270.645 80.7577 269.072 77.3741 267.651C76.6239 267.336 75.8734 267.029 75.1255 266.723C72.4817 265.641 69.8696 264.572 67.4117 263.213C66.689 262.814 65.948 262.445 65.2183 262.082C65.0909 262.018 64.9639 261.955 64.8373 261.892C63.9811 261.464 63.1433 261.036 62.3416 260.555C62.2698 260.512 62.2066 260.476 62.1484 260.442C62.038 260.379 61.9457 260.326 61.8479 260.257C61.7161 260.163 61.6303 260.074 61.5764 259.97C61.4754 259.775 61.3968 259.343 61.8328 258.318L61.3729 258.123L61.8328 258.318C62.552 256.628 63.5695 256.001 64.6291 255.349C64.6782 255.318 64.7275 255.288 64.7768 255.258C65.538 254.787 66.2961 254.447 67.0254 254.183C70.3604 252.98 73.7184 250.87 77.2637 247.353C80.5973 244.047 83.2817 243.208 85.8182 243.53L85.8182 243.53C89.2859 243.969 92.1267 245.507 94.9158 247.31C97.516 248.991 100.431 250.049 103.951 249.928C104.695 249.903 105.321 249.954 105.81 250.166C106.266 250.365 106.638 250.721 106.856 251.412C109.011 258.255 113.539 261.747 118.325 264.474C121.73 266.414 124.954 268.662 128.198 270.924L128.215 270.936C131.447 273.191 134.7 275.46 138.142 277.421C138.587 277.675 139.022 277.95 139.467 278.231C139.552 278.284 139.637 278.338 139.723 278.392C140.254 278.726 140.802 279.064 141.378 279.362C142.536 279.961 143.82 280.408 145.373 280.378L145.363 279.878L145.373 280.378C145.924 280.367 146.4 280.713 146.91 281.226C149.968 284.301 153.388 286.954 158.175 287.275L158.208 286.776L158.175 287.275C158.427 287.292 158.663 287.397 158.92 287.577C159.107 287.709 159.274 287.855 159.46 288.019C159.545 288.094 159.634 288.172 159.732 288.255L160.055 287.873L159.732 288.255C159.983 288.468 160.057 288.813 159.816 289.403C159.578 289.986 159.083 290.643 158.518 291.208C157.542 292.185 156.612 292.892 155.773 293.287C154.935 293.683 154.24 293.745 153.68 293.528L153.5 293.995L153.68 293.528C152.816 293.195 152.006 292.767 151.29 292.214C149.009 290.455 146.215 289.974 142.751 290.881L142.878 291.365L142.751 290.881C138.282 292.053 134.668 291.049 131.572 289.322C127.636 287.127 123.087 286.212 118.632 285.317C117.751 285.14 116.874 284.963 116.005 284.778C114.071 284.365 112.316 283.615 110.512 282.844C110.276 282.744 110.04 282.643 109.802 282.542C107.759 281.677 105.632 280.846 103.189 280.593C102.462 280.517 101.719 280.467 100.986 280.418C100.783 280.404 100.581 280.391 100.381 280.377C99.4481 280.312 98.5356 280.236 97.6576 280.097C95.9012 279.821 94.3298 279.301 93.0766 278.166Z" stroke="white" stroke-opacity="0.41"/>
    <path d="M295.301 603.239C296.967 604.418 298.721 605.458 300.276 606.81C302.321 608.589 303.027 611.649 301.095 617.061C300.536 618.626 300.189 620.156 299.698 621.714C297.579 628.439 295.525 630.889 291.207 631.557C289.102 631.883 287.146 631.777 285.668 630.686C283.231 628.886 280.368 628.033 276.68 628.712C272.276 629.524 269.342 627.285 266.481 625.097C263.514 622.829 265.187 617.4 270.154 612.654C273.372 609.578 276.611 606.652 279.84 603.652C284.411 599.405 287.538 599.969 290.497 600.786C292.259 601.273 293.646 602.507 295.201 603.405C295.234 603.35 295.268 603.294 295.301 603.239Z" fill="#181717"/>
    <path d="M295.454 603.955L295.376 604.084L294.951 603.838C294.459 603.554 293.963 603.224 293.485 602.905C293.202 602.717 292.926 602.533 292.659 602.364C291.913 601.892 291.174 601.492 290.364 601.268L290.364 601.268C288.895 600.863 287.464 600.545 285.855 600.813C284.254 601.081 282.415 601.942 280.18 604.018C279.114 605.008 278.049 605.989 276.985 606.969C274.818 608.964 272.656 610.955 270.499 613.015L270.154 612.654L270.499 613.015C268.057 615.349 266.457 617.821 265.821 619.948C265.184 622.078 265.533 623.743 266.785 624.7C269.662 626.9 272.428 628.987 276.589 628.221L276.589 628.221C280.418 627.515 283.421 628.404 285.965 630.283C287.28 631.254 289.067 631.382 291.13 631.063L291.13 631.063C293.195 630.744 294.671 630.011 295.898 628.581C297.147 627.125 298.166 624.913 299.221 621.564L299.221 621.564C299.416 620.945 299.587 620.333 299.761 619.711C299.804 619.56 299.846 619.407 299.889 619.255C300.108 618.48 300.338 617.692 300.624 616.893C301.576 614.227 301.859 612.19 301.68 610.63C301.503 609.087 300.874 607.993 299.948 607.188L295.454 603.955ZM295.454 603.955C295.84 604.222 296.225 604.48 296.607 604.737C297.766 605.514 298.895 606.272 299.948 607.188L295.454 603.955Z" stroke="white" stroke-opacity="0.41"/>
    <path d="M-21.5173 570.312C-23.3185 569.347 -23.1029 567.375 -21.0295 564.151C-19.6235 561.965 -17.9753 560.589 -16.3831 558.985C-12.5261 555.098 -8.81568 551.014 -5.76786 545.439C-3.50033 541.29 -0.848512 538.809 1.81621 538.702C6.04424 538.534 10.6188 537.112 15.622 534.236C16.3997 533.789 17.1533 533.637 17.8542 533.527C19.8545 533.214 19.8719 534.527 17.9195 537.456C17.3709 538.279 16.7718 539.113 16.153 539.792C11.0461 545.398 7.28008 551.532 4.83099 559.066C3.01031 564.666 -2.80187 570.482 -6.85771 571.445C-7.86401 571.684 -8.92411 571.883 -9.67394 571.571C-12.8975 570.228 -16.2707 569.261 -20.6312 570.455C-21.0526 570.57 -21.3676 570.34 -21.5173 570.312Z" fill="#181717"/>
    <path d="M15.8711 534.67L15.8711 534.67C16.5671 534.27 17.2465 534.129 17.9316 534.021C18.4007 533.948 18.6498 533.99 18.7612 534.045C18.8056 534.067 18.8232 534.088 18.8341 534.108C18.8475 534.131 18.8676 534.182 18.8692 534.284C18.8726 534.5 18.7906 534.848 18.5593 535.355C18.3328 535.852 17.9834 536.459 17.5035 537.179C16.9594 537.995 16.3767 538.804 15.7834 539.455C10.633 545.109 6.82845 551.304 4.35549 558.911C3.47446 561.621 1.61486 564.412 -0.53553 566.648C-2.69581 568.894 -5.08155 570.509 -6.97323 570.958C-7.47298 571.077 -7.95894 571.179 -8.40392 571.216C-8.85329 571.254 -9.2134 571.221 -9.48185 571.11C-12.7496 569.748 -16.2471 568.736 -20.7632 569.972L-20.7633 569.972C-20.8535 569.997 -20.9358 569.988 -21.0281 569.96C-21.0778 569.944 -21.1239 569.925 -21.1833 569.901C-21.1864 569.899 -21.1899 569.898 -21.1938 569.896C-21.2222 569.884 -21.2716 569.864 -21.3277 569.846C-21.684 569.646 -21.9138 569.414 -22.0528 569.157C-22.1977 568.89 -22.2656 568.554 -22.2282 568.122C-22.1513 567.232 -21.6365 566.019 -20.6089 564.422C-19.5369 562.755 -18.3321 561.586 -17.0778 560.369C-16.7312 560.032 -16.3807 559.692 -16.0282 559.337C-12.1607 555.439 -8.41091 551.316 -5.32913 545.678C-4.21231 543.635 -3.01457 542.029 -1.79018 540.926C-0.565472 539.823 0.657119 539.249 1.83607 539.202C6.16367 539.03 10.8165 537.575 15.8711 534.67Z" stroke="white" stroke-opacity="0.41"/>
    <path d="M361.848 95.3846C360.564 96.7264 359.827 97.0129 359.086 97.1593C353.483 98.2669 347.585 100.395 341.622 102.763C335.282 105.281 330.907 103.254 326.296 101.856C324.328 101.26 325.067 97.9383 327.575 94.5508C329.647 91.752 331.95 89.5648 334.196 87.6359C337.986 84.3798 340.549 80.6127 342.023 75.2983C343 71.7715 343.905 71.1443 345.842 71.8558C347.245 72.3709 348.101 73.664 348.671 75.3134C350.268 79.9314 352.998 82.649 356.988 83.7988C360.733 84.8775 361.475 90.0312 361.848 95.3846Z" fill="#181717"/>
    <path d="M361.334 95.1966C360.786 95.7514 360.362 96.0819 360.01 96.2894C359.634 96.5109 359.321 96.6032 358.989 96.6688L358.989 96.6688C353.339 97.7859 347.405 99.9289 341.437 102.299C336.032 104.445 332.141 103.197 328.107 101.903C327.556 101.726 327.002 101.548 326.441 101.378C326.101 101.275 325.896 101.07 325.781 100.764C325.657 100.434 325.631 99.9586 325.748 99.3434C325.981 98.1156 326.748 96.508 327.977 94.8484L327.575 94.551L327.977 94.8484C330.018 92.0921 332.29 89.9326 334.522 88.0152L334.522 88.0152C338.384 84.6978 341.003 80.8466 342.504 75.4319L342.023 75.2983L342.504 75.4319C342.745 74.5622 342.977 73.8913 343.213 73.3832C343.45 72.8726 343.679 72.5562 343.899 72.3665C344.279 72.0392 344.756 71.9895 345.67 72.3251L345.67 72.3252C346.861 72.7627 347.647 73.8787 348.199 75.4767L348.199 75.4767C349.84 80.2242 352.68 83.0778 356.85 84.2793L356.988 83.7988L356.85 84.2793C358.493 84.7527 359.532 86.1249 360.208 88.1474C360.867 90.1167 361.147 92.5996 361.334 95.1966Z" stroke="white" stroke-opacity="0.41"/>
    <path d="M275.665 110.979C278.372 106.909 280.563 106.035 282.617 104.11C285.938 100.997 288.414 97.6877 289.838 92.8382C291.131 88.4331 292.694 83.9165 294.395 79.4229C296.59 73.6238 299.682 68.27 303.812 63.614C309.744 56.9257 315.641 50.1275 321.571 43.4341C325.306 39.2182 326.537 38.9754 327.693 42.3542C328.259 44.0071 328.546 45.9885 328.846 47.9305C329.018 49.0369 329.281 50.1286 328.567 52.2818C324.629 54.7574 321.483 59.1584 318.088 64.4551C313.42 71.7364 308.124 78.5731 302.204 83.6537C296.897 88.2084 291.925 94.3218 287.601 101.078C283.689 107.19 280.173 109.693 275.665 110.979Z" fill="#181717"/>
    <path d="M321.945 43.7657L321.571 43.4341L321.945 43.7657C322.875 42.7165 323.634 41.9317 324.266 41.3918C324.91 40.8416 325.365 40.5963 325.688 40.5382C325.837 40.5115 325.951 40.5256 326.05 40.5645C326.152 40.6049 326.268 40.6844 326.397 40.8328C326.667 41.1425 326.935 41.6828 327.22 42.516C327.738 44.0292 328.017 45.8361 328.302 47.6832C328.319 47.7911 328.336 47.899 328.352 48.0071C328.366 48.0957 328.38 48.1825 328.394 48.2683C328.47 48.7387 328.54 49.1787 328.539 49.7121C328.537 50.299 328.446 51.0088 328.147 51.9567C324.174 54.5164 321.013 58.9657 317.667 64.1853C313.012 71.4464 307.747 78.2382 301.879 83.2743C296.524 87.8695 291.522 94.0244 287.18 100.808C283.746 106.174 280.658 108.675 276.945 110.038C278.441 108.068 279.75 107.059 281.022 106.077C281.67 105.577 282.309 105.084 282.959 104.475C286.326 101.319 288.862 97.936 290.317 92.9791C291.606 88.5893 293.165 84.0851 294.863 79.5999C297.038 73.8512 300.101 68.5514 304.186 63.9458L303.813 63.6148L304.186 63.9458C307.212 60.5343 310.247 57.0725 313.282 53.612C316.174 50.3139 319.065 47.0169 321.945 43.7657Z" stroke="white" stroke-opacity="0.41"/>
    <path d="M42.7433 548.245C41.7875 545.582 39.3543 545.106 36.9012 544.65C36.4184 544.56 35.9761 544.292 35.7167 543.843C35.0355 542.664 34.3444 541.233 36.3273 538.548C38.0922 536.157 39.6521 535.972 40.3034 537.364C41.7329 540.418 43.9088 542.251 46.4178 543.694C48.3607 544.811 50.5957 544.469 53.5902 541.741C57.9081 537.807 61.5755 536.415 64.8538 536.892C66.5401 537.137 68.5074 536.301 70.7429 534.329C73.6237 531.787 76.8528 528.21 77.9659 531.901C78.9894 535.297 77.1327 542.294 74.1245 546.681C68.1003 555.468 59.1621 559.496 56.228 554.708C53.7147 550.606 50.8084 547.251 45.046 548.877C44.2121 549.112 43.6315 548.515 42.7433 548.245Z" fill="#181717"/>
    <path d="M36.1497 543.593L36.1496 543.593C35.8136 543.012 35.5313 542.456 35.5229 541.755C35.5146 541.058 35.7783 540.133 36.7296 538.845C37.5897 537.68 38.3324 537.152 38.853 537.023C39.0976 536.962 39.2798 536.992 39.4209 537.067C39.5676 537.145 39.7212 537.3 39.8505 537.576L39.8505 537.576C41.3372 540.752 43.603 542.652 46.1686 544.127C47.2431 544.745 48.4185 544.965 49.7282 544.645C51.0172 544.331 52.3977 543.504 53.927 542.11C58.1936 538.223 61.716 536.941 64.7819 537.387L64.782 537.387C66.6888 537.663 68.8019 536.708 71.0736 534.703C71.4184 534.399 71.7677 534.081 72.1142 533.765L72.1715 533.713C72.5381 533.378 72.9014 533.048 73.2597 532.734C73.9811 532.102 74.6586 531.56 75.2663 531.211C75.8922 530.851 76.335 530.761 76.6355 530.847C76.8995 530.922 77.2294 531.191 77.4871 532.046C77.9583 533.609 77.7789 536.096 77.0734 538.792C76.3729 541.469 75.178 544.26 73.7122 546.398L74.1245 546.681L73.7122 546.398C70.7393 550.734 67.0649 553.868 63.8125 555.329C62.1853 556.06 60.6985 556.357 59.4735 556.213C58.2684 556.071 57.3014 555.503 56.6543 554.447C55.3928 552.388 53.9895 550.439 52.1285 549.226C50.2354 547.991 47.917 547.547 44.9102 548.396C44.6519 548.469 44.4253 548.425 44.1111 548.291C44.0006 548.243 43.8967 548.193 43.779 548.137C43.7154 548.106 43.6477 548.073 43.5729 548.038C43.4367 547.974 43.288 547.908 43.1265 547.848C42.0082 545.091 39.3525 544.597 37.0199 544.163L36.9929 544.158C36.9928 544.158 36.9927 544.158 36.9927 544.158C36.6296 544.091 36.3247 543.896 36.1497 543.593Z" stroke="white" stroke-opacity="0.41"/>
    <path d="M288.75 278.117C285.558 274.868 281.813 271.004 278.017 267.217C276.634 265.837 275.094 264.694 273.699 263.333C273.182 262.829 272.708 262.181 272.504 261.295C272.119 259.621 271.809 257.63 273.302 254.961C275.105 251.74 276.569 252.403 278.019 252.356C280.996 252.258 282.713 254.703 285.855 254.294C287.101 254.132 288.15 254.506 289.404 254.318C291.536 253.999 292.738 255.085 293.054 257.508C293.628 261.903 295.052 265.151 297.934 266.598C298.658 266.962 298.939 268.098 299.579 268.632C300.676 269.547 301.471 270.649 299.811 273.861C298.141 277.094 296.251 279.047 294.037 279.672C292.015 280.242 290.737 279.384 288.75 278.117Z" fill="#181717"/>
    <path d="M278.37 266.863L278.37 266.863C281.125 269.611 283.855 272.402 286.363 274.966C287.298 275.922 288.203 276.847 289.067 277.726C291.057 278.996 292.141 279.687 293.902 279.19L293.902 279.19C295.916 278.622 297.72 276.819 299.367 273.632C300.179 272.06 300.338 271.099 300.235 270.465C300.136 269.856 299.78 269.451 299.259 269.016C298.905 268.721 298.644 268.285 298.439 267.942C298.412 267.897 298.386 267.853 298.36 267.811C298.11 267.399 297.925 267.153 297.71 267.045C294.596 265.481 293.138 262.009 292.559 257.573L293.054 257.508L292.559 257.573C292.408 256.42 292.058 255.681 291.579 255.26C291.116 254.852 290.447 254.667 289.478 254.813L289.478 254.813C288.786 254.916 288.155 254.863 287.583 254.814L287.564 254.812C286.988 254.762 286.474 254.718 285.919 254.79L285.919 254.79C284.196 255.014 282.867 254.447 281.667 253.896C281.604 253.867 281.542 253.839 281.48 253.81C280.337 253.284 279.315 252.813 278.035 252.855L278.035 252.855C277.799 252.863 277.533 252.852 277.291 252.842C277.155 252.836 277.028 252.831 276.917 252.83C276.571 252.825 276.256 252.847 275.943 252.945C275.339 253.135 274.607 253.654 273.739 255.205C272.332 257.72 272.619 259.565 272.992 261.183C273.168 261.948 273.576 262.515 274.048 262.975L278.37 266.863ZM278.37 266.863C277.663 266.158 276.919 265.516 276.188 264.889M278.37 266.863L276.188 264.889M276.188 264.889C276.159 264.864 276.131 264.84 276.102 264.815M276.188 264.889L276.102 264.815M276.102 264.815C275.397 264.21 274.705 263.617 274.048 262.975L276.102 264.815Z" stroke="white" stroke-opacity="0.41"/>
    <path d="M33.3168 161.798C32.0497 159.758 29.7261 158.522 27.9254 156.506C26.6738 155.105 26.9777 152.291 28.7185 148.742C29.263 147.632 29.9366 146.544 30.4345 145.434C31.9701 142.01 33.5743 138.175 36.3701 137.24C39.0023 136.359 40.5956 137.761 41.2376 140.464C41.4502 141.36 41.6551 142.332 41.5531 143.479C41.1444 148.069 41.5048 151.923 42.6634 155.078C43.0562 156.147 43.6066 157.396 42.3795 159.399C41.1186 161.456 39.5177 162.366 38.2606 162.403C36.6701 162.449 34.9332 162.791 33.3168 161.798Z" fill="#181717"/>
    <path d="M29.1674 148.962L29.1674 148.962C29.3959 148.497 29.6474 148.035 29.9047 147.563C29.9474 147.484 29.9903 147.406 30.0333 147.327C30.3322 146.777 30.6332 146.212 30.8907 145.638C30.9584 145.487 31.0261 145.336 31.0938 145.184C31.8005 143.604 32.5142 142.008 33.3534 140.669C34.2761 139.197 35.2973 138.126 36.5287 137.714L36.5288 137.714C37.7343 137.31 38.6138 137.452 39.2591 137.914C39.9283 138.394 40.4439 139.286 40.7511 140.58L40.7511 140.58C40.9619 141.467 41.1495 142.373 41.0551 143.434C40.6423 148.071 41.0021 152.004 42.194 155.25C42.2102 155.294 42.2263 155.337 42.2423 155.381C42.4292 155.886 42.6029 156.356 42.6295 156.912C42.6574 157.496 42.5213 158.21 41.9531 159.138C40.7488 161.103 39.2816 161.873 38.2461 161.903C37.929 161.912 37.6271 161.931 37.3314 161.949C36.8245 161.981 36.3355 162.011 35.8181 161.99C35.0719 161.961 34.3579 161.823 33.6752 161.429C33.0015 160.386 32.0795 159.553 31.1441 158.761C30.9837 158.626 30.823 158.491 30.6626 158.357C29.8407 157.67 29.0266 156.989 28.2983 156.173C27.8031 155.619 27.5676 154.73 27.6971 153.481C27.8261 152.238 28.3122 150.706 29.1674 148.962ZM28.7186 148.742L28.7185 148.742L28.7186 148.742Z" stroke="white" stroke-opacity="0.41"/>
    <path d="M316.473 26.9569C315.294 26.2999 314.188 25.4546 315.274 22.4689C316.383 19.4165 318.105 16.6811 320.43 14.9111C322.583 13.2714 324.095 13.1938 324.732 15.1524C325.375 17.1288 325.79 19.3455 325.571 22.0832C325.356 24.7681 323.727 27.0561 321.77 27.4439C319.778 27.8385 317.937 27.7951 316.473 26.9569Z" fill="#181717"/>
    <path d="M316.721 26.5229L316.721 26.5229L316.716 26.5201C316.134 26.1957 315.7 25.8887 315.483 25.3878C315.268 24.8906 315.22 24.0797 315.744 22.6397C316.832 19.6455 318.507 17.0032 320.732 15.3089C321.795 14.5003 322.592 14.1669 323.136 14.1822C323.385 14.1892 323.584 14.2692 323.756 14.4267C323.938 14.5926 324.114 14.8691 324.256 15.307L324.256 15.3071C324.883 17.2336 325.285 19.3835 325.072 22.0434C324.972 23.2999 324.54 24.4561 323.916 25.3355C323.289 26.2186 322.492 26.7909 321.672 26.9534L321.77 27.4439L321.672 26.9534C319.73 27.3382 318.033 27.2739 316.721 26.5229Z" stroke="white" stroke-opacity="0.41"/>
    <path d="M25.2115 117.844C25.4028 118.209 25.8632 118.812 26.1216 119.641C26.6163 121.229 26.8425 123.203 25.2507 125.871C23.8126 128.282 22.1381 128.911 20.7511 128.984C19.0183 129.075 17.2184 129.247 15.7413 128.805C13.9966 128.284 14.4539 125.725 16.5502 122.818C19.5607 118.644 23.0835 116.469 25.2115 117.844Z" fill="#181717"/>
    <path d="M20.7248 128.485L20.7248 128.485C21.9438 128.42 23.4678 127.884 24.8213 125.615C25.5827 124.339 25.8963 123.252 25.9701 122.312C26.0441 121.371 25.8801 120.547 25.6443 119.79L20.7248 128.485ZM20.7248 128.485C20.5248 128.495 20.326 128.506 20.1287 128.518C18.5681 128.607 17.1024 128.69 15.8845 128.326L15.8845 128.326M20.7248 128.485L15.8845 128.326M15.8845 128.326C15.5743 128.234 15.3936 128.066 15.2888 127.845C15.1757 127.606 15.1295 127.255 15.2 126.779C15.3416 125.824 15.9295 124.533 16.9557 123.111C18.4358 121.058 20.021 119.528 21.4648 118.681C22.865 117.86 24.0158 117.738 24.8377 118.202M15.8845 128.326L24.8377 118.202M24.8377 118.202C24.8934 118.299 24.9543 118.398 25.0177 118.502C25.2317 118.85 25.4744 119.245 25.6442 119.79L24.8377 118.202Z" stroke="white" stroke-opacity="0.41"/>
    <path d="M327.361 482.263C325.782 481.202 324.325 480.94 325.622 477.96C326.882 475.067 328.613 473.817 330.432 473.291C332.63 472.656 334.122 473.319 334.997 475.064C335.418 475.904 335.441 477.326 334.633 479.006C333.748 480.846 332.459 481.537 331.454 481.861C329.672 482.435 327.972 482.695 327.361 482.263Z" fill="#181717"/>
    <path d="M327.649 481.855L327.649 481.854L327.64 481.848C327.432 481.708 327.228 481.583 327.039 481.468C327.013 481.453 326.988 481.437 326.963 481.422C326.801 481.324 326.653 481.234 326.514 481.143C326.189 480.932 325.966 480.749 325.823 480.545C325.579 480.196 325.451 479.606 326.081 478.16C327.285 475.393 328.905 474.253 330.571 473.771C331.599 473.474 332.401 473.498 333.024 473.749C333.642 473.997 334.153 474.496 334.55 475.288L334.55 475.288C334.88 475.946 334.948 477.198 334.183 478.789C333.371 480.477 332.209 481.092 331.301 481.385L331.301 481.385C330.429 481.666 329.592 481.865 328.912 481.943C328.571 481.982 328.283 481.988 328.058 481.966C327.823 481.942 327.701 481.891 327.649 481.855Z" stroke="white" stroke-opacity="0.41"/>
    <mask id="path-36-inside-2_46_1219" fill="white">
    <path d="M64.5319 497.127C58.586 502.602 54.2617 501.743 54.4433 495.57C54.5066 493.413 55.8892 492.378 56.773 492.489C59.0085 492.77 61.641 492.354 62.854 494.631C63.2934 495.455 63.8522 496.128 64.5319 497.127Z"/>
    </mask>
    <path d="M64.5319 497.127C58.586 502.602 54.2617 501.743 54.4433 495.57C54.5066 493.413 55.8892 492.378 56.773 492.489C59.0085 492.77 61.641 492.354 62.854 494.631C63.2934 495.455 63.8522 496.128 64.5319 497.127Z" fill="#181717"/>
    <path d="M64.5319 497.127L65.2093 497.863L65.8441 497.278L65.3588 496.565L64.5319 497.127ZM54.4433 495.57L55.4428 495.599L55.4428 495.599L54.4433 495.57ZM56.773 492.489L56.8981 491.496L56.8978 491.496L56.773 492.489ZM62.854 494.631L63.7365 494.16L63.7365 494.16L62.854 494.631ZM63.8546 496.391C62.4169 497.715 61.1133 498.622 59.9898 499.16C58.857 499.702 57.9804 499.835 57.3551 499.73C56.7767 499.633 56.3196 499.32 55.9839 498.707C55.6276 498.057 55.4004 497.043 55.4428 495.599L53.4437 495.54C53.3954 497.184 53.6406 498.592 54.2298 499.668C54.8397 500.781 55.8012 501.498 57.0245 501.703C58.2007 501.9 59.5087 501.607 60.8534 500.964C62.2073 500.315 63.674 499.276 65.2093 497.863L63.8546 496.391ZM55.4428 495.599C55.4683 494.734 55.7534 494.17 56.0431 493.848C56.1908 493.685 56.3383 493.585 56.4568 493.531C56.5156 493.505 56.5634 493.491 56.5977 493.485C56.6323 493.479 56.6487 493.481 56.6483 493.481L56.8978 491.496C56.0362 491.388 55.1676 491.833 54.5579 492.509C53.9195 493.217 53.4816 494.249 53.4437 495.54L55.4428 495.599ZM56.648 493.481C57.2475 493.556 57.8775 493.585 58.4334 493.62C59.0107 493.656 59.5291 493.699 60.0026 493.793C60.9149 493.973 61.5542 494.318 61.9714 495.101L63.7365 494.16C62.9408 492.667 61.6573 492.082 60.3912 491.831C59.7756 491.709 59.1409 491.66 58.5579 491.624C57.9537 491.586 57.4163 491.562 56.8981 491.496L56.648 493.481ZM61.9714 495.101C62.4429 495.986 63.094 496.791 63.705 497.689L65.3588 496.565C64.6104 495.464 64.144 494.925 63.7365 494.16L61.9714 495.101Z" fill="white" fill-opacity="0.41" mask="url(#path-36-inside-2_46_1219)"/>
    <path d="M137.184 628.74C136.381 630.03 135.622 630.532 135.113 630.083C134.906 629.901 134.902 629.014 135.127 628.617C135.749 627.518 136.6 626.669 137.277 626.809C137.856 626.928 137.579 627.848 137.184 628.74Z" fill="#181717"/>
    <path d="M136.741 628.506C136.929 628.077 137.064 627.693 137.1 627.42C137.107 627.366 137.109 627.324 137.108 627.295C136.99 627.302 136.791 627.376 136.512 627.623C136.191 627.907 135.855 628.345 135.562 628.863L136.741 628.506ZM136.741 628.506C136.361 629.111 136.024 629.476 135.765 629.645C135.638 629.728 135.559 629.743 135.525 629.744C135.514 629.744 135.502 629.744 135.487 629.738C135.486 629.733 135.485 629.728 135.484 629.723C135.468 629.654 135.457 629.553 135.458 629.433C135.459 629.174 135.511 628.953 135.562 628.863L136.741 628.506Z" stroke="white" stroke-opacity="0.41"/>
    </g>
    </g>
    <rect x="0.5" y="0.5" width="357" height="628" stroke="white"/>
    <defs>
    <clipPath id="clip0_46_1219">
    <rect width="358" height="629" fill="white"/>
    </clipPath>
    <clipPath id="clip1_46_1219">
    <rect width="806.305" height="1558.74" fill="white" transform="translate(366.254 -926.099) rotate(30)"/>
    </clipPath>
    </defs>
</svg>