<svg preserveAspectRatio="none" width="358" height="629" viewBox="0 0 358 629" fill="none" xmlns="http://www.w3.org/2000/svg">
    <g clip-path="url(#clip0_46_2407)">
    <rect width="358" height="629" fill="#171616"/>
    <path d="M154.774 156.349L198.941 211.092L141.357 170.691L140.653 170.197L140.982 170.991L167.926 235.97L124.07 180.976L123.534 180.304L123.626 181.159L131.163 251.109L104.589 185.978L104.264 185.182L104.112 186.028L91.6317 255.282L84.4923 185.291L84.405 184.435L84.0201 185.204L52.534 248.151L65.4072 178.97L65.5647 178.124L64.9784 178.754L17.0375 230.294L48.8802 167.528L49.2698 166.76L48.5295 167.2L-11.9824 203.159L36.2502 151.891L36.8403 151.264L36.0061 151.478L-32.1746 168.942L28.5405 133.327L29.2831 132.891L28.4227 132.861L-41.9034 130.416L26.3757 113.339L27.2105 113.13L26.3937 112.859L-40.3805 90.7029L29.931 93.5473L30.7905 93.582L30.0835 93.092L-27.7292 53.0187L38.9185 75.5544L39.7331 75.8298L39.1931 75.1606L-4.97423 20.4168L52.61 60.8182L53.3139 61.3121L52.9845 60.5178L26.0409 -4.46123L69.8964 50.5327L70.4326 51.205L70.3404 50.35L62.8035 -19.5999L89.3773 45.531L89.7022 46.3274L89.8548 45.4809L102.335 -23.7728L109.474 46.2184L109.562 47.0745L109.947 46.3049L141.433 -16.6419L128.559 52.5392L128.402 53.3856L128.988 52.7552L176.929 1.21461L145.086 63.9815L144.697 64.7494L145.437 64.3095L205.949 28.3504L157.716 79.618L157.126 80.2452L157.961 80.0315L226.141 62.567L165.426 98.1822L164.684 98.6177L165.544 98.6476L235.87 101.093L167.591 118.17L166.756 118.379L167.573 118.65L234.347 140.806L164.036 137.962L163.176 137.927L163.883 138.417L221.696 178.49L155.048 155.955L154.234 155.679L154.774 156.349Z" fill="#E2B63F" stroke="white" stroke-width="0.5"/>
    <g clip-path="url(#clip1_46_2407)">
    <mask id="path-5-inside-1_46_2407" fill="white">
    <path d="M405.196 163.632C402.62 161.102 399.615 158.42 396.92 155.435C393.386 151.52 388.555 149.09 384.12 146.249C380.516 143.94 377.567 141.019 374.488 138.194C372.997 136.825 372.776 134.565 372.874 132.22C373.151 125.602 371.029 121.111 365.231 119.586C360.729 118.402 358.012 115.124 355.188 112.043C352.069 108.642 347.903 106.645 343.172 105.298C341.189 104.734 339.105 104.244 337.486 103.216C333.513 100.694 331.703 96.7329 334.685 89.9022C335.818 87.3069 336.882 84.7087 337.877 82.1193C338.942 79.3507 338.747 77.0428 336.95 76.0829C334.893 74.9847 331.958 75.9305 329.175 78.3301C326.852 80.333 324.434 82.5148 322.614 84.8937C318.634 90.0939 314.173 92.3425 309.605 92.6291C305.715 92.873 301.933 94.4783 297.96 97.0136C293.817 99.6577 289.642 101.805 285.419 103.432C276.981 106.682 270.526 112.665 265.533 120.99C258.789 132.233 253.946 135.522 243.421 136.188C240.852 136.35 238.291 136.408 235.942 136.114C231.155 135.515 226.129 137.058 220.518 140.359C207.774 147.857 195.222 155.902 183.185 165.564C179.588 168.452 175.952 170.621 172.185 171.949C166.911 173.809 163.866 172.893 163.396 168.479C162.218 157.413 156.062 151.248 146.135 148.678C141.622 147.51 138.373 144.887 135.638 141.685C133.246 138.886 129.891 137.759 125.179 138.554C119.085 139.583 113.711 138.955 108.46 138.187C102.933 137.378 98.6855 135.075 96.5294 130.047C94.8111 126.039 91.1173 124.151 84.9479 126.401C78.0519 128.917 72.3793 127.618 65.7318 129.234C57.5391 131.225 49.4607 132.716 41.3424 134.388C35.3332 135.625 29.3576 138.316 23.3566 142.577C19.0563 145.63 14.6562 148.271 10.1818 149.786C3.38804 152.087 -2.47121 152.536 -5.80714 148.121C-6.86425 146.722 -8.39047 145.743 -9.38574 144.295C-11.8069 140.772 -15.3651 139.076 -20.9367 140.062C-27.0278 141.14 -29.0297 136.969 -31.4114 133.551C-32.5057 131.981 -33.4425 130.244 -34.6231 128.72C-36.4583 126.351 -39.1133 125.391 -43.1702 126.691C-48.9197 128.533 -52.8817 127.067 -56.1692 124.642C-60.2392 121.641 -65.232 120.292 -71.5633 121.099C-80.4076 122.226 -88.7022 122.118 -96.6197 121.164C-100.451 120.703 -104.387 121.091 -109.132 123.483C-114.318 126.098 -115.894 124.405 -113.537 119.165C-112.49 116.838 -110.974 114.488 -109.501 112.197C-107.569 109.195 -105.775 106.213 -104.604 103.115C-102.455 97.4259 -103.024 93.8483 -107.272 92.3519C-113.335 90.2156 -117.137 85.6488 -121.442 81.5917C-122.931 80.1892 -122.948 77.8995 -123.282 75.7607C-124.247 69.5804 -127.286 68.591 -134.448 72.438C-138.663 74.7017 -142.8 76.747 -147.006 77.9683C-148.789 78.4856 -150.886 79.4455 -152.542 80.7676C-162.388 88.628 -172.077 96.5575 -177.317 108.241C-180.621 115.608 -184.018 118.425 -191.09 120.406C-195.051 121.516 -198.963 123.265 -202.958 125.231C-208.844 128.127 -210.409 127.577 -213.114 123.943C-216.229 119.756 -221.827 118.729 -227.294 117.67C-232.226 116.714 -237.415 116.198 -242.372 115.284C-249.282 114.01 -254.722 110.703 -260.093 107.328C-261.93 106.174 -264.127 105.595 -266.754 105.84C-272.174 106.344 -277.626 106.923 -283.133 107.677C-288.617 108.428 -293.471 111.952 -296.979 117.543C-299.804 122.045 -303.168 125.163 -307.596 127.749C-313.842 131.397 -316.19 134.634 -316.588 140.513C-317.04 147.206 -317.481 153.978 -313.718 158.328C-312.704 159.501 -312.043 161.034 -311.396 162.533C-309.898 166.008 -310.936 167.769 -315.621 169.408C-317.831 170.18 -319.896 170.841 -321.224 173.367C-322.393 175.593 -321.451 176.841 -320.359 177.696C-315.643 181.386 -313.059 187.101 -308.689 191.121C-303.142 196.225 -300.541 203.926 -295.908 209.861C-283.72 225.471 -271.896 241.419 -251.602 248.384C-249.168 249.22 -246.96 250.447 -244.963 251.858C-240.411 255.072 -234.544 256.132 -228.099 256.292C-223.243 256.414 -218.115 255.179 -212.554 252.282C-207.897 249.857 -203.209 247.696 -198.535 245.583C-191.66 242.475 -185.015 238.524 -178.77 233.046C-175.977 230.596 -173.142 228.393 -170.035 227.171C-162.725 224.298 -159.079 229.236 -163.282 236.506C-164.742 239.032 -166.779 241.463 -168.618 243.906C-176.948 254.974 -179.662 271.226 -174.115 278.012C-171.677 280.993 -169.15 283.946 -166.121 286.309C-159.018 291.852 -148.835 291.745 -137.433 289.042C-134.727 288.401 -131.852 286.929 -129.121 284.793C-121.436 278.786 -115.895 279.507 -111.471 282.647C-108.908 284.466 -106.341 286.597 -105.125 289.575C-103.166 294.371 -98.7737 295.966 -93.9188 297.002C-85.4463 298.809 -78.9817 303.521 -70.297 305.041C-66.7484 305.662 -66.6679 309.601 -67.068 313.462C-67.7791 320.325 -67.6848 326.759 -65.806 332.326C-63.4435 339.325 -59.8623 340.774 -50.6185 336.593C-42.4766 332.91 -37.0276 333.396 -34.6947 339.239C-32.5765 344.543 -27.6049 346.241 -22.1965 347.475C-12.8902 349.599 -5.57815 354.132 -0.462029 361.21C2.09857 364.752 4.07155 368.835 6.04243 372.881C6.68515 374.201 7.43809 375.354 8.40183 376.362C12.0292 380.155 15.141 384.308 16.2905 390.204C17.1199 394.458 20.1808 396.509 25.4151 395.631C26.083 395.519 26.7207 395.504 27.3821 395.415C38.5843 393.91 39.2352 396.891 38.453 405.202C38.1843 408.056 38.5073 410.638 39.8193 412.616C42.3454 416.424 44.7175 420.368 47.348 424.083C49.9162 427.71 54.5613 428.395 59.6787 428.383C66.3853 428.367 72.8629 428.653 77.3183 432.474C80.2312 434.973 82.0617 438.076 81.5268 442.939C80.5231 452.065 83.1142 458.94 86.8364 465.052C89.0667 468.714 92.2453 471.437 96.7152 472.695C104.554 474.901 107.459 480.63 104.584 491.029C102.223 499.565 103.749 502.168 111.684 501.357C119.741 500.533 122.424 504.658 123.33 511.12C123.413 511.71 123.458 512.326 123.455 512.959C123.396 526.688 132.265 531.432 143.702 533.653C146.164 534.131 148.786 533.362 151.647 531.816C153.271 530.939 154.882 529.953 156.494 528.993C162.755 525.263 167.891 524.3 171.995 527.202C173.69 528.401 175.579 529.427 177.239 530.703C181.991 534.358 188.183 534.089 196.177 528.844C197.544 527.946 198.948 527.11 200.257 526.088C208.863 519.368 217.776 513.647 226.801 508.359C233.079 504.681 239.078 500.518 244.821 495.405C253.849 487.368 263.17 479.805 269.771 469.386C273.758 463.092 279.438 459.16 285.771 461.978C296.754 466.865 310.388 466.676 323.025 468.398C327.846 469.055 331.862 470.615 334.716 473.739C337.734 477.043 341.634 479.028 346.802 479.457C351.239 479.826 355.014 481.291 358.792 482.722C363.387 484.461 368.41 485.022 375.018 481.777C379.534 479.559 383.36 479.546 385.977 481.54C389.346 484.106 393.406 485.729 397.195 487.729C399.378 488.881 401.398 490.567 402.39 492.836C403.787 496.034 406.57 497.701 409.647 498.577C415.581 500.268 421.036 502.827 427.962 502.909C431.424 502.95 433.794 504.138 434.952 507.097C437.539 513.703 442.967 517.715 447.577 522.44C451.054 526.003 456.71 526.355 463.149 524.214C471.738 521.357 478.65 521.488 484.102 524.993C486.067 526.257 488.731 526.438 491.289 526.717C497.069 527.348 500.358 530.309 500.634 536.435C500.754 539.1 501.354 541.533 501.791 544.039C502.787 549.748 501.199 552.626 494.229 555.874C485.059 560.146 478.336 567.336 472.126 575.482C467.177 581.973 465.567 588.031 466.235 593.71C466.841 598.869 467.851 603.792 468.13 609.15C468.423 614.764 472.023 616.523 478.221 615.145C479.583 614.842 480.95 614.54 482.332 614.135C488.277 612.392 492.801 613.083 495.188 617.064C497.741 621.322 501.397 624.594 503.499 629.256C505.932 634.649 503.896 642.018 503.514 648.643C503.386 650.847 501.302 652.645 498.959 653.92C488.287 659.728 480.315 668.439 473.587 678.682C470.858 682.837 467.159 686.413 463.299 689.812C456.842 695.496 451.269 701.739 448.016 709.213C443.958 718.534 436.837 726.545 429.523 734.434C426.641 737.543 423.681 740.623 420.592 743.515C411.738 751.808 404.537 760.881 399.379 771.031C398.292 773.169 396.86 775.195 395.135 777.118C389.154 783.787 385.23 791.016 381.609 798.349C378.355 804.937 375.099 811.531 371.601 818.094C368.59 823.743 365.18 829.308 359.515 833.661C356.896 835.674 355.698 837.958 356.75 839.844C358.329 842.674 360.196 845.354 364.586 844.774C368.966 844.195 373.008 844.674 377.869 842.659C379.18 842.116 380.59 842.116 381.718 842.291C383.908 842.631 384.749 844.225 383.503 846.984C382.428 849.362 380.355 851.01 378.134 851.408C372.995 852.331 367.753 853.444 362.874 853.686C359.334 853.862 355.871 854.339 352.1 856.503C346.957 859.456 342.877 859.57 339.426 858.047C335.227 856.194 330.992 854.683 324.776 856.616C322.551 857.308 320.737 856.502 319.145 855.587C317.118 854.423 314.847 853.418 311.325 856.372C307.835 859.298 306.93 862.171 307.113 865.457C307.467 871.821 305.888 873.768 298.639 876.748C294.656 878.385 290.784 879.633 287.009 879.928C283.19 880.226 280.286 879.557 278.108 877.264C273.511 872.421 272.253 872.695 263.267 879.202C255.164 885.07 247.641 888.067 240.828 886.022C238.959 885.461 237.536 884.567 236.561 883.057C234.132 879.291 225.816 878.741 220.205 881.784C216.911 883.571 215.207 886.335 214.068 889.14C211.505 895.454 209.783 901.714 206.163 908.096C205.308 909.603 205.271 911.331 205.128 912.857C204.586 918.643 205.917 919.063 211.644 914.322C215.789 910.89 219.359 909.568 222.774 910.479C225.878 911.308 229.113 911.974 231.913 913.222C234.218 914.249 236.735 915.788 235.592 919.359C234.179 923.774 232.559 928.136 232.283 932.313C232.176 933.943 230.733 935.33 228.781 936.356C222.814 939.494 216.341 939.128 214.34 934.813C213.245 932.453 211.825 930.534 209.798 929.105C206.307 926.646 202.762 925.55 196.336 931.215C191.85 935.169 187.245 934.805 183.065 934.76C181.415 934.742 179.987 934.19 178.287 934.341C175.501 934.589 172.817 935.897 170.762 939.279C169.64 941.125 168.185 942.909 167.166 944.761C164.496 949.619 160.497 952.413 156.172 953.778C151.327 955.308 146.505 956.705 141.629 958.383C138.269 959.54 135.503 958.968 133.154 957.99C124.325 954.316 114.298 958.461 104.073 967.827C96.9105 974.388 89.1631 979.392 81.7971 985.32C78.0027 988.375 74.3992 989.625 70.9726 989.531C66.7719 989.417 62.5148 989.976 57.6336 992.18C51.0006 995.174 47.6073 992.763 45.6963 988.468C44.9642 986.822 44.6994 984.813 44.3462 982.897C43.5559 978.604 41.9152 975.027 38.8424 972.546C32.9411 967.783 30.2969 960.082 25.5563 954.258C23.4629 951.687 23.8768 947.51 25.7151 943.15C29.2738 934.71 27.1234 930.204 21.2361 928.263C18.1355 927.241 17.4291 924.227 16.366 921.548C14.2296 916.166 10.5906 912.879 3.60243 913.138C-2.11116 913.349 -6.25706 910.819 -8.4131 906.685C-10.5275 902.632 -14.1968 900.739 -18.3167 899.258C-22.6025 897.716 -25.579 895.086 -27.1594 890.743C-28.7364 886.408 -31.214 882.75 -34.3872 879.738C-36.7922 877.454 -38.9197 874.968 -40.3697 871.757C-41.7122 868.783 -43.9328 866.338 -47.1121 865.262C-50.756 864.029 -53.0115 861.442 -55.3342 858.833C-57.187 856.751 -58.8089 854.372 -62.2518 854.148C-69.8498 853.653 -74.9337 850.257 -77.8829 844.117C-79.9063 839.904 -82.607 836.214 -84.9984 832.284C-85.3679 831.677 -85.9047 831.154 -86.0094 830.394C-86.2207 828.859 -86.9453 827.218 -85.2473 825.301C-83.0023 822.766 -81.0704 823.664 -79.7587 824.305C-73.7677 827.235 -67.3774 829.485 -60.0127 830.331C-57.1668 830.658 -56.0017 832.989 -54.6781 835.149C-50.6078 841.793 -46.5714 848.48 -39.1608 851.901C-36.4867 853.135 -33.5437 853.793 -30.2331 853.851C-24.7941 853.945 -19.7961 854.644 -15.8935 857.282C-10.2386 861.105 -2.15707 858.658 6.20366 854.977C10.6314 853.027 15.0881 850.683 19.4954 848.244C33.6404 840.417 44.5664 825.97 45.0802 813.009C45.614 799.541 44.77 786.662 37.0065 778.205C34.3434 775.304 33.7771 770.919 33.5097 766.389C33.3767 764.137 33.4864 761.761 33.2929 759.542C32.6472 752.138 29.8107 749.795 21.3319 752.455C14.4756 754.606 12.289 749.881 14.0972 744.442C16.4259 737.438 18.9339 730.41 21.2458 723.408C21.9222 721.359 23.2297 719.711 24.8607 718.084C26.6803 716.269 28.6388 714.88 30.7463 713.536C41.0081 706.993 40.9606 706.961 44.8344 714.216C47.0642 718.392 51.4149 719.275 57.4424 717.378C61.1392 716.214 64.8489 714.967 68.5522 713.763C72.3516 712.528 75.8153 712.821 76.4432 715.681C78.6484 725.727 87.5601 728.287 95.477 732.077C98.3865 733.47 100.911 735.384 103.488 737.202C105.681 738.748 107.582 740.8 107.195 744.207C106.043 754.366 111.719 759.127 118.211 762.333C127.062 766.705 133.664 773.301 140.345 779.914C147.056 786.556 155.691 790.928 163.805 795.917C165.146 796.742 166.658 797.546 168.444 797.616C178.051 797.993 185.066 802.105 192.744 805.407C202.034 809.401 211.82 812.782 223.288 813.529C230.339 813.988 236.705 815.82 243.458 816.897C252.236 818.297 262.132 814.967 272.361 809.353C284.833 802.507 290.786 791.105 286.195 782.703C282.514 775.967 278.308 769.626 272.649 764.681C268.336 760.912 265.497 756.279 265.552 749.116C265.61 741.442 261.445 737.207 254.644 735.886C250.915 735.162 248.03 733.601 245.803 731.079C242.61 727.461 238.335 725.358 232.343 725.648C229.004 725.809 226.706 724.524 224.933 722.491C219.531 716.298 211.668 714.01 201.069 715.857C196.289 716.69 192.294 715.836 189.52 713.276C185.621 709.677 180.213 708.637 173.508 709.887C168.569 710.808 165.506 709.595 164.417 705.495C163.188 700.864 160.643 697.312 157.822 693.939C155.467 691.124 154.269 687.417 154.4 682.778C154.566 676.933 153.318 672.192 148.606 669.733C145.198 667.955 145.001 663.289 144.813 658.948C144.48 651.229 141.515 645.605 135.938 642.123C132.95 640.256 129.556 638.931 125.809 638.06C116.932 635.996 113.321 626.062 117.079 614.887C120.515 604.669 118.657 597.927 109.664 596.794C99.5817 595.525 91.897 590.571 81.5429 589.854C78.2477 589.626 75.9683 588.023 73.8722 586.095C70.4233 582.923 66.2913 580.221 63.4303 576.714C58.6234 570.82 51.775 567.336 46.5275 562.059C44.0067 559.524 43.8149 557.927 47.4842 552.578C53.0332 544.489 53.9068 538.242 50.2836 533.282C49.8769 532.725 49.9727 531.674 49.4624 531.261C47.4855 529.662 46.8018 527.043 46.1788 524.471C44.7305 518.493 41.107 514.661 36.0782 512.067C32.7984 510.375 31.1799 507.65 34.0909 502.146C38.2591 494.263 36.2497 489.865 31.4866 487.195C21.2338 481.447 10.2584 476.72 -2.52854 474.624C-9.38543 473.5 -15.3336 471.277 -18.8199 465.865C-19.4863 464.831 -20.5697 464.158 -21.3964 463.256C-24.6072 459.752 -29.3135 460.096 -35.6008 463.72C-44.1118 468.627 -45.9318 468.605 -48.1979 462.044C-50.6736 454.876 -56.4668 451.261 -62.4879 447.862C-66.3325 445.691 -69.9503 443.49 -72.6747 439.967C-76.7349 434.716 -81.6746 430.241 -87.8415 427.165C-94.7719 423.707 -100.612 419.018 -105.877 413.666C-109.184 410.305 -112.767 407.222 -116.197 403.985C-118.225 402.072 -119.968 399.971 -121.141 397.208C-123.582 391.462 -127.995 387.647 -132.942 384.138C-139.654 379.378 -146.017 374.214 -153.043 369.795C-155.263 368.399 -157.212 366.473 -158.411 364.102C-159.985 360.991 -162.325 358.702 -164.704 356.409C-166.199 354.968 -167.697 353.577 -169.717 352.638C-172.484 351.351 -174.572 349.143 -176.012 346.422C-178.179 342.328 -180.917 338.921 -184.505 336.039C-192.123 329.918 -199.047 323.027 -204.746 314.922C-207.986 310.313 -212.288 306.601 -217.712 304.393C-223.36 302.093 -226.217 297.149 -228.935 292.218C-231.901 286.837 -236.691 283.796 -242.506 281.858C-252.23 278.616 -258.932 272.14 -264.177 264.08C-266.129 261.081 -268.443 258.362 -271.42 256.559C-277.974 252.59 -281.807 246.458 -283.446 238.349C-284.501 233.129 -288.507 230.787 -292.706 228.841C-298.915 225.963 -305.718 223.908 -312.976 222.582C-314.898 222.231 -316.85 221.995 -319.263 222.779C-324.299 224.414 -327.801 228.16 -329.264 233.255C-330.727 238.354 -328.996 241.598 -326.927 244.331C-323.549 248.793 -320.766 253.824 -316.396 257.382C-312.394 260.64 -310.789 265.937 -308.88 270.897C-307.572 274.296 -309.408 276.837 -313.982 279.709C-318.361 282.459 -321.996 282.633 -324.973 281.573C-332.325 278.955 -338.447 274.799 -342.558 268.524C-347.246 261.368 -353.418 255.812 -360.471 251.079C-364.404 248.44 -368.304 245.754 -372.03 242.854C-382.632 234.602 -391.614 224.535 -404.021 218.297C-406.615 216.993 -408.387 214.752 -409.944 212.398C-414.842 204.997 -421.034 198.955 -428.477 194.137C-430.535 192.805 -432.456 191.094 -433.518 188.848C-434.861 186.008 -436.916 183.894 -438.959 181.789C-444.059 176.536 -448.72 170.904 -452.392 164.354C-452.479 164.199 -452.606 164.073 -452.74 163.962C-461.901 156.334 -467.23 144.995 -476.526 137.476C-479.527 135.049 -482.812 132.995 -486.215 131.088C-493.746 126.867 -499.545 120.973 -504.121 113.704C-507.033 109.077 -510.699 105.069 -514.355 101.104C-517.092 98.1367 -519.041 94.5115 -521.254 91.1145C-526.468 83.1132 -532.047 75.46 -539.046 69.1441C-542.79 65.7655 -547.568 63.5498 -551.068 59.8398C-553.239 57.5385 -554.126 54.1653 -556.679 52.2334C-563.771 46.8651 -570.251 40.799 -578.651 36.9351C-583.259 34.8153 -587.314 32.0476 -590.683 28.4503C-605.501 12.6256 -621.815 -1.69029 -636.816 -17.3174C-643.894 -24.691 -651.366 -31.839 -656.404 -41.1754C-660.026 -47.8879 -658.89 -52.0372 -650.513 -60.1941C-643.965 -66.5706 -638.886 -73.0872 -636.351 -80.7995C-635.425 -83.6162 -633.482 -86.3387 -631.26 -89.0213C-624.977 -96.6075 -623.524 -103.297 -626.176 -108.974C-627.627 -112.078 -629.257 -115.046 -630.808 -118.074C-631.337 -119.107 -631.483 -120.322 -629.983 -121.761C-628.546 -123.141 -627.167 -123.096 -626.198 -122.62C-625.081 -122.07 -624.285 -121.103 -623.292 -120.384C-614.316 -113.88 -606.772 -105.873 -598.934 -98.1783C-596.565 -95.8526 -593.517 -94.3948 -589.033 -96.3222C-578.603 -100.806 -572.858 -97.0693 -566.919 -93.4818C-559.756 -89.1554 -554.495 -82.7859 -548.184 -77.5457C-546.717 -76.328 -545.544 -74.8611 -543.411 -74.3173C-538.215 -72.9921 -533.539 -74.8262 -528.093 -80.7539C-523.021 -86.2746 -521.813 -90.7514 -524.434 -95.128C-528.16 -101.351 -533.076 -106.534 -536.314 -113.21C-537.452 -115.557 -539.495 -117.405 -542.216 -118.318C-543.077 -118.607 -543.787 -119.149 -544.44 -119.709C-545.544 -120.656 -546.289 -122.003 -545.29 -124.07C-544.233 -126.257 -542.205 -127.2 -540.281 -127.733C-536.606 -128.753 -532.832 -130.061 -529.301 -130.606C-522.254 -131.696 -516.827 -129.73 -511.777 -127.338C-509.697 -126.354 -508.413 -124.434 -508.624 -121.296C-508.797 -118.717 -508.294 -116.239 -506.572 -114.985C-502.931 -112.335 -500.71 -108.647 -499.893 -103.658C-499.217 -99.5228 -495.677 -98.7932 -491.322 -99.2868C-490.45 -99.3855 -489.507 -99.6911 -488.599 -99.8915C-478.843 -102.045 -477.859 -101.444 -478.416 -92.3835C-478.904 -84.4458 -477.302 -79.7947 -465.714 -81.8701C-458.998 -83.0726 -452.194 -84.6958 -445.99 -84.3876C-443.017 -84.2399 -439.594 -85.6996 -436.382 -87.6227C-425.688 -94.0269 -418.153 -92.2568 -412.259 -88.3239C-406.607 -84.5525 -400.573 -83.8871 -391.387 -88.629C-386.833 -90.9795 -382.096 -91.9794 -377.54 -93.1431C-373.541 -94.1643 -372.829 -93.152 -374.848 -89.0338C-378.004 -82.5949 -379.001 -76.9644 -377.917 -71.8273C-377.418 -69.4658 -378.381 -66.6365 -379.597 -63.7586C-385.208 -50.4758 -382.099 -42.5113 -373.668 -38.0184C-370.78 -36.4797 -368.846 -33.9903 -366.366 -32.0557C-360.825 -27.7322 -354.004 -26.3615 -344.272 -30.4955C-339.45 -32.544 -335.158 -32.9034 -331.67 -31.3559C-327.23 -29.3862 -321.989 -29.286 -315.752 -31.158C-313.027 -31.976 -310.333 -32.2517 -307.811 -32.3318C-303.884 -32.4566 -299.859 -33.5605 -295.555 -35.7376C-290.944 -38.0696 -287.7 -37.7881 -285.106 -35.3802C-280.828 -31.41 -277.994 -26.3581 -276.066 -20.4386C-274.772 -16.4653 -274.938 -12.2087 -277.959 -6.90445C-281.583 -0.542342 -281.964 4.4789 -279.466 8.71641C-277.396 12.2271 -276.231 16.5308 -272.925 18.9406C-266.703 23.4761 -264.025 30.8739 -263.811 39.6265C-263.512 51.8328 -257.231 56.9948 -245.682 57.7189C-238.651 58.1596 -232.639 60.5854 -225.164 60.3812C-222.774 60.3158 -220.924 61.7199 -219.13 62.8195C-217.084 64.074 -214.5 64.2636 -211.717 64.1071C-205.867 63.7784 -200.789 60.4586 -196.44 54.3066C-193.834 50.6206 -191.805 46.8591 -190.866 43.1186C-189.287 36.8346 -186.071 30.4362 -183.715 24.1012C-182.12 19.8138 -180.804 19.1248 -176.559 18.3724C-171.326 17.4449 -169.232 20.8187 -166.051 22.5727C-163.154 24.171 -160.862 26.6255 -159.508 29.9747C-157.565 34.7786 -153.705 37.643 -148.826 39.547C-141.676 42.337 -135.219 46.0572 -125.818 45.3211C-119.818 44.8511 -114.877 41.5155 -110.277 35.8688C-108.879 34.1522 -107.755 32.2397 -106.655 30.3862C-105.14 27.8357 -103.843 25.2394 -102.314 22.6926C-99.9294 18.7178 -97.926 17.3582 -94.5574 17.8152C-92.2384 18.13 -90.1211 18.8977 -88.2006 19.8398C-85.6826 21.0749 -82.7864 21.5718 -79.2395 20.3966C-71.7321 17.9089 -66.3796 19.5003 -61.8009 22.2845C-57.8572 24.6825 -53.1586 24.9826 -47.4304 24.2156C-38.5366 23.0248 -32.1759 25.9487 -28.5727 32.3081C-26.8189 35.4033 -25.5944 38.8797 -23.0501 41.3795C-19.3015 45.0625 -14.2648 45.6037 -7.28945 41.7044C-0.69316 38.0167 5.46573 29.7201 6.9377 22.8042C7.5148 20.0929 7.22342 17.6138 7.72027 14.9156C8.19256 12.3507 7.47791 9.47557 10.9007 7.01604C13.8221 4.91681 16.4718 5.28899 18.4651 6.16826C24.1452 8.67378 28.933 12.1751 31.4218 18.045C33.8153 23.6895 31.4965 28.8831 24.0554 34.5277C21.8431 36.2059 19.5813 37.7903 17.4105 39.5428C10.1809 45.3792 7.81325 51.3143 9.92153 57.0518C11.6752 61.8235 15.1185 64.9785 20.4426 65.1997C30.5291 65.6187 33.9052 72.9674 38.958 78.9292C45.218 86.3159 51.9134 93.3467 63.8909 94.1591C74.405 94.8724 95.8163 81.1788 103.78 68.5419C106.426 64.3451 107.649 60.5502 107.55 56.9229C107.425 52.3583 107.354 47.7663 106.354 43.636C105.45 39.899 105.314 35.7426 105.924 31.254C106.816 24.6948 109.646 20.8538 116.373 17.8243C124.076 14.3559 131.791 11.0784 139.474 8.08341C145.369 5.7854 146.205 7.4725 142.633 13.566C140.462 17.2712 137.925 20.9223 135.941 24.6437C129.86 36.0485 131.01 42.5777 139.409 45.4394C141.51 46.1553 143.671 46.7982 145.93 47.265C151.432 48.4026 154.993 51.3658 155.735 57.321C156.279 61.6891 159.363 63.9254 162.748 65.5867C166.979 67.6638 173.838 65.0883 179.657 59.7637C183.917 55.8652 187.194 51.4498 189.984 46.7086C192.583 42.2909 195.418 37.9302 199.153 33.9555C205.81 26.8711 209.458 25.3186 215.481 27.2885C218.302 28.211 220.946 29.4021 223.595 30.5737C229.437 33.1573 236.452 32.2932 244.61 27.8796C250.043 24.9408 255.376 22.8844 260.618 21.7763C265.149 20.8183 269.452 18.003 273.687 14.8361C277.055 12.3182 280.451 9.97282 283.985 8.46505C290.414 5.72213 294.395 7.00316 294.3 12.7957C294.154 21.7452 294.338 30.4392 296.869 37.948C297.546 39.9559 296.887 42.4967 295.554 45.2252C294.522 47.3359 293.564 49.5113 292.993 51.5761C291.583 56.6696 294.924 59.8526 299.987 58.2894C301.813 57.7257 303.736 56.8391 305.583 55.8323C318.359 48.8695 328.967 47.3036 336.829 53.4013C339.606 55.5555 343.639 56.0507 347.902 55.9399C350.239 55.8791 352.77 55.6438 355.353 54.0659C363.378 49.1644 371.385 44.1606 379.35 39.0121C384.795 35.4921 387.397 30.8073 388.288 25.6369C389.295 19.7911 390.189 18.6497 396.022 16.9453C402.131 15.1601 407.653 11.8949 412.563 6.17874C416.555 1.53079 420.809 -1.01973 425.743 -1.89774C429.289 -2.52891 433.103 -4.11037 436.744 -5.02617C449.303 -8.18543 455.066 -5.61245 456.644 4.98683C458.209 15.4961 466.519 18.3377 475.681 20.1588C481.292 21.2743 486.772 22.4849 489.054 27.4587C490.833 31.3355 493.609 34.1458 496.346 37.0768C498.41 39.2865 501.028 40.6942 504.311 41.3497C512.831 43.0504 518.472 47.4836 518.475 57.4916C518.476 60.1544 519.277 62.5963 520.39 64.5866C522.821 68.9327 528.291 68.1041 534.172 62.8321C534.988 62.1011 535.747 61.28 536.493 60.4679C543.513 52.8233 545.022 52.4836 548.882 57.7442C551.826 61.7565 553.476 66.6414 553.652 72.5499C553.894 80.6807 554.86 88.3616 558.645 94.3139C560.078 96.5676 560.499 99.5465 561.097 102.389C561.836 105.909 563.531 108.489 567.281 109.109C571.647 109.832 573.832 112.461 573.6 117.527C573.421 121.416 574.924 124.38 576.572 127.127C577.413 128.531 577.903 130.128 578.053 131.958C578.485 137.208 576.854 139.831 570.688 142.94C566.874 144.864 563.291 147.296 559.82 150.068C555.363 153.627 551.348 154.662 548.078 153.413C543.637 151.715 538.732 151.482 532.683 153.614C531.564 154.008 530.399 154.068 529.439 153.942C523.141 153.121 516.453 154.709 508.839 158.713C504.451 161.021 500.273 160.368 496.645 159.791C490.459 158.806 483.607 159.098 477.777 157.439C473.39 156.191 468.463 157.813 463.456 162.811C460.631 165.631 457.741 167.045 454.686 167.748C450.774 168.649 446.918 170.498 442.896 172.8C431.952 179.063 421.411 181.353 415.184 173.469C412.354 169.885 409.192 166.623 405.196 163.632Z"/>
    </mask>
    <path d="M405.196 163.632C402.62 161.102 399.615 158.42 396.92 155.435C393.386 151.52 388.555 149.09 384.12 146.249C380.516 143.94 377.567 141.019 374.488 138.194C372.997 136.825 372.776 134.565 372.874 132.22C373.151 125.602 371.029 121.111 365.231 119.586C360.729 118.402 358.012 115.124 355.188 112.043C352.069 108.642 347.903 106.645 343.172 105.298C341.189 104.734 339.105 104.244 337.486 103.216C333.513 100.694 331.703 96.7329 334.685 89.9022C335.818 87.3069 336.882 84.7087 337.877 82.1193C338.942 79.3507 338.747 77.0428 336.95 76.0829C334.893 74.9847 331.958 75.9305 329.175 78.3301C326.852 80.333 324.434 82.5148 322.614 84.8937C318.634 90.0939 314.173 92.3425 309.605 92.6291C305.715 92.873 301.933 94.4783 297.96 97.0136C293.817 99.6577 289.642 101.805 285.419 103.432C276.981 106.682 270.526 112.665 265.533 120.99C258.789 132.233 253.946 135.522 243.421 136.188C240.852 136.35 238.291 136.408 235.942 136.114C231.155 135.515 226.129 137.058 220.518 140.359C207.774 147.857 195.222 155.902 183.185 165.564C179.588 168.452 175.952 170.621 172.185 171.949C166.911 173.809 163.866 172.893 163.396 168.479C162.218 157.413 156.062 151.248 146.135 148.678C141.622 147.51 138.373 144.887 135.638 141.685C133.246 138.886 129.891 137.759 125.179 138.554C119.085 139.583 113.711 138.955 108.46 138.187C102.933 137.378 98.6855 135.075 96.5294 130.047C94.8111 126.039 91.1173 124.151 84.9479 126.401C78.0519 128.917 72.3793 127.618 65.7318 129.234C57.5391 131.225 49.4607 132.716 41.3424 134.388C35.3332 135.625 29.3576 138.316 23.3566 142.577C19.0563 145.63 14.6562 148.271 10.1818 149.786C3.38804 152.087 -2.47121 152.536 -5.80714 148.121C-6.86425 146.722 -8.39047 145.743 -9.38574 144.295C-11.8069 140.772 -15.3651 139.076 -20.9367 140.062C-27.0278 141.14 -29.0297 136.969 -31.4114 133.551C-32.5057 131.981 -33.4425 130.244 -34.6231 128.72C-36.4583 126.351 -39.1133 125.391 -43.1702 126.691C-48.9197 128.533 -52.8817 127.067 -56.1692 124.642C-60.2392 121.641 -65.232 120.292 -71.5633 121.099C-80.4076 122.226 -88.7022 122.118 -96.6197 121.164C-100.451 120.703 -104.387 121.091 -109.132 123.483C-114.318 126.098 -115.894 124.405 -113.537 119.165C-112.49 116.838 -110.974 114.488 -109.501 112.197C-107.569 109.195 -105.775 106.213 -104.604 103.115C-102.455 97.4259 -103.024 93.8483 -107.272 92.3519C-113.335 90.2156 -117.137 85.6488 -121.442 81.5917C-122.931 80.1892 -122.948 77.8995 -123.282 75.7607C-124.247 69.5804 -127.286 68.591 -134.448 72.438C-138.663 74.7017 -142.8 76.747 -147.006 77.9683C-148.789 78.4856 -150.886 79.4455 -152.542 80.7676C-162.388 88.628 -172.077 96.5575 -177.317 108.241C-180.621 115.608 -184.018 118.425 -191.09 120.406C-195.051 121.516 -198.963 123.265 -202.958 125.231C-208.844 128.127 -210.409 127.577 -213.114 123.943C-216.229 119.756 -221.827 118.729 -227.294 117.67C-232.226 116.714 -237.415 116.198 -242.372 115.284C-249.282 114.01 -254.722 110.703 -260.093 107.328C-261.93 106.174 -264.127 105.595 -266.754 105.84C-272.174 106.344 -277.626 106.923 -283.133 107.677C-288.617 108.428 -293.471 111.952 -296.979 117.543C-299.804 122.045 -303.168 125.163 -307.596 127.749C-313.842 131.397 -316.19 134.634 -316.588 140.513C-317.04 147.206 -317.481 153.978 -313.718 158.328C-312.704 159.501 -312.043 161.034 -311.396 162.533C-309.898 166.008 -310.936 167.769 -315.621 169.408C-317.831 170.18 -319.896 170.841 -321.224 173.367C-322.393 175.593 -321.451 176.841 -320.359 177.696C-315.643 181.386 -313.059 187.101 -308.689 191.121C-303.142 196.225 -300.541 203.926 -295.908 209.861C-283.72 225.471 -271.896 241.419 -251.602 248.384C-249.168 249.22 -246.96 250.447 -244.963 251.858C-240.411 255.072 -234.544 256.132 -228.099 256.292C-223.243 256.414 -218.115 255.179 -212.554 252.282C-207.897 249.857 -203.209 247.696 -198.535 245.583C-191.66 242.475 -185.015 238.524 -178.77 233.046C-175.977 230.596 -173.142 228.393 -170.035 227.171C-162.725 224.298 -159.079 229.236 -163.282 236.506C-164.742 239.032 -166.779 241.463 -168.618 243.906C-176.948 254.974 -179.662 271.226 -174.115 278.012C-171.677 280.993 -169.15 283.946 -166.121 286.309C-159.018 291.852 -148.835 291.745 -137.433 289.042C-134.727 288.401 -131.852 286.929 -129.121 284.793C-121.436 278.786 -115.895 279.507 -111.471 282.647C-108.908 284.466 -106.341 286.597 -105.125 289.575C-103.166 294.371 -98.7737 295.966 -93.9188 297.002C-85.4463 298.809 -78.9817 303.521 -70.297 305.041C-66.7484 305.662 -66.6679 309.601 -67.068 313.462C-67.7791 320.325 -67.6848 326.759 -65.806 332.326C-63.4435 339.325 -59.8623 340.774 -50.6185 336.593C-42.4766 332.91 -37.0276 333.396 -34.6947 339.239C-32.5765 344.543 -27.6049 346.241 -22.1965 347.475C-12.8902 349.599 -5.57815 354.132 -0.462029 361.21C2.09857 364.752 4.07155 368.835 6.04243 372.881C6.68515 374.201 7.43809 375.354 8.40183 376.362C12.0292 380.155 15.141 384.308 16.2905 390.204C17.1199 394.458 20.1808 396.509 25.4151 395.631C26.083 395.519 26.7207 395.504 27.3821 395.415C38.5843 393.91 39.2352 396.891 38.453 405.202C38.1843 408.056 38.5073 410.638 39.8193 412.616C42.3454 416.424 44.7175 420.368 47.348 424.083C49.9162 427.71 54.5613 428.395 59.6787 428.383C66.3853 428.367 72.8629 428.653 77.3183 432.474C80.2312 434.973 82.0617 438.076 81.5268 442.939C80.5231 452.065 83.1142 458.94 86.8364 465.052C89.0667 468.714 92.2453 471.437 96.7152 472.695C104.554 474.901 107.459 480.63 104.584 491.029C102.223 499.565 103.749 502.168 111.684 501.357C119.741 500.533 122.424 504.658 123.33 511.12C123.413 511.71 123.458 512.326 123.455 512.959C123.396 526.688 132.265 531.432 143.702 533.653C146.164 534.131 148.786 533.362 151.647 531.816C153.271 530.939 154.882 529.953 156.494 528.993C162.755 525.263 167.891 524.3 171.995 527.202C173.69 528.401 175.579 529.427 177.239 530.703C181.991 534.358 188.183 534.089 196.177 528.844C197.544 527.946 198.948 527.11 200.257 526.088C208.863 519.368 217.776 513.647 226.801 508.359C233.079 504.681 239.078 500.518 244.821 495.405C253.849 487.368 263.17 479.805 269.771 469.386C273.758 463.092 279.438 459.16 285.771 461.978C296.754 466.865 310.388 466.676 323.025 468.398C327.846 469.055 331.862 470.615 334.716 473.739C337.734 477.043 341.634 479.028 346.802 479.457C351.239 479.826 355.014 481.291 358.792 482.722C363.387 484.461 368.41 485.022 375.018 481.777C379.534 479.559 383.36 479.546 385.977 481.54C389.346 484.106 393.406 485.729 397.195 487.729C399.378 488.881 401.398 490.567 402.39 492.836C403.787 496.034 406.57 497.701 409.647 498.577C415.581 500.268 421.036 502.827 427.962 502.909C431.424 502.95 433.794 504.138 434.952 507.097C437.539 513.703 442.967 517.715 447.577 522.44C451.054 526.003 456.71 526.355 463.149 524.214C471.738 521.357 478.65 521.488 484.102 524.993C486.067 526.257 488.731 526.438 491.289 526.717C497.069 527.348 500.358 530.309 500.634 536.435C500.754 539.1 501.354 541.533 501.791 544.039C502.787 549.748 501.199 552.626 494.229 555.874C485.059 560.146 478.336 567.336 472.126 575.482C467.177 581.973 465.567 588.031 466.235 593.71C466.841 598.869 467.851 603.792 468.13 609.15C468.423 614.764 472.023 616.523 478.221 615.145C479.583 614.842 480.95 614.54 482.332 614.135C488.277 612.392 492.801 613.083 495.188 617.064C497.741 621.322 501.397 624.594 503.499 629.256C505.932 634.649 503.896 642.018 503.514 648.643C503.386 650.847 501.302 652.645 498.959 653.92C488.287 659.728 480.315 668.439 473.587 678.682C470.858 682.837 467.159 686.413 463.299 689.812C456.842 695.496 451.269 701.739 448.016 709.213C443.958 718.534 436.837 726.545 429.523 734.434C426.641 737.543 423.681 740.623 420.592 743.515C411.738 751.808 404.537 760.881 399.379 771.031C398.292 773.169 396.86 775.195 395.135 777.118C389.154 783.787 385.23 791.016 381.609 798.349C378.355 804.937 375.099 811.531 371.601 818.094C368.59 823.743 365.18 829.308 359.515 833.661C356.896 835.674 355.698 837.958 356.75 839.844C358.329 842.674 360.196 845.354 364.586 844.774C368.966 844.195 373.008 844.674 377.869 842.659C379.18 842.116 380.59 842.116 381.718 842.291C383.908 842.631 384.749 844.225 383.503 846.984C382.428 849.362 380.355 851.01 378.134 851.408C372.995 852.331 367.753 853.444 362.874 853.686C359.334 853.862 355.871 854.339 352.1 856.503C346.957 859.456 342.877 859.57 339.426 858.047C335.227 856.194 330.992 854.683 324.776 856.616C322.551 857.308 320.737 856.502 319.145 855.587C317.118 854.423 314.847 853.418 311.325 856.372C307.835 859.298 306.93 862.171 307.113 865.457C307.467 871.821 305.888 873.768 298.639 876.748C294.656 878.385 290.784 879.633 287.009 879.928C283.19 880.226 280.286 879.557 278.108 877.264C273.511 872.421 272.253 872.695 263.267 879.202C255.164 885.07 247.641 888.067 240.828 886.022C238.959 885.461 237.536 884.567 236.561 883.057C234.132 879.291 225.816 878.741 220.205 881.784C216.911 883.571 215.207 886.335 214.068 889.14C211.505 895.454 209.783 901.714 206.163 908.096C205.308 909.603 205.271 911.331 205.128 912.857C204.586 918.643 205.917 919.063 211.644 914.322C215.789 910.89 219.359 909.568 222.774 910.479C225.878 911.308 229.113 911.974 231.913 913.222C234.218 914.249 236.735 915.788 235.592 919.359C234.179 923.774 232.559 928.136 232.283 932.313C232.176 933.943 230.733 935.33 228.781 936.356C222.814 939.494 216.341 939.128 214.34 934.813C213.245 932.453 211.825 930.534 209.798 929.105C206.307 926.646 202.762 925.55 196.336 931.215C191.85 935.169 187.245 934.805 183.065 934.76C181.415 934.742 179.987 934.19 178.287 934.341C175.501 934.589 172.817 935.897 170.762 939.279C169.64 941.125 168.185 942.909 167.166 944.761C164.496 949.619 160.497 952.413 156.172 953.778C151.327 955.308 146.505 956.705 141.629 958.383C138.269 959.54 135.503 958.968 133.154 957.99C124.325 954.316 114.298 958.461 104.073 967.827C96.9105 974.388 89.1631 979.392 81.7971 985.32C78.0027 988.375 74.3992 989.625 70.9726 989.531C66.7719 989.417 62.5148 989.976 57.6336 992.18C51.0006 995.174 47.6073 992.763 45.6963 988.468C44.9642 986.822 44.6994 984.813 44.3462 982.897C43.5559 978.604 41.9152 975.027 38.8424 972.546C32.9411 967.783 30.2969 960.082 25.5563 954.258C23.4629 951.687 23.8768 947.51 25.7151 943.15C29.2738 934.71 27.1234 930.204 21.2361 928.263C18.1355 927.241 17.4291 924.227 16.366 921.548C14.2296 916.166 10.5906 912.879 3.60243 913.138C-2.11116 913.349 -6.25706 910.819 -8.4131 906.685C-10.5275 902.632 -14.1968 900.739 -18.3167 899.258C-22.6025 897.716 -25.579 895.086 -27.1594 890.743C-28.7364 886.408 -31.214 882.75 -34.3872 879.738C-36.7922 877.454 -38.9197 874.968 -40.3697 871.757C-41.7122 868.783 -43.9328 866.338 -47.1121 865.262C-50.756 864.029 -53.0115 861.442 -55.3342 858.833C-57.187 856.751 -58.8089 854.372 -62.2518 854.148C-69.8498 853.653 -74.9337 850.257 -77.8829 844.117C-79.9063 839.904 -82.607 836.214 -84.9984 832.284C-85.3679 831.677 -85.9047 831.154 -86.0094 830.394C-86.2207 828.859 -86.9453 827.218 -85.2473 825.301C-83.0023 822.766 -81.0704 823.664 -79.7587 824.305C-73.7677 827.235 -67.3774 829.485 -60.0127 830.331C-57.1668 830.658 -56.0017 832.989 -54.6781 835.149C-50.6078 841.793 -46.5714 848.48 -39.1608 851.901C-36.4867 853.135 -33.5437 853.793 -30.2331 853.851C-24.7941 853.945 -19.7961 854.644 -15.8935 857.282C-10.2386 861.105 -2.15707 858.658 6.20366 854.977C10.6314 853.027 15.0881 850.683 19.4954 848.244C33.6404 840.417 44.5664 825.97 45.0802 813.009C45.614 799.541 44.77 786.662 37.0065 778.205C34.3434 775.304 33.7771 770.919 33.5097 766.389C33.3767 764.137 33.4864 761.761 33.2929 759.542C32.6472 752.138 29.8107 749.795 21.3319 752.455C14.4756 754.606 12.289 749.881 14.0972 744.442C16.4259 737.438 18.9339 730.41 21.2458 723.408C21.9222 721.359 23.2297 719.711 24.8607 718.084C26.6803 716.269 28.6388 714.88 30.7463 713.536C41.0081 706.993 40.9606 706.961 44.8344 714.216C47.0642 718.392 51.4149 719.275 57.4424 717.378C61.1392 716.214 64.8489 714.967 68.5522 713.763C72.3516 712.528 75.8153 712.821 76.4432 715.681C78.6484 725.727 87.5601 728.287 95.477 732.077C98.3865 733.47 100.911 735.384 103.488 737.202C105.681 738.748 107.582 740.8 107.195 744.207C106.043 754.366 111.719 759.127 118.211 762.333C127.062 766.705 133.664 773.301 140.345 779.914C147.056 786.556 155.691 790.928 163.805 795.917C165.146 796.742 166.658 797.546 168.444 797.616C178.051 797.993 185.066 802.105 192.744 805.407C202.034 809.401 211.82 812.782 223.288 813.529C230.339 813.988 236.705 815.82 243.458 816.897C252.236 818.297 262.132 814.967 272.361 809.353C284.833 802.507 290.786 791.105 286.195 782.703C282.514 775.967 278.308 769.626 272.649 764.681C268.336 760.912 265.497 756.279 265.552 749.116C265.61 741.442 261.445 737.207 254.644 735.886C250.915 735.162 248.03 733.601 245.803 731.079C242.61 727.461 238.335 725.358 232.343 725.648C229.004 725.809 226.706 724.524 224.933 722.491C219.531 716.298 211.668 714.01 201.069 715.857C196.289 716.69 192.294 715.836 189.52 713.276C185.621 709.677 180.213 708.637 173.508 709.887C168.569 710.808 165.506 709.595 164.417 705.495C163.188 700.864 160.643 697.312 157.822 693.939C155.467 691.124 154.269 687.417 154.4 682.778C154.566 676.933 153.318 672.192 148.606 669.733C145.198 667.955 145.001 663.289 144.813 658.948C144.48 651.229 141.515 645.605 135.938 642.123C132.95 640.256 129.556 638.931 125.809 638.06C116.932 635.996 113.321 626.062 117.079 614.887C120.515 604.669 118.657 597.927 109.664 596.794C99.5817 595.525 91.897 590.571 81.5429 589.854C78.2477 589.626 75.9683 588.023 73.8722 586.095C70.4233 582.923 66.2913 580.221 63.4303 576.714C58.6234 570.82 51.775 567.336 46.5275 562.059C44.0067 559.524 43.8149 557.927 47.4842 552.578C53.0332 544.489 53.9068 538.242 50.2836 533.282C49.8769 532.725 49.9727 531.674 49.4624 531.261C47.4855 529.662 46.8018 527.043 46.1788 524.471C44.7305 518.493 41.107 514.661 36.0782 512.067C32.7984 510.375 31.1799 507.65 34.0909 502.146C38.2591 494.263 36.2497 489.865 31.4866 487.195C21.2338 481.447 10.2584 476.72 -2.52854 474.624C-9.38543 473.5 -15.3336 471.277 -18.8199 465.865C-19.4863 464.831 -20.5697 464.158 -21.3964 463.256C-24.6072 459.752 -29.3135 460.096 -35.6008 463.72C-44.1118 468.627 -45.9318 468.605 -48.1979 462.044C-50.6736 454.876 -56.4668 451.261 -62.4879 447.862C-66.3325 445.691 -69.9503 443.49 -72.6747 439.967C-76.7349 434.716 -81.6746 430.241 -87.8415 427.165C-94.7719 423.707 -100.612 419.018 -105.877 413.666C-109.184 410.305 -112.767 407.222 -116.197 403.985C-118.225 402.072 -119.968 399.971 -121.141 397.208C-123.582 391.462 -127.995 387.647 -132.942 384.138C-139.654 379.378 -146.017 374.214 -153.043 369.795C-155.263 368.399 -157.212 366.473 -158.411 364.102C-159.985 360.991 -162.325 358.702 -164.704 356.409C-166.199 354.968 -167.697 353.577 -169.717 352.638C-172.484 351.351 -174.572 349.143 -176.012 346.422C-178.179 342.328 -180.917 338.921 -184.505 336.039C-192.123 329.918 -199.047 323.027 -204.746 314.922C-207.986 310.313 -212.288 306.601 -217.712 304.393C-223.36 302.093 -226.217 297.149 -228.935 292.218C-231.901 286.837 -236.691 283.796 -242.506 281.858C-252.23 278.616 -258.932 272.14 -264.177 264.08C-266.129 261.081 -268.443 258.362 -271.42 256.559C-277.974 252.59 -281.807 246.458 -283.446 238.349C-284.501 233.129 -288.507 230.787 -292.706 228.841C-298.915 225.963 -305.718 223.908 -312.976 222.582C-314.898 222.231 -316.85 221.995 -319.263 222.779C-324.299 224.414 -327.801 228.16 -329.264 233.255C-330.727 238.354 -328.996 241.598 -326.927 244.331C-323.549 248.793 -320.766 253.824 -316.396 257.382C-312.394 260.64 -310.789 265.937 -308.88 270.897C-307.572 274.296 -309.408 276.837 -313.982 279.709C-318.361 282.459 -321.996 282.633 -324.973 281.573C-332.325 278.955 -338.447 274.799 -342.558 268.524C-347.246 261.368 -353.418 255.812 -360.471 251.079C-364.404 248.44 -368.304 245.754 -372.03 242.854C-382.632 234.602 -391.614 224.535 -404.021 218.297C-406.615 216.993 -408.387 214.752 -409.944 212.398C-414.842 204.997 -421.034 198.955 -428.477 194.137C-430.535 192.805 -432.456 191.094 -433.518 188.848C-434.861 186.008 -436.916 183.894 -438.959 181.789C-444.059 176.536 -448.72 170.904 -452.392 164.354C-452.479 164.199 -452.606 164.073 -452.74 163.962C-461.901 156.334 -467.23 144.995 -476.526 137.476C-479.527 135.049 -482.812 132.995 -486.215 131.088C-493.746 126.867 -499.545 120.973 -504.121 113.704C-507.033 109.077 -510.699 105.069 -514.355 101.104C-517.092 98.1367 -519.041 94.5115 -521.254 91.1145C-526.468 83.1132 -532.047 75.46 -539.046 69.1441C-542.79 65.7655 -547.568 63.5498 -551.068 59.8398C-553.239 57.5385 -554.126 54.1653 -556.679 52.2334C-563.771 46.8651 -570.251 40.799 -578.651 36.9351C-583.259 34.8153 -587.314 32.0476 -590.683 28.4503C-605.501 12.6256 -621.815 -1.69029 -636.816 -17.3174C-643.894 -24.691 -651.366 -31.839 -656.404 -41.1754C-660.026 -47.8879 -658.89 -52.0372 -650.513 -60.1941C-643.965 -66.5706 -638.886 -73.0872 -636.351 -80.7995C-635.425 -83.6162 -633.482 -86.3387 -631.26 -89.0213C-624.977 -96.6075 -623.524 -103.297 -626.176 -108.974C-627.627 -112.078 -629.257 -115.046 -630.808 -118.074C-631.337 -119.107 -631.483 -120.322 -629.983 -121.761C-628.546 -123.141 -627.167 -123.096 -626.198 -122.62C-625.081 -122.07 -624.285 -121.103 -623.292 -120.384C-614.316 -113.88 -606.772 -105.873 -598.934 -98.1783C-596.565 -95.8526 -593.517 -94.3948 -589.033 -96.3222C-578.603 -100.806 -572.858 -97.0693 -566.919 -93.4818C-559.756 -89.1554 -554.495 -82.7859 -548.184 -77.5457C-546.717 -76.328 -545.544 -74.8611 -543.411 -74.3173C-538.215 -72.9921 -533.539 -74.8262 -528.093 -80.7539C-523.021 -86.2746 -521.813 -90.7514 -524.434 -95.128C-528.16 -101.351 -533.076 -106.534 -536.314 -113.21C-537.452 -115.557 -539.495 -117.405 -542.216 -118.318C-543.077 -118.607 -543.787 -119.149 -544.44 -119.709C-545.544 -120.656 -546.289 -122.003 -545.29 -124.07C-544.233 -126.257 -542.205 -127.2 -540.281 -127.733C-536.606 -128.753 -532.832 -130.061 -529.301 -130.606C-522.254 -131.696 -516.827 -129.73 -511.777 -127.338C-509.697 -126.354 -508.413 -124.434 -508.624 -121.296C-508.797 -118.717 -508.294 -116.239 -506.572 -114.985C-502.931 -112.335 -500.71 -108.647 -499.893 -103.658C-499.217 -99.5228 -495.677 -98.7932 -491.322 -99.2868C-490.45 -99.3855 -489.507 -99.6911 -488.599 -99.8915C-478.843 -102.045 -477.859 -101.444 -478.416 -92.3835C-478.904 -84.4458 -477.302 -79.7947 -465.714 -81.8701C-458.998 -83.0726 -452.194 -84.6958 -445.99 -84.3876C-443.017 -84.2399 -439.594 -85.6996 -436.382 -87.6227C-425.688 -94.0269 -418.153 -92.2568 -412.259 -88.3239C-406.607 -84.5525 -400.573 -83.8871 -391.387 -88.629C-386.833 -90.9795 -382.096 -91.9794 -377.54 -93.1431C-373.541 -94.1643 -372.829 -93.152 -374.848 -89.0338C-378.004 -82.5949 -379.001 -76.9644 -377.917 -71.8273C-377.418 -69.4658 -378.381 -66.6365 -379.597 -63.7586C-385.208 -50.4758 -382.099 -42.5113 -373.668 -38.0184C-370.78 -36.4797 -368.846 -33.9903 -366.366 -32.0557C-360.825 -27.7322 -354.004 -26.3615 -344.272 -30.4955C-339.45 -32.544 -335.158 -32.9034 -331.67 -31.3559C-327.23 -29.3862 -321.989 -29.286 -315.752 -31.158C-313.027 -31.976 -310.333 -32.2517 -307.811 -32.3318C-303.884 -32.4566 -299.859 -33.5605 -295.555 -35.7376C-290.944 -38.0696 -287.7 -37.7881 -285.106 -35.3802C-280.828 -31.41 -277.994 -26.3581 -276.066 -20.4386C-274.772 -16.4653 -274.938 -12.2087 -277.959 -6.90445C-281.583 -0.542342 -281.964 4.4789 -279.466 8.71641C-277.396 12.2271 -276.231 16.5308 -272.925 18.9406C-266.703 23.4761 -264.025 30.8739 -263.811 39.6265C-263.512 51.8328 -257.231 56.9948 -245.682 57.7189C-238.651 58.1596 -232.639 60.5854 -225.164 60.3812C-222.774 60.3158 -220.924 61.7199 -219.13 62.8195C-217.084 64.074 -214.5 64.2636 -211.717 64.1071C-205.867 63.7784 -200.789 60.4586 -196.44 54.3066C-193.834 50.6206 -191.805 46.8591 -190.866 43.1186C-189.287 36.8346 -186.071 30.4362 -183.715 24.1012C-182.12 19.8138 -180.804 19.1248 -176.559 18.3724C-171.326 17.4449 -169.232 20.8187 -166.051 22.5727C-163.154 24.171 -160.862 26.6255 -159.508 29.9747C-157.565 34.7786 -153.705 37.643 -148.826 39.547C-141.676 42.337 -135.219 46.0572 -125.818 45.3211C-119.818 44.8511 -114.877 41.5155 -110.277 35.8688C-108.879 34.1522 -107.755 32.2397 -106.655 30.3862C-105.14 27.8357 -103.843 25.2394 -102.314 22.6926C-99.9294 18.7178 -97.926 17.3582 -94.5574 17.8152C-92.2384 18.13 -90.1211 18.8977 -88.2006 19.8398C-85.6826 21.0749 -82.7864 21.5718 -79.2395 20.3966C-71.7321 17.9089 -66.3796 19.5003 -61.8009 22.2845C-57.8572 24.6825 -53.1586 24.9826 -47.4304 24.2156C-38.5366 23.0248 -32.1759 25.9487 -28.5727 32.3081C-26.8189 35.4033 -25.5944 38.8797 -23.0501 41.3795C-19.3015 45.0625 -14.2648 45.6037 -7.28945 41.7044C-0.69316 38.0167 5.46573 29.7201 6.9377 22.8042C7.5148 20.0929 7.22342 17.6138 7.72027 14.9156C8.19256 12.3507 7.47791 9.47557 10.9007 7.01604C13.8221 4.91681 16.4718 5.28899 18.4651 6.16826C24.1452 8.67378 28.933 12.1751 31.4218 18.045C33.8153 23.6895 31.4965 28.8831 24.0554 34.5277C21.8431 36.2059 19.5813 37.7903 17.4105 39.5428C10.1809 45.3792 7.81325 51.3143 9.92153 57.0518C11.6752 61.8235 15.1185 64.9785 20.4426 65.1997C30.5291 65.6187 33.9052 72.9674 38.958 78.9292C45.218 86.3159 51.9134 93.3467 63.8909 94.1591C74.405 94.8724 95.8163 81.1788 103.78 68.5419C106.426 64.3451 107.649 60.5502 107.55 56.9229C107.425 52.3583 107.354 47.7663 106.354 43.636C105.45 39.899 105.314 35.7426 105.924 31.254C106.816 24.6948 109.646 20.8538 116.373 17.8243C124.076 14.3559 131.791 11.0784 139.474 8.08341C145.369 5.7854 146.205 7.4725 142.633 13.566C140.462 17.2712 137.925 20.9223 135.941 24.6437C129.86 36.0485 131.01 42.5777 139.409 45.4394C141.51 46.1553 143.671 46.7982 145.93 47.265C151.432 48.4026 154.993 51.3658 155.735 57.321C156.279 61.6891 159.363 63.9254 162.748 65.5867C166.979 67.6638 173.838 65.0883 179.657 59.7637C183.917 55.8652 187.194 51.4498 189.984 46.7086C192.583 42.2909 195.418 37.9302 199.153 33.9555C205.81 26.8711 209.458 25.3186 215.481 27.2885C218.302 28.211 220.946 29.4021 223.595 30.5737C229.437 33.1573 236.452 32.2932 244.61 27.8796C250.043 24.9408 255.376 22.8844 260.618 21.7763C265.149 20.8183 269.452 18.003 273.687 14.8361C277.055 12.3182 280.451 9.97282 283.985 8.46505C290.414 5.72213 294.395 7.00316 294.3 12.7957C294.154 21.7452 294.338 30.4392 296.869 37.948C297.546 39.9559 296.887 42.4967 295.554 45.2252C294.522 47.3359 293.564 49.5113 292.993 51.5761C291.583 56.6696 294.924 59.8526 299.987 58.2894C301.813 57.7257 303.736 56.8391 305.583 55.8323C318.359 48.8695 328.967 47.3036 336.829 53.4013C339.606 55.5555 343.639 56.0507 347.902 55.9399C350.239 55.8791 352.77 55.6438 355.353 54.0659C363.378 49.1644 371.385 44.1606 379.35 39.0121C384.795 35.4921 387.397 30.8073 388.288 25.6369C389.295 19.7911 390.189 18.6497 396.022 16.9453C402.131 15.1601 407.653 11.8949 412.563 6.17874C416.555 1.53079 420.809 -1.01973 425.743 -1.89774C429.289 -2.52891 433.103 -4.11037 436.744 -5.02617C449.303 -8.18543 455.066 -5.61245 456.644 4.98683C458.209 15.4961 466.519 18.3377 475.681 20.1588C481.292 21.2743 486.772 22.4849 489.054 27.4587C490.833 31.3355 493.609 34.1458 496.346 37.0768C498.41 39.2865 501.028 40.6942 504.311 41.3497C512.831 43.0504 518.472 47.4836 518.475 57.4916C518.476 60.1544 519.277 62.5963 520.39 64.5866C522.821 68.9327 528.291 68.1041 534.172 62.8321C534.988 62.1011 535.747 61.28 536.493 60.4679C543.513 52.8233 545.022 52.4836 548.882 57.7442C551.826 61.7565 553.476 66.6414 553.652 72.5499C553.894 80.6807 554.86 88.3616 558.645 94.3139C560.078 96.5676 560.499 99.5465 561.097 102.389C561.836 105.909 563.531 108.489 567.281 109.109C571.647 109.832 573.832 112.461 573.6 117.527C573.421 121.416 574.924 124.38 576.572 127.127C577.413 128.531 577.903 130.128 578.053 131.958C578.485 137.208 576.854 139.831 570.688 142.94C566.874 144.864 563.291 147.296 559.82 150.068C555.363 153.627 551.348 154.662 548.078 153.413C543.637 151.715 538.732 151.482 532.683 153.614C531.564 154.008 530.399 154.068 529.439 153.942C523.141 153.121 516.453 154.709 508.839 158.713C504.451 161.021 500.273 160.368 496.645 159.791C490.459 158.806 483.607 159.098 477.777 157.439C473.39 156.191 468.463 157.813 463.456 162.811C460.631 165.631 457.741 167.045 454.686 167.748C450.774 168.649 446.918 170.498 442.896 172.8C431.952 179.063 421.411 181.353 415.184 173.469C412.354 169.885 409.192 166.623 405.196 163.632Z" fill="#181717" stroke="white" stroke-opacity="0.41" stroke-width="2" mask="url(#path-5-inside-1_46_2407)"/>
    <path d="M432.658 353.547C431.995 353.174 431.163 353.234 430.171 353.77C421.633 358.381 414.038 359.465 406.843 358.773C404.675 358.565 402.216 358.85 399.793 359.218C391.133 360.536 382.52 361.788 374.779 360.753C373.04 360.52 370.988 360.793 368.994 361.11C363.596 361.969 358.738 361.805 354.379 360.461C349.524 358.965 344.021 360.83 337.931 365.237C332.323 369.295 328.636 373.795 327.012 379.77C324.947 387.37 322.325 390.061 314.83 392.86C309.547 394.833 305.355 394.786 301.406 393.019C294.052 389.728 291.429 381.919 285.75 377.083C284.253 375.809 284.665 373.102 284.494 370.872C283.826 362.127 279.256 360.476 269.446 366.585C263.215 370.465 258.205 371.357 253.992 369.623C243.809 365.431 230.916 366.832 218.715 366.638C208.512 366.476 198.187 368.515 186.753 373.144C179.067 376.255 171.65 377.304 165.305 375.726C161.922 374.884 157.94 375.469 153.573 377.454C149.367 379.366 145.161 381.219 140.955 383.156C135.967 385.454 131.934 386.017 129.098 383.149C125.408 379.417 119.583 379.935 112.808 384.205C106.403 388.241 101.045 389.481 95.6423 388.694C86.4758 387.36 77.7079 385.715 70.7011 380.938C65.937 377.69 60.3011 375.49 56.3697 371.193C46.7895 360.722 33.9026 354.045 21.2936 347.093C17.7902 345.162 15.0313 342.588 12.6423 339.568C9.28763 335.327 4.84114 332.697 -1.95372 333.1C-9.28675 333.534 -12.0557 328.309 -14.9931 323.833C-20.8392 314.924 -28.9138 308.753 -39.9864 306.033C-45.4415 304.693 -48.8423 301.48 -50.4633 296.317C-50.7826 295.3 -51.2562 294.236 -50.5379 292.672C-49.165 291.011 -47.8252 291.09 -46.711 291.206C-39.0332 292.008 -32.151 293.836 -29.8461 301.234C-28.0863 306.881 -23.7619 309.709 -18.0692 311.108C-6.64814 313.915 5.27244 315.942 15.475 320.65C20.7043 323.063 26.8672 324.135 31.7946 327.029C34.1247 328.398 36.1199 330.094 37.8989 331.956C46.6991 341.165 57.3945 348.376 66.1943 357.57C69.5429 361.069 74.5169 362.14 80.4275 360.785C92.976 357.907 104.418 358.279 116.882 355.543C119.146 355.046 121.377 354.804 123.678 354.019C130.934 351.544 136.311 352.395 140.046 356.266C143.825 360.181 148.77 362.668 153.771 365.142C158.721 367.59 164.595 366.541 171.527 362.852C177.101 359.887 182.591 356.292 188.274 354.092C195.156 351.428 201.652 349.725 207.511 350.585C212.61 351.333 218.16 351.025 224.141 349.636C228.031 348.734 231.582 348.767 235.054 348.962C238.747 349.169 242.671 348.68 246.793 347.743C252.32 346.487 257.557 343.65 262.267 338.678C266.932 333.752 271.709 331.649 277.02 330.077C289.12 326.496 299.415 326.926 309.215 328.844C316.599 330.29 324.272 331.248 331.858 332.347C338.041 333.243 341.9 337.125 346.443 340.084C349.163 341.855 352.061 343.191 355.799 343.303C361.629 343.479 366.747 344.78 371.185 347.141C374.529 348.92 378.603 348.569 383.438 347.032C393.672 343.777 403.241 342.955 412.832 341.932C418.769 341.298 422.285 344.442 426.033 346.958C428.613 348.691 431.627 350.176 432.658 353.559C432.658 353.56 432.658 353.547 432.658 353.547Z" fill="#181717"/>
    <path d="M429.605 350.023C430.53 350.799 431.316 351.684 431.839 352.811C431.239 352.787 430.596 352.972 429.934 353.33C421.486 357.892 413.991 358.958 406.891 358.276C404.656 358.061 402.143 358.355 399.718 358.724C391.043 360.044 382.502 361.281 374.846 360.257C373.023 360.013 370.902 360.301 368.916 360.617C363.572 361.467 358.794 361.299 354.526 359.983C349.441 358.416 343.766 360.397 337.638 364.832C331.967 368.935 328.192 373.522 326.53 379.639C325.506 383.407 324.361 385.888 322.592 387.774C320.821 389.662 318.379 391.001 314.655 392.392C309.469 394.329 305.416 394.266 301.61 392.562C298.051 390.97 295.619 388.279 293.346 385.325C292.874 384.713 292.408 384.086 291.939 383.457C290.169 381.078 288.361 378.65 286.074 376.703C285.482 376.198 285.225 375.375 285.123 374.289C285.072 373.754 285.061 373.186 285.052 372.597L285.05 372.479C285.042 371.934 285.034 371.371 284.993 370.834L284.494 370.872L284.993 370.834C284.657 366.432 283.321 363.52 280.543 362.68C279.186 362.269 277.564 362.387 275.693 362.971C273.819 363.556 271.654 364.621 269.182 366.161C263.013 370.002 258.181 370.806 254.183 369.161C249.009 367.031 243.169 366.33 237.127 366.131C234.103 366.032 231.019 366.058 227.936 366.096C227.589 366.101 227.243 366.105 226.896 366.11C224.157 366.145 221.422 366.181 218.722 366.138C208.443 365.974 198.052 368.031 186.565 372.68C178.939 375.767 171.634 376.785 165.426 375.241C161.899 374.363 157.798 374.984 153.366 376.999C151.635 377.786 149.9 378.564 148.164 379.344C145.691 380.453 143.216 381.564 140.746 382.702C138.275 383.84 136.091 384.524 134.202 384.59C132.336 384.655 130.761 384.119 129.454 382.798C127.494 380.816 124.967 379.972 122.075 380.178C119.2 380.382 115.97 381.622 112.542 383.782C106.211 387.771 100.972 388.965 95.7144 388.2C86.5412 386.864 77.8827 385.229 70.9828 380.525C69.3713 379.426 67.6476 378.438 65.9428 377.461C65.1122 376.985 64.2862 376.512 63.4798 376.03C60.9963 374.544 58.6545 372.949 56.7386 370.855C47.7802 361.064 35.9553 354.573 24.2374 348.141C23.3355 347.646 22.4343 347.151 21.535 346.655C18.1021 344.763 15.3919 342.238 13.0344 339.258C9.59018 334.904 4.99253 332.188 -1.98326 332.601C-5.50356 332.809 -7.89909 331.667 -9.7839 329.939C-11.4182 328.441 -12.6646 326.511 -13.9201 324.567C-14.1375 324.23 -14.3551 323.893 -14.5751 323.558C-20.4858 314.551 -28.6638 308.299 -39.8671 305.547C-42.5266 304.894 -44.6598 303.791 -46.3218 302.243C-47.9835 300.695 -49.1974 298.68 -49.9863 296.168C-50.0169 296.07 -50.0481 295.974 -50.079 295.879C-50.3751 294.967 -50.6424 294.144 -50.1103 292.94C-49.4977 292.216 -48.92 291.896 -48.3978 291.756C-47.849 291.608 -47.3169 291.646 -46.763 291.704C-42.9364 292.103 -39.3713 292.754 -36.4871 294.194C-33.6256 295.623 -31.4307 297.829 -30.3234 301.382C-28.4933 307.255 -23.9819 310.17 -18.1885 311.594C-15.5973 312.231 -12.9876 312.826 -10.3829 313.42C-1.45531 315.457 7.41208 317.48 15.2655 321.104C17.5175 322.143 19.9411 322.937 22.3342 323.721C22.7544 323.858 23.1736 323.996 23.5907 324.134C26.4 325.065 29.1276 326.043 31.5414 327.46C33.8229 328.801 35.7827 330.465 37.5374 332.301C41.9593 336.928 46.8543 341.051 51.7247 345.151L51.743 345.166C56.6143 349.267 61.4604 353.347 65.8331 357.916C69.3389 361.579 74.5137 362.654 80.5393 361.272C86.7792 359.841 92.7475 359.217 98.7369 358.608L99.1349 358.568C104.985 357.973 110.863 357.376 116.989 356.031C117.678 355.88 118.38 355.751 119.091 355.619C120.643 355.333 122.238 355.038 123.839 354.492C130.989 352.053 136.134 352.932 139.686 356.613C143.535 360.601 148.561 363.122 153.55 365.59C158.717 368.147 164.78 367.008 171.762 363.294C173.521 362.358 175.258 361.368 176.988 360.382C180.798 358.211 184.571 356.062 188.455 354.558C195.322 351.9 201.715 350.24 207.438 351.08C212.609 351.838 218.223 351.523 224.254 350.124C228.074 349.237 231.569 349.267 235.026 349.461C238.781 349.672 242.754 349.174 246.904 348.231C252.529 346.952 257.854 344.064 262.63 339.022C267.214 334.182 271.9 332.114 277.162 330.557C289.167 327.004 299.378 327.428 309.119 329.335C314.854 330.458 320.766 331.288 326.66 332.115C328.372 332.355 330.082 332.595 331.786 332.842C334.785 333.277 337.229 334.435 339.499 335.865C340.636 336.582 341.726 337.363 342.824 338.158L343.049 338.321C344.07 339.06 345.101 339.806 346.17 340.502C348.934 342.303 351.922 343.687 355.784 343.803C361.547 343.977 366.588 345.262 370.95 347.582C374.478 349.459 378.72 349.057 383.589 347.508C392.975 344.523 401.798 343.596 410.649 342.665C411.394 342.587 412.139 342.509 412.885 342.429C417.876 341.896 421.059 344.114 424.323 346.389C424.796 346.718 425.271 347.049 425.754 347.373C426.14 347.632 426.527 347.881 426.91 348.128C427.849 348.731 428.768 349.321 429.605 350.023Z" stroke="white" stroke-opacity="0.41"/>
    <path d="M340.659 447.908C339.591 446.996 339.293 445.713 338.938 444.413C337.289 438.373 336.078 432.081 335.412 425.465C335.292 424.265 335.206 423.021 335.358 421.707C335.887 417.133 338.727 414.262 343.142 413.839C344.431 413.716 345.57 413.993 346.816 414.002C351.457 414.035 354.421 412.273 358.118 407.253C359.435 405.464 360.567 403.585 361.932 401.824C365.7 396.962 370.779 395.209 371.936 398.971C373.673 404.619 377.956 407.331 382.217 410.445C390.191 416.272 386.554 431.741 375.226 442.544C371.7 445.907 367.982 447.414 364.407 447.688C359.006 448.1 353.597 448.619 347.89 449.926C344.63 450.672 342.01 450.035 340.659 447.908Z" fill="#181717"/>
    <path d="M341.081 447.64L341.041 447.577L340.984 447.528C340.096 446.77 339.812 445.722 339.468 444.456C339.452 444.398 339.436 444.34 339.42 444.281L338.938 444.413L339.42 444.281C337.778 438.267 336.573 432.002 335.91 425.415C335.79 424.223 335.709 423.023 335.854 421.765L335.854 421.764C336.109 419.568 336.912 417.817 338.148 416.568C339.383 415.32 341.082 414.538 343.189 414.337L343.142 413.839L343.189 414.337C343.786 414.28 344.355 414.314 344.95 414.369C345.062 414.379 345.176 414.39 345.292 414.401C345.776 414.449 346.287 414.498 346.812 414.502C349.204 414.519 351.199 414.072 353.077 412.952C354.942 411.839 356.654 410.084 358.52 407.55L358.52 407.55C359.107 406.753 359.657 405.938 360.201 405.133C360.274 405.025 360.348 404.916 360.421 404.808C361.039 403.895 361.655 402.997 362.327 402.13C364.172 399.749 366.305 398.177 368.059 397.641C368.934 397.374 369.668 397.378 370.223 397.608C370.761 397.83 371.205 398.295 371.458 399.118L371.458 399.118C373.107 404.479 376.994 407.287 380.886 410.098C381.232 410.347 381.578 410.597 381.922 410.849L382.217 410.446L381.922 410.849C385.68 413.595 386.779 418.668 385.472 424.52C384.168 430.356 380.484 436.839 374.881 442.182C371.433 445.471 367.822 446.925 364.369 447.189L364.407 447.688L364.369 447.189C358.963 447.602 353.524 448.123 347.778 449.438L347.89 449.926L347.778 449.438C344.615 450.162 342.269 449.509 341.081 447.64Z" stroke="white" stroke-opacity="0.41"/>
    <path d="M234.747 172.794C239.636 167.858 241.605 167.63 243.373 170.945C244.561 173.174 245.329 175.679 245.803 178.383C246.262 180.996 245.099 183.823 242.255 186.257C237.682 190.172 233.029 191.839 228.834 191.384C225.727 191.046 225.587 188.214 227.079 184.877C229.084 180.39 231.916 176.027 234.747 172.794Z" fill="#181717"/>
    <path d="M234.747 172.794C239.636 167.858 241.605 167.63 243.373 170.945C244.561 173.174 245.329 175.679 245.803 178.383C246.262 180.996 245.099 183.823 242.255 186.257C237.682 190.172 233.029 191.839 228.834 191.384C225.727 191.046 225.587 188.214 227.079 184.877M234.747 172.794C231.916 176.027 229.084 180.39 227.079 184.877M234.747 172.794L235.102 173.146C235.106 173.142 235.109 173.139 235.113 173.135M234.747 172.794L235.123 173.124C235.12 173.127 235.116 173.131 235.113 173.135M227.079 184.877L227.535 185.081C226.804 186.718 226.516 188.142 226.722 189.156C226.822 189.648 227.036 190.032 227.365 190.314C227.697 190.598 228.185 190.81 228.888 190.887C232.905 191.323 237.426 189.732 241.929 185.878L241.93 185.878C244.683 183.521 245.73 180.859 245.311 178.469M227.079 184.877L227.535 185.081C229.518 180.644 232.319 176.328 235.113 173.135M245.311 178.469C244.843 175.802 244.089 173.351 242.932 171.181L243.372 170.946L242.932 171.181C242.503 170.378 242.093 169.849 241.674 169.547C241.279 169.262 240.856 169.163 240.326 169.266C239.77 169.375 239.08 169.714 238.205 170.359C237.338 170.999 236.322 171.915 235.113 173.135M245.311 178.469L245.8 178.384L245.311 178.469C245.311 178.469 245.311 178.469 245.311 178.469Z" stroke="white" stroke-opacity="0.41"/>
    </g>
    </g>
    <rect x="0.5" y="0.5" width="357" height="628" stroke="white"/>
    <defs>
    <clipPath id="clip0_46_2407">
    <rect width="358" height="629" fill="white"/>
    </clipPath>
    <clipPath id="clip1_46_2407">
    <rect width="1175.5" height="1750.57" fill="white" transform="translate(68.8018 -972) rotate(44.4912)"/>
    </clipPath>
    </defs>
</svg>