<svg preserveAspectRatio="none" width="358" height="629" viewBox="0 0 358 629" fill="none" xmlns="http://www.w3.org/2000/svg">
    <rect width="358" height="629" fill="#171616"/>
    <path d="M388.626 252.813L291.813 156L195 252.813L291.813 349.626L388.626 252.813Z" fill="#E2B63F"/>
    <mask id="path-3-inside-1_0_1" fill="white">
    <path d="M558.507 161.894C556.362 160.656 553.914 159.378 551.602 157.875C548.571 155.903 545.011 155.004 541.622 153.803C538.867 152.828 536.406 151.395 533.883 150.038C532.66 149.38 532.067 148.018 531.66 146.564C530.512 142.463 528.263 139.963 524.269 139.74C521.169 139.566 518.784 137.885 516.371 136.339C513.707 134.632 510.657 133.918 507.378 133.672C506.004 133.57 504.58 133.525 503.345 133.092C500.313 132.031 498.369 129.819 498.898 125.253C499.099 123.519 499.256 121.791 499.371 120.077C499.493 118.244 498.907 116.85 497.572 116.481C496.044 116.059 494.366 117.001 493.076 118.819C492 120.336 490.899 121.974 490.218 123.66C488.727 127.346 486.34 129.277 483.492 130.016C481.066 130.644 478.982 132.096 476.963 134.144C474.857 136.279 472.631 138.112 470.271 139.632C465.554 142.668 462.646 147.14 461.137 152.871C459.098 160.612 456.676 163.229 450.115 164.934C448.513 165.35 446.896 165.7 445.343 165.808C442.179 166.029 439.291 167.596 436.383 170.315C429.778 176.493 423.405 182.982 417.683 190.402C415.973 192.619 414.095 194.401 411.965 195.68C408.982 197.472 406.862 197.284 405.679 194.629C402.714 187.972 397.565 184.94 390.736 184.582C387.632 184.419 385.041 183.207 382.66 181.576C380.578 180.15 378.219 179.869 375.381 180.938C371.711 182.32 368.166 182.596 364.673 182.77C360.996 182.953 357.833 182.06 355.455 179.235C353.56 176.983 350.832 176.277 347.359 178.419C343.476 180.814 339.608 180.714 335.703 182.525C330.891 184.757 326.051 186.668 321.222 188.694C317.647 190.194 314.385 192.583 311.421 195.941C309.297 198.347 307.027 200.511 304.485 201.993C300.624 204.244 296.987 205.241 293.981 202.937C293.029 202.207 291.862 201.794 290.939 201.026C288.694 199.159 286.091 198.554 282.745 199.846C279.086 201.258 276.978 198.94 274.779 197.133C273.769 196.302 272.825 195.35 271.769 194.559C270.127 193.328 268.246 193.065 265.926 194.363C262.638 196.203 259.825 195.789 257.248 194.703C254.059 193.359 250.613 193.145 246.747 194.42C241.347 196.201 236.05 197.155 230.823 197.543C228.294 197.731 225.868 198.454 223.329 200.508C220.554 202.754 219.212 201.907 219.663 198.396C219.863 196.837 220.356 195.206 220.835 193.617C221.463 191.534 222.007 189.48 222.131 187.432C222.36 183.671 221.281 181.542 218.28 181.145C213.996 180.578 210.663 178.239 207.112 176.275C205.885 175.596 205.416 174.191 204.775 172.917C202.924 169.237 200.793 169.003 197.008 172.249C194.78 174.159 192.558 175.925 190.127 177.193C189.097 177.731 187.955 178.579 187.166 179.595C182.477 185.638 177.902 191.704 176.908 199.53C176.281 204.465 174.685 206.614 170.583 208.703C168.286 209.872 166.148 211.429 164 213.129C160.836 215.633 159.731 215.488 157.283 213.587C154.463 211.396 150.697 211.454 147.008 211.476C143.679 211.495 140.276 211.817 136.94 211.865C132.289 211.932 128.167 210.569 124.075 209.155C122.676 208.672 121.163 208.587 119.541 209.06C116.194 210.037 112.842 211.064 109.491 212.205C106.153 213.342 103.771 216.105 102.659 219.973C101.763 223.088 100.248 225.418 97.9492 227.553C94.7065 230.564 93.8609 232.842 94.785 236.505C95.8371 240.674 96.9127 244.891 100.177 247.102C101.057 247.698 101.784 248.558 102.495 249.4C104.144 251.352 103.836 252.562 101.184 254.146C99.9335 254.893 98.7521 255.553 98.4136 257.269C98.1155 258.781 98.9644 259.432 99.8302 259.823C103.568 261.511 106.356 264.706 109.94 266.639C114.49 269.093 117.686 273.507 121.822 276.585C132.698 284.679 143.412 293.027 157.714 294.811C159.43 295.025 161.08 295.508 162.633 296.129C166.172 297.544 170.115 297.473 174.247 296.779C177.36 296.256 180.374 294.867 183.332 292.402C185.808 290.338 188.357 288.432 190.907 286.558C194.658 283.803 198.094 280.556 200.969 276.42C202.255 274.571 203.617 272.868 205.349 271.735C209.423 269.069 212.731 271.656 211.513 276.642C211.09 278.374 210.281 280.119 209.6 281.847C206.518 289.674 208.045 299.998 212.932 303.486C215.079 305.019 217.278 306.523 219.677 307.602C225.305 310.135 231.761 308.816 238.471 305.752C240.065 305.025 241.598 303.766 242.908 302.117C246.593 297.48 250.262 297.241 253.705 298.626C255.699 299.429 257.758 300.423 259.128 302.104C261.334 304.811 264.447 305.25 267.742 305.289C273.493 305.358 278.548 307.458 284.377 307.324C286.758 307.269 287.598 309.68 288.116 312.103C289.038 316.409 290.386 320.352 292.695 323.542C295.599 327.553 298.167 328.004 303.21 324.296C307.651 321.03 311.214 320.658 313.868 323.962C316.277 326.962 319.779 327.394 323.466 327.487C329.811 327.647 335.369 329.534 340.04 333.255C342.378 335.117 344.45 337.383 346.514 339.628C347.187 340.36 347.896 340.976 348.711 341.477C351.778 343.362 354.588 345.532 356.5 349.014C357.879 351.527 360.237 352.411 363.39 351.227C363.792 351.076 364.195 350.989 364.598 350.853C371.422 348.549 372.433 350.301 373.599 355.505C373.999 357.293 374.722 358.84 375.952 359.894C378.321 361.924 380.62 364.057 383.036 366.016C385.396 367.93 388.488 367.779 391.74 367.142C396.003 366.307 400.18 365.686 403.779 367.486C406.132 368.663 407.918 370.346 408.551 373.4C409.739 379.133 412.764 383.04 416.355 386.339C418.507 388.315 421.073 389.597 424.168 389.821C429.596 390.212 432.59 393.376 432.843 400.121C433.051 405.659 434.542 407.071 439.427 405.596C444.387 404.098 446.919 406.303 448.789 410.163C448.96 410.516 449.112 410.889 449.237 411.278C451.948 419.724 458.539 421.549 466.258 421.506C467.919 421.497 469.434 420.702 470.944 419.4C471.801 418.661 472.629 417.857 473.462 417.068C476.697 414.005 479.771 412.781 482.962 414.06C484.28 414.588 485.687 414.986 486.999 415.566C490.753 417.228 494.637 416.301 498.672 412.093C499.362 411.373 500.087 410.686 500.715 409.897C504.844 404.708 509.368 400.094 514.049 395.734C517.306 392.7 520.289 389.403 522.918 385.554C527.051 379.503 531.466 373.708 533.579 366.491C534.855 362.132 537.68 359.016 542.273 359.969C550.237 361.621 558.871 359.827 567.253 359.33C570.451 359.141 573.318 359.606 575.759 361.175C578.34 362.834 581.218 363.574 584.591 363.202C587.487 362.883 590.181 363.319 592.871 363.733C596.141 364.237 599.449 363.963 603.002 361.156C605.431 359.237 607.862 358.758 609.925 359.661C612.582 360.824 615.489 361.322 618.3 362.085C619.918 362.525 621.541 363.312 622.626 364.585C624.155 366.379 626.259 367.061 628.391 367.221C632.504 367.53 636.486 368.432 640.908 367.63C643.118 367.229 644.863 367.667 646.193 369.344C649.16 373.086 653.416 374.884 657.294 377.22C660.219 378.982 663.887 378.503 667.554 376.394C672.445 373.582 676.868 372.812 681.037 374.295C682.54 374.83 684.27 374.614 685.954 374.471C689.756 374.147 692.441 375.562 693.843 379.294C694.453 380.916 695.322 382.339 696.101 383.825C697.877 387.211 697.444 389.176 693.66 392.03C688.683 395.784 685.847 401.031 683.527 406.802C681.679 411.401 681.868 415.322 683.429 418.731C684.848 421.827 686.475 424.729 687.726 427.987C689.036 431.402 691.678 432.04 695.344 430.43C696.15 430.077 696.959 429.723 697.757 429.304C701.189 427.501 704.205 427.369 706.52 429.523C708.996 431.825 711.977 433.387 714.247 435.993C716.874 439.009 717.054 443.789 718.138 447.908C718.498 449.278 717.532 450.64 716.297 451.712C710.672 456.595 707.345 462.93 705.116 470.054C704.212 472.944 702.575 475.597 700.8 478.161C697.832 482.449 695.537 486.973 694.964 491.967C694.249 498.195 691.323 503.996 688.251 509.744C687.04 512.01 685.773 514.267 684.388 516.425C680.416 522.612 677.652 529.074 676.403 535.948C676.14 537.396 675.635 538.817 674.923 540.212C672.453 545.047 671.405 549.973 670.57 554.926C669.819 559.375 669.068 563.829 668.157 568.294C667.372 572.137 666.317 575.976 663.586 579.349C662.323 580.909 662.018 582.46 663.065 583.49C664.636 585.035 666.36 586.453 669.036 585.555C671.706 584.661 674.373 584.458 677.061 582.621C677.786 582.126 678.683 581.953 679.436 581.921C680.896 581.861 681.751 582.737 681.51 584.586C681.303 586.18 680.314 587.448 678.982 587.966C675.897 589.166 672.786 590.495 669.731 591.244C667.515 591.788 665.407 592.507 663.442 594.302C660.762 596.75 658.19 597.322 655.69 596.81C652.648 596.188 649.652 595.78 646.086 597.733C644.809 598.433 643.494 598.16 642.298 597.794C640.775 597.328 639.13 596.99 637.481 599.238C635.847 601.467 635.846 603.344 636.62 605.341C638.119 609.209 637.505 610.6 633.491 613.324C631.286 614.82 629.072 616.064 626.73 616.709C624.361 617.362 622.38 617.309 620.536 616.167C616.642 613.756 615.897 614.08 611.484 619.185C607.505 623.789 603.32 626.556 598.577 626.138C597.275 626.023 596.191 625.649 595.269 624.84C592.97 622.825 587.571 623.51 584.611 626.071C582.873 627.574 582.343 629.483 582.18 631.348C581.814 635.544 581.972 639.603 580.947 643.972C580.705 645.003 581.027 646.07 581.241 647.025C582.055 650.648 582.986 650.743 585.679 647.124C587.629 644.504 589.635 643.252 591.99 643.392C594.129 643.52 596.32 643.531 598.351 643.954C600.023 644.301 601.933 644.938 601.92 647.273C601.905 650.161 601.748 653.041 602.409 655.642C602.667 656.657 602.027 657.688 600.991 658.558C597.824 661.222 593.633 661.793 591.496 659.387C590.328 658.071 589.04 657.066 587.465 656.437C584.752 655.355 582.278 655.118 579.325 659.391C577.263 662.373 574.261 662.716 571.593 663.203C570.54 663.395 569.521 663.231 568.47 663.533C566.748 664.028 565.303 665.163 564.672 667.495C564.328 668.767 563.76 670.043 563.483 671.307C562.757 674.621 560.772 676.83 558.295 678.202C555.519 679.738 552.733 681.19 549.967 682.822C548.062 683.946 546.188 683.935 544.498 683.623C538.146 682.451 532.598 686.233 527.97 693.248C524.728 698.162 520.801 702.191 517.303 706.742C515.501 709.086 513.459 710.298 511.261 710.662C508.566 711.108 505.97 711.976 503.307 713.931C499.688 716.588 497.046 715.523 494.971 713.118C494.176 712.197 493.606 710.995 492.997 709.86C491.635 707.319 489.875 705.322 487.424 704.176C482.717 701.974 479.494 697.566 475.313 694.57C473.466 693.247 472.893 690.629 473.19 687.723C473.764 682.097 471.494 679.592 467.361 679.124C465.184 678.877 464.131 677.111 462.919 675.596C460.482 672.55 457.51 670.978 453.117 671.997C449.525 672.83 446.381 671.785 444.182 669.509C442.026 667.278 439.313 666.566 436.396 666.163C433.362 665.743 430.942 664.492 429.067 662.017C427.196 659.547 424.888 657.603 422.267 656.142C420.28 655.035 418.429 653.769 416.864 651.973C415.415 650.31 413.513 649.081 411.275 648.811C408.711 648.501 406.758 647.189 404.758 645.871C403.163 644.82 401.655 643.557 399.421 643.843C394.489 644.473 390.575 643.012 387.47 639.6C385.34 637.26 382.883 635.324 380.576 633.203C380.219 632.876 379.773 632.62 379.554 632.166C379.112 631.249 378.323 630.329 379.019 628.942C379.94 627.107 381.348 627.421 382.311 627.654C386.708 628.718 391.223 629.314 396.077 628.928C397.952 628.779 399.16 630.068 400.434 631.233C404.353 634.816 408.259 638.429 413.658 639.62C415.606 640.05 417.609 640.092 419.727 639.72C423.205 639.108 426.524 638.923 429.534 640.064C433.897 641.718 438.547 639.219 443.128 635.928C445.554 634.185 447.919 632.196 450.234 630.154C457.664 623.602 461.722 613.378 459.454 605.349C457.097 597.004 453.982 589.193 447.351 584.95C445.076 583.494 443.838 580.869 442.761 578.117C442.226 576.75 441.82 575.276 441.253 573.936C439.36 569.464 437.087 568.373 432.226 571.052C428.296 573.218 425.959 570.582 426.02 567.017C426.1 562.425 426.288 557.796 426.357 553.209C426.377 551.866 426.878 550.692 427.59 549.491C428.384 548.152 429.352 547.057 430.423 545.972C435.64 540.687 435.604 540.673 439.52 544.656C441.774 546.948 444.718 546.956 448.172 545.048C450.291 543.878 452.401 542.655 454.515 541.459C456.684 540.232 458.946 539.986 459.918 541.667C463.332 547.57 469.513 548.047 475.307 549.402C477.436 549.9 479.425 550.766 481.429 551.566C483.133 552.247 484.753 553.274 485.189 555.416C486.49 561.802 491.053 564.03 495.824 565.202C502.329 566.799 507.849 570.041 513.422 573.284C519.02 576.541 525.388 578.165 531.547 580.233C532.566 580.575 533.688 580.883 534.839 580.706C541.025 579.756 546.309 581.42 551.854 582.505C558.562 583.817 565.464 584.691 572.908 583.738C577.484 583.153 581.901 583.496 586.411 583.327C592.275 583.107 597.903 579.842 603.285 575.133C609.847 569.391 611.351 561.649 606.749 557.05C603.059 553.363 599.115 549.983 594.525 547.64C591.027 545.854 588.294 543.356 586.895 538.946C585.396 534.222 581.899 532.132 577.308 532.157C574.792 532.171 572.644 531.566 570.723 530.29C567.968 528.459 564.828 527.693 561.074 528.608C558.982 529.118 557.264 528.611 555.729 527.58C551.053 524.438 545.594 523.999 539.222 526.439C536.349 527.539 533.637 527.506 531.36 526.273C528.159 524.541 524.511 524.568 520.497 526.161C517.54 527.335 515.349 526.966 513.835 524.58C512.126 521.885 509.797 520.015 507.327 518.289C505.265 516.848 503.761 514.717 502.916 511.85C501.851 508.237 500.109 505.476 496.619 504.544C494.096 503.871 493.036 501.028 492.048 498.382C490.291 493.678 487.278 490.587 483.034 489.133C480.76 488.353 478.336 487.956 475.778 487.882C469.719 487.706 465.433 482.044 465.586 474.713C465.727 468.01 463.195 464.094 457.248 464.505C450.581 464.965 444.702 462.866 437.972 463.7C435.831 463.965 434.06 463.26 432.341 462.333C429.512 460.807 426.343 459.656 423.821 457.852C419.584 454.82 414.53 453.522 410.136 450.924C408.025 449.676 407.584 448.718 408.847 444.979C410.757 439.324 410.062 435.377 406.764 432.774C406.394 432.482 406.245 431.824 405.838 431.633C404.26 430.894 403.301 429.368 402.389 427.863C400.272 424.367 397.2 422.458 393.482 421.482C391.057 420.846 389.482 419.371 390.232 415.629C391.305 410.271 389.146 407.815 385.582 406.76C377.91 404.489 369.983 402.934 361.43 403.219C356.844 403.372 352.615 402.738 349.314 399.84C348.684 399.286 347.86 399.006 347.153 398.553C344.41 396.795 341.485 397.585 338.212 400.586C333.78 404.65 332.618 404.861 329.864 401.106C326.854 397.005 322.445 395.496 317.935 394.148C315.055 393.287 312.313 392.379 309.875 390.549C306.242 387.821 302.204 385.678 297.666 384.546C292.565 383.274 287.912 381.111 283.491 378.469C280.715 376.81 277.819 375.356 274.989 373.789C273.316 372.862 271.788 371.785 270.488 370.231C267.785 366.999 264.214 365.198 260.366 363.65C255.144 361.55 250.063 359.159 244.709 357.308C243.017 356.722 241.392 355.779 240.155 354.469C238.531 352.751 236.584 351.631 234.612 350.515C233.372 349.813 232.141 349.142 230.668 348.814C228.651 348.364 226.881 347.263 225.42 345.768C223.222 343.518 220.798 341.761 217.94 340.431C211.869 337.606 206.085 334.223 200.838 329.942C197.855 327.508 194.375 325.756 190.483 325.066C186.43 324.348 183.623 321.66 180.907 318.964C177.943 316.021 174.288 314.742 170.201 314.266C163.367 313.47 157.808 310.314 152.858 306.005C151.017 304.403 149 303.016 146.746 302.274C141.783 300.641 138.117 297.344 135.451 292.561C133.735 289.483 130.718 288.536 127.657 287.857C123.132 286.852 118.393 286.426 113.512 286.504C112.219 286.524 110.931 286.62 109.552 287.398C106.676 289.023 105.199 291.757 105.289 295.069C105.378 298.382 107.129 300.163 108.992 301.588C112.034 303.915 114.811 306.666 118.303 308.315C121.501 309.825 123.582 312.883 125.79 315.697C127.302 317.625 126.642 319.413 124.308 321.741C122.074 323.97 119.797 324.524 117.691 324.239C112.49 323.535 107.764 321.734 103.893 318.382C99.4792 314.561 94.4411 311.905 89.0072 309.864C85.9774 308.726 82.959 307.555 80.0085 306.231C71.6133 302.464 63.8847 297.381 54.7448 295.074C52.8331 294.591 51.2579 293.432 49.796 292.177C45.199 288.231 40.0509 285.279 34.3526 283.233C32.7771 282.668 31.2124 281.852 30.0874 280.603C28.6644 279.023 26.9346 277.976 25.2131 276.934C20.9176 274.332 16.826 271.444 13.1789 267.87C13.0927 267.786 12.9864 267.724 12.8788 267.672C5.52522 264.111 -0.134547 257.797 -7.55222 254.32C-9.94713 253.197 -12.4479 252.339 -14.994 251.585C-20.6289 249.917 -25.4974 247.008 -29.8631 243.103C-32.6417 240.618 -35.776 238.605 -38.895 236.619C-41.2297 235.131 -43.195 233.143 -45.283 231.327C-50.2012 227.051 -55.2818 223.033 -60.9981 220.013C-64.056 218.397 -67.5386 217.623 -70.5073 215.773C-72.3488 214.626 -73.5883 212.662 -75.5986 211.788C-81.1846 209.361 -86.5205 206.43 -92.6368 205.089C-95.9921 204.353 -99.1255 203.151 -101.988 201.354C-114.582 193.451 -127.824 186.66 -140.494 178.9C-146.472 175.239 -152.656 171.765 -157.729 166.646C-161.376 162.966 -161.485 160.276 -157.79 154.232C-154.901 149.507 -152.975 144.876 -152.907 139.824C-152.882 137.979 -152.191 136.066 -151.315 134.144C-148.837 128.708 -149.252 124.417 -152.075 121.255C-153.62 119.525 -155.25 117.901 -156.843 116.231C-157.386 115.661 -157.722 114.932 -157.057 113.863C-156.419 112.838 -155.533 112.696 -154.821 112.87C-154 113.07 -153.301 113.566 -152.525 113.886C-145.513 116.78 -139.113 120.773 -132.587 124.538C-130.614 125.676 -128.383 126.196 -125.917 124.46C-120.181 120.421 -115.779 122.01 -111.283 123.485C-105.861 125.262 -101.24 128.53 -96.1762 130.974C-94.9994 131.542 -93.9599 132.3 -92.4945 132.371C-88.9239 132.546 -86.3169 130.844 -84.0397 126.53C-81.9189 122.513 -82.0466 119.612 -84.5897 117.245C-88.2054 113.879 -92.3699 111.298 -95.7659 107.592C-96.9596 106.29 -98.629 105.406 -100.542 105.179C-101.148 105.108 -101.708 104.862 -102.236 104.598C-103.127 104.152 -103.871 103.415 -103.649 102.022C-103.415 100.547 -102.314 99.7186 -101.197 99.154C-99.0635 98.0751 -96.9249 96.8068 -94.7882 96.0368C-90.5236 94.5002 -86.6784 95.0408 -82.9876 95.889C-81.4677 96.2383 -80.2668 97.2601 -79.7725 99.2148C-79.3663 100.821 -78.5503 102.283 -77.2036 102.842C-74.3578 104.022 -72.2064 106.016 -70.6883 108.982C-69.4302 111.44 -67.0326 111.453 -64.3612 110.614C-63.8268 110.446 -63.2878 110.142 -62.7506 109.907C-56.9764 107.383 -56.2302 107.631 -54.7705 113.269C-53.4918 118.208 -51.5416 120.869 -44.5864 118.168C-40.5559 116.602 -36.5526 114.767 -32.5451 114.193C-30.6248 113.918 -28.7393 112.6 -27.0818 111.023C-21.5619 105.77 -16.4149 105.931 -11.8784 107.623C-7.52832 109.246 -3.5574 108.912 1.33629 104.867C3.76202 102.862 6.57501 101.664 9.2403 100.388C11.5789 99.2687 12.2349 99.8033 11.7752 102.583C11.0563 106.929 11.5497 110.512 13.2677 113.537C14.0574 114.927 14.0113 116.784 13.8141 118.703C12.9043 127.558 16.476 132.07 22.7386 133.794C24.8835 134.385 26.612 135.677 28.5764 136.561C32.9666 138.536 37.5795 138.54 42.9415 134.801C45.5986 132.949 48.2566 132.2 50.7851 132.721C54.0036 133.386 57.3573 132.802 60.9496 130.884C62.5191 130.046 64.177 129.545 65.7654 129.186C68.2385 128.626 70.5773 127.452 72.8792 125.584C75.3448 123.583 77.4645 123.357 79.5967 124.518C83.1123 126.432 85.9262 129.188 88.3379 132.589C89.9566 134.872 90.703 137.509 89.8431 141.141C88.8117 145.497 89.5744 148.631 92.012 150.928C94.0314 152.831 95.6337 155.333 98.219 156.407C103.085 158.429 106.269 162.647 108.157 168C110.791 175.466 115.819 177.866 123.31 176.89C127.871 176.295 132.18 177.047 136.894 176.001C138.401 175.667 139.858 176.302 141.22 176.758C142.773 177.277 144.454 177.075 146.193 176.637C149.848 175.715 152.413 173.049 153.948 168.733C154.867 166.147 155.405 163.585 155.254 161.17C155 157.113 155.764 152.785 155.995 148.601C156.151 145.77 156.85 145.184 159.399 144.199C162.542 142.985 164.55 144.801 166.924 145.488C169.087 146.114 171.036 147.341 172.568 149.232C174.765 151.946 177.793 153.232 181.278 153.802C186.385 154.637 191.236 156.129 197.068 154.519C200.79 153.492 203.266 150.834 205.061 146.797C205.606 145.57 205.938 144.256 206.267 142.982C206.72 141.227 207.026 139.472 207.488 137.719C208.209 134.982 209.211 133.9 211.445 133.766C212.983 133.674 214.484 133.886 215.894 134.228C217.743 134.678 219.684 134.627 221.705 133.468C225.982 131.015 229.705 131.334 233.175 132.482C236.163 133.471 239.212 133.077 242.702 131.901C248.12 130.075 252.752 131.089 256.316 134.554C258.052 136.241 259.526 138.227 261.645 139.451C264.767 141.253 268.079 140.966 271.735 137.711C275.192 134.632 277.449 128.775 277 124.343C276.825 122.605 276.143 121.118 275.919 119.398C275.706 117.763 274.676 116.084 276.36 114.151C277.798 112.501 279.558 112.404 281.002 112.699C285.117 113.54 288.863 115.103 291.621 118.405C294.273 121.58 293.838 125.057 290.235 129.442C289.164 130.746 288.043 131.998 287.013 133.343C283.583 137.82 283.265 141.759 285.754 145.026C287.825 147.743 290.647 149.259 294.077 148.74C300.577 147.756 304.196 151.857 308.603 154.9C314.063 158.67 319.729 162.167 327.51 161.193C334.341 160.337 345.218 149.286 347.754 140.539C348.596 137.633 348.614 135.15 347.825 132.933C346.833 130.143 345.868 127.329 344.405 124.913C343.082 122.728 342.163 120.19 341.653 117.356C340.907 113.214 341.938 110.505 345.61 107.815C349.815 104.736 354.067 101.772 358.354 98.9854C361.643 96.8475 362.513 97.7817 361.461 101.967C360.822 104.511 359.939 107.067 359.422 109.599C357.837 117.357 359.876 121.229 365.791 121.954C367.271 122.136 368.774 122.265 370.304 122.274C374.031 122.296 376.889 123.679 378.553 127.248C379.774 129.866 382.184 130.861 384.669 131.466C387.776 132.222 391.623 129.795 394.258 125.806C396.187 122.885 397.388 119.768 398.213 116.511C398.982 113.476 399.912 110.446 401.492 107.544C404.308 102.37 406.318 100.967 410.543 101.437C412.522 101.657 414.442 102.063 416.362 102.457C420.594 103.327 424.883 101.932 429.189 98.2155C432.056 95.7406 435.037 93.8203 438.149 92.4943C440.839 91.3477 443.012 89.0879 445.073 86.6201C446.711 84.6581 448.401 82.7986 450.347 81.4369C453.887 78.9599 456.676 79.2574 457.775 82.8295C459.473 88.3483 461.331 93.6693 464.444 97.9732C465.277 99.1241 465.366 100.767 465.064 102.608C464.831 104.032 464.657 105.487 464.707 106.827C464.83 110.131 467.592 111.676 470.499 110.092C471.548 109.521 472.594 108.74 473.567 107.893C480.299 102.042 486.733 99.7738 492.954 102.554C495.152 103.537 497.816 103.345 500.505 102.752C501.98 102.427 503.543 101.971 504.87 100.683C508.993 96.6831 513.084 92.6221 517.12 88.4775C519.878 85.6438 520.595 82.4441 520.127 79.1565C519.597 75.4395 519.937 74.6279 523.306 72.8625C526.835 71.0135 529.693 68.3269 531.672 64.2093C533.281 60.8612 535.476 58.7701 538.438 57.6233C540.567 56.799 542.677 55.3576 544.809 54.3466C552.165 50.8593 556.346 51.7316 559.471 58.0522C562.571 64.3192 568.425 65.0433 574.617 65.0352C578.409 65.0302 582.137 65.1 584.584 67.8763C586.492 70.0403 588.82 71.4261 591.148 72.8908C592.903 73.995 594.85 74.5381 597.07 74.5369C602.829 74.5339 607.304 76.5646 609.31 82.7156C609.844 84.3522 610.842 85.7546 611.949 86.8409C614.365 89.2131 617.678 88.0307 620.363 84.0665C620.736 83.5168 621.054 82.9187 621.366 82.3279C624.301 76.7652 625.193 76.3707 628.701 79.1292C631.377 81.233 633.405 84.0324 634.699 87.6425C636.481 92.6103 638.633 97.2124 642.232 100.405C643.594 101.614 644.459 103.393 645.408 105.067C646.583 107.14 648.177 108.517 650.687 108.437C653.608 108.343 655.525 109.69 656.391 112.833C657.056 115.245 658.606 116.882 660.203 118.368C661.02 119.127 661.651 120.049 662.113 121.155C663.438 124.329 662.926 126.142 659.626 128.812C657.586 130.463 655.794 132.399 654.141 134.53C652.019 137.266 649.672 138.396 647.342 138.031C644.177 137.534 641.011 137.994 637.59 140.049C636.957 140.429 636.228 140.609 635.593 140.65C631.422 140.92 627.486 142.719 623.445 146.117C621.116 148.075 618.328 148.189 615.904 148.28C611.773 148.436 607.473 149.459 603.433 149.157C600.393 148.929 597.583 150.532 595.399 154.22C594.167 156.302 592.611 157.526 590.809 158.334C588.501 159.369 586.419 160.981 584.322 162.89C578.615 168.087 572.368 170.792 566.829 166.711C564.312 164.857 561.647 163.241 558.507 161.894Z"/>
    </mask>
    <path d="M558.507 161.894C556.362 160.656 553.914 159.378 551.602 157.875C548.571 155.903 545.011 155.004 541.622 153.803C538.867 152.828 536.406 151.395 533.883 150.038C532.66 149.38 532.067 148.018 531.66 146.564C530.512 142.463 528.263 139.963 524.269 139.74C521.169 139.566 518.784 137.885 516.371 136.339C513.707 134.632 510.657 133.918 507.378 133.672C506.004 133.57 504.58 133.525 503.345 133.092C500.313 132.031 498.369 129.819 498.898 125.253C499.099 123.519 499.256 121.791 499.371 120.077C499.493 118.244 498.907 116.85 497.572 116.481C496.044 116.059 494.366 117.001 493.076 118.819C492 120.336 490.899 121.974 490.218 123.66C488.727 127.346 486.34 129.277 483.492 130.016C481.066 130.644 478.982 132.096 476.963 134.144C474.857 136.279 472.631 138.112 470.271 139.632C465.554 142.668 462.646 147.14 461.137 152.871C459.098 160.612 456.676 163.229 450.115 164.934C448.513 165.35 446.896 165.7 445.343 165.808C442.179 166.029 439.291 167.596 436.383 170.315C429.778 176.493 423.405 182.982 417.683 190.402C415.973 192.619 414.095 194.401 411.965 195.68C408.982 197.472 406.862 197.284 405.679 194.629C402.714 187.972 397.565 184.94 390.736 184.582C387.632 184.419 385.041 183.207 382.66 181.576C380.578 180.15 378.219 179.869 375.381 180.938C371.711 182.32 368.166 182.596 364.673 182.77C360.996 182.953 357.833 182.06 355.455 179.235C353.56 176.983 350.832 176.277 347.359 178.419C343.476 180.814 339.608 180.714 335.703 182.525C330.891 184.757 326.051 186.668 321.222 188.694C317.647 190.194 314.385 192.583 311.421 195.941C309.297 198.347 307.027 200.511 304.485 201.993C300.624 204.244 296.987 205.241 293.981 202.937C293.029 202.207 291.862 201.794 290.939 201.026C288.694 199.159 286.091 198.554 282.745 199.846C279.086 201.258 276.978 198.94 274.779 197.133C273.769 196.302 272.825 195.35 271.769 194.559C270.127 193.328 268.246 193.065 265.926 194.363C262.638 196.203 259.825 195.789 257.248 194.703C254.059 193.359 250.613 193.145 246.747 194.42C241.347 196.201 236.05 197.155 230.823 197.543C228.294 197.731 225.868 198.454 223.329 200.508C220.554 202.754 219.212 201.907 219.663 198.396C219.863 196.837 220.356 195.206 220.835 193.617C221.463 191.534 222.007 189.48 222.131 187.432C222.36 183.671 221.281 181.542 218.28 181.145C213.996 180.578 210.663 178.239 207.112 176.275C205.885 175.596 205.416 174.191 204.775 172.917C202.924 169.237 200.793 169.003 197.008 172.249C194.78 174.159 192.558 175.925 190.127 177.193C189.097 177.731 187.955 178.579 187.166 179.595C182.477 185.638 177.902 191.704 176.908 199.53C176.281 204.465 174.685 206.614 170.583 208.703C168.286 209.872 166.148 211.429 164 213.129C160.836 215.633 159.731 215.488 157.283 213.587C154.463 211.396 150.697 211.454 147.008 211.476C143.679 211.495 140.276 211.817 136.94 211.865C132.289 211.932 128.167 210.569 124.075 209.155C122.676 208.672 121.163 208.587 119.541 209.06C116.194 210.037 112.842 211.064 109.491 212.205C106.153 213.342 103.771 216.105 102.659 219.973C101.763 223.088 100.248 225.418 97.9492 227.553C94.7065 230.564 93.8609 232.842 94.785 236.505C95.8371 240.674 96.9127 244.891 100.177 247.102C101.057 247.698 101.784 248.558 102.495 249.4C104.144 251.352 103.836 252.562 101.184 254.146C99.9335 254.893 98.7521 255.553 98.4136 257.269C98.1155 258.781 98.9644 259.432 99.8302 259.823C103.568 261.511 106.356 264.706 109.94 266.639C114.49 269.093 117.686 273.507 121.822 276.585C132.698 284.679 143.412 293.027 157.714 294.811C159.43 295.025 161.08 295.508 162.633 296.129C166.172 297.544 170.115 297.473 174.247 296.779C177.36 296.256 180.374 294.867 183.332 292.402C185.808 290.338 188.357 288.432 190.907 286.558C194.658 283.803 198.094 280.556 200.969 276.42C202.255 274.571 203.617 272.868 205.349 271.735C209.423 269.069 212.731 271.656 211.513 276.642C211.09 278.374 210.281 280.119 209.6 281.847C206.518 289.674 208.045 299.998 212.932 303.486C215.079 305.019 217.278 306.523 219.677 307.602C225.305 310.135 231.761 308.816 238.471 305.752C240.065 305.025 241.598 303.766 242.908 302.117C246.593 297.48 250.262 297.241 253.705 298.626C255.699 299.429 257.758 300.423 259.128 302.104C261.334 304.811 264.447 305.25 267.742 305.289C273.493 305.358 278.548 307.458 284.377 307.324C286.758 307.269 287.598 309.68 288.116 312.103C289.038 316.409 290.386 320.352 292.695 323.542C295.599 327.553 298.167 328.004 303.21 324.296C307.651 321.03 311.214 320.658 313.868 323.962C316.277 326.962 319.779 327.394 323.466 327.487C329.811 327.647 335.369 329.534 340.04 333.255C342.378 335.117 344.45 337.383 346.514 339.628C347.187 340.36 347.896 340.976 348.711 341.477C351.778 343.362 354.588 345.532 356.5 349.014C357.879 351.527 360.237 352.411 363.39 351.227C363.792 351.076 364.195 350.989 364.598 350.853C371.422 348.549 372.433 350.301 373.599 355.505C373.999 357.293 374.722 358.84 375.952 359.894C378.321 361.924 380.62 364.057 383.036 366.016C385.396 367.93 388.488 367.779 391.74 367.142C396.003 366.307 400.18 365.686 403.779 367.486C406.132 368.663 407.918 370.346 408.551 373.4C409.739 379.133 412.764 383.04 416.355 386.339C418.507 388.315 421.073 389.597 424.168 389.821C429.596 390.212 432.59 393.376 432.843 400.121C433.051 405.659 434.542 407.071 439.427 405.596C444.387 404.098 446.919 406.303 448.789 410.163C448.96 410.516 449.112 410.889 449.237 411.278C451.948 419.724 458.539 421.549 466.258 421.506C467.919 421.497 469.434 420.702 470.944 419.4C471.801 418.661 472.629 417.857 473.462 417.068C476.697 414.005 479.771 412.781 482.962 414.06C484.28 414.588 485.687 414.986 486.999 415.566C490.753 417.228 494.637 416.301 498.672 412.093C499.362 411.373 500.087 410.686 500.715 409.897C504.844 404.708 509.368 400.094 514.049 395.734C517.306 392.7 520.289 389.403 522.918 385.554C527.051 379.503 531.466 373.708 533.579 366.491C534.855 362.132 537.68 359.016 542.273 359.969C550.237 361.621 558.871 359.827 567.253 359.33C570.451 359.141 573.318 359.606 575.759 361.175C578.34 362.834 581.218 363.574 584.591 363.202C587.487 362.883 590.181 363.319 592.871 363.733C596.141 364.237 599.449 363.963 603.002 361.156C605.431 359.237 607.862 358.758 609.925 359.661C612.582 360.824 615.489 361.322 618.3 362.085C619.918 362.525 621.541 363.312 622.626 364.585C624.155 366.379 626.259 367.061 628.391 367.221C632.504 367.53 636.486 368.432 640.908 367.63C643.118 367.229 644.863 367.667 646.193 369.344C649.16 373.086 653.416 374.884 657.294 377.22C660.219 378.982 663.887 378.503 667.554 376.394C672.445 373.582 676.868 372.812 681.037 374.295C682.54 374.83 684.27 374.614 685.954 374.471C689.756 374.147 692.441 375.562 693.843 379.294C694.453 380.916 695.322 382.339 696.101 383.825C697.877 387.211 697.444 389.176 693.66 392.03C688.683 395.784 685.847 401.031 683.527 406.802C681.679 411.401 681.868 415.322 683.429 418.731C684.848 421.827 686.475 424.729 687.726 427.987C689.036 431.402 691.678 432.04 695.344 430.43C696.15 430.077 696.959 429.723 697.757 429.304C701.189 427.501 704.205 427.369 706.52 429.523C708.996 431.825 711.977 433.387 714.247 435.993C716.874 439.009 717.054 443.789 718.138 447.908C718.498 449.278 717.532 450.64 716.297 451.712C710.672 456.595 707.345 462.93 705.116 470.054C704.212 472.944 702.575 475.597 700.8 478.161C697.832 482.449 695.537 486.973 694.964 491.967C694.249 498.195 691.323 503.996 688.251 509.744C687.04 512.01 685.773 514.267 684.388 516.425C680.416 522.612 677.652 529.074 676.403 535.948C676.14 537.396 675.635 538.817 674.923 540.212C672.453 545.047 671.405 549.973 670.57 554.926C669.819 559.375 669.068 563.829 668.157 568.294C667.372 572.137 666.317 575.976 663.586 579.349C662.323 580.909 662.018 582.46 663.065 583.49C664.636 585.035 666.36 586.453 669.036 585.555C671.706 584.661 674.373 584.458 677.061 582.621C677.786 582.126 678.683 581.953 679.436 581.921C680.896 581.861 681.751 582.737 681.51 584.586C681.303 586.18 680.314 587.448 678.982 587.966C675.897 589.166 672.786 590.495 669.731 591.244C667.515 591.788 665.407 592.507 663.442 594.302C660.762 596.75 658.19 597.322 655.69 596.81C652.648 596.188 649.652 595.78 646.086 597.733C644.809 598.433 643.494 598.16 642.298 597.794C640.775 597.328 639.13 596.99 637.481 599.238C635.847 601.467 635.846 603.344 636.62 605.341C638.119 609.209 637.505 610.6 633.491 613.324C631.286 614.82 629.072 616.064 626.73 616.709C624.361 617.362 622.38 617.309 620.536 616.167C616.642 613.756 615.897 614.08 611.484 619.185C607.505 623.789 603.32 626.556 598.577 626.138C597.275 626.023 596.191 625.649 595.269 624.84C592.97 622.825 587.571 623.51 584.611 626.071C582.873 627.574 582.343 629.483 582.18 631.348C581.814 635.544 581.972 639.603 580.947 643.972C580.705 645.003 581.027 646.07 581.241 647.025C582.055 650.648 582.986 650.743 585.679 647.124C587.629 644.504 589.635 643.252 591.99 643.392C594.129 643.52 596.32 643.531 598.351 643.954C600.023 644.301 601.933 644.938 601.92 647.273C601.905 650.161 601.748 653.041 602.409 655.642C602.667 656.657 602.027 657.688 600.991 658.558C597.824 661.222 593.633 661.793 591.496 659.387C590.328 658.071 589.04 657.066 587.465 656.437C584.752 655.355 582.278 655.118 579.325 659.391C577.263 662.373 574.261 662.716 571.593 663.203C570.54 663.395 569.521 663.231 568.47 663.533C566.748 664.028 565.303 665.163 564.672 667.495C564.328 668.767 563.76 670.043 563.483 671.307C562.757 674.621 560.772 676.83 558.295 678.202C555.519 679.738 552.733 681.19 549.967 682.822C548.062 683.946 546.188 683.935 544.498 683.623C538.146 682.451 532.598 686.233 527.97 693.248C524.728 698.162 520.801 702.191 517.303 706.742C515.501 709.086 513.459 710.298 511.261 710.662C508.566 711.108 505.97 711.976 503.307 713.931C499.688 716.588 497.046 715.523 494.971 713.118C494.176 712.197 493.606 710.995 492.997 709.86C491.635 707.319 489.875 705.322 487.424 704.176C482.717 701.974 479.494 697.566 475.313 694.57C473.466 693.247 472.893 690.629 473.19 687.723C473.764 682.097 471.494 679.592 467.361 679.124C465.184 678.877 464.131 677.111 462.919 675.596C460.482 672.55 457.51 670.978 453.117 671.997C449.525 672.83 446.381 671.785 444.182 669.509C442.026 667.278 439.313 666.566 436.396 666.163C433.362 665.743 430.942 664.492 429.067 662.017C427.196 659.547 424.888 657.603 422.267 656.142C420.28 655.035 418.429 653.769 416.864 651.973C415.415 650.31 413.513 649.081 411.275 648.811C408.711 648.501 406.758 647.189 404.758 645.871C403.163 644.82 401.655 643.557 399.421 643.843C394.489 644.473 390.575 643.012 387.47 639.6C385.34 637.26 382.883 635.324 380.576 633.203C380.219 632.876 379.773 632.62 379.554 632.166C379.112 631.249 378.323 630.329 379.019 628.942C379.94 627.107 381.348 627.421 382.311 627.654C386.708 628.718 391.223 629.314 396.077 628.928C397.952 628.779 399.16 630.068 400.434 631.233C404.353 634.816 408.259 638.429 413.658 639.62C415.606 640.05 417.609 640.092 419.727 639.72C423.205 639.108 426.524 638.923 429.534 640.064C433.897 641.718 438.547 639.219 443.128 635.928C445.554 634.185 447.919 632.196 450.234 630.154C457.664 623.602 461.722 613.378 459.454 605.349C457.097 597.004 453.982 589.193 447.351 584.95C445.076 583.494 443.838 580.869 442.761 578.117C442.226 576.75 441.82 575.276 441.253 573.936C439.36 569.464 437.087 568.373 432.226 571.052C428.296 573.218 425.959 570.582 426.02 567.017C426.1 562.425 426.288 557.796 426.357 553.209C426.377 551.866 426.878 550.692 427.59 549.491C428.384 548.152 429.352 547.057 430.423 545.972C435.64 540.687 435.604 540.673 439.52 544.656C441.774 546.948 444.718 546.956 448.172 545.048C450.291 543.878 452.401 542.655 454.515 541.459C456.684 540.232 458.946 539.986 459.918 541.667C463.332 547.57 469.513 548.047 475.307 549.402C477.436 549.9 479.425 550.766 481.429 551.566C483.133 552.247 484.753 553.274 485.189 555.416C486.49 561.802 491.053 564.03 495.824 565.202C502.329 566.799 507.849 570.041 513.422 573.284C519.02 576.541 525.388 578.165 531.547 580.233C532.566 580.575 533.688 580.883 534.839 580.706C541.025 579.756 546.309 581.42 551.854 582.505C558.562 583.817 565.464 584.691 572.908 583.738C577.484 583.153 581.901 583.496 586.411 583.327C592.275 583.107 597.903 579.842 603.285 575.133C609.847 569.391 611.351 561.649 606.749 557.05C603.059 553.363 599.115 549.983 594.525 547.64C591.027 545.854 588.294 543.356 586.895 538.946C585.396 534.222 581.899 532.132 577.308 532.157C574.792 532.171 572.644 531.566 570.723 530.29C567.968 528.459 564.828 527.693 561.074 528.608C558.982 529.118 557.264 528.611 555.729 527.58C551.053 524.438 545.594 523.999 539.222 526.439C536.349 527.539 533.637 527.506 531.36 526.273C528.159 524.541 524.511 524.568 520.497 526.161C517.54 527.335 515.349 526.966 513.835 524.58C512.126 521.885 509.797 520.015 507.327 518.289C505.265 516.848 503.761 514.717 502.916 511.85C501.851 508.237 500.109 505.476 496.619 504.544C494.096 503.871 493.036 501.028 492.048 498.382C490.291 493.678 487.278 490.587 483.034 489.133C480.76 488.353 478.336 487.956 475.778 487.882C469.719 487.706 465.433 482.044 465.586 474.713C465.727 468.01 463.195 464.094 457.248 464.505C450.581 464.965 444.702 462.866 437.972 463.7C435.831 463.965 434.06 463.26 432.341 462.333C429.512 460.807 426.343 459.656 423.821 457.852C419.584 454.82 414.53 453.522 410.136 450.924C408.025 449.676 407.584 448.718 408.847 444.979C410.757 439.324 410.062 435.377 406.764 432.774C406.394 432.482 406.245 431.824 405.838 431.633C404.26 430.894 403.301 429.368 402.389 427.863C400.272 424.367 397.2 422.458 393.482 421.482C391.057 420.846 389.482 419.371 390.232 415.629C391.305 410.271 389.146 407.815 385.582 406.76C377.91 404.489 369.983 402.934 361.43 403.219C356.844 403.372 352.615 402.738 349.314 399.84C348.684 399.286 347.86 399.006 347.153 398.553C344.41 396.795 341.485 397.585 338.212 400.586C333.78 404.65 332.618 404.861 329.864 401.106C326.854 397.005 322.445 395.496 317.935 394.148C315.055 393.287 312.313 392.379 309.875 390.549C306.242 387.821 302.204 385.678 297.666 384.546C292.565 383.274 287.912 381.111 283.491 378.469C280.715 376.81 277.819 375.356 274.989 373.789C273.316 372.862 271.788 371.785 270.488 370.231C267.785 366.999 264.214 365.198 260.366 363.65C255.144 361.55 250.063 359.159 244.709 357.308C243.017 356.722 241.392 355.779 240.155 354.469C238.531 352.751 236.584 351.631 234.612 350.515C233.372 349.813 232.141 349.142 230.668 348.814C228.651 348.364 226.881 347.263 225.42 345.768C223.222 343.518 220.798 341.761 217.94 340.431C211.869 337.606 206.085 334.223 200.838 329.942C197.855 327.508 194.375 325.756 190.483 325.066C186.43 324.348 183.623 321.66 180.907 318.964C177.943 316.021 174.288 314.742 170.201 314.266C163.367 313.47 157.808 310.314 152.858 306.005C151.017 304.403 149 303.016 146.746 302.274C141.783 300.641 138.117 297.344 135.451 292.561C133.735 289.483 130.718 288.536 127.657 287.857C123.132 286.852 118.393 286.426 113.512 286.504C112.219 286.524 110.931 286.62 109.552 287.398C106.676 289.023 105.199 291.757 105.289 295.069C105.378 298.382 107.129 300.163 108.992 301.588C112.034 303.915 114.811 306.666 118.303 308.315C121.501 309.825 123.582 312.883 125.79 315.697C127.302 317.625 126.642 319.413 124.308 321.741C122.074 323.97 119.797 324.524 117.691 324.239C112.49 323.535 107.764 321.734 103.893 318.382C99.4792 314.561 94.4411 311.905 89.0072 309.864C85.9774 308.726 82.959 307.555 80.0085 306.231C71.6133 302.464 63.8847 297.381 54.7448 295.074C52.8331 294.591 51.2579 293.432 49.796 292.177C45.199 288.231 40.0509 285.279 34.3526 283.233C32.7771 282.668 31.2124 281.852 30.0874 280.603C28.6644 279.023 26.9346 277.976 25.2131 276.934C20.9176 274.332 16.826 271.444 13.1789 267.87C13.0927 267.786 12.9864 267.724 12.8788 267.672C5.52522 264.111 -0.134547 257.797 -7.55222 254.32C-9.94713 253.197 -12.4479 252.339 -14.994 251.585C-20.6289 249.917 -25.4974 247.008 -29.8631 243.103C-32.6417 240.618 -35.776 238.605 -38.895 236.619C-41.2297 235.131 -43.195 233.143 -45.283 231.327C-50.2012 227.051 -55.2818 223.033 -60.9981 220.013C-64.056 218.397 -67.5386 217.623 -70.5073 215.773C-72.3488 214.626 -73.5883 212.662 -75.5986 211.788C-81.1846 209.361 -86.5205 206.43 -92.6368 205.089C-95.9921 204.353 -99.1255 203.151 -101.988 201.354C-114.582 193.451 -127.824 186.66 -140.494 178.9C-146.472 175.239 -152.656 171.765 -157.729 166.646C-161.376 162.966 -161.485 160.276 -157.79 154.232C-154.901 149.507 -152.975 144.876 -152.907 139.824C-152.882 137.979 -152.191 136.066 -151.315 134.144C-148.837 128.708 -149.252 124.417 -152.075 121.255C-153.62 119.525 -155.25 117.901 -156.843 116.231C-157.386 115.661 -157.722 114.932 -157.057 113.863C-156.419 112.838 -155.533 112.696 -154.821 112.87C-154 113.07 -153.301 113.566 -152.525 113.886C-145.513 116.78 -139.113 120.773 -132.587 124.538C-130.614 125.676 -128.383 126.196 -125.917 124.46C-120.181 120.421 -115.779 122.01 -111.283 123.485C-105.861 125.262 -101.24 128.53 -96.1762 130.974C-94.9994 131.542 -93.9599 132.3 -92.4945 132.371C-88.9239 132.546 -86.3169 130.844 -84.0397 126.53C-81.9189 122.513 -82.0466 119.612 -84.5897 117.245C-88.2054 113.879 -92.3699 111.298 -95.7659 107.592C-96.9596 106.29 -98.629 105.406 -100.542 105.179C-101.148 105.108 -101.708 104.862 -102.236 104.598C-103.127 104.152 -103.871 103.415 -103.649 102.022C-103.415 100.547 -102.314 99.7186 -101.197 99.154C-99.0635 98.0751 -96.9249 96.8068 -94.7882 96.0368C-90.5236 94.5002 -86.6784 95.0408 -82.9876 95.889C-81.4677 96.2383 -80.2668 97.2601 -79.7725 99.2148C-79.3663 100.821 -78.5503 102.283 -77.2036 102.842C-74.3578 104.022 -72.2064 106.016 -70.6883 108.982C-69.4302 111.44 -67.0326 111.453 -64.3612 110.614C-63.8268 110.446 -63.2878 110.142 -62.7506 109.907C-56.9764 107.383 -56.2302 107.631 -54.7705 113.269C-53.4918 118.208 -51.5416 120.869 -44.5864 118.168C-40.5559 116.602 -36.5526 114.767 -32.5451 114.193C-30.6248 113.918 -28.7393 112.6 -27.0818 111.023C-21.5619 105.77 -16.4149 105.931 -11.8784 107.623C-7.52832 109.246 -3.5574 108.912 1.33629 104.867C3.76202 102.862 6.57501 101.664 9.2403 100.388C11.5789 99.2687 12.2349 99.8033 11.7752 102.583C11.0563 106.929 11.5497 110.512 13.2677 113.537C14.0574 114.927 14.0113 116.784 13.8141 118.703C12.9043 127.558 16.476 132.07 22.7386 133.794C24.8835 134.385 26.612 135.677 28.5764 136.561C32.9666 138.536 37.5795 138.54 42.9415 134.801C45.5986 132.949 48.2566 132.2 50.7851 132.721C54.0036 133.386 57.3573 132.802 60.9496 130.884C62.5191 130.046 64.177 129.545 65.7654 129.186C68.2385 128.626 70.5773 127.452 72.8792 125.584C75.3448 123.583 77.4645 123.357 79.5967 124.518C83.1123 126.432 85.9262 129.188 88.3379 132.589C89.9566 134.872 90.703 137.509 89.8431 141.141C88.8117 145.497 89.5744 148.631 92.012 150.928C94.0314 152.831 95.6337 155.333 98.219 156.407C103.085 158.429 106.269 162.647 108.157 168C110.791 175.466 115.819 177.866 123.31 176.89C127.871 176.295 132.18 177.047 136.894 176.001C138.401 175.667 139.858 176.302 141.22 176.758C142.773 177.277 144.454 177.075 146.193 176.637C149.848 175.715 152.413 173.049 153.948 168.733C154.867 166.147 155.405 163.585 155.254 161.17C155 157.113 155.764 152.785 155.995 148.601C156.151 145.77 156.85 145.184 159.399 144.199C162.542 142.985 164.55 144.801 166.924 145.488C169.087 146.114 171.036 147.341 172.568 149.232C174.765 151.946 177.793 153.232 181.278 153.802C186.385 154.637 191.236 156.129 197.068 154.519C200.79 153.492 203.266 150.834 205.061 146.797C205.606 145.57 205.938 144.256 206.267 142.982C206.72 141.227 207.026 139.472 207.488 137.719C208.209 134.982 209.211 133.9 211.445 133.766C212.983 133.674 214.484 133.886 215.894 134.228C217.743 134.678 219.684 134.627 221.705 133.468C225.982 131.015 229.705 131.334 233.175 132.482C236.163 133.471 239.212 133.077 242.702 131.901C248.12 130.075 252.752 131.089 256.316 134.554C258.052 136.241 259.526 138.227 261.645 139.451C264.767 141.253 268.079 140.966 271.735 137.711C275.192 134.632 277.449 128.775 277 124.343C276.825 122.605 276.143 121.118 275.919 119.398C275.706 117.763 274.676 116.084 276.36 114.151C277.798 112.501 279.558 112.404 281.002 112.699C285.117 113.54 288.863 115.103 291.621 118.405C294.273 121.58 293.838 125.057 290.235 129.442C289.164 130.746 288.043 131.998 287.013 133.343C283.583 137.82 283.265 141.759 285.754 145.026C287.825 147.743 290.647 149.259 294.077 148.74C300.577 147.756 304.196 151.857 308.603 154.9C314.063 158.67 319.729 162.167 327.51 161.193C334.341 160.337 345.218 149.286 347.754 140.539C348.596 137.633 348.614 135.15 347.825 132.933C346.833 130.143 345.868 127.329 344.405 124.913C343.082 122.728 342.163 120.19 341.653 117.356C340.907 113.214 341.938 110.505 345.61 107.815C349.815 104.736 354.067 101.772 358.354 98.9854C361.643 96.8475 362.513 97.7817 361.461 101.967C360.822 104.511 359.939 107.067 359.422 109.599C357.837 117.357 359.876 121.229 365.791 121.954C367.271 122.136 368.774 122.265 370.304 122.274C374.031 122.296 376.889 123.679 378.553 127.248C379.774 129.866 382.184 130.861 384.669 131.466C387.776 132.222 391.623 129.795 394.258 125.806C396.187 122.885 397.388 119.768 398.213 116.511C398.982 113.476 399.912 110.446 401.492 107.544C404.308 102.37 406.318 100.967 410.543 101.437C412.522 101.657 414.442 102.063 416.362 102.457C420.594 103.327 424.883 101.932 429.189 98.2155C432.056 95.7406 435.037 93.8203 438.149 92.4943C440.839 91.3477 443.012 89.0879 445.073 86.6201C446.711 84.6581 448.401 82.7986 450.347 81.4369C453.887 78.9599 456.676 79.2574 457.775 82.8295C459.473 88.3483 461.331 93.6693 464.444 97.9732C465.277 99.1241 465.366 100.767 465.064 102.608C464.831 104.032 464.657 105.487 464.707 106.827C464.83 110.131 467.592 111.676 470.499 110.092C471.548 109.521 472.594 108.74 473.567 107.893C480.299 102.042 486.733 99.7738 492.954 102.554C495.152 103.537 497.816 103.345 500.505 102.752C501.98 102.427 503.543 101.971 504.87 100.683C508.993 96.6831 513.084 92.6221 517.12 88.4775C519.878 85.6438 520.595 82.4441 520.127 79.1565C519.597 75.4395 519.937 74.6279 523.306 72.8625C526.835 71.0135 529.693 68.3269 531.672 64.2093C533.281 60.8612 535.476 58.7701 538.438 57.6233C540.567 56.799 542.677 55.3576 544.809 54.3466C552.165 50.8593 556.346 51.7316 559.471 58.0522C562.571 64.3192 568.425 65.0433 574.617 65.0352C578.409 65.0302 582.137 65.1 584.584 67.8763C586.492 70.0403 588.82 71.4261 591.148 72.8908C592.903 73.995 594.85 74.5381 597.07 74.5369C602.829 74.5339 607.304 76.5646 609.31 82.7156C609.844 84.3522 610.842 85.7546 611.949 86.8409C614.365 89.2131 617.678 88.0307 620.363 84.0665C620.736 83.5168 621.054 82.9187 621.366 82.3279C624.301 76.7652 625.193 76.3707 628.701 79.1292C631.377 81.233 633.405 84.0324 634.699 87.6425C636.481 92.6103 638.633 97.2124 642.232 100.405C643.594 101.614 644.459 103.393 645.408 105.067C646.583 107.14 648.177 108.517 650.687 108.437C653.608 108.343 655.525 109.69 656.391 112.833C657.056 115.245 658.606 116.882 660.203 118.368C661.02 119.127 661.651 120.049 662.113 121.155C663.438 124.329 662.926 126.142 659.626 128.812C657.586 130.463 655.794 132.399 654.141 134.53C652.019 137.266 649.672 138.396 647.342 138.031C644.177 137.534 641.011 137.994 637.59 140.049C636.957 140.429 636.228 140.609 635.593 140.65C631.422 140.92 627.486 142.719 623.445 146.117C621.116 148.075 618.328 148.189 615.904 148.28C611.773 148.436 607.473 149.459 603.433 149.157C600.393 148.929 597.583 150.532 595.399 154.22C594.167 156.302 592.611 157.526 590.809 158.334C588.501 159.369 586.419 160.981 584.322 162.89C578.615 168.087 572.368 170.792 566.829 166.711C564.312 164.857 561.647 163.241 558.507 161.894Z" fill="#181717" stroke="white" stroke-opacity="0.41" stroke-width="2" mask="url(#path-3-inside-1_0_1)"/>
    <path d="M613.997 275.247C613.5 275.099 612.983 275.238 612.46 275.69C607.952 279.574 603.339 281.176 598.623 281.636C597.203 281.774 595.696 282.252 594.228 282.777C588.984 284.652 583.756 286.482 578.625 286.798C577.472 286.869 576.222 287.289 575.017 287.73C571.756 288.922 568.633 289.419 565.591 289.129C562.204 288.807 559.077 290.631 556.085 294.089C553.331 297.273 551.887 300.493 552.05 304.365C552.258 309.291 551.129 311.267 546.922 313.91C543.957 315.773 541.281 316.26 538.415 315.659C533.079 314.542 529.848 310.065 525.267 307.791C524.06 307.192 523.78 305.478 523.225 304.128C521.049 298.835 517.812 298.383 512.795 303.345C509.609 306.496 506.601 307.661 503.574 307.114C496.258 305.79 488.337 308.238 480.538 309.62C474.016 310.776 467.857 313.3 461.511 317.552C457.245 320.41 452.738 321.967 448.386 321.778C446.066 321.677 443.65 322.527 441.27 324.284C438.977 325.977 436.673 327.633 434.386 329.342C431.673 331.368 429.22 332.21 426.843 330.797C423.748 328.957 420.147 329.992 416.693 333.45C413.426 336.719 410.266 338.141 406.673 338.322C400.575 338.63 394.669 338.698 389.256 336.624C385.576 335.213 381.55 334.555 378.19 332.397C370 327.14 360.467 324.623 351.055 321.901C348.44 321.145 346.17 319.902 344.046 318.34C341.063 316.147 337.708 315.077 333.467 316.161C328.89 317.33 326.082 314.459 323.318 312.069C317.816 307.313 311.445 304.513 303.857 304.204C300.119 304.052 297.313 302.495 295.249 299.522C294.842 298.936 294.328 298.34 294.471 297.29C295.012 296.101 295.88 295.984 296.612 295.918C301.656 295.467 306.399 295.743 309.346 300.006C311.596 303.261 314.913 304.467 318.814 304.627C326.64 304.946 334.628 304.725 342.06 306.364C345.869 307.204 350.004 307.104 353.717 308.276C355.473 308.831 357.082 309.628 358.586 310.553C366.027 315.131 374.274 318.247 381.711 322.815C384.542 324.554 387.92 324.6 391.408 323.04C398.814 319.727 406.166 318.547 413.546 315.332C414.886 314.748 416.257 314.324 417.563 313.559C421.683 311.144 425.273 311.006 428.424 312.926C431.611 314.867 435.255 315.787 438.931 316.692C442.569 317.588 446.095 316.22 449.766 313.1C452.718 310.591 455.49 307.706 458.665 305.655C462.508 303.17 466.3 301.324 470.198 301.132C473.591 300.964 477.06 300.092 480.586 298.502C482.879 297.469 485.145 297.053 487.392 296.745C489.783 296.418 492.181 295.635 494.615 294.551C497.878 293.099 500.642 290.711 502.642 287.075C504.624 283.473 507.241 281.593 510.304 279.973C517.284 276.283 523.918 275.28 530.535 275.254C535.521 275.234 540.593 274.878 545.638 274.62C549.751 274.41 552.982 276.321 556.464 277.581C558.549 278.335 560.66 278.799 563.06 278.408C566.803 277.799 570.319 277.969 573.614 278.874C576.097 279.556 578.619 278.839 581.386 277.299C587.243 274.039 593.165 272.357 599.061 270.547C602.71 269.427 605.577 270.927 608.464 272.012C610.452 272.76 612.666 273.302 613.999 275.254C613.999 275.254 613.997 275.247 613.997 275.247Z" fill="#181717"/>
    <path d="M612.974 274.803C612.683 274.908 612.401 275.08 612.133 275.311C607.712 279.121 603.199 280.687 598.575 281.138L598.623 281.636L598.575 281.138C597.088 281.283 595.531 281.78 594.06 282.306C588.803 284.186 583.642 285.988 578.595 286.299C577.359 286.375 576.045 286.822 574.846 287.26C571.639 288.432 568.591 288.913 565.639 288.631C562.016 288.287 558.744 290.251 555.707 293.762C552.894 297.014 551.38 300.353 551.55 304.386C551.653 306.817 551.42 308.433 550.702 309.755C549.983 311.08 548.738 312.179 546.656 313.487C543.788 315.288 541.243 315.741 538.518 315.17C535.962 314.635 533.893 313.293 531.859 311.759C531.439 311.443 531.019 311.117 530.596 310.788C528.993 309.544 527.345 308.264 525.49 307.343C525.048 307.124 524.737 306.683 524.461 306.043C524.324 305.727 524.205 305.385 524.081 305.024L524.056 304.951C523.943 304.617 523.823 304.268 523.687 303.938C522.584 301.254 521.125 299.574 519.12 299.393C517.17 299.217 514.961 300.499 512.444 302.989C509.325 306.074 506.473 307.13 503.663 306.622C499.924 305.945 496.05 306.236 492.158 306.859C490.211 307.17 488.251 307.566 486.298 307.969C486.078 308.015 485.859 308.06 485.64 308.105C483.904 308.464 482.174 308.822 480.451 309.128C473.853 310.297 467.63 312.85 461.233 317.137C457.029 319.954 452.624 321.462 448.408 321.279C445.945 321.172 443.419 322.075 440.973 323.882C440.032 324.577 439.085 325.269 438.136 325.961C436.784 326.949 435.43 327.938 434.086 328.941C432.754 329.936 431.528 330.607 430.376 330.872C429.244 331.132 428.17 331.004 427.098 330.367C425.43 329.375 423.617 329.159 421.773 329.654C419.943 330.145 418.106 331.328 416.339 333.097C413.146 336.293 410.099 337.648 406.648 337.823C400.547 338.131 394.739 338.189 389.435 336.157C388.186 335.678 386.885 335.281 385.603 334.89C384.98 334.7 384.362 334.511 383.757 334.315C381.883 333.708 380.085 333.02 378.46 331.977C370.787 327.051 361.95 324.512 353.213 322.002C352.539 321.808 351.866 321.615 351.194 321.421C348.647 320.684 346.43 319.473 344.342 317.937C341.261 315.672 337.755 314.549 333.343 315.676C329.367 316.692 326.844 314.486 324.239 312.208C324.042 312.036 323.844 311.863 323.645 311.691C318.065 306.867 311.588 304.019 303.878 303.705C300.295 303.559 297.634 302.08 295.659 299.237C295.62 299.181 295.582 299.126 295.545 299.073C295.176 298.55 294.884 298.135 294.958 297.43C295.178 296.977 295.439 296.756 295.692 296.631C295.975 296.49 296.29 296.449 296.657 296.416C301.694 295.965 306.161 296.277 308.935 300.291C311.304 303.717 314.796 304.963 318.794 305.126L318.814 304.627L318.794 305.126C320.574 305.199 322.357 305.244 324.135 305.289C330.218 305.442 336.245 305.594 341.952 306.852C343.6 307.215 345.308 307.406 346.987 307.593C347.282 307.626 347.575 307.658 347.868 307.692C349.84 307.918 351.76 308.183 353.567 308.753L353.717 308.276L353.567 308.753C355.275 309.293 356.846 310.07 358.324 310.979C362.068 313.282 366.012 315.216 369.93 317.137L369.942 317.143C373.863 319.065 377.758 320.974 381.45 323.241C384.448 325.083 388.005 325.11 391.612 323.496C395.282 321.855 398.942 320.74 402.631 319.628L402.88 319.553C406.479 318.468 410.107 317.375 413.745 315.79C414.14 315.618 414.553 315.455 414.975 315.288C415.913 314.918 416.893 314.531 417.816 313.99L417.563 313.559L417.816 313.99C421.821 311.643 425.209 311.553 428.164 313.353C431.427 315.341 435.146 316.275 438.811 317.178C442.672 318.128 446.36 316.651 450.09 313.481C451.034 312.679 451.947 311.851 452.853 311.029C454.835 309.232 456.782 307.467 458.936 306.075C462.761 303.602 466.46 301.817 470.223 301.631C473.685 301.46 477.215 300.57 480.791 298.958C483.018 297.955 485.226 297.546 487.46 297.24C489.911 296.905 492.356 296.104 494.818 295.008C498.18 293.512 501.026 291.049 503.08 287.316C504.997 283.832 507.521 282.01 510.538 280.415C517.426 276.773 523.975 275.78 530.537 275.754C534.414 275.738 538.345 275.52 542.261 275.303C543.397 275.24 544.532 275.178 545.664 275.12C547.633 275.019 549.401 275.425 551.124 276.022C551.987 276.321 552.834 276.666 553.691 277.02L553.868 277.092C554.664 277.421 555.472 277.753 556.294 278.051C558.42 278.82 560.623 279.312 563.14 278.902C566.818 278.303 570.261 278.472 573.482 279.356C576.152 280.089 578.817 279.301 581.629 277.736C586.982 274.757 592.389 273.107 597.836 271.445C598.293 271.305 598.75 271.166 599.208 271.025C602.219 270.101 604.639 271.052 607.175 272.049C607.543 272.194 607.913 272.339 608.288 272.48C608.589 272.594 608.888 272.7 609.183 272.805C609.898 273.059 610.591 273.305 611.258 273.631C611.894 273.942 612.477 274.312 612.974 274.803Z" stroke="white" stroke-opacity="0.41"/>
    <path d="M117.772 463.687C115.244 462.626 113.796 460.209 112.331 457.827C110.272 454.481 108.235 451.157 105.02 449.14C102.916 447.821 100.48 447.605 97.9341 447.561C96.6658 447.539 95.3437 447.697 94.1088 447.575C90.6155 447.23 90.0446 444.779 92.1952 440.398C94.1327 436.45 96.4825 433.964 100.189 432.557C105.583 430.51 110.118 425.489 114.409 420.587C117.185 417.416 117.372 414.392 115.654 411.247C114.67 409.447 113.444 407.87 112.537 406.005C111.682 404.247 112.136 403.016 114.084 402.612C120.059 401.373 124.838 397.307 129.028 391.23C129.485 390.568 130.197 389.978 130.834 389.625C137.304 386.038 143.489 381.002 150.098 378.152C151.028 377.751 151.97 377.573 152.904 377.198C154.896 376.397 155.912 377.178 156.107 379.259C156.476 383.223 156.892 387.169 157.119 391.195C157.242 393.376 156.44 395.484 154.637 397.398C147.536 404.937 144.674 414.233 141.949 423.512C140.635 427.988 142.271 430.511 144.909 432.091C148.189 434.055 151.155 436.466 153.943 439.163C156.526 441.662 158.334 444.888 159.144 448.973C159.904 452.805 161.683 455.347 164.707 456.644C167.277 457.747 169.336 459.604 170.761 462.265C172.238 465.022 171.645 466.503 168.418 467.711C164.265 469.264 160.19 469.197 155.996 471.242C155.739 471.367 155.443 471.252 155.206 471.408C148.939 475.548 144.434 473.785 140.11 470.759C137.077 468.637 133.376 467.69 129.556 467.19C125.351 466.639 121.514 465.277 117.772 463.687Z" fill="#181717"/>
    <path d="M117.968 463.227L117.966 463.226C115.639 462.249 114.275 460.032 112.804 457.643L112.756 457.565L112.699 457.472C110.672 454.177 108.586 450.787 105.286 448.717C103.056 447.318 100.496 447.106 97.9429 447.061C97.4306 447.052 96.907 447.072 96.4 447.091C96.2626 447.096 96.1265 447.101 95.9922 447.106C95.3517 447.127 94.7404 447.135 94.1579 447.077L94.1088 447.575L94.1579 447.077C93.3357 446.996 92.7341 446.795 92.3143 446.51C91.9056 446.233 91.6451 445.861 91.5197 445.375C91.2571 444.357 91.5767 442.792 92.644 440.618C94.5411 436.753 96.8075 434.375 100.366 433.025C105.899 430.925 110.514 425.797 114.785 420.917C116.222 419.276 117.02 417.636 117.213 415.965C117.407 414.292 116.988 412.647 116.093 411.007C115.657 410.211 115.175 409.456 114.704 408.719C114.632 408.606 114.56 408.494 114.488 408.382C113.946 407.531 113.426 406.691 112.987 405.786L112.537 406.005L112.987 405.786C112.585 404.961 112.553 404.381 112.718 403.999C112.876 403.633 113.289 403.287 114.185 403.101L114.084 402.612L114.186 403.101C120.337 401.826 125.211 397.646 129.44 391.514C129.845 390.926 130.495 390.385 131.077 390.062L131.077 390.062C133.676 388.621 136.232 386.946 138.769 385.284C139.409 384.864 140.048 384.446 140.686 384.032C143.865 381.97 147.033 380.018 150.296 378.611L150.098 378.152L150.296 378.611C150.732 378.423 151.175 378.286 151.644 378.144C151.675 378.134 151.706 378.125 151.738 378.116C152.173 377.984 152.632 377.846 153.09 377.661C154.029 377.284 154.579 377.345 154.9 377.562C155.237 377.789 155.516 378.31 155.609 379.305C155.681 380.081 155.755 380.855 155.829 381.629C156.134 384.816 156.438 387.993 156.62 391.223C156.734 393.249 155.996 395.226 154.273 397.055C147.079 404.693 144.191 414.102 141.469 423.371C140.789 425.688 140.856 427.559 141.485 429.079C142.113 430.595 143.273 431.694 144.652 432.52C147.892 434.46 150.827 436.845 153.595 439.522L153.943 439.163L153.595 439.522C156.103 441.948 157.863 445.081 158.654 449.071C159.437 453.019 161.297 455.725 164.509 457.104C166.974 458.161 168.948 459.939 170.32 462.501C171.042 463.849 171.167 464.728 170.893 465.374C170.612 466.036 169.836 466.646 168.242 467.242C166.477 467.903 164.728 468.263 162.934 468.633C162.664 468.689 162.392 468.745 162.12 468.802C160.051 469.237 157.933 469.741 155.777 470.792L155.777 470.792C155.76 470.801 155.737 470.806 155.57 470.814L155.561 470.814C155.429 470.82 155.171 470.832 154.931 470.991L154.931 470.991C151.876 473.009 149.301 473.559 146.99 473.275C144.662 472.988 142.536 471.847 140.397 470.35C137.266 468.159 133.472 467.199 129.621 466.694C125.482 466.152 121.693 464.81 117.968 463.227ZM117.772 463.687C115.295 462.647 113.856 460.307 112.42 457.972L112.331 457.827L112.304 457.783C110.254 454.452 108.221 451.148 105.02 449.14C102.916 447.821 100.48 447.605 97.9341 447.561L117.772 463.687Z" stroke="white" stroke-opacity="0.41"/>
    <path d="M248.576 634.288C246.503 632.674 244.385 630.978 242.156 629.762C238.403 627.716 234.574 625.735 230.656 623.955C229.985 623.65 229.151 623.606 228.571 624.738C228.14 625.58 228.501 626.259 228.971 626.67C230.873 628.332 232.89 629.84 234.702 631.621C237.322 634.197 237 637.28 233.977 640.828C232.661 642.372 231.176 642.906 229.725 643.262C226.652 644.016 223.592 644.612 220.532 645.228C219.177 645.501 217.988 645.304 216.947 644.607C215.652 643.741 214.338 642.872 212.895 642.286C210.412 641.28 209.103 639.122 208.253 636.232C207.366 633.219 206.19 630.401 202.853 630.261C200.841 630.177 198.909 630.941 196.949 632.42C193.575 634.965 190.582 635.092 187.895 633.638C184.428 631.762 180.938 629.944 178.072 627.059C176.804 625.782 175.014 625.19 173.489 624.238C167.846 620.716 164.718 615.165 166.279 605.864C166.713 603.278 166.725 600.895 165.977 598.775C165.468 597.335 166.193 596.391 167.616 596.132C170.675 595.575 173.126 596.451 175.076 598.423C177.154 600.524 179.789 601.616 182.413 602.81C186.758 604.786 191.087 606.76 194.791 609.959C201.973 616.16 210.627 619.449 221.19 617.682C232.059 615.865 241.864 617.52 251.813 618.855C256.106 619.43 260.55 619.562 264.945 619.826C268.781 620.056 269.286 620.982 268.019 625.901C265.654 635.085 266.873 638.588 273.324 640.882C274.036 641.135 274.606 641.457 274.981 642.179C275.365 642.921 275.529 643.723 274.966 644.746C274.378 645.815 273.62 646.033 272.801 645.929C271.69 645.788 270.622 645.608 269.665 645.057C266.446 643.208 263.102 641.573 259.932 639.643C256.349 637.46 251.843 637.065 248.576 634.288Z" fill="#181717"/>
    <path d="M248.9 633.907L248.892 633.9L248.883 633.893C248.722 633.768 248.561 633.642 248.399 633.516C246.486 632.023 244.491 630.466 242.395 629.323C238.636 627.274 234.796 625.287 230.863 623.5C230.474 623.323 229.975 623.192 229.457 623.323C228.919 623.459 228.464 623.851 228.126 624.51C227.855 625.039 227.821 625.551 227.953 626.005C228.082 626.447 228.356 626.796 228.642 627.046C229.349 627.663 230.058 628.249 230.76 628.83C231.992 629.848 233.204 630.85 234.351 631.977C235.575 633.181 236.074 634.455 235.958 635.818C235.839 637.207 235.075 638.769 233.597 640.503C232.379 641.932 231.013 642.431 229.606 642.776C226.905 643.439 224.215 643.979 221.514 644.521C221.154 644.593 220.793 644.665 220.433 644.738C219.189 644.988 218.14 644.805 217.225 644.192C215.936 643.329 214.581 642.43 213.082 641.823C210.807 640.9 209.565 638.921 208.732 636.091C208.288 634.582 207.752 633.047 206.872 631.87C205.971 630.665 204.709 629.839 202.874 629.761L202.853 630.261L202.874 629.761C200.71 629.671 198.667 630.498 196.648 632.021C195.014 633.253 193.505 633.876 192.109 634.031C190.717 634.187 189.399 633.883 188.133 633.198C187.972 633.111 187.811 633.024 187.65 632.937C184.334 631.146 181.101 629.398 178.427 626.707C177.739 626.015 176.921 625.519 176.113 625.086C175.844 624.942 175.58 624.806 175.321 624.674C174.779 624.396 174.258 624.128 173.754 623.814L173.754 623.814C170.999 622.095 168.885 619.898 167.641 617.02C166.396 614.139 166.003 610.528 166.772 605.947C167.213 603.319 167.236 600.84 166.448 598.609L166.448 598.609C166.231 597.993 166.302 597.569 166.489 597.286C166.685 596.989 167.076 596.738 167.706 596.624C170.599 596.097 172.885 596.918 174.721 598.775C176.706 600.782 179.179 601.898 181.585 602.984C181.792 603.078 182 603.172 182.206 603.265L182.206 603.265C186.561 605.246 190.823 607.193 194.465 610.338C201.74 616.621 210.541 619.97 221.273 618.176C231.128 616.527 240.101 617.757 249.19 619.002C250.041 619.119 250.893 619.236 251.747 619.35C255.076 619.797 258.502 619.978 261.901 620.158C262.909 620.212 263.915 620.265 264.915 620.325C265.866 620.382 266.56 620.48 267.059 620.653C267.542 620.82 267.802 621.041 267.951 621.333C268.111 621.646 268.182 622.118 268.115 622.864C268.048 623.604 267.85 624.552 267.535 625.776C266.351 630.373 266.024 633.676 266.894 636.141C267.783 638.66 269.872 640.185 273.156 641.353C273.815 641.587 274.246 641.85 274.537 642.409C274.709 642.742 274.815 643.055 274.829 643.379C274.843 643.698 274.771 644.064 274.528 644.505C274.272 644.971 274.004 645.207 273.754 645.327C273.502 645.448 273.212 645.477 272.864 645.433C271.755 645.292 270.776 645.12 269.914 644.624C268.555 643.843 267.175 643.101 265.801 642.362C265.539 642.222 265.278 642.081 265.017 641.94C263.383 641.06 261.765 640.174 260.192 639.216C258.61 638.252 256.85 637.625 255.149 637.02C254.866 636.919 254.584 636.819 254.306 636.718C252.327 636.001 250.459 635.232 248.9 633.907ZM173.489 624.238C167.846 620.716 164.718 615.165 166.279 605.864C166.713 603.278 166.725 600.895 165.977 598.775C165.468 597.335 166.193 596.391 167.616 596.132L173.489 624.238Z" stroke="white" stroke-opacity="0.41"/>
    <path d="M126.828 595.19C128.073 595.997 129.094 596.381 129.688 597.432C132.153 601.802 136.539 602.399 141.197 602.448C141.708 602.454 142.225 602.435 142.743 602.411C144.214 602.343 144.972 603.225 145.178 604.803C145.396 606.476 144.595 608.348 143.353 609.174C138.772 612.22 136.485 616.794 134.294 621.962C132.521 626.144 125.161 630.953 121.856 630.837C119.991 630.771 119.162 629.376 118.792 627.483C118.412 625.537 118.243 623.462 117.8 621.559C116.875 617.586 114.651 616.157 110.718 617.525C106.154 619.111 102.538 617.926 98.9509 616.555C97.3823 615.956 95.9886 614.994 94.4653 614.294C91.9503 613.139 90.3793 611.154 90.0519 607.603C89.8401 605.305 88.9327 603.393 87.6798 601.767C85.1898 598.534 85.5414 596.984 89.2972 593.284C91.4063 591.206 93.5553 589.192 95.7126 587.201C97.9579 585.128 100.073 584.506 102.079 585.674C109.009 589.71 116.991 591.539 124.598 594.153C125.508 594.466 126.335 594.957 126.828 595.19Z" fill="#181717"/>
    <path d="M142.767 602.911L142.767 602.911C142.246 602.935 141.717 602.954 141.191 602.948C136.529 602.899 131.866 602.311 129.252 597.678C129.007 597.244 128.672 596.938 128.222 596.634C127.994 596.479 127.744 596.33 127.462 596.163L127.426 596.142C127.165 595.987 126.881 595.819 126.583 595.627C126.429 595.553 126.26 595.465 126.077 595.371C125.61 595.127 125.056 594.839 124.436 594.626L142.767 602.911ZM142.767 602.911C143.39 602.882 143.798 603.052 144.077 603.339C144.371 603.641 144.586 604.135 144.682 604.868C144.878 606.375 144.141 608.049 143.076 608.757C138.36 611.893 136.027 616.595 133.834 621.767C133.003 623.727 130.814 625.908 128.365 627.6C127.151 628.439 125.896 629.142 124.75 629.627C123.592 630.116 122.592 630.362 121.873 630.337L121.873 630.337C121.082 630.309 120.544 630.009 120.15 629.528C119.739 629.027 119.461 628.298 119.283 627.387L118.792 627.483M142.767 602.911L118.792 627.483M118.792 627.483L119.283 627.387C119.121 626.555 118.997 625.698 118.871 624.827C118.853 624.696 118.834 624.565 118.815 624.433C118.669 623.433 118.514 622.42 118.287 621.445C117.811 619.401 116.975 617.892 115.64 617.108C114.297 616.32 112.588 616.345 110.554 617.052C106.17 618.576 102.702 617.454 99.1294 616.088L118.792 627.483Z" stroke="white" stroke-opacity="0.41"/>
    <path d="M66.9838 38.9973C63.808 41.1996 60.8003 43.4877 57.9711 46.2867C56.4064 47.8345 54.6416 48.3356 52.9016 48.2074C48.9353 47.9149 45.6558 46.4386 43.2532 43.2738C41.6755 41.1956 39.9789 39.2671 37.741 38.0483C33.4211 35.6954 28.3765 37.1213 24.0523 42.5287C21.649 45.534 19.4885 46.9956 16.7059 46.4441C13.3463 45.7782 10.1689 47.7257 7.24317 51.1918C5.93527 52.7413 4.73455 54.5503 2.95052 53.8553C1.25086 53.1933 0.941063 51.3812 1.21396 49.2359C1.47438 47.1887 2.07522 45.077 2.32873 43.0316C2.97076 37.8516 2.33041 33.6435 -1.64403 31.9215C-3.73188 31.0168 -5.62251 29.7439 -7.11552 27.8852C-9.71243 24.6522 -13.5067 23.259 -16.7018 20.9444C-18.2613 19.8146 -20.7362 18.5633 -19.7986 16.2242C-18.6525 13.3651 -15.977 14.4939 -14.0298 14.3848C-8.57628 14.0792 -3.39003 14.2775 1.12603 16.9431C4.25672 18.7909 8.25737 19.1687 12.4925 18.2538C14.9684 17.719 16.8934 18.2299 18.5452 19.9603C20.9243 22.4526 24.0457 23.8472 27.6391 24.0389C34.0412 24.3804 39.232 27.4347 44.8547 29.4879C51.6009 31.9516 57.4584 36.305 65.1161 36.8422C65.711 36.8839 66.1998 37.3326 66.679 37.6827C66.838 37.7988 66.8117 38.1998 66.9838 38.9973Z" fill="#181717"/>
    <path d="M-6.7257 27.572L-6.72571 27.572C-8.0766 25.8903 -9.73039 24.6984 -11.42 23.646C-11.9979 23.2861 -12.5733 22.946 -13.1429 22.6093C-14.263 21.9473 -15.3604 21.2987 -16.4084 20.5395C-16.6099 20.3935 -16.8249 20.2465 -17.039 20.1003L-17.0549 20.0894C-17.2657 19.9455 -17.4765 19.8015 -17.6843 19.6527C-18.112 19.3464 -18.5066 19.0336 -18.821 18.6967C-19.1346 18.3606 -19.3501 18.0195 -19.4467 17.66C-19.5407 17.3095 -19.5322 16.9035 -19.3345 16.4102L-19.7983 16.2243L-19.3345 16.4102C-19.0786 15.7719 -18.7539 15.3934 -18.4083 15.1607C-18.0586 14.9252 -17.6467 14.8114 -17.1727 14.7715C-16.6928 14.7311 -16.1799 14.7683 -15.6336 14.8144C-15.5956 14.8176 -15.5573 14.8209 -15.5189 14.8241C-15.0225 14.8665 -14.4937 14.9116 -14.0019 14.884L-14.0296 14.3896L-14.0019 14.884C-8.56253 14.5792 -3.50743 14.7888 0.871871 17.3737C4.14016 19.3027 8.27783 19.6758 12.598 18.7425C13.7779 18.4876 14.7933 18.489 15.694 18.7393C16.5916 18.9888 17.41 19.4952 18.1835 20.3056C20.6553 22.895 23.8988 24.3401 27.6124 24.5382L27.6391 24.0389L27.6124 24.5382C30.7407 24.7051 33.5843 25.5349 36.3618 26.589C37.6497 27.0777 38.9175 27.6123 40.1946 28.1508C40.2959 28.1936 40.3973 28.2363 40.4988 28.2791C41.8757 28.8593 43.2647 29.4396 44.6832 29.9576C46.8953 30.7654 48.9919 31.7696 51.1137 32.7858C52.209 33.3103 53.311 33.8381 54.439 34.3437C57.7245 35.8164 61.166 37.0663 65.0811 37.341L65.1161 36.8422L65.0811 37.341C65.2623 37.3537 65.4518 37.4299 65.675 37.5702C65.8319 37.6688 65.9713 37.7749 66.1264 37.8931C66.1842 37.9371 66.2441 37.9828 66.308 38.0303C66.3146 38.0597 66.3228 38.1024 66.3329 38.1646C66.3402 38.2093 66.348 38.2612 66.3567 38.3197C66.3752 38.4434 66.3981 38.5965 66.43 38.7734C63.341 40.9269 60.3973 43.183 57.6194 45.9312C56.164 47.371 54.5437 47.827 52.9383 47.7087C49.0869 47.4247 45.9515 46.0012 43.6514 42.9714C42.0653 40.8822 40.3158 38.8812 37.9801 37.6092C35.7017 36.3682 33.22 36.1221 30.7479 36.9015C28.2866 37.6776 25.8671 39.4587 23.6618 42.2164C21.2845 45.1892 19.2944 46.4474 16.8031 45.9537C13.1661 45.2328 9.82003 47.3638 6.86109 50.8693C6.70724 51.0516 6.55888 51.232 6.41407 51.4081C5.91332 52.017 5.45507 52.5742 4.95971 52.9775C4.6509 53.2289 4.35789 53.3928 4.06857 53.4652C3.78842 53.5353 3.48463 53.5268 3.13202 53.3895C2.44074 53.1202 2.03512 52.6295 1.81899 51.9502C1.59521 51.2469 1.57736 50.3414 1.70996 49.299C1.83644 48.3047 2.0455 47.2914 2.25923 46.2554L2.26362 46.2341C2.47738 45.1979 2.6953 44.139 2.82493 43.0931C3.14909 40.4777 3.15865 38.0491 2.55229 36.0356C1.93832 33.9969 0.692567 32.389 -1.44524 31.4627C-3.47625 30.5827 -5.29445 29.3539 -6.7257 27.572ZM66.2943 37.9811C66.2943 37.9811 66.2947 37.982 66.2954 37.9839C66.2947 37.9821 66.2943 37.9812 66.2943 37.9811Z" stroke="white" stroke-opacity="0.41"/>
    <path d="M103.759 44.3521C100.643 42.1261 97.1502 40.5562 94.3701 37.762C91.3803 34.7569 87.615 33.7683 82.6825 36.5903C80.8961 37.6123 79.2123 37.4407 77.6176 37.2476C76.0298 37.0554 75.8226 35.7309 76.9866 33.8548C77.6078 32.8536 78.408 31.9743 79.1125 31.0257C81.6946 27.5487 83.6211 23.8103 84.8012 19.7065C85.3942 17.6444 86.13 15.5675 86.9791 13.5466C88.2485 10.5253 89.0598 7.59532 89.2323 4.55386C89.4332 1.0119 90.166 0.126285 93.3087 -1.01932C94.5144 -1.45879 95.7196 -1.67166 96.927 -2.06441C101.826 -3.65767 105.128 -7.84038 106.014 -13.5779C106.234 -15.0004 106.321 -16.403 106.54 -17.8254C107.078 -21.3211 108.46 -24.509 111.119 -27.1322C113.361 -29.3449 115.31 -31.6892 116.656 -34.8061C117.796 -37.4449 118.979 -37.7684 120.4 -36.2373C122.066 -34.4419 122.388 -31.5656 122.524 -28.8096C122.817 -22.8753 124.605 -18.3488 128.073 -15.0398C128.979 -14.1752 130.448 -12.9158 129.34 -11.1276C128.123 -9.16248 126.743 -10.5677 125.557 -10.9673C119.661 -12.9539 115.087 -9.82244 112.162 -1.7182C111.071 1.3035 109.847 4.24706 108.104 7.03685C107.384 8.19034 106.671 9.40992 106.185 10.6516C102.55 19.9395 103.987 31.9585 109.397 36.8953C111.591 38.8974 113.301 41.2833 113.807 44.836C113.964 45.9384 114.405 47.1681 113.338 48.4051C112.114 49.8252 111.381 48.689 110.609 48.2738C108.292 47.0275 106.038 45.6676 103.759 44.3521Z" fill="#181717"/>
    <path d="M125.717 -11.4411C122.643 -12.477 119.857 -12.1884 117.462 -10.5386C115.094 -8.90697 113.171 -5.98701 111.691 -1.88797C110.605 1.12073 109.396 4.0261 107.68 6.77194C106.957 7.92963 106.223 9.18201 105.719 10.4694C103.869 15.1969 103.313 20.6076 103.903 25.4654C104.492 30.3106 106.232 34.6842 109.06 37.2646C111.195 39.2133 112.827 41.5005 113.312 44.9065L113.807 44.836L113.312 44.9065C113.339 45.0969 113.37 45.2802 113.401 45.4579C113.566 46.4196 113.703 47.2159 112.959 48.0786C112.687 48.3942 112.482 48.521 112.342 48.5691C112.215 48.6123 112.104 48.6052 111.976 48.5581C111.831 48.5051 111.677 48.4062 111.483 48.2647C111.453 48.2432 111.422 48.2202 111.389 48.1961C111.23 48.0787 111.038 47.9369 110.846 47.8335C109.187 46.9415 107.565 45.9933 105.934 45.0398C105.302 44.67 104.668 44.2995 104.03 43.9311C102.937 43.1515 101.789 42.4456 100.659 41.7503C100.17 41.4492 99.6834 41.15 99.2062 40.8477C97.6059 39.834 96.075 38.7666 94.7246 37.4094C93.1751 35.852 91.3915 34.7848 89.324 34.4958C87.256 34.2067 84.9702 34.7053 82.4342 36.1563L82.6825 36.5903L82.4342 36.1563C80.8039 37.089 79.2715 36.9442 77.6777 36.7513C77.3441 36.7109 77.1304 36.6164 76.9988 36.5106C76.8748 36.4109 76.7951 36.2791 76.7625 36.0952C76.6907 35.6913 76.8487 35.0254 77.4114 34.1184C77.7068 33.6423 78.0481 33.1898 78.4108 32.7302C78.5139 32.5995 78.6196 32.4672 78.7265 32.3335C78.9895 32.0043 79.2593 31.6666 79.5139 31.3238C82.1281 27.8036 84.0835 24.0118 85.2817 19.8447C85.8691 17.8021 86.5983 15.7438 87.44 13.7402C88.7247 10.6827 89.5549 7.69583 89.7315 4.58218C89.8315 2.81945 90.0628 1.84629 90.5684 1.16725C91.0734 0.488979 91.9131 0.0216004 93.48 -0.549557C94.0587 -0.76049 94.6413 -0.918554 95.2434 -1.07557C95.3129 -1.0937 95.3828 -1.11184 95.453 -1.13006C95.9844 -1.26801 96.5328 -1.41039 97.0817 -1.58893C102.186 -3.24913 105.598 -7.60675 106.508 -13.5016C106.62 -14.2258 106.698 -14.9431 106.774 -15.6476L106.774 -15.6479C106.851 -16.3559 106.926 -17.051 107.034 -17.7493C107.559 -21.1585 108.901 -24.2415 111.47 -26.7762C113.736 -29.012 115.734 -31.4087 117.115 -34.6079C117.391 -35.2459 117.659 -35.7194 117.917 -36.0515C118.176 -36.385 118.403 -36.5478 118.59 -36.6144C118.906 -36.7268 119.353 -36.6297 120.033 -35.8972L120.033 -35.8972C120.786 -35.0855 121.255 -34.0087 121.549 -32.7682C121.844 -31.5271 121.957 -30.1571 122.025 -28.785C122.322 -22.7589 124.144 -18.0977 127.728 -14.6781C127.767 -14.641 127.806 -14.6038 127.845 -14.5664C128.289 -14.1456 128.749 -13.7086 129.02 -13.1963C129.161 -12.9293 129.24 -12.6591 129.237 -12.3769C129.234 -12.0968 129.15 -11.7709 128.915 -11.3909C128.646 -10.9559 128.401 -10.7616 128.203 -10.6761C128.011 -10.5927 127.804 -10.5864 127.554 -10.6468C127.293 -10.7098 127.017 -10.837 126.701 -10.9948C126.661 -11.0146 126.621 -11.0349 126.58 -11.0557C126.312 -11.1906 126.01 -11.3424 125.717 -11.4411ZM125.717 -11.4411L125.557 -10.9673M125.717 -11.4411C125.717 -11.4411 125.717 -11.4411 125.717 -11.4411L125.557 -10.9673M125.557 -10.9673C125.814 -10.8808 126.08 -10.7472 126.351 -10.6109C127.333 -10.1173 128.386 -9.58779 129.34 -11.1276C130.399 -12.8366 129.104 -14.0626 128.197 -14.9226C128.155 -14.9625 128.113 -15.0015 128.073 -15.0398C124.605 -18.3488 122.817 -22.8753 122.524 -28.8096M125.557 -10.9673C119.661 -12.9539 115.087 -9.82244 112.162 -1.7182C111.071 1.3035 109.847 4.24706 108.104 7.03685L122.524 -28.8096M122.524 -28.8096C122.388 -31.5656 122.066 -34.4419 120.4 -36.2373M122.524 -28.8096L120.4 -36.2373M89.2323 4.55386C89.0598 7.59532 88.2485 10.5253 86.9791 13.5466L89.2323 4.55386ZM89.2323 4.55386C89.4332 1.0119 90.166 0.126287 93.3087 -1.01932M89.2323 4.55386L93.3087 -1.01932M93.3087 -1.01932C93.9817 -1.26461 94.6545 -1.4393 95.3276 -1.61408M93.3087 -1.01932L95.3276 -1.61408M95.3276 -1.61408C95.8604 -1.75245 96.3935 -1.89087 96.9271 -2.06441M95.3276 -1.61408L96.9271 -2.06441M96.9271 -2.06441C101.826 -3.65767 105.128 -7.84038 106.014 -13.5779M96.9271 -2.06441L106.014 -13.5779M106.014 -13.5779C106.125 -14.2909 106.201 -14.9989 106.278 -15.7068M106.014 -13.5779L106.278 -15.7068M106.278 -15.7068C106.354 -16.4114 106.43 -17.1159 106.54 -17.8254M106.278 -15.7068L106.54 -17.8254M106.54 -17.8254C107.078 -21.3211 108.46 -24.509 111.119 -27.1322M106.54 -17.8254L111.119 -27.1322M111.119 -27.1322C113.361 -29.3449 115.31 -31.6892 116.656 -34.8061M111.119 -27.1322L116.656 -34.8061M116.656 -34.8061C117.796 -37.4449 118.979 -37.7684 120.4 -36.2373M116.656 -34.8061L120.4 -36.2373" stroke="white" stroke-opacity="0.41"/>
    <path d="M32.2252 383.351C29.7618 382.413 28.126 380.137 25.9943 378.599C20.0463 374.307 12.9844 372.052 6.63708 368.494C4.96838 367.558 3.23352 366.738 1.58873 365.762C0.905262 365.357 -0.00190242 364.985 0.538228 363.488C1.02593 362.137 2.04355 361.791 2.97303 361.421C3.63762 361.157 4.31614 360.997 4.97292 360.895C7.80582 360.452 10.5543 359.337 13.2964 357.181C15.9628 355.084 18.4369 354.765 21.0007 355.407C24.3592 356.248 27.264 357.86 30.097 359.627C32.6531 361.222 35.3847 362.386 38.496 362.767C39.8893 362.938 41.1717 363.308 41.8771 364.632C44.7326 369.993 49.2541 373.194 53.9868 375.902C60.8364 379.821 67.1709 384.573 74.0122 388.489C76.1811 389.73 78.1811 391.295 80.8286 391.651C81.542 391.747 82.1701 392.206 82.7157 392.671C85.9301 395.411 89.3275 397.803 93.6027 398.674C94.304 398.817 94.8793 399.331 95.4532 399.764C96.4879 400.544 95.796 401.671 94.8748 402.405C93.3148 403.647 91.6954 404.144 90.269 403.511C89.3931 403.123 88.545 402.662 87.7632 402.11C85.5707 400.563 83.0884 399.838 80.132 400.042C76.0448 400.324 72.4531 399.011 69.2825 397.222C64.6661 394.619 59.5096 393.269 54.4663 391.672C50.2016 390.322 46.5602 387.757 42.1447 386.731C38.7145 385.933 35.0602 385.593 32.2252 383.351Z" fill="#181717"/>
    <path d="M32.5354 382.958L32.475 382.911L32.4031 382.883C31.26 382.448 30.2911 381.696 29.3185 380.827C29.0623 380.598 28.8036 380.359 28.541 380.116C27.8281 379.457 27.0862 378.77 26.2869 378.194C23.2729 376.019 19.985 374.366 16.6773 372.818C15.9465 372.477 15.2154 372.14 14.4861 371.804C11.9025 370.615 9.34005 369.436 6.88158 368.058C6.16459 367.656 5.4352 367.275 4.71349 366.898C4.58736 366.832 4.46146 366.766 4.3359 366.7C3.48862 366.256 2.65386 365.813 1.84375 365.332C1.77846 365.294 1.7182 365.259 1.661 365.226C1.54619 365.16 1.44372 365.101 1.3378 365.031C1.18889 364.931 1.08075 364.838 1.00656 364.737C0.889565 364.579 0.777009 364.3 1.00854 363.658L0.538228 363.488L1.00854 363.658C1.39605 362.584 2.1478 362.286 3.05555 361.927C3.08942 361.913 3.12351 361.9 3.1578 361.886C3.77857 361.639 4.41896 361.487 5.05019 361.389C7.96806 360.932 10.7963 359.783 13.6055 357.574C16.1458 355.576 18.4597 355.287 20.8793 355.892L21.0007 355.407L20.8793 355.892C24.1592 356.713 27.0098 358.291 29.8324 360.051C32.4324 361.673 35.2331 362.871 38.4351 363.264C39.7989 363.431 40.8534 363.774 41.4358 364.867C44.3591 370.355 48.9822 373.614 53.7385 376.336C57.1475 378.287 60.4307 380.446 63.7278 382.614L63.7419 382.624C67.0301 384.786 70.3324 386.959 73.7638 388.923C74.2126 389.179 74.6536 389.45 75.1023 389.726C75.1875 389.778 75.273 389.83 75.3589 389.883C75.8935 390.21 76.44 390.54 77.0046 390.843C78.1357 391.449 79.3569 391.958 80.762 392.147L80.8286 391.651L80.762 392.147C81.318 392.222 81.8486 392.589 82.3914 393.052C85.6232 395.806 89.1002 398.267 93.5029 399.164L93.6026 398.675L93.5029 399.164C93.7656 399.218 94.0235 399.345 94.3 399.527C94.4983 399.658 94.6816 399.8 94.8788 399.953C94.9664 400.021 95.0566 400.091 95.1522 400.163C95.341 400.305 95.4181 400.437 95.4489 400.543C95.4804 400.65 95.478 400.781 95.4237 400.942C95.3088 401.283 94.9892 401.674 94.5634 402.013C93.0654 403.206 91.6484 403.576 90.4718 403.054L90.269 403.511L90.4717 403.054C89.6199 402.676 88.8015 402.231 88.0515 401.702C85.763 400.086 83.1664 399.332 80.0977 399.543L80.132 400.042L80.0977 399.543C76.1433 399.816 72.651 398.548 69.5281 396.787L69.2825 397.222L69.5281 396.787C65.6265 394.586 61.3396 393.269 57.1166 391.971C56.2798 391.714 55.4455 391.458 54.6172 391.196C52.7662 390.61 51.0347 389.791 49.2688 388.955C49.0381 388.846 48.8069 388.737 48.5748 388.628C46.5779 387.688 44.5219 386.77 42.2579 386.243C41.5568 386.08 40.8672 385.94 40.1846 385.801C39.1429 385.589 38.1177 385.381 37.0939 385.1C35.4304 384.644 33.8795 384.021 32.5354 382.958Z" stroke="white" stroke-opacity="0.41"/>
    <path d="M254.49 281.33C253.494 282.173 252.855 282.289 252.194 282.298C247.192 282.365 242.06 283.167 236.9 284.142C231.416 285.179 227.109 283.032 222.674 281.332C220.78 280.606 221.001 278.183 222.84 275.954C224.359 274.113 226.175 272.768 227.975 271.613C231.012 269.661 232.848 267.152 233.469 263.315C233.88 260.769 234.626 260.417 236.507 261.226C237.869 261.812 238.836 262.913 239.589 264.246C241.696 267.978 244.584 270.423 248.415 271.849C252.01 273.187 253.406 277.208 254.49 281.33Z" fill="#181717"/>
    <path d="M251.956 275.788C252.812 277.334 253.403 279.2 253.923 281.145C253.572 281.414 253.287 281.568 253.043 281.658C252.75 281.766 252.487 281.794 252.187 281.798L252.187 281.798C247.141 281.865 241.973 282.674 236.807 283.651C232.131 284.535 228.356 283.039 224.455 281.493C223.924 281.283 223.391 281.071 222.853 280.865C222.474 280.72 222.226 280.501 222.072 280.243C221.915 279.98 221.836 279.642 221.856 279.231C221.897 278.399 222.348 277.336 223.225 276.272L222.84 275.954L223.225 276.272C224.697 274.489 226.463 273.178 228.245 272.033L228.245 272.033C231.391 270.012 233.317 267.383 233.962 263.395L233.962 263.395C234.063 262.774 234.179 262.319 234.314 261.992C234.45 261.667 234.588 261.51 234.708 261.432C234.82 261.36 234.976 261.318 235.237 261.349C235.507 261.382 235.855 261.49 236.309 261.685L236.309 261.685C237.534 262.212 238.43 263.212 239.153 264.492L239.153 264.492C241.318 268.326 244.298 270.849 248.241 272.318L248.415 271.849L248.241 272.318C249.892 272.932 251.06 274.167 251.956 275.788Z" stroke="white" stroke-opacity="0.41"/>
    <path d="M177.352 281.262C179.279 278.543 181.175 278.181 182.798 277.002C185.422 275.094 187.243 272.921 187.882 269.43C188.462 266.26 189.276 263.042 190.219 259.861C191.436 255.755 193.54 252.113 196.696 249.144C201.228 244.879 205.713 240.526 210.244 236.258C213.097 233.569 214.196 233.555 215.728 236.284C216.477 237.619 217.015 239.165 217.56 240.683C217.871 241.548 218.264 242.415 217.905 243.953C214.625 245.291 212.339 248.201 209.947 251.759C206.66 256.649 202.734 261.115 197.99 264.158C193.737 266.887 190.008 270.847 186.964 275.386C184.21 279.492 181.321 280.909 177.352 281.262Z" fill="#181717"/>
    <path d="M197.038 249.508L196.696 249.144L197.038 249.508C199.306 247.374 201.562 245.219 203.816 243.064L203.976 242.91C206.177 240.807 208.377 238.704 210.587 236.622L210.244 236.258L210.587 236.622C211.293 235.957 211.869 235.477 212.358 235.166C212.849 234.852 213.206 234.739 213.481 234.739C213.735 234.74 213.989 234.838 214.284 235.115C214.591 235.403 214.917 235.861 215.292 236.529C215.976 237.748 216.481 239.156 216.999 240.599C217.029 240.684 217.059 240.768 217.09 240.852C217.114 240.919 217.138 240.985 217.161 241.05C217.43 241.785 217.681 242.468 217.47 243.594C214.166 245.038 211.864 248.012 209.532 251.48L209.947 251.759L209.532 251.48C206.266 256.339 202.385 260.744 197.72 263.738C193.396 266.512 189.621 270.527 186.549 275.107C185.203 277.115 183.844 278.435 182.362 279.299C181.195 279.98 179.93 280.39 178.5 280.618C179.164 279.874 179.818 279.378 180.455 278.978C180.822 278.746 181.181 278.548 181.546 278.347C181.623 278.305 181.699 278.262 181.776 278.22C182.214 277.976 182.66 277.72 183.091 277.406L182.798 277.002L183.091 277.406C185.786 275.448 187.705 273.173 188.373 269.52C188.95 266.372 189.759 263.172 190.698 260.003C191.893 255.973 193.954 252.41 197.038 249.508Z" stroke="white" stroke-opacity="0.41"/>
    <path d="M362.813 475.452C361.708 477.413 360.256 478.524 358.532 478.907C355.318 479.62 352.287 479.695 349.418 478.93C347.573 478.438 346.676 477.211 346.671 474.901C346.669 473.686 346.747 472.437 346.675 471.253C346.515 468.612 345.621 466.649 343.628 465.718C342.872 465.365 342.098 464.986 341.502 464.396C340.095 463.003 340.734 460.881 342.909 459.583C344.1 458.873 345.3 458.544 346.51 458.279C351.227 457.25 355.607 457.423 359.663 458.745C365.188 460.547 366.684 468.569 362.813 475.452Z" fill="#181717"/>
    <path d="M349.547 478.447L349.418 478.93L349.547 478.447C348.708 478.223 348.138 477.849 347.766 477.312C347.388 476.768 347.174 475.995 347.171 474.9C347.17 474.499 347.179 474.081 347.188 473.656C347.205 472.845 347.222 472.01 347.174 471.222C347.009 468.494 346.071 466.307 343.84 465.265L343.84 465.265C343.077 464.908 342.38 464.561 341.854 464.04L341.854 464.04C341.285 463.477 341.137 462.79 341.342 462.095C341.553 461.379 342.155 460.615 343.165 460.013L343.165 460.013C344.286 459.344 345.422 459.029 346.616 458.768L346.616 458.768C351.256 457.755 355.546 457.929 359.508 459.221C362.052 460.05 363.713 462.322 364.27 465.285C364.827 468.25 364.261 471.857 362.377 475.207C361.329 477.066 359.985 478.072 358.424 478.418C355.267 479.119 352.321 479.187 349.547 478.447Z" stroke="white" stroke-opacity="0.41"/>
    <path d="M23.5413 581.5C22.2933 579.343 19.9887 578.644 17.6685 577.958C17.2118 577.823 16.7678 577.558 16.4669 577.181C15.677 576.19 14.8432 575.007 16.296 573.239C17.5892 571.666 18.9988 571.741 19.7907 572.889C21.5285 575.409 23.7843 577.104 26.2925 578.548C28.2348 579.666 30.2439 579.716 32.6217 578.056C36.0503 575.662 39.232 575.111 42.3144 575.927C43.8999 576.347 45.5943 575.983 47.3783 574.793C49.6773 573.259 52.1535 570.986 53.6884 573.947C55.1 576.67 54.3598 581.733 52.1991 584.653C47.8719 590.5 40.2053 592.327 36.843 588.28C33.9629 584.813 30.8245 581.86 25.7474 582.299C25.0127 582.363 24.3959 581.828 23.5413 581.5Z" fill="#181717"/>
    <path d="M16.8579 576.869L16.8578 576.869C16.4575 576.367 16.1303 575.911 16.0311 575.405C15.9406 574.944 16.0274 574.353 16.6823 573.556C17.2761 572.834 17.8338 572.567 18.2593 572.543C18.666 572.52 19.0622 572.714 19.379 573.173L19.3791 573.173C21.1753 575.777 23.5005 577.518 26.0431 578.981C27.0779 579.577 28.1609 579.905 29.3203 579.843C30.4778 579.781 31.6628 579.335 32.9079 578.466C36.2345 576.143 39.2667 575.637 42.1865 576.411L42.1865 576.411C43.9459 576.876 45.7869 576.456 47.6558 575.209L47.3783 574.793L47.6558 575.209C47.933 575.024 48.2122 574.829 48.4868 574.637L48.533 574.605C48.8242 574.401 49.1104 574.202 49.3938 574.015C49.9652 573.638 50.4971 573.33 50.9872 573.156C51.4744 572.983 51.8706 572.96 52.2045 573.083C52.5349 573.206 52.8969 573.507 53.2445 574.177C53.884 575.411 54.0593 577.24 53.7883 579.156C53.5185 581.064 52.8176 582.977 51.7972 584.356C49.6995 587.19 46.8001 589.037 44.044 589.69C41.2828 590.344 38.7483 589.791 37.2276 587.96C34.3342 584.478 31.0482 581.339 25.7044 581.801C25.4728 581.821 25.2346 581.751 24.9029 581.594C24.8115 581.551 24.7063 581.497 24.5914 581.439C24.38 581.331 24.1358 581.206 23.8844 581.1C22.5065 578.868 20.0592 578.144 17.8305 577.485L17.8105 577.479C17.4321 577.367 17.0831 577.152 16.8579 576.869Z" stroke="white" stroke-opacity="0.41"/>
    <path d="M212.52 410.154C209.133 407.241 205.152 403.785 201.136 400.381C199.672 399.14 198.097 398.058 196.625 396.83C196.08 396.375 195.554 395.817 195.244 395.115C194.658 393.789 194.097 392.233 195.102 390.41C196.315 388.21 197.754 388.917 199.081 389.081C201.807 389.419 203.725 391.516 206.559 391.64C207.683 391.689 208.701 392.118 209.828 392.149C211.746 392.201 213.002 393.194 213.628 395.08C214.764 398.5 216.524 401.167 219.376 402.666C220.092 403.043 220.508 403.946 221.171 404.44C222.307 405.288 223.191 406.235 222.108 408.448C221.018 410.675 219.55 411.899 217.6 412.067C215.818 412.221 214.523 411.392 212.52 410.154Z" fill="#181717"/>
    <path d="M201.459 399.999L201.459 399.999C204.373 402.47 207.27 404.968 209.932 407.264C210.93 408.125 211.895 408.957 212.816 409.749L212.82 409.751C214.837 410.999 215.98 411.705 217.556 411.569L217.557 411.569C219.275 411.421 220.618 410.356 221.659 408.229C222.165 407.193 222.166 406.551 222.002 406.105C221.829 405.634 221.434 405.26 220.872 404.841L201.459 399.999ZM201.459 399.999C200.716 399.369 199.946 398.781 199.186 398.203M201.459 399.999L199.186 398.203M196.945 396.446C196.429 396.015 195.968 395.515 195.701 394.913C195.124 393.608 194.657 392.252 195.54 390.651C196.085 389.663 196.621 389.411 197.106 389.356C197.376 389.325 197.664 389.351 197.99 389.404C198.097 389.421 198.217 389.443 198.344 389.466C198.565 389.507 198.805 389.551 199.02 389.578L199.02 389.578C200.216 389.726 201.248 390.239 202.371 390.796C202.433 390.827 202.495 390.858 202.558 390.889C203.73 391.47 205.004 392.072 206.537 392.139L206.537 392.139C207.043 392.161 207.53 392.268 208.067 392.386L208.085 392.39C208.616 392.506 209.197 392.632 209.815 392.649L209.815 392.649C210.687 392.672 211.373 392.908 211.906 393.322C212.442 393.737 212.864 394.364 213.154 395.237L213.627 395.08L213.154 395.237C214.313 398.727 216.136 401.527 219.143 403.109C219.402 403.245 219.628 403.488 219.908 403.827C219.938 403.864 219.968 403.901 220 403.939C220.239 404.232 220.525 404.583 220.872 404.841L196.945 396.446ZM196.945 396.446C197.643 397.028 198.364 397.577 199.096 398.134M196.945 396.446L199.096 398.134M199.186 398.203C199.156 398.18 199.126 398.157 199.096 398.134M199.186 398.203L199.096 398.134" stroke="white" stroke-opacity="0.41"/>
    <path d="M311.763 551.909C310.23 551.116 308.935 550.284 308.163 548.692C307.859 548.064 307.608 547.532 308.152 546.641C308.562 545.969 309.104 545.686 309.618 545.724C314.432 546.082 319.388 543.657 324.351 541.559C326.626 540.597 328.883 540.297 331.102 540.183C332.89 540.092 334.207 540.887 335.328 542.007C336.61 543.287 336.559 545.211 335.362 547.452C332.795 552.256 327.908 555.253 324.218 554.18C322.111 553.567 319.91 553.299 317.616 553.256C315.451 553.214 313.266 553.195 311.763 551.909Z" fill="#181717"/>
    <path d="M312.044 551.492L312.088 551.529C312.746 552.093 313.571 552.394 314.525 552.556C315.458 552.715 316.472 552.734 317.53 552.754C317.562 552.754 317.594 552.755 317.626 552.756L317.616 553.256L317.626 552.756C319.952 552.8 322.198 553.072 324.358 553.7L324.222 554.169L324.358 553.7C326.025 554.184 328.022 553.763 329.952 552.592C331.875 551.426 333.678 549.544 334.921 547.216C336.079 545.05 336.022 543.406 334.975 542.361C333.912 541.299 332.724 540.601 331.128 540.682L331.128 540.682C328.936 540.795 326.744 541.09 324.545 542.02L324.545 542.02C324.016 542.244 323.485 542.472 322.953 542.701C321.006 543.538 319.039 544.384 317.087 545.037C314.596 545.871 312.082 546.409 309.581 546.222M312.044 551.492L308.579 546.901C308.918 546.344 309.301 546.202 309.581 546.222M312.044 551.492L311.993 551.465C310.478 550.682 309.31 549.912 308.613 548.474C308.455 548.147 308.359 547.935 308.337 547.714C308.317 547.521 308.352 547.273 308.579 546.901L312.044 551.492ZM309.581 546.222L309.618 545.724L309.581 546.222C309.581 546.222 309.581 546.222 309.581 546.222Z" stroke="white" stroke-opacity="0.41"/>
    <path d="M203.272 223.025C202.097 222.362 200.963 221.566 201.548 219.447C202.147 217.279 203.352 215.438 205.246 214.413C207.001 213.465 208.381 213.615 209.238 215.192C210.103 216.784 210.792 218.527 210.969 220.578C211.143 222.59 209.961 224.104 208.214 224.128C206.436 224.152 204.736 223.865 203.272 223.025Z" fill="#181717"/>
    <path d="M203.521 222.591L203.518 222.589C202.929 222.257 202.452 221.943 202.169 221.509C201.907 221.108 201.767 220.534 202.03 219.58L201.612 219.464L202.03 219.58C202.603 217.504 203.741 215.796 205.484 214.853C206.315 214.404 206.98 214.259 207.494 214.348C207.98 214.432 208.425 214.742 208.799 215.431L208.799 215.431C209.644 216.985 210.302 218.66 210.471 220.621C210.549 221.521 210.321 222.272 209.917 222.791C209.517 223.305 208.927 223.618 208.207 223.628L208.214 224.128L208.207 223.628C206.483 223.652 204.881 223.372 203.521 222.591Z" stroke="white" stroke-opacity="0.41"/>
    <path d="M276.293 570.714C274.694 569.69 273.317 569.289 274.098 567.203C274.856 565.177 276.276 564.466 277.878 564.318C279.812 564.139 281.276 564.85 282.323 566.297C282.827 566.994 283.045 568.079 282.534 569.245C281.974 570.521 280.883 570.868 280.004 570.975C278.443 571.166 276.915 571.128 276.293 570.714Z" fill="#181717"/>
    <path d="M276.569 570.298L276.569 570.298L276.563 570.293C276.356 570.161 276.154 570.039 275.964 569.926C275.938 569.91 275.913 569.895 275.887 569.88C275.725 569.783 275.574 569.693 275.431 569.603C275.097 569.394 274.848 569.212 274.672 569.019C274.506 568.838 274.412 568.652 274.382 568.424C274.352 568.184 274.388 567.853 274.566 567.378C274.914 566.447 275.401 565.851 275.956 565.467C276.516 565.08 277.181 564.884 277.924 564.816C279.681 564.653 280.974 565.285 281.917 566.59L281.917 566.59C282.317 567.144 282.516 568.041 282.076 569.044C281.62 570.084 280.747 570.381 279.943 570.479L279.943 570.479C279.183 570.571 278.442 570.607 277.825 570.572C277.181 570.535 276.761 570.425 276.569 570.298Z" stroke="white" stroke-opacity="0.41"/>
    <path d="M36.5152 545.648C31.8018 548.988 27.7043 547.737 27.0171 543.068C26.7769 541.437 27.9058 540.841 28.7344 541.048C30.8302 541.572 33.1948 541.62 34.6259 543.518C35.1443 544.206 35.7515 544.794 36.5152 545.648Z" fill="#181717"/>
    <path d="M27.5117 542.996L27.5117 542.996C27.8346 545.189 28.9301 546.469 30.3919 546.88C31.7868 547.273 33.6568 546.92 35.7576 545.558C35.6559 545.448 35.5562 545.341 35.4584 545.235C35.0018 544.744 34.588 544.299 34.2266 543.819C33.5976 542.985 32.7584 542.543 31.7835 542.246C31.2929 542.096 30.777 541.986 30.2398 541.878C30.1479 541.86 30.0552 541.841 29.9619 541.823C29.517 541.735 29.0587 541.644 28.6133 541.533L27.5117 542.996ZM27.5117 542.996C27.4103 542.306 27.6048 541.929 27.8133 541.737M27.5117 542.996L27.8133 541.737M27.8133 541.737C28.0373 541.531 28.3511 541.468 28.6132 541.533L27.8133 541.737ZM27.0173 543.068L27.0171 543.068L27.0173 543.068Z" stroke="white" stroke-opacity="0.41"/>
    <path d="M281.833 291.648C287.779 288.989 289.266 289.519 290.712 294.437C286.889 295.201 285.684 294.845 281.833 291.648Z" fill="#181717"/>
    <path d="M286.432 294.051C285.408 293.731 284.352 293.046 282.781 291.778C283.918 291.292 284.857 290.951 285.646 290.756C286.602 290.519 287.285 290.51 287.808 290.677C288.313 290.839 288.735 291.188 289.126 291.817C289.465 292.361 289.768 293.095 290.071 294.051C288.488 294.337 287.453 294.369 286.432 294.051Z" stroke="white" stroke-opacity="0.41"/>
</svg>  