<svg preserveAspectRatio="none" width="358" height="629" viewBox="0 0 358 629" fill="none" xmlns="http://www.w3.org/2000/svg">
    <g clip-path="url(#clip0_46_1021)">
    <rect width="358" height="629" fill="#E8E3DD"/>
    <path d="M381 203.468C380.997 225.109 377.178 246.751 369.567 267.015C363.941 281.995 356.115 296.484 344.406 307.403C332.698 318.321 316.693 325.332 300.756 323.727C287.76 322.418 275.768 315.534 266.484 306.356C257.201 297.178 250.389 285.804 244.606 274.106C243.641 272.153 242.294 269.905 240.115 269.817C237.77 269.722 236.245 272.171 235.207 274.274C229.443 285.958 222.647 297.32 213.375 306.481C204.104 315.642 192.117 322.504 179.138 323.778C151.391 326.502 126.938 303.678 115.922 280.227C102.919 252.547 97.3396 221.502 99.4267 191.024C100.596 173.955 104.176 157.041 110.204 141.02C115.89 125.906 123.844 111.302 135.728 100.357C147.612 89.4118 163.845 82.4765 179.907 84.2864C192.616 85.7184 204.321 92.4666 213.418 101.445C222.516 110.424 229.221 121.541 234.851 133.011C236.009 135.37 237.872 138.165 240.463 137.711C242.243 137.399 243.338 135.644 244.208 134.062C255.274 113.921 268.861 92.3614 290.927 85.874C308.724 80.6418 328.562 87.0118 342.644 99.076C356.725 111.14 365.693 128.189 371.619 145.748C377.881 164.306 381.003 183.887 381 203.468Z" fill="#E2B63F"/>
    <g clip-path="url(#clip1_46_1021)">
    <mask id="path-3-inside-1_46_1021" fill="white">
    <path d="M523.918 -10.4533C521.204 -10.4714 518.179 -10.3847 515.163 -10.5384C511.207 -10.7399 507.33 -9.85066 503.451 -9.27785C500.299 -8.8123 497.179 -8.84243 494.04 -8.78469C492.519 -8.75673 491.215 -9.57257 490.039 -10.5455C486.72 -13.2899 483.222 -14.2642 479.299 -12.6423C476.252 -11.3829 473.07 -11.6449 469.934 -11.7869C466.471 -11.9437 463.18 -11.1376 459.924 -9.85464C458.561 -9.31715 457.18 -8.71109 455.77 -8.49831C452.307 -7.97597 449.256 -8.85881 447.282 -12.7284C446.532 -14.1987 445.744 -15.6435 444.923 -17.0584C444.045 -18.5712 442.731 -19.4163 441.259 -19.1079C439.576 -18.7548 438.49 -17.2489 438.248 -15.2222C438.046 -13.5306 437.887 -11.7313 438.153 -10.083C438.734 -6.47968 437.509 -3.86776 435.198 -1.997C433.23 -0.403702 432.034 1.69029 431.222 4.22878C430.375 6.87611 429.251 9.33753 427.828 11.6101C424.986 16.1504 424.643 21.0176 426.316 26.2561C428.576 33.3313 427.69 36.5049 422.368 40.8175C421.069 41.8702 419.719 42.878 418.299 43.6641C415.406 45.2658 413.507 47.8135 412.214 51.2871C409.277 59.1768 406.73 67.2108 405.309 75.6908C404.884 78.2251 404.063 80.4881 402.729 82.4661C400.861 85.2357 398.741 86.0414 396.174 84.4627C389.739 80.5046 383.191 80.4141 376.495 83.2073C373.452 84.477 370.326 84.681 367.174 84.4567C364.418 84.2607 362.02 85.1011 359.898 87.2302C357.154 89.9836 353.929 91.8001 350.697 93.5131C347.295 95.3164 343.799 96.0315 340.002 94.8564C336.976 93.9197 333.996 94.5873 331.851 97.8569C329.454 101.511 325.717 103.175 322.982 106.375C319.611 110.32 316.04 114.021 312.542 117.809C309.952 120.613 308.143 123.983 307.143 127.989C306.426 130.86 305.44 133.605 303.823 135.93C301.369 139.46 298.447 141.892 294.335 141.414C293.032 141.263 291.697 141.46 290.402 141.266C287.251 140.792 284.445 141.484 281.959 144.02C279.242 146.792 275.978 145.899 272.903 145.453C271.49 145.248 270.075 144.916 268.64 144.762C266.41 144.523 264.476 145.162 262.971 147.24C260.839 150.185 257.936 151.124 254.894 151.422C251.127 151.791 247.731 153.173 244.742 155.929C240.567 159.78 236.041 162.926 231.276 165.591C228.969 166.88 227.052 168.548 225.75 171.327C224.325 174.364 222.589 174.295 221.113 171.299C220.457 169.969 220.042 168.45 219.635 166.97C219.103 165.031 218.507 163.151 217.513 161.466C215.69 158.372 213.508 157.165 210.435 158.202C206.048 159.682 201.606 159.324 197.16 159.362C195.623 159.375 194.413 158.469 193.112 157.745C189.353 155.653 187.197 156.427 185.354 160.715C184.27 163.238 183.113 165.644 181.486 167.748C180.797 168.64 180.17 169.829 179.971 170.993C178.786 177.913 177.721 184.799 181.021 191.471C183.102 195.679 182.749 198.108 179.977 201.617C178.424 203.583 177.233 205.785 176.111 208.104C174.457 211.522 173.326 211.905 169.964 211.496C166.09 211.025 162.537 212.768 159.035 214.448C155.877 215.964 152.811 217.754 149.661 219.296C145.269 221.445 140.605 222.219 135.942 222.939C134.347 223.185 132.861 223.799 131.573 224.907C128.917 227.193 126.283 229.52 123.711 231.938C121.15 234.346 120.382 237.618 121.422 241.195C122.259 244.076 122.081 246.612 121.051 249.346C119.597 253.202 120.028 255.396 122.896 257.892C126.16 260.734 129.472 263.603 133.779 263.89C134.941 263.967 136.1 264.324 137.234 264.673C139.863 265.482 140.227 266.583 138.561 269.038C137.775 270.196 137.009 271.254 137.618 272.771C138.154 274.108 139.316 274.243 140.352 274.164C144.827 273.822 149.215 275.106 153.677 275.028C159.34 274.929 164.778 276.999 170.386 277.583C185.134 279.119 199.864 280.929 214.449 275.901C216.199 275.298 218.032 274.938 219.847 274.733C223.985 274.264 227.701 272.43 231.258 270.016C233.938 268.196 236.054 265.733 237.532 262.439C238.77 259.682 240.163 257.017 241.574 254.378C243.649 250.495 245.159 246.365 245.653 241.779C245.874 239.729 246.246 237.76 247.28 236.079C249.713 232.123 254.266 232.689 255.811 237.203C256.348 238.771 256.525 240.524 256.815 242.205C258.128 249.82 265.183 257.342 271.729 257.914C274.605 258.165 277.514 258.37 280.385 258.147C287.117 257.625 292.548 253.667 297.275 248.205C298.397 246.908 299.174 245.216 299.527 243.315C300.518 237.965 303.882 236.121 307.912 235.672C310.246 235.411 312.746 235.274 314.962 235.993C318.531 237.152 321.734 236.098 324.893 234.644C330.405 232.107 336.358 231.499 341.834 228.765C344.071 227.648 346.18 229.187 347.988 230.88C351.201 233.889 354.624 236.418 358.554 237.914C363.496 239.796 366.185 238.996 368.974 233.775C371.431 229.176 374.621 227.274 378.941 228.706C382.862 230.006 386.431 228.771 389.992 227.183C396.12 224.451 402.435 223.446 408.902 224.3C412.138 224.727 415.341 225.596 418.523 226.451C419.561 226.73 420.572 226.9 421.619 226.931C425.562 227.048 429.415 227.507 433.125 229.415C435.801 230.792 438.526 230.433 440.886 228.07C441.187 227.768 441.523 227.517 441.832 227.228C447.079 222.32 448.992 223.258 452.927 226.871C454.278 228.112 455.806 229.017 457.549 229.301C460.906 229.848 464.251 230.508 467.616 230.977C470.901 231.435 473.762 229.922 476.513 227.949C480.119 225.364 483.759 222.987 488.162 222.797C491.041 222.673 493.654 223.206 495.915 225.35C500.157 229.374 505.157 231.118 510.366 232.123C513.487 232.725 516.626 232.588 519.694 231.371C525.074 229.235 529.642 230.402 533.543 235.653C536.746 239.963 538.932 240.414 542.782 237.039C546.692 233.613 550.299 234.226 554.174 236.453C554.528 236.656 554.875 236.884 555.205 237.138C562.369 242.633 569.635 241.113 576.961 237.601C578.538 236.845 579.548 235.529 580.28 233.813C580.695 232.84 581.046 231.827 581.412 230.824C582.83 226.929 585.092 224.571 588.824 224.149C590.366 223.975 591.922 223.658 593.486 223.528C597.961 223.158 601.157 220.67 602.714 215.505C602.981 214.621 603.299 213.748 603.469 212.837C604.584 206.849 606.387 201.141 608.479 195.563C609.934 191.682 610.984 187.716 611.399 183.469C612.05 176.794 613.109 170.195 611.204 163.503C610.054 159.461 611.053 155.71 615.943 154.397C624.422 152.122 631.669 146.804 639.38 142.631C642.322 141.039 645.304 140.116 648.479 140.264C651.837 140.42 654.978 139.712 657.988 137.896C660.572 136.337 663.374 135.469 666.16 134.586C669.547 133.513 672.547 131.804 674.407 127.97C675.678 125.349 677.733 123.873 680.188 123.661C683.348 123.389 686.386 122.474 689.476 121.814C691.256 121.434 693.228 121.329 694.952 121.853C697.381 122.59 699.754 122.184 701.871 121.35C705.955 119.742 710.235 118.665 714.01 116.034C715.897 114.719 717.796 114.281 719.972 115.015C724.828 116.654 729.855 116.166 734.816 116.276C738.556 116.359 741.788 114.325 744.136 110.995C747.266 106.554 751.059 103.948 755.834 103.249C757.555 102.997 759.085 102.045 760.61 101.172C764.055 99.2008 767.379 99.1163 770.739 101.452C772.2 102.468 773.799 103.207 775.348 104.038C778.876 105.931 779.529 107.689 777.476 111.664C774.774 116.893 774.92 122.345 775.844 127.979C776.58 132.47 778.887 135.504 782.223 137.511C785.254 139.334 788.378 140.909 791.337 142.937C794.437 145.062 797.299 144.379 799.916 141.446C800.492 140.801 801.069 140.156 801.602 139.463C803.892 136.482 806.691 135.018 810.064 135.687C813.671 136.402 817.356 136.301 820.933 137.35C825.07 138.565 827.835 142.285 831.102 145.073C832.188 146 832.008 147.518 831.414 148.928C828.708 155.347 828.977 161.885 830.721 168.555C831.429 171.261 831.31 174.109 831.011 176.948C830.512 181.697 830.781 186.329 832.945 190.559C835.644 195.835 836.006 201.767 836.201 207.724C836.277 210.071 836.296 212.437 836.148 214.778C835.724 221.488 836.599 227.874 839.14 233.904C839.675 235.174 839.965 236.532 840.044 237.962C840.316 242.921 841.991 247.311 843.883 251.627C845.583 255.504 847.285 259.385 848.84 263.346C850.178 266.756 851.258 270.285 850.487 274.199C850.131 276.008 850.682 277.38 852.238 277.727C854.571 278.247 856.983 278.598 859.044 276.678C861.1 274.763 863.529 273.4 865.092 270.727C865.514 270.007 866.274 269.465 866.973 269.101C868.331 268.394 869.62 268.706 870.395 270.285C871.062 271.646 870.809 273.1 869.821 274.113C867.535 276.457 865.294 278.917 862.792 280.89C860.978 282.321 859.361 283.843 858.464 286.156C857.24 289.311 855.102 290.925 852.444 291.645C849.211 292.521 846.137 293.547 843.801 296.708C842.965 297.839 841.565 298.216 840.227 298.463C838.525 298.778 836.775 299.251 836.425 301.783C836.078 304.292 837.097 305.785 838.917 307.024C842.443 309.425 842.613 310.808 840.269 314.784C838.981 316.968 837.549 318.955 835.67 320.523C833.768 322.111 831.853 322.961 829.478 322.884C824.462 322.722 823.928 323.315 822.497 329.364C821.207 334.819 818.724 338.907 813.981 340.712C812.68 341.207 811.445 341.398 810.128 341.17C806.845 340.603 802.076 343.582 800.648 346.953C799.809 348.932 800.34 350.689 801.197 352.245C803.125 355.748 805.478 358.905 806.873 362.841C807.202 363.771 808.087 364.474 808.81 365.137C811.551 367.652 812.488 367.307 813.089 363.215C813.524 360.253 814.754 358.353 817.072 357.403C819.178 356.54 821.271 355.562 823.434 354.982C825.214 354.506 827.377 354.151 828.633 356.014C830.186 358.317 831.598 360.679 833.639 362.45C834.436 363.141 834.386 364.249 833.872 365.408C832.301 368.954 828.622 371.297 825.281 370.347C823.455 369.827 821.684 369.608 819.843 369.818C816.673 370.18 814.189 371.106 813.695 375.836C813.351 379.137 810.679 380.763 808.402 382.352C807.504 382.979 806.445 383.309 805.608 384.023C804.237 385.193 803.477 386.746 804.142 388.885C804.505 390.052 804.656 391.323 805.078 392.453C806.185 395.416 805.495 398.068 803.881 400.275C802.071 402.748 800.206 405.159 798.458 407.703C797.254 409.456 795.464 410.292 793.686 410.805C787.002 412.736 783.773 418.244 783.172 425.909C782.752 431.279 781.2 436.253 780.339 441.449C779.895 444.125 778.609 446.01 776.713 447.29C774.39 448.86 772.389 450.72 770.914 453.475C768.91 457.22 765.818 457.563 762.537 456.586C761.28 456.212 760.084 455.513 758.889 454.884C756.213 453.477 753.454 452.682 750.499 452.875C744.822 453.246 739.362 451.193 733.755 450.694C731.279 450.474 729.313 448.65 728.018 446.205C725.512 441.473 721.991 440.503 717.802 441.994C715.596 442.779 713.635 441.848 711.659 441.19C707.687 439.866 704.003 439.955 700.373 442.745C697.406 445.027 693.845 445.612 690.517 444.794C687.254 443.991 684.284 444.648 681.288 445.641C678.171 446.675 675.189 446.771 672.061 445.648C668.939 444.526 665.687 444.021 662.398 444.04C659.905 444.055 657.456 443.882 654.992 443.159C652.709 442.49 650.232 442.37 647.955 443.164C645.345 444.073 642.774 443.909 640.155 443.762C638.066 443.645 635.945 443.321 633.972 444.555C629.619 447.28 625.1 447.881 620.292 446.567C616.994 445.666 613.604 445.234 610.256 444.587C609.739 444.487 609.176 444.485 608.721 444.222C607.803 443.692 606.552 443.316 606.462 441.899C606.343 440.025 607.855 439.64 608.898 439.391C613.661 438.256 618.284 436.695 622.695 434.2C624.4 433.236 626.25 433.717 628.095 434.069C633.77 435.153 639.45 436.266 645.236 434.78C647.324 434.244 649.254 433.374 651.068 432.124C654.048 430.07 657.107 428.426 660.593 427.977C665.644 427.327 668.715 423.243 671.291 418.561C672.655 416.081 673.828 413.433 674.924 410.766C678.443 402.206 676.758 392.246 670.242 386.882C663.47 381.308 656.265 376.499 647.649 376.113C644.694 375.981 642.091 374.451 639.572 372.748C638.32 371.901 637.134 370.912 635.867 370.102C631.638 367.399 628.882 367.556 625.708 371.877C623.141 375.371 619.486 374.328 617.61 371.464C615.193 367.777 612.861 364.011 610.437 360.331C609.727 359.254 609.568 358.094 609.594 356.819C609.623 355.395 609.95 354.089 610.382 352.742C612.481 346.188 612.439 346.193 618.329 347.596C621.719 348.403 624.526 347.082 626.779 344.008C628.161 342.122 629.507 340.199 630.871 338.295C632.271 336.341 634.29 335.126 636.128 336.025C642.582 339.181 648.725 336.775 654.977 335.241C657.275 334.678 659.638 334.47 661.98 334.203C663.972 333.976 666.071 334.063 667.649 335.57C672.353 340.063 677.906 339.778 683.084 338.56C690.145 336.898 697.159 336.989 704.225 337.056C711.323 337.123 718.267 335.545 725.253 334.413C726.408 334.226 727.644 333.965 728.644 333.306C734.018 329.762 739.952 328.704 745.82 327.068C752.919 325.087 759.963 322.672 766.534 318.56C770.574 316.031 774.965 314.313 779.167 312.146C784.631 309.328 788.218 304.195 790.787 298.024C793.919 290.499 791.15 283.665 784.273 282.081C778.759 280.811 773.169 279.901 767.528 280.106C763.229 280.262 759.271 279.508 755.546 276.631C751.555 273.549 747.091 273.463 742.734 275.552C740.346 276.697 737.973 277.184 735.451 277.035C731.835 276.821 728.429 277.627 725.352 280.047C723.638 281.395 721.726 281.766 719.705 281.638C713.548 281.246 708.112 283.358 703.37 288.17C701.231 290.341 698.631 291.536 695.794 291.582C691.807 291.648 688.348 293.312 685.391 296.389C683.212 298.655 680.926 299.35 678.19 298.134C675.1 296.761 671.868 296.324 668.58 296.064C665.836 295.847 663.247 294.83 660.887 292.931C657.912 290.537 654.755 289.127 650.927 289.959C648.159 290.561 645.607 288.777 643.231 287.118C639.006 284.169 634.46 283.068 629.63 283.824C627.042 284.229 624.519 285.006 622.043 286.1C616.179 288.691 609.026 286.12 605.193 280.22C601.689 274.826 597.154 272.853 591.715 275.859C585.618 279.23 578.881 280.211 572.926 283.907C571.031 285.083 568.963 285.321 566.823 285.358C563.302 285.42 559.659 285.932 556.279 285.634C550.6 285.133 545.084 286.378 539.491 286.292C536.804 286.251 535.864 285.688 535.037 282.145C533.788 276.787 530.984 273.961 526.432 273.377C525.921 273.311 525.422 272.856 524.93 272.887C523.027 273.01 521.286 272.229 519.602 271.443C515.688 269.617 511.728 269.483 507.658 270.383C505.004 270.97 502.705 270.506 501.388 267.192C499.502 262.447 496.114 261.467 492.148 262.234C483.611 263.886 475.22 266.222 467.232 270.304C462.948 272.492 458.578 273.894 453.863 273.077C452.962 272.921 452.026 273.069 451.107 273.028C447.541 272.866 445.185 274.812 443.697 278.675C441.683 283.904 440.691 284.595 436.031 282.851C430.94 280.946 425.924 281.733 420.898 282.693C417.689 283.306 414.586 283.82 411.272 283.463C406.332 282.932 401.325 283.047 396.389 284.192C390.843 285.479 385.239 285.856 379.596 285.747C376.053 285.679 372.507 285.828 368.962 285.857C366.866 285.874 364.827 285.707 362.746 285.056C358.419 283.704 354.041 283.881 349.538 284.385C343.426 285.068 337.291 285.457 331.189 286.397C329.261 286.694 327.201 286.676 325.313 286.192C322.834 285.557 320.373 285.545 317.89 285.545C316.329 285.546 314.793 285.567 313.212 285.97C311.047 286.521 308.764 286.444 306.562 285.913C303.249 285.114 299.988 284.809 296.544 285.04C289.231 285.53 281.889 285.445 274.57 284.406C270.409 283.815 266.145 283.989 262.065 285.195C257.817 286.45 253.686 285.578 249.637 284.658C245.218 283.653 241.044 284.283 236.895 285.746C229.956 288.193 222.951 288.189 215.9 286.993C213.277 286.549 210.605 286.355 208.056 286.781C202.444 287.719 197.165 286.749 192.032 284.147C188.727 282.471 185.341 283.079 182.058 283.917C177.205 285.158 172.462 286.955 167.856 289.217C166.636 289.816 165.462 290.473 164.572 291.713C162.715 294.302 162.792 297.141 164.675 299.735C166.558 302.33 169.192 302.958 171.738 303.252C175.897 303.731 180.034 304.667 184.254 304.404C188.117 304.164 191.759 305.658 195.387 306.901C197.873 307.753 198.215 309.472 197.256 312.376C196.339 315.156 194.471 316.623 192.312 317.346C186.978 319.129 181.501 319.827 175.997 318.906C169.721 317.857 163.483 318.015 157.202 318.841C153.699 319.301 150.19 319.73 146.662 320.007C136.625 320.795 126.509 320.236 116.555 322.52C114.473 322.998 112.344 322.786 110.271 322.447C103.753 321.38 97.2498 321.353 90.7144 322.294C88.9076 322.555 86.9753 322.611 85.2262 322.125C83.0139 321.509 80.7991 321.456 78.5944 321.403C73.093 321.27 67.6301 320.817 62.2184 319.619C62.0905 319.59 61.9559 319.589 61.8252 319.596C52.8916 320.079 44.0767 317.608 35.1276 318.186C32.2382 318.372 29.3917 318.817 26.5585 319.365C20.2885 320.578 14.0746 320.459 7.79913 319.321C3.80516 318.597 -0.271207 318.409 -4.31884 318.234C-7.34882 318.104 -10.299 317.408 -13.2721 316.905C-20.2752 315.721 -27.2925 314.815 -34.374 314.989C-38.1623 315.082 -41.898 316.036 -45.7283 315.903C-48.1041 315.821 -50.35 314.817 -52.738 315.029C-59.3732 315.616 -66.0441 315.69 -72.5952 317.38C-76.1891 318.307 -79.8247 318.763 -83.5252 318.625C-99.8038 318.015 -116.097 318.582 -132.371 318.121C-140.049 317.904 -147.822 317.928 -155.429 316.144C-160.899 314.861 -162.462 312.77 -162.224 306.297C-162.038 301.237 -162.716 296.686 -165.393 292.637C-166.37 291.159 -166.75 289.326 -166.959 287.402C-167.55 281.962 -170.273 278.737 -174.677 277.494C-177.086 276.814 -179.52 276.258 -181.943 275.647C-182.769 275.439 -183.485 275.011 -183.431 273.861C-183.38 272.758 -182.614 272.245 -181.842 272.063C-180.951 271.852 -180.016 271.932 -179.104 271.837C-170.858 270.977 -162.597 271.268 -154.341 271.321C-151.845 271.337 -149.439 270.746 -148.033 268.254C-144.764 262.456 -139.71 261.736 -134.629 260.882C-128.502 259.852 -122.329 260.368 -116.182 260.03C-114.753 259.951 -113.353 260.085 -111.919 259.482C-108.424 258.011 -106.866 255.482 -107.038 251.025C-107.199 246.874 -108.895 244.625 -112.601 243.888C-117.87 242.841 -123.235 242.665 -128.479 241.249C-130.322 240.751 -132.391 240.8 -134.336 241.482C-134.951 241.698 -135.618 241.755 -136.264 241.783C-137.355 241.83 -138.462 241.58 -139.008 240.371C-139.584 239.093 -138.986 237.938 -138.229 236.985C-136.783 235.166 -135.435 233.193 -133.819 231.618C-130.592 228.473 -126.638 227.17 -122.663 226.181C-121.027 225.774 -119.329 226.045 -117.798 227.377C-116.539 228.472 -114.969 229.267 -113.384 229.104C-110.034 228.76 -106.904 229.376 -103.849 231.051C-101.317 232.439 -99.0271 231.369 -96.9392 229.497C-96.5215 229.123 -96.1733 228.638 -95.7892 228.209C-91.6613 223.599 -90.8162 223.46 -86.3672 227.286C-82.4697 230.638 -79.1687 231.876 -74.0127 226.592C-71.0247 223.531 -68.2089 220.267 -64.7048 218.004C-63.0258 216.92 -61.9461 215.021 -61.2238 213.02C-58.8184 206.355 -53.8307 204.163 -48.5933 203.464C-43.5712 202.794 -39.9715 200.739 -37.5072 195.316C-36.2857 192.628 -34.2572 190.408 -32.412 188.191C-30.793 186.247 -29.8784 186.376 -28.8078 188.794C-27.1338 192.575 -24.7196 195.202 -21.4429 196.833C-19.9367 197.583 -18.9727 199.081 -18.1194 200.696C-14.1807 208.148 -8.33127 210.128 -1.43328 208.676C0.929309 208.179 3.27606 208.428 5.62605 208.245C10.8779 207.838 15.2716 205.761 18.3481 200.371C19.8727 197.7 21.9969 195.906 24.6875 195.182C28.1123 194.26 30.9888 192.284 33.3681 189.139C34.4077 187.765 35.7144 186.62 37.0315 185.618C39.0823 184.058 40.6721 182.07 41.8502 179.547C43.1122 176.845 45.0076 175.709 47.6675 175.672C52.0532 175.609 56.228 176.533 60.3697 178.151C63.1496 179.237 65.2911 180.998 66.4433 184.274C67.8252 188.204 70.2516 190.352 73.8188 191.08C76.7742 191.684 79.6574 192.951 82.7019 192.641C88.4318 192.056 93.7517 193.975 98.4548 197.381C105.014 202.132 111.103 201.775 117.705 197.622C121.725 195.094 126.236 193.749 130.156 190.793C131.41 189.848 133.142 189.696 134.685 189.445C136.446 189.158 137.937 188.24 139.355 187.107C142.335 184.727 143.33 181.451 142.449 177.326C141.921 174.855 141.043 172.575 139.589 170.723C137.146 167.611 135.525 163.823 133.474 160.392C132.086 158.07 132.434 157.289 134.327 155.357C136.661 152.975 139.557 153.514 142.19 152.99C144.589 152.513 147.111 152.61 149.596 153.424C153.16 154.592 156.741 154.25 160.368 153.133C165.683 151.495 171.112 150.495 175.791 146.587C178.778 144.092 179.692 140.862 179.211 136.843C179.065 135.621 178.668 134.426 178.289 133.264C177.769 131.665 177.107 130.131 176.595 128.528C175.797 126.027 176.164 124.714 178.219 123.601C179.633 122.835 181.176 122.327 182.705 121.964C184.709 121.488 186.53 120.572 187.825 118.74C190.566 114.861 194.284 113.437 198.211 112.786C201.592 112.225 204.281 110.538 206.966 108.03C211.134 104.135 216.093 102.854 221.368 104.004C223.935 104.563 226.417 105.478 229.098 105.496C233.048 105.523 236.046 103.802 237.761 99.5649C239.382 95.5583 238.352 89.8828 235.52 86.5599C234.41 85.2572 232.954 84.3811 231.807 83.1145C230.717 81.9104 228.825 81.0391 229.38 78.7425C229.854 76.7823 231.477 75.9117 233.012 75.4957C237.386 74.3102 241.8 73.8647 246.218 75.2475C250.466 76.5771 251.939 79.539 250.888 84.6505C250.576 86.1702 250.187 87.6716 249.936 89.2049C249.1 94.3116 250.935 97.5879 255.078 99.0642C258.524 100.292 262.033 100.225 265.017 98.2662C270.672 94.5545 276.343 96.1856 282.19 96.619C289.434 97.1562 296.727 97.3841 303.606 93.102C309.645 89.3431 314.005 75.651 311.673 67.5511C310.898 64.8609 309.568 62.8779 307.614 61.47C305.154 59.6983 302.709 57.8955 300.005 56.6334C297.559 55.4915 295.308 53.8868 293.284 51.863C290.327 48.9055 289.838 46.2861 291.875 42.4915C294.207 38.1471 296.647 33.8735 299.217 29.7252C301.189 26.5423 302.523 26.8935 303.793 30.6958C304.565 33.0077 305.111 35.4386 305.993 37.6851C308.694 44.5697 312.735 46.7302 318.761 44.6412C320.268 44.1184 321.77 43.5436 323.231 42.8613C326.792 41.199 330.264 41.0108 333.785 43.0992C336.368 44.6311 339.202 44.3365 341.896 43.6973C345.265 42.8981 347.61 39.2339 347.955 34.8739C348.207 31.6815 347.658 28.6615 346.676 25.6986C345.762 22.9379 345.003 20.1097 344.932 17.0891C344.806 11.7051 345.958 9.68317 350.236 8.15232C352.239 7.43538 354.289 6.89329 356.33 6.34161C360.831 5.12522 364.158 2.0832 366.241 -2.81352C367.628 -6.07402 369.424 -8.94479 371.667 -11.4021C373.607 -13.5266 374.449 -16.3033 375.072 -19.1945C375.566 -21.4933 376.167 -23.7342 377.281 -25.6942C379.307 -29.2598 382.124 -30.28 385.109 -27.9345C389.72 -24.3107 394.377 -20.9161 399.676 -18.8961C401.093 -18.356 402.069 -17.0899 402.781 -15.4895C403.332 -14.2515 403.956 -13.0159 404.73 -11.9731C406.64 -9.40075 410.108 -9.41656 412.017 -11.9866C412.706 -12.9136 413.277 -14.0067 413.745 -15.1182C416.979 -22.8065 421.874 -27.51 429.306 -28.1026C431.932 -28.3121 434.364 -29.6654 436.603 -31.3488C437.83 -32.2719 439.071 -33.339 439.636 -34.9614C441.39 -40.001 443.082 -45.0749 444.675 -50.1899C445.764 -53.687 444.711 -56.555 442.481 -58.9585C439.959 -61.6761 439.843 -62.475 442.092 -65.3973C444.448 -68.4582 445.712 -71.8834 445.362 -76.05C445.077 -79.4379 446.032 -82.0903 448.23 -84.3376C449.81 -85.9528 451.036 -88.05 452.518 -89.8152C457.629 -95.9041 462.083 -97.0946 468.489 -93.4764C474.84 -89.8891 480.807 -91.9517 486.698 -94.749C490.306 -96.4623 493.893 -98.0869 497.729 -96.9819C500.72 -96.1205 503.689 -96.0678 506.7 -95.952C508.97 -95.8648 511.118 -96.3104 513.231 -97.3119C518.713 -99.91 524.076 -100.312 529.323 -96.324C530.719 -95.2629 532.431 -94.5976 534.073 -94.2323C537.661 -93.4345 540.174 -95.8683 540.58 -100.232C540.636 -100.837 540.615 -101.456 540.591 -102.066C540.367 -107.813 541.002 -108.529 545.839 -107.916C549.528 -107.449 552.978 -106.136 556.169 -103.849C560.561 -100.701 565.108 -98.0106 570.266 -97.0932C572.22 -96.7459 574.008 -95.7206 575.82 -94.8172C578.064 -93.6984 580.329 -93.3217 582.674 -94.5166C585.405 -95.9075 587.961 -95.6999 590.491 -93.5909C592.433 -91.9722 594.797 -91.3684 597.124 -90.9069C598.314 -90.671 599.414 -90.2227 600.454 -89.5513C603.439 -87.6244 603.935 -85.9515 602.242 -82.3411C601.195 -80.1075 600.54 -77.7603 600.122 -75.3205C599.586 -72.1881 597.965 -70.2312 595.548 -69.472C592.266 -68.4409 589.501 -66.6472 587.359 -63.4716C586.962 -62.8844 586.366 -62.4125 585.783 -62.0934C581.959 -59.999 579.188 -56.7938 577.184 -52.2696C576.029 -49.6626 573.436 -48.3161 571.178 -47.151C567.33 -45.1649 563.79 -42.4134 559.78 -40.8328C556.762 -39.6434 554.957 -37.102 554.879 -33.1845C554.835 -30.9737 554.019 -29.2988 552.742 -27.8439C551.106 -25.9805 549.998 -23.7606 549.037 -21.2965C546.423 -14.5914 541.943 -9.62458 534.456 -10.3732C531.053 -10.7134 527.639 -10.7976 523.918 -10.4533Z"/>
    </mask>
    <path d="M523.918 -10.4533C521.204 -10.4714 518.179 -10.3847 515.163 -10.5384C511.207 -10.7399 507.33 -9.85066 503.451 -9.27785C500.299 -8.8123 497.179 -8.84243 494.04 -8.78469C492.519 -8.75673 491.215 -9.57257 490.039 -10.5455C486.72 -13.2899 483.222 -14.2642 479.299 -12.6423C476.252 -11.3829 473.07 -11.6449 469.934 -11.7869C466.471 -11.9437 463.18 -11.1376 459.924 -9.85464C458.561 -9.31715 457.18 -8.71109 455.77 -8.49831C452.307 -7.97597 449.256 -8.85881 447.282 -12.7284C446.532 -14.1987 445.744 -15.6435 444.923 -17.0584C444.045 -18.5712 442.731 -19.4163 441.259 -19.1079C439.576 -18.7548 438.49 -17.2489 438.248 -15.2222C438.046 -13.5306 437.887 -11.7313 438.153 -10.083C438.734 -6.47968 437.509 -3.86776 435.198 -1.997C433.23 -0.403702 432.034 1.69029 431.222 4.22878C430.375 6.87611 429.251 9.33753 427.828 11.6101C424.986 16.1504 424.643 21.0176 426.316 26.2561C428.576 33.3313 427.69 36.5049 422.368 40.8175C421.069 41.8702 419.719 42.878 418.299 43.6641C415.406 45.2658 413.507 47.8135 412.214 51.2871C409.277 59.1768 406.73 67.2108 405.309 75.6908C404.884 78.2251 404.063 80.4881 402.729 82.4661C400.861 85.2357 398.741 86.0414 396.174 84.4627C389.739 80.5046 383.191 80.4141 376.495 83.2073C373.452 84.477 370.326 84.681 367.174 84.4567C364.418 84.2607 362.02 85.1011 359.898 87.2302C357.154 89.9836 353.929 91.8001 350.697 93.5131C347.295 95.3164 343.799 96.0315 340.002 94.8564C336.976 93.9197 333.996 94.5873 331.851 97.8569C329.454 101.511 325.717 103.175 322.982 106.375C319.611 110.32 316.04 114.021 312.542 117.809C309.952 120.613 308.143 123.983 307.143 127.989C306.426 130.86 305.44 133.605 303.823 135.93C301.369 139.46 298.447 141.892 294.335 141.414C293.032 141.263 291.697 141.46 290.402 141.266C287.251 140.792 284.445 141.484 281.959 144.02C279.242 146.792 275.978 145.899 272.903 145.453C271.49 145.248 270.075 144.916 268.64 144.762C266.41 144.523 264.476 145.162 262.971 147.24C260.839 150.185 257.936 151.124 254.894 151.422C251.127 151.791 247.731 153.173 244.742 155.929C240.567 159.78 236.041 162.926 231.276 165.591C228.969 166.88 227.052 168.548 225.75 171.327C224.325 174.364 222.589 174.295 221.113 171.299C220.457 169.969 220.042 168.45 219.635 166.97C219.103 165.031 218.507 163.151 217.513 161.466C215.69 158.372 213.508 157.165 210.435 158.202C206.048 159.682 201.606 159.324 197.16 159.362C195.623 159.375 194.413 158.469 193.112 157.745C189.353 155.653 187.197 156.427 185.354 160.715C184.27 163.238 183.113 165.644 181.486 167.748C180.797 168.64 180.17 169.829 179.971 170.993C178.786 177.913 177.721 184.799 181.021 191.471C183.102 195.679 182.749 198.108 179.977 201.617C178.424 203.583 177.233 205.785 176.111 208.104C174.457 211.522 173.326 211.905 169.964 211.496C166.09 211.025 162.537 212.768 159.035 214.448C155.877 215.964 152.811 217.754 149.661 219.296C145.269 221.445 140.605 222.219 135.942 222.939C134.347 223.185 132.861 223.799 131.573 224.907C128.917 227.193 126.283 229.52 123.711 231.938C121.15 234.346 120.382 237.618 121.422 241.195C122.259 244.076 122.081 246.612 121.051 249.346C119.597 253.202 120.028 255.396 122.896 257.892C126.16 260.734 129.472 263.603 133.779 263.89C134.941 263.967 136.1 264.324 137.234 264.673C139.863 265.482 140.227 266.583 138.561 269.038C137.775 270.196 137.009 271.254 137.618 272.771C138.154 274.108 139.316 274.243 140.352 274.164C144.827 273.822 149.215 275.106 153.677 275.028C159.34 274.929 164.778 276.999 170.386 277.583C185.134 279.119 199.864 280.929 214.449 275.901C216.199 275.298 218.032 274.938 219.847 274.733C223.985 274.264 227.701 272.43 231.258 270.016C233.938 268.196 236.054 265.733 237.532 262.439C238.77 259.682 240.163 257.017 241.574 254.378C243.649 250.495 245.159 246.365 245.653 241.779C245.874 239.729 246.246 237.76 247.28 236.079C249.713 232.123 254.266 232.689 255.811 237.203C256.348 238.771 256.525 240.524 256.815 242.205C258.128 249.82 265.183 257.342 271.729 257.914C274.605 258.165 277.514 258.37 280.385 258.147C287.117 257.625 292.548 253.667 297.275 248.205C298.397 246.908 299.174 245.216 299.527 243.315C300.518 237.965 303.882 236.121 307.912 235.672C310.246 235.411 312.746 235.274 314.962 235.993C318.531 237.152 321.734 236.098 324.893 234.644C330.405 232.107 336.358 231.499 341.834 228.765C344.071 227.648 346.18 229.187 347.988 230.88C351.201 233.889 354.624 236.418 358.554 237.914C363.496 239.796 366.185 238.996 368.974 233.775C371.431 229.176 374.621 227.274 378.941 228.706C382.862 230.006 386.431 228.771 389.992 227.183C396.12 224.451 402.435 223.446 408.902 224.3C412.138 224.727 415.341 225.596 418.523 226.451C419.561 226.73 420.572 226.9 421.619 226.931C425.562 227.048 429.415 227.507 433.125 229.415C435.801 230.792 438.526 230.433 440.886 228.07C441.187 227.768 441.523 227.517 441.832 227.228C447.079 222.32 448.992 223.258 452.927 226.871C454.278 228.112 455.806 229.017 457.549 229.301C460.906 229.848 464.251 230.508 467.616 230.977C470.901 231.435 473.762 229.922 476.513 227.949C480.119 225.364 483.759 222.987 488.162 222.797C491.041 222.673 493.654 223.206 495.915 225.35C500.157 229.374 505.157 231.118 510.366 232.123C513.487 232.725 516.626 232.588 519.694 231.371C525.074 229.235 529.642 230.402 533.543 235.653C536.746 239.963 538.932 240.414 542.782 237.039C546.692 233.613 550.299 234.226 554.174 236.453C554.528 236.656 554.875 236.884 555.205 237.138C562.369 242.633 569.635 241.113 576.961 237.601C578.538 236.845 579.548 235.529 580.28 233.813C580.695 232.84 581.046 231.827 581.412 230.824C582.83 226.929 585.092 224.571 588.824 224.149C590.366 223.975 591.922 223.658 593.486 223.528C597.961 223.158 601.157 220.67 602.714 215.505C602.981 214.621 603.299 213.748 603.469 212.837C604.584 206.849 606.387 201.141 608.479 195.563C609.934 191.682 610.984 187.716 611.399 183.469C612.05 176.794 613.109 170.195 611.204 163.503C610.054 159.461 611.053 155.71 615.943 154.397C624.422 152.122 631.669 146.804 639.38 142.631C642.322 141.039 645.304 140.116 648.479 140.264C651.837 140.42 654.978 139.712 657.988 137.896C660.572 136.337 663.374 135.469 666.16 134.586C669.547 133.513 672.547 131.804 674.407 127.97C675.678 125.349 677.733 123.873 680.188 123.661C683.348 123.389 686.386 122.474 689.476 121.814C691.256 121.434 693.228 121.329 694.952 121.853C697.381 122.59 699.754 122.184 701.871 121.35C705.955 119.742 710.235 118.665 714.01 116.034C715.897 114.719 717.796 114.281 719.972 115.015C724.828 116.654 729.855 116.166 734.816 116.276C738.556 116.359 741.788 114.325 744.136 110.995C747.266 106.554 751.059 103.948 755.834 103.249C757.555 102.997 759.085 102.045 760.61 101.172C764.055 99.2008 767.379 99.1163 770.739 101.452C772.2 102.468 773.799 103.207 775.348 104.038C778.876 105.931 779.529 107.689 777.476 111.664C774.774 116.893 774.92 122.345 775.844 127.979C776.58 132.47 778.887 135.504 782.223 137.511C785.254 139.334 788.378 140.909 791.337 142.937C794.437 145.062 797.299 144.379 799.916 141.446C800.492 140.801 801.069 140.156 801.602 139.463C803.892 136.482 806.691 135.018 810.064 135.687C813.671 136.402 817.356 136.301 820.933 137.35C825.07 138.565 827.835 142.285 831.102 145.073C832.188 146 832.008 147.518 831.414 148.928C828.708 155.347 828.977 161.885 830.721 168.555C831.429 171.261 831.31 174.109 831.011 176.948C830.512 181.697 830.781 186.329 832.945 190.559C835.644 195.835 836.006 201.767 836.201 207.724C836.277 210.071 836.296 212.437 836.148 214.778C835.724 221.488 836.599 227.874 839.14 233.904C839.675 235.174 839.965 236.532 840.044 237.962C840.316 242.921 841.991 247.311 843.883 251.627C845.583 255.504 847.285 259.385 848.84 263.346C850.178 266.756 851.258 270.285 850.487 274.199C850.131 276.008 850.682 277.38 852.238 277.727C854.571 278.247 856.983 278.598 859.044 276.678C861.1 274.763 863.529 273.4 865.092 270.727C865.514 270.007 866.274 269.465 866.973 269.101C868.331 268.394 869.62 268.706 870.395 270.285C871.062 271.646 870.809 273.1 869.821 274.113C867.535 276.457 865.294 278.917 862.792 280.89C860.978 282.321 859.361 283.843 858.464 286.156C857.24 289.311 855.102 290.925 852.444 291.645C849.211 292.521 846.137 293.547 843.801 296.708C842.965 297.839 841.565 298.216 840.227 298.463C838.525 298.778 836.775 299.251 836.425 301.783C836.078 304.292 837.097 305.785 838.917 307.024C842.443 309.425 842.613 310.808 840.269 314.784C838.981 316.968 837.549 318.955 835.67 320.523C833.768 322.111 831.853 322.961 829.478 322.884C824.462 322.722 823.928 323.315 822.497 329.364C821.207 334.819 818.724 338.907 813.981 340.712C812.68 341.207 811.445 341.398 810.128 341.17C806.845 340.603 802.076 343.582 800.648 346.953C799.809 348.932 800.34 350.689 801.197 352.245C803.125 355.748 805.478 358.905 806.873 362.841C807.202 363.771 808.087 364.474 808.81 365.137C811.551 367.652 812.488 367.307 813.089 363.215C813.524 360.253 814.754 358.353 817.072 357.403C819.178 356.54 821.271 355.562 823.434 354.982C825.214 354.506 827.377 354.151 828.633 356.014C830.186 358.317 831.598 360.679 833.639 362.45C834.436 363.141 834.386 364.249 833.872 365.408C832.301 368.954 828.622 371.297 825.281 370.347C823.455 369.827 821.684 369.608 819.843 369.818C816.673 370.18 814.189 371.106 813.695 375.836C813.351 379.137 810.679 380.763 808.402 382.352C807.504 382.979 806.445 383.309 805.608 384.023C804.237 385.193 803.477 386.746 804.142 388.885C804.505 390.052 804.656 391.323 805.078 392.453C806.185 395.416 805.495 398.068 803.881 400.275C802.071 402.748 800.206 405.159 798.458 407.703C797.254 409.456 795.464 410.292 793.686 410.805C787.002 412.736 783.773 418.244 783.172 425.909C782.752 431.279 781.2 436.253 780.339 441.449C779.895 444.125 778.609 446.01 776.713 447.29C774.39 448.86 772.389 450.72 770.914 453.475C768.91 457.22 765.818 457.563 762.537 456.586C761.28 456.212 760.084 455.513 758.889 454.884C756.213 453.477 753.454 452.682 750.499 452.875C744.822 453.246 739.362 451.193 733.755 450.694C731.279 450.474 729.313 448.65 728.018 446.205C725.512 441.473 721.991 440.503 717.802 441.994C715.596 442.779 713.635 441.848 711.659 441.19C707.687 439.866 704.003 439.955 700.373 442.745C697.406 445.027 693.845 445.612 690.517 444.794C687.254 443.991 684.284 444.648 681.288 445.641C678.171 446.675 675.189 446.771 672.061 445.648C668.939 444.526 665.687 444.021 662.398 444.04C659.905 444.055 657.456 443.882 654.992 443.159C652.709 442.49 650.232 442.37 647.955 443.164C645.345 444.073 642.774 443.909 640.155 443.762C638.066 443.645 635.945 443.321 633.972 444.555C629.619 447.28 625.1 447.881 620.292 446.567C616.994 445.666 613.604 445.234 610.256 444.587C609.739 444.487 609.176 444.485 608.721 444.222C607.803 443.692 606.552 443.316 606.462 441.899C606.343 440.025 607.855 439.64 608.898 439.391C613.661 438.256 618.284 436.695 622.695 434.2C624.4 433.236 626.25 433.717 628.095 434.069C633.77 435.153 639.45 436.266 645.236 434.78C647.324 434.244 649.254 433.374 651.068 432.124C654.048 430.07 657.107 428.426 660.593 427.977C665.644 427.327 668.715 423.243 671.291 418.561C672.655 416.081 673.828 413.433 674.924 410.766C678.443 402.206 676.758 392.246 670.242 386.882C663.47 381.308 656.265 376.499 647.649 376.113C644.694 375.981 642.091 374.451 639.572 372.748C638.32 371.901 637.134 370.912 635.867 370.102C631.638 367.399 628.882 367.556 625.708 371.877C623.141 375.371 619.486 374.328 617.61 371.464C615.193 367.777 612.861 364.011 610.437 360.331C609.727 359.254 609.568 358.094 609.594 356.819C609.623 355.395 609.95 354.089 610.382 352.742C612.481 346.188 612.439 346.193 618.329 347.596C621.719 348.403 624.526 347.082 626.779 344.008C628.161 342.122 629.507 340.199 630.871 338.295C632.271 336.341 634.29 335.126 636.128 336.025C642.582 339.181 648.725 336.775 654.977 335.241C657.275 334.678 659.638 334.47 661.98 334.203C663.972 333.976 666.071 334.063 667.649 335.57C672.353 340.063 677.906 339.778 683.084 338.56C690.145 336.898 697.159 336.989 704.225 337.056C711.323 337.123 718.267 335.545 725.253 334.413C726.408 334.226 727.644 333.965 728.644 333.306C734.018 329.762 739.952 328.704 745.82 327.068C752.919 325.087 759.963 322.672 766.534 318.56C770.574 316.031 774.965 314.313 779.167 312.146C784.631 309.328 788.218 304.195 790.787 298.024C793.919 290.499 791.15 283.665 784.273 282.081C778.759 280.811 773.169 279.901 767.528 280.106C763.229 280.262 759.271 279.508 755.546 276.631C751.555 273.549 747.091 273.463 742.734 275.552C740.346 276.697 737.973 277.184 735.451 277.035C731.835 276.821 728.429 277.627 725.352 280.047C723.638 281.395 721.726 281.766 719.705 281.638C713.548 281.246 708.112 283.358 703.37 288.17C701.231 290.341 698.631 291.536 695.794 291.582C691.807 291.648 688.348 293.312 685.391 296.389C683.212 298.655 680.926 299.35 678.19 298.134C675.1 296.761 671.868 296.324 668.58 296.064C665.836 295.847 663.247 294.83 660.887 292.931C657.912 290.537 654.755 289.127 650.927 289.959C648.159 290.561 645.607 288.777 643.231 287.118C639.006 284.169 634.46 283.068 629.63 283.824C627.042 284.229 624.519 285.006 622.043 286.1C616.179 288.691 609.026 286.12 605.193 280.22C601.689 274.826 597.154 272.853 591.715 275.859C585.618 279.23 578.881 280.211 572.926 283.907C571.031 285.083 568.963 285.321 566.823 285.358C563.302 285.42 559.659 285.932 556.279 285.634C550.6 285.133 545.084 286.378 539.491 286.292C536.804 286.251 535.864 285.688 535.037 282.145C533.788 276.787 530.984 273.961 526.432 273.377C525.921 273.311 525.422 272.856 524.93 272.887C523.027 273.01 521.286 272.229 519.602 271.443C515.688 269.617 511.728 269.483 507.658 270.383C505.004 270.97 502.705 270.506 501.388 267.192C499.502 262.447 496.114 261.467 492.148 262.234C483.611 263.886 475.22 266.222 467.232 270.304C462.948 272.492 458.578 273.894 453.863 273.077C452.962 272.921 452.026 273.069 451.107 273.028C447.541 272.866 445.185 274.812 443.697 278.675C441.683 283.904 440.691 284.595 436.031 282.851C430.94 280.946 425.924 281.733 420.898 282.693C417.689 283.306 414.586 283.82 411.272 283.463C406.332 282.932 401.325 283.047 396.389 284.192C390.843 285.479 385.239 285.856 379.596 285.747C376.053 285.679 372.507 285.828 368.962 285.857C366.866 285.874 364.827 285.707 362.746 285.056C358.419 283.704 354.041 283.881 349.538 284.385C343.426 285.068 337.291 285.457 331.189 286.397C329.261 286.694 327.201 286.676 325.313 286.192C322.834 285.557 320.373 285.545 317.89 285.545C316.329 285.546 314.793 285.567 313.212 285.97C311.047 286.521 308.764 286.444 306.562 285.913C303.249 285.114 299.988 284.809 296.544 285.04C289.231 285.53 281.889 285.445 274.57 284.406C270.409 283.815 266.145 283.989 262.065 285.195C257.817 286.45 253.686 285.578 249.637 284.658C245.218 283.653 241.044 284.283 236.895 285.746C229.956 288.193 222.951 288.189 215.9 286.993C213.277 286.549 210.605 286.355 208.056 286.781C202.444 287.719 197.165 286.749 192.032 284.147C188.727 282.471 185.341 283.079 182.058 283.917C177.205 285.158 172.462 286.955 167.856 289.217C166.636 289.816 165.462 290.473 164.572 291.713C162.715 294.302 162.792 297.141 164.675 299.735C166.558 302.33 169.192 302.958 171.738 303.252C175.897 303.731 180.034 304.667 184.254 304.404C188.117 304.164 191.759 305.658 195.387 306.901C197.873 307.753 198.215 309.472 197.256 312.376C196.339 315.156 194.471 316.623 192.312 317.346C186.978 319.129 181.501 319.827 175.997 318.906C169.721 317.857 163.483 318.015 157.202 318.841C153.699 319.301 150.19 319.73 146.662 320.007C136.625 320.795 126.509 320.236 116.555 322.52C114.473 322.998 112.344 322.786 110.271 322.447C103.753 321.38 97.2498 321.353 90.7144 322.294C88.9076 322.555 86.9753 322.611 85.2262 322.125C83.0139 321.509 80.7991 321.456 78.5944 321.403C73.093 321.27 67.6301 320.817 62.2184 319.619C62.0905 319.59 61.9559 319.589 61.8252 319.596C52.8916 320.079 44.0767 317.608 35.1276 318.186C32.2382 318.372 29.3917 318.817 26.5585 319.365C20.2885 320.578 14.0746 320.459 7.79913 319.321C3.80516 318.597 -0.271207 318.409 -4.31884 318.234C-7.34882 318.104 -10.299 317.408 -13.2721 316.905C-20.2752 315.721 -27.2925 314.815 -34.374 314.989C-38.1623 315.082 -41.898 316.036 -45.7283 315.903C-48.1041 315.821 -50.35 314.817 -52.738 315.029C-59.3732 315.616 -66.0441 315.69 -72.5952 317.38C-76.1891 318.307 -79.8247 318.763 -83.5252 318.625C-99.8038 318.015 -116.097 318.582 -132.371 318.121C-140.049 317.904 -147.822 317.928 -155.429 316.144C-160.899 314.861 -162.462 312.77 -162.224 306.297C-162.038 301.237 -162.716 296.686 -165.393 292.637C-166.37 291.159 -166.75 289.326 -166.959 287.402C-167.55 281.962 -170.273 278.737 -174.677 277.494C-177.086 276.814 -179.52 276.258 -181.943 275.647C-182.769 275.439 -183.485 275.011 -183.431 273.861C-183.38 272.758 -182.614 272.245 -181.842 272.063C-180.951 271.852 -180.016 271.932 -179.104 271.837C-170.858 270.977 -162.597 271.268 -154.341 271.321C-151.845 271.337 -149.439 270.746 -148.033 268.254C-144.764 262.456 -139.71 261.736 -134.629 260.882C-128.502 259.852 -122.329 260.368 -116.182 260.03C-114.753 259.951 -113.353 260.085 -111.919 259.482C-108.424 258.011 -106.866 255.482 -107.038 251.025C-107.199 246.874 -108.895 244.625 -112.601 243.888C-117.87 242.841 -123.235 242.665 -128.479 241.249C-130.322 240.751 -132.391 240.8 -134.336 241.482C-134.951 241.698 -135.618 241.755 -136.264 241.783C-137.355 241.83 -138.462 241.58 -139.008 240.371C-139.584 239.093 -138.986 237.938 -138.229 236.985C-136.783 235.166 -135.435 233.193 -133.819 231.618C-130.592 228.473 -126.638 227.17 -122.663 226.181C-121.027 225.774 -119.329 226.045 -117.798 227.377C-116.539 228.472 -114.969 229.267 -113.384 229.104C-110.034 228.76 -106.904 229.376 -103.849 231.051C-101.317 232.439 -99.0271 231.369 -96.9392 229.497C-96.5215 229.123 -96.1733 228.638 -95.7892 228.209C-91.6613 223.599 -90.8162 223.46 -86.3672 227.286C-82.4697 230.638 -79.1687 231.876 -74.0127 226.592C-71.0247 223.531 -68.2089 220.267 -64.7048 218.004C-63.0258 216.92 -61.9461 215.021 -61.2238 213.02C-58.8184 206.355 -53.8307 204.163 -48.5933 203.464C-43.5712 202.794 -39.9715 200.739 -37.5072 195.316C-36.2857 192.628 -34.2572 190.408 -32.412 188.191C-30.793 186.247 -29.8784 186.376 -28.8078 188.794C-27.1338 192.575 -24.7196 195.202 -21.4429 196.833C-19.9367 197.583 -18.9727 199.081 -18.1194 200.696C-14.1807 208.148 -8.33127 210.128 -1.43328 208.676C0.929309 208.179 3.27606 208.428 5.62605 208.245C10.8779 207.838 15.2716 205.761 18.3481 200.371C19.8727 197.7 21.9969 195.906 24.6875 195.182C28.1123 194.26 30.9888 192.284 33.3681 189.139C34.4077 187.765 35.7144 186.62 37.0315 185.618C39.0823 184.058 40.6721 182.07 41.8502 179.547C43.1122 176.845 45.0076 175.709 47.6675 175.672C52.0532 175.609 56.228 176.533 60.3697 178.151C63.1496 179.237 65.2911 180.998 66.4433 184.274C67.8252 188.204 70.2516 190.352 73.8188 191.08C76.7742 191.684 79.6574 192.951 82.7019 192.641C88.4318 192.056 93.7517 193.975 98.4548 197.381C105.014 202.132 111.103 201.775 117.705 197.622C121.725 195.094 126.236 193.749 130.156 190.793C131.41 189.848 133.142 189.696 134.685 189.445C136.446 189.158 137.937 188.24 139.355 187.107C142.335 184.727 143.33 181.451 142.449 177.326C141.921 174.855 141.043 172.575 139.589 170.723C137.146 167.611 135.525 163.823 133.474 160.392C132.086 158.07 132.434 157.289 134.327 155.357C136.661 152.975 139.557 153.514 142.19 152.99C144.589 152.513 147.111 152.61 149.596 153.424C153.16 154.592 156.741 154.25 160.368 153.133C165.683 151.495 171.112 150.495 175.791 146.587C178.778 144.092 179.692 140.862 179.211 136.843C179.065 135.621 178.668 134.426 178.289 133.264C177.769 131.665 177.107 130.131 176.595 128.528C175.797 126.027 176.164 124.714 178.219 123.601C179.633 122.835 181.176 122.327 182.705 121.964C184.709 121.488 186.53 120.572 187.825 118.74C190.566 114.861 194.284 113.437 198.211 112.786C201.592 112.225 204.281 110.538 206.966 108.03C211.134 104.135 216.093 102.854 221.368 104.004C223.935 104.563 226.417 105.478 229.098 105.496C233.048 105.523 236.046 103.802 237.761 99.5649C239.382 95.5583 238.352 89.8828 235.52 86.5599C234.41 85.2572 232.954 84.3811 231.807 83.1145C230.717 81.9104 228.825 81.0391 229.38 78.7425C229.854 76.7823 231.477 75.9117 233.012 75.4957C237.386 74.3102 241.8 73.8647 246.218 75.2475C250.466 76.5771 251.939 79.539 250.888 84.6505C250.576 86.1702 250.187 87.6716 249.936 89.2049C249.1 94.3116 250.935 97.5879 255.078 99.0642C258.524 100.292 262.033 100.225 265.017 98.2662C270.672 94.5545 276.343 96.1856 282.19 96.619C289.434 97.1562 296.727 97.3841 303.606 93.102C309.645 89.3431 314.005 75.651 311.673 67.5511C310.898 64.8609 309.568 62.8779 307.614 61.47C305.154 59.6983 302.709 57.8955 300.005 56.6334C297.559 55.4915 295.308 53.8868 293.284 51.863C290.327 48.9055 289.838 46.2861 291.875 42.4915C294.207 38.1471 296.647 33.8735 299.217 29.7252C301.189 26.5423 302.523 26.8935 303.793 30.6958C304.565 33.0077 305.111 35.4386 305.993 37.6851C308.694 44.5697 312.735 46.7302 318.761 44.6412C320.268 44.1184 321.77 43.5436 323.231 42.8613C326.792 41.199 330.264 41.0108 333.785 43.0992C336.368 44.6311 339.202 44.3365 341.896 43.6973C345.265 42.8981 347.61 39.2339 347.955 34.8739C348.207 31.6815 347.658 28.6615 346.676 25.6986C345.762 22.9379 345.003 20.1097 344.932 17.0891C344.806 11.7051 345.958 9.68317 350.236 8.15232C352.239 7.43538 354.289 6.89329 356.33 6.34161C360.831 5.12522 364.158 2.0832 366.241 -2.81352C367.628 -6.07402 369.424 -8.94479 371.667 -11.4021C373.607 -13.5266 374.449 -16.3033 375.072 -19.1945C375.566 -21.4933 376.167 -23.7342 377.281 -25.6942C379.307 -29.2598 382.124 -30.28 385.109 -27.9345C389.72 -24.3107 394.377 -20.9161 399.676 -18.8961C401.093 -18.356 402.069 -17.0899 402.781 -15.4895C403.332 -14.2515 403.956 -13.0159 404.73 -11.9731C406.64 -9.40075 410.108 -9.41656 412.017 -11.9866C412.706 -12.9136 413.277 -14.0067 413.745 -15.1182C416.979 -22.8065 421.874 -27.51 429.306 -28.1026C431.932 -28.3121 434.364 -29.6654 436.603 -31.3488C437.83 -32.2719 439.071 -33.339 439.636 -34.9614C441.39 -40.001 443.082 -45.0749 444.675 -50.1899C445.764 -53.687 444.711 -56.555 442.481 -58.9585C439.959 -61.6761 439.843 -62.475 442.092 -65.3973C444.448 -68.4582 445.712 -71.8834 445.362 -76.05C445.077 -79.4379 446.032 -82.0903 448.23 -84.3376C449.81 -85.9528 451.036 -88.05 452.518 -89.8152C457.629 -95.9041 462.083 -97.0946 468.489 -93.4764C474.84 -89.8891 480.807 -91.9517 486.698 -94.749C490.306 -96.4623 493.893 -98.0869 497.729 -96.9819C500.72 -96.1205 503.689 -96.0678 506.7 -95.952C508.97 -95.8648 511.118 -96.3104 513.231 -97.3119C518.713 -99.91 524.076 -100.312 529.323 -96.324C530.719 -95.2629 532.431 -94.5976 534.073 -94.2323C537.661 -93.4345 540.174 -95.8683 540.58 -100.232C540.636 -100.837 540.615 -101.456 540.591 -102.066C540.367 -107.813 541.002 -108.529 545.839 -107.916C549.528 -107.449 552.978 -106.136 556.169 -103.849C560.561 -100.701 565.108 -98.0106 570.266 -97.0932C572.22 -96.7459 574.008 -95.7206 575.82 -94.8172C578.064 -93.6984 580.329 -93.3217 582.674 -94.5166C585.405 -95.9075 587.961 -95.6999 590.491 -93.5909C592.433 -91.9722 594.797 -91.3684 597.124 -90.9069C598.314 -90.671 599.414 -90.2227 600.454 -89.5513C603.439 -87.6244 603.935 -85.9515 602.242 -82.3411C601.195 -80.1075 600.54 -77.7603 600.122 -75.3205C599.586 -72.1881 597.965 -70.2312 595.548 -69.472C592.266 -68.4409 589.501 -66.6472 587.359 -63.4716C586.962 -62.8844 586.366 -62.4125 585.783 -62.0934C581.959 -59.999 579.188 -56.7938 577.184 -52.2696C576.029 -49.6626 573.436 -48.3161 571.178 -47.151C567.33 -45.1649 563.79 -42.4134 559.78 -40.8328C556.762 -39.6434 554.957 -37.102 554.879 -33.1845C554.835 -30.9737 554.019 -29.2988 552.742 -27.8439C551.106 -25.9805 549.998 -23.7606 549.037 -21.2965C546.423 -14.5914 541.943 -9.62458 534.456 -10.3732C531.053 -10.7134 527.639 -10.7976 523.918 -10.4533Z" fill="#E8E4DE" stroke="black" stroke-opacity="0.41" stroke-width="2" mask="url(#path-3-inside-1_46_1021)"/>
    <path d="M638.254 54.6897C637.701 54.7958 637.285 55.14 637.031 55.7346C634.847 60.856 631.324 64.2089 627.084 66.7001C625.807 67.4505 624.631 68.5096 623.519 69.5886C619.543 73.4438 615.558 77.2553 610.845 79.8191C609.786 80.3952 608.824 81.2932 607.916 82.1864C605.457 84.6046 602.753 86.4075 599.7 87.5479C596.3 88.8182 594.313 91.6782 593.341 95.7767C592.447 99.5511 592.819 102.762 595.076 105.769C597.946 109.592 597.944 111.673 595.373 115.671C593.56 118.489 591.277 120.082 588.222 120.897C582.535 122.413 577.029 120.309 571.435 120.565C569.96 120.632 568.763 119.395 567.502 118.572C562.559 115.343 559.231 116.442 557.147 122.65C555.824 126.592 553.592 128.875 550.413 129.803C542.729 132.048 536.516 137.565 529.84 142.179C524.258 146.038 519.764 150.822 516.029 157.064C513.519 161.259 510.072 164.53 505.826 166.341C503.562 167.306 501.723 169.07 500.411 171.541C499.147 173.921 497.851 176.277 496.6 178.666C495.117 181.5 493.239 183.276 490.208 183.223C486.264 183.154 483.397 185.601 481.984 189.908C480.649 193.98 478.411 196.535 475.088 198.299C469.45 201.292 463.863 204.008 457.584 204.798C453.315 205.335 449.125 206.626 444.754 206.425C434.104 205.935 423.662 208.229 413.224 210.307C410.324 210.884 407.488 210.919 404.618 210.634C400.588 210.233 396.814 210.895 393.364 213.668C389.64 216.661 385.41 215.643 381.481 214.989C373.661 213.685 366.076 214.331 358.685 217.504C355.043 219.068 351.526 219.095 347.947 217.661C347.242 217.378 346.429 217.136 345.996 216.236C345.866 215.046 346.629 214.562 347.29 214.18C351.847 211.547 356.514 209.629 361.633 211.692C365.541 213.266 369.353 212.731 373.154 211.099C380.779 207.826 388.264 204.05 396.229 202.003C400.312 200.955 404.194 199.012 408.366 198.271C410.339 197.92 412.303 197.829 414.237 197.887C423.805 198.174 433.348 196.935 442.908 197.217C446.546 197.323 449.788 195.838 452.262 193.024C457.515 187.052 463.875 182.8 469.157 176.917C470.116 175.848 471.191 174.893 472.02 173.696C474.632 169.919 477.975 168.19 482.017 168.297C486.105 168.405 490.073 167.494 494.064 166.557C498.014 165.63 500.629 162.952 502.431 158.816C503.88 155.491 504.954 151.946 506.863 148.884C509.175 145.176 511.783 141.999 515.39 140.089C518.529 138.426 521.358 136.169 523.853 133.316C525.476 131.46 527.407 130.108 529.38 128.85C531.479 127.513 533.336 125.809 535.066 123.85C537.385 121.224 538.721 118.08 538.652 114.286C538.584 110.529 540.056 107.853 542.093 105.185C546.736 99.1039 552.509 95.3163 558.794 92.3127C563.531 90.0492 568.167 87.4806 572.831 85.0016C576.632 82.9811 580.745 83.0444 584.744 82.4768C587.138 82.1369 589.4 81.5547 591.473 80.1623C594.706 77.9904 598.146 76.5409 601.774 75.7755C604.508 75.1988 606.52 73.4922 608.319 71.0202C612.127 65.7872 616.852 61.78 621.484 57.6839C624.351 55.1481 627.893 55.049 631.231 54.6111C633.529 54.3096 635.932 53.7425 638.261 54.6945C638.261 54.6947 638.254 54.6897 638.254 54.6897Z" fill="#E8E4DE"/>
    <path d="M632.312 54.964C633.935 54.7278 635.493 54.5012 637.017 54.8314C636.837 55.028 636.688 55.2649 636.571 55.5385C634.438 60.5409 631 63.8195 626.831 66.269L627.084 66.7001L626.831 66.269C625.499 67.0518 624.287 68.147 623.171 69.2296C619.188 73.0918 615.25 76.8539 610.606 79.3799C609.478 79.9935 608.471 80.9387 607.565 81.8299C605.15 84.2055 602.504 85.9667 599.525 87.0795C595.918 88.4272 593.85 91.4619 592.855 95.6614C591.934 99.5446 592.31 102.917 594.676 106.069C596.094 107.958 596.732 109.329 596.765 110.667C596.798 112.008 596.226 113.421 594.952 115.401C593.208 118.111 591.03 119.631 588.094 120.414C585.343 121.147 582.622 121.009 579.848 120.706C579.272 120.643 578.693 120.573 578.11 120.502C575.91 120.235 573.664 119.962 571.412 120.065C570.825 120.092 570.263 119.862 569.655 119.479C569.352 119.289 569.052 119.069 568.738 118.838L568.675 118.791C568.385 118.577 568.083 118.354 567.776 118.153L567.502 118.572L567.776 118.153C565.263 116.512 563.015 115.871 561.076 116.605C559.147 117.334 557.728 119.349 556.673 122.491C555.391 126.312 553.263 128.45 550.273 129.323C546.361 130.466 542.838 132.438 539.471 134.687C537.787 135.812 536.137 137.01 534.495 138.211C534.311 138.346 534.126 138.481 533.942 138.616C532.484 139.684 531.031 140.748 529.556 141.768C523.913 145.669 519.37 150.505 515.6 156.807C513.134 160.928 509.763 164.118 505.63 165.881C503.247 166.897 501.327 168.749 499.969 171.307C499.451 172.283 498.924 173.259 498.397 174.237C497.646 175.632 496.892 177.031 496.157 178.434C495.433 179.818 494.634 180.9 493.681 181.63C492.739 182.352 491.622 182.748 490.217 182.723C488.132 182.687 486.312 183.318 484.829 184.539C483.352 185.755 482.237 187.532 481.509 189.752C480.213 193.705 478.06 196.155 474.854 197.857C469.216 200.85 463.702 203.524 457.522 204.302C456.078 204.484 454.631 204.753 453.2 205.019C452.503 205.149 451.81 205.278 451.123 205.395C449.007 205.758 446.909 206.023 444.777 205.925C434.819 205.467 425.046 207.427 415.361 209.369C414.615 209.519 413.871 209.668 413.126 209.816C410.285 210.382 407.501 210.418 404.668 210.136C400.543 209.727 396.628 210.403 393.05 213.279C389.783 215.904 386.122 215.276 382.408 214.639C382.126 214.591 381.845 214.542 381.563 214.495C373.661 213.178 365.977 213.829 358.487 217.045C354.967 218.556 351.589 218.581 348.133 217.196C348.069 217.171 348.005 217.146 347.943 217.121C347.299 216.867 346.794 216.667 346.486 216.095C346.458 215.681 346.574 215.419 346.735 215.22C346.927 214.983 347.205 214.807 347.54 214.613C352.081 211.99 356.56 210.187 361.446 212.156L361.633 211.692L361.446 212.156C365.516 213.795 369.473 213.224 373.351 211.559L373.154 211.099L373.351 211.559C375.083 210.815 376.802 210.049 378.517 209.284C384.394 206.663 390.227 204.062 396.354 202.488C398.113 202.036 399.837 201.419 401.538 200.811C401.836 200.705 402.134 200.598 402.431 200.493C404.431 199.784 406.411 199.126 408.453 198.763C410.385 198.42 412.313 198.33 414.222 198.387C419.029 198.531 423.827 198.292 428.6 198.053L428.618 198.052C433.392 197.814 438.142 197.577 442.894 197.716C446.69 197.828 450.071 196.272 452.637 193.355C455.239 190.396 458.119 187.861 461.028 185.313L461.225 185.141C464.063 182.657 466.924 180.152 469.529 177.251C469.83 176.915 470.136 176.598 470.45 176.273C470.631 176.085 470.815 175.895 471.001 175.698C471.499 175.169 471.995 174.61 472.431 173.98L472.02 173.696L472.431 173.98C474.956 170.328 478.147 168.695 482.003 168.797C486.166 168.906 490.196 167.979 494.178 167.044C498.326 166.07 501.045 163.25 502.89 159.016C503.342 157.978 503.763 156.907 504.179 155.846C504.432 155.204 504.682 154.566 504.938 153.941C505.622 152.265 506.355 150.644 507.287 149.149C509.582 145.468 512.133 142.38 515.624 140.531C518.82 138.838 521.697 136.542 524.23 133.645C525.804 131.845 527.684 130.524 529.649 129.272C531.797 127.903 533.689 126.165 535.441 124.181C537.835 121.471 539.223 118.207 539.152 114.277C539.087 110.681 540.484 108.116 542.491 105.488C547.069 99.4922 552.766 95.7476 559.01 92.7638C562.691 91.0049 566.313 89.0609 569.923 87.1238C570.971 86.5614 572.018 85.9996 573.065 85.4431C574.897 84.4695 576.815 83.9918 578.789 83.6886C579.778 83.5368 580.774 83.4294 581.782 83.3239L581.989 83.3023C582.926 83.2044 583.873 83.1055 584.814 82.9718C587.242 82.6272 589.589 82.0302 591.751 80.5774C594.933 78.4405 598.313 77.0166 601.877 76.2647C604.778 75.6529 606.885 73.841 608.723 71.3144C612.201 66.5355 616.452 62.7875 620.737 59.0094C621.097 58.6928 621.456 58.376 621.815 58.0584L621.484 57.6839L621.815 58.0584C624.195 55.9534 627.048 55.6155 630.008 55.2649C630.435 55.2143 630.865 55.1634 631.296 55.1068C631.638 55.062 631.976 55.0128 632.312 54.964Z" stroke="black" stroke-opacity="0.41"/>
    <path d="M-57.3816 380.873C-54.9564 380.889 -53.2473 380.98 -51.5443 380.89C-49.7549 380.796 -48.0621 381.274 -46.762 382.618C-41.4023 388.158 -34.8101 388.378 -28.2889 388.805C-23.1845 389.139 -18.0891 388.527 -13.0061 387.977C-7.86388 387.421 -2.83758 388.671 2.22099 389.3C3.64373 389.476 5.06479 389.79 6.5 389.757C13.5831 389.591 20.6555 390.233 27.7453 389.989C30.5062 389.894 33.2242 389.532 35.9386 389.131C39.7408 388.57 42.6445 390.121 44.706 393.849C46.4572 397.017 48.652 399.639 51.015 402.141C54.4607 405.789 54.5319 407.175 51.6676 411.523C50.6827 413.018 49.9096 414.594 49.2934 416.344C48.4108 418.851 46.9303 420.475 44.4417 420.144C40.6956 419.646 37.2312 420.969 33.7094 422.27C29.4606 423.839 25.088 424.865 20.5974 424.685C15.4952 424.481 10.471 426.006 5.33089 425.478C2.32832 425.17 -0.205664 427.376 -2.50602 429.372C-6.98328 433.257 -11.713 432.818 -16.3084 430.566C-19.5297 428.987 -22.6939 427.808 -26.1402 427.958C-29.8554 428.12 -33.0625 426.663 -35.9972 424.115C-37.8166 422.536 -39.6787 421.234 -42.0694 421.201C-44.4899 421.167 -46.7582 421.356 -48.7011 423.386C-51.0467 425.838 -52.4989 424.959 -53.5256 421.386C-53.6953 420.796 -53.821 420.185 -53.9281 419.573C-54.5554 415.994 -56.4422 413.876 -59.3142 412.853C-61.8386 411.954 -64.1704 410.605 -66.3224 408.757C-71.4485 404.355 -73.9978 394.589 -71.8596 387.414C-70.9298 384.294 -68.9798 382.693 -66.4144 381.919C-63.2087 380.952 -59.9376 380.893 -57.3816 380.873Z" fill="#E8E4DE"/>
    <path d="M-53.0451 421.248L-53.0451 421.248C-53.2078 420.682 -53.33 420.09 -53.4356 419.487C-53.7613 417.629 -54.4196 416.12 -55.3933 414.937C-56.368 413.753 -57.6378 412.92 -59.1463 412.382C-61.6118 411.504 -63.8903 410.187 -65.9967 408.378L-66.3224 408.757L-65.9967 408.378C-68.4601 406.263 -70.3375 402.823 -71.3312 399C-72.324 395.181 -72.4184 391.04 -71.3805 387.557L-71.3805 387.557C-70.937 386.069 -70.2585 384.967 -69.4042 384.148C-68.5486 383.327 -67.4944 382.767 -66.27 382.398C-63.1422 381.454 -59.9386 381.393 -57.3813 381.373C-56.606 381.378 -55.8982 381.391 -55.237 381.403C-53.8578 381.429 -52.6815 381.451 -51.5181 381.39C-49.8374 381.301 -48.2984 381.749 -47.1214 382.966C-41.8275 388.438 -35.3489 388.853 -29.1031 389.253C-28.8422 389.27 -28.5816 389.287 -28.3216 389.304L-28.2889 388.805L-28.3216 389.304C-23.4849 389.621 -18.6605 389.095 -13.8975 388.577C-13.5822 388.543 -13.2671 388.508 -12.9524 388.474C-10.4371 388.202 -7.93882 388.371 -5.42419 388.69C-4.19426 388.847 -2.96578 389.038 -1.72947 389.231L-1.64621 389.244C-0.384248 389.44 0.885831 389.638 2.15935 389.796C2.53207 389.842 2.91608 389.9 3.30776 389.96C4.34442 390.117 5.43482 390.282 6.51168 390.257C9.87502 390.178 13.2375 390.282 16.6164 390.387C16.7792 390.392 16.9419 390.397 17.1047 390.402C20.6431 390.511 24.199 390.611 27.7624 390.489C30.5534 390.393 33.2952 390.027 36.0116 389.626C37.8249 389.358 39.3895 389.598 40.7385 390.322C42.0916 391.049 43.2711 392.287 44.2684 394.091L44.706 393.849L44.2684 394.091C46.0488 397.311 48.2756 399.969 50.6515 402.484C52.3817 404.316 53.1316 405.456 53.2087 406.603C53.2864 407.76 52.6914 409.06 51.25 411.248C50.2415 412.779 49.4507 414.391 48.8217 416.178C48.3951 417.39 47.8426 418.33 47.1445 418.928C46.465 419.51 45.6163 419.796 44.5077 419.648C40.7189 419.144 37.2201 420.438 33.8121 421.698C33.7201 421.733 33.6281 421.767 33.5361 421.801C29.323 423.357 25.0192 424.362 20.6174 424.186C18.2449 424.09 15.8913 424.363 13.5805 424.63C13.3605 424.656 13.1408 424.681 12.9216 424.706C10.3842 424.996 7.89206 425.239 5.38196 424.981C3.73775 424.812 2.24562 425.336 0.895647 426.13C-0.434278 426.912 -1.66657 427.981 -2.80007 428.965L-2.8337 428.994C-4.99313 430.868 -7.18832 431.681 -9.38331 431.771C-11.5895 431.861 -13.8363 431.221 -16.0883 430.117C-19.3297 428.528 -22.587 427.303 -26.1619 427.459C-29.7159 427.613 -32.8028 426.226 -35.6694 423.738C-37.5004 422.148 -39.4808 420.737 -42.0624 420.701L-42.0694 421.201L-42.0624 420.701C-44.5077 420.666 -46.966 420.85 -49.0623 423.041C-49.6267 423.63 -50.1028 423.982 -50.497 424.151C-50.8754 424.313 -51.1593 424.301 -51.3995 424.191C-51.6605 424.071 -51.9453 423.801 -52.236 423.3C-52.5245 422.803 -52.7942 422.121 -53.0451 421.248Z" stroke="black" stroke-opacity="0.41"/>
    <path d="M268.055 428.216C265.072 428.511 262.382 427.241 259.694 426.007C255.918 424.274 252.175 422.549 248.02 422.394C245.301 422.293 242.865 423.219 240.417 424.332C239.197 424.885 238.024 425.607 236.782 426.067C233.269 427.367 231.395 425.675 231.066 421.221C230.768 417.208 231.656 414.172 234.422 411.382C238.447 407.323 240.04 401.286 241.466 395.453C242.388 391.68 240.925 389.19 237.583 387.464C235.669 386.475 233.646 385.774 231.77 384.699C230.003 383.686 229.766 382.503 231.402 381.303C236.419 377.625 238.762 372.237 239.454 365.515C239.53 364.784 239.888 363.993 240.303 363.425C244.516 357.657 247.672 350.864 252.418 345.618C253.087 344.88 253.887 344.313 254.572 343.594C256.034 342.059 257.426 342.222 258.74 343.79C261.243 346.776 263.78 349.727 266.181 352.827C267.481 354.506 267.861 356.544 267.183 358.879C264.514 368.075 266.832 376.758 269.273 385.367C270.451 389.519 273.377 390.788 276.746 390.856C280.936 390.939 285.067 391.52 289.185 392.409C293.001 393.232 296.473 394.983 299.461 397.867C302.263 400.571 305.337 401.791 308.919 401.46C311.965 401.179 314.933 401.728 317.733 403.202C320.636 404.729 320.875 406.175 318.457 408.589C315.347 411.696 311.431 413.479 308.547 416.996C308.371 417.212 308.026 417.253 307.886 417.485C304.165 423.602 298.919 424.23 293.16 423.773C289.121 423.452 285.084 424.367 281.175 425.691C276.873 427.148 272.481 427.794 268.055 428.216Z" fill="#E8E4DE"/>
    <path d="M268.008 427.718L268.006 427.718C265.22 427.994 262.689 426.832 260.012 425.604L259.902 425.553L259.812 425.511C256.082 423.799 252.276 422.052 248.038 421.894C245.195 421.788 242.668 422.76 240.21 423.876C239.719 424.099 239.234 424.35 238.762 424.593C238.633 424.659 238.506 424.725 238.38 424.789C237.782 425.095 237.2 425.379 236.609 425.598L236.782 426.067L236.609 425.598C234.934 426.217 233.808 426.071 233.056 425.423C232.264 424.74 231.727 423.377 231.564 421.184C231.276 417.289 232.131 414.403 234.777 411.734C238.916 407.56 240.532 401.38 241.951 395.572C242.434 393.598 242.304 391.905 241.569 390.464C240.837 389.03 239.54 387.912 237.812 387.019C236.968 386.583 236.102 386.202 235.253 385.828C235.123 385.771 234.993 385.714 234.864 385.656C233.886 385.224 232.932 384.789 232.019 384.265L231.77 384.699L232.019 384.265C231.166 383.776 230.849 383.334 230.806 383.006C230.767 382.711 230.926 382.272 231.698 381.707L231.402 381.303L231.698 381.707C236.864 377.919 239.25 372.379 239.952 365.567C240.016 364.942 240.331 364.234 240.707 363.72L240.707 363.72C242.401 361.4 243.927 358.914 245.441 356.447C245.823 355.826 246.203 355.205 246.586 354.589C248.493 351.517 250.448 348.541 252.789 345.954L252.418 345.618L252.789 345.954C253.101 345.608 253.448 345.299 253.818 344.975C253.843 344.953 253.867 344.932 253.892 344.91C254.235 344.61 254.597 344.293 254.934 343.939C255.611 343.229 256.189 342.996 256.679 343.028C257.179 343.06 257.74 343.376 258.357 344.111L258.736 343.793L258.357 344.111C258.846 344.696 259.337 345.278 259.827 345.86C261.847 348.258 263.86 350.647 265.785 353.133C266.979 354.675 267.34 356.544 266.703 358.739C263.988 368.092 266.355 376.909 268.792 385.503C269.409 387.678 270.5 389.142 271.916 390.062C273.321 390.975 274.997 391.321 276.736 391.355C280.886 391.438 284.985 392.014 289.08 392.897L289.185 392.409L289.08 392.897C292.809 393.702 296.196 395.41 299.114 398.226C302.005 401.017 305.218 402.304 308.965 401.958C311.917 401.686 314.789 402.217 317.5 403.644C318.947 404.406 319.512 405.046 319.595 405.633C319.679 406.225 319.311 407.03 318.104 408.235C316.782 409.556 315.311 410.632 313.804 411.735C313.577 411.901 313.349 412.068 313.121 412.236C311.389 413.513 309.645 414.869 308.161 416.679C308.161 416.679 308.152 416.689 308.12 416.709C308.083 416.733 308.042 416.754 307.97 416.792L307.957 416.799C307.841 416.86 307.605 416.983 307.458 417.225L307.458 417.225C305.654 420.191 303.503 421.798 301.123 422.622C298.726 423.452 296.058 423.501 293.2 423.274C289.062 422.945 284.951 423.884 281.015 425.217C276.766 426.656 272.419 427.298 268.008 427.718Z" stroke="black" stroke-opacity="0.41"/>
    <path d="M348.033 528.722C349.657 528.803 350.837 528.648 351.973 529.217C356.691 531.581 361.191 530.079 365.653 528.019C366.142 527.793 366.625 527.545 367.105 527.293C368.468 526.575 369.668 526.935 370.721 528.098C371.836 529.33 372.089 531.179 371.355 532.396C368.646 536.883 368.951 541.552 369.669 546.65C370.251 550.775 365.853 557.917 362.642 559.314C360.832 560.102 359.285 559.367 357.906 558.028C356.488 556.652 355.201 555.078 353.746 553.763C350.71 551.02 347.817 550.887 344.814 553.747C341.33 557.065 337.244 557.753 333.085 558.28C331.266 558.51 329.418 558.373 327.587 558.503C324.566 558.717 321.993 557.847 319.755 555.17C318.306 553.438 316.405 552.326 314.329 551.598C310.204 550.149 309.698 548.758 311.266 544.122C312.147 541.519 313.1 538.949 314.073 536.392C315.086 533.732 316.763 532.284 319.307 532.309C328.095 532.396 336.686 530.253 345.348 528.903C346.383 528.742 347.438 528.76 348.033 528.722Z" fill="#E8E4DE"/>
    <path d="M367.338 527.735L367.338 527.735C367.93 527.423 368.446 527.364 368.912 527.476C369.387 527.591 369.867 527.9 370.35 528.433C371.344 529.532 371.527 531.142 370.927 532.138C368.12 536.787 368.455 541.614 369.174 546.72C369.441 548.613 368.557 551.307 367.145 553.755C366.446 554.966 365.635 556.088 364.808 556.988C363.975 557.895 363.154 558.546 362.443 558.856L362.443 558.856C361.649 559.201 360.935 559.208 360.266 558.993C359.581 558.772 358.914 558.31 358.254 557.669L357.906 558.028L358.254 557.669C357.648 557.08 357.066 556.455 356.474 555.819C356.384 555.723 356.295 555.627 356.205 555.531C355.524 554.801 354.826 554.065 354.081 553.392C352.513 551.975 350.919 551.175 349.274 551.154C347.623 551.133 346.03 551.899 344.47 553.385C341.114 556.581 337.178 557.258 333.022 557.783C332.143 557.895 331.251 557.918 330.335 557.929C330.191 557.931 330.047 557.932 329.902 557.933C329.13 557.941 328.339 557.948 327.552 558.004L327.552 558.004C324.677 558.208 322.265 557.393 320.138 554.849C318.616 553.03 316.629 551.875 314.495 551.126C312.43 550.401 311.482 549.75 311.127 548.868C310.947 548.422 310.897 547.864 310.999 547.109C311.101 546.352 311.351 545.432 311.74 544.282L311.266 544.122L311.74 544.282C312.617 541.688 313.568 539.125 314.54 536.57C315.026 535.294 315.655 534.353 316.428 533.734C317.193 533.122 318.133 532.797 319.302 532.809L319.302 532.809C325.836 532.873 332.28 531.712 338.67 530.56C340.928 530.153 343.179 529.747 345.425 529.397C346.141 529.286 346.841 529.264 347.422 529.247C347.646 529.24 347.853 529.234 348.036 529.223C348.424 529.242 348.786 529.248 349.121 529.253L349.166 529.254C349.525 529.26 349.847 529.265 350.153 529.286C350.759 529.326 351.264 529.421 351.749 529.664C356.692 532.141 361.391 530.538 365.862 528.473C366.363 528.242 366.855 527.989 367.338 527.735Z" stroke="black" stroke-opacity="0.41"/>
    <path d="M27.1684 101.025C22.9937 100.659 18.8163 100.985 14.6532 100.016C10.176 98.9731 6.05453 99.8838 2.88961 104.351C1.74344 105.969 0.0471296 106.592 -1.57591 107.157C-3.192 107.72 -4.10799 106.76 -4.0178 104.743C-3.96966 103.667 -3.68485 102.607 -3.52887 101.535C-2.95713 97.6056 -3.15149 93.7641 -4.25479 89.9683C-4.80917 88.061 -5.23562 86.0776 -5.52382 84.0876C-5.95462 81.1126 -6.77213 78.4166 -8.25824 75.9199C-9.98891 73.0123 -9.77181 71.9777 -7.40125 69.6501C-6.49178 68.7572 -5.45986 68.0447 -4.52335 67.1881C-0.724085 63.7131 0.150497 58.898 -2.11893 53.9353C-2.68159 52.7049 -3.36029 51.5504 -3.92353 50.3204C-5.30764 47.2975 -5.72184 44.1392 -4.61412 40.8547C-3.67972 38.0841 -3.0961 35.3412 -3.50601 32.2556C-3.85307 29.6434 -2.90205 28.8527 -0.718459 29.4301C1.84224 30.107 3.7098 32.2494 5.33467 34.38C8.83336 38.9678 12.9923 41.7619 18.09 42.8304C19.422 43.1096 21.5032 43.4495 21.419 45.3709C21.3266 47.4824 19.2505 46.9866 17.9045 47.2033C11.2128 48.2808 8.557 52.833 10.1693 60.597C10.7705 63.4918 11.2025 66.3845 11.057 69.3889C10.9968 70.6311 10.9797 71.9224 11.1908 73.129C12.7701 82.1541 20.6607 91.0652 28.4899 92.5534C31.6649 93.157 34.5877 94.2838 36.9973 96.8813C37.7451 97.6873 38.8321 98.4665 38.4879 99.9311C38.0927 101.612 36.7783 101.039 35.8179 101.057C32.9355 101.11 30.0517 101.044 27.1684 101.025Z" fill="#E8E4DE"/>
    <path d="M-3.01036 32.1898L-3.01036 32.1897C-3.18174 30.8999 -2.99345 30.2768 -2.71361 30.0061C-2.45076 29.7519 -1.91195 29.6317 -0.84626 29.9134L-0.846251 29.9134C1.53078 30.5418 3.30694 32.5457 4.93709 34.6832C8.498 39.3526 12.7563 42.2232 17.9874 43.3197C18.0448 43.3318 18.1028 43.3438 18.1611 43.3559C18.8093 43.4903 19.5015 43.6338 20.0506 43.9262C20.3402 44.0803 20.5606 44.2621 20.7056 44.4798C20.8462 44.6908 20.9363 44.9659 20.9195 45.349C20.9001 45.7923 20.781 46.036 20.6487 46.1828C20.5119 46.3347 20.3086 46.4413 20.0156 46.5113C19.7181 46.5825 19.3734 46.6059 18.9865 46.623C18.9373 46.6251 18.8872 46.6272 18.8364 46.6293C18.5072 46.6429 18.1481 46.6577 17.825 46.7097C14.3789 47.2646 11.8857 48.732 10.4902 51.1422C9.1048 53.5348 8.86101 56.756 9.67978 60.6987C10.2777 63.5777 10.7001 66.4225 10.5576 69.3647C10.4971 70.6129 10.4771 71.9508 10.6983 73.2152L11.1908 73.129L10.6983 73.2152C11.5064 77.8331 13.9227 82.3998 17.123 85.9997C20.3198 89.5958 24.3413 92.2738 28.3965 93.0446C31.5119 93.6368 34.3198 94.7302 36.6307 97.2214L36.9973 96.8813L36.6308 97.2214C36.7437 97.3431 36.8765 97.4768 37.0032 97.6043C37.085 97.6867 37.1643 97.7665 37.234 97.8389C37.4287 98.0409 37.6004 98.2351 37.7373 98.4385C37.9984 98.8263 38.1352 99.2464 38.0011 99.8167C37.9175 100.172 37.7984 100.353 37.6958 100.45C37.5967 100.544 37.4717 100.598 37.2961 100.623C37.11 100.648 36.8944 100.637 36.6317 100.612C36.5899 100.608 36.5462 100.604 36.5011 100.599C36.2857 100.578 36.0377 100.553 35.8087 100.557C33.7434 100.595 31.6808 100.572 29.6097 100.549C28.8052 100.54 27.9995 100.531 27.1918 100.525C25.7305 100.398 24.2601 100.354 22.807 100.31C22.1764 100.291 21.549 100.272 20.9269 100.247C18.8499 100.162 16.802 100.002 14.7666 99.5286C12.4652 98.9927 10.2181 98.9503 8.12249 99.6424C6.02144 100.336 4.11672 101.754 2.48162 104.062C1.43902 105.534 -0.105858 106.116 -1.74035 106.685C-2.43954 106.928 -2.84512 106.803 -3.08231 106.565C-3.3557 106.29 -3.56098 105.72 -3.5183 104.765C-3.49577 104.262 -3.41747 103.754 -3.32179 103.226C-3.29484 103.078 -3.26619 102.926 -3.23714 102.772C-3.16517 102.391 -3.09081 101.997 -3.03408 101.607C-2.453 97.6135 -2.64962 93.6994 -3.77466 89.8288C-4.32238 87.9444 -4.74401 85.9837 -5.02898 84.0159C-5.46669 80.9932 -6.30091 78.2307 -7.8286 75.6642C-8.69309 74.2118 -8.97935 73.3633 -8.87302 72.6403C-8.76577 71.9109 -8.2412 71.1756 -7.05094 70.0069C-6.61462 69.5785 -6.14555 69.1901 -5.65728 68.7936C-5.60093 68.7479 -5.54427 68.702 -5.48737 68.6559C-5.0563 68.3067 -4.61156 67.9464 -4.1859 67.557C-0.213898 63.9241 0.688159 58.8715 -1.66422 53.7274C-1.95155 53.099 -2.26764 52.492 -2.57694 51.8979L-2.57753 51.8968C-2.88892 51.2988 -3.19346 50.7138 -3.46893 50.1122C-4.81103 47.1811 -5.19966 44.1555 -4.14034 41.0145C-3.19397 38.2084 -2.58625 35.3823 -3.01036 32.1898Z" stroke="black" stroke-opacity="0.41"/>
    <path d="M143.013 402.879C140.159 403.243 137.367 402.171 134.503 401.908C126.51 401.175 118.563 402.565 110.589 402.596C108.493 402.604 106.396 402.733 104.3 402.699C103.43 402.684 102.364 402.797 102.066 401.364C101.797 400.069 102.579 399.335 103.263 398.622C103.752 398.113 104.312 397.68 104.881 397.302C107.338 395.673 109.35 393.548 110.791 390.597C112.191 387.727 114.374 386.359 117.163 385.714C120.817 384.869 124.458 384.841 128.114 384.97C131.413 385.086 134.645 384.781 137.815 383.682C139.234 383.19 140.655 382.906 142.045 383.641C147.673 386.618 153.715 387.126 159.691 387.146C168.339 387.176 176.948 388.1 185.587 388.131C188.325 388.141 191.079 388.485 193.793 387.574C194.524 387.329 195.371 387.411 196.143 387.535C200.69 388.265 205.222 388.636 209.766 387.402C210.511 387.2 211.337 387.349 212.119 387.435C213.527 387.589 213.48 388.797 213.001 389.796C212.19 391.487 210.918 392.612 209.216 392.752C208.172 392.838 207.114 392.854 206.07 392.767C203.143 392.524 200.387 393.067 197.682 394.562C193.944 396.628 189.812 397.202 185.823 397.209C180.014 397.219 174.373 398.47 168.705 399.473C163.911 400.321 159.053 399.922 154.292 401.096C150.593 402.008 146.929 403.384 143.013 402.879Z" fill="#E8E4DE"/>
    <path d="M143.077 402.383L143.014 402.375L103.624 398.969C104.08 398.493 104.608 398.083 105.157 397.719C107.682 396.045 109.757 393.854 111.24 390.816L110.791 390.597L111.24 390.816C112.562 388.108 114.603 386.819 117.276 386.201L117.163 385.714L117.276 386.201C120.864 385.371 124.45 385.341 128.096 385.47C131.438 385.587 134.735 385.279 137.978 384.154C139.372 383.671 140.617 383.451 141.812 384.083C147.55 387.118 153.694 387.626 159.689 387.646C163.998 387.661 168.299 387.899 172.615 388.138L172.631 388.139C176.937 388.377 181.256 388.616 185.585 388.631C186.133 388.633 186.691 388.65 187.256 388.666C189.432 388.731 191.715 388.798 193.952 388.049L193.793 387.574L193.952 388.049C194.556 387.846 195.294 387.905 196.064 388.029C200.629 388.762 205.248 389.147 209.897 387.885L209.766 387.402L209.897 387.885C210.431 387.74 211.015 387.809 211.696 387.889C211.816 387.904 211.938 387.918 212.064 387.932C212.347 387.963 212.51 388.041 212.604 388.117C212.693 388.189 212.751 388.284 212.781 388.413C212.847 388.697 212.769 389.124 212.55 389.58C211.789 391.167 210.645 392.133 209.175 392.254L209.216 392.752L209.175 392.254C208.153 392.338 207.123 392.353 206.112 392.269C203.089 392.018 200.234 392.58 197.441 394.124L197.682 394.562L197.441 394.124C193.805 396.133 189.768 396.702 185.822 396.709C180.928 396.717 176.148 397.599 171.423 398.47C170.486 398.643 169.551 398.815 168.617 398.981C166.528 399.35 164.426 399.48 162.292 399.611C162.014 399.628 161.734 399.646 161.454 399.663C159.044 399.817 156.6 400.012 154.172 400.611C153.423 400.795 152.692 400.994 151.967 401.191C150.857 401.493 149.76 401.791 148.63 402.03C146.792 402.418 144.958 402.626 143.077 402.383Z" stroke="black" stroke-opacity="0.41"/>
    <path d="M193.16 595.931C190.921 595.956 190.053 594.821 190.27 592.441C190.417 590.827 191.236 589.579 191.877 588.224C193.43 584.941 194.736 581.596 194.6 577.643C194.499 574.702 195.67 572.549 198.147 571.679C202.077 570.3 205.653 568.135 208.847 565.051C209.343 564.572 209.977 564.26 210.584 563.986C212.316 563.207 213.047 563.914 212.785 566.097C212.711 566.711 212.595 567.345 212.376 567.902C210.57 572.499 210.327 576.973 212.098 581.805C213.415 585.397 211.053 590.321 207.719 592.079C206.892 592.516 205.993 592.947 205.11 593.006C201.313 593.26 197.578 593.763 194.08 595.739C193.742 595.93 193.317 595.901 193.16 595.931Z" fill="#E8E4DE"/>
    <path d="M212.785 566.097C213.047 563.914 212.316 563.207 210.584 563.986C209.977 564.26 209.343 564.572 208.847 565.051L212.785 566.097ZM212.785 566.097C212.711 566.711 212.595 567.345 212.376 567.902C210.57 572.499 210.327 576.973 212.098 581.805C213.415 585.397 211.053 590.321 207.719 592.079L212.785 566.097ZM209.194 565.411C209.622 564.997 210.183 564.715 210.789 564.442C211.638 564.061 211.965 564.175 212.086 564.291C212.163 564.366 212.253 564.517 212.302 564.817C212.35 565.115 212.351 565.517 212.288 566.038L212.288 566.038C212.216 566.636 212.106 567.221 211.91 567.719C210.065 572.418 209.811 577.019 211.629 581.977C212.23 583.616 212.003 585.607 211.196 587.427C210.389 589.246 209.034 590.821 207.486 591.637C206.653 592.077 205.84 592.456 205.076 592.507C201.264 592.762 197.434 593.27 193.834 595.303L193.834 595.303C193.748 595.352 193.633 595.382 193.492 595.399C193.423 595.407 193.357 595.412 193.289 595.416L193.277 595.417C193.235 595.42 193.176 595.424 193.119 595.431C192.096 595.437 191.511 595.178 191.182 594.773C190.835 594.346 190.664 593.63 190.768 592.487C190.874 591.322 191.35 590.387 191.875 589.354C192.025 589.059 192.179 588.756 192.329 588.438C193.889 585.138 195.24 581.703 195.1 577.626L194.6 577.643L195.1 577.626C195.051 576.223 195.308 575.049 195.839 574.136C196.366 573.23 197.18 572.549 198.312 572.151C202.31 570.748 205.949 568.545 209.194 565.411L209.194 565.411Z" stroke="black" stroke-opacity="0.41"/>
    <path d="M299.272 221.562C298.781 222.681 298.236 223.061 297.611 223.366C292.885 225.674 288.434 228.625 284.051 231.726C279.392 235.023 274.127 235.257 268.981 235.903C266.784 236.179 265.679 234.153 266.221 231.552C266.668 229.402 267.668 227.514 268.754 225.784C270.587 222.863 270.974 220.04 269.482 216.709C268.493 214.498 269.012 213.882 271.241 213.678C272.856 213.53 274.374 213.97 275.814 214.691C279.846 216.709 283.922 217.352 288.344 216.759C292.492 216.204 296.004 218.772 299.272 221.562Z" fill="#E8E4DE"/>
    <path d="M288.41 217.255C292.196 216.748 295.464 218.999 298.655 221.694C298.482 222.021 298.31 222.246 298.14 222.414C297.919 222.633 297.681 222.776 297.392 222.917L297.392 222.917C292.629 225.243 288.151 228.213 283.762 231.318C279.772 234.141 275.337 234.656 270.782 235.185C270.163 235.257 269.541 235.329 268.918 235.407C268.01 235.521 267.379 235.171 267.001 234.547C266.604 233.891 266.456 232.874 266.71 231.653L266.221 231.552L266.71 231.653C267.14 229.591 268.103 227.762 269.177 226.05L269.177 226.05C270.124 224.541 270.714 223.031 270.862 221.447C271.011 219.86 270.714 218.235 269.939 216.504L269.939 216.504C269.698 215.968 269.566 215.563 269.52 215.257C269.475 214.956 269.521 214.799 269.579 214.706C269.638 214.61 269.764 214.499 270.051 214.399C270.34 214.298 270.743 214.226 271.287 214.176L271.287 214.176C272.778 214.039 274.202 214.443 275.591 215.138L275.591 215.138C279.714 217.202 283.892 217.86 288.41 217.255L288.344 216.759L288.41 217.255Z" stroke="black" stroke-opacity="0.41"/>
    <path d="M225.791 256.276C226.15 253.245 227.759 252.103 228.664 250.433C230.128 247.733 230.682 245.184 229.396 242.12C228.229 239.337 227.257 236.411 226.429 233.456C225.359 229.642 225.387 225.796 226.78 222.013C228.781 216.578 230.69 211.095 232.687 205.658C233.945 202.234 234.983 201.727 237.922 203.207C239.36 203.931 240.711 204.919 242.054 205.88C242.819 206.428 243.664 206.94 244.157 208.325C241.759 210.868 241.163 214.213 240.816 218.12C240.339 223.491 239.024 228.812 236.159 233.371C233.591 237.458 232.189 242.289 231.754 247.27C231.361 251.777 229.379 254.206 225.791 256.276Z" fill="#E8E4DE"/>
    <path d="M227.249 222.186L226.78 222.013L227.249 222.186C228.251 219.466 229.229 216.734 230.206 214.005L230.275 213.811C231.229 211.146 232.182 208.482 233.156 205.831C233.466 204.986 233.753 204.351 234.045 203.89C234.336 203.43 234.611 203.176 234.887 203.046C235.432 202.789 236.219 202.909 237.697 203.654C239.015 204.318 240.263 205.212 241.538 206.125C241.613 206.179 241.688 206.233 241.763 206.287C241.821 206.328 241.878 206.369 241.935 206.409C242.584 206.869 243.174 207.287 243.578 208.218C241.232 210.865 240.655 214.28 240.318 218.076L240.318 218.076C239.845 223.4 238.545 228.636 235.736 233.105C233.117 237.272 231.697 242.183 231.256 247.227C231.065 249.412 230.493 251.058 229.56 252.401C228.799 253.496 227.782 254.414 226.486 255.263C226.712 254.39 227.059 253.713 227.443 253.114C227.667 252.766 227.9 252.448 228.138 252.124C228.188 252.056 228.238 251.988 228.288 251.919C228.573 251.527 228.86 251.12 229.104 250.672L228.664 250.433L229.104 250.672C230.614 247.886 231.219 245.173 229.857 241.927C228.7 239.167 227.734 236.261 226.91 233.321C225.866 229.598 225.896 225.861 227.249 222.186Z" stroke="black" stroke-opacity="0.41"/>
    <path d="M242.267 564.386C239.908 563.233 237.335 563.716 234.754 564.216C234.245 564.314 233.679 564.304 233.188 564.139C231.898 563.708 230.462 563.142 230.886 561.081C231.264 559.247 232.647 558.672 234.024 559.228C237.045 560.449 240.113 560.78 243.285 560.798C245.741 560.812 247.68 559.946 249.043 557.554C251.009 554.105 253.739 552.233 257.117 551.493C258.854 551.112 260.27 550.059 261.323 548.308C262.679 546.052 263.803 543.128 266.872 544.791C269.693 546.321 271.736 550.681 271.263 553.977C270.316 560.578 264.008 565.486 258.61 563.783C253.987 562.324 249.397 561.39 244.801 564.027C244.136 564.409 243.259 564.262 242.267 564.386Z" fill="#E8E4DE"/>
    <path d="M233.347 563.665L233.347 563.665L249.043 557.554L249.478 557.802C249.478 557.802 249.478 557.802 249.478 557.802C251.373 554.476 253.984 552.691 257.224 551.981L257.224 551.981C259.111 551.567 260.637 550.42 261.751 548.566L261.323 548.308L261.751 548.566C261.915 548.293 262.076 548.011 262.233 547.735L262.259 547.689C262.426 547.395 262.59 547.109 262.758 546.833C263.096 546.278 263.433 545.797 263.803 545.44C264.168 545.088 264.545 544.875 264.968 544.818C265.393 544.76 265.931 544.85 266.633 545.231C267.923 545.93 269.077 547.306 269.851 548.937C270.625 550.565 270.987 552.379 270.768 553.906C270.314 557.072 268.572 559.835 266.299 561.599C264.024 563.365 261.265 564.097 258.761 563.306C254.121 561.842 249.345 560.843 244.552 563.594C244.324 563.725 244.036 563.779 243.626 563.804C243.508 563.812 243.374 563.816 243.23 563.822C242.961 563.831 242.656 563.843 242.353 563.873C239.859 562.718 237.169 563.239 234.666 563.724L234.659 563.725C234.217 563.811 233.74 563.797 233.347 563.665Z" stroke="black" stroke-opacity="0.41"/>
    <path d="M329.214 342.936C324.409 342.146 318.744 341.192 313.072 340.294C311.006 339.968 308.919 339.817 306.851 339.504C306.085 339.388 305.282 339.18 304.606 338.762C303.328 337.972 301.949 336.986 301.917 335.084C301.878 332.788 303.631 332.701 304.985 332.234C307.764 331.274 310.727 332.077 313.493 330.898C314.589 330.43 315.791 330.313 316.881 329.83C318.735 329.007 320.47 329.23 322.09 330.448C325.027 332.656 328.15 333.984 331.679 333.891C332.565 333.868 333.451 334.398 334.351 334.493C335.892 334.655 337.248 335.01 337.418 337.258C337.588 339.52 336.854 341.156 335.089 342.168C333.476 343.094 331.793 343.018 329.214 342.936Z" fill="#E8E4DE"/>
    <path d="M313.15 339.801L313.15 339.801C317.265 340.452 321.378 341.133 325.159 341.759C326.579 341.995 327.953 342.222 329.263 342.437L329.296 342.438C331.876 342.521 333.387 342.569 334.84 341.735L334.84 341.735C335.643 341.274 336.192 340.685 336.527 339.97C336.864 339.249 337 338.366 336.919 337.296C336.842 336.279 336.51 335.784 336.11 335.502C335.673 335.194 335.068 335.071 334.299 334.99L313.15 339.801ZM313.15 339.801C312.105 339.635 311.056 339.515 310.019 339.397C309.977 339.392 309.936 339.388 309.895 339.383C308.896 339.27 307.908 339.158 306.926 339.009L313.15 339.801ZM305.148 332.706L305.148 332.706C304.931 332.781 304.686 332.852 304.456 332.919C304.322 332.958 304.193 332.995 304.077 333.031C303.734 333.137 303.437 333.249 303.189 333.4C302.948 333.547 302.761 333.726 302.631 333.971C302.5 334.217 302.408 334.565 302.417 335.075L305.148 332.706ZM305.148 332.706C306.386 332.279 307.667 332.22 309.034 332.158C309.112 332.155 309.189 332.151 309.267 332.147C310.697 332.081 312.214 331.987 313.689 331.358L313.689 331.358M305.148 332.706L313.689 331.358M313.689 331.358C314.19 331.144 314.719 331.008 315.291 330.86L315.315 330.854C315.884 330.707 316.496 330.548 317.084 330.287L317.084 330.287M313.689 331.358L317.084 330.287M317.084 330.287C317.941 329.906 318.748 329.777 319.513 329.87C320.28 329.963 321.038 330.282 321.789 330.847L322.089 330.449M317.084 330.287L322.089 330.449M322.089 330.449L321.789 330.847C324.787 333.101 328.018 334.487 331.692 334.391M322.089 330.449L331.692 334.391M331.692 334.391C332.041 334.382 332.41 334.482 332.858 334.624M331.692 334.391L332.858 334.624M332.858 334.624C332.907 334.64 332.957 334.656 333.007 334.672M332.858 334.624L333.007 334.672M333.007 334.672C333.396 334.798 333.844 334.942 334.299 334.99L333.007 334.672ZM304.869 338.337C303.583 337.542 302.444 336.685 302.417 335.075L306.926 339.009C306.189 338.898 305.462 338.704 304.869 338.337Z" stroke="black" stroke-opacity="0.41"/>
    <path d="M20.1456 609.861C14.7471 608.919 9.36894 609.344 4.75639 605.766C3.92065 605.117 2.61766 604.932 2.67541 603.305C2.7397 601.491 4.11873 601.222 5.16888 600.746C6.38711 600.193 7.68581 599.897 8.94819 599.483C12.5285 598.308 15.7861 596.554 18.4554 593.254C19.6591 591.766 21.1996 589.911 23.229 590.681C25.4181 591.511 25.7852 593.937 25.9715 596.385C26.1902 599.258 27.2109 601.738 28.6362 604.072C30.4915 607.11 30.0256 608.333 26.8739 608.931C24.5558 609.371 22.1483 608.868 20.1456 609.861Z" fill="#E8E4DE"/>
    <path d="M20.0738 609.342C18.7606 609.119 17.4518 608.973 16.1712 608.831L16.1675 608.83C14.8292 608.681 13.5228 608.536 12.2433 608.31C9.69126 607.859 7.28121 607.092 5.06286 605.371L5.06285 605.371C4.82622 605.187 4.56267 605.039 4.33529 604.912L4.31518 604.901C4.07086 604.763 3.86527 604.647 3.68881 604.509C3.51853 604.375 3.39177 604.234 3.30662 604.063C3.22203 603.892 3.16312 603.66 3.1751 603.323L3.1751 603.323C3.20166 602.573 3.48376 602.193 3.8474 601.928C4.04517 601.783 4.27859 601.665 4.54421 601.55C4.63943 601.509 4.75601 601.461 4.8777 601.411C5.04847 601.341 5.22929 601.267 5.37526 601.201L5.37537 601.201C6.17922 600.837 6.99749 600.595 7.85278 600.342C8.26062 600.221 8.67689 600.098 9.10402 599.958C12.7438 598.764 16.0962 596.966 18.8442 593.569C19.4538 592.815 20.0975 592.037 20.8197 591.53C21.5201 591.039 22.2386 590.84 23.0517 591.148L23.0517 591.148C23.9791 591.5 24.532 592.184 24.8843 593.105C25.2443 594.046 25.3798 595.199 25.473 596.423C25.6994 599.397 26.7567 601.953 28.2095 604.332L28.6362 604.072L28.2095 604.332C28.6638 605.076 28.9582 605.681 29.1085 606.175C29.2586 606.667 29.2514 607.004 29.1632 607.245C29.078 607.477 28.8882 607.699 28.503 607.907C28.1103 608.118 27.5476 608.294 26.7807 608.44L26.8739 608.931L26.7807 608.44C25.9297 608.601 25.0762 608.629 24.193 608.658C23.9211 608.667 23.6464 608.676 23.3681 608.689C22.2674 608.741 21.1315 608.857 20.0738 609.342Z" stroke="black" stroke-opacity="0.41"/>
    <path d="M22.9495 357.67C20.6343 356.95 17.7516 356.988 14.9416 356.443C12.9884 356.064 11.7455 354.445 11.4697 351.99C11.3834 351.223 11.4314 350.427 11.3008 349.673C10.898 347.349 10.3362 344.78 12.4861 343.421C14.5103 342.141 16.7887 342.416 18.871 343.687C19.5606 344.108 20.2846 344.573 20.8117 345.226C22.9218 347.84 25.3623 349.82 28.1814 351.178C29.1373 351.638 30.3406 352.148 30.2635 353.608C30.1843 355.108 29.1568 356.089 27.9811 356.492C26.4935 357.002 25.0276 357.716 22.9495 357.67Z" fill="#E8E4DE"/>
    <path d="M11.9666 351.935L11.9666 351.935C12.2263 354.246 13.3634 355.628 15.0367 355.952C15.0367 355.952 15.0367 355.952 15.0367 355.952L14.9416 356.443L11.9666 351.935ZM11.9666 351.935C11.9318 351.625 11.9202 351.312 11.9079 350.977M11.9666 351.935L11.9079 350.977M12.7533 343.844L12.7533 343.844C11.8481 344.416 11.505 345.229 11.4349 346.22C11.3685 347.16 11.5512 348.204 11.7407 349.286C11.7583 349.386 11.7759 349.487 11.7934 349.588L12.7533 343.844ZM12.7533 343.844C14.5727 342.693 16.6409 342.912 18.6106 344.114L18.6106 344.114M12.7533 343.844L18.6106 344.114M18.6106 344.114C19.3039 344.537 19.9566 344.962 20.4227 345.54M18.6106 344.114L23.029 357.171C24.6011 357.194 25.7802 356.761 26.9903 356.316C27.2634 356.216 27.538 356.115 27.8191 356.019C28.8506 355.666 29.6982 354.831 29.7642 353.582C29.7937 353.023 29.5901 352.672 29.2764 352.391C28.9565 352.105 28.5368 351.903 28.0764 351.682C28.0393 351.664 28.002 351.647 27.9644 351.628C25.0727 350.236 22.575 348.206 20.4227 345.54M20.4227 345.54L20.8117 345.226L20.4227 345.54ZM11.9079 350.977C11.9058 350.921 11.9037 350.864 11.9015 350.807M11.9079 350.977L11.9015 350.807M11.9015 350.807C11.8863 350.417 11.8649 350 11.7934 349.588L11.9015 350.807Z" stroke="black" stroke-opacity="0.41"/>
    <path d="M44.4458 551.905C45.7756 551.831 46.759 552.082 47.708 552.717C49.8021 554.118 51.8178 557.442 51.104 558.938C49.9818 561.29 47.8569 561.265 45.9232 561.044C43.9986 560.824 42.0564 560.433 40.2082 559.775C38.364 559.119 37.9318 557.678 38.9816 555.851C40.3316 553.502 41.8865 551.308 44.4458 551.905Z" fill="#E8E4DE"/>
    <path d="M44.402 552.409L44.3322 552.392C43.2423 552.138 42.3736 552.464 41.5894 553.15C40.7809 553.857 40.0898 554.926 39.4151 556.1C38.9272 556.949 38.8368 557.617 38.9873 558.104C39.1334 558.577 39.5481 559.009 40.3759 559.304L40.3759 559.304C42.1797 559.946 44.0829 560.33 45.98 560.547C45.98 560.547 45.98 560.547 45.98 560.547L44.402 552.409ZM44.402 552.409L44.4736 552.405M44.402 552.409L44.4736 552.405M44.4736 552.405C45.7108 552.336 46.5835 552.566 47.43 553.133M44.4736 552.405L47.43 553.133M47.43 553.133C48.4001 553.782 49.3781 554.899 50.024 556.038M47.43 553.133L50.024 556.038M50.024 556.038C50.3457 556.606 50.5735 557.158 50.681 557.641M50.024 556.038L50.681 557.641M50.681 557.641C50.7906 558.132 50.7629 558.492 50.6528 558.723L50.681 557.641Z" stroke="black" stroke-opacity="0.41"/>
    <path d="M218.868 198.274C217.39 198.277 215.878 198.155 215.285 196.206C214.679 194.212 214.827 192.204 216.075 190.536C217.231 188.99 218.627 188.488 220.299 189.356C221.986 190.232 223.587 191.308 224.869 192.859C226.127 194.381 225.822 196.118 224.172 196.925C222.492 197.745 220.718 198.283 218.868 198.274Z" fill="#E8E4DE"/>
    <path d="M218.871 197.774L218.868 197.774C218.125 197.776 217.474 197.741 216.942 197.513C216.45 197.301 216.02 196.904 215.764 196.06L215.285 196.205L215.764 196.06C215.192 194.18 215.345 192.347 216.476 190.835C217.015 190.114 217.572 189.689 218.137 189.52C218.69 189.354 219.323 189.412 220.068 189.8L220.068 189.8C221.723 190.659 223.26 191.697 224.484 193.178C225.042 193.853 225.213 194.524 225.118 195.075C225.024 195.619 224.656 196.131 223.952 196.475L224.172 196.925L223.952 196.475C222.318 197.274 220.621 197.782 218.871 197.774ZM220.299 189.356L220.299 189.356L220.299 189.356Z" stroke="black" stroke-opacity="0.41"/>
    <path d="M155.385 540.439C156.079 540.504 157.558 540.096 158.9 540.983C160.072 541.758 160.14 542.952 159.075 543.935C158.972 544.031 158.86 544.139 158.739 544.176C155.082 545.305 151.393 546.155 147.654 544.898C146.359 544.463 146.291 543.131 147.484 542.162C149.654 540.401 152.142 540.261 155.385 540.439Z" fill="#E8E4DE"/>
    <path d="M158.624 541.401L158.624 541.401C158.058 541.027 157.456 540.918 156.886 540.903C156.598 540.895 156.327 540.91 156.068 540.926C156.058 540.926 156.048 540.927 156.039 540.927C155.808 540.941 155.558 540.956 155.349 540.937C152.12 540.761 149.809 540.919 147.8 542.55L158.624 541.401ZM158.624 541.401C159.116 541.726 159.308 542.089 159.327 542.411C159.346 542.737 159.194 543.145 158.736 543.568L158.736 543.568M158.624 541.401L158.736 543.568M158.736 543.568C158.73 543.574 158.724 543.579 158.719 543.584C158.67 543.63 158.638 543.659 158.607 543.683C158.593 543.694 158.584 543.699 158.58 543.702C154.934 544.826 151.385 545.624 147.813 544.424L147.813 544.424M158.736 543.568L147.813 544.424M147.813 544.424C147.321 544.258 147.151 543.968 147.135 543.701M147.813 544.424L147.135 543.701M147.135 543.701C147.118 543.402 147.284 542.968 147.8 542.55L147.135 543.701Z" stroke="black" stroke-opacity="0.41"/>
    <path d="M235.166 530.025C232.491 534.806 227.911 535.658 224.723 532.254C223.609 531.065 224.361 530.082 225.262 529.873C227.542 529.345 229.819 528.317 232.212 529.182C233.078 529.496 233.976 529.69 235.166 530.025Z" fill="#E8E4DE"/>
    <path d="M225.088 531.912L225.088 531.912C226.58 533.505 228.351 534.064 230.037 533.719C231.594 533.399 233.159 532.289 234.4 530.334C234.252 530.294 234.108 530.256 233.966 530.219C233.268 530.035 232.641 529.869 232.042 529.653C230.96 529.261 229.891 529.291 228.786 529.497C228.231 529.6 227.676 529.746 227.106 529.903C227.008 529.93 226.909 529.957 226.81 529.985C226.339 530.115 225.856 530.249 225.375 530.36L225.088 531.912ZM225.088 531.912C224.62 531.412 224.631 531.065 224.704 530.875M225.088 531.912L224.704 530.875M224.704 530.875C224.792 530.646 225.044 530.437 225.375 530.36L224.704 530.875Z" stroke="black" stroke-opacity="0.41"/>
    <path d="M330.905 217.443C335.124 212.648 336.827 212.4 340.872 215.66C337.647 217.99 336.306 218.251 330.905 217.443Z" fill="#E8E4DE"/>
    <path d="M336.616 217.236C335.451 217.447 334.064 217.377 331.901 217.081C332.682 216.23 333.362 215.567 333.984 215.075C334.763 214.458 335.422 214.131 336.039 214.024C337.148 213.831 338.306 214.315 340.036 215.639C338.728 216.543 337.763 217.029 336.616 217.236Z" stroke="black" stroke-opacity="0.41"/>
    </g>
    </g>
    <defs>
    <clipPath id="clip0_46_1021">
    <rect width="358" height="629" fill="white"/>
    </clipPath>
    <clipPath id="clip1_46_1021">
    <rect width="883.613" height="969.575" fill="white" transform="translate(-252.554 -333.776) rotate(0.383412)"/>
    </clipPath>
    </defs>
</svg>