<svg preserveAspectRatio="none" width="358" height="629" viewBox="0 0 358 629" fill="none" xmlns="http://www.w3.org/2000/svg">
    <g clip-path="url(#clip0_46_2209)">
    <rect width="358" height="629" fill="#E8E3DD"/>
    <path d="M358 334.407V303H148V510H178.927C219.836 510 253 476.808 253 435.864V510H283.927C324.836 510 358 476.808 358 435.864V404.456H308.24C337.206 394.387 358 366.828 358 334.407ZM203.24 404.456C232.207 394.387 253 366.828 253 334.407V404.456H203.24Z" fill="#E2B63F"/>
    <g clip-path="url(#clip1_46_2209)">
    <mask id="path-3-inside-1_46_2209" fill="white">
    <path d="M-104.992 440.2C-102.621 440.798 -99.943 441.326 -97.3495 442.162C-93.9477 443.258 -90.2678 442.931 -86.6873 443.013C-83.7772 443.079 -81.0538 443.778 -78.2849 444.367C-76.9435 444.653 -76.0614 445.981 -75.3408 447.485C-73.3078 451.727 -70.554 453.724 -66.5998 452.461C-63.5295 451.481 -60.8252 452.492 -58.1228 453.338C-55.1391 454.273 -51.9986 453.929 -48.7379 452.963C-47.3719 452.558 -45.9695 452.068 -44.666 452.092C-41.4659 452.151 -39.0737 453.935 -38.5781 459.344C-38.3899 461.399 -38.1596 463.43 -37.8914 465.428C-37.6044 467.565 -36.7221 468.934 -35.3347 468.847C-33.7472 468.748 -32.3157 467.035 -31.458 464.472C-30.7422 462.332 -30.0295 460.045 -29.7371 457.862C-29.098 453.091 -27.1922 449.981 -24.5713 448.057C-22.3391 446.418 -20.6239 443.969 -19.1036 440.867C-17.5181 437.631 -15.7489 434.693 -13.7782 432.063C-9.84061 426.807 -7.98971 420.601 -7.78575 413.49C-7.51024 403.885 -5.72263 399.979 0.314508 395.541C1.78795 394.458 3.29134 393.444 4.78596 392.73C7.83111 391.276 10.307 388.391 12.5468 384.184C17.634 374.628 22.4256 364.803 26.3733 354.164C27.5531 350.985 28.9943 348.24 30.7932 345.97C33.3119 342.793 35.4266 342.202 37.1721 344.781C41.5483 351.248 47.2558 352.75 54.0123 350.563C57.0835 349.569 59.8864 349.967 62.5765 350.923C64.9285 351.758 67.2974 351.181 69.835 348.884C73.1168 345.912 76.521 344.251 79.898 342.725C83.4532 341.119 86.7438 340.935 89.6958 343.254C92.0487 345.103 94.8723 344.872 97.7931 341.108C101.058 336.901 104.862 335.545 108.278 331.995C112.488 327.62 116.796 323.601 121.068 319.455C124.231 316.386 126.89 312.42 129.043 307.464C130.586 303.912 132.325 300.581 134.482 297.924C137.757 293.889 141.092 291.37 144.542 292.855C145.635 293.326 146.868 293.354 147.941 293.879C150.551 295.156 153.23 294.857 156.215 292.112C159.479 289.111 162.054 290.953 164.606 292.179C165.778 292.743 166.912 293.47 168.12 293.972C169.998 294.751 171.896 294.337 173.876 291.974C176.683 288.626 179.526 288.029 182.286 288.288C185.703 288.609 189.119 287.544 192.616 284.621C197.501 280.537 202.469 277.435 207.493 275.006C209.924 273.831 212.136 272.084 214.162 268.776C216.378 265.16 217.877 265.616 218.216 269.792C218.366 271.646 218.246 273.694 218.13 275.689C217.979 278.304 217.902 280.854 218.235 283.238C218.847 287.615 220.374 289.633 223.396 288.945C227.711 287.964 231.489 289.366 235.396 290.257C236.747 290.565 237.518 291.989 238.427 293.199C241.053 296.693 243.189 296.15 246.17 291.009C247.924 287.984 249.704 285.125 251.8 282.754C252.688 281.75 253.616 280.348 254.162 278.889C257.406 270.214 260.533 261.555 259.768 252.25C259.286 246.383 260.37 243.325 263.917 239.384C265.904 237.177 267.649 234.588 269.371 231.834C271.909 227.774 273.022 227.52 275.838 228.758C279.081 230.185 282.75 228.688 286.353 227.261C289.603 225.974 292.859 224.314 296.11 222.991C300.643 221.148 304.975 221.136 309.29 221.193C310.766 221.213 312.264 220.735 313.745 219.578C316.8 217.192 319.85 214.747 322.873 212.172C325.885 209.607 327.601 205.549 327.83 200.714C328.014 196.821 328.979 193.587 330.753 190.279C333.255 185.612 333.576 182.691 331.86 178.864C329.906 174.508 327.918 170.107 324.236 168.826C323.244 168.48 322.341 167.775 321.459 167.084C319.414 165.485 319.446 163.988 321.688 161.173C322.745 159.846 323.754 158.644 323.704 156.557C323.66 154.72 322.685 154.3 321.752 154.183C317.722 153.677 314.288 151.093 310.354 150.25C305.361 149.179 301.256 145.359 296.53 143.42C284.099 138.32 271.771 132.869 257.391 136.269C255.666 136.677 253.945 136.754 252.289 136.635C248.515 136.365 244.675 137.945 240.789 140.307C237.861 142.086 235.222 144.817 232.878 148.753C230.915 152.048 228.845 155.19 226.767 158.297C223.712 162.866 221.073 167.875 219.179 173.686C218.332 176.283 217.378 178.744 215.936 180.695C212.545 185.283 208.736 183.59 208.821 177.44C208.85 175.303 209.254 173.006 209.536 170.776C210.812 160.675 207.028 149.48 201.476 147.358C199.036 146.426 196.553 145.545 193.967 145.226C187.903 144.475 181.883 148.433 176.002 154.479C174.605 155.914 173.385 157.932 172.47 160.311C169.896 167.001 166.362 168.669 162.688 168.396C160.561 168.238 158.326 167.887 156.614 166.491C153.856 164.241 150.715 164.922 147.484 166.13C141.846 168.238 136.437 167.763 130.768 170.131C128.452 171.099 127.096 168.667 126.051 166.101C124.195 161.539 122.002 157.554 119.036 154.792C115.306 151.32 112.695 151.782 108.588 157.928C104.97 163.341 101.569 165.119 98.2407 162.359C95.2194 159.852 91.6994 160.691 88.0735 161.986C81.8345 164.214 75.9811 164.174 70.5883 161.705C67.8892 160.469 65.3601 158.671 62.8443 156.895C62.0238 156.316 61.1931 155.883 60.2852 155.621C56.8686 154.636 53.6388 153.229 50.9972 149.983C49.0911 147.641 46.5896 147.529 43.7691 150.078C43.4092 150.403 43.0349 150.656 42.6711 150.964C36.5103 156.185 35.1331 154.571 32.8379 149.077C32.0497 147.19 30.9999 145.7 29.563 144.965C26.7961 143.55 24.0756 141.991 21.2776 140.674C18.5458 139.388 15.5565 140.735 12.5176 142.697C8.535 145.27 4.58836 147.566 0.670177 146.88C-1.89161 146.432 -4.01096 145.191 -5.30791 141.947C-7.74238 135.859 -11.5666 132.552 -15.8098 130.154C-18.3523 128.717 -21.1465 128.23 -24.2221 129.151C-29.6161 130.768 -33.2459 128.297 -34.9904 120.698C-36.4222 114.461 -38.1937 113.417 -42.6425 116.956C-47.1598 120.549 -50.1248 118.995 -52.8099 115.303C-53.0551 114.966 -53.2864 114.598 -53.495 114.201C-58.0198 105.597 -64.869 106.021 -72.4075 109.003C-74.0297 109.644 -75.3338 111.127 -76.5215 113.186C-77.1955 114.355 -77.8264 115.587 -78.4659 116.803C-80.9497 121.527 -83.6834 124.091 -87.0874 123.845C-88.4939 123.743 -89.9575 123.824 -91.3689 123.66C-95.4079 123.191 -99.0007 125.725 -102.011 132.058C-102.526 133.142 -103.083 134.201 -103.522 135.34C-106.408 142.828 -109.807 149.81 -113.417 156.563C-115.928 161.262 -118.113 166.156 -119.829 171.546C-122.528 180.019 -125.558 188.308 -126.022 197.343C-126.303 202.8 -128.374 207.428 -133.076 208.086C-141.229 209.229 -149.273 214.556 -157.359 218.308C-160.444 219.739 -163.35 220.299 -166.084 219.436C-168.976 218.525 -171.955 218.774 -175.17 220.48C-177.931 221.945 -180.662 222.472 -183.384 223.021C-186.693 223.689 -189.867 225.258 -192.718 229.811C-194.666 232.923 -196.937 234.393 -199.155 234.147C-202.011 233.83 -204.964 234.367 -207.882 234.565C-209.562 234.678 -211.323 234.397 -212.667 233.357C-214.559 231.892 -216.768 231.914 -218.888 232.541C-222.978 233.752 -227.072 234.236 -231.217 236.832C-233.29 238.129 -235.093 238.292 -236.765 236.885C-240.497 233.744 -245.057 233.31 -249.368 232.119C-252.619 231.22 -256.098 233.161 -259.216 236.96C-263.374 242.027 -267.527 244.587 -271.933 244.479C-273.522 244.439 -275.165 245.344 -276.78 246.147C-280.426 247.961 -283.364 247.367 -285.564 243.644C-286.52 242.024 -287.685 240.732 -288.778 239.333C-291.266 236.145 -291.277 233.739 -288.212 229.046C-284.178 222.872 -282.569 215.809 -281.582 208.345C-280.795 202.396 -281.85 197.995 -284.133 194.7C-286.207 191.707 -288.443 189.015 -290.388 185.773C-292.427 182.376 -295.152 182.652 -298.38 185.882C-299.089 186.592 -299.801 187.302 -300.489 188.084C-303.445 191.445 -306.364 192.741 -309.106 191.165C-312.038 189.479 -315.298 188.831 -318.097 186.72C-321.335 184.279 -322.572 178.895 -324.545 174.608C-325.201 173.182 -324.559 171.261 -323.59 169.569C-319.173 161.861 -317.326 153.37 -316.728 144.397C-316.485 140.757 -315.473 137.108 -314.307 133.509C-312.356 127.489 -311.116 121.457 -311.664 115.543C-312.347 108.166 -310.773 100.438 -309.045 92.7124C-308.364 89.6677 -307.626 86.612 -306.751 83.6239C-304.24 75.0575 -302.972 66.635 -303.276 58.3192C-303.34 56.568 -303.161 54.7544 -302.775 52.8929C-301.433 46.4393 -301.501 40.4217 -301.784 34.4546C-302.037 29.0937 -302.291 23.7274 -302.391 18.2888C-302.477 13.6071 -302.298 8.82603 -300.375 3.94082C-299.487 1.68179 -299.532 -0.203619 -300.785 -0.98042C-302.663 -2.14584 -304.664 -3.108 -307.082 -1.0676C-309.493 0.967683 -312.056 2.21211 -314.277 5.32952C-314.876 6.16975 -315.715 6.70846 -316.443 7.03013C-317.858 7.65443 -318.888 6.97943 -319.063 4.77863C-319.214 2.8815 -318.529 1.05953 -317.341 -0.0380606C-314.591 -2.57868 -311.844 -5.27689 -309.023 -7.29303C-306.977 -8.7554 -305.076 -10.3764 -303.553 -13.1702C-301.476 -16.9812 -299.088 -18.6113 -296.53 -18.978C-293.418 -19.4239 -290.397 -20.0976 -287.344 -23.6807C-286.251 -24.9637 -284.904 -25.1529 -283.653 -25.1894C-282.062 -25.236 -280.378 -25.4757 -279.265 -28.6674C-278.161 -31.8303 -278.577 -33.9719 -279.777 -35.9557C-282.101 -39.7983 -281.81 -41.6186 -278.489 -46.2511C-276.665 -48.7959 -274.777 -51.0558 -272.63 -52.6821C-270.458 -54.3277 -268.509 -55.0195 -266.453 -54.4181C-262.111 -53.1478 -261.454 -53.7998 -258.272 -61.3004C-255.403 -68.0644 -251.925 -72.8117 -247.195 -74.137C-245.897 -74.5006 -244.754 -74.4857 -243.673 -73.9136C-240.978 -72.4878 -235.85 -75.3216 -233.525 -79.3679C-232.16 -81.7431 -232.065 -84.1219 -232.319 -86.3105C-232.892 -91.2364 -233.948 -95.8071 -233.915 -101.18C-233.907 -102.448 -234.459 -103.543 -234.88 -104.551C-236.48 -108.374 -237.411 -108.128 -239.242 -102.977C-240.566 -99.2482 -242.25 -97.0571 -244.583 -96.3222C-246.704 -95.6543 -248.849 -94.8346 -250.928 -94.5448C-252.64 -94.3063 -254.648 -94.3063 -255.155 -96.9751C-255.781 -100.275 -256.266 -103.62 -257.489 -106.336C-257.967 -107.396 -257.57 -108.814 -256.75 -110.201C-254.244 -114.443 -250.274 -116.687 -247.65 -114.755C-246.216 -113.698 -244.734 -113.041 -243.054 -112.923C-240.162 -112.719 -237.69 -113.388 -235.75 -119.385C-234.396 -123.571 -231.537 -125.103 -229.037 -126.672C-228.05 -127.291 -227.017 -127.491 -226.057 -128.235C-224.483 -129.454 -223.321 -131.298 -223.222 -134.197C-223.168 -135.78 -222.896 -137.451 -222.905 -138.998C-222.931 -143.055 -221.481 -146.329 -219.363 -148.834C-216.99 -151.642 -214.587 -154.357 -212.245 -157.27C-210.632 -159.276 -208.797 -159.976 -207.076 -160.262C-200.605 -161.339 -196.02 -167.762 -193.051 -177.522C-190.971 -184.36 -188.027 -190.448 -185.616 -196.968C-184.374 -200.327 -182.647 -202.485 -180.578 -203.736C-178.043 -205.269 -175.697 -207.245 -173.527 -210.488C-170.577 -214.894 -167.759 -214.684 -165.196 -212.729C-164.214 -211.98 -163.389 -210.826 -162.543 -209.763C-160.647 -207.381 -158.483 -205.772 -155.832 -205.396C-150.741 -204.673 -146.611 -200.87 -141.858 -199.041C-139.759 -198.234 -138.618 -195.465 -138.263 -192.037C-137.576 -185.402 -134.8 -183.407 -130.655 -184.444C-128.472 -184.99 -127.051 -183.375 -125.529 -182.107C-122.471 -179.559 -119.216 -178.896 -115.147 -181.727C-111.819 -184.043 -108.514 -184.045 -105.859 -182.285C-103.255 -180.559 -100.445 -180.778 -97.5032 -181.426C-94.443 -182.101 -91.7994 -181.594 -89.4173 -179.483C-87.0399 -177.376 -84.3516 -176.036 -81.4642 -175.366C-79.2758 -174.857 -77.1851 -174.116 -75.2562 -172.663C-73.4702 -171.317 -71.3379 -170.638 -69.0901 -171.18C-66.514 -171.801 -64.3136 -171.046 -62.0658 -170.303C-60.2728 -169.71 -58.5183 -168.842 -56.3966 -170.018C-51.7144 -172.611 -47.5636 -172.431 -43.7706 -169.72C-41.168 -167.86 -38.3366 -166.585 -35.6095 -165.043C-35.1882 -164.805 -34.6951 -164.682 -34.3805 -164.247C-33.7452 -163.369 -32.7692 -162.62 -33.1421 -160.773C-33.6351 -158.331 -35.082 -158.154 -36.0749 -158.053C-40.6103 -157.596 -45.1573 -156.56 -49.8173 -154.275C-51.618 -153.392 -53.0851 -154.404 -54.5896 -155.248C-59.2165 -157.846 -63.8375 -160.483 -69.3802 -159.79C-71.3801 -159.54 -73.3487 -158.827 -75.3362 -157.598C-78.6014 -155.578 -81.8054 -154.105 -85.0023 -154.264C-89.6345 -154.493 -93.6268 -149.875 -97.3755 -144.379C-99.3608 -141.469 -101.232 -138.301 -103.043 -135.092C-108.853 -124.795 -110.552 -111.591 -106.552 -103.293C-102.396 -94.6704 -97.6169 -86.9431 -90.1917 -84.6232C-87.6447 -83.8274 -85.8517 -81.3032 -84.188 -78.5737C-83.361 -77.2169 -82.6372 -75.6902 -81.7851 -74.3771C-78.9419 -69.9958 -76.4772 -69.6153 -72.3192 -74.5177C-68.9569 -78.4819 -66.0871 -76.3633 -65.3559 -72.273C-64.4142 -67.0054 -63.571 -61.6541 -62.6203 -56.3945C-62.3418 -54.8552 -62.5718 -53.3252 -63.0013 -51.6852C-63.4804 -49.8557 -64.1836 -48.239 -64.9904 -46.5938C-68.9188 -38.5831 -68.8798 -38.5809 -73.5928 -41.6357C-76.3058 -43.394 -79.1862 -42.2838 -82.1399 -38.7948C-83.9516 -36.655 -85.7432 -34.4581 -87.5452 -32.2905C-89.3941 -30.0667 -91.5507 -28.9261 -92.8744 -30.4744C-97.5222 -35.911 -103.671 -34.1061 -109.638 -33.4501C-111.83 -33.209 -113.967 -33.4409 -116.103 -33.5921C-117.921 -33.7208 -119.732 -34.277 -120.634 -36.5543C-123.323 -43.3446 -128.28 -44.1516 -133.204 -43.6754C-139.919 -43.026 -146.036 -44.6263 -152.205 -46.2069C-158.401 -47.7944 -164.988 -47.2278 -171.469 -47.2459C-172.541 -47.249 -173.707 -47.1738 -174.792 -46.5352C-180.63 -43.1003 -186.166 -42.9904 -191.829 -42.1201C-198.679 -41.0673 -205.62 -39.4415 -212.688 -35.5263C-217.032 -33.1192 -221.427 -31.8323 -225.799 -29.9254C-231.484 -27.446 -236.262 -21.5833 -240.48 -14.1657C-245.622 -5.12175 -245.374 4.28001 -239.854 7.77727C-235.428 10.5815 -230.821 12.9381 -225.813 13.8667C-221.997 14.5745 -218.77 16.3853 -216.424 20.8836C-213.909 25.7029 -210.026 26.7579 -205.543 24.985C-203.086 24.013 -200.852 23.8866 -198.69 24.6123C-195.59 25.6533 -192.35 25.3346 -188.883 22.8639C-186.951 21.487 -185.158 21.4127 -183.428 22.0058C-178.159 23.8127 -172.724 22.2386 -167.035 17.0338C-164.47 14.6868 -161.811 13.6944 -159.311 14.2347C-155.797 14.9941 -152.236 13.5781 -148.665 10.2349C-146.034 7.7722 -143.81 7.35995 -141.8 9.50693C-139.531 11.9316 -136.839 13.1794 -134.041 14.2097C-131.705 15.0697 -129.762 16.9288 -128.299 19.8784C-126.456 23.5951 -124.14 26.0825 -120.521 25.8187C-117.904 25.6279 -116.237 28.4687 -114.684 31.1106C-111.922 35.8085 -108.291 38.1901 -103.818 38.2364C-101.422 38.2612 -98.9634 37.7926 -96.446 36.9054C-90.4826 34.8038 -85.0356 39.6336 -83.5582 48.0544C-82.2077 55.754 -78.8633 59.2582 -73.1399 56.5299C-66.7235 53.4712 -60.5088 53.6313 -54.1142 50.1231C-52.0792 49.0065 -50.1914 49.1376 -48.3047 49.5418C-45.2002 50.2071 -41.8461 50.3166 -38.9799 51.4161C-34.1641 53.2634 -28.9349 52.8242 -24.0621 54.1175C-21.7214 54.7387 -21.0767 55.6639 -21.4819 60.4093C-22.0947 67.5854 -20.5393 71.8239 -16.7372 73.5402C-16.3105 73.7328 -16.0185 74.4262 -15.578 74.4892C-13.8713 74.7334 -12.5949 76.1092 -11.37 77.4792C-8.52334 80.6625 -5.09606 81.6731 -1.24435 81.373C1.2677 81.1773 3.13498 82.2619 3.23249 86.8149C3.37208 93.3344 6.02766 95.3156 9.74679 95.1648C17.7522 94.8402 25.8482 93.6011 34.1475 90.0254C38.5979 88.108 42.8731 87.2248 46.7436 89.2756C47.4834 89.6675 48.3509 89.6739 49.1423 89.922C52.2152 90.8855 54.8995 88.8724 57.434 84.2046C60.865 77.8858 61.9543 77.2036 65.481 80.4391C69.3339 83.9735 73.9792 84.0196 78.6883 83.8435C81.6952 83.7312 84.5774 83.7246 87.3675 84.886C91.5258 86.6167 95.9493 87.5264 100.638 87.0931C105.907 86.606 110.937 87.3055 115.846 88.6391C118.928 89.4767 122.082 90.0346 125.197 90.747C127.039 91.168 128.772 91.8153 130.388 93.0943C133.748 95.7536 137.639 96.4516 141.745 96.7544C147.317 97.1655 152.816 97.962 158.462 98.0395C160.246 98.064 162.044 98.5231 163.544 99.5466C165.514 100.89 167.666 101.427 169.841 101.951C171.209 102.281 172.562 102.578 174.075 102.393C176.147 102.139 178.122 102.722 179.883 103.873C182.531 105.604 185.29 106.687 188.381 107.118C194.944 108.033 201.349 109.694 207.43 112.583C210.887 114.226 214.678 114.902 218.637 114.21C222.759 113.489 226.1 115.488 229.354 117.532C232.905 119.762 236.762 119.833 240.864 118.822C247.723 117.133 253.859 118.621 259.655 121.654C261.811 122.783 264.09 123.598 266.459 123.587C271.674 123.564 275.99 125.932 279.658 130.375C282.019 133.235 285.179 133.167 288.322 132.78C292.97 132.206 297.698 130.891 302.454 128.947C303.713 128.432 304.952 127.834 306.127 126.422C308.578 123.476 309.416 119.796 308.593 116.052C307.77 112.306 305.663 110.94 303.526 110.022C300.035 108.524 296.709 106.442 292.929 105.888C289.467 105.381 286.753 102.684 283.971 100.312C282.064 98.6879 282.312 96.3979 284.078 92.8547C285.768 89.463 287.871 87.9653 289.993 87.4904C295.235 86.3175 300.255 86.5762 304.784 88.9278C309.948 91.6093 315.463 92.7239 321.229 92.9874C324.444 93.1342 327.656 93.323 330.834 93.712C339.879 94.8187 348.563 97.6796 358.012 96.8379C359.988 96.662 361.786 97.3857 363.494 98.2617C368.864 101.016 374.553 102.427 380.578 102.595C382.244 102.641 383.955 102.977 385.333 103.974C387.075 105.236 388.998 105.773 390.913 106.308C395.69 107.643 400.332 109.383 404.691 112.073C404.794 112.137 404.911 112.167 405.028 112.185C413.008 113.453 419.943 118.504 427.968 119.652C430.559 120.022 433.194 120.051 435.851 119.943C441.731 119.704 447.136 121.172 452.272 123.968C455.54 125.747 459.051 126.851 462.542 127.932C465.155 128.742 467.517 130.263 469.962 131.541C475.72 134.55 481.579 137.202 487.838 138.475C491.187 139.156 494.764 138.716 498.077 139.697C500.132 140.306 501.78 142.076 503.939 142.308C509.94 142.953 515.807 144.269 522.085 143.475C525.529 143.039 528.86 143.22 532.058 144.181C546.125 148.41 560.58 151.125 574.69 155.161C581.348 157.066 588.165 158.679 594.261 162.59C598.644 165.402 599.347 168.429 597.076 176.728C595.3 183.216 594.444 189.23 595.499 195.019C595.884 197.133 595.633 199.577 595.202 202.103C593.986 209.246 595.344 213.982 598.806 216.517C600.7 217.903 602.655 219.136 604.583 220.436C605.241 220.879 605.731 221.583 605.317 223.055C604.921 224.467 604.086 224.966 603.352 225.038C602.505 225.121 601.711 224.821 600.881 224.751C593.384 224.115 586.239 221.993 579.023 220.178C576.841 219.63 574.545 219.883 572.519 222.801C567.806 229.589 563.15 229.448 558.426 229.475C552.73 229.508 547.487 227.537 541.993 226.673C540.717 226.472 539.532 226.003 538.084 226.478C534.554 227.636 532.382 230.569 531.113 236.355C529.931 241.743 530.699 245.003 533.711 246.737C537.994 249.203 542.638 250.565 546.781 253.501C548.237 254.533 550.066 254.907 551.987 254.438C552.595 254.29 553.197 254.357 553.772 254.458C554.742 254.628 555.633 255.185 555.725 256.859C555.823 258.63 554.93 259.994 553.964 261.062C552.117 263.104 550.308 265.363 548.389 267.054C544.561 270.427 540.681 271.272 536.884 271.707C535.321 271.886 533.92 271.177 533.002 269.135C532.249 267.457 531.127 266.099 529.686 265.974C526.641 265.709 524.095 264.253 521.953 261.446C520.177 259.12 517.83 260.016 515.404 261.989C514.919 262.383 514.459 262.935 513.986 263.407C508.901 268.481 508.116 268.481 505.438 262.605C503.091 257.457 500.594 255.162 494.393 260.887C490.799 264.204 487.292 267.819 483.501 269.997C481.685 271.04 480.134 273.261 478.863 275.69C474.632 283.779 469.563 285.551 464.752 285.345C460.139 285.148 456.33 287.037 452.443 293.511C450.516 296.72 448.032 299.155 445.709 301.624C443.671 303.79 442.911 303.429 442.743 300.084C442.482 294.853 441.204 290.953 438.853 288.156C437.772 286.87 437.405 284.734 437.172 282.471C436.097 272.024 431.603 268.234 425.097 268.647C422.869 268.789 420.892 267.972 418.775 267.71C414.044 267.125 409.533 268.874 405.12 275.176C402.933 278.299 400.501 280.164 397.913 280.529C394.618 280.995 391.469 282.935 388.382 286.488C387.033 288.04 385.523 289.242 384.05 290.256C381.756 291.834 379.73 294.062 377.894 297.068C375.927 300.287 373.904 301.35 371.562 300.836C367.7 299.989 364.337 297.914 361.224 294.951C359.135 292.962 357.82 290.238 357.855 285.768C357.896 280.407 356.455 277.123 353.562 275.429C351.165 274.025 349.043 271.78 346.277 271.537C341.071 271.08 337.022 267.479 333.987 262.09C329.755 254.574 324.306 253.748 317.199 257.708C312.871 260.119 308.491 260.9 304.114 263.884C302.715 264.837 301.149 264.667 299.717 264.665C298.083 264.663 296.484 265.531 294.881 266.693C291.511 269.133 289.595 273.149 289.052 278.656C288.727 281.955 288.77 285.082 289.454 287.779C290.602 292.31 290.815 297.538 291.518 302.398C291.994 305.687 291.441 306.62 289.166 308.713C286.363 311.292 283.997 309.983 281.523 310.102C279.27 310.21 277.092 309.552 275.174 307.976C272.423 305.715 269.177 305.4 265.643 306.074C260.465 307.062 255.39 307.204 250.045 311.256C246.634 313.842 244.803 317.815 243.944 323.102C243.683 324.709 243.65 326.334 243.611 327.913C243.557 330.086 243.648 332.205 243.586 334.381C243.488 337.776 242.748 339.392 240.593 340.393C239.11 341.082 237.596 341.412 236.141 341.556C234.234 341.747 232.346 342.543 230.628 344.632C226.99 349.056 223.279 350.106 219.632 350.115C216.49 350.123 213.597 351.731 210.446 354.399C205.553 358.542 200.8 359.145 196.545 356.546C194.474 355.282 192.591 353.577 190.248 352.986C186.796 352.116 183.621 353.703 180.769 358.805C178.072 363.631 177.165 371.17 178.587 376.055C179.144 377.97 180.141 379.408 180.742 381.285C181.313 383.068 182.693 384.592 181.474 387.438C180.435 389.866 178.735 390.646 177.258 390.858C173.049 391.462 169.039 391.103 165.609 388.385C162.312 385.771 161.965 381.639 164.515 375.268C165.273 373.373 166.092 371.519 166.8 369.594C169.161 363.183 168.597 358.569 165.438 355.788C162.81 353.476 159.715 352.819 156.476 354.715C150.339 358.308 145.891 355.004 140.906 353.208C134.731 350.983 128.414 349.147 121.023 353.215C114.534 356.787 106.351 373.527 105.813 384.469C105.634 388.103 106.167 390.942 107.431 393.172C109.021 395.977 110.589 398.82 112.555 401.02C114.334 403.01 115.795 405.556 116.923 408.595C118.571 413.036 118.164 416.518 115.17 420.982C111.743 426.093 108.243 431.089 104.67 435.897C101.928 439.586 100.871 438.851 100.97 433.677C101.031 430.532 101.327 427.28 101.27 424.196C101.098 414.744 98.2459 411.102 92.3015 412.522C90.8141 412.878 89.3156 413.302 87.8177 413.873C84.1683 415.264 81.0668 414.773 78.6476 411.334C76.873 408.812 74.2964 408.592 71.7323 408.847C68.5264 409.165 65.3036 413.396 63.6123 418.947C62.374 423.012 61.8922 427.024 61.8079 431.053C61.7295 434.808 61.4925 438.617 60.5919 442.528C58.9866 449.5 57.3328 451.864 53.0973 452.934C51.1137 453.435 49.1457 453.701 47.1814 453.981C42.8501 454.598 38.966 457.819 35.5808 463.695C33.3268 467.607 30.8384 470.931 28.0899 473.626C25.7136 475.956 24.0905 479.36 22.6237 482.958C21.4575 485.818 20.2172 488.582 18.6166 490.875C15.7051 495.046 12.9125 495.766 11.045 492.109C8.15968 486.459 5.16228 481.095 1.16347 477.369C0.0941994 476.373 -0.357971 474.533 -0.471397 472.318C-0.559077 470.604 -0.711929 468.878 -1.05808 467.37C-1.9118 463.647 -4.95528 462.934 -7.4465 465.846C-8.34515 466.896 -9.19442 468.185 -9.95811 469.52C-15.2418 478.753 -21.0292 483.785 -27.7292 482.978C-30.0963 482.693 -32.6587 483.924 -35.1564 485.622C-36.5261 486.553 -37.9529 487.667 -38.9648 489.641C-42.1082 495.77 -45.2076 501.958 -48.2332 508.219C-50.3018 512.5 -50.2929 516.422 -49.1053 519.994C-47.7624 524.033 -47.9151 525.088 -50.8171 528.382C-53.8566 531.832 -56.0557 535.983 -57.0766 541.432C-57.9065 545.863 -59.5886 549.082 -62.2306 551.516C-64.1295 553.266 -65.8722 555.711 -67.733 557.675C-74.1513 564.448 -78.4326 565.042 -82.8914 559.02C-87.3124 553.049 -93.1971 554.448 -99.2497 556.81C-102.957 558.257 -106.617 559.594 -109.626 557.357C-111.971 555.614 -114.555 554.918 -117.156 554.132C-119.117 553.539 -121.142 553.659 -123.312 554.504C-128.942 556.696 -133.769 556.081 -137.095 549.827C-137.98 548.162 -139.267 546.942 -140.59 546.123C-143.479 544.336 -146.456 546.944 -148.202 552.486C-148.444 553.255 -148.623 554.058 -148.797 554.85C-150.432 562.311 -151.217 563.1 -155.259 561.287C-158.342 559.904 -160.946 557.481 -163.013 553.855C-165.857 548.865 -168.983 544.434 -173.21 542.159C-174.811 541.298 -176.051 539.597 -177.35 538.048C-178.959 536.131 -180.823 535.166 -183.259 536.211C-186.095 537.428 -188.268 536.619 -189.813 533.364C-190.998 530.865 -192.876 529.586 -194.768 528.498C-195.735 527.943 -196.557 527.131 -197.254 526.045C-199.254 522.929 -199.155 520.666 -196.522 516.366C-194.893 513.707 -193.57 510.817 -192.427 507.759C-190.96 503.831 -188.916 501.65 -186.556 501.182C-183.352 500.546 -180.358 498.817 -177.469 495.174C-176.935 494.5 -176.262 494.017 -175.65 493.729C-171.632 491.836 -168.183 488.288 -164.985 482.875C-163.143 479.757 -160.442 478.568 -158.092 477.543C-154.088 475.795 -150.11 472.994 -146.093 471.803C-143.07 470.907 -140.678 468.011 -139.362 462.974C-138.618 460.132 -137.37 458.144 -135.787 456.537C-133.76 454.479 -132.082 451.85 -130.455 448.875C-126.027 440.778 -120.52 435.319 -114.199 437.868C-111.326 439.027 -108.362 439.857 -104.992 440.2Z"/>
    </mask>
    <path d="M-104.992 440.2C-102.621 440.798 -99.943 441.326 -97.3495 442.162C-93.9477 443.258 -90.2678 442.931 -86.6873 443.013C-83.7772 443.079 -81.0538 443.778 -78.2849 444.367C-76.9435 444.653 -76.0614 445.981 -75.3408 447.485C-73.3078 451.727 -70.554 453.724 -66.5998 452.461C-63.5295 451.481 -60.8252 452.492 -58.1228 453.338C-55.1391 454.273 -51.9986 453.929 -48.7379 452.963C-47.3719 452.558 -45.9695 452.068 -44.666 452.092C-41.4659 452.151 -39.0737 453.935 -38.5781 459.344C-38.3899 461.399 -38.1596 463.43 -37.8914 465.428C-37.6044 467.565 -36.7221 468.934 -35.3347 468.847C-33.7472 468.748 -32.3157 467.035 -31.458 464.472C-30.7422 462.332 -30.0295 460.045 -29.7371 457.862C-29.098 453.091 -27.1922 449.981 -24.5713 448.057C-22.3391 446.418 -20.6239 443.969 -19.1036 440.867C-17.5181 437.631 -15.7489 434.693 -13.7782 432.063C-9.84061 426.807 -7.98971 420.601 -7.78575 413.49C-7.51024 403.885 -5.72263 399.979 0.314508 395.541C1.78795 394.458 3.29134 393.444 4.78596 392.73C7.83111 391.276 10.307 388.391 12.5468 384.184C17.634 374.628 22.4256 364.803 26.3733 354.164C27.5531 350.985 28.9943 348.24 30.7932 345.97C33.3119 342.793 35.4266 342.202 37.1721 344.781C41.5483 351.248 47.2558 352.75 54.0123 350.563C57.0835 349.569 59.8864 349.967 62.5765 350.923C64.9285 351.758 67.2974 351.181 69.835 348.884C73.1168 345.912 76.521 344.251 79.898 342.725C83.4532 341.119 86.7438 340.935 89.6958 343.254C92.0487 345.103 94.8723 344.872 97.7931 341.108C101.058 336.901 104.862 335.545 108.278 331.995C112.488 327.62 116.796 323.601 121.068 319.455C124.231 316.386 126.89 312.42 129.043 307.464C130.586 303.912 132.325 300.581 134.482 297.924C137.757 293.889 141.092 291.37 144.542 292.855C145.635 293.326 146.868 293.354 147.941 293.879C150.551 295.156 153.23 294.857 156.215 292.112C159.479 289.111 162.054 290.953 164.606 292.179C165.778 292.743 166.912 293.47 168.12 293.972C169.998 294.751 171.896 294.337 173.876 291.974C176.683 288.626 179.526 288.029 182.286 288.288C185.703 288.609 189.119 287.544 192.616 284.621C197.501 280.537 202.469 277.435 207.493 275.006C209.924 273.831 212.136 272.084 214.162 268.776C216.378 265.16 217.877 265.616 218.216 269.792C218.366 271.646 218.246 273.694 218.13 275.689C217.979 278.304 217.902 280.854 218.235 283.238C218.847 287.615 220.374 289.633 223.396 288.945C227.711 287.964 231.489 289.366 235.396 290.257C236.747 290.565 237.518 291.989 238.427 293.199C241.053 296.693 243.189 296.15 246.17 291.009C247.924 287.984 249.704 285.125 251.8 282.754C252.688 281.75 253.616 280.348 254.162 278.889C257.406 270.214 260.533 261.555 259.768 252.25C259.286 246.383 260.37 243.325 263.917 239.384C265.904 237.177 267.649 234.588 269.371 231.834C271.909 227.774 273.022 227.52 275.838 228.758C279.081 230.185 282.75 228.688 286.353 227.261C289.603 225.974 292.859 224.314 296.11 222.991C300.643 221.148 304.975 221.136 309.29 221.193C310.766 221.213 312.264 220.735 313.745 219.578C316.8 217.192 319.85 214.747 322.873 212.172C325.885 209.607 327.601 205.549 327.83 200.714C328.014 196.821 328.979 193.587 330.753 190.279C333.255 185.612 333.576 182.691 331.86 178.864C329.906 174.508 327.918 170.107 324.236 168.826C323.244 168.48 322.341 167.775 321.459 167.084C319.414 165.485 319.446 163.988 321.688 161.173C322.745 159.846 323.754 158.644 323.704 156.557C323.66 154.72 322.685 154.3 321.752 154.183C317.722 153.677 314.288 151.093 310.354 150.25C305.361 149.179 301.256 145.359 296.53 143.42C284.099 138.32 271.771 132.869 257.391 136.269C255.666 136.677 253.945 136.754 252.289 136.635C248.515 136.365 244.675 137.945 240.789 140.307C237.861 142.086 235.222 144.817 232.878 148.753C230.915 152.048 228.845 155.19 226.767 158.297C223.712 162.866 221.073 167.875 219.179 173.686C218.332 176.283 217.378 178.744 215.936 180.695C212.545 185.283 208.736 183.59 208.821 177.44C208.85 175.303 209.254 173.006 209.536 170.776C210.812 160.675 207.028 149.48 201.476 147.358C199.036 146.426 196.553 145.545 193.967 145.226C187.903 144.475 181.883 148.433 176.002 154.479C174.605 155.914 173.385 157.932 172.47 160.311C169.896 167.001 166.362 168.669 162.688 168.396C160.561 168.238 158.326 167.887 156.614 166.491C153.856 164.241 150.715 164.922 147.484 166.13C141.846 168.238 136.437 167.763 130.768 170.131C128.452 171.099 127.096 168.667 126.051 166.101C124.195 161.539 122.002 157.554 119.036 154.792C115.306 151.32 112.695 151.782 108.588 157.928C104.97 163.341 101.569 165.119 98.2407 162.359C95.2194 159.852 91.6994 160.691 88.0735 161.986C81.8345 164.214 75.9811 164.174 70.5883 161.705C67.8892 160.469 65.3601 158.671 62.8443 156.895C62.0238 156.316 61.1931 155.883 60.2852 155.621C56.8686 154.636 53.6388 153.229 50.9972 149.983C49.0911 147.641 46.5896 147.529 43.7691 150.078C43.4092 150.403 43.0349 150.656 42.6711 150.964C36.5103 156.185 35.1331 154.571 32.8379 149.077C32.0497 147.19 30.9999 145.7 29.563 144.965C26.7961 143.55 24.0756 141.991 21.2776 140.674C18.5458 139.388 15.5565 140.735 12.5176 142.697C8.535 145.27 4.58836 147.566 0.670177 146.88C-1.89161 146.432 -4.01096 145.191 -5.30791 141.947C-7.74238 135.859 -11.5666 132.552 -15.8098 130.154C-18.3523 128.717 -21.1465 128.23 -24.2221 129.151C-29.6161 130.768 -33.2459 128.297 -34.9904 120.698C-36.4222 114.461 -38.1937 113.417 -42.6425 116.956C-47.1598 120.549 -50.1248 118.995 -52.8099 115.303C-53.0551 114.966 -53.2864 114.598 -53.495 114.201C-58.0198 105.597 -64.869 106.021 -72.4075 109.003C-74.0297 109.644 -75.3338 111.127 -76.5215 113.186C-77.1955 114.355 -77.8264 115.587 -78.4659 116.803C-80.9497 121.527 -83.6834 124.091 -87.0874 123.845C-88.4939 123.743 -89.9575 123.824 -91.3689 123.66C-95.4079 123.191 -99.0007 125.725 -102.011 132.058C-102.526 133.142 -103.083 134.201 -103.522 135.34C-106.408 142.828 -109.807 149.81 -113.417 156.563C-115.928 161.262 -118.113 166.156 -119.829 171.546C-122.528 180.019 -125.558 188.308 -126.022 197.343C-126.303 202.8 -128.374 207.428 -133.076 208.086C-141.229 209.229 -149.273 214.556 -157.359 218.308C-160.444 219.739 -163.35 220.299 -166.084 219.436C-168.976 218.525 -171.955 218.774 -175.17 220.48C-177.931 221.945 -180.662 222.472 -183.384 223.021C-186.693 223.689 -189.867 225.258 -192.718 229.811C-194.666 232.923 -196.937 234.393 -199.155 234.147C-202.011 233.83 -204.964 234.367 -207.882 234.565C-209.562 234.678 -211.323 234.397 -212.667 233.357C-214.559 231.892 -216.768 231.914 -218.888 232.541C-222.978 233.752 -227.072 234.236 -231.217 236.832C-233.29 238.129 -235.093 238.292 -236.765 236.885C-240.497 233.744 -245.057 233.31 -249.368 232.119C-252.619 231.22 -256.098 233.161 -259.216 236.96C-263.374 242.027 -267.527 244.587 -271.933 244.479C-273.522 244.439 -275.165 245.344 -276.78 246.147C-280.426 247.961 -283.364 247.367 -285.564 243.644C-286.52 242.024 -287.685 240.732 -288.778 239.333C-291.266 236.145 -291.277 233.739 -288.212 229.046C-284.178 222.872 -282.569 215.809 -281.582 208.345C-280.795 202.396 -281.85 197.995 -284.133 194.7C-286.207 191.707 -288.443 189.015 -290.388 185.773C-292.427 182.376 -295.152 182.652 -298.38 185.882C-299.089 186.592 -299.801 187.302 -300.489 188.084C-303.445 191.445 -306.364 192.741 -309.106 191.165C-312.038 189.479 -315.298 188.831 -318.097 186.72C-321.335 184.279 -322.572 178.895 -324.545 174.608C-325.201 173.182 -324.559 171.261 -323.59 169.569C-319.173 161.861 -317.326 153.37 -316.728 144.397C-316.485 140.757 -315.473 137.108 -314.307 133.509C-312.356 127.489 -311.116 121.457 -311.664 115.543C-312.347 108.166 -310.773 100.438 -309.045 92.7124C-308.364 89.6677 -307.626 86.612 -306.751 83.6239C-304.24 75.0575 -302.972 66.635 -303.276 58.3192C-303.34 56.568 -303.161 54.7544 -302.775 52.8929C-301.433 46.4393 -301.501 40.4217 -301.784 34.4546C-302.037 29.0937 -302.291 23.7274 -302.391 18.2888C-302.477 13.6071 -302.298 8.82603 -300.375 3.94082C-299.487 1.68179 -299.532 -0.203619 -300.785 -0.98042C-302.663 -2.14584 -304.664 -3.108 -307.082 -1.0676C-309.493 0.967683 -312.056 2.21211 -314.277 5.32952C-314.876 6.16975 -315.715 6.70846 -316.443 7.03013C-317.858 7.65443 -318.888 6.97943 -319.063 4.77863C-319.214 2.8815 -318.529 1.05953 -317.341 -0.0380606C-314.591 -2.57868 -311.844 -5.27689 -309.023 -7.29303C-306.977 -8.7554 -305.076 -10.3764 -303.553 -13.1702C-301.476 -16.9812 -299.088 -18.6113 -296.53 -18.978C-293.418 -19.4239 -290.397 -20.0976 -287.344 -23.6807C-286.251 -24.9637 -284.904 -25.1529 -283.653 -25.1894C-282.062 -25.236 -280.378 -25.4757 -279.265 -28.6674C-278.161 -31.8303 -278.577 -33.9719 -279.777 -35.9557C-282.101 -39.7983 -281.81 -41.6186 -278.489 -46.2511C-276.665 -48.7959 -274.777 -51.0558 -272.63 -52.6821C-270.458 -54.3277 -268.509 -55.0195 -266.453 -54.4181C-262.111 -53.1478 -261.454 -53.7998 -258.272 -61.3004C-255.403 -68.0644 -251.925 -72.8117 -247.195 -74.137C-245.897 -74.5006 -244.754 -74.4857 -243.673 -73.9136C-240.978 -72.4878 -235.85 -75.3216 -233.525 -79.3679C-232.16 -81.7431 -232.065 -84.1219 -232.319 -86.3105C-232.892 -91.2364 -233.948 -95.8071 -233.915 -101.18C-233.907 -102.448 -234.459 -103.543 -234.88 -104.551C-236.48 -108.374 -237.411 -108.128 -239.242 -102.977C-240.566 -99.2482 -242.25 -97.0571 -244.583 -96.3222C-246.704 -95.6543 -248.849 -94.8346 -250.928 -94.5448C-252.64 -94.3063 -254.648 -94.3063 -255.155 -96.9751C-255.781 -100.275 -256.266 -103.62 -257.489 -106.336C-257.967 -107.396 -257.57 -108.814 -256.75 -110.201C-254.244 -114.443 -250.274 -116.687 -247.65 -114.755C-246.216 -113.698 -244.734 -113.041 -243.054 -112.923C-240.162 -112.719 -237.69 -113.388 -235.75 -119.385C-234.396 -123.571 -231.537 -125.103 -229.037 -126.672C-228.05 -127.291 -227.017 -127.491 -226.057 -128.235C-224.483 -129.454 -223.321 -131.298 -223.222 -134.197C-223.168 -135.78 -222.896 -137.451 -222.905 -138.998C-222.931 -143.055 -221.481 -146.329 -219.363 -148.834C-216.99 -151.642 -214.587 -154.357 -212.245 -157.27C-210.632 -159.276 -208.797 -159.976 -207.076 -160.262C-200.605 -161.339 -196.02 -167.762 -193.051 -177.522C-190.971 -184.36 -188.027 -190.448 -185.616 -196.968C-184.374 -200.327 -182.647 -202.485 -180.578 -203.736C-178.043 -205.269 -175.697 -207.245 -173.527 -210.488C-170.577 -214.894 -167.759 -214.684 -165.196 -212.729C-164.214 -211.98 -163.389 -210.826 -162.543 -209.763C-160.647 -207.381 -158.483 -205.772 -155.832 -205.396C-150.741 -204.673 -146.611 -200.87 -141.858 -199.041C-139.759 -198.234 -138.618 -195.465 -138.263 -192.037C-137.576 -185.402 -134.8 -183.407 -130.655 -184.444C-128.472 -184.99 -127.051 -183.375 -125.529 -182.107C-122.471 -179.559 -119.216 -178.896 -115.147 -181.727C-111.819 -184.043 -108.514 -184.045 -105.859 -182.285C-103.255 -180.559 -100.445 -180.778 -97.5032 -181.426C-94.443 -182.101 -91.7994 -181.594 -89.4173 -179.483C-87.0399 -177.376 -84.3516 -176.036 -81.4642 -175.366C-79.2758 -174.857 -77.1851 -174.116 -75.2562 -172.663C-73.4702 -171.317 -71.3379 -170.638 -69.0901 -171.18C-66.514 -171.801 -64.3136 -171.046 -62.0658 -170.303C-60.2728 -169.71 -58.5183 -168.842 -56.3966 -170.018C-51.7144 -172.611 -47.5636 -172.431 -43.7706 -169.72C-41.168 -167.86 -38.3366 -166.585 -35.6095 -165.043C-35.1882 -164.805 -34.6951 -164.682 -34.3805 -164.247C-33.7452 -163.369 -32.7692 -162.62 -33.1421 -160.773C-33.6351 -158.331 -35.082 -158.154 -36.0749 -158.053C-40.6103 -157.596 -45.1573 -156.56 -49.8173 -154.275C-51.618 -153.392 -53.0851 -154.404 -54.5896 -155.248C-59.2165 -157.846 -63.8375 -160.483 -69.3802 -159.79C-71.3801 -159.54 -73.3487 -158.827 -75.3362 -157.598C-78.6014 -155.578 -81.8054 -154.105 -85.0023 -154.264C-89.6345 -154.493 -93.6268 -149.875 -97.3755 -144.379C-99.3608 -141.469 -101.232 -138.301 -103.043 -135.092C-108.853 -124.795 -110.552 -111.591 -106.552 -103.293C-102.396 -94.6704 -97.6169 -86.9431 -90.1917 -84.6232C-87.6447 -83.8274 -85.8517 -81.3032 -84.188 -78.5737C-83.361 -77.2169 -82.6372 -75.6902 -81.7851 -74.3771C-78.9419 -69.9958 -76.4772 -69.6153 -72.3192 -74.5177C-68.9569 -78.4819 -66.0871 -76.3633 -65.3559 -72.273C-64.4142 -67.0054 -63.571 -61.6541 -62.6203 -56.3945C-62.3418 -54.8552 -62.5718 -53.3252 -63.0013 -51.6852C-63.4804 -49.8557 -64.1836 -48.239 -64.9904 -46.5938C-68.9188 -38.5831 -68.8798 -38.5809 -73.5928 -41.6357C-76.3058 -43.394 -79.1862 -42.2838 -82.1399 -38.7948C-83.9516 -36.655 -85.7432 -34.4581 -87.5452 -32.2905C-89.3941 -30.0667 -91.5507 -28.9261 -92.8744 -30.4744C-97.5222 -35.911 -103.671 -34.1061 -109.638 -33.4501C-111.83 -33.209 -113.967 -33.4409 -116.103 -33.5921C-117.921 -33.7208 -119.732 -34.277 -120.634 -36.5543C-123.323 -43.3446 -128.28 -44.1516 -133.204 -43.6754C-139.919 -43.026 -146.036 -44.6263 -152.205 -46.2069C-158.401 -47.7944 -164.988 -47.2278 -171.469 -47.2459C-172.541 -47.249 -173.707 -47.1738 -174.792 -46.5352C-180.63 -43.1003 -186.166 -42.9904 -191.829 -42.1201C-198.679 -41.0673 -205.62 -39.4415 -212.688 -35.5263C-217.032 -33.1192 -221.427 -31.8323 -225.799 -29.9254C-231.484 -27.446 -236.262 -21.5833 -240.48 -14.1657C-245.622 -5.12175 -245.374 4.28001 -239.854 7.77727C-235.428 10.5815 -230.821 12.9381 -225.813 13.8667C-221.997 14.5745 -218.77 16.3853 -216.424 20.8836C-213.909 25.7029 -210.026 26.7579 -205.543 24.985C-203.086 24.013 -200.852 23.8866 -198.69 24.6123C-195.59 25.6533 -192.35 25.3346 -188.883 22.8639C-186.951 21.487 -185.158 21.4127 -183.428 22.0058C-178.159 23.8127 -172.724 22.2386 -167.035 17.0338C-164.47 14.6868 -161.811 13.6944 -159.311 14.2347C-155.797 14.9941 -152.236 13.5781 -148.665 10.2349C-146.034 7.7722 -143.81 7.35995 -141.8 9.50693C-139.531 11.9316 -136.839 13.1794 -134.041 14.2097C-131.705 15.0697 -129.762 16.9288 -128.299 19.8784C-126.456 23.5951 -124.14 26.0825 -120.521 25.8187C-117.904 25.6279 -116.237 28.4687 -114.684 31.1106C-111.922 35.8085 -108.291 38.1901 -103.818 38.2364C-101.422 38.2612 -98.9634 37.7926 -96.446 36.9054C-90.4826 34.8038 -85.0356 39.6336 -83.5582 48.0544C-82.2077 55.754 -78.8633 59.2582 -73.1399 56.5299C-66.7235 53.4712 -60.5088 53.6313 -54.1142 50.1231C-52.0792 49.0065 -50.1914 49.1376 -48.3047 49.5418C-45.2002 50.2071 -41.8461 50.3166 -38.9799 51.4161C-34.1641 53.2634 -28.9349 52.8242 -24.0621 54.1175C-21.7214 54.7387 -21.0767 55.6639 -21.4819 60.4093C-22.0947 67.5854 -20.5393 71.8239 -16.7372 73.5402C-16.3105 73.7328 -16.0185 74.4262 -15.578 74.4892C-13.8713 74.7334 -12.5949 76.1092 -11.37 77.4792C-8.52334 80.6625 -5.09606 81.6731 -1.24435 81.373C1.2677 81.1773 3.13498 82.2619 3.23249 86.8149C3.37208 93.3344 6.02766 95.3156 9.74679 95.1648C17.7522 94.8402 25.8482 93.6011 34.1475 90.0254C38.5979 88.108 42.8731 87.2248 46.7436 89.2756C47.4834 89.6675 48.3509 89.6739 49.1423 89.922C52.2152 90.8855 54.8995 88.8724 57.434 84.2046C60.865 77.8858 61.9543 77.2036 65.481 80.4391C69.3339 83.9735 73.9792 84.0196 78.6883 83.8435C81.6952 83.7312 84.5774 83.7246 87.3675 84.886C91.5258 86.6167 95.9493 87.5264 100.638 87.0931C105.907 86.606 110.937 87.3055 115.846 88.6391C118.928 89.4767 122.082 90.0346 125.197 90.747C127.039 91.168 128.772 91.8153 130.388 93.0943C133.748 95.7536 137.639 96.4516 141.745 96.7544C147.317 97.1655 152.816 97.962 158.462 98.0395C160.246 98.064 162.044 98.5231 163.544 99.5466C165.514 100.89 167.666 101.427 169.841 101.951C171.209 102.281 172.562 102.578 174.075 102.393C176.147 102.139 178.122 102.722 179.883 103.873C182.531 105.604 185.29 106.687 188.381 107.118C194.944 108.033 201.349 109.694 207.43 112.583C210.887 114.226 214.678 114.902 218.637 114.21C222.759 113.489 226.1 115.488 229.354 117.532C232.905 119.762 236.762 119.833 240.864 118.822C247.723 117.133 253.859 118.621 259.655 121.654C261.811 122.783 264.09 123.598 266.459 123.587C271.674 123.564 275.99 125.932 279.658 130.375C282.019 133.235 285.179 133.167 288.322 132.78C292.97 132.206 297.698 130.891 302.454 128.947C303.713 128.432 304.952 127.834 306.127 126.422C308.578 123.476 309.416 119.796 308.593 116.052C307.77 112.306 305.663 110.94 303.526 110.022C300.035 108.524 296.709 106.442 292.929 105.888C289.467 105.381 286.753 102.684 283.971 100.312C282.064 98.6879 282.312 96.3979 284.078 92.8547C285.768 89.463 287.871 87.9653 289.993 87.4904C295.235 86.3175 300.255 86.5762 304.784 88.9278C309.948 91.6093 315.463 92.7239 321.229 92.9874C324.444 93.1342 327.656 93.323 330.834 93.712C339.879 94.8187 348.563 97.6796 358.012 96.8379C359.988 96.662 361.786 97.3857 363.494 98.2617C368.864 101.016 374.553 102.427 380.578 102.595C382.244 102.641 383.955 102.977 385.333 103.974C387.075 105.236 388.998 105.773 390.913 106.308C395.69 107.643 400.332 109.383 404.691 112.073C404.794 112.137 404.911 112.167 405.028 112.185C413.008 113.453 419.943 118.504 427.968 119.652C430.559 120.022 433.194 120.051 435.851 119.943C441.731 119.704 447.136 121.172 452.272 123.968C455.54 125.747 459.051 126.851 462.542 127.932C465.155 128.742 467.517 130.263 469.962 131.541C475.72 134.55 481.579 137.202 487.838 138.475C491.187 139.156 494.764 138.716 498.077 139.697C500.132 140.306 501.78 142.076 503.939 142.308C509.94 142.953 515.807 144.269 522.085 143.475C525.529 143.039 528.86 143.22 532.058 144.181C546.125 148.41 560.58 151.125 574.69 155.161C581.348 157.066 588.165 158.679 594.261 162.59C598.644 165.402 599.347 168.429 597.076 176.728C595.3 183.216 594.444 189.23 595.499 195.019C595.884 197.133 595.633 199.577 595.202 202.103C593.986 209.246 595.344 213.982 598.806 216.517C600.7 217.903 602.655 219.136 604.583 220.436C605.241 220.879 605.731 221.583 605.317 223.055C604.921 224.467 604.086 224.966 603.352 225.038C602.505 225.121 601.711 224.821 600.881 224.751C593.384 224.115 586.239 221.993 579.023 220.178C576.841 219.63 574.545 219.883 572.519 222.801C567.806 229.589 563.15 229.448 558.426 229.475C552.73 229.508 547.487 227.537 541.993 226.673C540.717 226.472 539.532 226.003 538.084 226.478C534.554 227.636 532.382 230.569 531.113 236.355C529.931 241.743 530.699 245.003 533.711 246.737C537.994 249.203 542.638 250.565 546.781 253.501C548.237 254.533 550.066 254.907 551.987 254.438C552.595 254.29 553.197 254.357 553.772 254.458C554.742 254.628 555.633 255.185 555.725 256.859C555.823 258.63 554.93 259.994 553.964 261.062C552.117 263.104 550.308 265.363 548.389 267.054C544.561 270.427 540.681 271.272 536.884 271.707C535.321 271.886 533.92 271.177 533.002 269.135C532.249 267.457 531.127 266.099 529.686 265.974C526.641 265.709 524.095 264.253 521.953 261.446C520.177 259.12 517.83 260.016 515.404 261.989C514.919 262.383 514.459 262.935 513.986 263.407C508.901 268.481 508.116 268.481 505.438 262.605C503.091 257.457 500.594 255.162 494.393 260.887C490.799 264.204 487.292 267.819 483.501 269.997C481.685 271.04 480.134 273.261 478.863 275.69C474.632 283.779 469.563 285.551 464.752 285.345C460.139 285.148 456.33 287.037 452.443 293.511C450.516 296.72 448.032 299.155 445.709 301.624C443.671 303.79 442.911 303.429 442.743 300.084C442.482 294.853 441.204 290.953 438.853 288.156C437.772 286.87 437.405 284.734 437.172 282.471C436.097 272.024 431.603 268.234 425.097 268.647C422.869 268.789 420.892 267.972 418.775 267.71C414.044 267.125 409.533 268.874 405.12 275.176C402.933 278.299 400.501 280.164 397.913 280.529C394.618 280.995 391.469 282.935 388.382 286.488C387.033 288.04 385.523 289.242 384.05 290.256C381.756 291.834 379.73 294.062 377.894 297.068C375.927 300.287 373.904 301.35 371.562 300.836C367.7 299.989 364.337 297.914 361.224 294.951C359.135 292.962 357.82 290.238 357.855 285.768C357.896 280.407 356.455 277.123 353.562 275.429C351.165 274.025 349.043 271.78 346.277 271.537C341.071 271.08 337.022 267.479 333.987 262.09C329.755 254.574 324.306 253.748 317.199 257.708C312.871 260.119 308.491 260.9 304.114 263.884C302.715 264.837 301.149 264.667 299.717 264.665C298.083 264.663 296.484 265.531 294.881 266.693C291.511 269.133 289.595 273.149 289.052 278.656C288.727 281.955 288.77 285.082 289.454 287.779C290.602 292.31 290.815 297.538 291.518 302.398C291.994 305.687 291.441 306.62 289.166 308.713C286.363 311.292 283.997 309.983 281.523 310.102C279.27 310.21 277.092 309.552 275.174 307.976C272.423 305.715 269.177 305.4 265.643 306.074C260.465 307.062 255.39 307.204 250.045 311.256C246.634 313.842 244.803 317.815 243.944 323.102C243.683 324.709 243.65 326.334 243.611 327.913C243.557 330.086 243.648 332.205 243.586 334.381C243.488 337.776 242.748 339.392 240.593 340.393C239.11 341.082 237.596 341.412 236.141 341.556C234.234 341.747 232.346 342.543 230.628 344.632C226.99 349.056 223.279 350.106 219.632 350.115C216.49 350.123 213.597 351.731 210.446 354.399C205.553 358.542 200.8 359.145 196.545 356.546C194.474 355.282 192.591 353.577 190.248 352.986C186.796 352.116 183.621 353.703 180.769 358.805C178.072 363.631 177.165 371.17 178.587 376.055C179.144 377.97 180.141 379.408 180.742 381.285C181.313 383.068 182.693 384.592 181.474 387.438C180.435 389.866 178.735 390.646 177.258 390.858C173.049 391.462 169.039 391.103 165.609 388.385C162.312 385.771 161.965 381.639 164.515 375.268C165.273 373.373 166.092 371.519 166.8 369.594C169.161 363.183 168.597 358.569 165.438 355.788C162.81 353.476 159.715 352.819 156.476 354.715C150.339 358.308 145.891 355.004 140.906 353.208C134.731 350.983 128.414 349.147 121.023 353.215C114.534 356.787 106.351 373.527 105.813 384.469C105.634 388.103 106.167 390.942 107.431 393.172C109.021 395.977 110.589 398.82 112.555 401.02C114.334 403.01 115.795 405.556 116.923 408.595C118.571 413.036 118.164 416.518 115.17 420.982C111.743 426.093 108.243 431.089 104.67 435.897C101.928 439.586 100.871 438.851 100.97 433.677C101.031 430.532 101.327 427.28 101.27 424.196C101.098 414.744 98.2459 411.102 92.3015 412.522C90.8141 412.878 89.3156 413.302 87.8177 413.873C84.1683 415.264 81.0668 414.773 78.6476 411.334C76.873 408.812 74.2964 408.592 71.7323 408.847C68.5264 409.165 65.3036 413.396 63.6123 418.947C62.374 423.012 61.8922 427.024 61.8079 431.053C61.7295 434.808 61.4925 438.617 60.5919 442.528C58.9866 449.5 57.3328 451.864 53.0973 452.934C51.1137 453.435 49.1457 453.701 47.1814 453.981C42.8501 454.598 38.966 457.819 35.5808 463.695C33.3268 467.607 30.8384 470.931 28.0899 473.626C25.7136 475.956 24.0905 479.36 22.6237 482.958C21.4575 485.818 20.2172 488.582 18.6166 490.875C15.7051 495.046 12.9125 495.766 11.045 492.109C8.15968 486.459 5.16228 481.095 1.16347 477.369C0.0941994 476.373 -0.357971 474.533 -0.471397 472.318C-0.559077 470.604 -0.711929 468.878 -1.05808 467.37C-1.9118 463.647 -4.95528 462.934 -7.4465 465.846C-8.34515 466.896 -9.19442 468.185 -9.95811 469.52C-15.2418 478.753 -21.0292 483.785 -27.7292 482.978C-30.0963 482.693 -32.6587 483.924 -35.1564 485.622C-36.5261 486.553 -37.9529 487.667 -38.9648 489.641C-42.1082 495.77 -45.2076 501.958 -48.2332 508.219C-50.3018 512.5 -50.2929 516.422 -49.1053 519.994C-47.7624 524.033 -47.9151 525.088 -50.8171 528.382C-53.8566 531.832 -56.0557 535.983 -57.0766 541.432C-57.9065 545.863 -59.5886 549.082 -62.2306 551.516C-64.1295 553.266 -65.8722 555.711 -67.733 557.675C-74.1513 564.448 -78.4326 565.042 -82.8914 559.02C-87.3124 553.049 -93.1971 554.448 -99.2497 556.81C-102.957 558.257 -106.617 559.594 -109.626 557.357C-111.971 555.614 -114.555 554.918 -117.156 554.132C-119.117 553.539 -121.142 553.659 -123.312 554.504C-128.942 556.696 -133.769 556.081 -137.095 549.827C-137.98 548.162 -139.267 546.942 -140.59 546.123C-143.479 544.336 -146.456 546.944 -148.202 552.486C-148.444 553.255 -148.623 554.058 -148.797 554.85C-150.432 562.311 -151.217 563.1 -155.259 561.287C-158.342 559.904 -160.946 557.481 -163.013 553.855C-165.857 548.865 -168.983 544.434 -173.21 542.159C-174.811 541.298 -176.051 539.597 -177.35 538.048C-178.959 536.131 -180.823 535.166 -183.259 536.211C-186.095 537.428 -188.268 536.619 -189.813 533.364C-190.998 530.865 -192.876 529.586 -194.768 528.498C-195.735 527.943 -196.557 527.131 -197.254 526.045C-199.254 522.929 -199.155 520.666 -196.522 516.366C-194.893 513.707 -193.57 510.817 -192.427 507.759C-190.96 503.831 -188.916 501.65 -186.556 501.182C-183.352 500.546 -180.358 498.817 -177.469 495.174C-176.935 494.5 -176.262 494.017 -175.65 493.729C-171.632 491.836 -168.183 488.288 -164.985 482.875C-163.143 479.757 -160.442 478.568 -158.092 477.543C-154.088 475.795 -150.11 472.994 -146.093 471.803C-143.07 470.907 -140.678 468.011 -139.362 462.974C-138.618 460.132 -137.37 458.144 -135.787 456.537C-133.76 454.479 -132.082 451.85 -130.455 448.875C-126.027 440.778 -120.52 435.319 -114.199 437.868C-111.326 439.027 -108.362 439.857 -104.992 440.2Z" fill="#E8E4DE" stroke="black" stroke-opacity="0.41" stroke-width="2" mask="url(#path-3-inside-1_46_2209)"/>
    <path d="M-184.4 331.986C-183.882 331.966 -183.407 331.61 -182.996 330.896C-179.45 324.752 -175.295 321.172 -170.787 318.855C-169.428 318.157 -168.061 317.04 -166.742 315.883C-162.031 311.751 -157.325 307.677 -152.379 305.367C-151.267 304.848 -150.138 303.893 -149.058 302.933C-146.133 300.333 -143.19 298.58 -140.152 297.754C-136.768 296.835 -134.116 293.566 -131.958 288.484C-129.971 283.805 -129.274 279.584 -130.293 275.228C-131.589 269.689 -130.924 267.005 -127.397 262.392C-124.911 259.14 -122.403 257.568 -119.468 257.163C-114.002 256.411 -109.849 260.29 -104.866 261.142C-103.553 261.367 -102.898 263.216 -102.056 264.545C-98.7544 269.756 -95.4886 269.041 -91.6846 261.475C-89.2686 256.669 -86.5859 254.197 -83.505 253.671C-76.0578 252.4 -68.8565 246.598 -61.5372 242.058C-55.4168 238.261 -49.9551 233.041 -44.6938 225.779C-41.1573 220.898 -37.0953 217.408 -32.7984 215.97C-30.5075 215.203 -28.3337 213.317 -26.3966 210.407C-24.5309 207.605 -22.6449 204.84 -20.7878 202.022C-18.5851 198.679 -16.3737 196.786 -13.7355 197.496C-10.3015 198.419 -7.01029 195.869 -4.40003 190.612C-1.93188 185.641 0.842408 182.819 4.31578 181.246C10.2094 178.578 15.9691 176.256 21.7221 176.565C25.6338 176.775 29.7155 175.996 33.4804 177.18C42.6547 180.065 52.5347 179.314 62.3411 178.841C65.0658 178.71 67.5611 179.265 69.9847 180.24C73.3878 181.608 76.9053 181.553 80.8119 178.706C85.0279 175.632 88.4097 177.84 91.6432 179.516C98.0783 182.851 104.929 183.623 112.416 181.092C116.105 179.845 119.194 180.554 121.873 183.162C122.4 183.675 123.035 184.16 123.128 185.412C122.863 186.974 122.04 187.437 121.339 187.79C116.508 190.222 111.808 191.709 107.981 187.966C105.059 185.109 101.548 184.993 97.6984 186.294C89.9754 188.904 82.214 192.191 74.5838 193.147C70.6729 193.636 66.6525 195.321 62.7613 195.395C60.9212 195.43 59.1715 195.132 57.4955 194.648C49.2041 192.254 40.4495 191.834 32.1632 189.449C29.01 188.541 25.6968 189.772 22.6325 192.878C16.1268 199.471 9.20013 203.611 2.69783 210.083C1.5165 211.259 0.270537 212.263 -0.83691 213.632C-4.32947 217.952 -7.80931 219.475 -11.3158 218.482C-14.8632 217.479 -18.6297 217.814 -22.425 218.179C-26.1814 218.539 -29.3252 221.44 -32.2223 226.394C-34.5516 230.378 -36.622 234.722 -39.2703 238.269C-42.4774 242.563 -45.7747 246.109 -49.5437 247.811C-52.8238 249.292 -56.0218 251.605 -59.1171 254.758C-61.13 256.808 -63.2526 258.144 -65.3817 259.349C-67.6468 260.631 -69.8174 262.436 -71.9569 264.596C-74.8258 267.493 -76.9978 271.267 -78.1468 276.175C-79.285 281.036 -81.4267 284.176 -84.0624 287.188C-90.0678 294.05 -96.3321 297.715 -102.796 300.26C-107.667 302.178 -112.547 304.511 -117.423 306.722C-121.397 308.524 -124.981 307.573 -128.665 307.459C-130.871 307.391 -133.038 307.664 -135.298 309.022C-138.823 311.139 -142.298 312.282 -145.721 312.502C-148.3 312.667 -150.606 314.443 -152.97 317.251C-157.974 323.196 -163.391 327.366 -168.754 331.67C-172.074 334.335 -175.209 333.714 -178.272 333.572C-180.382 333.475 -182.668 333.699 -184.404 331.978C-184.405 331.978 -184.4 331.986 -184.4 331.986Z" fill="#E8E4DE"/>
    <path d="M-181.398 332.891C-182.122 332.773 -182.8 332.556 -183.416 332.144C-183.087 331.909 -182.803 331.563 -182.563 331.146C-179.065 325.084 -174.98 321.572 -170.558 319.3C-169.14 318.571 -167.732 317.416 -166.413 316.259C-161.689 312.116 -157.037 308.095 -152.167 305.82C-150.98 305.265 -149.799 304.261 -148.726 303.307C-145.84 300.742 -142.964 299.036 -140.021 298.237L-140.152 297.754L-140.021 298.237C-136.404 297.254 -133.669 293.793 -131.498 288.68C-129.484 283.936 -128.756 279.604 -129.806 275.114C-130.447 272.377 -130.587 270.407 -130.166 268.575C-129.745 266.739 -128.748 264.982 -127 262.695C-124.571 259.518 -122.171 258.04 -119.4 257.659C-116.805 257.301 -114.504 258.038 -112.179 259.012C-111.702 259.212 -111.221 259.423 -110.736 259.636C-108.891 260.448 -106.982 261.287 -104.951 261.635C-104.513 261.71 -104.122 262.067 -103.702 262.705C-103.498 263.014 -103.305 263.36 -103.104 263.725L-103.063 263.799C-102.878 264.136 -102.684 264.488 -102.479 264.813C-101.635 266.143 -100.767 267.142 -99.8529 267.745C-98.9221 268.359 -97.9378 268.564 -96.925 268.283C-95.9372 268.009 -94.9896 267.29 -94.0648 266.203C-93.1364 265.111 -92.1984 263.609 -91.2379 261.699C-88.8481 256.945 -86.2671 254.649 -83.4209 254.164C-79.6055 253.513 -75.8798 251.707 -72.2168 249.52C-70.3829 248.425 -68.5554 247.229 -66.7347 246.026C-66.5302 245.891 -66.3259 245.756 -66.1216 245.621C-64.504 244.552 -62.8916 243.486 -61.2736 242.483C-55.0884 238.645 -49.5811 233.377 -44.2889 226.072C-40.786 221.237 -36.8009 217.837 -32.6398 216.444C-30.2057 215.63 -27.9527 213.646 -25.9804 210.684C-25.2133 209.532 -24.4405 208.383 -23.6669 207.232C-22.5648 205.593 -21.4611 203.952 -20.3703 202.297C-19.2813 200.644 -18.2199 199.398 -17.1402 198.65C-16.0797 197.916 -15.0169 197.669 -13.8653 197.979C-11.9751 198.487 -10.1383 198.026 -8.45959 196.772C-6.79506 195.528 -5.27635 193.501 -3.95219 190.834C-1.51944 185.935 1.1821 183.214 4.522 181.702C10.4248 179.029 16.0798 176.763 21.6953 177.064C23.026 177.136 24.393 177.094 25.7357 177.053C26.3856 177.033 27.0298 177.014 27.6615 177.007C29.6262 176.987 31.5244 177.089 33.3305 177.657C41.9429 180.365 51.1624 179.902 60.2584 179.445C60.9615 179.41 61.6639 179.375 62.3652 179.341C65.003 179.214 67.426 179.749 69.7982 180.704C71.5583 181.411 73.3721 181.76 75.2645 181.551C77.1579 181.341 79.0948 180.576 81.1064 179.11C83.0962 177.659 84.85 177.47 86.4921 177.819C87.9336 178.125 89.2895 178.841 90.6829 179.577C90.9249 179.704 91.1681 179.833 91.4131 179.96C97.9632 183.354 104.954 184.142 112.576 181.566C114.352 180.965 115.953 180.846 117.415 181.17C118.877 181.493 120.239 182.269 121.524 183.52C121.582 183.576 121.638 183.629 121.692 183.681C121.908 183.887 122.092 184.062 122.252 184.294C122.431 184.552 122.578 184.885 122.624 185.389C122.503 186.052 122.274 186.45 122.029 186.716C121.769 186.999 121.46 187.169 121.114 187.343C118.708 188.555 116.396 189.497 114.238 189.696C112.11 189.892 110.128 189.367 108.33 187.609C106.794 186.106 105.086 185.313 103.252 185.075C101.427 184.839 99.5073 185.155 97.5384 185.82C95.7791 186.415 94.0249 187.041 92.2759 187.666C86.2943 189.803 80.3741 191.918 74.5216 192.651C72.8258 192.863 71.1092 193.296 69.4265 193.72C69.1314 193.795 68.8374 193.869 68.5447 193.942C66.565 194.433 64.6356 194.859 62.7518 194.895C60.9725 194.929 59.2735 194.641 57.6342 194.168C53.4555 192.961 49.1648 192.253 44.9088 191.552L44.8984 191.55C40.636 190.847 36.4085 190.15 32.3015 188.968C28.9091 187.992 25.4155 189.346 22.2766 192.527C19.0478 195.799 15.7121 198.465 12.3528 201.134L12.1276 201.313C8.8475 203.919 5.54602 206.542 2.34509 209.729C1.99131 210.081 1.62026 210.427 1.24288 210.779C0.411854 211.554 -0.44988 212.358 -1.22572 213.318C-4.65844 217.564 -7.94982 218.915 -11.1797 218.001C-14.8321 216.968 -18.693 217.318 -22.4728 217.681C-26.4794 218.066 -29.7362 221.152 -32.6539 226.142C-33.3923 227.404 -34.0983 228.69 -34.8004 229.969C-36.3426 232.778 -37.8657 235.552 -39.6709 237.969C-42.8712 242.255 -46.1044 245.71 -49.7494 247.355C-53.0966 248.866 -56.3442 251.22 -59.4739 254.408L-59.1171 254.758L-59.4739 254.408C-61.438 256.408 -63.513 257.717 -65.628 258.914C-67.9468 260.226 -70.1538 262.065 -72.3122 264.244C-75.2492 267.21 -77.4646 271.068 -78.6336 276.061C-79.747 280.816 -81.8357 283.884 -84.4387 286.859C-90.3814 293.649 -96.5739 297.272 -102.979 299.794C-106.767 301.286 -110.563 303.028 -114.343 304.764C-115.44 305.267 -116.536 305.771 -117.63 306.267C-119.529 307.128 -121.339 307.335 -123.146 307.309C-124.053 307.296 -124.954 307.224 -125.871 307.147L-126.06 307.131C-126.911 307.059 -127.777 306.986 -128.649 306.959C-130.914 306.89 -133.186 307.17 -135.555 308.593C-139.023 310.676 -142.422 311.789 -145.753 312.003C-148.548 312.182 -150.971 314.101 -153.352 316.929C-157.934 322.372 -162.862 326.315 -167.817 330.28C-168.233 330.613 -168.65 330.946 -169.067 331.28L-168.754 331.67L-169.067 331.28C-171.808 333.481 -174.37 333.316 -177.064 333.142C-177.456 333.117 -177.851 333.091 -178.249 333.073C-178.574 333.058 -178.892 333.05 -179.205 333.043C-179.958 333.025 -180.681 333.007 -181.398 332.891Z" stroke="black" stroke-opacity="0.41"/>
    <path d="M258.97 -71.5479C261.678 -71.298 263.629 -69.091 265.591 -66.9306C268.347 -63.8963 271.076 -60.8787 274.667 -59.8003C277.017 -59.0946 279.446 -59.7749 281.946 -60.6916C283.191 -61.1482 284.448 -61.8312 285.683 -62.1614C289.175 -63.0953 290.277 -60.5164 289.147 -54.7013C288.128 -49.4623 286.382 -45.7328 283.071 -42.7198C278.25 -38.3347 274.931 -30.8843 271.823 -23.6618C269.813 -18.9893 270.301 -15.4684 272.679 -12.5343C274.04 -10.8544 275.589 -9.52186 276.89 -7.73891C278.115 -6.05842 277.945 -4.48182 276.13 -3.28061C270.562 0.403215 266.793 6.8575 264.044 15.3822C263.744 16.3103 263.179 17.2543 262.634 17.8992C257.104 24.449 252.174 32.5443 246.345 38.3067C245.524 39.1182 244.643 39.6796 243.813 40.4624C242.043 42.1328 240.876 41.6281 240.224 39.3279C238.983 34.9468 237.701 30.6037 236.585 26.0967C235.981 23.6557 236.298 20.947 237.636 18.0783C242.906 6.77995 243.641 -4.91128 244.246 -16.5321C244.538 -22.1369 242.379 -24.3933 239.449 -25.193C235.805 -26.1871 232.371 -27.8102 229.046 -29.827C225.966 -31.6959 223.482 -34.6889 221.783 -39.0413C220.19 -43.123 217.886 -45.3465 214.642 -45.6773C211.884 -45.9587 209.459 -47.2948 207.476 -49.7879C205.42 -52.3725 205.671 -54.2872 208.558 -56.8907C212.273 -60.2406 216.272 -61.7125 219.92 -65.6394C220.143 -65.8799 220.458 -65.8608 220.655 -66.1293C225.864 -73.2333 230.661 -72.9344 235.56 -71.1261C238.996 -69.8576 242.824 -70.1843 246.671 -71.0654C250.904 -72.0353 254.958 -71.9398 258.97 -71.5479Z" fill="#E8E4DE"/>
    <path d="M258.921 -71.0503L258.924 -71.05C260.148 -70.9371 261.223 -70.3815 262.249 -69.5645C263.244 -68.7722 264.162 -67.7615 265.112 -66.7149L265.221 -66.5945L265.309 -66.4976C268.012 -63.521 270.814 -60.4354 274.523 -59.3214C277.047 -58.5635 279.62 -59.3059 282.118 -60.2221C282.621 -60.4068 283.13 -60.6286 283.621 -60.8431C283.754 -60.9011 283.886 -60.9586 284.016 -61.0147C284.638 -61.2829 285.233 -61.5234 285.812 -61.6783L285.683 -62.1614L285.812 -61.6783C286.631 -61.8973 287.244 -61.8916 287.692 -61.7354C288.121 -61.5855 288.456 -61.2773 288.693 -60.7552C288.937 -60.2182 289.074 -59.4596 289.073 -58.4521C289.072 -57.4493 288.935 -56.2314 288.656 -54.7968C287.651 -49.626 285.942 -46.0082 282.734 -43.0897C277.818 -38.6175 274.459 -31.0545 271.364 -23.8594C270.335 -21.4692 269.93 -19.336 270.107 -17.4004C270.286 -15.4589 271.047 -13.7535 272.29 -12.2195C272.893 -11.4754 273.533 -10.7976 274.157 -10.1358C274.253 -10.0345 274.348 -9.93354 274.443 -9.83279C275.161 -9.06845 275.855 -8.30879 276.486 -7.44427L276.89 -7.73891L276.486 -7.44425C277.052 -6.6672 277.245 -5.98475 277.156 -5.40614C277.068 -4.83401 276.686 -4.24814 275.854 -3.6976L276.13 -3.28061L275.854 -3.6976C270.147 0.0782165 266.331 6.6609 263.568 15.2288C263.291 16.0873 262.76 16.975 262.252 17.5766L262.252 17.5767C260.034 20.2039 257.911 23.0804 255.799 25.941C255.266 26.663 254.734 27.3839 254.201 28.0996C251.549 31.6612 248.879 35.0988 245.993 37.9511L246.345 38.3067L245.993 37.9511C245.604 38.3359 245.198 38.6642 244.771 39.0041C244.743 39.0264 244.715 39.0487 244.687 39.0711C244.29 39.3867 243.874 39.717 243.47 40.0987C242.605 40.9151 242.069 41.0173 241.762 40.9114C241.599 40.8554 241.416 40.7187 241.228 40.434C241.038 40.1478 240.86 39.7384 240.705 39.1916C240.463 38.3347 240.218 37.4801 239.974 36.626C238.969 33.106 237.966 29.595 237.071 25.9766C236.499 23.6661 236.79 21.0746 238.089 18.2897C243.405 6.89159 244.141 -4.8931 244.746 -16.5061C244.895 -19.3701 244.422 -21.4507 243.477 -22.9332C242.526 -24.4262 241.135 -25.251 239.58 -25.6753C235.993 -26.6541 232.602 -28.2548 229.306 -30.2545C226.334 -32.0576 223.914 -34.9561 222.249 -39.2231C220.619 -43.3982 218.197 -45.8174 214.693 -46.1747C212.081 -46.4413 209.774 -47.7021 207.867 -50.0992C206.875 -51.3455 206.521 -52.3315 206.658 -53.2591C206.798 -54.2091 207.473 -55.239 208.893 -56.5194C210.477 -57.9481 212.112 -59.0273 213.783 -60.1305C214.035 -60.2969 214.288 -60.4637 214.541 -60.6324C216.469 -61.9147 218.421 -63.2908 220.286 -65.2991L220.286 -65.2992C220.316 -65.331 220.348 -65.3486 220.502 -65.4175L220.503 -65.4183C220.639 -65.479 220.876 -65.5853 221.058 -65.8335L221.058 -65.8336C223.618 -69.325 226.028 -70.9323 228.34 -71.4834C230.659 -72.0366 232.971 -71.5488 235.387 -70.657C238.961 -69.3379 242.905 -69.6897 246.782 -70.578C250.94 -71.5306 254.933 -71.4399 258.921 -71.0503ZM219.92 -65.6394C220.024 -65.7522 220.149 -65.8079 220.273 -65.8629C220.412 -65.9252 220.55 -65.9867 220.655 -66.1293C225.864 -73.2333 230.661 -72.9344 235.56 -71.1261C238.996 -69.8576 242.824 -70.1843 246.671 -71.0654C250.904 -72.0353 254.958 -71.9398 258.97 -71.5479L219.92 -65.6394Z" stroke="black" stroke-opacity="0.41"/>
    <path d="M365.732 401.463C369.272 402.818 373.036 403.281 376.374 405.412C379.964 407.704 383.865 407.401 388.062 402.307C389.582 400.462 391.266 400.018 392.868 399.632C394.463 399.248 394.96 400.68 394.238 403.263C393.853 404.641 393.266 405.948 392.787 407.298C391.034 412.245 389.98 417.242 389.737 422.372C389.615 424.949 389.356 427.598 388.975 430.226C388.404 434.155 388.261 437.805 388.767 441.34C389.357 445.457 388.837 446.746 386.018 449.247C384.937 450.206 383.806 450.907 382.712 451.814C378.276 455.493 375.975 461.519 376.382 468.401C376.483 470.107 376.71 471.74 376.811 473.446C377.06 477.638 376.416 481.8 374.399 485.802C372.698 489.178 371.312 492.593 370.688 496.66C370.159 500.103 369.074 500.922 367.345 499.715C365.318 498.301 364.364 495.142 363.62 492.05C362.017 485.392 359.264 480.908 355.138 478.452C354.06 477.81 352.345 476.931 353.031 474.47C353.785 471.766 355.446 472.845 356.694 472.85C362.9 472.875 366.678 467.565 367.74 457.209C368.135 453.347 368.679 449.524 369.764 445.68C370.213 444.09 370.639 442.428 370.839 440.827C372.331 428.851 368.259 415.687 361.874 412.111C359.285 410.661 357.083 408.59 355.8 404.729C355.402 403.531 354.698 402.296 355.466 400.48C356.348 398.395 357.317 399.412 358.164 399.592C360.706 400.133 363.212 400.828 365.732 401.463Z" fill="#E8E4DE"/>
    <path d="M367.345 499.715L367.345 499.715L367.345 499.715ZM367.345 499.715L367.345 499.715L367.345 499.715ZM388.448 402.625L388.062 402.307L388.448 402.625C389.857 400.914 391.4 400.5 392.985 400.119C393.314 400.039 393.521 400.07 393.646 400.128C393.762 400.182 393.872 400.289 393.953 400.508C394.129 400.986 394.111 401.859 393.757 403.128C393.513 403.999 393.196 404.818 392.868 405.663C392.684 406.139 392.496 406.624 392.316 407.131C390.548 412.12 389.483 417.164 389.238 422.348C389.116 424.909 388.859 427.541 388.48 430.154C387.905 434.114 387.757 437.815 388.272 441.411C388.565 443.458 388.565 444.705 388.2 445.732C387.836 446.754 387.086 447.631 385.686 448.873C385.164 449.336 384.627 449.74 384.073 450.148C384.009 450.195 383.945 450.242 383.88 450.289C383.391 450.649 382.888 451.018 382.393 451.429C377.81 455.23 375.469 461.425 375.883 468.43C375.934 469.295 376.017 470.139 376.099 470.972L376.099 470.974C376.181 471.81 376.262 472.634 376.312 473.475C376.557 477.594 375.924 481.666 373.953 485.577L374.399 485.802L373.953 485.577C372.239 488.978 370.829 492.446 370.194 496.584L370.194 496.584C370.064 497.426 369.904 498.086 369.718 498.584C369.529 499.088 369.327 499.389 369.137 499.555C368.966 499.705 368.791 499.758 368.578 499.734C368.341 499.708 368.029 499.583 367.631 499.305L367.631 499.305C366.727 498.675 366.029 497.629 365.46 496.313C364.893 495.002 364.477 493.475 364.106 491.933C362.486 485.205 359.68 480.574 355.394 478.022C355.348 477.994 355.301 477.967 355.254 477.939C354.728 477.628 354.19 477.31 353.816 476.834C353.443 476.36 353.21 475.692 353.513 474.605C353.688 473.977 353.9 473.627 354.098 473.431C354.285 473.245 354.49 473.166 354.728 473.142C354.985 473.115 355.272 473.154 355.616 473.213C355.658 473.221 355.702 473.228 355.746 473.236C356.038 473.288 356.375 473.349 356.692 473.35C359.966 473.363 362.612 471.957 364.554 469.211C366.478 466.492 367.702 462.477 368.237 457.26C368.632 453.41 369.172 449.62 370.245 445.816C370.695 444.222 371.13 442.53 371.335 440.889C372.09 434.829 371.438 428.472 369.788 423.17C368.145 417.893 365.478 413.557 362.118 411.675C359.619 410.276 357.512 408.295 356.274 404.571C356.209 404.375 356.139 404.184 356.071 403.997C355.695 402.965 355.353 402.03 355.927 400.675C356.132 400.189 356.32 399.941 356.466 399.816C356.594 399.706 356.701 399.682 356.81 399.686C356.946 399.691 357.104 399.74 357.326 399.827C357.358 399.84 357.392 399.854 357.429 399.868C357.61 399.942 357.839 400.035 358.06 400.081C359.877 400.468 361.67 400.933 363.476 401.4C364.175 401.581 364.876 401.763 365.581 401.94C366.825 402.415 368.108 402.785 369.367 403.149C369.912 403.306 370.452 403.462 370.982 403.625C372.769 404.172 374.493 404.805 376.105 405.834C377.98 407.031 379.987 407.579 382.097 407.118C384.195 406.659 386.309 405.221 388.448 402.625Z" stroke="black" stroke-opacity="0.41"/>
    <path d="M360.443 -12.4175C363.059 -12.2843 365.164 -10.3099 367.59 -9.36535C374.358 -6.72989 381.763 -6.84156 388.759 -5.1946C390.598 -4.76164 392.476 -4.48471 394.301 -3.99724C395.059 -3.79469 396.029 -3.71523 395.833 -1.80269C395.656 -0.0756458 394.738 0.705566 393.911 1.48051C393.32 2.03455 392.692 2.47471 392.072 2.8415C389.401 4.4233 386.961 6.73906 384.758 10.2412C382.616 13.6465 380.268 14.9498 377.619 15.192C374.148 15.5094 370.951 14.7745 367.788 13.8351C364.935 12.9875 362.006 12.698 358.879 13.445C357.479 13.7795 356.143 13.8455 355.16 12.6031C351.178 7.57312 346.047 5.63962 340.818 4.34908C333.251 2.48138 326.003 -0.531565 318.445 -2.39828C316.049 -2.99005 313.746 -4.01567 311.078 -3.41574C310.359 -3.25407 309.643 -3.53882 309.007 -3.86186C305.256 -5.76547 301.403 -7.20293 297.03 -6.57198C296.312 -6.46841 295.636 -6.83619 294.978 -7.11175C293.794 -7.60852 294.22 -9.15698 294.958 -10.3438C296.208 -12.3538 297.681 -13.5363 299.216 -13.3566C300.158 -13.2462 301.09 -13.0432 301.977 -12.7109C304.464 -11.7787 307.052 -11.8956 309.897 -13.2515C313.831 -15.1261 317.634 -14.9933 321.131 -14.1582C326.223 -12.9425 331.564 -13.3632 336.85 -13.458C341.319 -13.5383 345.449 -11.9964 349.994 -12.5033C353.525 -12.8972 357.173 -13.8977 360.443 -12.4175Z" fill="#E8E4DE"/>
    <path d="M360.237 -11.962L360.323 -11.9229L360.417 -11.9181C361.609 -11.8575 362.707 -11.3768 363.849 -10.7563C364.147 -10.5946 364.451 -10.4212 364.76 -10.2446C365.605 -9.76226 366.492 -9.25627 367.408 -8.89943C370.849 -7.55974 374.44 -6.92264 378.019 -6.41426C378.811 -6.30173 379.601 -6.19559 380.39 -6.08976C383.179 -5.71527 385.94 -5.3446 388.644 -4.70791C389.436 -4.52143 390.236 -4.36348 391.025 -4.20759C391.163 -4.18036 391.301 -4.15319 391.438 -4.12594C392.365 -3.94182 393.277 -3.75338 394.172 -3.51418C394.248 -3.49382 394.317 -3.47682 394.38 -3.46095C394.505 -3.43002 394.612 -3.40333 394.728 -3.36423C394.887 -3.31026 395.002 -3.2496 395.088 -3.17125C395.233 -3.04005 395.426 -2.73594 395.335 -1.85366L395.833 -1.80269L395.335 -1.85364C395.186 -0.394948 394.465 0.278406 393.673 1.0181C393.639 1.05048 393.604 1.08298 393.569 1.11569C393.01 1.63918 392.414 2.05832 391.818 2.41128C389.071 4.03749 386.576 6.41237 384.335 9.97496L384.758 10.2412L384.335 9.97496C382.263 13.2696 380.044 14.4682 377.573 14.6941L377.573 14.6941C374.201 15.0025 371.077 14.2906 367.931 13.3558C365.015 12.4895 361.994 12.1867 358.763 12.9587C358.081 13.1216 357.474 13.2032 356.939 13.1212C356.427 13.0426 355.962 12.811 355.552 12.2927C351.467 7.1329 346.205 5.16367 340.938 3.86365C337.176 2.93514 333.49 1.72118 329.785 0.500148L329.767 0.494331C326.073 -0.722778 322.359 -1.9465 318.565 -2.8837C318.071 -3.00566 317.582 -3.14623 317.082 -3.28987C316.987 -3.31718 316.891 -3.34459 316.795 -3.37201C316.2 -3.54232 315.589 -3.71149 314.967 -3.8431C313.717 -4.10719 312.396 -4.22472 310.968 -3.90356L311.078 -3.41574L310.968 -3.90356C310.437 -3.78413 309.865 -3.98726 309.233 -4.30775C305.457 -6.22419 301.488 -7.72042 296.958 -7.06685L297.03 -6.57198L296.958 -7.06685C296.706 -7.03047 296.442 -7.07356 296.139 -7.17412C295.921 -7.24689 295.716 -7.33656 295.491 -7.43496C295.39 -7.47939 295.284 -7.52561 295.172 -7.57285L294.978 -7.11175L295.172 -7.57286C294.979 -7.65365 294.878 -7.76234 294.82 -7.88046C294.757 -8.00876 294.725 -8.18811 294.745 -8.4267C294.787 -8.91354 295.034 -9.51939 295.383 -10.0798C296.617 -12.0649 297.937 -13.0029 299.158 -12.86L299.216 -13.3566L299.158 -12.86C300.068 -12.7534 300.959 -12.5582 301.801 -12.2427C304.428 -11.258 307.157 -11.392 310.112 -12.8001L309.897 -13.2515L310.112 -12.8001C313.911 -14.6105 317.589 -14.4899 321.015 -13.6719C325.332 -12.6412 329.83 -12.7684 334.247 -12.8932C335.121 -12.9179 335.993 -12.9426 336.859 -12.9581C338.791 -12.9928 340.657 -12.7177 342.57 -12.4358C342.82 -12.3991 343.07 -12.3621 343.322 -12.3258C345.484 -12.0133 347.708 -11.7453 350.049 -12.0064C350.748 -12.0844 351.454 -12.1862 352.151 -12.2866C352.343 -12.3144 352.535 -12.3421 352.726 -12.3692C353.614 -12.495 354.488 -12.6084 355.349 -12.6642C357.071 -12.7759 358.707 -12.6545 360.237 -11.962Z" stroke="black" stroke-opacity="0.41"/>
    <path d="M165.761 188.423C166.547 187.084 167.146 186.709 167.791 186.448C172.666 184.47 177.507 181.605 182.335 178.532C187.468 175.265 192.155 176.076 196.869 176.331C198.882 176.439 199.204 179.287 197.9 182.528C196.823 185.206 195.346 187.43 193.843 189.432C191.306 192.812 190.067 196.373 190.312 200.985C190.475 204.046 189.824 204.731 187.805 204.522C186.344 204.372 185.154 203.483 184.122 202.248C181.233 198.792 177.867 197.102 173.804 196.93C169.993 196.77 167.735 192.713 165.761 188.423Z" fill="#E8E4DE"/>
    <path d="M169.48 193.908C168.284 192.449 167.279 190.51 166.326 188.455C166.644 187.945 166.918 187.622 167.162 187.404C167.434 187.16 167.69 187.028 167.979 186.911L167.979 186.911C172.899 184.916 177.771 182.03 182.604 178.953C186.975 176.171 190.981 176.442 195.134 176.722C195.7 176.761 196.269 176.799 196.842 176.83L196.869 176.331L196.842 176.83C197.217 176.85 197.487 176.991 197.687 177.219C197.898 177.458 198.058 177.825 198.134 178.329C198.285 179.341 198.069 180.769 197.436 182.342L197.9 182.528L197.436 182.342C196.383 184.961 194.934 187.145 193.443 189.132L193.443 189.132C190.84 192.6 189.561 196.275 189.813 201.012L189.813 201.012C189.853 201.763 189.841 202.343 189.778 202.788C189.715 203.235 189.604 203.509 189.476 203.68C189.255 203.977 188.845 204.127 187.857 204.025L187.857 204.025C186.58 203.894 185.498 203.115 184.505 201.928L184.505 201.928C181.533 198.372 178.039 196.608 173.825 196.431L173.804 196.93L173.825 196.431C172.115 196.359 170.718 195.418 169.48 193.908Z" stroke="black" stroke-opacity="0.41"/>
    <path d="M241.2 159.186C239.92 163.021 238.146 164.153 236.821 166.115C234.678 169.289 233.381 172.46 233.53 176.684C233.666 180.521 233.585 184.501 233.369 188.488C233.09 193.634 231.841 198.589 229.414 203.175C225.929 209.762 222.509 216.432 219.027 223.023C216.833 227.174 215.762 227.608 213.659 225.077C212.631 223.839 211.761 222.279 210.891 220.755C210.395 219.886 209.818 219.047 209.828 217.156C212.739 214.384 214.328 210.195 215.877 205.228C218.006 198.4 220.854 191.814 224.817 186.539C228.37 181.811 231.137 175.876 233.106 169.542C234.887 163.812 237.397 161.098 241.2 159.186Z" fill="#E8E4DE"/>
    <path d="M228.972 202.941L229.414 203.175L228.972 202.941C227.228 206.236 225.502 209.552 223.776 212.866L223.653 213.102C221.968 216.339 220.284 219.573 218.585 222.789L219.027 223.023L218.585 222.789C218.04 223.82 217.577 224.597 217.159 225.149C216.736 225.71 216.4 225.984 216.129 226.089C215.897 226.179 215.656 226.166 215.328 225.975C214.976 225.77 214.56 225.379 214.044 224.757C213.104 223.626 212.297 222.211 211.47 220.761C211.422 220.676 211.374 220.592 211.325 220.507C211.285 220.437 211.245 220.368 211.206 220.3C210.993 219.932 210.797 219.593 210.639 219.166C210.471 218.711 210.345 218.148 210.33 217.366C213.246 214.495 214.835 210.248 216.354 205.377L215.877 205.228L216.354 205.377C218.475 198.577 221.301 192.051 225.217 186.84C228.813 182.053 231.602 176.063 233.583 169.691C234.461 166.867 235.508 164.818 236.783 163.247C237.776 162.023 238.919 161.075 240.255 160.274C239.484 162.079 238.608 163.111 237.744 164.129C237.289 164.665 236.838 165.197 236.407 165.836L236.821 166.115L236.407 165.836C234.222 169.07 232.876 172.344 233.03 176.702C233.166 180.52 233.085 184.485 232.869 188.461C232.594 193.543 231.361 198.426 228.972 202.941Z" stroke="black" stroke-opacity="0.41"/>
    <path d="M16.7692 8.15327C17.4142 5.49767 18.5873 3.67801 20.1877 2.58662C23.1723 0.551274 26.1187 -0.686351 29.0941 -0.904045C31.0069 -1.04403 32.1563 0.0155346 32.6739 2.64826C32.9462 4.03325 33.1469 5.48778 33.4798 6.81154C34.222 9.76329 35.5318 11.6625 37.6871 11.967C38.5052 12.0825 39.3462 12.2202 40.0599 12.667C41.7441 13.7212 41.5909 16.3846 39.7519 18.6913C38.7449 19.9545 37.645 20.786 36.5205 21.5471C32.137 24.5142 27.8152 25.9813 23.5561 26.0142C17.7541 26.059 14.5118 17.4768 16.7692 8.15327Z" fill="#E8E4DE"/>
    <path d="M29.1306 -0.405377L29.0941 -0.904045L29.1306 -0.405378C29.9793 -0.46749 30.5922 -0.264086 31.0581 0.19031C31.5445 0.664609 31.9331 1.47204 32.1833 2.74472C32.2745 3.20832 32.3594 3.69184 32.4453 4.18131C32.6082 5.10905 32.7748 6.05815 32.9949 6.93348C33.7482 9.92935 35.1403 12.1122 37.6171 12.4621L37.6172 12.4621C38.444 12.5788 39.1828 12.7078 39.7945 13.0908L39.7946 13.0909C40.4457 13.4984 40.7784 14.2303 40.7278 15.1829C40.6768 16.1432 40.2304 17.2889 39.3609 18.3796L39.3609 18.3796C38.4004 19.5845 37.3489 20.3826 36.2402 21.133L36.2402 21.133C31.9207 24.0569 27.6934 25.4823 23.5522 25.5143C20.9465 25.5344 18.8235 23.6246 17.6079 20.4196C16.3962 17.2247 16.1457 12.8533 17.255 8.27129C17.8797 5.69967 18.9983 4.0029 20.4694 2.99971C23.4083 0.995572 26.2708 -0.196137 29.1306 -0.405377Z" stroke="black" stroke-opacity="0.41"/>
    <path d="M178.212 25.5235C182.169 27.5586 186.828 29.9882 191.511 32.3453C193.218 33.204 194.997 33.8399 196.71 34.6812C197.344 34.9929 197.981 35.4304 198.441 36.1128C199.308 37.4027 200.202 38.9649 199.624 41.426C198.926 44.3959 197.362 44.1372 196.028 44.4538C193.287 45.1041 190.947 43.4416 188.148 44.3773C187.039 44.7485 185.948 44.6453 184.839 45.0388C182.953 45.7081 181.504 45.0531 180.473 43.1399C178.603 39.6697 176.29 37.2966 173.169 36.67C172.386 36.5126 171.779 35.6406 171.021 35.3284C169.722 34.7933 168.648 34.0484 169.215 31.1126C169.786 28.1586 170.951 26.2044 172.82 25.2712C174.528 24.4185 175.979 24.8723 178.212 25.5235Z" fill="#E8E4DE"/>
    <path d="M191.287 32.7919L191.287 32.7919C187.888 31.0814 184.501 29.332 181.388 27.7242C180.224 27.1233 179.099 26.5421 178.026 25.9901C175.779 25.3348 174.536 24.9733 173.044 25.7186L173.044 25.7186C171.373 26.5525 170.263 28.3257 169.706 31.2075C169.433 32.6219 169.578 33.3999 169.85 33.8697C170.123 34.3387 170.58 34.6062 171.211 34.8661L191.287 32.7919ZM191.287 32.7919C192.156 33.2294 193.041 33.6089 193.912 33.9798C193.947 33.9944 193.981 34.0089 194.015 34.0235C194.855 34.3811 195.68 34.7326 196.489 35.1299M191.287 32.7919L196.489 35.1299M196.489 35.1299C197.078 35.4195 197.633 35.8078 198.026 36.3919C198.867 37.6429 199.667 39.0553 199.137 41.3117C198.809 42.7078 198.307 43.2373 197.828 43.4943C197.571 43.6324 197.286 43.7109 196.96 43.7739C196.855 43.7942 196.733 43.8145 196.606 43.8359C196.378 43.8741 196.129 43.9158 195.912 43.9673L195.912 43.9673C194.725 44.2491 193.617 44.0595 192.394 43.8499C192.328 43.8385 192.261 43.827 192.194 43.8156C190.915 43.598 189.519 43.3919 187.99 43.9031L187.99 43.9031C187.495 44.0686 187 44.1314 186.448 44.2014L186.43 44.2037C185.885 44.2729 185.284 44.3504 184.672 44.5675L184.672 44.5675C183.818 44.8706 183.12 44.8563 182.536 44.6C181.944 44.3401 181.396 43.7985 180.913 42.9027L180.473 43.1399L180.913 42.9027C179.014 39.378 176.603 36.8493 173.268 36.1798C173.011 36.1283 172.751 35.9509 172.399 35.6675C172.362 35.638 172.324 35.6072 172.285 35.5753C171.988 35.3337 171.62 35.0346 171.211 34.8661L196.489 35.1299Z" stroke="black" stroke-opacity="0.41"/>
    <path d="M228.779 235.469C230.075 235.778 231.361 236.255 231.259 238.896C231.155 241.595 230.385 244.154 228.76 246.042C227.255 247.791 225.872 248.144 224.684 246.671C223.485 245.184 222.425 243.458 221.796 241.185C221.18 238.957 222 236.78 223.703 236.088C225.436 235.385 227.162 235.067 228.779 235.469Z" fill="#E8E4DE"/>
    <path d="M228.663 235.956L228.659 235.954C227.184 235.588 225.573 235.869 223.891 236.552L223.703 236.088L223.891 236.552C222.5 237.116 221.704 238.978 222.278 241.052C222.884 243.242 223.905 244.908 225.073 246.357L225.073 246.357C225.59 246.998 226.064 247.154 226.514 247.073C227.024 246.981 227.651 246.564 228.381 245.716L228.663 235.956ZM228.663 235.956C229.309 236.11 229.823 236.282 230.184 236.655M228.663 235.956L230.184 236.655M230.184 236.655C230.526 237.01 230.807 237.635 230.759 238.876M230.184 236.655L230.759 238.876M230.759 238.876C230.658 241.501 229.911 243.938 228.381 245.716L230.759 238.876Z" stroke="black" stroke-opacity="0.41"/>
    <path d="M136.735 187.047C131.511 192.339 129.939 192.3 127.435 187.239C131.003 184.915 132.26 184.863 136.735 187.047Z" fill="#E8E4DE"/>
    <path d="M131.756 185.953C132.824 185.928 134.013 186.313 135.883 187.193C134.806 188.26 133.909 189.062 133.139 189.615C132.246 190.257 131.584 190.518 131.058 190.526C130.565 190.532 130.098 190.316 129.578 189.75C129.105 189.235 128.623 188.467 128.084 187.416C129.647 186.426 130.674 185.978 131.756 185.953Z" stroke="black" stroke-opacity="0.41"/>
    </g>
    </g>
    <defs>
    <clipPath id="clip0_46_2209">
    <rect width="358" height="629" fill="white"/>
    </clipPath>
    <clipPath id="clip1_46_2209">
    <rect width="796.339" height="1288.33" fill="white" transform="translate(472.219 1021.5) rotate(-165.862)"/>
    </clipPath>
    </defs>
</svg>