<svg preserveAspectRatio="none" width="358" height="629" viewBox="0 0 358 629" fill="none" xmlns="http://www.w3.org/2000/svg">
    <g clip-path="url(#clip0_46_823)">
    <rect width="358" height="629" fill="#171616"/>
    <path d="M211 27.4072L211 -4L1 -4L1 203L31.9272 203C72.8364 203 106 169.808 106 128.864L106 203L136.927 203C177.836 203 211 169.808 211 128.864L211 97.4565L161.24 97.4565C190.206 87.3867 211 59.8278 211 27.4072ZM56.2396 97.4565C85.2066 87.3867 106 59.8278 106 27.4072L106 97.4565L56.2396 97.4565Z" fill="#E2B63F"/>
    <g clip-path="url(#clip1_46_823)">
    <mask id="path-5-inside-1_46_823" fill="white">
    <path d="M283.25 635.594C283.214 633.118 283.078 630.36 283.155 627.605C283.256 623.992 282.395 620.473 281.813 616.945C281.341 614.078 281.306 611.232 281.194 608.369C281.14 606.982 281.836 605.777 282.672 604.685C285.033 601.604 285.825 598.394 284.316 594.846C283.144 592.091 283.313 589.183 283.378 586.319C283.449 583.157 282.672 580.17 281.476 577.225C280.974 575.991 280.412 574.743 280.196 573.461C279.667 570.312 280.388 567.511 283.769 565.636C285.053 564.924 286.314 564.176 287.549 563.4C288.868 562.57 289.589 561.355 289.288 560.018C288.943 558.489 287.592 557.527 285.796 557.346C284.298 557.194 282.705 557.084 281.253 557.358C278.081 557.958 275.749 556.89 274.051 554.818C272.605 553.053 270.731 552.002 268.473 551.31C266.117 550.589 263.92 549.611 261.884 548.356C257.817 545.85 253.51 545.632 248.914 547.258C242.706 549.456 239.885 548.709 235.971 543.936C235.015 542.771 234.098 541.56 233.376 540.279C231.905 537.671 229.616 535.987 226.522 534.874C219.494 532.347 212.345 530.178 204.825 529.045C202.577 528.706 200.562 528 198.788 526.821C196.304 525.171 195.551 523.251 196.896 520.879C200.268 514.933 200.22 508.957 197.622 502.902C196.441 500.15 196.2 497.303 196.337 494.423C196.456 491.905 195.667 489.733 193.744 487.838C191.258 485.387 189.59 482.48 188.014 479.565C186.354 476.496 185.654 473.321 186.618 469.834C187.387 467.055 186.739 464.349 183.809 462.455C180.533 460.339 178.99 456.961 176.109 454.528C172.558 451.529 169.219 448.342 165.803 445.223C163.275 442.915 160.262 441.329 156.703 440.494C154.152 439.895 151.708 439.048 149.622 437.618C146.455 435.446 144.249 432.828 144.591 429.067C144.699 427.876 144.499 426.662 144.646 425.476C145.003 422.592 144.337 420.046 142.048 417.827C139.545 415.402 140.271 412.406 140.605 409.593C140.759 408.3 141.025 407.002 141.133 405.69C141.3 403.651 140.699 401.899 138.833 400.566C136.189 398.678 135.303 396.047 134.98 393.277C134.581 389.849 133.294 386.776 130.8 384.103C127.317 380.368 124.448 376.3 122.001 372.003C120.817 369.924 119.305 368.207 116.825 367.072C114.114 365.831 114.141 364.246 116.759 362.841C117.922 362.218 119.256 361.81 120.556 361.41C122.259 360.887 123.908 360.307 125.377 359.368C128.076 357.645 129.1 355.631 128.124 352.848C126.731 348.875 126.961 344.815 126.84 340.759C126.799 339.357 127.576 338.237 128.19 337.036C129.966 333.566 129.24 331.614 125.416 330.015C123.165 329.075 121.017 328.066 119.125 326.622C118.324 326.011 117.261 325.461 116.229 325.302C110.092 324.354 103.986 323.515 98.1545 326.654C94.4775 328.634 92.3246 328.358 89.1694 325.896C87.4025 324.518 85.4338 323.473 83.3625 322.494C80.3102 321.051 79.9499 320.027 80.2457 316.951C80.5864 313.409 78.9769 310.2 77.4241 307.038C76.0233 304.186 74.3823 301.423 72.9586 298.579C70.9741 294.614 70.1995 290.374 69.4724 286.134C69.2237 284.683 68.6521 283.339 67.6481 282.186C65.5771 279.807 63.4695 277.448 61.2827 275.149C59.1049 272.858 56.1992 272.22 53.0584 273.238C50.529 274.057 48.2847 273.944 45.849 273.056C42.4136 271.804 40.4838 272.24 38.3339 274.904C35.8865 277.936 33.4159 281.013 33.2461 284.948C33.2003 286.009 32.9077 287.074 32.6213 288.115C31.9575 290.529 30.9919 290.882 28.7903 289.41C27.7519 288.715 26.8025 288.036 25.4736 288.621C24.3029 289.136 24.206 290.198 24.2962 291.142C24.6857 295.218 23.6363 299.246 23.792 303.315C23.9896 308.48 22.2667 313.481 21.8599 318.608C20.7902 332.092 19.4774 345.565 24.2036 358.774C24.7706 360.359 25.1242 362.024 25.3413 363.676C25.8363 367.442 27.5292 370.797 29.7315 373.996C31.3911 376.406 33.6093 378.289 36.5483 379.574C39.0089 380.65 41.3901 381.87 43.7501 383.106C47.2207 384.925 50.9001 386.223 54.9612 386.585C56.7768 386.747 58.5238 387.049 60.0298 387.96C63.5728 390.103 63.161 394.268 59.2025 395.765C57.8272 396.285 56.2822 396.48 54.8025 396.776C48.0997 398.12 41.5905 404.702 41.2128 410.685C41.0469 413.314 40.9221 415.971 41.1748 418.586C41.7672 424.718 45.3708 429.596 50.2889 433.803C51.4563 434.802 52.9665 435.478 54.6536 435.764C59.3997 436.566 61.0945 439.599 61.57 443.266C61.8456 445.391 62.0161 447.669 61.4236 449.705C60.4692 452.983 61.4623 455.885 62.8087 458.738C65.1582 463.718 65.8112 469.137 68.3334 474.081C69.3639 476.1 68.0448 478.053 66.5842 479.735C63.9879 482.725 61.8204 485.897 60.5747 489.511C59.0084 494.055 59.767 496.493 64.435 498.937C68.5465 501.09 70.2891 503.964 69.1079 507.932C68.0357 511.535 69.1965 514.767 70.6688 517.985C73.2021 523.523 74.2129 529.265 73.5843 535.181C73.2697 538.141 72.5645 541.08 71.871 544C71.6448 544.952 71.5141 545.877 71.5069 546.834C71.4803 550.433 71.1498 553.957 69.5361 557.378C68.3718 559.846 68.7422 562.325 70.8762 564.432C71.1484 564.701 71.3768 565.003 71.6388 565.28C76.0775 569.972 75.2861 571.735 72.1697 575.394C71.0994 576.651 70.3293 578.062 70.1125 579.658C69.695 582.731 69.1769 585.796 68.8278 588.874C68.4868 591.88 69.8797 594.461 71.6762 596.933C74.0308 600.173 76.2019 603.448 76.4557 607.461C76.6216 610.085 76.2012 612.48 74.3509 614.583C70.8779 618.531 69.4341 623.125 68.6476 627.897C68.1764 630.756 68.3587 633.617 69.4941 636.393C71.4855 641.26 70.5435 645.449 65.9796 649.11C62.2335 652.114 61.8777 654.117 64.9346 657.565C68.0386 661.066 67.5673 664.369 65.6748 667.947C65.5019 668.273 65.3071 668.594 65.0897 668.901C60.3736 675.542 61.8576 682.141 65.1042 688.757C65.8029 690.181 66.9846 691.078 68.5153 691.712C69.3837 692.072 70.2855 692.373 71.1788 692.687C74.6475 693.906 76.7758 695.925 77.2206 699.321C77.4044 700.725 77.7152 702.138 77.8601 703.562C78.2746 707.638 80.5353 710.505 85.1295 711.827C85.9153 712.053 86.6932 712.326 87.5013 712.464C92.8138 713.366 97.8927 714.901 102.862 716.702C106.319 717.955 109.844 718.837 113.605 719.133C119.516 719.6 125.367 720.438 131.243 718.572C134.792 717.445 138.126 718.284 139.381 722.72C141.557 730.411 146.397 736.921 150.235 743.875C151.698 746.529 152.572 749.231 152.503 752.13C152.43 755.197 153.117 758.049 154.781 760.76C156.209 763.088 157.03 765.627 157.864 768.152C158.879 771.221 160.446 773.925 163.871 775.548C166.211 776.657 167.556 778.504 167.79 780.739C168.093 783.617 168.96 786.371 169.603 789.178C169.974 790.794 170.105 792.591 169.676 794.174C169.072 796.403 169.476 798.561 170.254 800.476C171.755 804.171 172.79 808.055 175.188 811.448C176.387 813.145 176.811 814.869 176.204 816.868C174.851 821.329 175.38 825.906 175.379 830.434C175.379 833.848 177.239 836.758 180.227 838.835C184.212 841.605 186.589 845.016 187.3 849.358C187.556 850.924 188.427 852.301 189.227 853.676C191.036 856.781 191.176 859.811 189.177 862.921C188.308 864.274 187.686 865.747 186.982 867.176C185.378 870.431 183.838 871.061 180.285 869.264C175.612 866.9 170.798 867.138 165.837 868.089C161.883 868.847 159.248 871.01 157.539 874.092C155.987 876.892 154.657 879.773 152.923 882.511C151.105 885.381 151.765 887.978 154.407 890.31C154.988 890.822 155.569 891.337 156.192 891.809C158.871 893.841 160.219 896.367 159.693 899.457C159.132 902.761 159.293 906.121 158.435 909.404C157.443 913.202 154.209 915.796 151.809 918.83C151.011 919.839 149.666 919.703 148.409 919.188C142.685 916.843 136.913 917.215 131.053 918.934C128.676 919.632 126.157 919.578 123.643 919.36C119.437 918.996 115.35 919.331 111.654 921.387C107.045 923.951 101.811 924.395 96.5509 924.687C94.478 924.802 92.3879 924.864 90.3168 924.774C84.3792 924.516 78.7539 925.438 73.4753 927.872C72.3637 928.384 71.1691 928.675 69.907 928.774C65.5312 929.118 61.6845 930.731 57.9081 932.54C54.5154 934.165 51.1192 935.792 47.6495 937.287C44.6626 938.574 41.565 939.627 38.0921 938.999C36.4861 938.709 35.2853 939.238 35.0088 940.664C34.5941 942.803 34.3313 945.009 36.0677 946.853C37.7998 948.692 39.0514 950.882 41.4437 952.257C42.0885 952.627 42.5824 953.31 42.9177 953.941C43.5684 955.166 43.318 956.348 41.9377 957.085C40.7479 957.72 39.4583 957.517 38.5441 956.636C36.4282 954.596 34.2117 952.598 32.4195 950.354C31.1195 948.726 29.7435 947.28 27.6824 946.506C24.8708 945.451 23.4028 943.531 22.7147 941.12C21.878 938.187 20.9112 935.402 18.073 933.332C17.0568 932.591 16.6971 931.321 16.4522 930.105C16.1406 928.559 15.6888 926.971 13.445 926.701C11.2216 926.433 9.92192 927.39 8.86224 929.075C6.80969 932.338 5.59079 932.52 2.03239 930.458C0.0776004 929.325 -1.70581 928.057 -3.12867 926.372C-4.5684 924.668 -5.35705 922.937 -5.3354 920.769C-5.28959 916.19 -5.82394 915.714 -11.1968 914.525C-16.0421 913.453 -19.7021 911.266 -21.3893 906.974C-21.8523 905.796 -22.045 904.673 -21.8696 903.467C-21.4324 900.462 -24.1573 896.168 -27.1637 894.93C-28.9284 894.203 -30.4706 894.721 -31.8289 895.533C-34.8862 897.359 -37.6303 899.567 -41.0814 900.915C-41.8959 901.233 -42.5002 902.054 -43.072 902.726C-45.2407 905.275 -44.918 906.124 -41.2906 906.593C-38.6651 906.933 -36.962 908.019 -36.0777 910.115C-35.2741 912.02 -34.3687 913.91 -33.8147 915.872C-33.3588 917.487 -33.0032 919.454 -34.6249 920.635C-36.63 922.096 -38.6892 923.43 -40.2141 925.326C-40.8092 926.066 -41.7893 926.042 -42.8238 925.595C-45.9873 924.231 -48.1291 920.919 -47.3545 917.853C-46.9309 916.177 -46.7717 914.557 -46.9932 912.881C-47.3747 909.996 -48.2416 907.748 -52.4303 907.389C-55.3539 907.138 -56.8425 904.732 -58.2913 902.685C-58.8629 901.878 -59.1743 900.918 -59.8215 900.169C-60.882 898.94 -62.2695 898.277 -64.1463 898.925C-65.1705 899.278 -66.2904 899.44 -67.2807 899.847C-69.8777 900.914 -72.2338 900.335 -74.2154 898.905C-76.436 897.302 -78.6025 895.646 -80.8847 894.101C-82.457 893.036 -83.2304 891.419 -83.7188 889.807C-85.5548 883.747 -90.4849 880.906 -97.2692 880.506C-102.022 880.225 -106.447 878.906 -111.055 878.22C-113.429 877.866 -115.119 876.729 -116.287 875.025C-117.719 872.935 -119.401 871.146 -121.865 869.853C-125.213 868.097 -125.576 865.282 -124.777 862.27C-124.47 861.116 -123.876 860.012 -123.344 858.91C-122.153 856.441 -121.504 853.909 -121.732 851.217C-122.17 846.045 -120.463 841.024 -120.131 835.899C-119.985 833.636 -118.412 831.807 -116.277 830.579C-112.143 828.202 -111.355 824.971 -112.754 821.178C-113.49 819.181 -112.707 817.374 -112.163 815.558C-111.071 811.909 -111.221 808.55 -113.758 805.292C-115.831 802.629 -116.418 799.392 -115.759 796.34C-115.114 793.347 -115.752 790.651 -116.688 787.937C-117.662 785.113 -117.805 782.394 -116.873 779.519C-115.943 776.649 -115.56 773.672 -115.641 770.672C-115.703 768.399 -115.598 766.161 -115.007 763.898C-114.46 761.804 -114.402 759.541 -115.148 757.479C-116.002 755.116 -115.908 752.767 -115.829 750.374C-115.766 748.466 -115.52 746.525 -116.65 744.749C-119.142 740.83 -119.761 736.719 -118.694 732.308C-117.962 729.281 -117.646 726.181 -117.139 723.114C-117.061 722.64 -117.07 722.126 -116.847 721.706C-116.396 720.858 -116.089 719.71 -114.838 719.601C-113.185 719.456 -112.815 720.828 -112.575 721.775C-111.479 726.099 -110.01 730.286 -107.72 734.262C-106.834 735.799 -107.224 737.496 -107.499 739.186C-108.345 744.384 -109.219 749.587 -107.793 754.837C-107.278 756.732 -106.472 758.476 -105.332 760.107C-103.459 762.786 -101.948 765.545 -101.483 768.717C-100.81 773.312 -97.1422 776.036 -92.9546 778.295C-90.737 779.492 -88.3742 780.511 -85.9962 781.46C-78.3645 784.505 -69.5965 782.777 -64.9838 776.729C-60.1903 770.444 -56.0814 763.778 -55.9083 755.911C-55.8489 753.212 -54.5477 750.807 -53.0919 748.477C-52.3683 747.318 -51.5175 746.218 -50.8263 745.046C-48.5201 741.136 -48.7125 738.625 -52.5922 735.812C-55.7294 733.537 -54.879 730.183 -52.3856 728.416C-49.1745 726.141 -45.8922 723.94 -42.6879 721.658C-41.7501 720.99 -40.7283 720.822 -39.6007 720.821C-38.3426 720.821 -37.1815 721.094 -35.9837 721.462C-30.1514 723.251 -30.1569 723.212 -31.2814 728.613C-31.9286 731.721 -30.7069 734.257 -27.9466 736.253C-26.2538 737.478 -24.5279 738.668 -22.8188 739.876C-21.0656 741.115 -19.9524 742.935 -20.7109 744.628C-23.3743 750.577 -21.1282 756.135 -19.6514 761.81C-19.1086 763.895 -18.8791 766.047 -18.5978 768.178C-18.3586 769.991 -18.3945 771.908 -19.6952 773.376C-23.5733 777.754 -23.2134 782.815 -22.0362 787.515C-20.431 793.925 -20.3744 800.326 -20.2958 806.773C-20.2168 813.25 -18.6874 819.554 -17.5516 825.906C-17.3639 826.957 -17.1092 828.079 -16.5076 828.978C-13.2715 833.813 -12.2209 839.206 -10.6604 844.528C-8.77263 850.966 -6.50122 857.347 -2.73951 863.262C-0.426742 866.899 1.17644 870.872 3.17328 874.664C5.76955 879.594 10.3749 882.768 15.8779 884.993C22.5876 887.705 28.5725 885.048 29.8379 878.743C30.8525 873.688 31.548 868.571 31.257 863.429C31.0353 859.51 31.6252 855.884 34.0943 852.431C36.7395 848.731 36.7285 844.657 34.7981 840.722C33.7398 838.565 33.2632 836.409 33.3459 834.106C33.4646 830.803 32.6865 827.711 30.4885 824.951C29.2636 823.412 28.8984 821.676 28.9726 819.83C29.1984 814.205 27.2269 809.287 22.8823 805.053C20.9231 803.143 19.816 800.794 19.7199 798.207C19.5848 794.571 18.0465 791.447 15.2703 788.808C13.2254 786.864 12.5674 784.792 13.5884 782.273C14.7413 779.428 15.0648 776.47 15.2302 773.466C15.3683 770.958 16.2163 768.577 17.8488 766.387C19.9058 763.627 21.0907 760.72 20.2809 757.244C19.6953 754.73 21.2219 752.368 22.641 750.168C25.1645 746.256 26.0489 742.088 25.2867 737.696C24.8784 735.343 24.1427 733.056 23.1281 730.819C20.7248 725.518 22.8575 718.943 27.9958 715.333C32.694 712.033 34.3489 707.858 31.5862 702.953C28.4889 697.455 27.4914 691.328 24.1097 685.967C23.0334 684.261 22.7833 682.378 22.7085 680.427C22.5855 677.216 22.062 673.903 22.2595 670.813C22.5916 665.623 21.3842 660.614 21.3509 655.51C21.3348 653.058 21.814 652.189 24.9287 651.367C29.6388 650.124 32.0814 647.512 32.5088 643.348C32.5567 642.88 32.9497 642.416 32.9121 641.968C32.7666 640.234 33.4229 638.631 34.0845 637.079C35.6218 633.474 35.663 629.858 34.7887 626.163C34.2186 623.753 34.5835 621.646 37.4858 620.381C41.6416 618.569 42.442 615.46 41.6868 611.856C40.0614 604.1 37.8337 596.49 34.0715 589.28C32.0541 585.414 30.7309 581.455 31.3608 577.137C31.4811 576.312 31.3316 575.461 31.3506 574.622C31.4245 571.365 29.6584 569.254 26.2165 567.97C21.5572 566.234 20.9269 565.342 22.3773 561.057C23.9616 556.376 23.1688 551.815 22.2222 547.248C21.6179 544.333 21.1034 541.512 21.3542 538.481C21.7279 533.964 21.5281 529.398 20.4201 524.918C19.175 519.883 18.7331 514.777 18.7193 509.628C18.7107 506.394 18.51 503.161 18.4154 499.928C18.3594 498.016 18.4676 496.152 19.0017 494.242C20.1122 490.268 19.8708 486.278 19.3381 482.179C18.6152 476.616 18.1525 471.027 17.2027 465.478C16.9027 463.725 16.8787 461.846 17.2694 460.113C17.7821 457.84 17.7453 455.594 17.6963 453.329C17.6656 451.905 17.6167 450.504 17.2301 449.069C16.7009 447.105 16.7247 445.021 17.151 443.001C17.7922 439.963 17.9982 436.983 17.7274 433.845C17.1522 427.183 17.0838 420.484 17.8598 413.786C18.301 409.979 18.0638 406.093 16.919 402.393C15.727 398.542 16.4173 394.756 17.1519 391.044C17.9533 386.994 17.3156 383.198 15.9416 379.441C13.6445 373.158 13.5117 366.767 14.431 360.312C14.773 357.91 14.8921 355.468 14.466 353.151C13.528 348.05 14.2823 343.215 16.4817 338.482C17.8975 335.435 17.2951 332.357 16.49 329.379C15.2995 324.974 13.6193 320.682 11.5307 316.524C10.9774 315.423 10.3745 314.363 9.26109 313.576C6.93783 311.932 4.43019 312.056 2.17504 313.824C-0.0814398 315.592 -0.584475 318.006 -0.79443 320.336C-1.13741 324.139 -1.88346 327.931 -1.56941 331.775C-1.28184 335.296 -2.53115 338.646 -3.55897 341.98C-4.26312 344.265 -5.77552 344.61 -8.36014 343.791C-10.8342 343.007 -12.167 341.332 -12.8472 339.376C-14.5272 334.544 -15.2502 329.561 -14.5439 324.522C-13.7386 318.776 -14.0003 313.088 -14.8521 307.373C-15.3272 304.187 -15.7746 300.994 -16.0878 297.781C-16.9794 288.639 -16.6823 279.399 -18.8948 270.362C-19.3575 268.472 -19.2115 266.526 -18.9522 264.628C-18.1365 258.661 -18.239 252.728 -19.1981 246.784C-19.4633 245.14 -19.551 243.379 -19.1551 241.773C-18.6543 239.743 -18.6508 237.722 -18.6467 235.709C-18.6364 230.688 -18.3425 225.695 -17.3888 220.735C-17.3663 220.618 -17.3679 220.495 -17.3767 220.376C-17.9767 212.235 -15.9652 204.146 -16.65 195.993C-16.8711 193.36 -17.3194 190.772 -17.859 188.198C-19.0529 182.501 -19.0684 176.83 -18.1851 171.083C-17.623 167.425 -17.5361 163.703 -17.4609 160.007C-17.4045 157.24 -16.8473 154.535 -16.4608 151.813C-15.5506 145.401 -14.8873 138.982 -15.1788 132.525C-15.3349 129.071 -16.2506 125.681 -16.2077 122.184C-16.181 120.015 -15.338 117.947 -15.5714 115.772C-16.2197 109.73 -16.4148 103.646 -18.0356 97.7017C-18.9247 94.4408 -19.3985 91.1329 -19.3481 87.7543C-19.1265 72.8915 -19.9448 58.0377 -19.8544 43.1829C-19.8118 36.1737 -19.9845 29.0832 -18.5559 22.1083C-17.5287 17.0937 -15.7117 15.6278 -9.98796 15.7204C-5.51355 15.7927 -1.50551 15.0862 2.02 12.5664C3.30762 11.6462 4.91934 11.2643 6.61509 11.0367C11.4105 10.3932 14.2075 7.84679 15.2199 3.80487C15.7735 1.59412 16.2178 -0.636744 16.7101 -2.85874C16.8781 -3.61693 17.2424 -4.27768 18.2597 -4.25097C19.2351 -4.2254 19.7029 -3.53622 19.8793 -2.83557C20.0827 -2.02742 20.0307 -1.17266 20.1325 -0.34221C21.0522 7.1638 20.9561 14.7058 21.0701 22.2391C21.1045 24.516 21.6737 26.7002 23.9034 27.9345C29.0902 30.806 29.8245 35.4028 30.678 40.0214C31.7072 45.5912 31.3714 51.2326 31.7901 56.8344C31.8874 58.1361 31.7965 59.4166 32.3575 60.7134C33.7245 63.8731 35.9897 65.246 39.9246 65.0028C43.5893 64.7763 45.5436 63.1863 46.1225 59.7912C46.9455 54.964 46.9962 50.0657 48.1455 45.2545C48.5494 43.5634 48.4658 41.6765 47.825 39.9154C47.6224 39.3583 47.559 38.7513 47.5217 38.1626C47.4588 37.1682 47.6586 36.153 48.7157 35.6324C49.8339 35.0817 50.8666 35.6056 51.7228 36.2776C53.3589 37.5617 55.1281 38.7535 56.5516 40.198C59.3926 43.081 60.6211 46.6635 61.5722 50.2702C61.9639 51.7555 61.7572 53.3096 60.6102 54.7323C59.6674 55.9015 58.9958 57.349 59.1703 58.7923C59.5392 61.842 59.0562 64.7093 57.6358 67.5284C56.4584 69.8651 57.4488 71.9334 59.1432 73.8022C59.4822 74.1761 59.9171 74.4844 60.3036 74.8266C64.4574 78.5038 64.5967 79.2721 61.3028 83.4045C58.417 87.0247 57.3875 90.06 62.1564 94.6622C64.9198 97.3292 67.8585 99.8353 69.9261 102.989C70.9168 104.499 72.6153 105.448 74.3978 106.068C80.334 108.135 82.3679 112.643 83.0875 117.407C83.7774 121.976 85.6633 125.221 90.5028 127.365C92.9017 128.427 94.903 130.235 96.8971 131.876C98.6468 133.315 98.5502 134.152 96.4346 135.176C93.1266 136.775 90.852 139.028 89.4747 142.049C88.8416 143.438 87.5367 144.346 86.1266 145.155C79.6183 148.892 77.9832 154.267 79.4001 160.532C79.8854 162.678 79.7114 164.823 79.9183 166.964C80.3807 171.747 82.301 175.715 87.1236 178.419C89.5133 179.758 91.1396 181.661 91.8321 184.102C92.7138 187.209 94.5153 189.795 97.3403 191.905C98.5746 192.827 99.6122 193.997 100.523 195.18C101.942 197.021 103.729 198.433 105.981 199.459C108.394 200.558 109.434 202.266 109.519 204.691C109.659 208.691 108.924 212.518 107.575 216.327C106.67 218.884 105.156 220.872 102.283 221.986C98.8378 223.322 96.9869 225.577 96.4128 228.846C95.9372 231.553 94.8732 234.208 95.2071 236.98C95.8355 242.196 94.2431 247.086 91.3249 251.442C87.2549 257.517 87.6893 263.066 91.487 269.009C93.7992 272.628 95.0753 276.717 97.7635 280.237C98.623 281.362 98.7907 282.94 99.043 284.343C99.3309 285.943 100.171 287.286 101.199 288.558C103.361 291.23 106.275 292.076 109.902 291.193C112.076 290.664 114.073 289.818 115.681 288.456C118.384 286.167 121.698 284.616 124.69 282.679C126.715 281.368 127.412 281.671 129.156 283.36C131.306 285.443 130.886 288.096 131.4 290.488C131.869 292.668 131.832 294.97 131.161 297.253C130.198 300.527 130.57 303.787 131.628 307.075C133.179 311.892 134.168 316.826 137.713 321.019C139.975 323.696 142.847 324.468 146.389 323.952C147.466 323.795 148.514 323.409 149.533 323.042C150.936 322.536 152.278 321.903 153.685 321.405C155.88 320.629 157.046 320.939 158.07 322.792C158.775 324.067 159.254 325.465 159.604 326.853C160.064 328.672 160.908 330.316 162.553 331.462C166.033 333.888 167.364 337.253 168.015 340.822C168.576 343.897 170.12 346.317 172.388 348.718C175.911 352.446 177.139 356.946 176.226 361.78C175.782 364.133 175.022 366.415 175.058 368.861C175.111 372.465 176.69 375.167 180.467 376.649C184.039 378.051 189.034 377.003 191.915 374.355C193.044 373.317 193.79 371.972 194.887 370.902C195.93 369.884 196.663 368.141 198.703 368.604C200.444 368.998 201.245 370.462 201.642 371.854C202.775 375.821 203.255 379.841 202.119 383.897C201.027 387.798 198.438 389.199 193.901 388.339C192.552 388.083 191.218 387.758 189.858 387.558C185.33 386.893 182.471 388.63 181.247 392.438C180.229 395.606 180.356 398.806 182.146 401.491C185.535 406.578 184.205 411.783 183.935 417.125C183.602 423.745 183.542 430.402 187.46 436.596C190.899 442.033 203.082 445.747 210.194 443.463C212.556 442.705 214.282 441.454 215.488 439.644C217.005 437.366 218.551 435.1 219.613 432.609C220.575 430.356 221.949 428.271 223.698 426.386C226.253 423.631 228.558 423.135 231.951 424.92C235.835 426.964 239.658 429.108 243.374 431.372C246.225 433.11 245.94 434.334 242.605 435.566C240.578 436.314 238.44 436.86 236.473 437.707C230.442 440.304 228.612 444.033 230.575 449.489C231.066 450.855 231.603 452.213 232.235 453.533C233.773 456.75 234.007 459.914 232.23 463.166C230.927 465.552 231.242 468.132 231.859 470.577C232.631 473.635 235.914 475.705 239.774 475.935C242.599 476.104 245.257 475.545 247.856 474.592C250.277 473.705 252.762 472.958 255.429 472.836C260.184 472.617 261.993 473.629 263.429 477.502C264.101 479.316 264.62 481.175 265.148 483.027C266.31 487.11 269.063 490.087 273.43 491.893C276.338 493.095 278.909 494.678 281.124 496.678C283.039 498.406 285.509 499.121 288.076 499.634C290.117 500.041 292.109 500.546 293.862 501.524C297.052 503.304 298.008 505.854 295.994 508.622C292.882 512.899 289.973 517.212 288.291 522.086C287.842 523.389 286.742 524.304 285.342 524.984C284.259 525.51 283.179 526.103 282.273 526.83C280.037 528.622 280.118 531.786 282.427 533.478C283.259 534.088 284.236 534.589 285.227 534.994C292.084 537.796 296.335 542.171 297.003 548.94C297.239 551.332 298.483 553.525 300.014 555.535C300.853 556.637 301.82 557.748 303.265 558.232C307.752 559.736 312.268 561.182 316.819 562.537C319.93 563.463 322.443 562.447 324.524 560.366C326.876 558.014 327.58 557.892 330.205 559.888C332.956 561.978 336.007 563.066 339.682 562.666C342.67 562.341 345.032 563.161 347.061 565.123C348.518 566.533 350.395 567.612 351.984 568.93C357.464 573.475 358.602 577.516 355.53 583.429C352.484 589.292 354.423 594.696 357.009 600.017C358.593 603.276 360.098 606.517 359.197 610.038C358.494 612.783 358.505 615.492 358.461 618.241C358.429 620.314 358.864 622.265 359.79 624.174C362.193 629.125 362.652 634.01 359.231 638.873C358.32 640.168 357.766 641.742 357.475 643.248C356.84 646.536 359.039 648.782 362.902 649.068C363.438 649.108 363.985 649.076 364.524 649.043C369.597 648.728 370.242 649.293 369.795 653.718C369.454 657.093 368.361 660.265 366.402 663.221C363.706 667.288 361.418 671.487 360.707 676.212C360.439 678 359.567 679.652 358.804 681.322C357.86 683.39 357.571 685.464 358.672 687.581C359.955 690.046 359.821 692.381 358.007 694.73C356.614 696.533 356.127 698.701 355.764 700.833C355.579 701.922 355.204 702.935 354.631 703.897C352.987 706.657 351.518 707.141 348.295 705.667C346.301 704.755 344.214 704.201 342.05 703.868C339.272 703.439 337.512 701.998 336.794 699.808C335.819 696.833 334.18 694.345 331.332 692.451C330.806 692.101 330.377 691.566 330.084 691.041C328.159 687.592 325.273 685.126 321.236 683.385C318.91 682.381 317.67 680.042 316.596 678.004C314.767 674.531 312.267 671.355 310.792 667.727C309.682 664.997 307.401 663.399 303.938 663.403C301.984 663.405 300.488 662.693 299.178 661.556C297.5 660.099 295.517 659.131 293.32 658.302C287.345 656.046 282.869 652.055 283.385 645.209C283.619 642.098 283.627 638.982 283.25 635.594Z"/>
    </mask>
    <path d="M283.25 635.594C283.214 633.118 283.078 630.36 283.155 627.605C283.256 623.992 282.395 620.473 281.813 616.945C281.341 614.078 281.306 611.232 281.194 608.369C281.14 606.982 281.836 605.777 282.672 604.685C285.033 601.604 285.825 598.394 284.316 594.846C283.144 592.091 283.313 589.183 283.378 586.319C283.449 583.157 282.672 580.17 281.476 577.225C280.974 575.991 280.412 574.743 280.196 573.461C279.667 570.312 280.388 567.511 283.769 565.636C285.053 564.924 286.314 564.176 287.549 563.4C288.868 562.57 289.589 561.355 289.288 560.018C288.943 558.489 287.592 557.527 285.796 557.346C284.298 557.194 282.705 557.084 281.253 557.358C278.081 557.958 275.749 556.89 274.051 554.818C272.605 553.053 270.731 552.002 268.473 551.31C266.117 550.589 263.92 549.611 261.884 548.356C257.817 545.85 253.51 545.632 248.914 547.258C242.706 549.456 239.885 548.709 235.971 543.936C235.015 542.771 234.098 541.56 233.376 540.279C231.905 537.671 229.616 535.987 226.522 534.874C219.494 532.347 212.345 530.178 204.825 529.045C202.577 528.706 200.562 528 198.788 526.821C196.304 525.171 195.551 523.251 196.896 520.879C200.268 514.933 200.22 508.957 197.622 502.902C196.441 500.15 196.2 497.303 196.337 494.423C196.456 491.905 195.667 489.733 193.744 487.838C191.258 485.387 189.59 482.48 188.014 479.565C186.354 476.496 185.654 473.321 186.618 469.834C187.387 467.055 186.739 464.349 183.809 462.455C180.533 460.339 178.99 456.961 176.109 454.528C172.558 451.529 169.219 448.342 165.803 445.223C163.275 442.915 160.262 441.329 156.703 440.494C154.152 439.895 151.708 439.048 149.622 437.618C146.455 435.446 144.249 432.828 144.591 429.067C144.699 427.876 144.499 426.662 144.646 425.476C145.003 422.592 144.337 420.046 142.048 417.827C139.545 415.402 140.271 412.406 140.605 409.593C140.759 408.3 141.025 407.002 141.133 405.69C141.3 403.651 140.699 401.899 138.833 400.566C136.189 398.678 135.303 396.047 134.98 393.277C134.581 389.849 133.294 386.776 130.8 384.103C127.317 380.368 124.448 376.3 122.001 372.003C120.817 369.924 119.305 368.207 116.825 367.072C114.114 365.831 114.141 364.246 116.759 362.841C117.922 362.218 119.256 361.81 120.556 361.41C122.259 360.887 123.908 360.307 125.377 359.368C128.076 357.645 129.1 355.631 128.124 352.848C126.731 348.875 126.961 344.815 126.84 340.759C126.799 339.357 127.576 338.237 128.19 337.036C129.966 333.566 129.24 331.614 125.416 330.015C123.165 329.075 121.017 328.066 119.125 326.622C118.324 326.011 117.261 325.461 116.229 325.302C110.092 324.354 103.986 323.515 98.1545 326.654C94.4775 328.634 92.3246 328.358 89.1694 325.896C87.4025 324.518 85.4338 323.473 83.3625 322.494C80.3102 321.051 79.9499 320.027 80.2457 316.951C80.5864 313.409 78.9769 310.2 77.4241 307.038C76.0233 304.186 74.3823 301.423 72.9586 298.579C70.9741 294.614 70.1995 290.374 69.4724 286.134C69.2237 284.683 68.6521 283.339 67.6481 282.186C65.5771 279.807 63.4695 277.448 61.2827 275.149C59.1049 272.858 56.1992 272.22 53.0584 273.238C50.529 274.057 48.2847 273.944 45.849 273.056C42.4136 271.804 40.4838 272.24 38.3339 274.904C35.8865 277.936 33.4159 281.013 33.2461 284.948C33.2003 286.009 32.9077 287.074 32.6213 288.115C31.9575 290.529 30.9919 290.882 28.7903 289.41C27.7519 288.715 26.8025 288.036 25.4736 288.621C24.3029 289.136 24.206 290.198 24.2962 291.142C24.6857 295.218 23.6363 299.246 23.792 303.315C23.9896 308.48 22.2667 313.481 21.8599 318.608C20.7902 332.092 19.4774 345.565 24.2036 358.774C24.7706 360.359 25.1242 362.024 25.3413 363.676C25.8363 367.442 27.5292 370.797 29.7315 373.996C31.3911 376.406 33.6093 378.289 36.5483 379.574C39.0089 380.65 41.3901 381.87 43.7501 383.106C47.2207 384.925 50.9001 386.223 54.9612 386.585C56.7768 386.747 58.5238 387.049 60.0298 387.96C63.5728 390.103 63.161 394.268 59.2025 395.765C57.8272 396.285 56.2822 396.48 54.8025 396.776C48.0997 398.12 41.5905 404.702 41.2128 410.685C41.0469 413.314 40.9221 415.971 41.1748 418.586C41.7672 424.718 45.3708 429.596 50.2889 433.803C51.4563 434.802 52.9665 435.478 54.6536 435.764C59.3997 436.566 61.0945 439.599 61.57 443.266C61.8456 445.391 62.0161 447.669 61.4236 449.705C60.4692 452.983 61.4623 455.885 62.8087 458.738C65.1582 463.718 65.8112 469.137 68.3334 474.081C69.3639 476.1 68.0448 478.053 66.5842 479.735C63.9879 482.725 61.8204 485.897 60.5747 489.511C59.0084 494.055 59.767 496.493 64.435 498.937C68.5465 501.09 70.2891 503.964 69.1079 507.932C68.0357 511.535 69.1965 514.767 70.6688 517.985C73.2021 523.523 74.2129 529.265 73.5843 535.181C73.2697 538.141 72.5645 541.08 71.871 544C71.6448 544.952 71.5141 545.877 71.5069 546.834C71.4803 550.433 71.1498 553.957 69.5361 557.378C68.3718 559.846 68.7422 562.325 70.8762 564.432C71.1484 564.701 71.3768 565.003 71.6388 565.28C76.0775 569.972 75.2861 571.735 72.1697 575.394C71.0994 576.651 70.3293 578.062 70.1125 579.658C69.695 582.731 69.1769 585.796 68.8278 588.874C68.4868 591.88 69.8797 594.461 71.6762 596.933C74.0308 600.173 76.2019 603.448 76.4557 607.461C76.6216 610.085 76.2012 612.48 74.3509 614.583C70.8779 618.531 69.4341 623.125 68.6476 627.897C68.1764 630.756 68.3587 633.617 69.4941 636.393C71.4855 641.26 70.5435 645.449 65.9796 649.11C62.2335 652.114 61.8777 654.117 64.9346 657.565C68.0386 661.066 67.5673 664.369 65.6748 667.947C65.5019 668.273 65.3071 668.594 65.0897 668.901C60.3736 675.542 61.8576 682.141 65.1042 688.757C65.8029 690.181 66.9846 691.078 68.5153 691.712C69.3837 692.072 70.2855 692.373 71.1788 692.687C74.6475 693.906 76.7758 695.925 77.2206 699.321C77.4044 700.725 77.7152 702.138 77.8601 703.562C78.2746 707.638 80.5353 710.505 85.1295 711.827C85.9153 712.053 86.6932 712.326 87.5013 712.464C92.8138 713.366 97.8927 714.901 102.862 716.702C106.319 717.955 109.844 718.837 113.605 719.133C119.516 719.6 125.367 720.438 131.243 718.572C134.792 717.445 138.126 718.284 139.381 722.72C141.557 730.411 146.397 736.921 150.235 743.875C151.698 746.529 152.572 749.231 152.503 752.13C152.43 755.197 153.117 758.049 154.781 760.76C156.209 763.088 157.03 765.627 157.864 768.152C158.879 771.221 160.446 773.925 163.871 775.548C166.211 776.657 167.556 778.504 167.79 780.739C168.093 783.617 168.96 786.371 169.603 789.178C169.974 790.794 170.105 792.591 169.676 794.174C169.072 796.403 169.476 798.561 170.254 800.476C171.755 804.171 172.79 808.055 175.188 811.448C176.387 813.145 176.811 814.869 176.204 816.868C174.851 821.329 175.38 825.906 175.379 830.434C175.379 833.848 177.239 836.758 180.227 838.835C184.212 841.605 186.589 845.016 187.3 849.358C187.556 850.924 188.427 852.301 189.227 853.676C191.036 856.781 191.176 859.811 189.177 862.921C188.308 864.274 187.686 865.747 186.982 867.176C185.378 870.431 183.838 871.061 180.285 869.264C175.612 866.9 170.798 867.138 165.837 868.089C161.883 868.847 159.248 871.01 157.539 874.092C155.987 876.892 154.657 879.773 152.923 882.511C151.105 885.381 151.765 887.978 154.407 890.31C154.988 890.822 155.569 891.337 156.192 891.809C158.871 893.841 160.219 896.367 159.693 899.457C159.132 902.761 159.293 906.121 158.435 909.404C157.443 913.202 154.209 915.796 151.809 918.83C151.011 919.839 149.666 919.703 148.409 919.188C142.685 916.843 136.913 917.215 131.053 918.934C128.676 919.632 126.157 919.578 123.643 919.36C119.437 918.996 115.35 919.331 111.654 921.387C107.045 923.951 101.811 924.395 96.5509 924.687C94.478 924.802 92.3879 924.864 90.3168 924.774C84.3792 924.516 78.7539 925.438 73.4753 927.872C72.3637 928.384 71.1691 928.675 69.907 928.774C65.5312 929.118 61.6845 930.731 57.9081 932.54C54.5154 934.165 51.1192 935.792 47.6495 937.287C44.6626 938.574 41.565 939.627 38.0921 938.999C36.4861 938.709 35.2853 939.238 35.0088 940.664C34.5941 942.803 34.3313 945.009 36.0677 946.853C37.7998 948.692 39.0514 950.882 41.4437 952.257C42.0885 952.627 42.5824 953.31 42.9177 953.941C43.5684 955.166 43.318 956.348 41.9377 957.085C40.7479 957.72 39.4583 957.517 38.5441 956.636C36.4282 954.596 34.2117 952.598 32.4195 950.354C31.1195 948.726 29.7435 947.28 27.6824 946.506C24.8708 945.451 23.4028 943.531 22.7147 941.12C21.878 938.187 20.9112 935.402 18.073 933.332C17.0568 932.591 16.6971 931.321 16.4522 930.105C16.1406 928.559 15.6888 926.971 13.445 926.701C11.2216 926.433 9.92192 927.39 8.86224 929.075C6.80969 932.338 5.59079 932.52 2.03239 930.458C0.0776004 929.325 -1.70581 928.057 -3.12867 926.372C-4.5684 924.668 -5.35705 922.937 -5.3354 920.769C-5.28959 916.19 -5.82394 915.714 -11.1968 914.525C-16.0421 913.453 -19.7021 911.266 -21.3893 906.974C-21.8523 905.796 -22.045 904.673 -21.8696 903.467C-21.4324 900.462 -24.1573 896.168 -27.1637 894.93C-28.9284 894.203 -30.4706 894.721 -31.8289 895.533C-34.8862 897.359 -37.6303 899.567 -41.0814 900.915C-41.8959 901.233 -42.5002 902.054 -43.072 902.726C-45.2407 905.275 -44.918 906.124 -41.2906 906.593C-38.6651 906.933 -36.962 908.019 -36.0777 910.115C-35.2741 912.02 -34.3687 913.91 -33.8147 915.872C-33.3588 917.487 -33.0032 919.454 -34.6249 920.635C-36.63 922.096 -38.6892 923.43 -40.2141 925.326C-40.8092 926.066 -41.7893 926.042 -42.8238 925.595C-45.9873 924.231 -48.1291 920.919 -47.3545 917.853C-46.9309 916.177 -46.7717 914.557 -46.9932 912.881C-47.3747 909.996 -48.2416 907.748 -52.4303 907.389C-55.3539 907.138 -56.8425 904.732 -58.2913 902.685C-58.8629 901.878 -59.1743 900.918 -59.8215 900.169C-60.882 898.94 -62.2695 898.277 -64.1463 898.925C-65.1705 899.278 -66.2904 899.44 -67.2807 899.847C-69.8777 900.914 -72.2338 900.335 -74.2154 898.905C-76.436 897.302 -78.6025 895.646 -80.8847 894.101C-82.457 893.036 -83.2304 891.419 -83.7188 889.807C-85.5548 883.747 -90.4849 880.906 -97.2692 880.506C-102.022 880.225 -106.447 878.906 -111.055 878.22C-113.429 877.866 -115.119 876.729 -116.287 875.025C-117.719 872.935 -119.401 871.146 -121.865 869.853C-125.213 868.097 -125.576 865.282 -124.777 862.27C-124.47 861.116 -123.876 860.012 -123.344 858.91C-122.153 856.441 -121.504 853.909 -121.732 851.217C-122.17 846.045 -120.463 841.024 -120.131 835.899C-119.985 833.636 -118.412 831.807 -116.277 830.579C-112.143 828.202 -111.355 824.971 -112.754 821.178C-113.49 819.181 -112.707 817.374 -112.163 815.558C-111.071 811.909 -111.221 808.55 -113.758 805.292C-115.831 802.629 -116.418 799.392 -115.759 796.34C-115.114 793.347 -115.752 790.651 -116.688 787.937C-117.662 785.113 -117.805 782.394 -116.873 779.519C-115.943 776.649 -115.56 773.672 -115.641 770.672C-115.703 768.399 -115.598 766.161 -115.007 763.898C-114.46 761.804 -114.402 759.541 -115.148 757.479C-116.002 755.116 -115.908 752.767 -115.829 750.374C-115.766 748.466 -115.52 746.525 -116.65 744.749C-119.142 740.83 -119.761 736.719 -118.694 732.308C-117.962 729.281 -117.646 726.181 -117.139 723.114C-117.061 722.64 -117.07 722.126 -116.847 721.706C-116.396 720.858 -116.089 719.71 -114.838 719.601C-113.185 719.456 -112.815 720.828 -112.575 721.775C-111.479 726.099 -110.01 730.286 -107.72 734.262C-106.834 735.799 -107.224 737.496 -107.499 739.186C-108.345 744.384 -109.219 749.587 -107.793 754.837C-107.278 756.732 -106.472 758.476 -105.332 760.107C-103.459 762.786 -101.948 765.545 -101.483 768.717C-100.81 773.312 -97.1422 776.036 -92.9546 778.295C-90.737 779.492 -88.3742 780.511 -85.9962 781.46C-78.3645 784.505 -69.5965 782.777 -64.9838 776.729C-60.1903 770.444 -56.0814 763.778 -55.9083 755.911C-55.8489 753.212 -54.5477 750.807 -53.0919 748.477C-52.3683 747.318 -51.5175 746.218 -50.8263 745.046C-48.5201 741.136 -48.7125 738.625 -52.5922 735.812C-55.7294 733.537 -54.879 730.183 -52.3856 728.416C-49.1745 726.141 -45.8922 723.94 -42.6879 721.658C-41.7501 720.99 -40.7283 720.822 -39.6007 720.821C-38.3426 720.821 -37.1815 721.094 -35.9837 721.462C-30.1514 723.251 -30.1569 723.212 -31.2814 728.613C-31.9286 731.721 -30.7069 734.257 -27.9466 736.253C-26.2538 737.478 -24.5279 738.668 -22.8188 739.876C-21.0656 741.115 -19.9524 742.935 -20.7109 744.628C-23.3743 750.577 -21.1282 756.135 -19.6514 761.81C-19.1086 763.895 -18.8791 766.047 -18.5978 768.178C-18.3586 769.991 -18.3945 771.908 -19.6952 773.376C-23.5733 777.754 -23.2134 782.815 -22.0362 787.515C-20.431 793.925 -20.3744 800.326 -20.2958 806.773C-20.2168 813.25 -18.6874 819.554 -17.5516 825.906C-17.3639 826.957 -17.1092 828.079 -16.5076 828.978C-13.2715 833.813 -12.2209 839.206 -10.6604 844.528C-8.77263 850.966 -6.50122 857.347 -2.73951 863.262C-0.426742 866.899 1.17644 870.872 3.17328 874.664C5.76955 879.594 10.3749 882.768 15.8779 884.993C22.5876 887.705 28.5725 885.048 29.8379 878.743C30.8525 873.688 31.548 868.571 31.257 863.429C31.0353 859.51 31.6252 855.884 34.0943 852.431C36.7395 848.731 36.7285 844.657 34.7981 840.722C33.7398 838.565 33.2632 836.409 33.3459 834.106C33.4646 830.803 32.6865 827.711 30.4885 824.951C29.2636 823.412 28.8984 821.676 28.9726 819.83C29.1984 814.205 27.2269 809.287 22.8823 805.053C20.9231 803.143 19.816 800.794 19.7199 798.207C19.5848 794.571 18.0465 791.447 15.2703 788.808C13.2254 786.864 12.5674 784.792 13.5884 782.273C14.7413 779.428 15.0648 776.47 15.2302 773.466C15.3683 770.958 16.2163 768.577 17.8488 766.387C19.9058 763.627 21.0907 760.72 20.2809 757.244C19.6953 754.73 21.2219 752.368 22.641 750.168C25.1645 746.256 26.0489 742.088 25.2867 737.696C24.8784 735.343 24.1427 733.056 23.1281 730.819C20.7248 725.518 22.8575 718.943 27.9958 715.333C32.694 712.033 34.3489 707.858 31.5862 702.953C28.4889 697.455 27.4914 691.328 24.1097 685.967C23.0334 684.261 22.7833 682.378 22.7085 680.427C22.5855 677.216 22.062 673.903 22.2595 670.813C22.5916 665.623 21.3842 660.614 21.3509 655.51C21.3348 653.058 21.814 652.189 24.9287 651.367C29.6388 650.124 32.0814 647.512 32.5088 643.348C32.5567 642.88 32.9497 642.416 32.9121 641.968C32.7666 640.234 33.4229 638.631 34.0845 637.079C35.6218 633.474 35.663 629.858 34.7887 626.163C34.2186 623.753 34.5835 621.646 37.4858 620.381C41.6416 618.569 42.442 615.46 41.6868 611.856C40.0614 604.1 37.8337 596.49 34.0715 589.28C32.0541 585.414 30.7309 581.455 31.3608 577.137C31.4811 576.312 31.3316 575.461 31.3506 574.622C31.4245 571.365 29.6584 569.254 26.2165 567.97C21.5572 566.234 20.9269 565.342 22.3773 561.057C23.9616 556.376 23.1688 551.815 22.2222 547.248C21.6179 544.333 21.1034 541.512 21.3542 538.481C21.7279 533.964 21.5281 529.398 20.4201 524.918C19.175 519.883 18.7331 514.777 18.7193 509.628C18.7107 506.394 18.51 503.161 18.4154 499.928C18.3594 498.016 18.4676 496.152 19.0017 494.242C20.1122 490.268 19.8708 486.278 19.3381 482.179C18.6152 476.616 18.1525 471.027 17.2027 465.478C16.9027 463.725 16.8787 461.846 17.2694 460.113C17.7821 457.84 17.7453 455.594 17.6963 453.329C17.6656 451.905 17.6167 450.504 17.2301 449.069C16.7009 447.105 16.7247 445.021 17.151 443.001C17.7922 439.963 17.9982 436.983 17.7274 433.845C17.1522 427.183 17.0838 420.484 17.8598 413.786C18.301 409.979 18.0638 406.093 16.919 402.393C15.727 398.542 16.4173 394.756 17.1519 391.044C17.9533 386.994 17.3156 383.198 15.9416 379.441C13.6445 373.158 13.5117 366.767 14.431 360.312C14.773 357.91 14.8921 355.468 14.466 353.151C13.528 348.05 14.2823 343.215 16.4817 338.482C17.8975 335.435 17.2951 332.357 16.49 329.379C15.2995 324.974 13.6193 320.682 11.5307 316.524C10.9774 315.423 10.3745 314.363 9.26109 313.576C6.93783 311.932 4.43019 312.056 2.17504 313.824C-0.0814398 315.592 -0.584475 318.006 -0.79443 320.336C-1.13741 324.139 -1.88346 327.931 -1.56941 331.775C-1.28184 335.296 -2.53115 338.646 -3.55897 341.98C-4.26312 344.265 -5.77552 344.61 -8.36014 343.791C-10.8342 343.007 -12.167 341.332 -12.8472 339.376C-14.5272 334.544 -15.2502 329.561 -14.5439 324.522C-13.7386 318.776 -14.0003 313.088 -14.8521 307.373C-15.3272 304.187 -15.7746 300.994 -16.0878 297.781C-16.9794 288.639 -16.6823 279.399 -18.8948 270.362C-19.3575 268.472 -19.2115 266.526 -18.9522 264.628C-18.1365 258.661 -18.239 252.728 -19.1981 246.784C-19.4633 245.14 -19.551 243.379 -19.1551 241.773C-18.6543 239.743 -18.6508 237.722 -18.6467 235.709C-18.6364 230.688 -18.3425 225.695 -17.3888 220.735C-17.3663 220.618 -17.3679 220.495 -17.3767 220.376C-17.9767 212.235 -15.9652 204.146 -16.65 195.993C-16.8711 193.36 -17.3194 190.772 -17.859 188.198C-19.0529 182.501 -19.0684 176.83 -18.1851 171.083C-17.623 167.425 -17.5361 163.703 -17.4609 160.007C-17.4045 157.24 -16.8473 154.535 -16.4608 151.813C-15.5506 145.401 -14.8873 138.982 -15.1788 132.525C-15.3349 129.071 -16.2506 125.681 -16.2077 122.184C-16.181 120.015 -15.338 117.947 -15.5714 115.772C-16.2197 109.73 -16.4148 103.646 -18.0356 97.7017C-18.9247 94.4408 -19.3985 91.1329 -19.3481 87.7543C-19.1265 72.8915 -19.9448 58.0377 -19.8544 43.1829C-19.8118 36.1737 -19.9845 29.0832 -18.5559 22.1083C-17.5287 17.0937 -15.7117 15.6278 -9.98796 15.7204C-5.51355 15.7927 -1.50551 15.0862 2.02 12.5664C3.30762 11.6462 4.91934 11.2643 6.61509 11.0367C11.4105 10.3932 14.2075 7.84679 15.2199 3.80487C15.7735 1.59412 16.2178 -0.636744 16.7101 -2.85874C16.8781 -3.61693 17.2424 -4.27768 18.2597 -4.25097C19.2351 -4.2254 19.7029 -3.53622 19.8793 -2.83557C20.0827 -2.02742 20.0307 -1.17266 20.1325 -0.34221C21.0522 7.1638 20.9561 14.7058 21.0701 22.2391C21.1045 24.516 21.6737 26.7002 23.9034 27.9345C29.0902 30.806 29.8245 35.4028 30.678 40.0214C31.7072 45.5912 31.3714 51.2326 31.7901 56.8344C31.8874 58.1361 31.7965 59.4166 32.3575 60.7134C33.7245 63.8731 35.9897 65.246 39.9246 65.0028C43.5893 64.7763 45.5436 63.1863 46.1225 59.7912C46.9455 54.964 46.9962 50.0657 48.1455 45.2545C48.5494 43.5634 48.4658 41.6765 47.825 39.9154C47.6224 39.3583 47.559 38.7513 47.5217 38.1626C47.4588 37.1682 47.6586 36.153 48.7157 35.6324C49.8339 35.0817 50.8666 35.6056 51.7228 36.2776C53.3589 37.5617 55.1281 38.7535 56.5516 40.198C59.3926 43.081 60.6211 46.6635 61.5722 50.2702C61.9639 51.7555 61.7572 53.3096 60.6102 54.7323C59.6674 55.9015 58.9958 57.349 59.1703 58.7923C59.5392 61.842 59.0562 64.7093 57.6358 67.5284C56.4584 69.8651 57.4488 71.9334 59.1432 73.8022C59.4822 74.1761 59.9171 74.4844 60.3036 74.8266C64.4574 78.5038 64.5967 79.2721 61.3028 83.4045C58.417 87.0247 57.3875 90.06 62.1564 94.6622C64.9198 97.3292 67.8585 99.8353 69.9261 102.989C70.9168 104.499 72.6153 105.448 74.3978 106.068C80.334 108.135 82.3679 112.643 83.0875 117.407C83.7774 121.976 85.6633 125.221 90.5028 127.365C92.9017 128.427 94.903 130.235 96.8971 131.876C98.6468 133.315 98.5502 134.152 96.4346 135.176C93.1266 136.775 90.852 139.028 89.4747 142.049C88.8416 143.438 87.5367 144.346 86.1266 145.155C79.6183 148.892 77.9832 154.267 79.4001 160.532C79.8854 162.678 79.7114 164.823 79.9183 166.964C80.3807 171.747 82.301 175.715 87.1236 178.419C89.5133 179.758 91.1396 181.661 91.8321 184.102C92.7138 187.209 94.5153 189.795 97.3403 191.905C98.5746 192.827 99.6122 193.997 100.523 195.18C101.942 197.021 103.729 198.433 105.981 199.459C108.394 200.558 109.434 202.266 109.519 204.691C109.659 208.691 108.924 212.518 107.575 216.327C106.67 218.884 105.156 220.872 102.283 221.986C98.8378 223.322 96.9869 225.577 96.4128 228.846C95.9372 231.553 94.8732 234.208 95.2071 236.98C95.8355 242.196 94.2431 247.086 91.3249 251.442C87.2549 257.517 87.6893 263.066 91.487 269.009C93.7992 272.628 95.0753 276.717 97.7635 280.237C98.623 281.362 98.7907 282.94 99.043 284.343C99.3309 285.943 100.171 287.286 101.199 288.558C103.361 291.23 106.275 292.076 109.902 291.193C112.076 290.664 114.073 289.818 115.681 288.456C118.384 286.167 121.698 284.616 124.69 282.679C126.715 281.368 127.412 281.671 129.156 283.36C131.306 285.443 130.886 288.096 131.4 290.488C131.869 292.668 131.832 294.97 131.161 297.253C130.198 300.527 130.57 303.787 131.628 307.075C133.179 311.892 134.168 316.826 137.713 321.019C139.975 323.696 142.847 324.468 146.389 323.952C147.466 323.795 148.514 323.409 149.533 323.042C150.936 322.536 152.278 321.903 153.685 321.405C155.88 320.629 157.046 320.939 158.07 322.792C158.775 324.067 159.254 325.465 159.604 326.853C160.064 328.672 160.908 330.316 162.553 331.462C166.033 333.888 167.364 337.253 168.015 340.822C168.576 343.897 170.12 346.317 172.388 348.718C175.911 352.446 177.139 356.946 176.226 361.78C175.782 364.133 175.022 366.415 175.058 368.861C175.111 372.465 176.69 375.167 180.467 376.649C184.039 378.051 189.034 377.003 191.915 374.355C193.044 373.317 193.79 371.972 194.887 370.902C195.93 369.884 196.663 368.141 198.703 368.604C200.444 368.998 201.245 370.462 201.642 371.854C202.775 375.821 203.255 379.841 202.119 383.897C201.027 387.798 198.438 389.199 193.901 388.339C192.552 388.083 191.218 387.758 189.858 387.558C185.33 386.893 182.471 388.63 181.247 392.438C180.229 395.606 180.356 398.806 182.146 401.491C185.535 406.578 184.205 411.783 183.935 417.125C183.602 423.745 183.542 430.402 187.46 436.596C190.899 442.033 203.082 445.747 210.194 443.463C212.556 442.705 214.282 441.454 215.488 439.644C217.005 437.366 218.551 435.1 219.613 432.609C220.575 430.356 221.949 428.271 223.698 426.386C226.253 423.631 228.558 423.135 231.951 424.92C235.835 426.964 239.658 429.108 243.374 431.372C246.225 433.11 245.94 434.334 242.605 435.566C240.578 436.314 238.44 436.86 236.473 437.707C230.442 440.304 228.612 444.033 230.575 449.489C231.066 450.855 231.603 452.213 232.235 453.533C233.773 456.75 234.007 459.914 232.23 463.166C230.927 465.552 231.242 468.132 231.859 470.577C232.631 473.635 235.914 475.705 239.774 475.935C242.599 476.104 245.257 475.545 247.856 474.592C250.277 473.705 252.762 472.958 255.429 472.836C260.184 472.617 261.993 473.629 263.429 477.502C264.101 479.316 264.62 481.175 265.148 483.027C266.31 487.11 269.063 490.087 273.43 491.893C276.338 493.095 278.909 494.678 281.124 496.678C283.039 498.406 285.509 499.121 288.076 499.634C290.117 500.041 292.109 500.546 293.862 501.524C297.052 503.304 298.008 505.854 295.994 508.622C292.882 512.899 289.973 517.212 288.291 522.086C287.842 523.389 286.742 524.304 285.342 524.984C284.259 525.51 283.179 526.103 282.273 526.83C280.037 528.622 280.118 531.786 282.427 533.478C283.259 534.088 284.236 534.589 285.227 534.994C292.084 537.796 296.335 542.171 297.003 548.94C297.239 551.332 298.483 553.525 300.014 555.535C300.853 556.637 301.82 557.748 303.265 558.232C307.752 559.736 312.268 561.182 316.819 562.537C319.93 563.463 322.443 562.447 324.524 560.366C326.876 558.014 327.58 557.892 330.205 559.888C332.956 561.978 336.007 563.066 339.682 562.666C342.67 562.341 345.032 563.161 347.061 565.123C348.518 566.533 350.395 567.612 351.984 568.93C357.464 573.475 358.602 577.516 355.53 583.429C352.484 589.292 354.423 594.696 357.009 600.017C358.593 603.276 360.098 606.517 359.197 610.038C358.494 612.783 358.505 615.492 358.461 618.241C358.429 620.314 358.864 622.265 359.79 624.174C362.193 629.125 362.652 634.01 359.231 638.873C358.32 640.168 357.766 641.742 357.475 643.248C356.84 646.536 359.039 648.782 362.902 649.068C363.438 649.108 363.985 649.076 364.524 649.043C369.597 648.728 370.242 649.293 369.795 653.718C369.454 657.093 368.361 660.265 366.402 663.221C363.706 667.288 361.418 671.487 360.707 676.212C360.439 678 359.567 679.652 358.804 681.322C357.86 683.39 357.571 685.464 358.672 687.581C359.955 690.046 359.821 692.381 358.007 694.73C356.614 696.533 356.127 698.701 355.764 700.833C355.579 701.922 355.204 702.935 354.631 703.897C352.987 706.657 351.518 707.141 348.295 705.667C346.301 704.755 344.214 704.201 342.05 703.868C339.272 703.439 337.512 701.998 336.794 699.808C335.819 696.833 334.18 694.345 331.332 692.451C330.806 692.101 330.377 691.566 330.084 691.041C328.159 687.592 325.273 685.126 321.236 683.385C318.91 682.381 317.67 680.042 316.596 678.004C314.767 674.531 312.267 671.355 310.792 667.727C309.682 664.997 307.401 663.399 303.938 663.403C301.984 663.405 300.488 662.693 299.178 661.556C297.5 660.099 295.517 659.131 293.32 658.302C287.345 656.046 282.869 652.055 283.385 645.209C283.619 642.098 283.627 638.982 283.25 635.594Z" fill="#181717" stroke="white" stroke-opacity="0.41" stroke-width="2" mask="url(#path-5-inside-1_46_823)"/>
    <path d="M80.4127 80.542C80.3491 77.4608 81.4703 75.3847 82.5342 73.3135C83.714 71.0168 85.0716 68.7878 86.2536 66.4919C88.5923 61.9489 87.9969 58.8598 83.8948 55.5101C81.5126 53.5648 79.9193 51.3278 78.9163 48.644C77.9008 45.9268 76.7046 43.2492 75.376 40.6353C73.9273 37.7852 72.067 35.1483 69.3729 32.9851C67.9691 31.8579 66.696 30.5743 65.5655 29.2337C62.2152 25.2608 64.4911 19.1427 69.5057 18.0157C73.4467 17.13 75.8014 14.8469 77.2459 11.5839C78.3297 9.13585 79.7152 6.7648 81.5418 4.62806C84.3145 1.38506 85.983 -2.23036 86.5832 -6.22797C86.9052 -8.37276 87.5923 -10.4404 88.9345 -12.2931C90.4266 -14.3529 91.7288 -14.8995 94.0902 -13.8831C97.1913 -12.5484 100.379 -11.4714 103.657 -10.545C105.662 -9.97852 106.852 -8.73683 107.338 -6.98067C107.788 -5.35658 108.087 -3.72671 108.084 -2.03493C108.078 1.31135 109.465 4.04437 113.158 5.54328C117.034 7.11653 118.447 9.84524 118.277 13.3979C118.196 15.0862 118.468 16.7375 119.398 18.2577C122.3 23.0018 123.975 28.2161 126.981 32.9342C128.776 35.7509 129.798 38.7597 128.968 42.176C128.188 45.3837 129.279 48.5848 130.099 51.7237C130.658 53.8654 130.616 55.9354 130.074 58.0919C128.728 63.4509 126.975 68.761 125.782 74.0991C124.607 79.3519 122.518 83.5191 117.691 86.8219C116.084 87.9215 115.358 89.7599 114.649 91.4623C113.322 94.6511 111.579 97.6201 108.587 99.921C106.643 101.416 105.692 103.384 104.991 105.481C104.648 106.509 104.384 107.583 103.83 108.525C103.205 109.589 102.339 110.649 100.681 110.504C99.255 110.379 98.5332 109.411 98.1687 108.37C97.2935 105.869 96.4862 103.346 95.7861 100.804C95.2766 98.9537 95.0407 97.0472 94.5797 95.1852C93.4087 90.4553 90.5224 86.8953 85.1762 85.0504C84.5381 84.8302 83.93 84.5374 83.3304 84.2442C81.3437 83.2727 80.4556 81.7443 80.4127 80.542Z" fill="#181717"/>
    <path d="M89.3394 -11.9998L88.938 -12.2906L89.3394 -11.9998C90.0664 -13.0033 90.6876 -13.55 91.3434 -13.767C91.9858 -13.9795 92.7659 -13.9088 93.8925 -13.4239C97.0181 -12.0786 100.227 -10.9947 103.521 -10.0639C105.364 -9.54292 106.418 -8.42817 106.856 -6.84716C107.299 -5.25057 107.586 -3.66791 107.584 -2.03578C107.581 -0.294049 107.94 1.32449 108.81 2.71245C109.682 4.10395 111.042 5.22406 112.97 6.00658C114.833 6.76256 116.061 7.77747 116.81 8.99091C117.56 10.2062 117.859 11.6695 117.777 13.3739C117.693 15.1331 117.976 16.8908 118.972 18.5186C120.351 20.7735 121.451 23.1386 122.566 25.5348C122.61 25.6287 122.653 25.7227 122.697 25.8167C123.853 28.3006 125.036 30.8122 126.559 33.2029C128.314 35.9557 129.268 38.8228 128.482 42.0579C127.763 45.015 128.564 47.9675 129.314 50.7282C129.417 51.1059 129.518 51.48 129.615 51.85C130.151 53.9023 130.113 55.8865 129.589 57.9701C129.019 60.2414 128.375 62.5036 127.729 64.7715C127.616 65.1698 127.503 65.5682 127.39 65.9669C126.634 68.6322 125.894 71.306 125.294 73.9899C124.138 79.1588 122.102 83.1979 117.409 86.4093C115.727 87.5603 114.945 89.4456 114.271 91.0684C114.243 91.1362 114.215 91.2034 114.187 91.2702L114.638 91.4577L114.187 91.2702C112.877 94.4175 111.178 97.2979 108.282 99.5246C106.223 101.109 105.23 103.188 104.517 105.323C104.435 105.57 104.359 105.812 104.284 106.049C104.033 106.849 103.799 107.591 103.399 108.272C103.097 108.786 102.764 109.249 102.341 109.569C101.934 109.877 101.425 110.067 100.725 110.006C99.5696 109.904 98.9695 109.144 98.6407 108.205L98.1687 108.37L98.6407 108.205C97.7683 105.712 96.9647 103.2 96.2682 100.671C96.0192 99.7673 95.8361 98.8457 95.6557 97.9049C95.6381 97.8127 95.6204 97.7203 95.6027 97.6277C95.441 96.781 95.2764 95.9187 95.065 95.0651C93.855 90.1775 90.8523 86.4802 85.3393 84.5778C84.734 84.3689 84.1516 84.0892 83.5501 83.795L83.3304 84.2442L83.5501 83.795C81.6927 82.8867 80.9491 81.5059 80.9125 80.5277C80.8545 77.6726 81.8535 75.7303 82.8891 73.7168C82.919 73.6586 82.949 73.6003 82.979 73.5419C83.564 72.4031 84.1938 71.2796 84.8292 70.147L84.8426 70.1231C85.472 69.001 86.1066 67.8698 86.6981 66.7207C87.8929 64.3998 88.3815 62.3688 87.9788 60.4508C87.5763 58.5335 86.3049 56.8326 84.211 55.1228C81.8956 53.232 80.3558 51.0676 79.3846 48.4689C78.3618 45.7322 77.1578 43.0374 75.8217 40.4088C74.3507 37.5146 72.45 34.8146 69.6859 32.5952C68.3111 31.4913 67.0607 30.2313 65.9477 28.9114C62.8555 25.2445 64.9419 19.5539 69.6153 18.5035C73.7283 17.5791 76.2021 15.1769 77.7031 11.7863C78.7715 9.37295 80.1329 7.04557 81.9219 4.95297C84.7527 1.64195 86.4629 -2.05945 87.0776 -6.15374C87.391 -8.24131 88.0557 -10.2277 89.3394 -11.9998Z" stroke="white" stroke-opacity="0.41"/>
    <path d="M227.917 741.157C227.812 740.654 227.5 740.281 226.969 740.061C222.402 738.167 219.37 735.017 217.087 731.197C216.399 730.046 215.44 728.994 214.465 728C210.981 724.447 207.536 720.885 205.179 716.635C204.649 715.68 203.837 714.819 203.03 714.008C200.845 711.811 199.2 709.379 198.133 706.616C196.944 703.539 194.378 701.781 190.738 700.973C187.385 700.229 184.555 700.631 181.943 702.747C178.62 705.439 176.781 705.478 173.199 703.209C170.674 701.609 169.221 699.557 168.442 696.786C166.992 691.627 168.744 686.563 168.409 681.465C168.32 680.121 169.39 679.005 170.093 677.839C172.85 673.267 171.813 670.252 166.288 668.47C162.779 667.339 160.719 665.346 159.836 662.464C157.703 655.497 152.708 649.935 148.5 643.934C144.982 638.915 140.668 634.907 135.08 631.62C131.324 629.411 128.367 626.329 126.684 622.49C125.787 620.444 124.192 618.799 121.983 617.65C119.856 616.542 117.749 615.406 115.613 614.311C113.08 613.012 111.475 611.333 111.463 608.567C111.447 604.967 109.229 602.399 105.396 601.193C101.771 600.053 99.4706 598.06 97.8473 595.063C95.0928 589.977 92.5842 584.932 91.7638 579.219C91.206 575.334 89.9842 571.537 90.0768 567.546C90.3024 557.82 88.0717 548.337 86.0328 538.855C85.4663 536.22 85.3802 533.634 85.5762 531.01C85.8514 527.326 85.1934 523.895 82.6758 520.801C79.9587 517.462 80.7757 513.583 81.2779 509.986C82.2771 502.827 81.5592 495.92 78.611 489.237C77.1585 485.945 77.0662 482.738 78.264 479.445C78.5 478.796 78.6982 478.05 79.4848 477.637C80.5335 477.495 80.976 478.182 81.3264 478.778C83.7414 482.885 85.527 487.105 83.8043 491.815C82.4893 495.411 83.0366 498.879 84.5522 502.314C87.593 509.207 91.075 515.964 93.0386 523.191C94.0449 526.895 95.8372 530.4 96.5731 534.192C96.9212 535.985 97.0401 537.775 97.0265 539.54C96.9594 548.275 98.2395 556.957 98.1771 565.684C98.1535 569.005 99.5295 571.934 102.063 574.137C107.443 578.815 111.323 584.535 116.625 589.24C117.588 590.095 118.452 591.057 119.527 591.79C122.915 594.101 124.507 597.118 124.492 600.807C124.476 604.538 125.358 608.141 126.264 611.764C127.16 615.35 129.576 617.684 133.266 619.248C136.233 620.506 139.386 621.418 142.128 623.101C145.45 625.138 148.308 627.456 150.066 630.71C151.596 633.542 153.646 636.08 156.216 638.301C157.887 639.746 159.119 641.482 160.269 643.257C161.492 645.146 163.033 646.808 164.797 648.349C167.163 650.414 169.968 651.572 173.318 651.436C176.637 651.302 179.03 652.593 181.427 654.401C186.89 658.519 190.35 663.713 193.126 669.389C195.218 673.667 197.578 677.847 199.859 682.054C201.719 685.483 201.743 689.237 202.322 692.874C202.669 695.052 203.227 697.103 204.498 698.968C206.48 701.876 207.828 704.986 208.575 708.282C209.138 710.765 210.685 712.567 212.904 714.161C217.602 717.534 221.235 721.768 224.944 725.915C227.241 728.481 227.397 731.711 227.849 734.748C228.16 736.839 228.708 739.02 227.912 741.163C227.912 741.163 227.917 741.157 227.917 741.157Z" fill="#181717"/>
    <path d="M227.501 735.747C227.736 737.19 227.96 738.571 227.727 739.93C227.563 739.798 227.374 739.688 227.161 739.599L226.969 740.061L227.161 739.599C222.715 737.756 219.758 734.692 217.516 730.941L217.087 731.197L217.516 730.941C216.796 729.736 215.801 728.648 214.822 727.65C211.332 724.091 207.935 720.575 205.616 716.392C205.049 715.369 204.19 714.465 203.384 713.655C201.243 711.502 199.638 709.127 198.599 706.436C197.332 703.155 194.594 701.316 190.846 700.485C187.38 699.716 184.384 700.126 181.628 702.359C179.988 703.688 178.803 704.284 177.645 704.339C176.483 704.394 175.239 703.909 173.466 702.786C171.05 701.256 169.671 699.308 168.924 696.651C168.224 694.161 168.292 691.68 168.506 689.145C168.55 688.619 168.601 688.09 168.652 687.557C168.845 685.544 169.043 683.487 168.908 681.432C168.873 680.906 169.062 680.395 169.386 679.836C169.548 679.558 169.735 679.281 169.934 678.99L169.974 678.931C170.157 678.663 170.349 678.382 170.521 678.097L170.093 677.839L170.521 678.097C171.926 675.768 172.454 673.694 171.762 671.926C171.073 670.163 169.247 668.899 166.442 667.994C163.059 666.904 161.141 665.017 160.314 662.318C159.227 658.767 157.414 655.587 155.36 652.556C154.333 651.041 153.241 649.558 152.148 648.083C152.026 647.918 151.903 647.753 151.78 647.588C150.808 646.278 149.84 644.973 148.91 643.647C145.35 638.569 140.982 634.512 135.333 631.189C131.653 629.024 128.776 626.018 127.142 622.29C126.194 620.127 124.512 618.402 122.214 617.206C121.343 616.753 120.47 616.291 119.595 615.829C118.347 615.17 117.096 614.509 115.842 613.866C114.61 613.235 113.646 612.531 112.988 611.683C112.338 610.845 111.968 609.841 111.963 608.565C111.954 606.656 111.359 605 110.245 603.662C109.134 602.329 107.531 601.341 105.546 600.716C102.045 599.615 99.8484 597.708 98.287 594.825C95.5333 589.74 93.0653 584.765 92.2587 579.148C92.0699 577.833 91.8036 576.517 91.5405 575.216C91.4124 574.583 91.2851 573.954 91.1678 573.33C90.8063 571.407 90.5316 569.5 90.5767 567.557C90.7877 558.46 88.8649 549.578 86.9602 540.78C86.8136 540.103 86.6671 539.426 86.5216 538.75C85.9674 536.172 85.8815 533.636 86.0748 531.048C86.3568 527.273 85.6828 523.705 83.0636 520.486C80.6905 517.569 81.172 514.23 81.6631 510.825C81.7001 510.569 81.7372 510.312 81.7731 510.055C82.7835 502.816 82.0587 495.813 79.0684 489.035C77.6679 485.861 77.5803 482.787 78.7339 479.616C78.7551 479.557 78.7756 479.5 78.7955 479.445C79.0081 478.852 79.168 478.405 79.6401 478.123C79.9774 478.096 80.1905 478.19 80.3551 478.321C80.5598 478.485 80.7173 478.729 80.8954 479.032C83.3002 483.121 84.9739 487.162 83.3347 491.643C81.9617 495.398 82.5457 499.005 84.0948 502.516C84.7857 504.083 85.4969 505.637 86.2064 507.188C88.6364 512.498 91.0464 517.766 92.5561 523.322C92.9902 524.92 93.5691 526.483 94.1393 528.022C94.2394 528.292 94.3392 528.562 94.4379 528.831C95.103 530.642 95.7226 532.433 96.0823 534.287C96.4226 536.04 96.5399 537.795 96.5265 539.536C96.4928 543.926 96.7976 548.3 97.1012 552.65L97.1024 552.666C97.4061 557.017 97.7081 561.345 97.6771 565.681C97.6524 569.154 99.0963 572.22 101.735 574.514C104.397 576.829 106.691 579.404 108.999 582.01L109.156 582.187C111.406 584.728 113.677 587.292 116.293 589.614C116.595 589.882 116.88 590.154 117.172 590.433C117.342 590.595 117.514 590.759 117.693 590.927C118.17 591.372 118.677 591.815 119.245 592.203L119.527 591.79L119.245 592.203C122.506 594.427 124.007 597.293 123.992 600.804C123.976 604.608 124.875 608.27 125.779 611.885C126.723 615.663 129.278 618.101 133.071 619.709C133.998 620.102 134.955 620.466 135.902 620.826C136.474 621.044 137.042 621.26 137.597 621.48C139.09 622.072 140.532 622.708 141.867 623.527C145.16 625.547 147.93 627.808 149.626 630.948C151.186 633.836 153.275 636.42 155.889 638.68C157.504 640.076 158.705 641.762 159.849 643.529C161.103 645.467 162.679 647.163 164.469 648.725C166.92 650.865 169.846 652.077 173.338 651.936C176.49 651.808 178.769 653.023 181.126 654.8C186.504 658.854 189.92 663.972 192.677 669.609C194.303 672.934 196.092 676.203 197.874 679.459C198.391 680.404 198.908 681.348 199.42 682.292C200.313 683.94 200.772 685.676 201.078 687.47C201.231 688.368 201.345 689.275 201.458 690.192L201.481 690.381C201.586 691.233 201.692 692.096 201.828 692.952C202.18 695.162 202.754 697.297 204.085 699.25C206.032 702.107 207.354 705.159 208.087 708.392C208.687 711.037 210.337 712.933 212.612 714.567L212.904 714.161L212.612 714.567C216.898 717.644 220.288 721.446 223.711 725.284C223.997 725.605 224.284 725.927 224.572 726.248L224.944 725.915L224.572 726.248C226.469 728.369 226.822 730.953 227.19 733.648C227.243 734.037 227.296 734.429 227.355 734.822C227.401 735.133 227.451 735.441 227.501 735.747Z" stroke="white" stroke-opacity="0.41"/>
    <path d="M234.08 87.7572C232.192 87.6881 230.612 88.4643 228.995 89.1467C226.109 90.364 224.524 90.2532 222.56 88.7185C220.417 87.0439 219.667 84.8154 220.917 82.5612C221.987 80.6297 223.391 78.821 224.792 77.0428C227.852 73.1592 229.599 68.9951 229.025 64.2302C228.721 61.7026 229.048 59.2048 230.011 56.7994C230.568 55.4078 230.711 53.9831 230.672 52.557C230.502 46.3105 231.841 40.1877 233.102 34.1017C234.438 27.6554 236.548 21.3282 238.227 14.931C239.053 11.7815 240.64 9.13454 243.737 7.19107C244.845 6.4956 245.714 5.51356 246.684 4.65472C247.366 4.05051 248.05 3.42187 249.011 3.18889C250.347 2.86525 251.78 2.52101 252.965 3.40127C254.137 4.27224 253.602 5.37688 253.127 6.3859C251.984 8.81844 250.855 11.2573 249.634 13.6609C248.342 16.2017 247.341 18.799 247.329 21.5948C247.322 23.1803 247.041 24.775 246.24 26.1174C243.483 30.7387 243.556 35.838 242.682 40.7539C241.543 47.1642 242.286 53.6454 242.255 60.0971C242.246 62.0687 242.917 63.8237 243.882 65.5705C245.154 67.8742 247.31 69.2252 250.109 69.007C255.483 68.588 256.445 70.1469 256.166 74.6151C255.723 81.7044 255.488 88.944 252.946 95.8332C251.77 99.0227 250.098 102.191 249.963 105.486C249.761 110.414 246.869 114.339 244.636 118.54C244.228 119.308 243.793 120.579 242.37 120.069C241.102 119.615 240.975 118.695 241.288 117.392C243.038 110.101 243.318 102.699 242.921 95.2938C242.693 91.0417 238.657 87.7618 234.08 87.7572Z" fill="#181717"/>
    <path d="M247.015 5.02898L247.015 5.02896C247.027 5.01847 247.039 5.008 247.051 4.99755C247.738 4.38892 248.323 3.87004 249.129 3.67482L249.129 3.67482C250.518 3.33812 251.701 3.08533 252.666 3.80258L252.666 3.80259C252.903 3.97828 253.028 4.14605 253.094 4.29587C253.16 4.44547 253.182 4.60856 253.165 4.79647C253.128 5.20192 252.923 5.6444 252.675 6.1732L252.675 6.17322C252.518 6.50647 252.362 6.8396 252.206 7.17252C251.22 9.27372 250.238 11.367 249.188 13.4343C247.885 15.9982 246.841 18.6795 246.829 21.5927L246.829 21.5927C246.822 23.1272 246.55 24.6231 245.811 25.8612L246.24 26.1174L245.811 25.8612C244.389 28.2446 243.703 30.741 243.263 33.2382C243.044 34.4773 242.884 35.7237 242.726 36.9554L242.723 36.9794C242.564 38.2229 242.406 39.4513 242.19 40.6664C241.612 43.9169 241.514 47.1759 241.553 50.4161C241.57 51.7859 241.611 53.1399 241.652 54.4887C241.708 56.3581 241.764 58.2174 241.755 60.0947C241.746 62.187 242.459 64.0293 243.444 65.8121L243.882 65.5705L243.444 65.8121C244.801 68.2701 247.134 69.7405 250.148 69.5055C252.839 69.2957 254.199 69.6122 254.9 70.3282C255.247 70.6819 255.477 71.1772 255.601 71.8814C255.725 72.5911 255.736 73.48 255.667 74.5839C255.629 75.1843 255.593 75.785 255.557 76.3858C255.167 82.9054 254.776 89.4293 252.477 95.6601C252.197 96.4199 251.888 97.1795 251.575 97.9489L251.54 98.0352C251.216 98.8313 250.889 99.6378 250.594 100.449C250.005 102.071 249.534 103.743 249.464 105.466C249.367 107.835 248.623 109.978 247.611 112.068C246.999 113.332 246.31 114.538 245.612 115.762C245.137 116.593 244.658 117.433 244.194 118.305C244.14 118.408 244.085 118.519 244.033 118.623C243.979 118.729 243.927 118.833 243.871 118.933C243.759 119.137 243.647 119.308 243.523 119.436C243.404 119.56 243.283 119.635 243.15 119.667C243.017 119.699 242.823 119.7 242.539 119.598C242.011 119.409 241.801 119.16 241.71 118.889C241.605 118.578 241.623 118.138 241.774 117.509C243.539 110.155 243.819 102.701 243.42 95.267C243.175 90.699 238.871 87.2662 234.089 87.2572C232.277 87.1933 230.727 87.8595 229.29 88.4768C229.125 88.5476 228.962 88.6177 228.8 88.686C227.384 89.2835 226.352 89.5253 225.465 89.4657C224.595 89.4072 223.801 89.0535 222.868 88.3245C221.856 87.5338 221.21 86.6408 220.947 85.72C220.687 84.8096 220.788 83.8249 221.354 82.8036C222.402 80.9125 223.781 79.1338 225.185 77.3522C228.295 73.4039 230.116 69.1102 229.522 64.1705C229.227 61.7268 229.543 59.3134 230.475 56.9852C231.066 55.5095 231.212 54.0111 231.172 52.5434C231.011 46.6283 232.218 40.8185 233.431 34.9786C233.485 34.7202 233.538 34.4617 233.592 34.2032C234.446 30.0827 235.612 26.0309 236.784 21.9571C237.442 19.6696 238.102 17.3753 238.71 15.0579C239.511 12.0068 241.034 9.47804 244.003 7.61456C244.595 7.24274 245.116 6.79941 245.601 6.35179C245.808 6.16103 246.002 5.97632 246.192 5.79502C246.464 5.53529 246.729 5.28254 247.015 5.02898Z" stroke="white" stroke-opacity="0.41"/>
    <path d="M163.457 150.201C160.609 148.594 157.772 147.175 154.655 146.17C152.932 145.615 151.849 144.353 151.213 142.791C149.762 139.231 149.417 135.658 150.606 131.976C151.387 129.559 152.015 127.116 151.926 124.57C151.754 119.654 148.665 116.044 143.12 115.085C140.038 114.552 138.125 113.44 137.347 110.766C136.408 107.537 133.736 105.798 130.117 105.051C128.5 104.717 126.747 104.608 126.485 102.719C126.234 100.92 127.36 99.7287 128.958 98.8685C130.484 98.0477 132.196 97.4867 133.717 96.6608C137.57 94.5693 140.216 91.8712 139.752 87.5746C139.508 85.3175 139.601 83.0421 140.265 80.8096C141.421 76.9266 140.804 72.9527 141.074 69.024C141.206 67.1064 141.041 64.3395 143.051 63.952C145.507 63.4784 145.841 66.3552 146.728 67.974C149.213 72.5077 151.237 77.0687 151.274 82.3126C151.3 85.9478 152.706 89.5808 155.104 92.7558C156.506 94.612 156.955 96.5281 156.446 98.8316C155.712 102.149 156.048 105.545 157.413 108.733C159.845 114.413 159.894 120.435 160.816 126.318C161.923 133.377 161.351 140.636 164.17 147.495C164.39 148.028 164.283 148.677 164.24 149.268C164.226 149.464 163.937 149.646 163.457 150.201Z" fill="#181717"/>
    <path d="M140.744 80.9522L140.744 80.9522C141.342 78.9442 141.477 76.9254 141.501 74.94C141.51 74.2643 141.505 73.5982 141.501 72.9376C141.492 71.6337 141.484 70.3512 141.573 69.0583C141.592 68.7863 141.604 68.5094 141.617 68.232C141.653 67.4716 141.688 66.707 141.845 66.0268C142.055 65.1202 142.431 64.5806 143.145 64.443L143.051 63.9525L143.145 64.443C143.656 64.3445 144.012 64.4251 144.284 64.5847C144.571 64.7521 144.817 65.0364 145.046 65.4297C145.275 65.8239 145.464 66.2868 145.66 66.7805C145.674 66.8147 145.687 66.8492 145.701 66.8838C145.879 67.3325 146.067 67.8075 146.29 68.2143L146.718 67.9796L146.29 68.2143C148.765 72.7315 150.738 77.2015 150.774 82.3161C150.801 86.0784 152.255 89.8134 154.705 93.0572C156.022 94.7999 156.434 96.5672 155.957 98.7237C155.201 102.146 155.548 105.649 156.953 108.93L157.413 108.733L156.953 108.93C158.145 111.713 158.757 114.59 159.186 117.522C159.385 118.88 159.543 120.245 159.703 121.618C159.715 121.727 159.728 121.836 159.741 121.945C159.913 123.425 160.09 124.914 160.322 126.396C160.686 128.714 160.865 131.038 161.046 133.384C161.14 134.592 161.234 135.807 161.353 137.03C161.703 140.601 162.27 144.188 163.708 147.685L164.17 147.495L163.708 147.685C163.78 147.861 163.808 148.079 163.803 148.352C163.801 148.541 163.785 148.722 163.767 148.918C163.76 148.996 163.753 149.077 163.747 149.162C163.73 149.181 163.704 149.21 163.663 149.253C163.636 149.282 163.603 149.314 163.567 149.351C163.507 149.412 163.435 149.485 163.355 149.57C160.609 148.035 157.843 146.673 154.809 145.695C153.259 145.195 152.271 144.064 151.676 142.603C150.262 139.132 149.935 135.681 151.082 132.13C151.867 129.7 152.518 127.189 152.426 124.552C152.336 121.991 151.484 119.742 149.908 118.007C148.333 116.274 146.067 115.087 143.205 114.592C141.697 114.331 140.532 113.937 139.658 113.32C138.799 112.713 138.188 111.865 137.828 110.626C136.817 107.151 133.936 105.329 130.218 104.562C130.021 104.521 129.83 104.484 129.645 104.449C129.019 104.33 128.467 104.225 127.999 104.013C127.713 103.883 127.49 103.725 127.325 103.52C127.162 103.318 127.035 103.044 126.98 102.65C126.873 101.882 127.057 101.262 127.435 100.732C127.823 100.188 128.431 99.7199 129.195 99.3088C129.931 98.9131 130.714 98.5779 131.522 98.2321L131.536 98.2262C132.341 97.8816 133.171 97.5261 133.956 97.1003C135.913 96.0381 137.609 94.7982 138.756 93.2411C139.914 91.669 140.495 89.7957 140.249 87.5208C140.01 85.3127 140.103 83.1065 140.744 80.9522Z" stroke="white" stroke-opacity="0.41"/>
    <path d="M175.077 184.554C175.319 180.738 174.95 176.933 175.725 173.117C176.559 169.012 175.674 165.27 171.665 162.468C170.213 161.454 169.63 159.918 169.099 158.448C168.57 156.985 169.401 156.131 171.184 156.174C172.136 156.197 173.079 156.437 174.029 156.558C177.512 157.004 180.902 156.753 184.235 155.674C185.909 155.131 187.653 154.704 189.406 154.403C192.026 153.952 194.393 153.155 196.57 151.751C199.105 150.116 200.024 150.294 202.126 152.412C202.933 153.225 203.583 154.152 204.358 154.99C207.502 158.39 211.774 159.095 216.115 156.929C217.191 156.392 218.198 155.751 219.274 155.213C221.918 153.892 224.7 153.454 227.624 154.401C230.09 155.2 232.525 155.68 235.244 155.247C237.545 154.88 238.262 155.732 237.795 157.735C237.246 160.084 235.39 161.829 233.539 163.353C229.553 166.633 227.165 170.481 226.32 175.152C226.1 176.373 225.84 178.278 224.141 178.238C222.273 178.194 222.671 176.291 222.453 175.067C221.371 168.983 217.297 166.647 210.468 168.268C207.922 168.872 205.374 169.322 202.717 169.247C201.618 169.216 200.477 169.225 199.415 169.441C191.471 171.055 183.751 178.425 182.588 185.596C182.117 188.504 181.178 191.193 178.93 193.441C178.232 194.139 177.565 195.145 176.264 194.859C174.771 194.531 175.251 193.321 175.217 192.445C175.114 189.817 175.116 187.184 175.077 184.554Z" fill="#181717"/>
    <path d="M171.951 162.058L171.665 162.468L171.951 162.058C170.646 161.146 170.105 159.761 169.569 158.278C169.342 157.65 169.449 157.292 169.64 157.087C169.861 156.85 170.338 156.654 171.172 156.674C171.613 156.685 172.059 156.746 172.526 156.823C172.657 156.844 172.791 156.867 172.927 156.891C173.266 156.949 173.618 157.01 173.965 157.054C177.515 157.509 180.98 157.254 184.389 156.149C186.04 155.614 187.761 155.193 189.491 154.896C192.16 154.437 194.594 153.62 196.841 152.171C198.108 151.354 198.833 151.091 199.446 151.17C200.067 151.251 200.713 151.699 201.772 152.765C202.157 153.153 202.508 153.571 202.868 154.009C202.909 154.06 202.951 154.111 202.993 154.162C203.31 154.548 203.637 154.948 203.991 155.33C205.63 157.102 207.582 158.189 209.706 158.54C211.829 158.89 214.089 158.499 216.338 157.376C216.889 157.101 217.421 156.801 217.939 156.507L217.941 156.506C218.463 156.211 218.973 155.922 219.497 155.66C222.049 154.386 224.695 153.978 227.47 154.877L227.624 154.401L227.47 154.877C229.973 155.688 232.494 156.191 235.323 155.74L235.323 155.74C236.454 155.56 236.978 155.724 237.2 155.952C237.414 156.17 237.536 156.644 237.308 157.622L237.308 157.622C236.802 159.789 235.077 161.44 233.221 162.967C229.155 166.313 226.697 170.262 225.828 175.063C225.819 175.115 225.81 175.168 225.8 175.221C225.694 175.816 225.581 176.446 225.336 176.948C225.207 177.212 225.055 177.409 224.875 177.538C224.703 177.663 224.476 177.746 224.152 177.738C223.774 177.729 223.572 177.63 223.452 177.523C223.325 177.41 223.23 177.235 223.163 176.972C223.095 176.705 223.067 176.393 223.045 176.041C223.042 175.996 223.039 175.95 223.036 175.904C223.018 175.604 222.998 175.275 222.945 174.979C222.387 171.842 221.039 169.581 218.863 168.344C216.701 167.114 213.83 166.956 210.352 167.781C207.822 168.382 205.324 168.82 202.731 168.747C201.626 168.716 200.436 168.723 199.315 168.951C195.235 169.78 191.237 172.079 188.112 175.074C184.991 178.065 182.698 181.793 182.094 185.516C181.632 188.367 180.722 190.941 178.576 193.087L178.93 193.441L178.576 193.087C178.47 193.193 178.353 193.318 178.242 193.437C178.171 193.513 178.103 193.587 178.041 193.65C177.867 193.831 177.702 193.989 177.529 194.115C177.202 194.353 176.853 194.477 176.371 194.371C176.065 194.304 175.915 194.204 175.837 194.122C175.76 194.042 175.712 193.937 175.687 193.781C175.661 193.615 175.667 193.421 175.684 193.181C175.687 193.143 175.69 193.103 175.693 193.062C175.708 192.865 175.725 192.636 175.717 192.426C175.643 190.543 175.623 188.661 175.603 186.771C175.596 186.038 175.588 185.303 175.577 184.566C175.661 183.23 175.671 181.886 175.682 180.56C175.686 179.984 175.69 179.412 175.701 178.845C175.736 176.949 175.837 175.079 176.215 173.216C176.645 171.103 176.639 169.046 175.984 167.141C175.327 165.23 174.032 163.512 171.951 162.058Z" stroke="white" stroke-opacity="0.41"/>
    <path d="M73.8683 435.113C72.87 434.686 72.5237 434.196 72.242 433.632C70.111 429.365 67.4166 425.361 64.5911 421.422C61.5875 417.235 61.2783 412.436 60.6068 407.754C60.3201 405.755 62.0893 404.708 64.3983 405.152C66.306 405.519 67.9936 406.395 69.5436 407.352C72.16 408.968 74.6626 409.267 77.577 407.842C79.511 406.897 80.0652 407.358 80.2891 409.388C80.4513 410.859 80.0918 412.253 79.4829 413.58C77.7781 417.297 77.29 421.028 77.8994 425.05C78.4711 428.824 76.2697 432.077 73.8683 435.113Z" fill="#181717"/>
    <path d="M72.6893 433.409L72.6893 433.409C70.5401 429.105 67.827 425.075 64.9973 421.13C62.4313 417.553 61.8909 413.525 61.3346 409.379C61.259 408.815 61.1831 408.25 61.1017 407.683L60.6068 407.754L61.1017 407.683C60.9843 406.864 61.2799 406.298 61.8034 405.955C62.3571 405.591 63.2328 405.437 64.3039 405.643L64.3983 405.152L64.3039 405.643C66.1226 405.993 67.7488 406.831 69.2808 407.778L69.2809 407.778C70.6379 408.616 71.9944 409.13 73.4113 409.236C74.8309 409.342 76.2735 409.036 77.7965 408.291L77.7966 408.291C78.2641 408.063 78.6126 407.938 78.8723 407.892C79.1263 407.847 79.2472 407.885 79.3125 407.925C79.3832 407.969 79.4795 408.07 79.5727 408.328C79.6662 408.586 79.7376 408.949 79.7921 409.443L79.7921 409.443C79.9412 410.795 79.6138 412.095 79.0284 413.372L79.0284 413.372C77.2817 417.18 76.7815 421.01 77.405 425.125L77.8994 425.05L77.405 425.125C77.9223 428.54 76.0255 431.541 73.7223 434.489C73.4615 434.349 73.2783 434.209 73.1398 434.07C72.9474 433.878 72.8189 433.668 72.6893 433.409Z" stroke="white" stroke-opacity="0.41"/>
    <path d="M41.7648 368.743C44.4503 369.012 45.4906 370.458 46.9834 371.252C49.3977 372.536 51.661 372.992 54.3432 371.76C56.7797 370.641 59.3459 369.699 61.941 368.886C65.29 367.837 68.6886 367.788 72.0586 368.986C76.8996 370.708 81.7819 372.343 86.6247 374.061C89.6751 375.142 90.1431 376.08 88.8923 378.79C88.2804 380.115 87.4344 381.367 86.6109 382.611C86.1417 383.319 85.7059 384.1 84.4914 384.576C82.1984 382.438 79.2309 381.958 75.7718 381.716C71.0166 381.385 66.2894 380.288 62.2052 377.762C58.544 375.497 54.2486 374.311 49.8386 374.01C45.8486 373.738 43.664 371.976 41.7648 368.743Z" fill="#181717"/>
    <path d="M45.3003 372.075C44.3523 371.425 43.5442 370.551 42.7888 369.434C43.4931 369.622 44.0532 369.907 44.5543 370.224C44.8641 370.419 45.1479 370.625 45.4393 370.836C45.5004 370.88 45.5618 370.924 45.6239 370.969C45.9753 371.222 46.3435 371.478 46.7487 371.694C47.9891 372.353 49.2229 372.817 50.513 372.947C51.8104 373.077 53.1356 372.865 54.5518 372.214C56.9646 371.107 59.5103 370.171 62.0904 369.363C65.3465 368.344 68.6332 368.299 71.8911 369.458L72.0586 368.986L71.8911 369.458C74.3141 370.319 76.7471 371.159 79.1779 371.998L79.3507 372.057C81.7244 372.876 84.0959 373.694 86.4576 374.532C87.2081 374.798 87.7696 375.045 88.1774 375.299C88.5826 375.552 88.8052 375.792 88.9211 376.032C89.1516 376.509 89.0672 377.218 88.4383 378.58C87.8787 379.792 87.1146 380.945 86.3318 382.127C86.2859 382.196 86.2399 382.265 86.194 382.335C86.1588 382.388 86.1243 382.44 86.0901 382.493C85.7023 383.084 85.3568 383.612 84.5862 383.989C82.1907 381.91 79.1543 381.451 75.8065 381.218C71.1008 380.89 66.4608 379.806 62.4683 377.336C58.725 375.021 54.3473 373.817 49.8726 373.511C47.9484 373.38 46.4951 372.893 45.3003 372.075Z" stroke="white" stroke-opacity="0.41"/>
    <path d="M220.412 557.521C223.813 557.49 224.58 558.332 224.066 560.799C223.72 562.457 223.132 564.046 222.373 565.589C221.64 567.081 220.266 567.891 218.437 567.697C215.497 567.384 213.297 565.942 211.983 563.69C211.011 562.021 211.93 560.578 213.594 559.679C215.831 558.47 218.315 557.721 220.412 557.521Z" fill="#181717"/>
    <path d="M218.49 567.199L218.49 567.199C215.699 566.903 213.644 565.544 212.415 563.438C212.005 562.734 212.011 562.128 212.254 561.606C212.508 561.056 213.054 560.538 213.831 560.118L213.831 560.118C216.006 558.943 218.417 558.217 220.438 558.021C221.262 558.014 221.9 558.061 222.388 558.163C222.88 558.265 223.181 558.417 223.366 558.589C223.705 558.905 223.831 559.475 223.576 560.697L224.066 560.799L223.576 560.697C223.24 562.307 222.669 563.855 221.925 565.369C221.285 566.671 220.112 567.372 218.49 567.199Z" stroke="white" stroke-opacity="0.41"/>
    <path d="M92.8802 361.313C92.849 359.964 92.927 358.582 94.6384 358.004C96.388 357.412 98.1652 357.509 99.6635 358.615C101.052 359.64 101.523 360.904 100.788 362.446C100.047 364.002 99.1277 365.483 97.7818 366.683C96.4619 367.859 94.9208 367.615 94.176 366.125C93.4181 364.608 92.9088 363 92.8802 361.313Z" fill="#181717"/>
    <path d="M93.3802 361.304L93.3801 361.301C93.3644 360.623 93.3827 360.034 93.5715 359.552C93.7448 359.109 94.0765 358.722 94.7985 358.477L94.6386 358.004L94.7985 358.477C96.4315 357.925 98.0292 358.03 99.3665 359.018C100.007 359.491 100.387 359.983 100.545 360.486C100.699 360.979 100.661 361.55 100.337 362.231L100.337 362.231C99.6108 363.755 98.7262 365.171 97.4491 366.31C96.8724 366.824 96.302 366.982 95.8403 366.91C95.3851 366.839 94.9371 366.529 94.6233 365.901L94.176 366.125L94.6233 365.901C93.8876 364.429 93.4071 362.895 93.3802 361.304Z" stroke="white" stroke-opacity="0.41"/>
    <path d="M189.349 40.2966C189.162 41.4169 189.038 42.9592 188.615 44.4388C188.309 45.5106 187.489 46.0453 186.208 45.1198C183.981 43.5112 183.284 40.2518 184.691 37.9704C185.324 36.9457 186.181 36.1578 187.573 36.346C189.127 36.5561 189.192 37.7597 189.321 38.827C189.364 39.1794 189.338 39.5382 189.349 40.2966Z" fill="#181717"/>
    <path d="M188.134 44.3014L188.134 44.3014C188.002 44.7643 187.793 44.988 187.601 45.0604C187.421 45.1281 187.076 45.1298 186.501 44.7145C184.476 43.2523 183.854 40.2811 185.117 38.2329C185.413 37.7525 185.739 37.3685 186.119 37.1235C186.485 36.887 186.928 36.7633 187.506 36.8415L187.506 36.8415C187.832 36.8855 188.047 36.9769 188.196 37.0815C188.344 37.1849 188.451 37.3186 188.533 37.4858C188.698 37.8211 188.747 38.238 188.808 38.7478C188.814 38.7934 188.819 38.8399 188.825 38.887L188.825 38.8871C188.848 39.0827 188.848 39.2656 188.846 39.5661C188.845 39.7458 188.844 39.9675 188.848 40.2591C188.795 40.586 188.747 40.9342 188.698 41.2974C188.57 42.2353 188.428 43.2732 188.134 44.3014Z" stroke="white" stroke-opacity="0.41"/>
    <path d="M78.1245 463.892C82.4429 467.649 82.6957 469.198 79.8939 472.951C77.7723 470.054 77.516 468.836 78.1245 463.892Z" fill="#181717"/>
    <path d="M78.476 469.092C78.272 468.057 78.3012 466.821 78.5098 464.905C79.2323 465.565 79.7995 466.145 80.2267 466.678C80.7846 467.373 81.0824 467.962 81.1881 468.517C81.375 469.497 80.9911 470.535 79.8967 472.095C79.1067 470.958 78.6759 470.107 78.476 469.092Z" stroke="white" stroke-opacity="0.41"/>
    </g>
    </g>
    <rect x="0.5" y="0.5" width="357" height="628" stroke="white"/>
    <defs>
    <clipPath id="clip0_46_823">
    <rect width="358" height="629" fill="white"/>
    </clipPath>
    <clipPath id="clip1_46_823">
    <rect width="806.305" height="856.913" fill="white" transform="translate(553.818 -79) rotate(89.1487)"/>
    </clipPath>
    </defs>
</svg>