<svg preserveAspectRatio="none" width="358" height="629" viewBox="0 0 358 629" fill="none" xmlns="http://www.w3.org/2000/svg">
    <g clip-path="url(#clip0_46_1615)">
    <rect width="358" height="629" fill="#171616"/>
    <path d="M184.829 283.538L254.126 369.429L163.778 306.04L163.074 305.547L163.403 306.341L205.677 408.29L136.869 322.007L136.333 321.335L136.425 322.19L148.251 431.939L106.557 329.75L106.232 328.954L106.08 329.801L86.4988 438.457L75.2973 328.643L75.21 327.787L74.825 328.557L25.4244 427.318L45.6221 318.775L45.7796 317.929L45.1932 318.559L-30.0247 399.425L19.9357 300.945L20.3253 300.177L19.585 300.617L-75.3565 357.036L0.319145 276.599L0.909168 275.971L0.0750332 276.185L-106.899 303.586L-11.6384 247.707L-10.8958 247.272L-11.7562 247.242L-122.096 243.406L-14.9681 216.612L-14.1333 216.403L-14.9501 216.132L-119.717 181.369L-9.40041 185.832L-8.54093 185.867L-9.24789 185.377L-99.954 122.503L4.61371 157.861L5.4283 158.136L4.88835 157.467L-64.4086 71.5762L25.9389 134.964L26.6427 135.458L26.3134 134.664L-15.9601 32.7144L52.8475 118.998L53.3837 119.67L53.2916 118.815L41.4664 9.06628L83.1597 111.254L83.4846 112.051L83.6372 111.204L103.218 2.54759L114.42 112.362L114.507 113.218L114.892 112.448L164.293 13.6864L144.095 122.23L143.937 123.076L144.524 122.446L219.742 41.58L169.781 140.059L169.392 140.827L170.132 140.388L265.073 83.9687L189.398 164.406L188.808 165.033L189.642 164.82L296.616 137.418L201.355 193.297L200.613 193.733L201.473 193.763L311.813 197.599L204.685 224.393L203.85 224.602L204.667 224.873L309.434 259.635L199.117 255.173L198.258 255.138L198.965 255.628L289.671 318.502L185.103 283.144L184.289 282.869L184.829 283.538Z" fill="#E2B63F" stroke="white" stroke-width="0.5"/>
    <g clip-path="url(#clip1_46_1615)">
    <mask id="path-5-inside-1_46_1615" fill="white">
    <path d="M434.252 896.448C436.131 894.74 438.087 892.684 440.35 890.976C443.318 888.735 444.811 884.992 446.717 881.698C448.266 879.021 450.439 877.071 452.511 874.982C453.515 873.971 455.469 874.3 457.54 874.933C463.385 876.721 467.046 875.873 467.616 871.057C468.059 867.317 470.576 865.657 472.906 863.855C475.478 861.866 476.679 858.615 477.234 854.709C477.467 853.072 477.621 851.327 478.309 850.123C479.996 847.167 483.233 846.474 489.623 850.723C492.051 852.338 494.472 853.892 496.876 855.382C499.447 856.975 501.447 857.338 502.051 855.959C502.743 854.381 501.524 851.542 499.049 848.502C496.984 845.964 494.749 843.301 492.42 841.124C487.329 836.364 484.765 831.862 483.909 827.722C483.179 824.195 481.27 820.449 478.519 816.316C475.649 812.005 473.212 807.782 471.225 803.637C467.255 795.356 461.149 788.206 453.182 781.816C442.422 773.185 438.894 768.1 436.916 758.558C436.433 756.23 436.043 753.932 435.99 751.906C435.883 747.776 433.863 742.935 430.223 737.163C421.954 724.052 413.232 710.985 403.158 698.002C400.148 694.122 397.762 690.374 396.098 686.706C393.767 681.569 394.168 679.067 397.979 679.675C407.536 681.199 412.131 677.144 413.072 668.889C413.5 665.136 415.371 662.849 417.819 661.154C419.959 659.673 420.504 656.944 419.182 652.556C417.473 646.882 417.312 642.235 417.291 637.731C417.268 632.99 418.727 629.738 422.855 628.985C426.144 628.385 427.313 625.53 424.521 619.505C421.4 612.769 421.788 608.012 419.49 601.708C416.658 593.938 414.279 586.386 411.737 578.757C409.856 573.11 406.703 567.154 402.169 560.811C398.92 556.265 396.019 551.726 394.097 547.383C391.178 540.789 390.008 535.459 393.441 533.511C394.529 532.894 395.186 531.761 396.325 531.21C399.096 529.871 400.114 527.092 398.511 521.894C396.758 516.211 400.154 515.396 402.838 514.067C404.071 513.457 405.471 513.025 406.652 512.327C408.489 511.242 408.98 509.097 407.302 505.177C404.924 499.621 405.686 496.428 407.378 494.061C409.474 491.129 409.996 486.991 408.45 481.156C406.29 473.006 405.286 465.634 405.074 458.795C404.972 455.485 404.11 451.885 401.382 447.097C398.4 441.862 399.678 440.851 404.589 444.173C406.77 445.648 409.033 447.547 411.238 449.394C414.129 451.815 416.984 454.11 419.858 455.875C425.135 459.116 428.2 459.44 428.951 456C430.023 451.09 433.527 448.762 436.518 445.867C437.551 444.865 439.559 445.383 441.392 445.583C446.688 446.161 447.154 443.681 442.829 436.398C440.284 432.113 437.942 427.947 436.313 423.911C435.623 422.201 434.502 420.107 433.123 418.323C424.92 407.712 416.678 397.226 405.731 389.834C398.827 385.172 395.906 381.488 393.23 374.719C391.732 370.928 389.678 367.032 387.424 363.012C384.103 357.089 384.378 355.821 387.21 354.255C390.472 352.451 390.632 347.698 390.838 343.068C391.023 338.892 390.789 334.385 390.935 330.176C391.139 324.31 393.32 320.228 395.571 316.224C396.341 314.854 396.557 313.03 395.995 310.629C394.835 305.678 393.605 300.681 392.214 295.595C390.828 290.529 387.092 285.38 381.722 280.95C377.396 277.382 374.215 273.658 371.359 269.106C367.33 262.687 364.178 259.839 358.965 258.116C353.032 256.155 347.03 254.186 343.71 256.53C342.815 257.161 341.558 257.394 340.328 257.622C337.476 258.149 335.793 256.814 333.735 252.254C332.764 250.103 331.911 248.108 329.518 246.336C327.41 244.775 326.439 245.325 325.834 246.1C323.219 249.447 318.546 250.421 315.596 253.383C311.852 257.142 305.437 257.669 300.842 260.421C288.756 267.657 276.325 274.49 272.899 290.968C272.488 292.945 271.703 294.628 270.73 296.081C268.511 299.393 268.359 304.379 269.071 310.089C269.607 314.392 271.37 319.252 274.649 324.886C277.394 329.603 279.912 334.287 282.385 338.948C286.022 345.802 290.37 352.648 296.005 359.493C298.524 362.553 300.834 365.595 302.317 368.65C305.807 375.837 301.956 377.94 295.019 372.5C292.609 370.61 290.205 368.227 287.818 366.019C277.002 356.014 262.379 349.811 257.158 353.179C254.864 354.66 252.607 356.226 250.934 358.377C247.01 363.422 248.452 372.529 252.334 383.326C253.256 385.889 254.928 388.795 257.164 391.728C263.453 399.979 263.555 404.754 261.385 407.969C260.128 409.831 258.597 411.624 256.145 412.016C252.195 412.646 251.377 416.193 251.111 420.281C250.646 427.417 247.367 432.086 247.183 439.477C247.108 442.498 243.661 441.652 240.22 440.397C234.103 438.166 228.468 436.752 223.832 437.133C218.002 437.611 217.204 440.467 222.098 449.684C226.408 457.802 226.703 462.549 221.884 463.27C217.509 463.924 216.678 467.963 216.311 472.499C215.679 480.305 212.668 485.771 207.134 488.686C204.364 490.146 201.043 490.955 197.753 491.771C196.68 492.037 195.767 492.44 195.01 493.065C192.162 495.418 188.929 497.226 183.907 496.879C180.283 496.629 178.888 498.881 180.352 503.754C180.539 504.376 180.636 504.948 180.801 505.558C183.606 515.899 181.076 515.786 173.679 513.154C171.138 512.25 168.914 511.937 167.353 512.647C164.345 514.014 161.198 515.211 158.286 516.693C155.442 518.139 155.457 522.122 156.144 526.689C157.046 532.674 157.653 538.384 154.89 541.468C153.083 543.485 150.601 544.395 146.263 542.786C138.12 539.767 132.429 540.478 127.558 542.375C124.64 543.512 122.671 545.713 122.159 549.407C121.261 555.885 116.618 557.142 107.11 552.157C99.306 548.066 97.2239 548.821 98.9866 556.086C100.776 563.464 97.5111 564.896 91.9601 564.2C91.4531 564.137 90.9187 564.034 90.3629 563.884C78.3062 560.636 75.3169 567.442 74.882 577.125C74.7884 579.209 75.8108 581.727 77.546 584.638C78.5304 586.29 79.6091 587.957 80.6657 589.618C84.7684 596.07 86.2936 600.874 84.29 603.858C83.4622 605.092 82.8121 606.537 81.9114 607.721C79.3333 611.108 80.3888 616.693 86.0512 625.043C87.0198 626.471 87.9399 627.918 89.0101 629.323C96.0469 638.562 102.249 647.842 108.084 657.122C112.144 663.577 116.592 669.896 121.839 676.208C130.088 686.129 137.96 696.203 147.979 704.514C154.031 709.535 158.233 715.515 156.599 720.508C153.764 729.166 155.735 741.369 155.897 752.238C155.959 756.384 155.122 759.603 152.758 761.421C150.258 763.344 149.032 766.36 149.34 770.869C149.604 774.74 148.818 777.766 148.063 780.803C147.145 784.496 147.318 788.845 151.04 795.493C153.585 800.037 154.103 803.453 152.7 805.322C150.893 807.73 150.007 810.973 148.753 813.887C148.031 815.565 146.819 816.975 144.958 817.331C142.337 817.833 141.243 819.927 140.881 822.467C140.183 827.365 138.659 831.635 139.505 837.793C139.927 840.871 139.198 842.708 136.754 843.052C131.299 843.822 128.497 847.729 124.961 850.741C122.295 853.013 122.734 857.974 125.466 864.216C129.111 872.54 129.911 878.675 127.557 882.721C126.708 884.18 126.901 886.513 126.995 888.73C127.207 893.738 125.044 895.981 119.704 894.802C117.381 894.289 115.325 894.258 113.183 894.064C108.305 893.624 105.569 891.538 101.796 884.566C96.8317 875.393 89.6312 867.724 81.6604 860.291C75.3076 854.366 69.7784 851.521 64.8825 850.794C60.4353 850.134 56.2479 849.889 51.5829 848.891C46.6942 847.845 45.6276 850.647 47.6577 856.496C48.1038 857.781 48.5494 859.07 49.0883 860.397C51.4051 866.105 51.3978 869.978 48.2195 871.181C44.8211 872.466 42.4334 874.965 38.6204 875.756C34.2091 876.67 27.4725 873.139 21.6074 871.256C19.6566 870.63 17.8024 868.353 16.3727 865.966C9.86249 855.097 1.16191 845.96 -8.71877 837.576C-12.7267 834.175 -16.3548 830.044 -19.8488 825.81C-25.6927 818.729 -31.91 812.306 -38.9 807.665C-47.6177 801.877 -55.5916 793.661 -63.4836 785.303C-66.594 782.009 -69.6883 778.652 -72.6359 775.225C-81.0862 765.398 -90.0024 756.865 -99.5941 749.902C-101.614 748.435 -103.582 746.686 -105.498 744.7C-112.143 737.814 -119.007 732.633 -125.922 727.697C-132.135 723.262 -138.353 718.823 -144.576 714.176C-149.933 710.176 -155.268 705.839 -159.839 699.775C-161.952 696.97 -164.115 695.37 -165.631 695.869C-167.906 696.619 -170.011 697.66 -168.92 701.711C-167.832 705.751 -167.718 709.244 -165.305 714.049C-164.655 715.345 -164.469 716.602 -164.473 717.567C-164.481 719.441 -165.769 719.821 -168.355 718.067C-170.585 716.555 -172.305 714.323 -172.949 712.25C-174.439 707.451 -176.11 702.517 -176.969 698.109C-177.592 694.912 -178.469 691.712 -180.868 687.845C-184.141 682.571 -184.781 678.906 -183.901 676.182C-182.831 672.87 -182.065 669.444 -184.585 663.451C-185.487 661.305 -185.02 659.875 -184.428 658.668C-183.674 657.131 -183.093 655.34 -186.152 651.512C-189.182 647.718 -191.823 646.242 -194.683 645.64C-200.221 644.475 -202.139 642.614 -205.714 635.455C-207.678 631.523 -209.287 627.779 -210.045 624.344C-210.812 620.868 -210.61 618.434 -208.886 617.026C-205.245 614.052 -205.652 612.867 -212.552 603.339C-218.775 594.746 -222.401 587.34 -221.509 581.739C-221.264 580.203 -220.668 579.142 -219.471 578.624C-216.488 577.334 -217.106 570.046 -220.52 564.333C-222.524 560.98 -225.176 558.817 -227.789 557.148C-233.67 553.393 -239.391 550.401 -245.472 545.686C-246.908 544.574 -248.429 544.138 -249.787 543.655C-254.937 541.825 -255.129 542.915 -250.21 549.126C-246.65 553.621 -245.016 557.113 -245.364 559.946C-245.68 562.521 -245.836 565.251 -246.561 567.458C-247.158 569.275 -248.175 571.162 -251.46 569.311C-255.522 567.023 -259.564 564.563 -263.267 563.346C-264.711 562.871 -266.12 561.261 -267.279 559.282C-270.824 553.229 -271.359 547.542 -267.837 546.761C-265.911 546.334 -264.415 545.515 -263.429 544.039C-261.733 541.498 -261.24 538.592 -267.063 531.542C-271.128 526.621 -271.418 522.599 -271.932 518.881C-272.134 517.414 -271.839 516.269 -272.197 514.718C-272.783 512.176 -274.287 509.478 -277.527 506.857C-279.296 505.427 -281.054 503.714 -282.815 502.375C-287.432 498.862 -290.413 494.646 -292.184 490.472C-294.168 485.794 -296.032 481.169 -298.151 476.43C-299.611 473.164 -299.476 470.83 -298.929 468.963C-296.873 461.944 -301.839 452.036 -311.412 440.738C-318.119 432.823 -323.537 424.749 -329.715 416.8C-332.898 412.706 -334.472 409.201 -334.844 406.167C-335.3 402.447 -336.354 398.52 -338.935 393.654C-342.441 387.042 -340.774 384.576 -337.257 383.872C-335.91 383.602 -334.182 383.833 -332.547 383.964C-328.884 384.259 -325.962 383.628 -324.192 381.465C-320.792 377.31 -314.385 376.744 -309.901 373.872C-307.922 372.603 -304.201 373.944 -300.131 376.599C-292.253 381.737 -288.582 380.867 -287.659 376.069C-287.172 373.541 -284.62 373.613 -282.41 373.288C-277.97 372.635 -275.567 370.155 -276.719 363.862C-277.661 358.718 -275.989 355.609 -272.647 354.648C-269.37 353.706 -268.195 350.874 -267.44 347.544C-266.655 344.081 -264.74 342.039 -261.138 341.64C-257.543 341.242 -254.66 339.884 -252.436 337.755C-250.751 336.142 -248.851 334.823 -246.224 334.277C-243.792 333.772 -241.941 332.36 -241.417 329.775C-240.818 326.813 -238.846 325.403 -236.863 323.939C-235.282 322.771 -233.409 321.878 -233.668 318.86C-234.24 312.199 -231.933 308.455 -226.934 307.254C-223.504 306.43 -220.623 304.88 -217.491 303.662C-217.008 303.474 -216.619 303.117 -215.966 303.2C-214.647 303.369 -213.303 303.105 -211.396 305.065C-208.874 307.657 -209.406 309.171 -209.795 310.192C-211.573 314.853 -212.702 320.028 -212.469 326.4C-212.379 328.862 -214.27 329.358 -215.991 330.036C-221.283 332.12 -226.617 334.163 -228.638 339.976C-229.367 342.074 -229.555 344.545 -229.167 347.485C-228.529 352.313 -228.481 356.608 -230.28 359.474C-232.886 363.628 -229.668 371.405 -225.331 379.718C-223.033 384.12 -220.386 388.641 -217.662 393.139C-208.919 407.576 -194.793 420.682 -183.35 424.156C-171.459 427.767 -160.268 430.011 -153.874 425.056C-151.68 423.356 -147.907 423.872 -143.967 424.687C-142.008 425.093 -139.909 425.743 -137.987 426.087C-131.574 427.235 -129.894 425.25 -133.351 417.069C-136.147 410.454 -132.289 409.604 -127.276 412.482C-120.821 416.189 -114.32 420.061 -107.869 423.753C-105.981 424.833 -104.362 426.383 -102.718 428.216C-100.884 430.261 -99.4058 432.331 -97.9474 434.523C-90.8461 445.198 -90.8238 445.163 -96.6783 446.929C-100.048 447.946 -100.247 451.62 -97.7839 457.438C-96.2733 461.005 -94.6876 464.604 -93.1405 468.187C-91.5533 471.863 -91.3514 474.884 -93.7791 474.778C-102.304 474.407 -103.37 481.759 -105.648 487.937C-106.485 490.208 -107.831 492.014 -109.085 493.889C-110.152 495.485 -111.701 496.703 -114.742 495.565C-123.811 492.173 -127.237 496.128 -129.192 501.17C-131.856 508.047 -136.771 512.4 -141.69 516.819C-146.631 521.259 -149.324 527.942 -152.628 534.017C-153.175 535.022 -153.68 536.183 -153.505 537.76C-152.564 546.24 -155.244 551.538 -157.125 557.618C-159.4 564.973 -161.072 572.913 -160.209 582.968C-159.678 589.149 -160.443 594.4 -160.494 600.172C-160.56 607.675 -156.327 617.276 -150.045 627.705C-142.387 640.421 -131.591 648.383 -124.825 646.244C-119.4 644.529 -114.392 642.254 -110.802 638.358C-108.065 635.389 -104.375 633.935 -98.0813 635.651C-91.3383 637.489 -88.1737 634.759 -87.9149 629.001C-87.7731 625.844 -86.7847 623.635 -84.8662 622.236C-82.1142 620.23 -80.8343 616.907 -81.882 611.495C-82.4659 608.48 -81.642 606.73 -80.0928 605.622C-75.3728 602.245 -74.4058 595.765 -77.4309 585.882C-78.7951 581.426 -78.5743 578.062 -76.6947 576.184C-74.0528 573.544 -73.856 568.963 -75.8407 562.692C-77.3029 558.073 -76.6441 555.624 -73.1896 555.607C-69.2882 555.588 -66.5081 554.146 -63.9214 552.414C-61.7623 550.969 -58.6678 550.763 -54.5793 551.96C-49.4277 553.468 -45.4312 553.459 -43.8974 549.829C-42.7883 547.203 -38.7198 548.113 -34.9347 548.956C-28.2037 550.456 -23.6612 549.12 -21.343 544.957C-20.1009 542.726 -19.3874 540.008 -19.119 536.869C-18.483 529.433 -10.2423 528.524 0.062882 534.476C9.48534 539.918 15.1565 539.83 14.9596 532.074C14.7388 523.377 18.0687 517.677 17.3266 508.61C17.0903 505.724 18.1955 504.064 19.61 502.643C21.9376 500.306 23.7612 497.249 26.4609 495.514C30.9971 492.599 33.1478 487.302 37.0839 483.85C38.9748 482.192 40.3514 482.393 45.5317 486.91C53.3654 493.741 58.9637 495.974 62.8375 493.897C63.2722 493.664 64.2071 493.994 64.5018 493.635C65.6436 492.244 67.8516 492.244 70.0269 492.287C75.0817 492.387 77.9648 490.047 79.5755 486.166C80.6261 483.634 82.8028 482.825 88.0195 486.702C95.4891 492.254 99.083 491.486 100.796 487.859C104.483 480.053 107.178 471.365 107.324 460.449C107.403 454.595 108.566 449.808 112.854 447.958C113.674 447.604 114.121 446.795 114.803 446.267C117.453 444.219 116.528 439.942 112.515 433.492C107.082 424.759 106.859 423.141 112.318 422.647C118.281 422.107 120.687 417.782 122.872 413.203C124.268 410.28 125.721 407.565 128.452 405.956C132.523 403.557 135.796 400.193 137.68 395.409C139.796 390.033 143.138 385.915 147.138 382.465C149.65 380.299 151.881 377.821 154.268 375.515C155.679 374.151 157.291 373.086 159.561 372.683C164.281 371.844 167.045 368.795 169.469 365.2C172.758 360.322 176.448 355.849 179.396 350.611C180.327 348.956 181.759 347.667 183.681 347.149C186.203 346.469 187.902 344.915 189.599 343.327C190.667 342.329 191.689 341.317 192.246 339.733C193.008 337.565 194.67 336.217 196.867 335.566C200.173 334.586 202.801 332.937 204.855 330.408C209.218 325.039 214.349 320.468 220.708 317.271C224.323 315.454 227.012 312.482 228.232 308.158C229.502 303.656 233.463 302.259 237.431 300.982C241.761 299.589 243.795 296.026 244.726 291.291C246.284 283.373 251.08 278.903 257.459 276.101C259.832 275.058 261.912 273.627 263.1 271.392C265.716 266.471 270.59 264.479 277.49 264.904C281.931 265.178 283.456 262.151 284.608 258.859C286.312 253.991 287.215 248.402 287.418 242.238C287.471 240.605 287.419 238.92 286.412 236.585C284.31 231.713 280.559 227.719 275.893 225.228C271.225 222.736 268.607 223.525 266.483 224.734C263.014 226.708 258.966 228.019 256.423 231.089C254.093 233.9 249.657 234.099 245.556 234.647C242.747 235.022 240.274 232.793 237.147 228.045C234.154 223.501 233.52 220.218 234.056 217.81C235.38 211.862 238.217 207.37 243.18 205.164C248.839 202.648 252.898 198.437 256.118 193.248C257.913 190.355 259.755 187.502 261.806 184.853C267.644 177.319 275.291 171.651 279.122 162.038C279.923 160.028 281.655 158.969 283.515 158.128C289.362 155.482 293.844 151.366 297.087 145.85C297.984 144.325 299.231 143.01 301.061 142.585C303.376 142.048 304.959 140.708 306.536 139.375C310.472 136.049 314.798 133.204 320.059 131.453C320.184 131.412 320.277 131.327 320.357 131.234C325.839 124.839 335.085 122.725 340.452 116.185C342.185 114.073 343.553 111.621 344.776 109.03C347.484 103.297 351.889 99.4965 357.662 97.1072C361.337 95.5866 364.369 93.25 367.365 90.9121C369.607 89.1622 372.53 88.2678 375.218 87.0842C381.55 84.2964 387.528 81.1019 392.144 76.3297C394.614 73.7767 395.926 70.0313 398.718 67.7734C400.451 66.373 403.294 66.367 404.651 64.5401C408.423 59.464 412.889 55.0968 415.168 48.5047C416.418 44.8885 418.31 41.916 421.021 39.7491C432.947 30.2161 443.351 18.9982 455.08 9.25703C460.614 4.6607 465.898 -0.33985 473.425 -2.65962C478.836 -4.32741 482.628 -2.34869 490.896 7.01989C497.36 14.3436 503.751 20.3904 510.856 24.4457C513.45 25.9268 516.097 28.2934 518.745 30.8992C526.235 38.2683 532.299 41.1213 536.93 40.0769C539.462 39.5056 541.851 38.743 544.303 38.0644C545.14 37.833 546.187 37.9855 547.648 39.6575C549.049 41.2605 549.193 42.4799 548.903 43.2331C548.568 44.1017 547.825 44.5862 547.325 45.3045C542.806 51.7964 536.778 56.6604 531.063 61.8601C529.335 63.4317 528.459 65.8112 530.745 70.2583C536.061 80.6036 533.542 84.8573 531.18 89.3196C528.332 94.7006 523.438 97.9098 519.675 102.319C518.8 103.344 517.668 104.048 517.473 105.824C516.998 110.15 519.227 114.747 525.151 120.983C530.668 126.792 534.757 128.911 538.251 127.592C543.218 125.717 547.116 122.539 552.547 121.205C554.456 120.737 555.807 119.345 556.248 117.13C556.388 116.43 556.769 115.923 557.175 115.47C557.859 114.706 558.943 114.355 560.89 115.728C562.949 117.179 564.045 119.207 564.768 121.047C566.149 124.562 567.797 128.232 568.743 131.508C570.632 138.047 569.625 142.429 568.196 146.376C567.607 148.002 566.092 148.7 563.31 147.782C561.024 147.027 558.915 146.899 558.043 148.144C556.199 150.773 553.257 151.897 548.986 151.463C545.447 151.104 545.275 154.092 546.285 158.091C546.487 158.891 546.88 159.803 547.176 160.659C550.358 169.861 549.961 170.599 541.935 167.994C534.904 165.711 531.035 166.058 534.39 176.875C536.335 183.144 538.661 189.591 539.212 195.052C539.476 197.668 541.21 201.061 543.323 204.373C550.36 215.401 549.804 221.709 547.133 226.05C544.571 230.213 544.786 235.439 550.164 244.736C552.83 249.344 554.335 253.801 555.96 258.136C557.385 261.939 556.591 262.339 552.71 259.58C546.641 255.266 541.567 253.067 537.202 252.839C535.196 252.733 532.585 251.216 529.898 249.462C517.498 241.367 510.92 242.286 508.093 248.76C507.125 250.977 505.196 252.123 503.827 253.884C500.766 257.82 500.466 263.584 505.383 273.225C507.819 278.002 508.703 281.913 507.807 284.664C506.666 288.166 507.272 292.817 509.741 298.815C510.82 301.435 511.418 303.901 511.823 306.17C512.452 309.701 513.954 313.547 516.435 317.893C519.092 322.547 519.274 325.375 517.505 327.128C514.587 330.019 510.528 331.371 505.588 331.713C502.273 331.943 498.515 330.804 493.46 326.875C487.396 322.162 482.939 320.654 479.551 321.896C476.744 322.925 473.121 322.962 471.444 325.35C468.287 329.844 462.149 330.51 454.496 328.664C443.823 326.09 440.124 330.49 441.018 340.621C441.562 346.789 440.229 351.586 441.398 358.3C441.772 360.447 440.785 361.77 440.057 363.114C439.227 364.647 439.403 366.907 439.909 369.426C440.972 374.72 444.558 380.021 450.533 385.331C454.113 388.513 457.683 391.198 461.09 392.906C466.814 395.777 472.856 400.134 478.728 403.71C482.701 406.129 483.48 407.464 484.703 411.425C486.21 416.308 483.526 417.39 482.408 419.818C481.389 422.031 479.538 423.503 476.778 423.932C472.819 424.546 470.816 427.322 469.792 431.23C468.29 436.958 465.88 441.85 467.771 450.405C468.978 455.866 472.559 461.049 478.124 466.465C479.816 468.112 481.643 469.559 483.416 470.972C485.855 472.916 488.305 474.678 490.743 476.633C494.547 479.685 496.005 481.788 496.05 484.686C496.081 486.681 495.688 488.391 495.115 489.884C494.365 491.842 494.312 494.31 495.813 497.747C498.99 505.021 498.303 509.424 496.465 512.86C494.883 515.819 495.242 519.939 496.673 525.226C498.896 533.435 497.172 538.427 492.068 540.161C489.584 541.005 486.695 541.288 484.838 542.975C482.102 545.461 482.294 549.827 486.64 556.955C490.75 563.696 498.847 571.12 505.111 574.042C507.567 575.188 509.704 575.505 512.138 576.576C514.452 577.594 516.881 577.626 519.492 581.251C521.722 584.345 521.746 586.621 521.238 588.194C519.791 592.677 517.352 596.132 512.53 596.986C507.893 597.807 503.028 594.53 497.089 586.58C495.323 584.216 493.633 581.83 491.808 579.487C485.728 571.681 480.206 568.188 475.45 568.733C471.494 569.186 469.181 571.523 469.692 576.22C470.66 585.118 464.657 586.418 460.094 589.537C454.44 593.401 449.156 597.736 450.029 608.229C450.795 617.44 465.649 639.722 477.794 649.766C481.827 653.101 485.32 655.075 488.49 655.831C492.48 656.783 496.5 657.787 499.993 657.857C503.153 657.92 506.783 658.767 510.803 660.355C516.678 662.677 520.423 666.095 523.973 672.8C528.037 680.476 531.935 688.12 535.581 695.669C538.378 701.461 537.008 701.814 531.187 697.21C527.648 694.412 524.108 691.3 520.579 688.664C509.765 680.586 504.187 680.092 502.787 686.917C502.437 688.624 502.159 690.402 502.048 692.307C501.779 696.95 499.65 699.436 494.521 698.712C490.76 698.181 489.205 700.411 488.196 703.042C486.933 706.333 490.102 713.049 495.545 719.477C499.531 724.184 503.84 728.134 508.37 731.726C512.592 735.072 516.794 738.615 520.777 742.871C527.876 750.457 529.722 754.072 528.79 758.985C528.354 761.286 527.659 763.367 526.982 765.457C525.488 770.065 527.175 776.522 532.129 784.826C535.427 790.354 537.938 795.59 539.605 800.522C541.046 804.787 544.086 809.279 547.426 813.793C550.082 817.383 552.59 820.958 554.382 824.46C557.64 830.832 557.043 834.084 551.947 832.652C544.073 830.438 536.467 828.579 530.212 829.089C528.54 829.225 526.223 828.046 523.651 826.222C521.662 824.811 519.626 823.45 517.738 822.46C513.082 820.018 510.73 822.256 512.773 827.135C513.509 828.895 514.542 830.817 515.67 832.698C523.473 845.712 526.252 855.537 521.941 861.13C520.418 863.106 520.518 866.587 521.179 870.414C521.542 872.513 522.084 874.825 523.811 877.496C529.175 885.793 534.627 894.099 540.2 902.401C544.01 908.076 548.467 911.487 553.122 913.484C558.386 915.743 559.506 916.806 561.774 922.405C564.15 928.269 567.747 933.953 573.414 939.663C578.022 944.305 580.823 948.692 582.247 953.296C583.271 956.606 585.164 960.375 586.45 963.836C590.885 975.771 589.39 980.312 580.297 979.253C571.281 978.203 569.887 984.952 569.502 992.699C569.266 997.445 568.93 1002.05 564.867 1002.93C561.7 1003.61 559.601 1005.43 557.391 1007.19C555.725 1008.52 554.836 1010.53 554.696 1013.3C554.331 1020.5 551.187 1024.5 542.404 1022.18C540.067 1021.56 538.03 1021.7 536.431 1022.23C532.939 1023.39 534.39 1028.46 539.796 1034.93C540.545 1035.83 541.367 1036.7 542.178 1037.55C549.817 1045.59 550.315 1047.02 546.209 1049.24C543.078 1050.93 539.009 1051.26 533.847 1050.04C526.743 1048.37 520.13 1047.44 515.407 1049.43C513.619 1050.19 511.06 1049.87 508.644 1049.74C505.653 1049.58 503.614 1050.49 503.566 1053.69C503.51 1057.42 501.492 1058.75 497.014 1057.37C493.578 1056.3 491.175 1056.95 488.982 1057.78C487.862 1058.21 486.525 1058.27 484.939 1057.98C480.389 1057.14 477.871 1055.08 474.325 1048.86C472.132 1045.01 469.523 1041.25 466.631 1037.5C462.917 1032.7 461.477 1028.88 462.141 1026.25C463.042 1022.69 462.597 1018.37 459.926 1012.48C459.432 1011.39 459.225 1010.34 459.208 1009.51C459.095 1004.08 456.815 997.748 452.293 990.026C449.687 985.575 449.706 982.001 449.732 978.9C449.778 973.613 448.614 967.433 449.298 962.62C449.812 958.998 447.736 954.226 442.687 948.598C439.838 945.422 438.214 942.515 437.193 939.628C435.884 935.929 433.75 932.06 431.198 927.938C424.252 916.72 420.846 906.785 426.941 903.067C429.712 901.377 432.156 899.316 434.252 896.448Z"/>
    </mask>
    <path d="M434.252 896.448C436.131 894.74 438.087 892.684 440.35 890.976C443.318 888.735 444.811 884.992 446.717 881.698C448.266 879.021 450.439 877.071 452.511 874.982C453.515 873.971 455.469 874.3 457.54 874.933C463.385 876.721 467.046 875.873 467.616 871.057C468.059 867.317 470.576 865.657 472.906 863.855C475.478 861.866 476.679 858.615 477.234 854.709C477.467 853.072 477.621 851.327 478.309 850.123C479.996 847.167 483.233 846.474 489.623 850.723C492.051 852.338 494.472 853.892 496.876 855.382C499.447 856.975 501.447 857.338 502.051 855.959C502.743 854.381 501.524 851.542 499.049 848.502C496.984 845.964 494.749 843.301 492.42 841.124C487.329 836.364 484.765 831.862 483.909 827.722C483.179 824.195 481.27 820.449 478.519 816.316C475.649 812.005 473.212 807.782 471.225 803.637C467.255 795.356 461.149 788.206 453.182 781.816C442.422 773.185 438.894 768.1 436.916 758.558C436.433 756.23 436.043 753.932 435.99 751.906C435.883 747.776 433.863 742.935 430.223 737.163C421.954 724.052 413.232 710.985 403.158 698.002C400.148 694.122 397.762 690.374 396.098 686.706C393.767 681.569 394.168 679.067 397.979 679.675C407.536 681.199 412.131 677.144 413.072 668.889C413.5 665.136 415.371 662.849 417.819 661.154C419.959 659.673 420.504 656.944 419.182 652.556C417.473 646.882 417.312 642.235 417.291 637.731C417.268 632.99 418.727 629.738 422.855 628.985C426.144 628.385 427.313 625.53 424.521 619.505C421.4 612.769 421.788 608.012 419.49 601.708C416.658 593.938 414.279 586.386 411.737 578.757C409.856 573.11 406.703 567.154 402.169 560.811C398.92 556.265 396.019 551.726 394.097 547.383C391.178 540.789 390.008 535.459 393.441 533.511C394.529 532.894 395.186 531.761 396.325 531.21C399.096 529.871 400.114 527.092 398.511 521.894C396.758 516.211 400.154 515.396 402.838 514.067C404.071 513.457 405.471 513.025 406.652 512.327C408.489 511.242 408.98 509.097 407.302 505.177C404.924 499.621 405.686 496.428 407.378 494.061C409.474 491.129 409.996 486.991 408.45 481.156C406.29 473.006 405.286 465.634 405.074 458.795C404.972 455.485 404.11 451.885 401.382 447.097C398.4 441.862 399.678 440.851 404.589 444.173C406.77 445.648 409.033 447.547 411.238 449.394C414.129 451.815 416.984 454.11 419.858 455.875C425.135 459.116 428.2 459.44 428.951 456C430.023 451.09 433.527 448.762 436.518 445.867C437.551 444.865 439.559 445.383 441.392 445.583C446.688 446.161 447.154 443.681 442.829 436.398C440.284 432.113 437.942 427.947 436.313 423.911C435.623 422.201 434.502 420.107 433.123 418.323C424.92 407.712 416.678 397.226 405.731 389.834C398.827 385.172 395.906 381.488 393.23 374.719C391.732 370.928 389.678 367.032 387.424 363.012C384.103 357.089 384.378 355.821 387.21 354.255C390.472 352.451 390.632 347.698 390.838 343.068C391.023 338.892 390.789 334.385 390.935 330.176C391.139 324.31 393.32 320.228 395.571 316.224C396.341 314.854 396.557 313.03 395.995 310.629C394.835 305.678 393.605 300.681 392.214 295.595C390.828 290.529 387.092 285.38 381.722 280.95C377.396 277.382 374.215 273.658 371.359 269.106C367.33 262.687 364.178 259.839 358.965 258.116C353.032 256.155 347.03 254.186 343.71 256.53C342.815 257.161 341.558 257.394 340.328 257.622C337.476 258.149 335.793 256.814 333.735 252.254C332.764 250.103 331.911 248.108 329.518 246.336C327.41 244.775 326.439 245.325 325.834 246.1C323.219 249.447 318.546 250.421 315.596 253.383C311.852 257.142 305.437 257.669 300.842 260.421C288.756 267.657 276.325 274.49 272.899 290.968C272.488 292.945 271.703 294.628 270.73 296.081C268.511 299.393 268.359 304.379 269.071 310.089C269.607 314.392 271.37 319.252 274.649 324.886C277.394 329.603 279.912 334.287 282.385 338.948C286.022 345.802 290.37 352.648 296.005 359.493C298.524 362.553 300.834 365.595 302.317 368.65C305.807 375.837 301.956 377.94 295.019 372.5C292.609 370.61 290.205 368.227 287.818 366.019C277.002 356.014 262.379 349.811 257.158 353.179C254.864 354.66 252.607 356.226 250.934 358.377C247.01 363.422 248.452 372.529 252.334 383.326C253.256 385.889 254.928 388.795 257.164 391.728C263.453 399.979 263.555 404.754 261.385 407.969C260.128 409.831 258.597 411.624 256.145 412.016C252.195 412.646 251.377 416.193 251.111 420.281C250.646 427.417 247.367 432.086 247.183 439.477C247.108 442.498 243.661 441.652 240.22 440.397C234.103 438.166 228.468 436.752 223.832 437.133C218.002 437.611 217.204 440.467 222.098 449.684C226.408 457.802 226.703 462.549 221.884 463.27C217.509 463.924 216.678 467.963 216.311 472.499C215.679 480.305 212.668 485.771 207.134 488.686C204.364 490.146 201.043 490.955 197.753 491.771C196.68 492.037 195.767 492.44 195.01 493.065C192.162 495.418 188.929 497.226 183.907 496.879C180.283 496.629 178.888 498.881 180.352 503.754C180.539 504.376 180.636 504.948 180.801 505.558C183.606 515.899 181.076 515.786 173.679 513.154C171.138 512.25 168.914 511.937 167.353 512.647C164.345 514.014 161.198 515.211 158.286 516.693C155.442 518.139 155.457 522.122 156.144 526.689C157.046 532.674 157.653 538.384 154.89 541.468C153.083 543.485 150.601 544.395 146.263 542.786C138.12 539.767 132.429 540.478 127.558 542.375C124.64 543.512 122.671 545.713 122.159 549.407C121.261 555.885 116.618 557.142 107.11 552.157C99.306 548.066 97.2239 548.821 98.9866 556.086C100.776 563.464 97.5111 564.896 91.9601 564.2C91.4531 564.137 90.9187 564.034 90.3629 563.884C78.3062 560.636 75.3169 567.442 74.882 577.125C74.7884 579.209 75.8108 581.727 77.546 584.638C78.5304 586.29 79.6091 587.957 80.6657 589.618C84.7684 596.07 86.2936 600.874 84.29 603.858C83.4622 605.092 82.8121 606.537 81.9114 607.721C79.3333 611.108 80.3888 616.693 86.0512 625.043C87.0198 626.471 87.9399 627.918 89.0101 629.323C96.0469 638.562 102.249 647.842 108.084 657.122C112.144 663.577 116.592 669.896 121.839 676.208C130.088 686.129 137.96 696.203 147.979 704.514C154.031 709.535 158.233 715.515 156.599 720.508C153.764 729.166 155.735 741.369 155.897 752.238C155.959 756.384 155.122 759.603 152.758 761.421C150.258 763.344 149.032 766.36 149.34 770.869C149.604 774.74 148.818 777.766 148.063 780.803C147.145 784.496 147.318 788.845 151.04 795.493C153.585 800.037 154.103 803.453 152.7 805.322C150.893 807.73 150.007 810.973 148.753 813.887C148.031 815.565 146.819 816.975 144.958 817.331C142.337 817.833 141.243 819.927 140.881 822.467C140.183 827.365 138.659 831.635 139.505 837.793C139.927 840.871 139.198 842.708 136.754 843.052C131.299 843.822 128.497 847.729 124.961 850.741C122.295 853.013 122.734 857.974 125.466 864.216C129.111 872.54 129.911 878.675 127.557 882.721C126.708 884.18 126.901 886.513 126.995 888.73C127.207 893.738 125.044 895.981 119.704 894.802C117.381 894.289 115.325 894.258 113.183 894.064C108.305 893.624 105.569 891.538 101.796 884.566C96.8317 875.393 89.6312 867.724 81.6604 860.291C75.3076 854.366 69.7784 851.521 64.8825 850.794C60.4353 850.134 56.2479 849.889 51.5829 848.891C46.6942 847.845 45.6276 850.647 47.6577 856.496C48.1038 857.781 48.5494 859.07 49.0883 860.397C51.4051 866.105 51.3978 869.978 48.2195 871.181C44.8211 872.466 42.4334 874.965 38.6204 875.756C34.2091 876.67 27.4725 873.139 21.6074 871.256C19.6566 870.63 17.8024 868.353 16.3727 865.966C9.86249 855.097 1.16191 845.96 -8.71877 837.576C-12.7267 834.175 -16.3548 830.044 -19.8488 825.81C-25.6927 818.729 -31.91 812.306 -38.9 807.665C-47.6177 801.877 -55.5916 793.661 -63.4836 785.303C-66.594 782.009 -69.6883 778.652 -72.6359 775.225C-81.0862 765.398 -90.0024 756.865 -99.5941 749.902C-101.614 748.435 -103.582 746.686 -105.498 744.7C-112.143 737.814 -119.007 732.633 -125.922 727.697C-132.135 723.262 -138.353 718.823 -144.576 714.176C-149.933 710.176 -155.268 705.839 -159.839 699.775C-161.952 696.97 -164.115 695.37 -165.631 695.869C-167.906 696.619 -170.011 697.66 -168.92 701.711C-167.832 705.751 -167.718 709.244 -165.305 714.049C-164.655 715.345 -164.469 716.602 -164.473 717.567C-164.481 719.441 -165.769 719.821 -168.355 718.067C-170.585 716.555 -172.305 714.323 -172.949 712.25C-174.439 707.451 -176.11 702.517 -176.969 698.109C-177.592 694.912 -178.469 691.712 -180.868 687.845C-184.141 682.571 -184.781 678.906 -183.901 676.182C-182.831 672.87 -182.065 669.444 -184.585 663.451C-185.487 661.305 -185.02 659.875 -184.428 658.668C-183.674 657.131 -183.093 655.34 -186.152 651.512C-189.182 647.718 -191.823 646.242 -194.683 645.64C-200.221 644.475 -202.139 642.614 -205.714 635.455C-207.678 631.523 -209.287 627.779 -210.045 624.344C-210.812 620.868 -210.61 618.434 -208.886 617.026C-205.245 614.052 -205.652 612.867 -212.552 603.339C-218.775 594.746 -222.401 587.34 -221.509 581.739C-221.264 580.203 -220.668 579.142 -219.471 578.624C-216.488 577.334 -217.106 570.046 -220.52 564.333C-222.524 560.98 -225.176 558.817 -227.789 557.148C-233.67 553.393 -239.391 550.401 -245.472 545.686C-246.908 544.574 -248.429 544.138 -249.787 543.655C-254.937 541.825 -255.129 542.915 -250.21 549.126C-246.65 553.621 -245.016 557.113 -245.364 559.946C-245.68 562.521 -245.836 565.251 -246.561 567.458C-247.158 569.275 -248.175 571.162 -251.46 569.311C-255.522 567.023 -259.564 564.563 -263.267 563.346C-264.711 562.871 -266.12 561.261 -267.279 559.282C-270.824 553.229 -271.359 547.542 -267.837 546.761C-265.911 546.334 -264.415 545.515 -263.429 544.039C-261.733 541.498 -261.24 538.592 -267.063 531.542C-271.128 526.621 -271.418 522.599 -271.932 518.881C-272.134 517.414 -271.839 516.269 -272.197 514.718C-272.783 512.176 -274.287 509.478 -277.527 506.857C-279.296 505.427 -281.054 503.714 -282.815 502.375C-287.432 498.862 -290.413 494.646 -292.184 490.472C-294.168 485.794 -296.032 481.169 -298.151 476.43C-299.611 473.164 -299.476 470.83 -298.929 468.963C-296.873 461.944 -301.839 452.036 -311.412 440.738C-318.119 432.823 -323.537 424.749 -329.715 416.8C-332.898 412.706 -334.472 409.201 -334.844 406.167C-335.3 402.447 -336.354 398.52 -338.935 393.654C-342.441 387.042 -340.774 384.576 -337.257 383.872C-335.91 383.602 -334.182 383.833 -332.547 383.964C-328.884 384.259 -325.962 383.628 -324.192 381.465C-320.792 377.31 -314.385 376.744 -309.901 373.872C-307.922 372.603 -304.201 373.944 -300.131 376.599C-292.253 381.737 -288.582 380.867 -287.659 376.069C-287.172 373.541 -284.62 373.613 -282.41 373.288C-277.97 372.635 -275.567 370.155 -276.719 363.862C-277.661 358.718 -275.989 355.609 -272.647 354.648C-269.37 353.706 -268.195 350.874 -267.44 347.544C-266.655 344.081 -264.74 342.039 -261.138 341.64C-257.543 341.242 -254.66 339.884 -252.436 337.755C-250.751 336.142 -248.851 334.823 -246.224 334.277C-243.792 333.772 -241.941 332.36 -241.417 329.775C-240.818 326.813 -238.846 325.403 -236.863 323.939C-235.282 322.771 -233.409 321.878 -233.668 318.86C-234.24 312.199 -231.933 308.455 -226.934 307.254C-223.504 306.43 -220.623 304.88 -217.491 303.662C-217.008 303.474 -216.619 303.117 -215.966 303.2C-214.647 303.369 -213.303 303.105 -211.396 305.065C-208.874 307.657 -209.406 309.171 -209.795 310.192C-211.573 314.853 -212.702 320.028 -212.469 326.4C-212.379 328.862 -214.27 329.358 -215.991 330.036C-221.283 332.12 -226.617 334.163 -228.638 339.976C-229.367 342.074 -229.555 344.545 -229.167 347.485C-228.529 352.313 -228.481 356.608 -230.28 359.474C-232.886 363.628 -229.668 371.405 -225.331 379.718C-223.033 384.12 -220.386 388.641 -217.662 393.139C-208.919 407.576 -194.793 420.682 -183.35 424.156C-171.459 427.767 -160.268 430.011 -153.874 425.056C-151.68 423.356 -147.907 423.872 -143.967 424.687C-142.008 425.093 -139.909 425.743 -137.987 426.087C-131.574 427.235 -129.894 425.25 -133.351 417.069C-136.147 410.454 -132.289 409.604 -127.276 412.482C-120.821 416.189 -114.32 420.061 -107.869 423.753C-105.981 424.833 -104.362 426.383 -102.718 428.216C-100.884 430.261 -99.4058 432.331 -97.9474 434.523C-90.8461 445.198 -90.8238 445.163 -96.6783 446.929C-100.048 447.946 -100.247 451.62 -97.7839 457.438C-96.2733 461.005 -94.6876 464.604 -93.1405 468.187C-91.5533 471.863 -91.3514 474.884 -93.7791 474.778C-102.304 474.407 -103.37 481.759 -105.648 487.937C-106.485 490.208 -107.831 492.014 -109.085 493.889C-110.152 495.485 -111.701 496.703 -114.742 495.565C-123.811 492.173 -127.237 496.128 -129.192 501.17C-131.856 508.047 -136.771 512.4 -141.69 516.819C-146.631 521.259 -149.324 527.942 -152.628 534.017C-153.175 535.022 -153.68 536.183 -153.505 537.76C-152.564 546.24 -155.244 551.538 -157.125 557.618C-159.4 564.973 -161.072 572.913 -160.209 582.968C-159.678 589.149 -160.443 594.4 -160.494 600.172C-160.56 607.675 -156.327 617.276 -150.045 627.705C-142.387 640.421 -131.591 648.383 -124.825 646.244C-119.4 644.529 -114.392 642.254 -110.802 638.358C-108.065 635.389 -104.375 633.935 -98.0813 635.651C-91.3383 637.489 -88.1737 634.759 -87.9149 629.001C-87.7731 625.844 -86.7847 623.635 -84.8662 622.236C-82.1142 620.23 -80.8343 616.907 -81.882 611.495C-82.4659 608.48 -81.642 606.73 -80.0928 605.622C-75.3728 602.245 -74.4058 595.765 -77.4309 585.882C-78.7951 581.426 -78.5743 578.062 -76.6947 576.184C-74.0528 573.544 -73.856 568.963 -75.8407 562.692C-77.3029 558.073 -76.6441 555.624 -73.1896 555.607C-69.2882 555.588 -66.5081 554.146 -63.9214 552.414C-61.7623 550.969 -58.6678 550.763 -54.5793 551.96C-49.4277 553.468 -45.4312 553.459 -43.8974 549.829C-42.7883 547.203 -38.7198 548.113 -34.9347 548.956C-28.2037 550.456 -23.6612 549.12 -21.343 544.957C-20.1009 542.726 -19.3874 540.008 -19.119 536.869C-18.483 529.433 -10.2423 528.524 0.062882 534.476C9.48534 539.918 15.1565 539.83 14.9596 532.074C14.7388 523.377 18.0687 517.677 17.3266 508.61C17.0903 505.724 18.1955 504.064 19.61 502.643C21.9376 500.306 23.7612 497.249 26.4609 495.514C30.9971 492.599 33.1478 487.302 37.0839 483.85C38.9748 482.192 40.3514 482.393 45.5317 486.91C53.3654 493.741 58.9637 495.974 62.8375 493.897C63.2722 493.664 64.2071 493.994 64.5018 493.635C65.6436 492.244 67.8516 492.244 70.0269 492.287C75.0817 492.387 77.9648 490.047 79.5755 486.166C80.6261 483.634 82.8028 482.825 88.0195 486.702C95.4891 492.254 99.083 491.486 100.796 487.859C104.483 480.053 107.178 471.365 107.324 460.449C107.403 454.595 108.566 449.808 112.854 447.958C113.674 447.604 114.121 446.795 114.803 446.267C117.453 444.219 116.528 439.942 112.515 433.492C107.082 424.759 106.859 423.141 112.318 422.647C118.281 422.107 120.687 417.782 122.872 413.203C124.268 410.28 125.721 407.565 128.452 405.956C132.523 403.557 135.796 400.193 137.68 395.409C139.796 390.033 143.138 385.915 147.138 382.465C149.65 380.299 151.881 377.821 154.268 375.515C155.679 374.151 157.291 373.086 159.561 372.683C164.281 371.844 167.045 368.795 169.469 365.2C172.758 360.322 176.448 355.849 179.396 350.611C180.327 348.956 181.759 347.667 183.681 347.149C186.203 346.469 187.902 344.915 189.599 343.327C190.667 342.329 191.689 341.317 192.246 339.733C193.008 337.565 194.67 336.217 196.867 335.566C200.173 334.586 202.801 332.937 204.855 330.408C209.218 325.039 214.349 320.468 220.708 317.271C224.323 315.454 227.012 312.482 228.232 308.158C229.502 303.656 233.463 302.259 237.431 300.982C241.761 299.589 243.795 296.026 244.726 291.291C246.284 283.373 251.08 278.903 257.459 276.101C259.832 275.058 261.912 273.627 263.1 271.392C265.716 266.471 270.59 264.479 277.49 264.904C281.931 265.178 283.456 262.151 284.608 258.859C286.312 253.991 287.215 248.402 287.418 242.238C287.471 240.605 287.419 238.92 286.412 236.585C284.31 231.713 280.559 227.719 275.893 225.228C271.225 222.736 268.607 223.525 266.483 224.734C263.014 226.708 258.966 228.019 256.423 231.089C254.093 233.9 249.657 234.099 245.556 234.647C242.747 235.022 240.274 232.793 237.147 228.045C234.154 223.501 233.52 220.218 234.056 217.81C235.38 211.862 238.217 207.37 243.18 205.164C248.839 202.648 252.898 198.437 256.118 193.248C257.913 190.355 259.755 187.502 261.806 184.853C267.644 177.319 275.291 171.651 279.122 162.038C279.923 160.028 281.655 158.969 283.515 158.128C289.362 155.482 293.844 151.366 297.087 145.85C297.984 144.325 299.231 143.01 301.061 142.585C303.376 142.048 304.959 140.708 306.536 139.375C310.472 136.049 314.798 133.204 320.059 131.453C320.184 131.412 320.277 131.327 320.357 131.234C325.839 124.839 335.085 122.725 340.452 116.185C342.185 114.073 343.553 111.621 344.776 109.03C347.484 103.297 351.889 99.4965 357.662 97.1072C361.337 95.5866 364.369 93.25 367.365 90.9121C369.607 89.1622 372.53 88.2678 375.218 87.0842C381.55 84.2964 387.528 81.1019 392.144 76.3297C394.614 73.7767 395.926 70.0313 398.718 67.7734C400.451 66.373 403.294 66.367 404.651 64.5401C408.423 59.464 412.889 55.0968 415.168 48.5047C416.418 44.8885 418.31 41.916 421.021 39.7491C432.947 30.2161 443.351 18.9982 455.08 9.25703C460.614 4.6607 465.898 -0.33985 473.425 -2.65962C478.836 -4.32741 482.628 -2.34869 490.896 7.01989C497.36 14.3436 503.751 20.3904 510.856 24.4457C513.45 25.9268 516.097 28.2934 518.745 30.8992C526.235 38.2683 532.299 41.1213 536.93 40.0769C539.462 39.5056 541.851 38.743 544.303 38.0644C545.14 37.833 546.187 37.9855 547.648 39.6575C549.049 41.2605 549.193 42.4799 548.903 43.2331C548.568 44.1017 547.825 44.5862 547.325 45.3045C542.806 51.7964 536.778 56.6604 531.063 61.8601C529.335 63.4317 528.459 65.8112 530.745 70.2583C536.061 80.6036 533.542 84.8573 531.18 89.3196C528.332 94.7006 523.438 97.9098 519.675 102.319C518.8 103.344 517.668 104.048 517.473 105.824C516.998 110.15 519.227 114.747 525.151 120.983C530.668 126.792 534.757 128.911 538.251 127.592C543.218 125.717 547.116 122.539 552.547 121.205C554.456 120.737 555.807 119.345 556.248 117.13C556.388 116.43 556.769 115.923 557.175 115.47C557.859 114.706 558.943 114.355 560.89 115.728C562.949 117.179 564.045 119.207 564.768 121.047C566.149 124.562 567.797 128.232 568.743 131.508C570.632 138.047 569.625 142.429 568.196 146.376C567.607 148.002 566.092 148.7 563.31 147.782C561.024 147.027 558.915 146.899 558.043 148.144C556.199 150.773 553.257 151.897 548.986 151.463C545.447 151.104 545.275 154.092 546.285 158.091C546.487 158.891 546.88 159.803 547.176 160.659C550.358 169.861 549.961 170.599 541.935 167.994C534.904 165.711 531.035 166.058 534.39 176.875C536.335 183.144 538.661 189.591 539.212 195.052C539.476 197.668 541.21 201.061 543.323 204.373C550.36 215.401 549.804 221.709 547.133 226.05C544.571 230.213 544.786 235.439 550.164 244.736C552.83 249.344 554.335 253.801 555.96 258.136C557.385 261.939 556.591 262.339 552.71 259.58C546.641 255.266 541.567 253.067 537.202 252.839C535.196 252.733 532.585 251.216 529.898 249.462C517.498 241.367 510.92 242.286 508.093 248.76C507.125 250.977 505.196 252.123 503.827 253.884C500.766 257.82 500.466 263.584 505.383 273.225C507.819 278.002 508.703 281.913 507.807 284.664C506.666 288.166 507.272 292.817 509.741 298.815C510.82 301.435 511.418 303.901 511.823 306.17C512.452 309.701 513.954 313.547 516.435 317.893C519.092 322.547 519.274 325.375 517.505 327.128C514.587 330.019 510.528 331.371 505.588 331.713C502.273 331.943 498.515 330.804 493.46 326.875C487.396 322.162 482.939 320.654 479.551 321.896C476.744 322.925 473.121 322.962 471.444 325.35C468.287 329.844 462.149 330.51 454.496 328.664C443.823 326.09 440.124 330.49 441.018 340.621C441.562 346.789 440.229 351.586 441.398 358.3C441.772 360.447 440.785 361.77 440.057 363.114C439.227 364.647 439.403 366.907 439.909 369.426C440.972 374.72 444.558 380.021 450.533 385.331C454.113 388.513 457.683 391.198 461.09 392.906C466.814 395.777 472.856 400.134 478.728 403.71C482.701 406.129 483.48 407.464 484.703 411.425C486.21 416.308 483.526 417.39 482.408 419.818C481.389 422.031 479.538 423.503 476.778 423.932C472.819 424.546 470.816 427.322 469.792 431.23C468.29 436.958 465.88 441.85 467.771 450.405C468.978 455.866 472.559 461.049 478.124 466.465C479.816 468.112 481.643 469.559 483.416 470.972C485.855 472.916 488.305 474.678 490.743 476.633C494.547 479.685 496.005 481.788 496.05 484.686C496.081 486.681 495.688 488.391 495.115 489.884C494.365 491.842 494.312 494.31 495.813 497.747C498.99 505.021 498.303 509.424 496.465 512.86C494.883 515.819 495.242 519.939 496.673 525.226C498.896 533.435 497.172 538.427 492.068 540.161C489.584 541.005 486.695 541.288 484.838 542.975C482.102 545.461 482.294 549.827 486.64 556.955C490.75 563.696 498.847 571.12 505.111 574.042C507.567 575.188 509.704 575.505 512.138 576.576C514.452 577.594 516.881 577.626 519.492 581.251C521.722 584.345 521.746 586.621 521.238 588.194C519.791 592.677 517.352 596.132 512.53 596.986C507.893 597.807 503.028 594.53 497.089 586.58C495.323 584.216 493.633 581.83 491.808 579.487C485.728 571.681 480.206 568.188 475.45 568.733C471.494 569.186 469.181 571.523 469.692 576.22C470.66 585.118 464.657 586.418 460.094 589.537C454.44 593.401 449.156 597.736 450.029 608.229C450.795 617.44 465.649 639.722 477.794 649.766C481.827 653.101 485.32 655.075 488.49 655.831C492.48 656.783 496.5 657.787 499.993 657.857C503.153 657.92 506.783 658.767 510.803 660.355C516.678 662.677 520.423 666.095 523.973 672.8C528.037 680.476 531.935 688.12 535.581 695.669C538.378 701.461 537.008 701.814 531.187 697.21C527.648 694.412 524.108 691.3 520.579 688.664C509.765 680.586 504.187 680.092 502.787 686.917C502.437 688.624 502.159 690.402 502.048 692.307C501.779 696.95 499.65 699.436 494.521 698.712C490.76 698.181 489.205 700.411 488.196 703.042C486.933 706.333 490.102 713.049 495.545 719.477C499.531 724.184 503.84 728.134 508.37 731.726C512.592 735.072 516.794 738.615 520.777 742.871C527.876 750.457 529.722 754.072 528.79 758.985C528.354 761.286 527.659 763.367 526.982 765.457C525.488 770.065 527.175 776.522 532.129 784.826C535.427 790.354 537.938 795.59 539.605 800.522C541.046 804.787 544.086 809.279 547.426 813.793C550.082 817.383 552.59 820.958 554.382 824.46C557.64 830.832 557.043 834.084 551.947 832.652C544.073 830.438 536.467 828.579 530.212 829.089C528.54 829.225 526.223 828.046 523.651 826.222C521.662 824.811 519.626 823.45 517.738 822.46C513.082 820.018 510.73 822.256 512.773 827.135C513.509 828.895 514.542 830.817 515.67 832.698C523.473 845.712 526.252 855.537 521.941 861.13C520.418 863.106 520.518 866.587 521.179 870.414C521.542 872.513 522.084 874.825 523.811 877.496C529.175 885.793 534.627 894.099 540.2 902.401C544.01 908.076 548.467 911.487 553.122 913.484C558.386 915.743 559.506 916.806 561.774 922.405C564.15 928.269 567.747 933.953 573.414 939.663C578.022 944.305 580.823 948.692 582.247 953.296C583.271 956.606 585.164 960.375 586.45 963.836C590.885 975.771 589.39 980.312 580.297 979.253C571.281 978.203 569.887 984.952 569.502 992.699C569.266 997.445 568.93 1002.05 564.867 1002.93C561.7 1003.61 559.601 1005.43 557.391 1007.19C555.725 1008.52 554.836 1010.53 554.696 1013.3C554.331 1020.5 551.187 1024.5 542.404 1022.18C540.067 1021.56 538.03 1021.7 536.431 1022.23C532.939 1023.39 534.39 1028.46 539.796 1034.93C540.545 1035.83 541.367 1036.7 542.178 1037.55C549.817 1045.59 550.315 1047.02 546.209 1049.24C543.078 1050.93 539.009 1051.26 533.847 1050.04C526.743 1048.37 520.13 1047.44 515.407 1049.43C513.619 1050.19 511.06 1049.87 508.644 1049.74C505.653 1049.58 503.614 1050.49 503.566 1053.69C503.51 1057.42 501.492 1058.75 497.014 1057.37C493.578 1056.3 491.175 1056.95 488.982 1057.78C487.862 1058.21 486.525 1058.27 484.939 1057.98C480.389 1057.14 477.871 1055.08 474.325 1048.86C472.132 1045.01 469.523 1041.25 466.631 1037.5C462.917 1032.7 461.477 1028.88 462.141 1026.25C463.042 1022.69 462.597 1018.37 459.926 1012.48C459.432 1011.39 459.225 1010.34 459.208 1009.51C459.095 1004.08 456.815 997.748 452.293 990.026C449.687 985.575 449.706 982.001 449.732 978.9C449.778 973.613 448.614 967.433 449.298 962.62C449.812 958.998 447.736 954.226 442.687 948.598C439.838 945.422 438.214 942.515 437.193 939.628C435.884 935.929 433.75 932.06 431.198 927.938C424.252 916.72 420.846 906.785 426.941 903.067C429.712 901.377 432.156 899.316 434.252 896.448Z" fill="#181717" stroke="white" stroke-opacity="0.41" stroke-width="2" mask="url(#path-5-inside-1_46_1615)"/>
    <path d="M271.212 876.741C271.452 876.237 271.289 875.481 270.687 874.472C265.51 865.784 263.552 858.758 263.207 852.502C263.103 850.618 262.527 848.358 261.883 846.111C259.58 838.081 257.34 830.108 257.224 823.446C257.198 821.949 256.686 820.055 256.144 818.203C254.676 813.189 254.176 808.895 254.779 805.32C255.449 801.339 253.083 795.997 248.409 789.54C244.105 783.594 239.668 779.259 234.208 776.42C227.265 772.809 224.556 769.845 221.107 762.509C218.676 757.339 218.162 753.611 219.19 750.5C221.105 744.707 227.611 744.186 231.103 740.246C232.023 739.208 234.453 740.204 236.388 740.572C243.974 742.011 244.818 738.319 238.158 728.149C233.927 721.689 232.481 717.013 233.445 713.66C235.775 705.553 232.839 693.729 231.394 682.892C230.185 673.831 227.028 664.148 221.451 652.874C217.703 645.295 215.801 638.436 216.345 633.145C216.636 630.324 215.596 626.636 213.275 622.28C211.04 618.084 208.857 613.901 206.6 609.699C203.923 604.716 202.895 600.988 205.036 599.127C207.823 596.704 206.596 591.389 201.952 584.353C197.562 577.701 195.764 572.634 195.739 567.999C195.696 560.134 195.979 552.698 199.244 547.561C201.464 544.068 202.648 539.553 205.899 537.047C213.82 530.94 217.973 521.001 222.405 511.374C223.636 508.699 225.53 506.838 227.864 505.41C231.141 503.405 232.86 500.051 231.608 493.898C230.256 487.257 234.474 486.003 238.014 484.425C245.059 481.285 249.405 475.52 250.326 466.278C250.78 461.725 253.15 459.44 257.466 459.195C258.316 459.147 259.187 458.973 260.656 459.977C262.294 461.588 262.403 462.765 262.448 463.731C262.761 470.392 262.068 476.104 255.881 476.439C251.158 476.694 249.248 479.892 248.774 484.643C247.824 494.176 247.623 504.335 244.842 512.339C243.416 516.441 243.292 521.688 241.404 525.409C240.511 527.168 239.287 528.553 237.889 529.706C230.972 535.411 226.06 543.272 219.155 548.98C216.528 551.152 216.247 555.339 218.219 560.925C222.406 572.786 223.595 582.904 227.646 594.656C228.382 596.791 228.89 598.837 229.884 601.072C233.017 608.119 232.982 612.717 230.079 615.147C227.143 617.606 225.616 621.438 224.107 625.322C222.613 629.166 224.312 634.649 228.468 641.69C231.808 647.351 235.69 653.084 238.373 658.664C241.623 665.422 243.977 671.612 243.999 676.637C244.017 681.01 245.023 686.032 247.033 691.689C248.341 695.368 248.781 698.527 249.07 701.578C249.377 704.824 250.326 708.437 251.694 712.331C253.529 717.552 256.712 722.883 261.699 728.241C266.64 733.548 269.118 738.298 271.201 743.4C275.946 755.025 276.932 764.106 276.546 772.399C276.255 778.649 276.431 785.268 276.47 791.778C276.503 797.084 273.607 799.622 271.612 802.985C270.417 804.999 269.629 807.272 270.025 810.58C270.643 815.738 270.178 820 268.694 823.408C267.576 825.976 268.423 829.692 270.412 834.361C274.624 844.246 276.612 852.971 278.781 861.763C280.123 867.205 277.829 869.61 276.117 872.366C274.938 874.264 274.034 876.606 271.202 876.738C271.201 876.738 271.212 876.741 271.212 876.741Z" fill="#181717"/>
    <path d="M273.902 874.887C273.363 875.508 272.72 875.979 271.817 876.162C271.812 876.005 271.789 875.846 271.753 875.685C271.651 875.238 271.433 874.746 271.117 874.216C265.974 865.586 264.047 858.638 263.706 852.475C263.599 850.527 263.007 848.218 262.364 845.973C260.055 837.925 257.839 830.02 257.724 823.437C257.697 821.861 257.163 819.903 256.624 818.063C255.166 813.086 254.687 808.873 255.272 805.403C255.629 803.284 255.171 800.853 254.06 798.167C252.948 795.477 251.164 792.492 248.814 789.246C244.482 783.262 239.99 778.863 234.439 775.976C230.993 774.184 228.634 772.571 226.712 770.519C224.788 768.466 223.275 765.945 221.559 762.296C219.151 757.174 218.696 753.59 219.665 750.657C220.563 747.939 222.533 746.44 224.807 745.11C225.269 744.84 225.758 744.568 226.253 744.294C226.943 743.912 227.645 743.523 228.299 743.122C229.449 742.417 230.557 741.615 231.477 740.578C231.6 740.439 231.794 740.341 232.105 740.304C232.421 740.265 232.816 740.295 233.28 740.375C233.741 740.454 234.237 740.576 234.754 740.705L234.857 740.731C235.334 740.851 235.827 740.974 236.295 741.063L236.388 740.572L236.295 741.063C238.214 741.427 239.784 741.484 240.941 741.148C241.528 740.978 242.026 740.701 242.404 740.296C242.783 739.889 243.014 739.381 243.109 738.794C243.295 737.644 242.967 736.166 242.218 734.389C241.463 732.596 240.249 730.43 238.576 727.875C236.474 724.666 235.08 721.924 234.329 719.586C233.578 717.249 233.48 715.349 233.926 713.798C235.12 709.644 234.957 704.577 234.332 699.242C234.019 696.568 233.588 693.811 233.145 691.052C233.096 690.743 233.046 690.433 232.996 690.123C232.602 687.671 232.209 685.224 231.889 682.826C230.671 673.697 227.493 663.961 221.9 652.652C218.165 645.102 216.312 638.347 216.843 633.196C217.149 630.227 216.053 626.432 213.716 622.045C212.795 620.316 211.882 618.587 210.968 616.857C209.668 614.395 208.366 611.93 207.04 609.463C205.708 606.983 204.812 604.861 204.503 603.153C204.195 601.452 204.482 600.271 205.364 599.504C206.953 598.123 207.327 595.964 206.77 593.365C206.212 590.766 204.707 587.618 202.37 584.078C198.005 577.466 196.263 572.495 196.239 567.996C196.218 564.066 196.278 560.271 196.746 556.824C197.215 553.377 198.087 550.313 199.666 547.829C200.424 546.636 201.074 545.306 201.709 544.006C202.015 543.379 202.318 542.76 202.628 542.165C203.6 540.302 204.668 538.628 206.204 537.443C213.666 531.691 217.822 522.597 221.907 513.66C222.224 512.966 222.541 512.273 222.859 511.583C224.041 509.015 225.858 507.223 228.125 505.836C229.841 504.786 231.175 503.364 231.904 501.382C232.629 499.409 232.736 496.932 232.098 493.798C231.447 490.601 232.147 488.81 233.332 487.615C234.391 486.546 235.865 485.906 237.408 485.237C237.676 485.12 237.947 485.003 238.218 484.882C241.812 483.28 244.736 480.999 246.877 477.926C249.017 474.854 250.357 471.016 250.824 466.328C251.043 464.125 251.719 462.541 252.798 461.477C253.876 460.416 255.418 459.812 257.494 459.695C257.585 459.689 257.673 459.683 257.758 459.678C258.102 459.654 258.401 459.633 258.755 459.686C259.17 459.748 259.673 459.918 260.337 460.365C261.095 461.117 261.479 461.746 261.683 462.276C261.891 462.814 261.927 463.283 261.949 463.755C262.105 467.084 262.002 470.08 261.137 472.274C260.709 473.359 260.103 474.228 259.264 474.846C258.427 475.465 257.323 475.86 255.854 475.939L255.881 476.439L255.854 475.939C253.371 476.073 251.571 476.991 250.342 478.545C249.13 480.077 248.518 482.174 248.277 484.594C248.06 486.768 247.884 488.948 247.708 491.122C247.495 493.766 247.282 496.402 246.997 499.01C246.482 503.73 245.741 508.226 244.369 512.175C243.75 513.956 243.372 515.949 243.001 517.9C242.936 518.242 242.871 518.583 242.805 518.921C242.36 521.214 241.867 523.392 240.958 525.182C240.102 526.869 238.927 528.202 237.571 529.32C234.075 532.203 231.092 535.627 228.14 539.013L228.137 539.017C225.178 542.413 222.251 545.772 218.837 548.594C215.943 550.986 215.765 555.476 217.747 561.092C219.831 566.995 221.17 572.467 222.497 577.949L222.585 578.312C223.882 583.669 225.184 589.047 227.174 594.819C227.4 595.476 227.608 596.135 227.818 596.802C228.273 598.249 228.739 599.728 229.427 601.275C230.981 604.77 231.726 607.609 231.745 609.845C231.764 612.063 231.072 613.664 229.758 614.764C226.706 617.319 225.14 621.283 223.641 625.141C222.841 627.2 222.914 629.652 223.687 632.441C224.461 635.232 225.948 638.405 228.037 641.944C229.086 643.721 230.181 645.496 231.274 647.265C233.687 651.174 236.084 655.057 237.923 658.881C241.173 665.64 243.478 671.738 243.499 676.639C243.518 681.084 244.539 686.164 246.562 691.856C247.85 695.48 248.285 698.592 248.572 701.625C248.885 704.928 249.848 708.584 251.222 712.497C253.083 717.79 256.304 723.18 261.333 728.582C266.221 733.832 268.671 738.525 270.738 743.589C275.454 755.143 276.43 764.152 276.047 772.376C275.82 777.233 275.875 782.316 275.93 787.381C275.946 788.851 275.961 790.32 275.97 791.781C275.994 795.678 274.41 797.959 272.737 800.368C272.212 801.124 271.678 801.894 271.182 802.73C269.941 804.821 269.117 807.204 269.529 810.639C270.139 815.74 269.674 819.906 268.236 823.209C267.623 824.616 267.565 826.297 267.895 828.183C268.225 830.07 268.951 832.207 269.953 834.557C273.82 843.633 275.804 851.725 277.792 859.833C277.959 860.516 278.127 861.199 278.295 861.882C278.944 864.512 278.708 866.369 278.127 867.894C277.685 869.054 277.05 870.018 276.389 871.023C276.158 871.374 275.923 871.731 275.693 872.102C275.507 872.401 275.335 872.697 275.167 872.986C274.767 873.674 274.39 874.324 273.902 874.887Z" stroke="white" stroke-opacity="0.41"/>
    <path d="M322.062 -32.1856C320.382 -30.6592 319.096 -29.6958 318.048 -28.4806C316.946 -27.2037 315.167 -26.8022 312.527 -27.8851C301.645 -32.3499 296.851 -28.4502 291.835 -24.8922C287.909 -22.1069 285.223 -17.9789 282.463 -13.9488C279.67 -9.87175 274.605 -8.44014 270.327 -6.10292C269.124 -5.44552 267.743 -4.98454 266.805 -4.0198C262.177 0.741127 256.505 4.34687 251.974 9.2235C250.209 11.1225 248.823 13.3754 247.488 15.6799C245.619 18.908 241.614 18.5559 235.347 14.5635C230.024 11.1722 225.107 8.84014 220.233 6.78754C213.125 3.79427 211.271 1.86641 207.566 -6.15523C206.292 -8.91337 204.769 -11.6506 202.911 -14.5365C200.249 -18.67 199.146 -21.9289 201.279 -23.0474C204.49 -24.7312 205.136 -28.8286 205.849 -32.9313C206.711 -37.8809 208.364 -42.1357 211.67 -44.7486C215.425 -47.7173 216.874 -53.0997 221.076 -55.6324C223.531 -57.1117 222.391 -61.8715 221.365 -66.1833C219.366 -74.5758 223.171 -76.974 229.248 -76.7028C233.507 -76.5128 237.206 -76.8559 239.368 -79.2713C241.698 -81.8753 245.789 -81.8492 251.114 -80.0969C254.416 -79.0104 257.385 -78.3465 259.063 -79.8263C260.763 -81.3245 262.068 -83.043 260.751 -87.1756C259.162 -92.165 261.3 -91.8415 266.656 -87.4104C267.54 -86.6788 268.423 -85.8881 269.292 -85.0859C274.383 -80.3903 278.432 -78.5803 281.729 -78.9584C284.626 -79.2906 287.978 -78.8602 291.856 -77.6038C301.095 -74.611 315.56 -62.333 323.443 -50.7506C326.871 -45.7134 327.622 -42.1881 326.876 -39.4469C325.944 -36.0215 323.784 -33.8469 322.062 -32.1856Z" fill="#181717"/>
    <path d="M247.056 15.4293L247.488 15.6799L247.056 15.4293C246.631 16.163 246.099 16.6703 245.465 16.9792C244.828 17.2895 244.051 17.4169 243.112 17.3314C241.215 17.1589 238.729 16.1252 235.616 14.1418C230.261 10.7303 225.317 8.38582 220.427 6.32672C216.887 4.83622 214.724 3.63722 212.981 1.85247C211.231 0.0604023 209.871 -2.35686 208.02 -6.36487C206.735 -9.14696 205.2 -11.9046 203.331 -14.8072C202.007 -16.8631 201.105 -18.6517 200.784 -20.0358C200.623 -20.7255 200.618 -21.2721 200.739 -21.686C200.855 -22.0808 201.095 -22.3866 201.511 -22.6046C203.266 -23.5248 204.293 -25.0956 204.969 -26.9075C205.609 -28.6233 205.954 -30.6128 206.292 -32.5579C206.309 -32.6539 206.325 -32.7499 206.342 -32.8456C207.196 -37.755 208.82 -41.8586 211.98 -44.3563C213.762 -45.7652 215.04 -47.6931 216.267 -49.5436C216.386 -49.7221 216.503 -49.8999 216.621 -50.0765C217.981 -52.1137 219.34 -54.0021 221.334 -55.2041C222.826 -56.1026 223.133 -57.9422 223.025 -59.8734C222.917 -61.8229 222.371 -64.1136 221.865 -66.2393L221.851 -66.2991C220.865 -70.4415 221.356 -72.9273 222.649 -74.3565C223.954 -75.7987 226.225 -76.3372 229.225 -76.2033C231.368 -76.1077 233.408 -76.1437 235.198 -76.5208C236.993 -76.899 238.567 -77.6271 239.74 -78.9379C240.796 -80.1174 242.262 -80.7234 244.143 -80.8183C246.036 -80.9139 248.324 -80.4889 250.958 -79.6219C252.613 -79.0772 254.228 -78.6232 255.655 -78.501C257.08 -78.3791 258.406 -78.5808 259.394 -79.4512C260.263 -80.2175 261.096 -81.0941 261.513 -82.3563C261.931 -83.622 261.906 -85.1985 261.228 -87.3274C260.833 -88.5669 260.698 -89.3977 260.748 -89.8902C260.772 -90.1298 260.834 -90.2276 260.869 -90.2635C260.892 -90.2878 260.944 -90.3274 261.094 -90.3257C261.445 -90.3219 262.061 -90.0938 262.987 -89.5197C263.888 -88.9616 265.005 -88.1268 266.337 -87.0252L266.656 -87.4104L266.337 -87.0252C267.212 -86.3016 268.087 -85.5177 268.953 -84.7184C274.069 -79.9999 278.262 -78.0575 281.785 -78.4617C284.592 -78.7834 287.869 -78.3698 291.702 -77.1281L291.856 -77.6038L291.702 -77.1281C296.229 -75.6616 302.096 -71.8933 307.834 -67.0173C313.563 -62.1488 319.118 -56.2163 323.029 -50.4693L323.443 -50.7506L323.029 -50.4693C326.426 -45.4789 327.083 -42.1104 326.394 -39.5783C325.501 -36.2986 323.436 -34.2064 321.72 -32.5506C321.198 -32.0763 320.705 -31.6494 320.241 -31.2474C319.255 -30.3939 318.398 -29.6525 317.669 -28.8072C317.195 -28.2573 316.583 -27.9008 315.796 -27.7933C314.998 -27.6842 313.984 -27.8278 312.717 -28.3477C307.2 -30.6113 303.167 -30.7767 299.851 -29.8799C296.816 -29.059 294.427 -27.3548 292.124 -25.7117C291.931 -25.5738 291.738 -25.4364 291.546 -25.3L291.835 -24.8922L291.546 -25.3C287.784 -22.6315 285.144 -18.7625 282.569 -14.9906C282.396 -14.737 282.223 -14.4837 282.05 -14.2313C280.719 -12.2882 278.835 -10.9573 276.714 -9.81349C275.676 -9.25351 274.592 -8.7439 273.494 -8.22748L273.422 -8.194C272.304 -7.66829 271.172 -7.1344 270.087 -6.5417L270.325 -6.10713L270.087 -6.54169C269.799 -6.38413 269.497 -6.23694 269.184 -6.08632C269.144 -6.06714 269.104 -6.04789 269.064 -6.02855C268.791 -5.89765 268.511 -5.76278 268.236 -5.62041C267.607 -5.29373 266.971 -4.90793 266.447 -4.36831C264.26 -2.11891 261.836 -0.127685 259.386 1.88473C259.269 1.98048 259.152 2.07629 259.036 2.17216C256.475 4.27653 253.899 6.41687 251.608 8.88316C249.802 10.8268 248.391 13.1228 247.056 15.4293Z" stroke="white" stroke-opacity="0.41"/>
    <path d="M37.8464 108.332C39.5017 106.005 42.9952 106.095 46.4408 106.134C51.2805 106.189 56.0877 106.255 59.1307 103.821C61.1219 102.228 61.5807 99.3516 61.8065 96.2038C61.919 94.6358 61.7809 92.8585 62.0316 91.4106C62.7408 87.3148 66.2259 88.5271 72.2528 94.6584C77.6826 100.182 81.0308 105.074 82.7726 110.812C85.3074 119.165 92.0811 128.779 98.7037 137.995C102.988 143.957 107.231 146.567 111.766 146.891C114.362 147.076 116.659 146.781 119.341 147.114C121.869 147.427 123.573 148.961 124.016 151.714C125.376 160.157 130.792 169.326 139.074 179.34C139.976 180.43 140.76 181.785 141.216 182.859C145.848 193.764 152.538 205.454 156.125 215.955C156.63 217.434 156.821 218.752 157.289 220.214C158.288 223.333 157.124 223.99 154.183 222.597C148.582 219.945 143.004 217.364 137.324 214.483C134.247 212.923 131.334 210.265 128.756 206.507C118.603 191.706 105.707 180.823 92.8252 170.125C86.6121 164.965 82.9574 165.027 80.5654 167.084C77.5914 169.641 74.0095 171.454 70.0366 172.82C66.355 174.086 61.6998 173.811 55.8998 171.613C50.4604 169.552 46.7699 169.779 44.7511 172.539C43.0347 174.886 40.2896 176 36.4554 175.691C32.4807 175.37 30.4348 173.465 28.9428 168.482C27.0231 162.071 27.3786 157.03 24.7696 150.179C24.6097 149.76 24.791 149.48 24.5861 149.061C19.1627 137.973 21.9316 133.727 26.4657 130.699C29.6463 128.575 31.2148 124.693 32.1632 120.311C33.2073 115.486 35.3693 111.76 37.8464 108.332Z" fill="#181717"/>
    <path d="M38.2517 108.625L38.2538 108.622C38.9735 107.61 40.1107 107.09 41.5581 106.838C42.9606 106.594 44.5738 106.612 46.2449 106.632L46.4351 106.634L46.5171 106.635C48.9016 106.662 51.3201 106.69 53.5232 106.407C55.753 106.121 57.8196 105.51 59.4431 104.211C60.5439 103.33 61.1999 102.11 61.6097 100.738C62.0181 99.3715 62.1919 97.8198 62.3052 96.2396C62.3506 95.6078 62.3563 94.9401 62.3619 94.2917C62.3634 94.1156 62.3649 93.9409 62.3672 93.7688C62.378 92.9487 62.4063 92.1773 62.5243 91.496L62.0316 91.4106L62.5243 91.4959C62.6923 90.5255 63.0067 89.9913 63.3682 89.7368C63.7111 89.4953 64.2187 89.4227 64.9933 89.6748C65.7714 89.928 66.7416 90.4873 67.908 91.3846C69.0689 92.2777 70.3991 93.4859 71.8962 95.0089C77.2942 100.5 80.5843 105.324 82.2941 110.958C84.858 119.406 91.6906 129.092 98.2976 138.287C102.633 144.32 106.996 147.052 111.73 147.389C112.877 147.471 113.968 147.461 115.036 147.451C115.199 147.45 115.362 147.448 115.525 147.447C116.755 147.438 117.973 147.448 119.28 147.61L119.341 147.114L119.28 147.61C120.457 147.756 121.408 148.18 122.114 148.859C122.819 149.537 123.315 150.503 123.522 151.793L124.016 151.714L123.523 151.793C124.905 160.372 130.391 169.626 138.689 179.658C139.557 180.709 140.318 182.021 140.756 183.054L141.216 182.859L140.756 183.054C142.61 187.418 144.793 191.91 146.969 196.387C147.519 197.518 148.069 198.648 148.612 199.776C151.312 205.374 153.869 210.897 155.652 216.117C155.896 216.832 156.066 217.512 156.235 218.209C156.246 218.254 156.257 218.299 156.268 218.344C156.425 218.994 156.588 219.664 156.813 220.366C157.055 221.123 157.151 221.687 157.139 222.083C157.127 222.475 157.015 222.625 156.923 222.69C156.815 222.768 156.585 222.834 156.133 222.758C155.69 222.683 155.113 222.484 154.397 222.145C153.303 221.627 152.21 221.112 151.118 220.597C146.613 218.473 142.115 216.352 137.55 214.037C134.564 212.523 131.71 209.929 129.168 206.224C118.971 191.358 106.023 180.435 93.1446 169.74C90.0098 167.137 87.4646 165.802 85.3544 165.407C83.2109 165.005 81.5465 165.581 80.2395 166.705C77.3275 169.209 73.8073 170.995 69.874 172.347L70.0366 172.82L69.874 172.347C66.3414 173.562 61.8133 173.319 56.077 171.146C53.3259 170.103 50.9638 169.618 49.004 169.77C47.0208 169.924 45.4528 170.733 44.3476 172.244C42.7595 174.415 40.2052 175.492 36.4956 175.193C34.5851 175.038 33.2014 174.511 32.1131 173.473C31.0104 172.422 30.1578 170.797 29.4218 168.339C28.5977 165.587 28.1985 163.093 27.7932 160.563C27.7322 160.181 27.6709 159.799 27.6081 159.415C27.1293 156.487 26.5595 153.474 25.2368 150.001L24.7696 150.179L25.2368 150.001C25.1952 149.892 25.195 149.81 25.1948 149.626L25.1947 149.619C25.1945 149.427 25.1896 149.157 25.0353 148.842L24.5861 149.061L25.0352 148.842C22.3421 143.336 21.7335 139.624 22.2816 136.958C22.8244 134.318 24.525 132.596 26.7434 131.115L26.4657 130.699L26.7434 131.115C30.0956 128.876 31.6982 124.823 32.6519 120.416C33.6758 115.686 35.7957 112.024 38.2517 108.625Z" stroke="white" stroke-opacity="0.41"/>
    <path d="M156.359 64.5165C157.835 62.1736 161.142 61.9171 163.443 60.4609C169.863 56.3978 173.487 49.3415 178.9 44.2028C180.324 42.8519 181.589 41.3281 183.067 40.0383C183.681 39.5023 184.262 38.6605 186.334 40.5118C188.204 42.1835 188.625 43.7274 189.086 45.1799C189.415 46.2184 189.597 47.1922 189.699 48.094C190.141 51.9834 191.533 56.2951 194.392 61.4176C197.172 66.3987 197.461 69.7417 196.394 72.4424C194.996 75.9803 192.542 78.3449 189.874 80.4978C187.467 82.4401 185.654 84.9404 184.918 88.5299C184.588 90.1374 183.986 91.4503 182.078 91.2916C174.353 90.6487 169.559 93.7855 165.445 97.5739C159.492 103.057 152.401 107.242 146.454 112.717C144.568 114.453 142.238 115.723 141.567 118.753C141.386 119.57 140.701 119.994 140.012 120.311C135.951 122.177 132.368 124.544 130.868 129.204C130.622 129.968 129.862 130.284 129.217 130.661C128.053 131.341 126.511 129.591 125.538 127.863C123.89 124.936 123.294 122.521 124.276 121.235C124.879 120.446 125.581 119.747 126.407 119.204C128.725 117.679 129.904 115.145 129.806 111.289C129.672 105.958 131.749 102.5 134.468 99.9418C138.427 96.2168 140.656 90.8308 143.226 85.781C145.399 81.5108 149.241 78.9741 150.968 74.261C152.31 70.5995 153.023 66.2987 156.359 64.5165Z" fill="#181717"/>
    <path d="M156.594 64.9576L156.711 64.8952L156.782 64.7831C157.433 63.7504 158.502 63.1498 159.783 62.618C160.112 62.4817 160.459 62.3488 160.814 62.2129C161.792 61.838 162.831 61.44 163.71 60.8834C166.992 58.8066 169.545 55.9737 171.936 53.0519C172.467 52.4031 172.989 51.7511 173.51 51.1016C175.347 48.808 177.159 46.5455 179.245 44.5655C179.86 43.9812 180.447 43.3647 181.024 42.759C181.124 42.6532 181.225 42.5478 181.325 42.443C182.003 41.7327 182.676 41.0437 183.396 40.415C183.463 40.3562 183.519 40.3046 183.57 40.2579C183.665 40.1715 183.741 40.1012 183.838 40.0309C183.965 39.9389 184.077 39.8895 184.201 39.8775C184.461 39.8527 184.984 39.9758 186 40.8846L186.334 40.5119L186 40.8846C187.681 42.3871 188.113 43.7548 188.547 45.1343C188.568 45.1999 188.589 45.2654 188.609 45.331C188.927 46.3335 189.103 47.2749 189.202 48.1504C189.653 52.1192 191.072 56.4942 193.955 61.6613C196.698 66.5761 196.918 69.7543 195.929 72.2587L195.929 72.2587C194.579 75.6741 192.208 77.972 189.56 80.1087C187.076 82.1128 185.191 84.71 184.428 88.4295C184.266 89.2194 184.052 89.8427 183.708 90.2504C183.396 90.6201 182.935 90.8611 182.12 90.7933C174.2 90.1343 169.274 93.368 165.107 97.2061C162.153 99.9265 158.914 102.328 155.65 104.747L155.632 104.76C152.381 107.169 149.106 109.596 146.115 112.35C145.729 112.705 145.325 113.039 144.909 113.384C144.829 113.45 144.75 113.516 144.67 113.582C144.174 113.994 143.669 114.423 143.199 114.899C142.252 115.858 141.44 117.013 141.079 118.645L141.559 118.752L141.079 118.645C140.954 119.208 140.482 119.545 139.803 119.857C135.705 121.739 131.958 124.185 130.392 129.051L130.392 129.051C130.313 129.298 130.148 129.49 129.896 129.675C129.709 129.812 129.514 129.921 129.292 130.044C129.189 130.101 129.081 130.161 128.964 130.229L129.217 130.661L128.964 130.229C128.685 130.392 128.26 130.333 127.634 129.788C127.041 129.271 126.446 128.456 125.974 127.618C125.163 126.177 124.628 124.893 124.411 123.833C124.191 122.765 124.31 122.015 124.673 121.539L124.276 121.235L124.673 121.539C125.249 120.785 125.912 120.128 126.682 119.621C129.186 117.975 130.406 115.249 130.306 111.277L129.806 111.289L130.306 111.277C130.176 106.11 132.178 102.783 134.811 100.306C138.185 97.1311 140.33 92.7704 142.426 88.5114C142.84 87.6695 143.252 86.8317 143.671 86.0078L143.226 85.781L143.671 86.0078C144.605 84.173 145.855 82.6685 147.144 81.1161C147.312 80.9135 147.481 80.7101 147.65 80.5051C149.102 78.7427 150.543 76.8749 151.437 74.433C151.703 73.7068 151.946 72.9538 152.185 72.2112C152.251 72.0061 152.317 71.8018 152.383 71.599C152.69 70.6551 153.003 69.7378 153.374 68.8833C154.117 67.1729 155.07 65.7718 156.594 64.9576Z" stroke="white" stroke-opacity="0.41"/>
    <path d="M285.67 422.539C284.548 420.632 284.426 419.743 284.456 418.909C284.682 412.604 283.882 405.557 282.84 398.341C281.732 390.67 285.028 386.973 287.705 382.764C288.848 380.967 292.243 383.147 295.261 387.197C297.754 390.544 299.53 393.871 301.041 397.028C303.592 402.358 307.005 406.626 312.364 410.417C315.92 412.932 316.367 414.141 315.108 415.856C314.197 417.099 312.585 417.442 310.661 417.335C305.275 417.038 301.652 418.727 299.399 422.396C297.286 425.837 291.539 424.423 285.67 422.539Z" fill="#181717"/>
    <path d="M293.976 423.966C291.659 423.814 288.878 423.039 286.005 422.122C285.008 420.388 284.931 419.619 284.956 418.927L284.956 418.927C285.183 412.574 284.378 405.489 283.335 398.269C282.388 391.713 284.723 388.19 287.138 384.545C287.469 384.046 287.801 383.545 288.127 383.033L287.705 382.764L288.127 383.033C288.309 382.746 288.561 382.619 288.929 382.629C289.332 382.641 289.871 382.823 290.521 383.216C291.815 383.997 293.372 385.5 294.86 387.496C297.326 390.806 299.085 394.101 300.59 397.244L300.59 397.244C303.176 402.648 306.644 406.983 312.075 410.825L312.364 410.417L312.075 410.825C313.86 412.088 314.755 412.953 315.091 413.653C315.247 413.978 315.277 414.258 315.221 414.537C315.161 414.831 314.999 415.161 314.705 415.56L314.705 415.561C313.951 416.588 312.572 416.94 310.689 416.836L310.689 416.836C307.94 416.684 305.602 417.037 303.649 417.923C301.689 418.811 300.147 420.222 298.973 422.134L299.399 422.396L298.973 422.134C298.065 423.613 296.349 424.121 293.976 423.966Z" stroke="white" stroke-opacity="0.41"/>
    <path d="M290.705 326.16C294.408 330.706 294.795 333.36 296.351 336.315C298.867 341.096 301.809 345.079 306.678 348.621C311.102 351.838 315.577 355.383 319.993 359.062C325.692 363.809 330.682 369.303 334.657 375.58C340.367 384.598 346.205 393.625 351.921 402.643C355.521 408.323 355.471 409.708 351.533 409.478C349.607 409.365 347.396 408.822 345.225 408.311C343.989 408.02 342.744 407.831 340.603 406.173C338.931 401.021 334.982 395.877 330.13 390.092C323.459 382.139 317.428 373.722 313.449 365.4C309.882 357.939 304.549 350.165 298.358 342.794C292.757 336.125 290.949 331.4 290.705 326.16Z" fill="#181717"/>
    <path d="M351.498 402.91L351.921 402.643L351.498 402.91C352.395 404.326 353.054 405.457 353.481 406.354C353.916 407.269 354.074 407.87 354.054 408.25C354.045 408.424 353.999 408.532 353.94 408.607C353.88 408.685 353.775 408.767 353.587 408.837C353.189 408.984 352.538 409.036 351.562 408.978C349.793 408.875 347.767 408.397 345.703 407.91C345.582 407.882 345.461 407.853 345.34 407.825C345.242 407.802 345.145 407.78 345.05 407.758C344.523 407.637 344.022 407.522 343.438 407.29C342.781 407.03 342.011 406.616 341.03 405.871C339.297 400.663 335.312 395.492 330.513 389.77C323.855 381.833 317.853 373.453 313.9 365.184C310.31 357.674 304.95 349.865 298.741 342.472C293.794 336.583 291.868 332.271 291.339 327.793C293.156 330.263 293.937 332.109 294.687 333.885C295.06 334.767 295.426 335.632 295.908 336.548C298.45 341.377 301.437 345.427 306.384 349.025C310.797 352.234 315.263 355.772 319.673 359.446C325.336 364.164 330.291 369.619 334.235 375.848C337.15 380.452 340.112 385.079 343.073 389.706C345.896 394.115 348.718 398.524 351.498 402.91Z" stroke="white" stroke-opacity="0.41"/>
    <path d="M5.60376 405.414C2.91667 402.493 1.44579 399.804 1.01791 397.349C0.220001 392.77 0.308026 388.922 1.56823 385.936C2.3784 384.017 4.16315 383.86 7.41327 385.669C9.12305 386.62 10.8755 387.699 12.5464 388.541C16.2724 390.416 19.0913 390.841 20.5288 389.081C21.0743 388.413 21.6566 387.742 22.5252 387.461C24.5748 386.797 27.5199 389.263 29.2062 393.002C30.1296 395.049 30.5161 396.808 30.8102 398.528C31.957 405.234 31.4327 410.574 29.3124 414.605C26.424 420.096 15.0415 415.662 5.60376 405.414Z" fill="#181717"/>
    <path d="M20.916 389.397L20.9161 389.397C21.4682 388.721 21.9676 388.167 22.6792 387.937L22.6793 387.937C23.4579 387.685 24.5256 388.003 25.6822 388.965C26.8173 389.909 27.9327 391.394 28.7504 393.207L29.2062 393.002L28.7504 393.207C29.6491 395.2 30.0267 396.912 30.3174 398.612L30.3174 398.612C31.4538 405.258 30.9202 410.474 28.8698 414.372C28.2372 415.575 27.144 416.25 25.6564 416.43C24.1479 416.613 22.2466 416.281 20.0951 415.446C15.7975 413.777 10.6534 410.159 5.97174 405.075C3.32136 402.194 1.91599 399.59 1.51048 397.263C0.719476 392.724 0.822975 388.988 2.02888 386.131C2.20726 385.708 2.42473 385.417 2.67183 385.226C2.91477 385.039 3.21551 384.925 3.60352 384.904C4.40943 384.859 5.56324 385.211 7.17015 386.106C7.75422 386.431 8.35169 386.776 8.95328 387.123C10.082 387.775 11.2252 388.435 12.3216 388.987C14.2063 389.936 15.9087 390.543 17.3513 390.672C18.81 390.802 20.061 390.444 20.916 389.397Z" stroke="white" stroke-opacity="0.41"/>
    <path d="M107.102 268.84C111.416 266.895 116.534 264.635 121.581 262.288C123.42 261.433 125.043 260.315 126.865 259.44C127.54 259.115 128.36 258.898 129.367 259.061C131.271 259.37 133.496 259.892 135.996 262.581C139.013 265.825 137.928 267.069 137.611 268.599C136.961 271.741 133.888 272.491 133.532 275.937C133.392 277.304 132.722 278.238 132.607 279.624C132.411 281.98 130.933 282.77 128.24 282.071C123.354 280.803 119.49 280.908 117.197 283.295C116.622 283.894 115.325 283.705 114.586 284.145C113.321 284.899 111.931 285.259 108.887 282.167C105.824 279.055 104.196 276.257 104.084 273.687C103.981 271.339 105.231 270.371 107.102 268.84Z" fill="#181717"/>
    <path d="M121.792 262.742L121.792 262.742C122.733 262.304 123.617 261.8 124.479 261.305C124.512 261.286 124.546 261.267 124.579 261.248C125.411 260.77 126.225 260.302 127.082 259.89C127.687 259.599 128.403 259.411 129.287 259.555C131.129 259.853 133.233 260.343 135.63 262.921C137.103 264.505 137.501 265.524 137.555 266.269C137.583 266.647 137.525 266.988 137.433 267.344C137.403 267.458 137.365 267.589 137.325 267.728C137.252 267.976 137.173 268.249 137.121 268.498L137.121 268.498C136.843 269.843 136.083 270.699 135.228 271.664C135.181 271.717 135.134 271.77 135.087 271.823C134.183 272.845 133.23 273.996 133.035 275.886L133.035 275.886C132.972 276.495 132.794 277.012 132.595 277.589L132.587 277.61C132.389 278.186 132.172 278.82 132.108 279.582L132.108 279.582C132.018 280.666 131.648 281.262 131.118 281.556C130.555 281.868 129.668 281.925 128.365 281.587L128.24 282.071L128.365 281.587C123.466 280.316 119.338 280.344 116.837 282.949C116.681 283.111 116.386 283.199 115.869 283.287C115.82 283.295 115.768 283.303 115.714 283.312C115.522 283.343 115.311 283.378 115.113 283.423C114.857 283.482 114.58 283.566 114.33 283.715C113.742 284.066 113.217 284.271 112.515 284.111C111.771 283.941 110.745 283.341 109.243 281.816C106.206 278.73 104.687 276.046 104.583 273.665L104.583 273.665C104.537 272.6 104.793 271.884 105.256 271.253C105.727 270.611 106.417 270.046 107.325 269.303C107.339 269.292 107.353 269.28 107.367 269.269C108.533 268.743 109.758 268.195 111.024 267.627C114.426 266.103 118.128 264.445 121.792 262.742Z" stroke="white" stroke-opacity="0.41"/>
    <path d="M297.35 52.1799C299.871 51.726 301.793 49.8305 304.424 48.8108C306.253 48.102 309.212 49.6131 312.598 52.9326C313.657 53.9708 314.661 55.1345 315.732 56.1243C319.035 59.1768 322.765 62.4756 323.065 65.7845C323.347 68.8997 321.431 69.9642 318.352 69.4852C317.333 69.3266 316.232 69.1274 315.021 68.5343C310.173 66.1601 305.925 64.8995 302.228 64.7671C300.975 64.7221 299.488 64.7653 297.639 62.637C295.739 60.4505 295.164 58.3969 295.443 57.0721C295.797 55.3959 295.868 53.4418 297.35 52.1799Z" fill="#181717"/>
    <path d="M312.248 53.2897L312.598 52.9327L312.248 53.2897C312.695 53.7281 313.132 54.1891 313.576 54.6574C313.65 54.7351 313.724 54.813 313.798 54.891C314.315 55.4357 314.844 55.9845 315.393 56.4915C315.538 56.6263 315.685 56.7614 315.832 56.8967C317.355 58.3018 318.905 59.7308 320.144 61.1829C321.51 62.7828 322.431 64.335 322.567 65.8296L322.567 65.8296C322.699 67.2833 322.312 68.1206 321.677 68.5767C321.007 69.0583 319.92 69.2231 318.429 68.9911L318.429 68.9911C317.419 68.8341 316.381 68.6437 315.241 68.0852C310.358 65.6938 306.038 64.4033 302.246 64.2674C302.194 64.2655 302.142 64.2638 302.09 64.2621C301.502 64.2424 300.94 64.2237 300.319 64.0104C299.657 63.7828 298.893 63.3186 298.016 62.3091C296.169 60.1823 295.699 58.2842 295.932 57.1753C296.003 56.8415 296.059 56.5194 296.114 56.2036C296.209 55.6622 296.301 55.1396 296.454 54.6094C296.674 53.8486 296.999 53.1774 297.578 52.6453C298.874 52.3847 300.008 51.7769 301.098 51.1391C301.286 51.0293 301.472 50.9188 301.658 50.8085C302.608 50.2445 303.545 49.688 304.605 49.277C305.322 48.999 306.357 49.1269 307.701 49.8072C309.031 50.4799 310.576 51.6501 312.248 53.2897Z" stroke="white" stroke-opacity="0.41"/>
    <path d="M346.816 62.3953C346.373 62.4394 345.606 62.6628 344.646 62.58C342.808 62.4212 340.622 61.8191 338.147 59.0284C335.911 56.5073 335.658 54.4964 335.931 53.0208C336.272 51.1773 336.543 49.2298 337.394 47.8789C338.399 46.2831 341.043 47.8456 343.647 51.2628C347.386 56.1703 348.839 60.7626 346.816 62.3953Z" fill="#181717"/>
    <path d="M336.422 53.1118L336.422 53.1117C336.462 52.8952 336.501 52.6794 336.54 52.4649C336.668 51.7509 336.793 51.0513 336.957 50.3839C337.168 49.5186 337.433 48.7542 337.817 48.1453L337.817 48.1453C337.984 47.8806 338.192 47.7682 338.457 47.753C338.754 47.7361 339.163 47.8418 339.678 48.128C340.704 48.6984 341.966 49.8822 343.249 51.5659C345.097 53.9913 346.358 56.3113 346.912 58.1981C347.453 60.0387 347.277 61.2772 346.603 61.9176C346.488 61.9338 346.37 61.9544 346.247 61.9759C345.816 62.051 345.325 62.1367 344.689 62.0819C342.964 61.9328 340.902 61.3812 338.521 58.6967C336.374 56.2751 336.181 54.4164 336.422 53.1118Z" stroke="white" stroke-opacity="0.41"/>
    <path d="M269.404 448.616C272.764 458.138 271.923 459.58 264.91 457.523C264.081 452.144 264.658 450.917 269.404 448.616Z" fill="#181717"/>
    <path d="M265.514 452.139C266.023 451.122 267.07 450.343 269.119 449.314C269.856 451.437 270.359 453.113 270.615 454.411C270.897 455.843 270.851 456.7 270.602 457.183C270.393 457.589 269.971 457.843 269.046 457.838C268.165 457.834 266.954 457.588 265.357 457.132C264.986 454.622 264.982 453.201 265.514 452.139Z" stroke="white" stroke-opacity="0.41"/>
    </g>
    </g>
    <rect x="0.5" y="0.5" width="357" height="628" stroke="white"/>
    <defs>
    <clipPath id="clip0_46_1615">
    <rect width="358" height="629" fill="white"/>
    </clipPath>
    <clipPath id="clip1_46_1615">
    <rect width="826.9" height="1871.13" fill="white" transform="translate(1386.38 860.732) rotate(137.736)"/>
    </clipPath>
    </defs>
</svg>