<svg preserveAspectRatio="none" width="358" height="629" viewBox="0 0 358 629" fill="none" xmlns="http://www.w3.org/2000/svg">
    <rect width="358" height="629" fill="#171616"/>
    <path d="M422.056 177.293L271.764 27L106.999 191.764L257.292 342.057L422.056 177.293Z" fill="#E2B63F"/>
    <mask id="path-3-inside-1_0_1" fill="white">
    <path d="M558.51 161.894C556.365 160.656 553.916 159.378 551.605 157.875C548.573 155.903 545.014 155.004 541.625 153.803C538.87 152.828 536.409 151.395 533.886 150.038C532.663 149.38 532.07 148.018 531.663 146.564C530.515 142.463 528.265 139.963 524.272 139.74C521.171 139.566 518.787 137.885 516.374 136.339C513.71 134.632 510.66 133.918 507.381 133.672C506.007 133.57 504.583 133.525 503.348 133.092C500.316 132.031 498.372 129.819 498.901 125.253C499.102 123.519 499.259 121.791 499.373 120.077C499.496 118.244 498.91 116.85 497.575 116.481C496.047 116.059 494.369 117.001 493.079 118.819C492.003 120.336 490.902 121.974 490.22 123.66C488.73 127.346 486.343 129.277 483.495 130.016C481.069 130.644 478.985 132.096 476.966 134.144C474.86 136.279 472.634 138.112 470.274 139.632C465.557 142.668 462.649 147.14 461.14 152.871C459.101 160.612 456.679 163.229 450.118 164.934C448.516 165.35 446.899 165.7 445.346 165.808C442.182 166.029 439.294 167.596 436.386 170.315C429.781 176.493 423.407 182.982 417.686 190.402C415.976 192.619 414.098 194.401 411.967 195.68C408.985 197.472 406.865 197.284 405.682 194.629C402.717 187.972 397.568 184.94 390.739 184.582C387.635 184.419 385.044 183.207 382.662 181.576C380.581 180.15 378.222 179.869 375.384 180.938C371.714 182.32 368.169 182.596 364.676 182.77C360.998 182.953 357.836 182.06 355.458 179.235C353.562 176.983 350.835 176.277 347.361 178.419C343.479 180.814 339.611 180.714 335.706 182.525C330.894 184.757 326.054 186.668 321.225 188.694C317.65 190.194 314.388 192.583 311.424 195.941C309.3 198.347 307.03 200.511 304.488 201.993C300.627 204.244 296.99 205.241 293.984 202.937C293.032 202.207 291.865 201.794 290.942 201.026C288.697 199.159 286.094 198.554 282.748 199.846C279.089 201.258 276.981 198.94 274.782 197.133C273.771 196.302 272.828 195.35 271.772 194.559C270.13 193.328 268.249 193.065 265.929 194.363C262.641 196.203 259.828 195.789 257.251 194.703C254.061 193.359 250.616 193.145 246.75 194.42C241.35 196.201 236.053 197.155 230.826 197.543C228.297 197.731 225.871 198.454 223.332 200.508C220.557 202.754 219.215 201.907 219.666 198.396C219.866 196.837 220.359 195.206 220.838 193.617C221.465 191.534 222.01 189.48 222.134 187.432C222.363 183.671 221.284 181.542 218.283 181.145C213.999 180.578 210.666 178.239 207.115 176.275C205.888 175.596 205.419 174.191 204.778 172.917C202.927 169.237 200.796 169.003 197.011 172.249C194.783 174.159 192.561 175.925 190.13 177.193C189.1 177.731 187.958 178.579 187.169 179.595C182.48 185.638 177.905 191.704 176.911 199.53C176.284 204.465 174.688 206.614 170.586 208.703C168.289 209.872 166.151 211.429 164.003 213.129C160.839 215.633 159.734 215.488 157.286 213.587C154.466 211.396 150.7 211.454 147.011 211.476C143.682 211.495 140.279 211.817 136.943 211.865C132.292 211.932 128.17 210.569 124.078 209.155C122.679 208.672 121.166 208.587 119.544 209.06C116.197 210.037 112.845 211.064 109.494 212.205C106.156 213.342 103.774 216.105 102.662 219.973C101.766 223.088 100.251 225.418 97.9521 227.553C94.7095 230.564 93.8638 232.842 94.788 236.505C95.84 240.674 96.9156 244.891 100.18 247.102C101.06 247.698 101.787 248.558 102.498 249.4C104.147 251.352 103.839 252.562 101.187 254.146C99.9364 254.893 98.755 255.553 98.4166 257.269C98.1184 258.781 98.9673 259.432 99.8331 259.823C103.571 261.511 106.359 264.706 109.943 266.639C114.493 269.093 117.689 273.507 121.825 276.585C132.701 284.679 143.415 293.027 157.717 294.811C159.433 295.025 161.083 295.508 162.635 296.129C166.174 297.545 170.118 297.473 174.25 296.779C177.363 296.256 180.377 294.867 183.335 292.402C185.811 290.338 188.36 288.432 190.91 286.558C194.661 283.803 198.096 280.556 200.972 276.42C202.258 274.571 203.62 272.868 205.352 271.735C209.426 269.069 212.734 271.656 211.516 276.642C211.093 278.374 210.284 280.119 209.603 281.847C206.521 289.674 208.048 299.998 212.935 303.486C215.082 305.019 217.281 306.523 219.68 307.602C225.308 310.135 231.764 308.816 238.474 305.752C240.067 305.025 241.601 303.766 242.911 302.117C246.596 297.48 250.265 297.241 253.708 298.626C255.702 299.429 257.761 300.423 259.131 302.104C261.337 304.811 264.45 305.25 267.745 305.289C273.496 305.358 278.551 307.458 284.379 307.324C286.761 307.269 287.601 309.68 288.119 312.103C289.041 316.409 290.389 320.352 292.698 323.542C295.602 327.553 298.17 328.004 303.213 324.296C307.654 321.03 311.217 320.658 313.871 323.962C316.28 326.962 319.782 327.394 323.469 327.487C329.814 327.647 335.372 329.534 340.043 333.255C342.381 335.117 344.453 337.383 346.517 339.628C347.19 340.36 347.899 340.976 348.714 341.477C351.781 343.362 354.591 345.532 356.503 349.014C357.882 351.527 360.24 352.411 363.393 351.227C363.795 351.076 364.198 350.989 364.601 350.853C371.425 348.549 372.436 350.301 373.602 355.505C374.002 357.293 374.725 358.84 375.955 359.894C378.324 361.924 380.622 364.057 383.039 366.016C385.399 367.93 388.491 367.779 391.743 367.142C396.006 366.307 400.183 365.686 403.782 367.486C406.135 368.663 407.92 370.346 408.554 373.4C409.742 379.133 412.767 383.04 416.358 386.339C418.51 388.315 421.076 389.597 424.171 389.821C429.599 390.212 432.593 393.376 432.846 400.121C433.054 405.659 434.545 407.071 439.43 405.596C444.39 404.098 446.922 406.303 448.792 410.163C448.963 410.516 449.115 410.889 449.24 411.278C451.951 419.724 458.541 421.549 466.261 421.506C467.922 421.497 469.436 420.702 470.947 419.4C471.804 418.661 472.631 417.857 473.465 417.068C476.7 414.005 479.774 412.781 482.965 414.06C484.283 414.588 485.69 414.986 487.002 415.566C490.755 417.228 494.64 416.301 498.675 412.093C499.365 411.373 500.09 410.686 500.718 409.897C504.847 404.708 509.371 400.094 514.052 395.734C517.309 392.7 520.292 389.403 522.921 385.554C527.054 379.503 531.469 373.708 533.582 366.491C534.858 362.132 537.683 359.016 542.276 359.969C550.24 361.621 558.874 359.827 567.256 359.33C570.454 359.141 573.321 359.606 575.761 361.175C578.343 362.834 581.221 363.574 584.594 363.202C587.49 362.883 590.184 363.319 592.874 363.733C596.144 364.237 599.452 363.963 603.005 361.156C605.433 359.237 607.865 358.758 609.928 359.661C612.585 360.824 615.492 361.322 618.303 362.085C619.921 362.525 621.544 363.312 622.629 364.585C624.158 366.379 626.262 367.061 628.394 367.221C632.507 367.53 636.489 368.432 640.911 367.63C643.121 367.229 644.866 367.667 646.195 369.344C649.163 373.086 653.419 374.884 657.297 377.22C660.222 378.982 663.89 378.503 667.557 376.394C672.448 373.582 676.87 372.811 681.04 374.295C682.543 374.83 684.273 374.614 685.957 374.471C689.759 374.147 692.444 375.562 693.846 379.294C694.456 380.916 695.325 382.339 696.104 383.825C697.88 387.211 697.446 389.176 693.663 392.03C688.686 395.784 685.849 401.031 683.53 406.802C681.682 411.401 681.871 415.322 683.432 418.731C684.85 421.827 686.478 424.729 687.728 427.987C689.038 431.402 691.681 432.04 695.347 430.43C696.153 430.077 696.962 429.723 697.76 429.304C701.192 427.501 704.208 427.369 706.523 429.523C708.999 431.825 711.98 433.387 714.25 435.993C716.877 439.009 717.057 443.789 718.14 447.908C718.501 449.278 717.535 450.64 716.3 451.712C710.675 456.595 707.348 462.93 705.119 470.054C704.215 472.944 702.578 475.597 700.803 478.161C697.835 482.449 695.54 486.973 694.967 491.967C694.252 498.195 691.326 503.996 688.253 509.744C687.043 512.01 685.776 514.267 684.391 516.425C680.419 522.612 677.655 529.074 676.406 535.948C676.143 537.396 675.638 538.817 674.925 540.212C672.456 545.047 671.408 549.973 670.572 554.926C669.822 559.375 669.071 563.829 668.16 568.294C667.375 572.137 666.32 575.976 663.589 579.349C662.326 580.909 662.021 582.46 663.068 583.49C664.639 585.035 666.363 586.453 669.039 585.555C671.709 584.661 674.376 584.458 677.064 582.621C677.789 582.126 678.686 581.953 679.439 581.921C680.899 581.861 681.754 582.737 681.513 584.586C681.306 586.18 680.317 587.448 678.985 587.966C675.9 589.166 672.789 590.495 669.734 591.244C667.518 591.788 665.41 592.507 663.445 594.302C660.765 596.75 658.193 597.322 655.693 596.81C652.651 596.188 649.655 595.78 646.089 597.733C644.812 598.433 643.497 598.16 642.3 597.794C640.778 597.328 639.133 596.99 637.484 599.238C635.85 601.467 635.849 603.344 636.623 605.341C638.122 609.209 637.508 610.6 633.494 613.324C631.289 614.82 629.075 616.064 626.733 616.709C624.364 617.362 622.383 617.309 620.539 616.167C616.645 613.756 615.9 614.08 611.487 619.185C607.508 623.789 603.323 626.556 598.58 626.138C597.278 626.023 596.194 625.649 595.272 624.84C592.973 622.825 587.574 623.51 584.614 626.071C582.876 627.574 582.346 629.483 582.183 631.348C581.817 635.544 581.975 639.603 580.95 643.972C580.708 645.003 581.03 646.07 581.244 647.025C582.058 650.648 582.989 650.743 585.682 647.124C587.632 644.504 589.638 643.252 591.993 643.392C594.132 643.52 596.323 643.531 598.354 643.954C600.026 644.301 601.936 644.938 601.923 647.273C601.908 650.161 601.751 653.041 602.412 655.642C602.67 656.657 602.03 657.688 600.994 658.558C597.827 661.222 593.636 661.793 591.499 659.387C590.331 658.071 589.043 657.066 587.468 656.437C584.755 655.355 582.281 655.118 579.327 659.391C577.266 662.373 574.264 662.716 571.596 663.203C570.543 663.395 569.524 663.231 568.473 663.533C566.751 664.028 565.306 665.163 564.675 667.495C564.331 668.767 563.763 670.043 563.486 671.307C562.76 674.621 560.775 676.83 558.298 678.202C555.522 679.738 552.735 681.19 549.97 682.822C548.065 683.946 546.191 683.935 544.501 683.623C538.149 682.451 532.601 686.233 527.973 693.248C524.73 698.162 520.804 702.191 517.306 706.742C515.504 709.086 513.462 710.298 511.264 710.662C508.569 711.108 505.973 711.976 503.31 713.931C499.691 716.588 497.049 715.523 494.974 713.118C494.179 712.197 493.608 710.995 493 709.86C491.638 707.319 489.878 705.322 487.427 704.176C482.72 701.974 479.497 697.566 475.316 694.57C473.469 693.247 472.896 690.629 473.193 687.723C473.767 682.097 471.497 679.592 467.364 679.124C465.187 678.877 464.134 677.111 462.922 675.596C460.485 672.55 457.513 670.978 453.12 671.997C449.528 672.83 446.384 671.785 444.185 669.509C442.029 667.278 439.316 666.566 436.399 666.163C433.365 665.743 430.945 664.492 429.07 662.017C427.199 659.547 424.891 657.603 422.27 656.142C420.283 655.035 418.432 653.769 416.867 651.973C415.418 650.31 413.516 649.081 411.278 648.811C408.714 648.501 406.761 647.189 404.761 645.871C403.166 644.82 401.658 643.557 399.424 643.843C394.492 644.473 390.578 643.012 387.473 639.6C385.343 637.26 382.886 635.324 380.579 633.203C380.222 632.876 379.776 632.62 379.557 632.166C379.115 631.248 378.326 630.329 379.022 628.942C379.943 627.107 381.351 627.421 382.314 627.654C386.711 628.718 391.226 629.314 396.08 628.928C397.955 628.779 399.163 630.068 400.437 631.233C404.356 634.816 408.262 638.429 413.661 639.62C415.609 640.05 417.612 640.092 419.73 639.72C423.208 639.108 426.527 638.923 429.537 640.064C433.9 641.718 438.55 639.219 443.131 635.928C445.557 634.185 447.922 632.196 450.237 630.154C457.667 623.602 461.725 613.378 459.457 605.349C457.1 597.004 453.985 589.193 447.354 584.95C445.079 583.494 443.841 580.869 442.764 578.117C442.229 576.749 441.823 575.276 441.256 573.936C439.363 569.464 437.09 568.373 432.229 571.052C428.299 573.218 425.962 570.582 426.023 567.017C426.102 562.425 426.291 557.796 426.359 553.209C426.379 551.866 426.881 550.692 427.593 549.491C428.387 548.152 429.355 547.057 430.426 545.972C435.643 540.687 435.607 540.673 439.523 544.656C441.777 546.948 444.721 546.956 448.175 545.048C450.294 543.878 452.404 542.655 454.518 541.459C456.687 540.232 458.949 539.986 459.921 541.667C463.335 547.57 469.516 548.047 475.31 549.402C477.439 549.9 479.428 550.766 481.432 551.566C483.136 552.247 484.756 553.274 485.192 555.416C486.493 561.802 491.056 564.03 495.827 565.202C502.332 566.799 507.852 570.041 513.425 573.284C519.023 576.541 525.391 578.165 531.55 580.233C532.569 580.575 533.691 580.883 534.841 580.706C541.028 579.756 546.312 581.42 551.857 582.505C558.565 583.817 565.467 584.691 572.911 583.738C577.487 583.153 581.904 583.496 586.414 583.327C592.278 583.107 597.906 579.842 603.288 575.133C609.85 569.391 611.354 561.649 606.752 557.05C603.062 553.363 599.117 549.983 594.528 547.64C591.03 545.854 588.297 543.356 586.898 538.946C585.399 534.222 581.901 532.132 577.311 532.157C574.795 532.171 572.647 531.566 570.726 530.29C567.971 528.459 564.83 527.693 561.077 528.608C558.985 529.118 557.267 528.611 555.732 527.58C551.056 524.438 545.597 523.999 539.225 526.439C536.352 527.539 533.64 527.506 531.363 526.273C528.162 524.541 524.514 524.567 520.5 526.161C517.542 527.335 515.352 526.966 513.838 524.58C512.129 521.885 509.799 520.015 507.33 518.289C505.268 516.848 503.764 514.717 502.919 511.85C501.854 508.237 500.112 505.476 496.622 504.544C494.098 503.871 493.039 501.028 492.051 498.382C490.293 493.678 487.281 490.587 483.037 489.133C480.763 488.353 478.339 487.956 475.781 487.882C469.722 487.706 465.436 482.044 465.589 474.713C465.729 468.01 463.198 464.094 457.251 464.505C450.584 464.965 444.705 462.866 437.975 463.7C435.834 463.965 434.063 463.26 432.344 462.333C429.515 460.807 426.346 459.656 423.824 457.852C419.587 454.82 414.533 453.522 410.139 450.924C408.028 449.676 407.587 448.718 408.85 444.979C410.76 439.324 410.065 435.377 406.767 432.774C406.397 432.482 406.248 431.824 405.84 431.633C404.263 430.894 403.304 429.368 402.392 427.863C400.275 424.367 397.203 422.458 393.485 421.482C391.06 420.846 389.485 419.371 390.235 415.629C391.308 410.271 389.149 407.815 385.585 406.76C377.913 404.489 369.986 402.934 361.433 403.219C356.847 403.372 352.618 402.738 349.317 399.84C348.686 399.286 347.863 399.006 347.156 398.553C344.413 396.795 341.488 397.585 338.214 400.586C333.783 404.65 332.621 404.861 329.866 401.106C326.857 397.005 322.448 395.496 317.938 394.148C315.058 393.287 312.316 392.379 309.878 390.549C306.245 387.821 302.207 385.678 297.668 384.546C292.568 383.274 287.915 381.111 283.494 378.469C280.718 376.81 277.822 375.356 274.992 373.789C273.319 372.862 271.791 371.785 270.491 370.231C267.788 366.999 264.217 365.198 260.369 363.65C255.147 361.55 250.066 359.159 244.712 357.308C243.02 356.722 241.395 355.779 240.158 354.469C238.534 352.751 236.587 351.631 234.615 350.515C233.375 349.813 232.144 349.142 230.671 348.814C228.654 348.364 226.884 347.263 225.423 345.768C223.225 343.518 220.801 341.761 217.943 340.431C211.872 337.606 206.088 334.223 200.841 329.942C197.857 327.508 194.378 325.756 190.486 325.066C186.433 324.348 183.626 321.66 180.91 318.964C177.946 316.021 174.291 314.742 170.204 314.266C163.37 313.47 157.811 310.314 152.861 306.005C151.02 304.403 149.003 303.016 146.749 302.274C141.786 300.641 138.12 297.344 135.454 292.561C133.738 289.483 130.721 288.536 127.66 287.857C123.135 286.852 118.396 286.426 113.515 286.504C112.222 286.524 110.934 286.62 109.555 287.398C106.679 289.023 105.202 291.757 105.292 295.069C105.381 298.382 107.132 300.163 108.995 301.588C112.037 303.915 114.814 306.666 118.306 308.315C121.504 309.825 123.585 312.883 125.793 315.697C127.305 317.625 126.645 319.413 124.311 321.741C122.077 323.97 119.8 324.524 117.694 324.239C112.493 323.535 107.767 321.734 103.896 318.382C99.4822 314.561 94.444 311.905 89.0101 309.864C85.9803 308.726 82.9619 307.555 80.0114 306.231C71.6162 302.464 63.8876 297.381 54.7477 295.074C52.8361 294.591 51.2609 293.432 49.7989 292.177C45.2019 288.231 40.0539 285.279 34.3555 283.233C32.7801 282.668 31.2153 281.852 30.0903 280.603C28.6674 279.023 26.9376 277.976 25.2161 276.934C20.9206 274.332 16.8289 271.444 13.1818 267.87C13.0956 267.786 12.9893 267.724 12.8818 267.672C5.52816 264.111 -0.131625 257.797 -7.54929 254.32C-9.94422 253.197 -12.4449 252.339 -14.9911 251.585C-20.626 249.917 -25.4944 247.008 -29.8602 243.103C-32.6387 240.618 -35.7731 238.605 -38.892 236.619C-41.2268 235.131 -43.1921 233.143 -45.2801 231.327C-50.1982 227.051 -55.2789 223.033 -60.9951 220.013C-64.0531 218.397 -67.5356 217.623 -70.5044 215.773C-72.3459 214.626 -73.5853 212.662 -75.5957 211.788C-81.1816 209.361 -86.5176 206.43 -92.6339 205.089C-95.9892 204.353 -99.1226 203.151 -101.985 201.354C-114.579 193.451 -127.821 186.66 -140.491 178.9C-146.469 175.239 -152.653 171.765 -157.726 166.646C-161.373 162.966 -161.482 160.276 -157.787 154.232C-154.898 149.507 -152.972 144.876 -152.904 139.824C-152.879 137.979 -152.188 136.066 -151.312 134.144C-148.834 128.708 -149.249 124.417 -152.072 121.255C-153.617 119.525 -155.247 117.901 -156.84 116.231C-157.383 115.661 -157.719 114.932 -157.054 113.863C-156.416 112.838 -155.53 112.696 -154.818 112.87C-153.997 113.07 -153.298 113.566 -152.522 113.886C-145.51 116.78 -139.11 120.773 -132.584 124.538C-130.611 125.676 -128.38 126.196 -125.915 124.46C-120.178 120.421 -115.776 122.01 -111.28 123.485C-105.858 125.262 -101.237 128.53 -96.1732 130.974C-94.9965 131.542 -93.9569 132.3 -92.4915 132.371C-88.921 132.546 -86.3139 130.844 -84.0367 126.53C-81.916 122.513 -82.0437 119.612 -84.5868 117.245C-88.2025 113.879 -92.367 111.298 -95.763 107.592C-96.9567 106.29 -98.626 105.406 -100.54 105.179C-101.145 105.108 -101.705 104.862 -102.233 104.598C-103.125 104.152 -103.868 103.415 -103.646 102.022C-103.412 100.547 -102.311 99.7186 -101.194 99.154C-99.0605 98.0751 -96.922 96.8068 -94.7852 96.0368C-90.5207 94.5002 -86.6755 95.0408 -82.9846 95.889C-81.4648 96.2383 -80.2639 97.2601 -79.7696 99.2148C-79.3633 100.821 -78.5474 102.283 -77.2006 102.842C-74.3548 104.022 -72.2035 106.016 -70.6854 108.982C-69.4273 111.44 -67.0297 111.453 -64.3583 110.614C-63.8239 110.446 -63.2849 110.142 -62.7477 109.907C-56.9735 107.383 -56.2272 107.631 -54.7676 113.269C-53.4888 118.208 -51.5386 120.869 -44.5835 118.168C-40.553 116.602 -36.5497 114.767 -32.5421 114.193C-30.6219 113.918 -28.7364 112.6 -27.0789 111.023C-21.559 105.77 -16.412 105.931 -11.8755 107.623C-7.52539 109.246 -3.55449 108.912 1.33922 104.867C3.76494 102.862 6.57795 101.664 9.24323 100.388C11.5819 99.2687 12.2378 99.8033 11.7781 102.583C11.0593 106.929 11.5527 110.512 13.2706 113.537C14.0603 114.927 14.0142 116.784 13.8171 118.703C12.9073 127.558 16.479 132.07 22.7415 133.794C24.8865 134.385 26.6149 135.677 28.5793 136.561C32.9695 138.536 37.5824 138.54 42.9444 134.801C45.6015 132.949 48.2595 132.199 50.788 132.721C54.0065 133.386 57.3602 132.802 60.9525 130.884C62.5221 130.046 64.1799 129.545 65.7683 129.186C68.2414 128.626 70.5802 127.452 72.8821 125.584C75.3478 123.583 77.4675 123.357 79.5996 124.518C83.1152 126.432 85.9292 129.188 88.3408 132.589C89.9595 134.872 90.7059 137.509 89.846 141.141C88.8146 145.497 89.5773 148.631 92.0149 150.928C94.0343 152.831 95.6366 155.333 98.222 156.407C103.088 158.429 106.272 162.647 108.16 168C110.794 175.466 115.822 177.866 123.313 176.89C127.874 176.295 132.183 177.047 136.897 176.001C138.404 175.667 139.861 176.302 141.222 176.758C142.775 177.277 144.457 177.075 146.196 176.637C149.851 175.715 152.416 173.049 153.951 168.733C154.87 166.147 155.408 163.585 155.256 161.17C155.003 157.113 155.767 152.785 155.998 148.601C156.154 145.77 156.853 145.184 159.402 144.199C162.545 142.985 164.553 144.801 166.927 145.488C169.09 146.114 171.039 147.341 172.571 149.232C174.768 151.946 177.796 153.232 181.281 153.802C186.388 154.637 191.239 156.129 197.071 154.519C200.793 153.492 203.268 150.834 205.064 146.797C205.609 145.57 205.941 144.256 206.27 142.982C206.723 141.227 207.029 139.472 207.491 137.719C208.212 134.982 209.214 133.9 211.448 133.766C212.986 133.674 214.487 133.886 215.897 134.228C217.746 134.678 219.687 134.627 221.708 133.468C225.985 131.015 229.708 131.334 233.178 132.482C236.166 133.471 239.215 133.077 242.705 131.901C248.123 130.075 252.754 131.089 256.319 134.554C258.055 136.241 259.529 138.227 261.648 139.451C264.77 141.253 268.082 140.966 271.738 137.711C275.195 134.632 277.452 128.775 277.003 124.343C276.828 122.605 276.146 121.118 275.922 119.398C275.709 117.763 274.679 116.084 276.363 114.151C277.801 112.501 279.561 112.404 281.005 112.699C285.119 113.54 288.866 115.103 291.624 118.405C294.276 121.58 293.841 125.057 290.238 129.442C289.167 130.746 288.046 131.998 287.016 133.343C283.586 137.82 283.268 141.759 285.757 145.026C287.828 147.743 290.65 149.259 294.08 148.74C300.58 147.756 304.198 151.857 308.606 154.9C314.066 158.67 319.732 162.167 327.513 161.193C334.344 160.337 345.221 149.286 347.757 140.539C348.599 137.633 348.617 135.15 347.828 132.933C346.836 130.143 345.87 127.329 344.408 124.913C343.085 122.728 342.166 120.19 341.656 117.356C340.91 113.214 341.941 110.505 345.613 107.815C349.818 104.736 354.07 101.772 358.357 98.9854C361.646 96.8475 362.516 97.7817 361.464 101.967C360.824 104.511 359.942 107.067 359.425 109.599C357.84 117.357 359.878 121.229 365.793 121.954C367.273 122.136 368.777 122.265 370.307 122.274C374.034 122.296 376.892 123.679 378.556 127.248C379.777 129.866 382.186 130.861 384.672 131.466C387.779 132.222 391.626 129.795 394.261 125.806C396.19 122.885 397.39 119.768 398.216 116.511C398.985 113.476 399.915 110.446 401.495 107.544C404.311 102.37 406.321 100.967 410.546 101.437C412.525 101.657 414.445 102.063 416.365 102.457C420.597 103.327 424.886 101.932 429.192 98.2155C432.059 95.7406 435.04 93.8203 438.152 92.4943C440.842 91.3477 443.015 89.0879 445.076 86.6201C446.714 84.6581 448.404 82.7986 450.35 81.4369C453.89 78.9599 456.679 79.2574 457.778 82.8295C459.476 88.3483 461.334 93.6693 464.447 97.9732C465.279 99.1241 465.369 100.767 465.067 102.608C464.834 104.032 464.66 105.487 464.71 106.827C464.833 110.131 467.595 111.676 470.502 110.092C471.551 109.521 472.597 108.74 473.57 107.893C480.302 102.042 486.736 99.7738 492.957 102.554C495.155 103.537 497.819 103.345 500.508 102.752C501.983 102.427 503.546 101.971 504.873 100.683C508.996 96.683 513.087 92.6221 517.122 88.4775C519.881 85.6438 520.598 82.4441 520.13 79.1565C519.6 75.4395 519.94 74.6278 523.309 72.8625C526.837 71.0135 529.696 68.3269 531.675 64.2093C533.284 60.8612 535.479 58.7701 538.441 57.6233C540.57 56.799 542.68 55.3576 544.812 54.3466C552.168 50.8593 556.349 51.7316 559.474 58.0522C562.574 64.3192 568.428 65.0433 574.62 65.0352C578.412 65.0302 582.14 65.1001 584.587 67.8763C586.495 70.0403 588.823 71.4261 591.151 72.8908C592.906 73.995 594.853 74.5381 597.073 74.5369C602.832 74.5339 607.307 76.5646 609.313 82.7156C609.847 84.3522 610.845 85.7546 611.951 86.8409C614.367 89.2131 617.681 88.0307 620.366 84.0665C620.739 83.5168 621.057 82.9187 621.369 82.3279C624.304 76.7653 625.196 76.3707 628.704 79.1292C631.38 81.233 633.407 84.0324 634.702 87.6425C636.483 92.6103 638.636 97.2124 642.235 100.405C643.597 101.614 644.462 103.393 645.411 105.067C646.586 107.14 648.18 108.517 650.69 108.437C653.611 108.343 655.528 109.69 656.394 112.833C657.059 115.245 658.608 116.882 660.206 118.368C661.023 119.127 661.654 120.049 662.116 121.155C663.441 124.329 662.929 126.142 659.629 128.812C657.589 130.463 655.797 132.399 654.144 134.53C652.022 137.266 649.675 138.396 647.345 138.031C644.18 137.534 641.013 137.994 637.593 140.049C636.96 140.429 636.231 140.609 635.596 140.65C631.425 140.92 627.489 142.719 623.448 146.117C621.119 148.075 618.331 148.189 615.907 148.28C611.776 148.436 607.476 149.459 603.436 149.157C600.396 148.929 597.586 150.532 595.402 154.22C594.17 156.302 592.614 157.526 590.812 158.334C588.504 159.369 586.422 160.981 584.325 162.89C578.617 168.087 572.371 170.792 566.832 166.711C564.315 164.857 561.65 163.241 558.51 161.894Z"/>
    </mask>
    <path d="M558.51 161.894C556.365 160.656 553.916 159.378 551.605 157.875C548.573 155.903 545.014 155.004 541.625 153.803C538.87 152.828 536.409 151.395 533.886 150.038C532.663 149.38 532.07 148.018 531.663 146.564C530.515 142.463 528.265 139.963 524.272 139.74C521.171 139.566 518.787 137.885 516.374 136.339C513.71 134.632 510.66 133.918 507.381 133.672C506.007 133.57 504.583 133.525 503.348 133.092C500.316 132.031 498.372 129.819 498.901 125.253C499.102 123.519 499.259 121.791 499.373 120.077C499.496 118.244 498.91 116.85 497.575 116.481C496.047 116.059 494.369 117.001 493.079 118.819C492.003 120.336 490.902 121.974 490.22 123.66C488.73 127.346 486.343 129.277 483.495 130.016C481.069 130.644 478.985 132.096 476.966 134.144C474.86 136.279 472.634 138.112 470.274 139.632C465.557 142.668 462.649 147.14 461.14 152.871C459.101 160.612 456.679 163.229 450.118 164.934C448.516 165.35 446.899 165.7 445.346 165.808C442.182 166.029 439.294 167.596 436.386 170.315C429.781 176.493 423.407 182.982 417.686 190.402C415.976 192.619 414.098 194.401 411.967 195.68C408.985 197.472 406.865 197.284 405.682 194.629C402.717 187.972 397.568 184.94 390.739 184.582C387.635 184.419 385.044 183.207 382.662 181.576C380.581 180.15 378.222 179.869 375.384 180.938C371.714 182.32 368.169 182.596 364.676 182.77C360.998 182.953 357.836 182.06 355.458 179.235C353.562 176.983 350.835 176.277 347.361 178.419C343.479 180.814 339.611 180.714 335.706 182.525C330.894 184.757 326.054 186.668 321.225 188.694C317.65 190.194 314.388 192.583 311.424 195.941C309.3 198.347 307.03 200.511 304.488 201.993C300.627 204.244 296.99 205.241 293.984 202.937C293.032 202.207 291.865 201.794 290.942 201.026C288.697 199.159 286.094 198.554 282.748 199.846C279.089 201.258 276.981 198.94 274.782 197.133C273.771 196.302 272.828 195.35 271.772 194.559C270.13 193.328 268.249 193.065 265.929 194.363C262.641 196.203 259.828 195.789 257.251 194.703C254.061 193.359 250.616 193.145 246.75 194.42C241.35 196.201 236.053 197.155 230.826 197.543C228.297 197.731 225.871 198.454 223.332 200.508C220.557 202.754 219.215 201.907 219.666 198.396C219.866 196.837 220.359 195.206 220.838 193.617C221.465 191.534 222.01 189.48 222.134 187.432C222.363 183.671 221.284 181.542 218.283 181.145C213.999 180.578 210.666 178.239 207.115 176.275C205.888 175.596 205.419 174.191 204.778 172.917C202.927 169.237 200.796 169.003 197.011 172.249C194.783 174.159 192.561 175.925 190.13 177.193C189.1 177.731 187.958 178.579 187.169 179.595C182.48 185.638 177.905 191.704 176.911 199.53C176.284 204.465 174.688 206.614 170.586 208.703C168.289 209.872 166.151 211.429 164.003 213.129C160.839 215.633 159.734 215.488 157.286 213.587C154.466 211.396 150.7 211.454 147.011 211.476C143.682 211.495 140.279 211.817 136.943 211.865C132.292 211.932 128.17 210.569 124.078 209.155C122.679 208.672 121.166 208.587 119.544 209.06C116.197 210.037 112.845 211.064 109.494 212.205C106.156 213.342 103.774 216.105 102.662 219.973C101.766 223.088 100.251 225.418 97.9521 227.553C94.7095 230.564 93.8638 232.842 94.788 236.505C95.84 240.674 96.9156 244.891 100.18 247.102C101.06 247.698 101.787 248.558 102.498 249.4C104.147 251.352 103.839 252.562 101.187 254.146C99.9364 254.893 98.755 255.553 98.4166 257.269C98.1184 258.781 98.9673 259.432 99.8331 259.823C103.571 261.511 106.359 264.706 109.943 266.639C114.493 269.093 117.689 273.507 121.825 276.585C132.701 284.679 143.415 293.027 157.717 294.811C159.433 295.025 161.083 295.508 162.635 296.129C166.174 297.545 170.118 297.473 174.25 296.779C177.363 296.256 180.377 294.867 183.335 292.402C185.811 290.338 188.36 288.432 190.91 286.558C194.661 283.803 198.096 280.556 200.972 276.42C202.258 274.571 203.62 272.868 205.352 271.735C209.426 269.069 212.734 271.656 211.516 276.642C211.093 278.374 210.284 280.119 209.603 281.847C206.521 289.674 208.048 299.998 212.935 303.486C215.082 305.019 217.281 306.523 219.68 307.602C225.308 310.135 231.764 308.816 238.474 305.752C240.067 305.025 241.601 303.766 242.911 302.117C246.596 297.48 250.265 297.241 253.708 298.626C255.702 299.429 257.761 300.423 259.131 302.104C261.337 304.811 264.45 305.25 267.745 305.289C273.496 305.358 278.551 307.458 284.379 307.324C286.761 307.269 287.601 309.68 288.119 312.103C289.041 316.409 290.389 320.352 292.698 323.542C295.602 327.553 298.17 328.004 303.213 324.296C307.654 321.03 311.217 320.658 313.871 323.962C316.28 326.962 319.782 327.394 323.469 327.487C329.814 327.647 335.372 329.534 340.043 333.255C342.381 335.117 344.453 337.383 346.517 339.628C347.19 340.36 347.899 340.976 348.714 341.477C351.781 343.362 354.591 345.532 356.503 349.014C357.882 351.527 360.24 352.411 363.393 351.227C363.795 351.076 364.198 350.989 364.601 350.853C371.425 348.549 372.436 350.301 373.602 355.505C374.002 357.293 374.725 358.84 375.955 359.894C378.324 361.924 380.622 364.057 383.039 366.016C385.399 367.93 388.491 367.779 391.743 367.142C396.006 366.307 400.183 365.686 403.782 367.486C406.135 368.663 407.92 370.346 408.554 373.4C409.742 379.133 412.767 383.04 416.358 386.339C418.51 388.315 421.076 389.597 424.171 389.821C429.599 390.212 432.593 393.376 432.846 400.121C433.054 405.659 434.545 407.071 439.43 405.596C444.39 404.098 446.922 406.303 448.792 410.163C448.963 410.516 449.115 410.889 449.24 411.278C451.951 419.724 458.541 421.549 466.261 421.506C467.922 421.497 469.436 420.702 470.947 419.4C471.804 418.661 472.631 417.857 473.465 417.068C476.7 414.005 479.774 412.781 482.965 414.06C484.283 414.588 485.69 414.986 487.002 415.566C490.755 417.228 494.64 416.301 498.675 412.093C499.365 411.373 500.09 410.686 500.718 409.897C504.847 404.708 509.371 400.094 514.052 395.734C517.309 392.7 520.292 389.403 522.921 385.554C527.054 379.503 531.469 373.708 533.582 366.491C534.858 362.132 537.683 359.016 542.276 359.969C550.24 361.621 558.874 359.827 567.256 359.33C570.454 359.141 573.321 359.606 575.761 361.175C578.343 362.834 581.221 363.574 584.594 363.202C587.49 362.883 590.184 363.319 592.874 363.733C596.144 364.237 599.452 363.963 603.005 361.156C605.433 359.237 607.865 358.758 609.928 359.661C612.585 360.824 615.492 361.322 618.303 362.085C619.921 362.525 621.544 363.312 622.629 364.585C624.158 366.379 626.262 367.061 628.394 367.221C632.507 367.53 636.489 368.432 640.911 367.63C643.121 367.229 644.866 367.667 646.195 369.344C649.163 373.086 653.419 374.884 657.297 377.22C660.222 378.982 663.89 378.503 667.557 376.394C672.448 373.582 676.87 372.811 681.04 374.295C682.543 374.83 684.273 374.614 685.957 374.471C689.759 374.147 692.444 375.562 693.846 379.294C694.456 380.916 695.325 382.339 696.104 383.825C697.88 387.211 697.446 389.176 693.663 392.03C688.686 395.784 685.849 401.031 683.53 406.802C681.682 411.401 681.871 415.322 683.432 418.731C684.85 421.827 686.478 424.729 687.728 427.987C689.038 431.402 691.681 432.04 695.347 430.43C696.153 430.077 696.962 429.723 697.76 429.304C701.192 427.501 704.208 427.369 706.523 429.523C708.999 431.825 711.98 433.387 714.25 435.993C716.877 439.009 717.057 443.789 718.14 447.908C718.501 449.278 717.535 450.64 716.3 451.712C710.675 456.595 707.348 462.93 705.119 470.054C704.215 472.944 702.578 475.597 700.803 478.161C697.835 482.449 695.54 486.973 694.967 491.967C694.252 498.195 691.326 503.996 688.253 509.744C687.043 512.01 685.776 514.267 684.391 516.425C680.419 522.612 677.655 529.074 676.406 535.948C676.143 537.396 675.638 538.817 674.925 540.212C672.456 545.047 671.408 549.973 670.572 554.926C669.822 559.375 669.071 563.829 668.16 568.294C667.375 572.137 666.32 575.976 663.589 579.349C662.326 580.909 662.021 582.46 663.068 583.49C664.639 585.035 666.363 586.453 669.039 585.555C671.709 584.661 674.376 584.458 677.064 582.621C677.789 582.126 678.686 581.953 679.439 581.921C680.899 581.861 681.754 582.737 681.513 584.586C681.306 586.18 680.317 587.448 678.985 587.966C675.9 589.166 672.789 590.495 669.734 591.244C667.518 591.788 665.41 592.507 663.445 594.302C660.765 596.75 658.193 597.322 655.693 596.81C652.651 596.188 649.655 595.78 646.089 597.733C644.812 598.433 643.497 598.16 642.3 597.794C640.778 597.328 639.133 596.99 637.484 599.238C635.85 601.467 635.849 603.344 636.623 605.341C638.122 609.209 637.508 610.6 633.494 613.324C631.289 614.82 629.075 616.064 626.733 616.709C624.364 617.362 622.383 617.309 620.539 616.167C616.645 613.756 615.9 614.08 611.487 619.185C607.508 623.789 603.323 626.556 598.58 626.138C597.278 626.023 596.194 625.649 595.272 624.84C592.973 622.825 587.574 623.51 584.614 626.071C582.876 627.574 582.346 629.483 582.183 631.348C581.817 635.544 581.975 639.603 580.95 643.972C580.708 645.003 581.03 646.07 581.244 647.025C582.058 650.648 582.989 650.743 585.682 647.124C587.632 644.504 589.638 643.252 591.993 643.392C594.132 643.52 596.323 643.531 598.354 643.954C600.026 644.301 601.936 644.938 601.923 647.273C601.908 650.161 601.751 653.041 602.412 655.642C602.67 656.657 602.03 657.688 600.994 658.558C597.827 661.222 593.636 661.793 591.499 659.387C590.331 658.071 589.043 657.066 587.468 656.437C584.755 655.355 582.281 655.118 579.327 659.391C577.266 662.373 574.264 662.716 571.596 663.203C570.543 663.395 569.524 663.231 568.473 663.533C566.751 664.028 565.306 665.163 564.675 667.495C564.331 668.767 563.763 670.043 563.486 671.307C562.76 674.621 560.775 676.83 558.298 678.202C555.522 679.738 552.735 681.19 549.97 682.822C548.065 683.946 546.191 683.935 544.501 683.623C538.149 682.451 532.601 686.233 527.973 693.248C524.73 698.162 520.804 702.191 517.306 706.742C515.504 709.086 513.462 710.298 511.264 710.662C508.569 711.108 505.973 711.976 503.31 713.931C499.691 716.588 497.049 715.523 494.974 713.118C494.179 712.197 493.608 710.995 493 709.86C491.638 707.319 489.878 705.322 487.427 704.176C482.72 701.974 479.497 697.566 475.316 694.57C473.469 693.247 472.896 690.629 473.193 687.723C473.767 682.097 471.497 679.592 467.364 679.124C465.187 678.877 464.134 677.111 462.922 675.596C460.485 672.55 457.513 670.978 453.12 671.997C449.528 672.83 446.384 671.785 444.185 669.509C442.029 667.278 439.316 666.566 436.399 666.163C433.365 665.743 430.945 664.492 429.07 662.017C427.199 659.547 424.891 657.603 422.27 656.142C420.283 655.035 418.432 653.769 416.867 651.973C415.418 650.31 413.516 649.081 411.278 648.811C408.714 648.501 406.761 647.189 404.761 645.871C403.166 644.82 401.658 643.557 399.424 643.843C394.492 644.473 390.578 643.012 387.473 639.6C385.343 637.26 382.886 635.324 380.579 633.203C380.222 632.876 379.776 632.62 379.557 632.166C379.115 631.248 378.326 630.329 379.022 628.942C379.943 627.107 381.351 627.421 382.314 627.654C386.711 628.718 391.226 629.314 396.08 628.928C397.955 628.779 399.163 630.068 400.437 631.233C404.356 634.816 408.262 638.429 413.661 639.62C415.609 640.05 417.612 640.092 419.73 639.72C423.208 639.108 426.527 638.923 429.537 640.064C433.9 641.718 438.55 639.219 443.131 635.928C445.557 634.185 447.922 632.196 450.237 630.154C457.667 623.602 461.725 613.378 459.457 605.349C457.1 597.004 453.985 589.193 447.354 584.95C445.079 583.494 443.841 580.869 442.764 578.117C442.229 576.749 441.823 575.276 441.256 573.936C439.363 569.464 437.09 568.373 432.229 571.052C428.299 573.218 425.962 570.582 426.023 567.017C426.102 562.425 426.291 557.796 426.359 553.209C426.379 551.866 426.881 550.692 427.593 549.491C428.387 548.152 429.355 547.057 430.426 545.972C435.643 540.687 435.607 540.673 439.523 544.656C441.777 546.948 444.721 546.956 448.175 545.048C450.294 543.878 452.404 542.655 454.518 541.459C456.687 540.232 458.949 539.986 459.921 541.667C463.335 547.57 469.516 548.047 475.31 549.402C477.439 549.9 479.428 550.766 481.432 551.566C483.136 552.247 484.756 553.274 485.192 555.416C486.493 561.802 491.056 564.03 495.827 565.202C502.332 566.799 507.852 570.041 513.425 573.284C519.023 576.541 525.391 578.165 531.55 580.233C532.569 580.575 533.691 580.883 534.841 580.706C541.028 579.756 546.312 581.42 551.857 582.505C558.565 583.817 565.467 584.691 572.911 583.738C577.487 583.153 581.904 583.496 586.414 583.327C592.278 583.107 597.906 579.842 603.288 575.133C609.85 569.391 611.354 561.649 606.752 557.05C603.062 553.363 599.117 549.983 594.528 547.64C591.03 545.854 588.297 543.356 586.898 538.946C585.399 534.222 581.901 532.132 577.311 532.157C574.795 532.171 572.647 531.566 570.726 530.29C567.971 528.459 564.83 527.693 561.077 528.608C558.985 529.118 557.267 528.611 555.732 527.58C551.056 524.438 545.597 523.999 539.225 526.439C536.352 527.539 533.64 527.506 531.363 526.273C528.162 524.541 524.514 524.567 520.5 526.161C517.542 527.335 515.352 526.966 513.838 524.58C512.129 521.885 509.799 520.015 507.33 518.289C505.268 516.848 503.764 514.717 502.919 511.85C501.854 508.237 500.112 505.476 496.622 504.544C494.098 503.871 493.039 501.028 492.051 498.382C490.293 493.678 487.281 490.587 483.037 489.133C480.763 488.353 478.339 487.956 475.781 487.882C469.722 487.706 465.436 482.044 465.589 474.713C465.729 468.01 463.198 464.094 457.251 464.505C450.584 464.965 444.705 462.866 437.975 463.7C435.834 463.965 434.063 463.26 432.344 462.333C429.515 460.807 426.346 459.656 423.824 457.852C419.587 454.82 414.533 453.522 410.139 450.924C408.028 449.676 407.587 448.718 408.85 444.979C410.76 439.324 410.065 435.377 406.767 432.774C406.397 432.482 406.248 431.824 405.84 431.633C404.263 430.894 403.304 429.368 402.392 427.863C400.275 424.367 397.203 422.458 393.485 421.482C391.06 420.846 389.485 419.371 390.235 415.629C391.308 410.271 389.149 407.815 385.585 406.76C377.913 404.489 369.986 402.934 361.433 403.219C356.847 403.372 352.618 402.738 349.317 399.84C348.686 399.286 347.863 399.006 347.156 398.553C344.413 396.795 341.488 397.585 338.214 400.586C333.783 404.65 332.621 404.861 329.866 401.106C326.857 397.005 322.448 395.496 317.938 394.148C315.058 393.287 312.316 392.379 309.878 390.549C306.245 387.821 302.207 385.678 297.668 384.546C292.568 383.274 287.915 381.111 283.494 378.469C280.718 376.81 277.822 375.356 274.992 373.789C273.319 372.862 271.791 371.785 270.491 370.231C267.788 366.999 264.217 365.198 260.369 363.65C255.147 361.55 250.066 359.159 244.712 357.308C243.02 356.722 241.395 355.779 240.158 354.469C238.534 352.751 236.587 351.631 234.615 350.515C233.375 349.813 232.144 349.142 230.671 348.814C228.654 348.364 226.884 347.263 225.423 345.768C223.225 343.518 220.801 341.761 217.943 340.431C211.872 337.606 206.088 334.223 200.841 329.942C197.857 327.508 194.378 325.756 190.486 325.066C186.433 324.348 183.626 321.66 180.91 318.964C177.946 316.021 174.291 314.742 170.204 314.266C163.37 313.47 157.811 310.314 152.861 306.005C151.02 304.403 149.003 303.016 146.749 302.274C141.786 300.641 138.12 297.344 135.454 292.561C133.738 289.483 130.721 288.536 127.66 287.857C123.135 286.852 118.396 286.426 113.515 286.504C112.222 286.524 110.934 286.62 109.555 287.398C106.679 289.023 105.202 291.757 105.292 295.069C105.381 298.382 107.132 300.163 108.995 301.588C112.037 303.915 114.814 306.666 118.306 308.315C121.504 309.825 123.585 312.883 125.793 315.697C127.305 317.625 126.645 319.413 124.311 321.741C122.077 323.97 119.8 324.524 117.694 324.239C112.493 323.535 107.767 321.734 103.896 318.382C99.4822 314.561 94.444 311.905 89.0101 309.864C85.9803 308.726 82.9619 307.555 80.0114 306.231C71.6162 302.464 63.8876 297.381 54.7477 295.074C52.8361 294.591 51.2609 293.432 49.7989 292.177C45.2019 288.231 40.0539 285.279 34.3555 283.233C32.7801 282.668 31.2153 281.852 30.0903 280.603C28.6674 279.023 26.9376 277.976 25.2161 276.934C20.9206 274.332 16.8289 271.444 13.1818 267.87C13.0956 267.786 12.9893 267.724 12.8818 267.672C5.52816 264.111 -0.131625 257.797 -7.54929 254.32C-9.94422 253.197 -12.4449 252.339 -14.9911 251.585C-20.626 249.917 -25.4944 247.008 -29.8602 243.103C-32.6387 240.618 -35.7731 238.605 -38.892 236.619C-41.2268 235.131 -43.1921 233.143 -45.2801 231.327C-50.1982 227.051 -55.2789 223.033 -60.9951 220.013C-64.0531 218.397 -67.5356 217.623 -70.5044 215.773C-72.3459 214.626 -73.5853 212.662 -75.5957 211.788C-81.1816 209.361 -86.5176 206.43 -92.6339 205.089C-95.9892 204.353 -99.1226 203.151 -101.985 201.354C-114.579 193.451 -127.821 186.66 -140.491 178.9C-146.469 175.239 -152.653 171.765 -157.726 166.646C-161.373 162.966 -161.482 160.276 -157.787 154.232C-154.898 149.507 -152.972 144.876 -152.904 139.824C-152.879 137.979 -152.188 136.066 -151.312 134.144C-148.834 128.708 -149.249 124.417 -152.072 121.255C-153.617 119.525 -155.247 117.901 -156.84 116.231C-157.383 115.661 -157.719 114.932 -157.054 113.863C-156.416 112.838 -155.53 112.696 -154.818 112.87C-153.997 113.07 -153.298 113.566 -152.522 113.886C-145.51 116.78 -139.11 120.773 -132.584 124.538C-130.611 125.676 -128.38 126.196 -125.915 124.46C-120.178 120.421 -115.776 122.01 -111.28 123.485C-105.858 125.262 -101.237 128.53 -96.1732 130.974C-94.9965 131.542 -93.9569 132.3 -92.4915 132.371C-88.921 132.546 -86.3139 130.844 -84.0367 126.53C-81.916 122.513 -82.0437 119.612 -84.5868 117.245C-88.2025 113.879 -92.367 111.298 -95.763 107.592C-96.9567 106.29 -98.626 105.406 -100.54 105.179C-101.145 105.108 -101.705 104.862 -102.233 104.598C-103.125 104.152 -103.868 103.415 -103.646 102.022C-103.412 100.547 -102.311 99.7186 -101.194 99.154C-99.0605 98.0751 -96.922 96.8068 -94.7852 96.0368C-90.5207 94.5002 -86.6755 95.0408 -82.9846 95.889C-81.4648 96.2383 -80.2639 97.2601 -79.7696 99.2148C-79.3633 100.821 -78.5474 102.283 -77.2006 102.842C-74.3548 104.022 -72.2035 106.016 -70.6854 108.982C-69.4273 111.44 -67.0297 111.453 -64.3583 110.614C-63.8239 110.446 -63.2849 110.142 -62.7477 109.907C-56.9735 107.383 -56.2272 107.631 -54.7676 113.269C-53.4888 118.208 -51.5386 120.869 -44.5835 118.168C-40.553 116.602 -36.5497 114.767 -32.5421 114.193C-30.6219 113.918 -28.7364 112.6 -27.0789 111.023C-21.559 105.77 -16.412 105.931 -11.8755 107.623C-7.52539 109.246 -3.55449 108.912 1.33922 104.867C3.76494 102.862 6.57795 101.664 9.24323 100.388C11.5819 99.2687 12.2378 99.8033 11.7781 102.583C11.0593 106.929 11.5527 110.512 13.2706 113.537C14.0603 114.927 14.0142 116.784 13.8171 118.703C12.9073 127.558 16.479 132.07 22.7415 133.794C24.8865 134.385 26.6149 135.677 28.5793 136.561C32.9695 138.536 37.5824 138.54 42.9444 134.801C45.6015 132.949 48.2595 132.199 50.788 132.721C54.0065 133.386 57.3602 132.802 60.9525 130.884C62.5221 130.046 64.1799 129.545 65.7683 129.186C68.2414 128.626 70.5802 127.452 72.8821 125.584C75.3478 123.583 77.4675 123.357 79.5996 124.518C83.1152 126.432 85.9292 129.188 88.3408 132.589C89.9595 134.872 90.7059 137.509 89.846 141.141C88.8146 145.497 89.5773 148.631 92.0149 150.928C94.0343 152.831 95.6366 155.333 98.222 156.407C103.088 158.429 106.272 162.647 108.16 168C110.794 175.466 115.822 177.866 123.313 176.89C127.874 176.295 132.183 177.047 136.897 176.001C138.404 175.667 139.861 176.302 141.222 176.758C142.775 177.277 144.457 177.075 146.196 176.637C149.851 175.715 152.416 173.049 153.951 168.733C154.87 166.147 155.408 163.585 155.256 161.17C155.003 157.113 155.767 152.785 155.998 148.601C156.154 145.77 156.853 145.184 159.402 144.199C162.545 142.985 164.553 144.801 166.927 145.488C169.09 146.114 171.039 147.341 172.571 149.232C174.768 151.946 177.796 153.232 181.281 153.802C186.388 154.637 191.239 156.129 197.071 154.519C200.793 153.492 203.268 150.834 205.064 146.797C205.609 145.57 205.941 144.256 206.27 142.982C206.723 141.227 207.029 139.472 207.491 137.719C208.212 134.982 209.214 133.9 211.448 133.766C212.986 133.674 214.487 133.886 215.897 134.228C217.746 134.678 219.687 134.627 221.708 133.468C225.985 131.015 229.708 131.334 233.178 132.482C236.166 133.471 239.215 133.077 242.705 131.901C248.123 130.075 252.754 131.089 256.319 134.554C258.055 136.241 259.529 138.227 261.648 139.451C264.77 141.253 268.082 140.966 271.738 137.711C275.195 134.632 277.452 128.775 277.003 124.343C276.828 122.605 276.146 121.118 275.922 119.398C275.709 117.763 274.679 116.084 276.363 114.151C277.801 112.501 279.561 112.404 281.005 112.699C285.119 113.54 288.866 115.103 291.624 118.405C294.276 121.58 293.841 125.057 290.238 129.442C289.167 130.746 288.046 131.998 287.016 133.343C283.586 137.82 283.268 141.759 285.757 145.026C287.828 147.743 290.65 149.259 294.08 148.74C300.58 147.756 304.198 151.857 308.606 154.9C314.066 158.67 319.732 162.167 327.513 161.193C334.344 160.337 345.221 149.286 347.757 140.539C348.599 137.633 348.617 135.15 347.828 132.933C346.836 130.143 345.87 127.329 344.408 124.913C343.085 122.728 342.166 120.19 341.656 117.356C340.91 113.214 341.941 110.505 345.613 107.815C349.818 104.736 354.07 101.772 358.357 98.9854C361.646 96.8475 362.516 97.7817 361.464 101.967C360.824 104.511 359.942 107.067 359.425 109.599C357.84 117.357 359.878 121.229 365.793 121.954C367.273 122.136 368.777 122.265 370.307 122.274C374.034 122.296 376.892 123.679 378.556 127.248C379.777 129.866 382.186 130.861 384.672 131.466C387.779 132.222 391.626 129.795 394.261 125.806C396.19 122.885 397.39 119.768 398.216 116.511C398.985 113.476 399.915 110.446 401.495 107.544C404.311 102.37 406.321 100.967 410.546 101.437C412.525 101.657 414.445 102.063 416.365 102.457C420.597 103.327 424.886 101.932 429.192 98.2155C432.059 95.7406 435.04 93.8203 438.152 92.4943C440.842 91.3477 443.015 89.0879 445.076 86.6201C446.714 84.6581 448.404 82.7986 450.35 81.4369C453.89 78.9599 456.679 79.2574 457.778 82.8295C459.476 88.3483 461.334 93.6693 464.447 97.9732C465.279 99.1241 465.369 100.767 465.067 102.608C464.834 104.032 464.66 105.487 464.71 106.827C464.833 110.131 467.595 111.676 470.502 110.092C471.551 109.521 472.597 108.74 473.57 107.893C480.302 102.042 486.736 99.7738 492.957 102.554C495.155 103.537 497.819 103.345 500.508 102.752C501.983 102.427 503.546 101.971 504.873 100.683C508.996 96.683 513.087 92.6221 517.122 88.4775C519.881 85.6438 520.598 82.4441 520.13 79.1565C519.6 75.4395 519.94 74.6278 523.309 72.8625C526.837 71.0135 529.696 68.3269 531.675 64.2093C533.284 60.8612 535.479 58.7701 538.441 57.6233C540.57 56.799 542.68 55.3576 544.812 54.3466C552.168 50.8593 556.349 51.7316 559.474 58.0522C562.574 64.3192 568.428 65.0433 574.62 65.0352C578.412 65.0302 582.14 65.1001 584.587 67.8763C586.495 70.0403 588.823 71.4261 591.151 72.8908C592.906 73.995 594.853 74.5381 597.073 74.5369C602.832 74.5339 607.307 76.5646 609.313 82.7156C609.847 84.3522 610.845 85.7546 611.951 86.8409C614.367 89.2131 617.681 88.0307 620.366 84.0665C620.739 83.5168 621.057 82.9187 621.369 82.3279C624.304 76.7653 625.196 76.3707 628.704 79.1292C631.38 81.233 633.407 84.0324 634.702 87.6425C636.483 92.6103 638.636 97.2124 642.235 100.405C643.597 101.614 644.462 103.393 645.411 105.067C646.586 107.14 648.18 108.517 650.69 108.437C653.611 108.343 655.528 109.69 656.394 112.833C657.059 115.245 658.608 116.882 660.206 118.368C661.023 119.127 661.654 120.049 662.116 121.155C663.441 124.329 662.929 126.142 659.629 128.812C657.589 130.463 655.797 132.399 654.144 134.53C652.022 137.266 649.675 138.396 647.345 138.031C644.18 137.534 641.013 137.994 637.593 140.049C636.96 140.429 636.231 140.609 635.596 140.65C631.425 140.92 627.489 142.719 623.448 146.117C621.119 148.075 618.331 148.189 615.907 148.28C611.776 148.436 607.476 149.459 603.436 149.157C600.396 148.929 597.586 150.532 595.402 154.22C594.17 156.302 592.614 157.526 590.812 158.334C588.504 159.369 586.422 160.981 584.325 162.89C578.617 168.087 572.371 170.792 566.832 166.711C564.315 164.857 561.65 163.241 558.51 161.894Z" fill="#181717" stroke="white" stroke-opacity="0.41" stroke-width="2" mask="url(#path-3-inside-1_0_1)"/>
    <path d="M613.997 275.247C613.5 275.099 612.983 275.238 612.46 275.69C607.952 279.574 603.339 281.176 598.623 281.636C597.203 281.774 595.696 282.252 594.228 282.777C588.984 284.652 583.756 286.482 578.625 286.798C577.472 286.869 576.222 287.289 575.017 287.73C571.756 288.922 568.633 289.419 565.591 289.129C562.204 288.807 559.077 290.631 556.085 294.089C553.331 297.273 551.887 300.493 552.05 304.365C552.258 309.291 551.129 311.267 546.922 313.91C543.957 315.773 541.281 316.26 538.415 315.659C533.079 314.542 529.848 310.065 525.267 307.791C524.06 307.192 523.78 305.478 523.225 304.128C521.049 298.835 517.812 298.383 512.795 303.345C509.609 306.496 506.601 307.661 503.574 307.114C496.258 305.79 488.337 308.238 480.538 309.62C474.016 310.776 467.857 313.3 461.511 317.552C457.245 320.41 452.738 321.967 448.386 321.778C446.066 321.677 443.65 322.527 441.27 324.284C438.977 325.977 436.673 327.633 434.386 329.342C431.673 331.368 429.22 332.21 426.843 330.797C423.748 328.957 420.147 329.992 416.693 333.45C413.426 336.719 410.266 338.141 406.673 338.322C400.575 338.63 394.669 338.698 389.256 336.624C385.576 335.213 381.55 334.555 378.19 332.397C370 327.14 360.467 324.623 351.055 321.901C348.44 321.145 346.17 319.902 344.046 318.34C341.063 316.147 337.708 315.077 333.467 316.161C328.89 317.33 326.082 314.459 323.318 312.069C317.816 307.313 311.445 304.513 303.857 304.204C300.119 304.052 297.313 302.495 295.249 299.522C294.842 298.936 294.328 298.34 294.471 297.29C295.012 296.101 295.88 295.984 296.612 295.918C301.656 295.467 306.399 295.743 309.346 300.006C311.596 303.261 314.913 304.467 318.814 304.627C326.64 304.946 334.628 304.725 342.06 306.364C345.869 307.204 350.004 307.104 353.717 308.276C355.473 308.831 357.082 309.628 358.586 310.553C366.027 315.131 374.274 318.247 381.711 322.815C384.542 324.554 387.92 324.6 391.408 323.04C398.814 319.727 406.166 318.547 413.546 315.332C414.886 314.748 416.257 314.324 417.563 313.559C421.683 311.144 425.273 311.006 428.424 312.926C431.611 314.867 435.255 315.787 438.931 316.692C442.569 317.588 446.095 316.22 449.766 313.1C452.718 310.591 455.49 307.706 458.665 305.655C462.508 303.17 466.3 301.324 470.198 301.132C473.591 300.964 477.06 300.092 480.586 298.502C482.879 297.469 485.145 297.053 487.392 296.745C489.783 296.418 492.181 295.635 494.615 294.551C497.878 293.099 500.642 290.711 502.642 287.075C504.624 283.473 507.241 281.593 510.304 279.973C517.284 276.283 523.918 275.28 530.535 275.254C535.521 275.234 540.593 274.878 545.638 274.62C549.751 274.41 552.982 276.321 556.464 277.581C558.549 278.335 560.66 278.799 563.06 278.408C566.803 277.799 570.319 277.969 573.614 278.874C576.097 279.556 578.619 278.839 581.386 277.299C587.243 274.039 593.165 272.357 599.061 270.547C602.71 269.427 605.577 270.927 608.464 272.012C610.452 272.76 612.666 273.302 613.999 275.254C613.999 275.254 613.997 275.247 613.997 275.247Z" fill="#181717"/>
    <path d="M612.974 274.803C612.683 274.908 612.401 275.08 612.133 275.311C607.712 279.121 603.199 280.687 598.575 281.138L598.623 281.636L598.575 281.138C597.088 281.283 595.531 281.78 594.06 282.306C588.803 284.186 583.642 285.988 578.595 286.299C577.359 286.375 576.045 286.822 574.846 287.26C571.639 288.432 568.591 288.913 565.639 288.631C562.016 288.287 558.744 290.251 555.707 293.762C552.894 297.014 551.38 300.353 551.55 304.386C551.653 306.817 551.42 308.433 550.702 309.755C549.983 311.08 548.738 312.179 546.656 313.487C543.788 315.288 541.243 315.741 538.518 315.17C535.962 314.635 533.893 313.293 531.859 311.759C531.439 311.443 531.019 311.117 530.596 310.788C528.993 309.544 527.345 308.264 525.49 307.343C525.048 307.124 524.737 306.683 524.461 306.043C524.324 305.727 524.205 305.385 524.081 305.024L524.056 304.951C523.943 304.617 523.823 304.268 523.687 303.938C522.584 301.254 521.125 299.574 519.12 299.393C517.17 299.217 514.961 300.499 512.444 302.989C509.325 306.074 506.473 307.13 503.663 306.622C499.924 305.945 496.05 306.236 492.158 306.859C490.211 307.17 488.251 307.566 486.298 307.969C486.078 308.015 485.859 308.06 485.64 308.105C483.904 308.464 482.174 308.822 480.451 309.128C473.853 310.297 467.63 312.85 461.233 317.137C457.029 319.954 452.624 321.462 448.408 321.279C445.945 321.172 443.419 322.075 440.973 323.882C440.032 324.577 439.085 325.269 438.136 325.961C436.784 326.949 435.43 327.938 434.086 328.941C432.754 329.936 431.528 330.607 430.376 330.872C429.244 331.132 428.17 331.004 427.098 330.367C425.43 329.375 423.617 329.159 421.773 329.654C419.943 330.145 418.106 331.328 416.339 333.097C413.146 336.293 410.099 337.648 406.648 337.823C400.547 338.131 394.739 338.189 389.435 336.157C388.186 335.678 386.885 335.281 385.603 334.89C384.98 334.7 384.362 334.511 383.757 334.315C381.883 333.708 380.085 333.02 378.46 331.977C370.787 327.051 361.95 324.512 353.213 322.002C352.539 321.808 351.866 321.615 351.194 321.421C348.647 320.684 346.43 319.473 344.342 317.937C341.261 315.672 337.755 314.549 333.343 315.676C329.367 316.692 326.844 314.486 324.239 312.208C324.042 312.036 323.844 311.863 323.645 311.691C318.065 306.867 311.588 304.019 303.878 303.705C300.295 303.559 297.634 302.08 295.659 299.237C295.62 299.181 295.582 299.126 295.545 299.073C295.176 298.55 294.884 298.135 294.958 297.43C295.178 296.977 295.439 296.756 295.692 296.631C295.975 296.49 296.29 296.449 296.657 296.416C301.694 295.965 306.161 296.277 308.935 300.291C311.304 303.717 314.796 304.963 318.794 305.126L318.814 304.627L318.794 305.126C320.574 305.199 322.357 305.244 324.135 305.289C330.218 305.442 336.245 305.594 341.952 306.852C343.6 307.215 345.308 307.406 346.987 307.593C347.282 307.626 347.575 307.658 347.868 307.692C349.84 307.918 351.76 308.183 353.567 308.753L353.717 308.276L353.567 308.753C355.275 309.293 356.846 310.07 358.324 310.979C362.068 313.282 366.012 315.216 369.93 317.137L369.942 317.143C373.863 319.065 377.758 320.974 381.45 323.241C384.448 325.083 388.005 325.11 391.612 323.496C395.282 321.855 398.942 320.74 402.631 319.628L402.88 319.553C406.479 318.468 410.107 317.375 413.745 315.79C414.14 315.618 414.553 315.455 414.975 315.288C415.913 314.918 416.893 314.531 417.816 313.99L417.563 313.559L417.816 313.99C421.821 311.643 425.209 311.553 428.164 313.353C431.427 315.341 435.146 316.275 438.811 317.178C442.672 318.128 446.36 316.651 450.09 313.481C451.034 312.679 451.947 311.851 452.853 311.029C454.835 309.232 456.782 307.467 458.936 306.075C462.761 303.602 466.46 301.817 470.223 301.631C473.685 301.46 477.215 300.57 480.791 298.958C483.018 297.955 485.226 297.546 487.46 297.24C489.911 296.905 492.356 296.104 494.818 295.008C498.18 293.512 501.026 291.049 503.08 287.316C504.997 283.832 507.521 282.01 510.538 280.415C517.426 276.773 523.975 275.78 530.537 275.754C534.414 275.738 538.345 275.52 542.261 275.303C543.397 275.24 544.532 275.178 545.664 275.12C547.633 275.019 549.401 275.425 551.124 276.022C551.987 276.321 552.834 276.666 553.691 277.02L553.868 277.092C554.664 277.421 555.472 277.753 556.294 278.051C558.42 278.82 560.623 279.312 563.14 278.902C566.818 278.303 570.261 278.472 573.482 279.356C576.152 280.089 578.817 279.301 581.629 277.736C586.982 274.757 592.389 273.107 597.836 271.445C598.293 271.305 598.75 271.166 599.208 271.025C602.219 270.101 604.639 271.052 607.175 272.049C607.543 272.194 607.913 272.339 608.288 272.48C608.589 272.594 608.888 272.7 609.183 272.805C609.898 273.059 610.591 273.305 611.258 273.631C611.894 273.942 612.477 274.312 612.974 274.803Z" stroke="white" stroke-opacity="0.41"/>
    <path d="M117.773 463.687C115.245 462.626 113.797 460.209 112.331 457.827C110.273 454.481 108.236 451.157 105.021 449.14C102.917 447.821 100.481 447.605 97.9351 447.561C96.6668 447.539 95.3447 447.697 94.1098 447.575C90.6164 447.23 90.0456 444.779 92.1962 440.398C94.1337 436.45 96.4835 433.964 100.19 432.557C105.584 430.51 110.119 425.489 114.41 420.587C117.186 417.416 117.373 414.392 115.655 411.247C114.671 409.447 113.445 407.87 112.538 406.005C111.683 404.247 112.136 403.016 114.085 402.612C120.06 401.373 124.839 397.307 129.029 391.23C129.486 390.568 130.198 389.978 130.835 389.625C137.305 386.038 143.49 381.002 150.099 378.152C151.029 377.751 151.971 377.573 152.905 377.198C154.897 376.397 155.913 377.178 156.108 379.259C156.477 383.223 156.893 387.169 157.12 391.195C157.243 393.376 156.441 395.484 154.638 397.398C147.537 404.937 144.675 414.233 141.95 423.512C140.636 427.988 142.272 430.511 144.91 432.091C148.19 434.055 151.156 436.466 153.944 439.163C156.527 441.662 158.335 444.888 159.145 448.973C159.905 452.805 161.684 455.347 164.708 456.644C167.278 457.747 169.337 459.604 170.762 462.265C172.238 465.022 171.646 466.503 168.419 467.711C164.266 469.264 160.191 469.197 155.997 471.242C155.74 471.367 155.444 471.252 155.207 471.408C148.94 475.548 144.435 473.785 140.111 470.759C137.078 468.637 133.377 467.69 129.557 467.19C125.352 466.639 121.515 465.277 117.773 463.687Z" fill="#181717"/>
    <path d="M117.969 463.227L117.967 463.226C115.64 462.249 114.276 460.032 112.805 457.643L112.757 457.565L112.7 457.472C110.673 454.177 108.587 450.787 105.287 448.717C103.057 447.318 100.497 447.106 97.9439 447.061C97.4316 447.052 96.908 447.072 96.401 447.091C96.2636 447.096 96.1275 447.101 95.9932 447.106C95.3527 447.127 94.7414 447.135 94.1589 447.077L94.1098 447.575L94.1589 447.077C93.3367 446.996 92.7351 446.795 92.3153 446.51C91.9066 446.233 91.646 445.861 91.5206 445.375C91.258 444.357 91.5777 442.792 92.645 440.618C94.542 436.753 96.8084 434.375 100.367 433.025C105.9 430.925 110.515 425.797 114.786 420.917C116.223 419.276 117.021 417.636 117.214 415.965C117.408 414.292 116.989 412.647 116.094 411.007C115.658 410.211 115.176 409.456 114.705 408.719C114.633 408.606 114.561 408.494 114.489 408.382C113.947 407.531 113.427 406.691 112.988 405.786L112.538 406.005L112.988 405.786C112.586 404.961 112.554 404.381 112.719 403.999C112.877 403.633 113.29 403.287 114.186 403.101L114.085 402.612L114.186 403.101C120.338 401.826 125.212 397.646 129.441 391.514C129.846 390.926 130.496 390.385 131.078 390.062L131.078 390.062C133.677 388.621 136.233 386.946 138.77 385.284C139.41 384.864 140.049 384.446 140.687 384.032C143.866 381.97 147.034 380.018 150.297 378.611L150.099 378.152L150.297 378.611C150.733 378.423 151.176 378.286 151.645 378.144C151.676 378.134 151.707 378.125 151.739 378.116C152.174 377.984 152.633 377.846 153.091 377.661C154.03 377.284 154.58 377.345 154.901 377.562C155.238 377.789 155.517 378.31 155.61 379.305C155.682 380.081 155.756 380.855 155.83 381.629C156.135 384.816 156.439 387.993 156.621 391.223C156.735 393.249 155.997 395.226 154.274 397.055C147.08 404.693 144.192 414.102 141.47 423.371C140.79 425.688 140.857 427.559 141.486 429.079C142.114 430.595 143.274 431.694 144.653 432.52C147.893 434.46 150.828 436.845 153.596 439.522L153.944 439.163L153.596 439.522C156.104 441.948 157.864 445.081 158.655 449.071C159.438 453.019 161.298 455.725 164.51 457.104C166.975 458.161 168.949 459.939 170.321 462.501C171.043 463.849 171.168 464.728 170.894 465.374C170.613 466.036 169.837 466.646 168.243 467.242C166.478 467.903 164.729 468.263 162.935 468.633C162.665 468.689 162.393 468.745 162.121 468.802C160.052 469.237 157.934 469.741 155.778 470.792L155.778 470.792C155.761 470.801 155.738 470.806 155.571 470.814L155.562 470.814C155.43 470.82 155.172 470.832 154.932 470.991L154.932 470.991C151.877 473.009 149.302 473.559 146.991 473.275C144.663 472.988 142.537 471.847 140.398 470.35C137.267 468.159 133.473 467.199 129.622 466.694C125.483 466.152 121.694 464.81 117.969 463.227ZM117.773 463.687C115.296 462.647 113.857 460.307 112.421 457.972L112.331 457.827L112.305 457.783C110.255 454.452 108.222 451.148 105.021 449.14C102.917 447.821 100.481 447.605 97.9351 447.561L117.773 463.687Z" stroke="white" stroke-opacity="0.41"/>
    <path d="M248.578 634.288C246.505 632.674 244.387 630.978 242.158 629.762C238.405 627.716 234.576 625.735 230.658 623.955C229.987 623.65 229.153 623.606 228.573 624.738C228.142 625.58 228.503 626.259 228.973 626.67C230.875 628.332 232.892 629.84 234.703 631.621C237.324 634.197 237.002 637.28 233.979 640.828C232.663 642.372 231.178 642.906 229.727 643.262C226.654 644.016 223.594 644.612 220.534 645.228C219.179 645.501 217.99 645.304 216.949 644.607C215.654 643.741 214.34 642.872 212.897 642.286C210.413 641.28 209.105 639.122 208.254 636.232C207.367 633.219 206.192 630.401 202.855 630.261C200.843 630.177 198.911 630.941 196.951 632.42C193.577 634.965 190.584 635.092 187.897 633.638C184.43 631.762 180.94 629.944 178.074 627.059C176.805 625.782 175.015 625.19 173.491 624.238C167.847 620.716 164.72 615.165 166.281 605.864C166.715 603.278 166.727 600.895 165.979 598.775C165.47 597.335 166.195 596.391 167.618 596.132C170.677 595.575 173.128 596.451 175.078 598.423C177.156 600.524 179.79 601.616 182.415 602.81C186.76 604.786 191.089 606.76 194.793 609.959C201.975 616.16 210.629 619.449 221.192 617.682C232.061 615.865 241.866 617.52 251.815 618.855C256.108 619.43 260.552 619.562 264.947 619.826C268.783 620.056 269.288 620.982 268.021 625.901C265.656 635.085 266.875 638.588 273.326 640.882C274.038 641.135 274.608 641.457 274.983 642.179C275.367 642.921 275.531 643.723 274.968 644.746C274.38 645.815 273.622 646.033 272.803 645.929C271.692 645.788 270.624 645.608 269.667 645.057C266.448 643.208 263.104 641.573 259.934 639.643C256.351 637.46 251.845 637.065 248.578 634.288Z" fill="#181717"/>
    <path d="M248.902 633.907L248.894 633.9L248.885 633.893C248.724 633.768 248.563 633.642 248.401 633.516C246.488 632.023 244.493 630.466 242.397 629.323C238.638 627.274 234.797 625.287 230.865 623.5C230.476 623.323 229.977 623.192 229.459 623.323C228.921 623.459 228.466 623.851 228.128 624.51C227.857 625.039 227.823 625.551 227.955 626.005C228.084 626.447 228.358 626.796 228.644 627.046C229.351 627.663 230.059 628.249 230.762 628.83C231.994 629.848 233.206 630.85 234.353 631.977C235.577 633.181 236.076 634.455 235.96 635.818C235.841 637.207 235.077 638.769 233.599 640.503C232.381 641.932 231.015 642.431 229.608 642.776C226.907 643.439 224.217 643.979 221.516 644.521C221.156 644.593 220.795 644.665 220.435 644.738C219.191 644.988 218.142 644.805 217.227 644.192C215.938 643.329 214.583 642.43 213.084 641.823C210.809 640.9 209.567 638.921 208.734 636.091C208.29 634.582 207.754 633.047 206.874 631.87C205.972 630.665 204.711 629.839 202.876 629.761L202.855 630.261L202.876 629.761C200.712 629.671 198.669 630.498 196.65 632.021C195.016 633.253 193.507 633.876 192.111 634.031C190.719 634.187 189.401 633.883 188.135 633.198C187.973 633.111 187.813 633.024 187.652 632.937C184.336 631.146 181.103 629.398 178.429 626.707C177.741 626.015 176.923 625.519 176.115 625.086C175.846 624.942 175.582 624.806 175.323 624.674C174.781 624.396 174.259 624.128 173.756 623.814L173.756 623.814C171.001 622.095 168.887 619.898 167.643 617.02C166.398 614.139 166.005 610.528 166.774 605.947C167.215 603.319 167.238 600.84 166.45 598.609L166.45 598.609C166.232 597.993 166.304 597.569 166.491 597.286C166.687 596.989 167.078 596.738 167.708 596.624C170.601 596.097 172.887 596.918 174.723 598.775C176.708 600.782 179.181 601.898 181.587 602.984C181.794 603.078 182.002 603.172 182.208 603.265L182.208 603.265C186.563 605.246 190.825 607.193 194.467 610.338C201.742 616.621 210.543 619.97 221.275 618.176C231.13 616.527 240.103 617.757 249.192 619.002C250.043 619.119 250.895 619.236 251.749 619.35C255.078 619.797 258.503 619.978 261.903 620.158C262.911 620.212 263.917 620.265 264.917 620.325C265.868 620.382 266.562 620.48 267.061 620.653C267.544 620.82 267.804 621.041 267.952 621.333C268.113 621.646 268.184 622.118 268.117 622.864C268.05 623.604 267.852 624.552 267.537 625.776C266.353 630.373 266.026 633.676 266.896 636.141C267.785 638.66 269.874 640.185 273.158 641.353C273.817 641.587 274.248 641.85 274.539 642.409C274.711 642.742 274.817 643.055 274.831 643.379C274.845 643.698 274.773 644.064 274.53 644.505C274.274 644.971 274.006 645.207 273.756 645.327C273.504 645.448 273.214 645.477 272.866 645.433C271.757 645.292 270.778 645.12 269.916 644.624C268.557 643.843 267.177 643.101 265.803 642.362C265.541 642.222 265.28 642.081 265.019 641.94C263.385 641.06 261.767 640.174 260.194 639.216C258.611 638.252 256.852 637.625 255.151 637.02C254.868 636.919 254.586 636.819 254.308 636.718C252.329 636.001 250.461 635.232 248.902 633.907ZM173.491 624.238C167.847 620.716 164.72 615.165 166.281 605.864C166.715 603.278 166.727 600.895 165.979 598.775C165.47 597.335 166.195 596.391 167.618 596.132L173.491 624.238Z" stroke="white" stroke-opacity="0.41"/>
    <path d="M126.828 595.19C128.073 595.997 129.094 596.381 129.688 597.432C132.153 601.802 136.539 602.399 141.197 602.448C141.708 602.454 142.225 602.435 142.743 602.411C144.214 602.343 144.972 603.225 145.178 604.803C145.396 606.476 144.595 608.348 143.353 609.174C138.772 612.22 136.485 616.794 134.294 621.962C132.521 626.144 125.161 630.953 121.856 630.837C119.991 630.771 119.162 629.376 118.792 627.483C118.412 625.537 118.243 623.462 117.8 621.559C116.875 617.586 114.651 616.157 110.718 617.525C106.154 619.111 102.538 617.926 98.9509 616.555C97.3823 615.956 95.9886 614.994 94.4653 614.294C91.9503 613.139 90.3793 611.154 90.0519 607.603C89.8401 605.305 88.9327 603.393 87.6798 601.767C85.1898 598.534 85.5414 596.984 89.2972 593.284C91.4063 591.206 93.5553 589.192 95.7126 587.201C97.9579 585.128 100.073 584.506 102.079 585.674C109.009 589.71 116.991 591.539 124.598 594.153C125.508 594.466 126.335 594.957 126.828 595.19Z" fill="#181717"/>
    <path d="M142.767 602.911L142.767 602.911C142.246 602.935 141.717 602.954 141.191 602.948C136.529 602.899 131.866 602.311 129.252 597.678C129.007 597.244 128.672 596.938 128.222 596.634C127.994 596.479 127.744 596.33 127.462 596.163L127.426 596.142C127.165 595.987 126.881 595.819 126.583 595.627C126.429 595.553 126.26 595.465 126.077 595.371C125.61 595.127 125.056 594.839 124.436 594.626L142.767 602.911ZM142.767 602.911C143.39 602.882 143.798 603.052 144.077 603.339C144.371 603.641 144.586 604.135 144.682 604.868C144.878 606.375 144.141 608.049 143.076 608.757C138.36 611.893 136.027 616.595 133.834 621.767C133.003 623.727 130.814 625.908 128.365 627.6C127.151 628.439 125.896 629.142 124.75 629.627C123.592 630.116 122.592 630.362 121.873 630.337L121.873 630.337C121.082 630.309 120.544 630.009 120.15 629.528C119.739 629.027 119.461 628.298 119.283 627.387L118.792 627.483M142.767 602.911L118.792 627.483M118.792 627.483L119.283 627.387C119.121 626.555 118.997 625.698 118.871 624.827C118.853 624.696 118.834 624.565 118.815 624.433C118.669 623.433 118.514 622.42 118.287 621.445C117.811 619.401 116.975 617.892 115.64 617.108C114.297 616.32 112.588 616.345 110.554 617.052C106.17 618.576 102.702 617.454 99.1294 616.088L118.792 627.483Z" stroke="white" stroke-opacity="0.41"/>
    <path d="M66.9867 38.9973C63.8109 41.1996 60.8032 43.4877 57.974 46.2867C56.4094 47.8345 54.6445 48.3356 52.9045 48.2074C48.9382 47.9149 45.6587 46.4386 43.2561 43.2738C41.6784 41.1956 39.9818 39.2671 37.7439 38.0483C33.424 35.6954 28.3795 37.1213 24.0552 42.5287C21.652 45.534 19.4914 46.9956 16.7088 46.4441C13.3493 45.7782 10.1719 47.7257 7.2461 51.1918C5.9382 52.7413 4.73748 54.5503 2.95345 53.8553C1.25379 53.1933 0.943992 51.3812 1.21689 49.2359C1.47731 47.1887 2.07815 45.077 2.33165 43.0316C2.97369 37.8516 2.33334 33.6435 -1.6411 31.9215C-3.72895 31.0168 -5.61958 29.7439 -7.1126 27.8852C-9.7095 24.6522 -13.5038 23.259 -16.6988 20.9444C-18.2583 19.8146 -20.7333 18.5633 -19.7956 16.2242C-18.6496 13.3651 -15.9741 14.4939 -14.0269 14.3848C-8.57335 14.0792 -3.3871 14.2775 1.12895 16.9431C4.25965 18.7909 8.2603 19.1687 12.4954 18.2538C14.9713 17.719 16.8964 18.2299 18.5481 19.9603C20.9272 22.4526 24.0486 23.8472 27.642 24.0389C34.0442 24.3804 39.2349 27.4347 44.8576 29.4879C51.6038 31.9516 57.4613 36.305 65.119 36.8422C65.714 36.8839 66.2028 37.3326 66.682 37.6827C66.8409 37.7988 66.8146 38.1998 66.9867 38.9973Z" fill="#181717"/>
    <path d="M-6.72277 27.572L-6.72278 27.572C-8.07367 25.8903 -9.72746 24.6984 -11.4171 23.646C-11.9949 23.2861 -12.5704 22.946 -13.14 22.6093C-14.2601 21.9473 -15.3575 21.2987 -16.4055 20.5395C-16.607 20.3935 -16.8219 20.2465 -17.0361 20.1003L-17.052 20.0894C-17.2628 19.9455 -17.4736 19.8015 -17.6814 19.6527C-18.1091 19.3464 -18.5037 19.0336 -18.8181 18.6967C-19.1317 18.3606 -19.3472 18.0195 -19.4437 17.66C-19.5378 17.3095 -19.5293 16.9035 -19.3315 16.4102L-19.7954 16.2243L-19.3315 16.4102C-19.0757 15.7719 -18.7509 15.3934 -18.4053 15.1607C-18.0557 14.9252 -17.6438 14.8114 -17.1698 14.7715C-16.6898 14.7311 -16.1769 14.7683 -15.6307 14.8144C-15.5926 14.8176 -15.5544 14.8209 -15.516 14.8241C-15.0196 14.8665 -14.4908 14.9116 -13.9989 14.884L-14.0266 14.3896L-13.9989 14.884C-8.5596 14.5792 -3.5045 14.7888 0.874801 17.3737C4.14309 19.3027 8.28076 19.6758 12.601 18.7425C13.7808 18.4876 14.7962 18.489 15.6969 18.7393C16.5945 18.9888 17.413 19.4952 18.1865 20.3056C20.6582 22.895 23.9018 24.3401 27.6154 24.5382L27.642 24.0389L27.6154 24.5382C30.7436 24.7051 33.5872 25.5349 36.3647 26.589C37.6526 27.0777 38.9204 27.6123 40.1975 28.1508C40.2988 28.1936 40.4002 28.2363 40.5017 28.2791C41.8786 28.8593 43.2676 29.4396 44.6861 29.9576C46.8982 30.7654 48.9949 31.7696 51.1167 32.7858C52.2119 33.3103 53.3139 33.8381 54.442 34.3437C57.7274 35.8164 61.169 37.0663 65.084 37.341L65.119 36.8422L65.084 37.341C65.2653 37.3537 65.4547 37.4299 65.6779 37.5702C65.8348 37.6688 65.9742 37.7749 66.1293 37.8931C66.1871 37.9371 66.2471 37.9828 66.3109 38.0303C66.3176 38.0597 66.3258 38.1024 66.3359 38.1646C66.3431 38.2093 66.3509 38.2612 66.3596 38.3197C66.3782 38.4434 66.4011 38.5965 66.4329 38.7734C63.344 40.9269 60.4002 43.183 57.6223 45.9312C56.1669 47.371 54.5466 47.827 52.9413 47.7087C49.0898 47.4247 45.9544 46.0012 43.6543 42.9714C42.0682 40.8822 40.3187 38.8812 37.9831 37.6092C35.7046 36.3682 33.2229 36.1221 30.7509 36.9015C28.2895 37.6776 25.8701 39.4587 23.6647 42.2164C21.2875 45.1892 19.2973 46.4474 16.806 45.9537C13.169 45.2328 9.82296 47.3638 6.86401 50.8693C6.71017 51.0516 6.56181 51.232 6.417 51.4081C5.91625 52.017 5.458 52.5742 4.96264 52.9775C4.65383 53.2289 4.36082 53.3928 4.0715 53.4652C3.79135 53.5353 3.48756 53.5268 3.13495 53.3895C2.44367 53.1202 2.03805 52.6295 1.82192 51.9502C1.59814 51.2469 1.58029 50.3414 1.71289 49.299C1.83937 48.3047 2.04843 47.2914 2.26216 46.2554L2.26655 46.2341C2.48031 45.1979 2.69823 44.139 2.82786 43.0931C3.15202 40.4777 3.16158 38.0491 2.55522 36.0356C1.94125 33.9969 0.695496 32.389 -1.44231 31.4627C-3.47332 30.5827 -5.29152 29.3539 -6.72277 27.572ZM66.2972 37.9811C66.2973 37.9811 66.2977 37.982 66.2984 37.9839C66.2976 37.9821 66.2972 37.9812 66.2972 37.9811Z" stroke="white" stroke-opacity="0.41"/>
    <path d="M103.758 44.3521C100.642 42.1261 97.1492 40.5562 94.3692 37.762C91.3793 34.7569 87.614 33.7683 82.6815 36.5903C80.8952 37.6123 79.2113 37.4407 77.6167 37.2476C76.0288 37.0554 75.8216 35.7309 76.9856 33.8548C77.6068 32.8536 78.4071 31.9743 79.1115 31.0257C81.6937 27.5487 83.6201 23.8103 84.8002 19.7065C85.3932 17.6444 86.129 15.5675 86.9781 13.5466C88.2475 10.5253 89.0588 7.59532 89.2313 4.55386C89.4323 1.0119 90.165 0.126287 93.3078 -1.01932C94.5134 -1.45879 95.7186 -1.67166 96.9261 -2.06441C101.825 -3.65767 105.127 -7.84038 106.013 -13.5779C106.233 -15.0004 106.32 -16.403 106.539 -17.8254C107.077 -21.3211 108.459 -24.509 111.118 -27.1322C113.36 -29.3449 115.309 -31.6892 116.655 -34.8061C117.795 -37.4449 118.978 -37.7684 120.399 -36.2373C122.065 -34.4419 122.387 -31.5656 122.523 -28.8096C122.816 -22.8753 124.604 -18.3488 128.072 -15.0398C128.978 -14.1752 130.447 -12.9158 129.339 -11.1276C128.122 -9.16248 126.742 -10.5677 125.556 -10.9673C119.66 -12.9539 115.086 -9.82244 112.161 -1.7182C111.07 1.3035 109.846 4.24706 108.103 7.03685C107.383 8.19034 106.67 9.40992 106.184 10.6516C102.549 19.9395 103.986 31.9585 109.396 36.8953C111.59 38.8974 113.3 41.2833 113.806 44.836C113.963 45.9384 114.404 47.1681 113.337 48.4051C112.113 49.8252 111.38 48.689 110.608 48.2738C108.291 47.0275 106.037 45.6676 103.758 44.3521Z" fill="#181717"/>
    <path d="M125.716 -11.4411C122.642 -12.477 119.856 -12.1884 117.461 -10.5386C115.093 -8.90698 113.17 -5.98701 111.69 -1.88797C110.604 1.12073 109.395 4.0261 107.679 6.77194C106.956 7.92963 106.222 9.18201 105.718 10.4694C103.868 15.1969 103.312 20.6076 103.902 25.4654C104.491 30.3106 106.231 34.6842 109.059 37.2646C111.194 39.2133 112.826 41.5005 113.311 44.9065L113.806 44.836L113.311 44.9065C113.338 45.0969 113.369 45.2802 113.4 45.4579C113.565 46.4196 113.702 47.2159 112.959 48.0786C112.686 48.3942 112.481 48.521 112.341 48.5691C112.214 48.6123 112.103 48.6052 111.975 48.5581C111.83 48.5051 111.676 48.4062 111.482 48.2647C111.452 48.2432 111.421 48.2201 111.388 48.196C111.229 48.0786 111.037 47.9369 110.845 47.8335C109.186 46.9415 107.564 45.9933 105.933 45.0398C105.301 44.67 104.667 44.2995 104.029 43.9311C102.936 43.1515 101.788 42.4456 100.658 41.7504C100.169 41.4492 99.6824 41.15 99.2052 40.8477C97.6049 39.834 96.074 38.7666 94.7236 37.4094C93.1741 35.852 91.3905 34.7848 89.3231 34.4958C87.2551 34.2067 84.9693 34.7053 82.4332 36.1563L82.6815 36.5903L82.4332 36.1563C80.803 37.089 79.2706 36.9442 77.6767 36.7513C77.3431 36.7109 77.1295 36.6164 76.9978 36.5106C76.8738 36.4109 76.7942 36.2791 76.7615 36.0952C76.6897 35.6913 76.8477 35.0254 77.4104 34.1184C77.7059 33.6423 78.0472 33.1898 78.4098 32.7302C78.513 32.5995 78.6187 32.4672 78.7255 32.3335C78.9886 32.0043 79.2584 31.6666 79.5129 31.3238C82.1272 27.8036 84.0825 24.0118 85.2808 19.8447C85.8681 17.8021 86.5973 15.7438 87.4391 13.7402C88.7237 10.6827 89.5539 7.69583 89.7305 4.58218C89.8305 2.81945 90.0618 1.84629 90.5674 1.16725C91.0724 0.488979 91.9121 0.0216005 93.479 -0.549561C94.0577 -0.76049 94.6404 -0.918554 95.2424 -1.07557C95.312 -1.0937 95.3818 -1.11184 95.452 -1.13006C95.9834 -1.26801 96.5318 -1.41039 97.0807 -1.58893C102.185 -3.24913 105.597 -7.60675 106.508 -13.5016C106.619 -14.2257 106.697 -14.9431 106.773 -15.6475L106.773 -15.6479C106.85 -16.3559 106.925 -17.051 107.033 -17.7493C107.558 -21.1585 108.9 -24.2415 111.469 -26.7762C113.735 -29.012 115.733 -31.4087 117.114 -34.6079L117.114 -34.6079C117.39 -35.2459 117.658 -35.7194 117.916 -36.0515C118.175 -36.385 118.402 -36.5478 118.589 -36.6144C118.905 -36.7268 119.352 -36.6297 120.032 -35.8972L120.032 -35.8972C120.785 -35.0855 121.254 -34.0087 121.548 -32.7682C121.843 -31.5271 121.956 -30.1571 122.024 -28.785C122.321 -22.7589 124.143 -18.0977 127.727 -14.6781C127.766 -14.641 127.805 -14.6038 127.844 -14.5664C128.288 -14.1457 128.748 -13.7086 129.019 -13.1963C129.16 -12.9293 129.239 -12.6591 129.236 -12.3769C129.233 -12.0968 129.149 -11.7709 128.914 -11.3909L128.914 -11.3909C128.645 -10.9559 128.4 -10.7616 128.202 -10.6761C128.01 -10.5927 127.804 -10.5864 127.553 -10.6468C127.292 -10.7098 127.016 -10.837 126.7 -10.9948C126.66 -11.0146 126.62 -11.0349 126.579 -11.0557C126.311 -11.1906 126.009 -11.3424 125.716 -11.4411ZM125.716 -11.4411L125.556 -10.9673L125.716 -11.4411C125.716 -11.4411 125.716 -11.4411 125.716 -11.4411Z" stroke="white" stroke-opacity="0.41"/>
    <path d="M32.2262 383.351C29.7628 382.413 28.127 380.137 25.9953 378.599C20.0472 374.307 12.9854 372.052 6.63805 368.494C4.96936 367.558 3.2345 366.738 1.5897 365.762C0.906238 365.357 -0.000925862 364.985 0.539205 363.488C1.02691 362.137 2.04453 361.791 2.97401 361.421C3.6386 361.157 4.31711 360.997 4.9739 360.895C7.8068 360.452 10.5553 359.337 13.2974 357.181C15.9638 355.084 18.4379 354.765 21.0016 355.407C24.3601 356.248 27.2649 357.86 30.098 359.627C32.6541 361.222 35.3857 362.386 38.497 362.767C39.8902 362.938 41.1727 363.308 41.8781 364.632C44.7336 369.993 49.255 373.194 53.9878 375.902C60.8373 379.821 67.1719 384.573 74.0132 388.489C76.1821 389.73 78.1821 391.295 80.8296 391.651C81.543 391.747 82.171 392.206 82.7167 392.671C85.9311 395.411 89.3284 397.803 93.6037 398.674C94.305 398.817 94.8803 399.331 95.4542 399.764C96.4889 400.544 95.7969 401.671 94.8758 402.405C93.3157 403.647 91.6964 404.144 90.27 403.511C89.3941 403.123 88.5459 402.662 87.7641 402.11C85.5717 400.563 83.0894 399.838 80.133 400.042C76.0457 400.324 72.4541 399.011 69.2835 397.222C64.667 394.619 59.5106 393.269 54.4672 391.672C50.2025 390.322 46.5611 387.757 42.1457 386.731C38.7154 385.933 35.0611 385.593 32.2262 383.351Z" fill="#181717"/>
    <path d="M32.5364 382.958L32.476 382.911L32.4041 382.883C31.261 382.448 30.2921 381.696 29.3195 380.827C29.0633 380.598 28.8046 380.359 28.542 380.116C27.8291 379.457 27.0872 378.77 26.2879 378.194C23.2739 376.019 19.9859 374.366 16.6783 372.818C15.9474 372.477 15.2164 372.14 14.4871 371.804C11.9035 370.615 9.34102 369.436 6.88256 368.058C6.16557 367.656 5.43618 367.275 4.71447 366.898C4.58834 366.832 4.46244 366.766 4.33688 366.7C3.4896 366.256 2.65483 365.813 1.84472 365.332C1.77944 365.294 1.71918 365.259 1.66198 365.226C1.54717 365.16 1.4447 365.101 1.33878 365.031C1.18987 364.931 1.08172 364.838 1.00754 364.737C0.890542 364.579 0.777986 364.3 1.00952 363.658L0.539205 363.488L1.00952 363.658C1.39702 362.584 2.14877 362.286 3.05653 361.927C3.0904 361.913 3.12448 361.9 3.15877 361.886C3.77955 361.639 4.41994 361.487 5.05117 361.389C7.96903 360.932 10.7973 359.783 13.6065 357.574C16.1467 355.576 18.4607 355.287 20.8802 355.892L21.0016 355.407L20.8802 355.892C24.1602 356.713 27.0108 358.291 29.8334 360.051C32.4334 361.673 35.234 362.871 38.4361 363.264C39.7999 363.431 40.8544 363.774 41.4368 364.867C44.3601 370.355 48.9832 373.614 53.7395 376.336C57.1485 378.287 60.4317 380.446 63.7288 382.614L63.7429 382.624C67.031 384.786 70.3333 386.959 73.7648 388.923C74.2136 389.179 74.6546 389.45 75.1033 389.726C75.1885 389.778 75.274 389.83 75.3599 389.883C75.8945 390.21 76.441 390.54 77.0056 390.843C78.1366 391.449 79.3579 391.958 80.7629 392.147L80.8296 391.651L80.7629 392.147C81.319 392.222 81.8496 392.589 82.3924 393.052C85.6242 395.806 89.1012 398.267 93.5038 399.164L93.6035 398.675L93.5039 399.164C93.7666 399.218 94.0245 399.345 94.3009 399.527C94.4993 399.658 94.6826 399.8 94.8798 399.953C94.9673 400.021 95.0576 400.091 95.1531 400.163C95.342 400.305 95.4191 400.437 95.4499 400.543C95.4814 400.65 95.479 400.781 95.4246 400.942C95.3097 401.283 94.9902 401.674 94.5643 402.013C93.0664 403.206 91.6493 403.576 90.4727 403.054L90.27 403.511L90.4727 403.054C89.6209 402.676 88.8025 402.231 88.0525 401.702C85.764 400.086 83.1673 399.332 80.0987 399.543L80.133 400.042L80.0986 399.543C76.1443 399.816 72.652 398.548 69.5291 396.787L69.2835 397.222L69.5291 396.787C65.6274 394.586 61.3405 393.269 57.1176 391.971C56.2808 391.714 55.4465 391.458 54.6182 391.196C52.7672 390.61 51.0357 389.791 49.2698 388.955C49.0391 388.846 48.8079 388.737 48.5758 388.628C46.5788 387.688 44.5228 386.77 42.2589 386.243C41.5578 386.08 40.8681 385.94 40.1856 385.801C39.1438 385.589 38.1187 385.381 37.0949 385.1C35.4314 384.644 33.8805 384.021 32.5364 382.958Z" stroke="white" stroke-opacity="0.41"/>
    <path d="M-32.5303 589.385C-34.3212 588.402 -34.3956 586.933 -32.9339 584.769C-31.9427 583.301 -30.6165 582.483 -29.3736 581.484C-26.3626 579.062 -23.5136 576.471 -21.4808 572.653C-19.9685 569.812 -17.8719 568.293 -15.4348 568.581C-11.5678 569.038 -7.55545 568.589 -3.34991 567.095C-2.6962 566.863 -2.02385 566.851 -1.39414 566.865C0.403034 566.903 0.600723 567.904 -0.790352 569.861C-1.18124 570.411 -1.61724 570.962 -2.09256 571.393C-6.01572 574.949 -8.63212 579.091 -9.84311 584.48C-10.7434 588.487 -15.2865 592.104 -18.8851 592.275C-19.7779 592.318 -20.7257 592.323 -21.4588 591.982C-24.6107 590.515 -27.8482 589.313 -31.6953 589.617C-32.067 589.646 -32.3886 589.428 -32.5303 589.385Z" fill="#181717"/>
    <path d="M-3.1825 567.566L-3.18252 567.566C-7.45539 569.084 -11.545 569.544 -15.4934 569.077C-17.6385 568.824 -19.5746 570.137 -21.0395 572.888C-23.1212 576.797 -26.0354 579.44 -29.0602 581.873C-29.3464 582.103 -29.6289 582.319 -29.9055 582.53C-30.8852 583.278 -31.79 583.968 -32.5196 585.049C-33.2317 586.103 -33.4995 586.893 -33.4533 587.481C-33.4117 588.012 -33.1016 588.492 -32.3243 588.928C-32.2727 588.948 -32.2239 588.97 -32.1921 588.985C-32.1884 588.987 -32.1849 588.989 -32.1817 588.99C-32.1243 589.017 -32.0731 589.04 -32.018 589.062C-31.9065 589.105 -31.8141 589.124 -31.7348 589.118L-31.7347 589.118C-27.7549 588.804 -24.42 590.052 -21.2478 591.528C-20.6419 591.81 -19.8151 591.819 -18.9088 591.776C-17.2513 591.697 -15.3169 590.814 -13.6738 589.433C-12.0334 588.055 -10.7505 586.238 -10.3309 584.371C-9.09528 578.872 -6.4205 574.641 -2.42837 571.022C-2.42837 571.022 -2.42836 571.022 -2.42836 571.022L-2.09256 571.393C-1.61724 570.962 -1.18124 570.411 -0.790352 569.861L-3.1825 567.566ZM-3.1825 567.566C-2.62142 567.367 -2.02883 567.351 -1.40489 567.365L-3.1825 567.566Z" stroke="white" stroke-opacity="0.41"/>
    <path d="M254.492 281.33C253.496 282.173 252.857 282.289 252.196 282.298C247.194 282.365 242.062 283.167 236.902 284.142C231.418 285.179 227.111 283.032 222.675 281.332C220.782 280.606 221.003 278.183 222.842 275.954C224.361 274.113 226.177 272.768 227.977 271.613C231.014 269.661 232.85 267.152 233.471 263.315C233.882 260.769 234.628 260.417 236.509 261.226C237.871 261.812 238.838 262.913 239.591 264.246C241.698 267.978 244.586 270.423 248.417 271.849C252.012 273.187 253.408 277.208 254.492 281.33Z" fill="#181717"/>
    <path d="M251.958 275.788C252.814 277.334 253.405 279.2 253.925 281.145C253.574 281.414 253.289 281.568 253.045 281.658C252.752 281.766 252.489 281.794 252.189 281.798L252.189 281.798C247.143 281.865 241.975 282.674 236.809 283.651C232.133 284.535 228.358 283.039 224.457 281.493C223.926 281.283 223.393 281.071 222.854 280.865C222.476 280.72 222.228 280.501 222.073 280.243C221.917 279.98 221.838 279.642 221.858 279.231C221.899 278.399 222.35 277.336 223.227 276.272L222.842 275.954L223.227 276.272C224.699 274.489 226.465 273.178 228.247 272.033L228.247 272.033C231.393 270.012 233.319 267.383 233.964 263.395L233.964 263.395C234.065 262.774 234.181 262.319 234.316 261.992C234.452 261.667 234.589 261.51 234.71 261.432C234.822 261.36 234.978 261.318 235.239 261.349C235.509 261.382 235.857 261.49 236.311 261.685L236.311 261.685C237.536 262.212 238.432 263.212 239.155 264.492L239.155 264.492C241.32 268.326 244.3 270.849 248.243 272.318L248.417 271.849L248.243 272.318C249.894 272.932 251.062 274.167 251.958 275.788Z" stroke="white" stroke-opacity="0.41"/>
    <path d="M177.352 281.262C179.279 278.543 181.175 278.181 182.798 277.002C185.422 275.094 187.243 272.921 187.882 269.43C188.462 266.26 189.276 263.042 190.219 259.861C191.436 255.755 193.54 252.113 196.696 249.144C201.228 244.879 205.713 240.526 210.244 236.258C213.097 233.569 214.196 233.555 215.728 236.284C216.477 237.619 217.015 239.165 217.56 240.683C217.871 241.548 218.264 242.415 217.905 243.953C214.625 245.291 212.339 248.201 209.947 251.759C206.66 256.649 202.734 261.115 197.99 264.158C193.737 266.887 190.008 270.847 186.964 275.386C184.21 279.492 181.321 280.909 177.352 281.262Z" fill="#181717"/>
    <path d="M197.038 249.508L196.696 249.144L197.038 249.508C199.306 247.374 201.562 245.219 203.816 243.064L203.976 242.91C206.177 240.807 208.377 238.704 210.587 236.622L210.244 236.258L210.587 236.622C211.293 235.957 211.869 235.477 212.358 235.166C212.849 234.852 213.206 234.739 213.481 234.739C213.735 234.74 213.989 234.838 214.284 235.115C214.591 235.403 214.917 235.861 215.292 236.529C215.976 237.748 216.481 239.156 216.999 240.599C217.029 240.684 217.059 240.768 217.09 240.852C217.114 240.919 217.138 240.985 217.161 241.05C217.43 241.785 217.681 242.468 217.47 243.594C214.166 245.038 211.864 248.012 209.532 251.48L209.947 251.759L209.532 251.48C206.266 256.339 202.385 260.744 197.72 263.738C193.396 266.512 189.621 270.527 186.549 275.107C185.203 277.115 183.844 278.435 182.362 279.299C181.195 279.98 179.93 280.39 178.5 280.618C179.164 279.874 179.818 279.378 180.455 278.978C180.822 278.746 181.181 278.548 181.546 278.347C181.623 278.305 181.699 278.262 181.776 278.22C182.214 277.976 182.66 277.72 183.091 277.406L182.798 277.002L183.091 277.406C185.786 275.448 187.705 273.173 188.373 269.52C188.95 266.372 189.759 263.172 190.698 260.003C191.893 255.973 193.954 252.41 197.038 249.508Z" stroke="white" stroke-opacity="0.41"/>
    <path d="M362.813 475.452C361.708 477.413 360.256 478.524 358.532 478.907C355.318 479.62 352.287 479.695 349.418 478.93C347.573 478.438 346.676 477.211 346.671 474.901C346.669 473.686 346.747 472.437 346.675 471.253C346.515 468.612 345.621 466.649 343.628 465.718C342.872 465.365 342.098 464.986 341.502 464.396C340.095 463.003 340.734 460.881 342.909 459.583C344.1 458.873 345.3 458.544 346.51 458.279C351.227 457.25 355.607 457.423 359.663 458.745C365.188 460.547 366.684 468.569 362.813 475.452Z" fill="#181717"/>
    <path d="M349.547 478.447L349.418 478.93L349.547 478.447C348.708 478.223 348.138 477.849 347.766 477.312C347.388 476.768 347.174 475.995 347.171 474.9C347.17 474.499 347.179 474.081 347.188 473.656C347.205 472.845 347.222 472.01 347.174 471.222C347.009 468.494 346.071 466.307 343.84 465.265L343.84 465.265C343.077 464.908 342.38 464.561 341.854 464.04L341.854 464.04C341.285 463.477 341.137 462.79 341.342 462.095C341.553 461.379 342.155 460.615 343.165 460.013L343.165 460.013C344.286 459.344 345.422 459.029 346.616 458.768L346.616 458.768C351.256 457.755 355.546 457.929 359.508 459.221C362.052 460.05 363.713 462.322 364.27 465.285C364.827 468.25 364.261 471.857 362.377 475.207C361.329 477.066 359.985 478.072 358.424 478.418C355.267 479.119 352.321 479.187 349.547 478.447Z" stroke="white" stroke-opacity="0.41"/>
    <path d="M23.5433 581.5C22.2953 579.343 19.9907 578.644 17.6704 577.958C17.2137 577.823 16.7697 577.558 16.4689 577.181C15.679 576.19 14.8451 575.007 16.298 573.239C17.5911 571.666 19.0008 571.741 19.7926 572.889C21.5305 575.409 23.7863 577.104 26.2945 578.548C28.2367 579.666 30.2459 579.716 32.6236 578.056C36.0522 575.662 39.234 575.111 42.3164 575.927C43.9019 576.347 45.5963 575.983 47.3803 574.793C49.6793 573.259 52.1554 570.986 53.6904 573.947C55.102 576.67 54.3617 581.733 52.201 584.653C47.8739 590.5 40.2072 592.327 36.845 588.28C33.9649 584.813 30.8265 581.86 25.7494 582.299C25.0147 582.363 24.3979 581.828 23.5433 581.5Z" fill="#181717"/>
    <path d="M16.8599 576.869L16.8598 576.869C16.4595 576.367 16.1322 575.911 16.0331 575.405C15.9426 574.944 16.0294 574.353 16.6842 573.556C17.278 572.834 17.8358 572.567 18.2612 572.543C18.6679 572.52 19.0642 572.714 19.381 573.173L19.381 573.173C21.1772 575.777 23.5024 577.518 26.045 578.981C27.0798 579.577 28.1628 579.905 29.3223 579.843C30.4797 579.781 31.6647 579.335 32.9099 578.466C36.2365 576.143 39.2686 575.637 42.1884 576.411L42.1885 576.411C43.9479 576.876 45.7888 576.456 47.6577 575.209L47.3803 574.793L47.6578 575.209C47.935 575.024 48.2142 574.829 48.4887 574.637L48.5349 574.605C48.8261 574.401 49.1123 574.202 49.3957 574.015C49.9672 573.638 50.4991 573.33 50.9891 573.156C51.4764 572.983 51.8726 572.96 52.2064 573.083C52.5368 573.206 52.8988 573.507 53.2465 574.177C53.886 575.411 54.0612 577.24 53.7902 579.156C53.5205 581.064 52.8195 582.977 51.7991 584.356C49.7015 587.19 46.802 589.037 44.0459 589.69C41.2848 590.344 38.7502 589.791 37.2295 587.96C34.3361 584.478 31.0502 581.339 25.7064 581.801C25.4748 581.821 25.2365 581.751 24.9048 581.594C24.8134 581.551 24.7083 581.497 24.5934 581.439C24.382 581.331 24.1377 581.206 23.8864 581.1C22.5084 578.868 20.0612 578.144 17.8324 577.485L17.8124 577.479C17.4341 577.367 17.0851 577.152 16.8599 576.869Z" stroke="white" stroke-opacity="0.41"/>
    <path d="M212.519 410.154C209.132 407.241 205.151 403.785 201.135 400.381C199.671 399.14 198.096 398.058 196.624 396.83C196.079 396.375 195.553 395.817 195.243 395.115C194.657 393.789 194.096 392.233 195.101 390.41C196.314 388.21 197.753 388.917 199.08 389.081C201.806 389.419 203.724 391.516 206.558 391.64C207.682 391.689 208.7 392.118 209.827 392.149C211.745 392.201 213.001 393.194 213.627 395.08C214.763 398.5 216.523 401.167 219.375 402.666C220.091 403.043 220.507 403.946 221.17 404.44C222.306 405.288 223.19 406.235 222.107 408.448C221.017 410.675 219.549 411.899 217.599 412.067C215.817 412.221 214.522 411.392 212.519 410.154Z" fill="#181717"/>
    <path d="M201.458 399.999L201.458 399.999C204.373 402.47 207.269 404.968 209.931 407.264C210.929 408.125 211.894 408.957 212.815 409.749L212.819 409.751C214.837 410.999 215.979 411.705 217.556 411.569L217.556 411.569C219.274 411.421 220.617 410.356 221.658 408.229C222.164 407.193 222.165 406.551 222.001 406.105C221.828 405.634 221.433 405.26 220.871 404.841L201.458 399.999ZM201.458 399.999C200.715 399.369 199.945 398.781 199.185 398.203M201.458 399.999L199.185 398.203M196.944 396.446C196.428 396.015 195.967 395.515 195.7 394.913C195.123 393.608 194.656 392.252 195.539 390.651C196.084 389.663 196.62 389.411 197.105 389.356C197.375 389.325 197.663 389.351 197.989 389.404C198.096 389.421 198.216 389.443 198.343 389.466C198.564 389.507 198.804 389.551 199.019 389.578L199.019 389.578C200.215 389.726 201.247 390.239 202.37 390.796C202.432 390.827 202.494 390.858 202.557 390.889C203.729 391.47 205.003 392.072 206.536 392.139L206.536 392.139C207.042 392.161 207.529 392.268 208.066 392.386L208.084 392.39C208.615 392.506 209.196 392.632 209.814 392.649L209.814 392.649C210.686 392.672 211.372 392.908 211.905 393.322C212.441 393.737 212.863 394.364 213.153 395.237L213.626 395.08L213.153 395.237C214.312 398.727 216.135 401.527 219.142 403.109C219.401 403.245 219.627 403.488 219.907 403.827C219.937 403.864 219.967 403.901 219.999 403.939C220.238 404.232 220.524 404.583 220.871 404.841L196.944 396.446ZM196.944 396.446C197.642 397.028 198.363 397.577 199.095 398.134M196.944 396.446L199.095 398.134M199.185 398.203C199.155 398.18 199.125 398.157 199.095 398.134M199.185 398.203L199.095 398.134" stroke="white" stroke-opacity="0.41"/>
    <path d="M311.763 551.909C310.23 551.116 308.935 550.284 308.163 548.692C307.859 548.064 307.608 547.532 308.152 546.641C308.562 545.969 309.104 545.686 309.618 545.724C314.432 546.082 319.388 543.657 324.351 541.559C326.626 540.597 328.883 540.297 331.102 540.183C332.89 540.092 334.207 540.887 335.328 542.007C336.61 543.287 336.559 545.211 335.362 547.452C332.795 552.256 327.908 555.253 324.218 554.18C322.111 553.567 319.91 553.299 317.616 553.256C315.451 553.214 313.266 553.195 311.763 551.909Z" fill="#181717"/>
    <path d="M312.044 551.492L312.088 551.529C312.746 552.093 313.571 552.394 314.525 552.556C315.458 552.715 316.472 552.734 317.53 552.754C317.562 552.754 317.594 552.755 317.626 552.756L317.616 553.256L317.626 552.756C319.952 552.8 322.198 553.072 324.358 553.7L324.222 554.169L324.358 553.7C326.025 554.184 328.022 553.763 329.952 552.592C331.875 551.426 333.678 549.544 334.921 547.216C336.079 545.05 336.022 543.406 334.975 542.361C333.912 541.299 332.724 540.601 331.128 540.682L331.128 540.682C328.936 540.795 326.744 541.09 324.545 542.02L324.545 542.02C324.016 542.244 323.485 542.472 322.953 542.701C321.006 543.538 319.039 544.384 317.087 545.037C314.596 545.871 312.082 546.409 309.581 546.222M312.044 551.492L308.579 546.901C308.918 546.344 309.301 546.202 309.581 546.222M312.044 551.492L311.993 551.465C310.478 550.682 309.31 549.912 308.613 548.474C308.455 548.147 308.359 547.935 308.337 547.714C308.317 547.521 308.352 547.273 308.579 546.901L312.044 551.492ZM309.581 546.222L309.618 545.724L309.581 546.222C309.581 546.222 309.581 546.222 309.581 546.222Z" stroke="white" stroke-opacity="0.41"/>
    <path d="M203.273 223.025C202.098 222.362 200.964 221.566 201.549 219.447C202.148 217.279 203.353 215.438 205.247 214.413C207.002 213.465 208.382 213.615 209.239 215.192C210.104 216.784 210.793 218.527 210.97 220.578C211.144 222.59 209.962 224.104 208.214 224.128C206.437 224.152 204.737 223.865 203.273 223.025Z" fill="#181717"/>
    <path d="M203.522 222.591L203.519 222.589C202.93 222.257 202.453 221.943 202.17 221.509C201.908 221.108 201.767 220.534 202.031 219.58L201.613 219.464L202.031 219.58C202.604 217.504 203.742 215.796 205.485 214.853C206.316 214.404 206.981 214.259 207.495 214.348C207.981 214.432 208.426 214.742 208.8 215.431L208.8 215.431C209.645 216.985 210.303 218.66 210.472 220.621C210.55 221.521 210.322 222.272 209.918 222.791C209.518 223.305 208.928 223.618 208.208 223.628L208.214 224.128L208.208 223.628C206.484 223.652 204.882 223.372 203.522 222.591Z" stroke="white" stroke-opacity="0.41"/>
    <path d="M276.293 570.714C274.694 569.69 273.317 569.289 274.098 567.203C274.856 565.177 276.276 564.466 277.878 564.318C279.812 564.139 281.276 564.85 282.323 566.297C282.827 566.994 283.045 568.079 282.534 569.245C281.974 570.521 280.883 570.868 280.004 570.975C278.443 571.166 276.915 571.128 276.293 570.714Z" fill="#181717"/>
    <path d="M276.569 570.298L276.569 570.298L276.563 570.293C276.356 570.161 276.154 570.039 275.964 569.926C275.938 569.91 275.913 569.895 275.887 569.88C275.725 569.783 275.574 569.693 275.431 569.603C275.097 569.394 274.848 569.212 274.672 569.019C274.506 568.838 274.412 568.652 274.382 568.424C274.352 568.184 274.388 567.853 274.566 567.378C274.914 566.447 275.401 565.851 275.956 565.467C276.516 565.08 277.181 564.884 277.924 564.816C279.681 564.653 280.974 565.285 281.917 566.59L281.917 566.59C282.317 567.144 282.516 568.041 282.076 569.044C281.62 570.084 280.747 570.381 279.943 570.479L279.943 570.479C279.183 570.571 278.442 570.607 277.825 570.572C277.181 570.535 276.761 570.425 276.569 570.298Z" stroke="white" stroke-opacity="0.41"/>
    <path d="M36.5181 545.648C31.8048 548.988 27.7072 547.737 27.02 543.068C26.7798 541.437 27.9087 540.841 28.7373 541.048C30.8331 541.572 33.1977 541.62 34.6288 543.518C35.1473 544.206 35.7544 544.794 36.5181 545.648Z" fill="#181717"/>
    <path d="M27.5146 542.996L27.5147 542.996C27.8376 545.189 28.933 546.469 30.3949 546.88C31.7897 547.273 33.6597 546.92 35.7605 545.558C35.6589 545.448 35.5591 545.341 35.4613 545.235C35.0047 544.744 34.5909 544.299 34.2295 543.819C33.6006 542.985 32.7613 542.543 31.7865 542.246C31.2959 542.096 30.7799 541.986 30.2427 541.878C30.1508 541.86 30.0581 541.841 29.9648 541.823C29.52 541.735 29.0617 541.644 28.6162 541.533L27.5146 542.996ZM27.5146 542.996C27.4132 542.306 27.6077 541.929 27.8162 541.737M27.5146 542.996L27.8162 541.737M27.8162 541.737C28.0402 541.531 28.354 541.468 28.6161 541.533L27.8162 541.737ZM27.0202 543.068L27.02 543.068L27.0202 543.068Z" stroke="white" stroke-opacity="0.41"/>
    <path d="M281.836 291.648C287.782 288.989 289.269 289.519 290.714 294.437C286.892 295.201 285.687 294.845 281.836 291.648Z" fill="#181717"/>
    <path d="M286.435 294.051C285.411 293.731 284.355 293.046 282.784 291.778C283.921 291.292 284.86 290.951 285.649 290.756C286.605 290.519 287.288 290.51 287.81 290.677C288.316 290.839 288.738 291.188 289.129 291.817C289.468 292.361 289.771 293.095 290.074 294.051C288.491 294.337 287.456 294.369 286.435 294.051Z" stroke="white" stroke-opacity="0.41"/>
</svg>